<svg xmlns="http://www.w3.org/2000/svg" style="isolation:isolate" viewBox="0 0 800 100" width="800pt" height="100pt"><defs><clipPath id="a"><path d="M0 0h800v100H0z"/></clipPath></defs><g clip-path="url(#a)"><path fill="#FFF" d="M0 0h800v100H0z"/><path d="M139 61.3S141.2 76 154 81h-51.3c12.7-4.9 14.8-19.7 14.8-19.7H139z" fill="#E0E0E0"/><linearGradient id="b" x1=".5" y1="1" x2=".5" y2="0" gradientTransform="matrix(51.688 0 0 3.129 102.4 81)" gradientUnits="userSpaceOnUse"><stop offset="0%" stop-opacity=".3" stop-color="gray"/><stop offset="54%" stop-opacity=".1" stop-color="gray"/><stop offset="100%" stop-opacity=".1" stop-color="gray"/></linearGradient><path transform="translate(-.1 .2)" fill="url(#b)" d="M102.4 81h51.7v3.1h-51.7z"/><path fill="#F5F5F5" d="M102.7 81h51.2v2.4h-51.2z"/><linearGradient id="c" x1="0" y1=".5" x2="0" y2="-.5" gradientTransform="matrix(86.678 0 0 58.737 84.9 8)" gradientUnits="userSpaceOnUse"><stop offset="0%" stop-opacity=".1" stop-color="gray"/></linearGradient><path d="M169.8 8l-83.3.1c-.9 0-1.6.8-1.6 1.8V60c0 3.7 2.9 6.6 6.4 6.6h73.9c3.5 0 6.3-3 6.3-6.8V9.7c0-1-.8-1.7-1.7-1.7z" fill="url(#c)"/><path d="M87.3 9.6H169c.8 0 1.5.6 1.5 1.4v46.5H85.9V11c0-.8.6-1.4 1.4-1.4z" fill="#FFF"/><path d="M165 65.2l-73.5.1a5.5 5.5 0 01-5.5-5.5v-2.4l84.5-.1v2.4c0 3-2.5 5.5-5.5 5.5z" fill="#F5F5F5"/><path fill="#9A68F2" d="M90 13.4h76.6V52H90.1z"/><defs><linearGradient id="d" x1="0" y1=".5" x2="0" y2="-.5"><stop offset="0%" stop-color="rgba(128,128,128,.1)"/></linearGradient></defs><path d="M77.5 28h35.2c1.3 0 2.3 1 2.3 2.2v57.1c0 1.3-1 2.4-2.2 2.4H77.6c-1.3 0-2.3-1-2.3-2.3l-.1-57.1c0-1.3 1-2.3 2.3-2.3z" fill="url(#d)"/><linearGradient id="e" x1=".5" y1="1" x2=".5" y2="0" gradientTransform="matrix(34.385 0 0 51.767 78 32.7)" gradientUnits="userSpaceOnUse"><stop offset="0%"/><stop offset="54.4%"/><stop offset="99.6%"/></linearGradient><path transform="translate(0 .1)" fill="url(#e)" d="M78 32.7h34.4v51.8H78z"/><path d="M78.7 29l32.8-.1c1.2 0 2.3 1 2.3 2.3v54.2c0 1.3-1 2.4-2.2 2.4H78.8c-1.3 0-2.3-1-2.3-2.3l-.1-54.3c0-1.2 1-2.3 2.3-2.3z" fill="#fff"/><path fill="#9A68F2" d="M79 33.5h32.3v49.4H79z"/><ellipse vector-effect="non-scaling-stroke" cx="95.2" cy="85.3" rx="1.3" ry="1.4" fill="#DBDBDB"/><path d="M89.1 31.3c0-.3.2-.5.5-.5.2 0 .4.2.4.5 0 .2-.2.4-.4.4a.4.4 0 01-.5-.4z" fill="#DBDBDB"/><path d="M92 31h5.4s.2 0 .2.2-.1.2-.2.2H92l-.2-.1v-.1c0-.1 0-.2.2-.2z" fill="#dbdbdb"/><defs><linearGradient id="f" x1="0" y1=".5" x2="0" y2="-.5"><stop offset="0%" stop-color="rgba(128,128,128,.1)"/></linearGradient></defs><path d="M63.3 42.8H87c.8 0 1.4.5 1.4 1.3v45.3c0 .7-.6 1.4-1.3 1.4H63.4c-.7 0-1.3-.6-1.3-1.4L62 44.1c0-.7.6-1.3 1.3-1.3z" fill="url(#f)"/><path d="M64 43.6h22.4c.8 0 1.4.5 1.4 1.3v43.4c0 .7-.6 1.3-1.3 1.3H64c-.7 0-1.3-.5-1.3-1.3V45c0-.7.5-1.3 1.3-1.3z" fill="#fff"/><path fill="#9A68F2" d="M65.5 46.8H85v37.5H65.5z"/><circle vector-effect="non-scaling-stroke" cx="75.1" cy="87.1" fill="#DBDBDB" r="1.6"/><path d="M72 45c0-.1 0-.2.2-.2s.3 0 .3.3c0 .1 0 .3-.3.3a.3.3 0 01-.3-.3z" fill="#DBDBDB"/><path d="M73.8 44.8h4.4c.2 0 .2.1.2.2v.1c0 .1 0 .2-.2.2h-4.4s-.2 0-.2-.2.1-.3.2-.3z" fill="#dbdbdb"/><g><ellipse vector-effect="non-scaling-stroke" cx="121.7" cy="90.9" rx="33" ry="1.1" fill="#6C63FF" opacity=".1"/><mask id="g" x="-200%" y="-200%" width="400%" height="400%"><rect x="-200%" y="-200%" width="400%" height="400%" fill="#fff"/><path d="M148 90.1s7-9 6.5-18c-.2-3.7.7-7.4 2.8-10.6 1-1.5 2-2.9 3.3-4.1"/></mask><path d="M148 90.1s7-9 6.5-18c-.2-3.7.7-7.4 2.8-10.6 1-1.5 2-2.9 3.3-4.1" fill="none" mask="url(#g)" vector-effect="non-scaling-stroke" stroke-width=".9" stroke="#535461" stroke-miterlimit="10"/><path d="M148 90.1s7-9 6.5-18c-.2-3.7.7-7.4 2.8-10.6 1-1.5 2-2.9 3.3-4.1" fill="none"/><path d="M160.3 51.7c-.5 1.3.3 5.8.3 5.8s3.7-2.7 4.2-4a2.4 2.4 0 00-4.5-1.8zM153.8 57.1c.2 1.4 3.4 4.7 3.4 4.7s1.6-4.3 1.4-5.6a2.4 2.4 0 00-4.8 1zM149.2 69c.9 1 5.3 2.4 5.3 2.4s-.8-4.6-1.6-5.6a2.4 2.4 0 10-3.7 3.3zM147.7 78.9c.7 1.1 4.9 3.1 4.9 3.1s0-4.6-.7-5.7a2.4 2.4 0 10-4.2 2.6zM161.9 64c-1.3.5-5.8-.3-5.8-.3s2.7-3.7 3.9-4.2a2.4 2.4 0 011.9 4.5zM160 75.4c-1.3.1-5.4-2-5.4-2s3.7-2.7 5-2.8a2.4 2.4 0 11.4 4.8zM156.7 86.3c-1.3.3-5.7-1-5.7-1s3.2-3.4 4.5-3.7a2.4 2.4 0 011.2 4.7z" fill="#6C63FF"/><path d="M160.3 51.7c-.5 1.3.3 5.8.3 5.8s3.7-2.7 4.2-4a2.4 2.4 0 00-4.5-1.8zM153.8 57.1c.2 1.4 3.4 4.7 3.4 4.7s1.6-4.3 1.4-5.6a2.4 2.4 0 00-4.8 1zM149.2 69c.9 1 5.3 2.4 5.3 2.4s-.8-4.6-1.6-5.6a2.4 2.4 0 10-3.7 3.3zM147.7 78.9c.7 1.1 4.9 3.1 4.9 3.1s0-4.6-.7-5.7a2.4 2.4 0 10-4.2 2.6zM161.9 64c-1.3.5-5.8-.3-5.8-.3s2.7-3.7 3.9-4.2a2.4 2.4 0 011.9 4.5zM160 75.4c-1.3.1-5.4-2-5.4-2s3.7-2.7 5-2.8a2.4 2.4 0 11.4 4.8zM156.7 86.3c-1.3.3-5.7-1-5.7-1s3.2-3.4 4.5-3.7a2.4 2.4 0 011.2 4.7z" fill="#7021F9"/><mask id="h" x="-200%" y="-200%" width="400%" height="400%"><rect x="-200%" y="-200%" width="400%" height="400%" fill="#fff"/><path d="M148 89.8s10.2-5.4 13.3-13.8c1.3-3.5 3.7-6.6 6.8-8.6 1.5-1 3.1-1.8 4.8-2.5"/></mask><path d="M148 89.8s10.2-5.4 13.3-13.8c1.3-3.5 3.7-6.6 6.8-8.6 1.5-1 3.1-1.8 4.8-2.5" fill="none" mask="url(#h)" vector-effect="non-scaling-stroke" stroke-width=".9" stroke="#535461" stroke-miterlimit="10"/><path d="M148 89.8s10.2-5.4 13.3-13.8c1.3-3.5 3.7-6.6 6.8-8.6 1.5-1 3.1-1.8 4.8-2.5" fill="none"/><path d="M174.9 59.6c-1 1-2 5.5-2 5.5s4.4-1 5.4-2a2.4 2.4 0 00-3.4-3.5zM166.7 62c-.3 1.3 1.2 5.6 1.2 5.6s3.3-3.2 3.6-4.6a2.4 2.4 0 10-4.8-1zM157.7 71c.4 1.3 3.9 4.3 3.9 4.3s1.2-4.5.7-5.8a2.4 2.4 0 10-4.6 1.5zM152.4 79.4c.2 1.3 3.1 4.8 3.1 4.8s2-4.2 1.7-5.5a2.4 2.4 0 10-4.8.7zM171.3 71.5c-1.3 0-5.2-2.6-5.2-2.6s4-2.3 5.3-2.3a2.4 2.4 0 010 4.9zM165 81.2c-1.3-.4-4.2-4-4.2-4s4.5-1 5.8-.6a2.4 2.4 0 01-1.6 4.6zM157.6 89.8c-1.4-.2-4.8-3.3-4.8-3.3s4.2-1.8 5.6-1.5a2.4 2.4 0 01-.8 4.8z" fill="#9A68F2"/><path d="M149 90.5h-1.2l-8-41-1 41h-1l-1.4-41-7.7 41h-1.3l5.3-42.2.2-1.4 10.3-1.1.3 2.5 5.4 42.2zM120.4 37.6h6.6v4.1h-6.6zM158.6 35.8l4-1.6h.8c.3 0 .5.2.5.5v11.1c0 .3-.2.5-.5.5h-.9l-4-1.6v-9zM150.4 36.3h8.1v7.9h-8.1z" fill="#464353"/><path fill="#514E7F" d="M136.3 21.5h5.2v1h-5.2zM130.3 22.7H145v10.8h-14.7z"/><path d="M130.3 32.2H145v1.3h-14.7zM150.3 36.3h.3v7.9h-.3zM124.7 37.6h2.2v4.1h-2.2zM143.5 48.3h-10.8l.2-1.4 10.3-1.1.3 2.5z" opacity=".1"/><path d="M126.3 32.4H149c.7 0 1.3.6 1.3 1.3v13.1c0 .7-.6 1.3-1.3 1.3h-22.8c-.8 0-1.4-.6-1.4-1.3v-13c0-.8.6-1.4 1.3-1.4z" fill="#514e7f"/><path d="M158.5 35.8v8.9a.6.6 0 01-.7-.7v-7.6a.6.6 0 01.7-.6zM162.5 34.2h.8c.3 0 .6.2.6.5v11.1c0 .3-.3.5-.6.5h-.8V34.2z" fill="#514E7F"/><path d="M120.4 37.6h1.2v4.1h-1.2z" opacity=".1"/><path d="M120 36.3h.5c.5 0 .9.4.9.9v5.1c0 .5-.4 1-1 1h-.4a.9.9 0 01-1-1v-5.1c0-.5.5-1 1-1z" fill="#514e7f"/><circle vector-effect="non-scaling-stroke" cx="130.3" cy="22.7" r="7.3" fill="#464353"/><circle vector-effect="non-scaling-stroke" cx="130.3" cy="22.7" r="5.5" fill="#DBC7FF"/><circle vector-effect="non-scaling-stroke" cx="143.9" cy="22.9" r="5.4" fill="#464353"/><circle vector-effect="non-scaling-stroke" cx="143.9" cy="22.9" r="4" fill="#DBC7FF"/><circle vector-effect="non-scaling-stroke" cx="143.5" cy="34.7" r=".7" fill="#DBC7FF"/><circle vector-effect="non-scaling-stroke" cx="145.8" cy="34.7" r=".7" fill="#9A68F2"/><linearGradient id="i" x1=".5" y1="1" x2=".5" y2="0" gradientTransform="matrix(47.386 0 0 78.916 90.6 12.4)" gradientUnits="userSpaceOnUse"><stop offset="0%" stop-opacity=".3" stop-color="gray"/><stop offset="54%" stop-opacity=".1" stop-color="gray"/><stop offset="100%" stop-opacity=".1" stop-color="gray"/></linearGradient><path d="M137 37.2l-.1-.1c.3 0 .6.2.8.4 0-1-4.2-4-4.9-4-.7 0-1.5-1.3-1.5-1.3s-2.2-.4-2.5-.7c-.3-.4-2.5-.2-3 0-.6 0-1.4-.4-1.4-.4s-.5-.7-1-.7c-.6 0-1.2-.8-1.2-.8s-.5-.5-1-.6c-.5 0-1.1-.6-1.4-1-.3-.4-1.7-.6-2.6-.5-.8.1-3-.2-3-.2 1-.4 1.1-1.4 1.1-1.4-.8 0-2.9-1.8-2.9-1.8l.2 1.4-.1-.2v-1.7-.1a3.8 3.8 0 001-4h.6c.2 0 .4 0 .6-.2V19h.1V19l-.1-.6-.3-1c0-.4.2-.6.3-.9a1.6 1.6 0 000-.3c0-.5-.4-1-.8-1.1l-1.3-.5c-.5-.3-.7-.8-1-1.2-.5-.6-1.2-1-2-1-.4 0-.9.3-1.3.4-.7.2-1.5 0-2.2.1l-.4.2-.1.3V14l.1.1v1.4c-.4.5-1 .7-1.3 1.2l-.2.4v.4l.1.2.5.8-.1.7v.4a.6.6 0 000 .1l.7.3v.4l-.2.8v.5l.1.2c.2.2.4.2.7.2h.4l.1.2.7 1-.1 1c-.3-.2-.6-.2-.7-.1-.4.4 0 2 0 2s-2 0-2.5.4c-.5.5-1.4 0-1.4 0s-1.8.2-1.7.6c.1.4-1 0-1 0s-.7 0-.7.6-1.2.8-1 1.2c.2.3-.7.6-.7.6s-1 0-.6.5c0 0-.5 1.1-1 1.2l-.9 1s-1.5.3-1.5.8L91 37s-.8 1.7-.2 3c0 0 1 2 1 2.4.2.5 1.7 2.4 1.7 2.8l.8 1.5-.1.2-.3.3s-1 2.6.2 2.7c1 0 1.8.2 2.1 0h.2l.8 1h.2l.3-.3V53s.5 0 .2 2.4a6.6 6.6 0 001.5 4.5v3.9c0 .5.2 1.7.6 2.5.6 1.1 0 3.9 0 3.9l.1 5v.3c-2.4 2-5 4.8-5 4.8l.3.2-.2.2-.6.8-.6.7.9 2.5.9-.3s.5.8.4 1.4l-.2.3v.1c-.3 1 .7 5 2.3 5 0 0 .5.3.7-.2l-.1-1.2s-.8-1-.3-2.1l1.2-2 .2-.3.5.7 1.2-1.3a4 4 0 00.4.7l.8 3.2h.3v.2c0 .5 0 1.3.3 1.8.2.4.5.7 1 .7 2 0 2.5-1 2.5-1v-2.6l.7-.2s0-5.6-.2-8.8v-.2l4.2-4.5.3-.2c2.7-1 2.7-3.8 2.7-3.8s0-1.5.3-2.7c.4-1.3 0-8-.5-9.5-.6-1.7-.8-3.5-.8-3.5s.6-.9 0-1.6a3 3 0 01-.5-.7l.8-.1.5-.1h.2c-.1 1-.1 1.9.2 2 .9.7 3.9-1.4 3.9-1.4-1.1 0-1.7-8.2-1.5-8.4.2-.2.6-4.3.3-5-.3-.8 1-4 1-4l.2-.4s4.8 2.1 5.4 2.5c0 0 2.2-1 2.4-.4l2.1 1.3s2.7-.3 3 .4c.3.6 2 2.2 2 2.2v-1l.1.2c.9 1.9 2.2 4.3 3.5 3 1.4-1.5.3-4.2-.4-5.6zm-36.4 8.7zm-1-9.5l-.5 5.5-1 1-.1.2-1-1.1s-.6-.3 0-.7l-1-1.5s0-.7.5-1l1.2-1.5 2-1v.1zm6.9 28c.3-.1.5 0 .5.3v1.2c-.3.7.4 3.3.4 3.3s-1 .4-1.1 1.2l-.1.2v-.2l-.2-.8c-.1-.6-.2-1.2 0-1.9a1300.4 1300.4 0 00.5-3.2z" fill="url(#i)"/><path d="M112.2 24.6l.2-.2.8 1.6-.3.3h-.9v-.9l.2-.8z" fill="#464353"/><path d="M107 87v3.4s-.5 1-2.4 1c-.5 0-1-.2-1.1-.6a4 4 0 01-.3-2l.1-.8 3.7-1z" fill="#3F3D56"/><path d="M107 87v1l-3.8.9.1-.9 3.7-1z" opacity=".1"/><path d="M107.7 87.7l-4.8 1-.8-3.2a4 4 0 01-.5-.9 30 30 0 01-1.4-8.8v-.5l-.2-5s.6-2.8 0-3.9c-.4-.8-.5-2-.6-2.6v-.4l.4-1h4l2.3 2 .4.3v.2l-.6 3 .1 2a228.3 228.3 0 00.2 1.1 95 95 0 001.3 7.9l.2 8.8z" fill="#514E7F"/><path d="M107 90.3s-.5 1-2.4 1.1c-.5 0-1-.2-1.1-.6.8.2 2.2.3 3.5-.5z" opacity=".1"/><path d="M137.3 43c-1.3 1.4-2.7-1-3.5-3l-.7-2 3.3-1.4.5.8c.7 1.4 1.8 4.2.4 5.6zM112.4 23.9c0 1.2 0 2.4.3 3.6 0 0-6.8.8-6.2-.3.4-.6.6-2.3.7-3.5l.2-1.6s6.5-2.6 5.5-.4c-.3.6-.4 1.4-.5 2.2z" fill="#C8A6AB"/><path d="M113 41.5l-1 10.9 4.3-.7-.7-9 .2-2.4-2.8 1.2z" fill="#464353"/><path d="M116.3 51.7l-1.8.3-2.4.4.2-2 .7-9 1-.3.6-.3 1.2-.5-.2 2.4.7 9z" opacity=".1"/><path d="M98.6 87.7c-.5 1 .3 2 .3 2 .2.7.2 1 0 1.3 0 .5-.6.3-.6.3-1.7-.2-2.7-4.7-2.3-5.2.5-.5-.2-1.7-.2-1.7l-1 .3-.8-2.5.6-.6.6-.9.5-.5 4.6 4.7-.5.7-1.2 2.1z" fill="#3F3D56"/><path d="M107.5 78.9l-5.7 6c-1-1.9-1.5-5.8-1.6-9 1-1 2-1.7 2.8-2.1 0 0 2.6-1.9 3.2-2.8a95 95 0 001.3 7.9zM106.1 64.4l-6.6-1 .3-1h4l2.3 2z" opacity=".1"/><path d="M107.4 78.4l-5.8 6.2c-.9-2-1.3-5.7-1.4-8.8v-.5c1-.8 2-1.6 2.8-2 0 0 2.5-1.8 3.1-2.7l.1.4a94.8 94.8 0 001.2 7.4zM100.3 85l-.5.6a31 31 0 00-4.6-4.9l.5-.5 4.6 4.7z" opacity=".1"/><path d="M115 67.4c-.3 1.3-.3 2.8-.3 2.8s0 2.7-2.7 3.8l-.4.1-11.1 12s-4.1-5.4-5.5-5.7c0 0 5.5-5.6 8-6.8 0 0 3.1-2.3 3.3-3 .2-.8 1-1.3 1-1.3s-.6-2.6-.3-3.2v-1.3c0-.2-.2-.4-.4-.2h-.1l-7.1-1V60s-1.7-2-1.5-4.5l-.3-2.4s0-4.1.4-4.5l3.7-1.9 10.5 1.9.5 2s.3 1.6 1 2.3v1.6s.2 1.8.8 3.5c.6 1.6.9 8.2.5 9.4z" fill="#514E7F"/><path d="M113 21.7c-.4.6-.5 1.4-.6 2.2a3.8 3.8 0 01-5.2-.2l.2-1.6s6.5-2.6 5.5-.4z" opacity=".1"/><path d="M113.7 21a3.8 3.8 0 11-7.6 0 3.8 3.8 0 017.6 0z" fill="#C8A6AB"/><path d="M110.7 27.5l-3-1.4-5.8 14.4-1.6 7.2s8.5 3.6 10.4 3.1h2s1.9-10.5 2.5-11.4c.6-1-.6-10.5-.6-10.5l-2.1-2.8-1.8 1.4z" opacity=".1"/><path d="M110.7 27l-3-1.4L102 40l-1.6 7.2s8.5 3.6 10.4 3.2h2s1.9-10.6 2.5-11.5c.6-1-.6-10.5-.6-10.5l-2.1-2.8-1.8 1.4z" opacity=".1"/><path d="M115.2 39.1a68.6 68.6 0 00-1 3.7l-1.5 7.8-.4-.2-1.6.2c-1.9.5-10.4-3.1-10.4-3.1l.3-1.1 1.3-6.2s5.7-14.5 5.9-14.4a22.1 22.1 0 002.9 1.5l1.7-1.4 2.2 2.7s1.2 9.6.6 10.5z" fill="#DBC7FF"/><path d="M108.7 28.7c.2 1-.4 2.5-.4 2.5s-2 4.8-2.5 7c-.6 2.3-3.8 6.8-3.8 6.8l-1.2 1.1-.2.3 1.3-6.2s5.7-14.5 5.9-14.4c0 .1 1.1.7 2 1-.6.5-1.3 1.3-1.1 2z" opacity=".1"/><path d="M108.4 28.7c.3 1-.3 2.5-.3 2.5s-2 4.8-2.5 7c-.6 2.3-3.9 6.8-3.9 6.8l-1.1 1.1-.3.3a261.4 261.4 0 01-4 3.9l-2.2-.1c-1.2-.1-.2-2.7-.2-2.7l.3-.3.3-.3 3.3-3.4.3-.3 1-1 .5-5.5v-.1l-.4-1a167.5 167.5 0 00-2.4-5.2c-.3-.6.6-.5.6-.5s.9-.3.7-.7c-.1-.3 1-.6 1-1.1 0-.5.8-.6.8-.6s1 .4 1 0c-.2-.4 1.7-.6 1.7-.6s.9.5 1.4 0c.5-.4 2.5-.4 2.5-.4s-.4-1.6 0-2c.4-.5 3.5 2 3.5 2s-1.8 1.3-1.6 2.2z" fill="#464353"/><path d="M98.2 49.6s3.4 4.8 5.8 3.2l-3.2-5.5-2.6 2.3z" opacity=".1"/><path d="M98.2 49.4s3.4 4.8 5.8 3.2l-3.2-5.6-2.6 2.4z" fill="#C8A6AB"/><path d="M114.5 52c.2-2.2 1-5.6.4-6.7-.3-.5-.6-1.4-.7-2.5L114 41l-.2-2.8s-1.5-6.5-1.2-7.9c.2-.8 0-3-.2-4.4l2.2 2.7s1.2 9.6.6 10.5a8 8 0 00-.6 1.7l1.2-.5-.2 2.4.7 9-1.8.3z" opacity=".1"/><path d="M112.4 24.4s2.1 1.8 3 1.8c0 0-.3 1-1.2 1.4 0 0 2.2.3 3 .2.9-.2 2.3 0 2.6.5.3.4.9.9 1.4 1 .5 0 1 .6 1 .6l-3.6 5.3s-1.3 3.2-1 4c0 0 0 4.8-.3 5 0 0 .4 8.4 1.5 8.4 0 0-3 2-4 1.5-.8-.6 1.2-7.3.3-8.8-.9-1.5-1-7-1-7s-1.6-6.6-1.3-8c.3-1.3-.4-5.9-.4-5.9z" fill="#464353"/><path d="M137 37.4c-1.2-.3-2.9-.3-3.2 2.6l-.7-2 3.3-1.4.5.8z" opacity=".1"/><path d="M120.2 29.6l2 .3s.6.8 1.2.8l1 .7s.8.5 1.3.3c0 0 2.8-.3 3.1 0l2.5.7s.8 1.3 1.5 1.3 4.8 3 5 4c0 0-4-2.5-4.1 3.1 0 0-1.7-1.5-2-2.2-.3-.6-3-.4-3-.4s-1.8-.8-2-1.3c-.3-.5-2 .9-2.5.5-.6-.4-5.4-2.5-5.4-2.5l-1.5-2.8 2.9-2.5z" fill="#464353"/><circle vector-effect="non-scaling-stroke" cx="110.9" cy="34.2" r=".3" fill="#3F3D56"/><circle vector-effect="non-scaling-stroke" cx="110.6" cy="41.5" r=".3" fill="#3F3D56"/><circle vector-effect="non-scaling-stroke" cx="110.9" cy="37.7" r=".3" fill="#3F3D56"/><circle vector-effect="non-scaling-stroke" cx="109.9" cy="45.3" r=".3" fill="#3F3D56"/><g opacity=".1"><path d="M99 91c-.2.5-.7.3-.7.3-1.7-.2-2.7-4.7-2.3-5.2.5-.5-.2-1.7-.2-1.7l-1 .3-.8-2.5.6-.6L96 84c.3.7.5 1.4.5 2.2 0 .8.9 4.6 2.5 4.7z"/></g><g opacity=".1"><path d="M113.6 20h-.2c-.3-.2-.6-.3-.8-.6-.1-.2-.2-.5-.4-.6-.3-.2-.6 0-1 0a2 2 0 01-1 0c-.5-.3-1.3-.6-1.8-.2-.4.2-.2.8-.3 1.3-.2.6-1 1-1 1.7-.1.3 0 .7-.3.9l-.3.1a3.8 3.8 0 117.1-2.6z"/></g><path d="M110.2 18.5c.3.1.7.2 1 .1.4 0 .7-.2 1 0 .2 0 .3.4.4.6l.8.5.7.2.6-.3c.2-.2.1-.6 0-1-.1-.3-.3-.6-.3-1l.3-1c0-.6-.3-1-.8-1.2l-1.3-.5c-.4-.3-.7-.8-1-1.2-.5-.6-1.2-1-2-1-.4 0-.8.3-1.3.4l-2.1.1-.5.2c-.2.3 0 .6 0 .9.1.5.2 1 0 1.5-.4.5-1 .7-1.3 1.2a1 1 0 000 1c.1.2.4.5.4.8l-.1.6.1.7c.2 0 .5 0 .6.2 0 .1.1.3 0 .4l-.1.7v.7c.3.4.8.3 1.2.3l.3-.2c.2-.2.2-.5.2-.8.2-.7.9-1.1 1-1.8.1-.4 0-1 .4-1.3.5-.4 1.3 0 1.8.2z" fill="#464353"/><g opacity=".1"><path d="M109.6 62.8s3.8 2.5 4 3.4l-4-3.4z"/></g><g opacity=".1"><path d="M109.4 64.8s4.4 2.1 4.2 2.8l-4.2-2.8z"/></g><g opacity=".1"><path d="M109.1 66.7s2.5 1.3 2.7 2l-2.7-2z"/></g><g opacity=".1"><path d="M110.2 69.6s1.6 1.4 2 1c.3-.3-2-1-2-1z"/></g><g opacity=".1"><path d="M107.9 70.5s1.3 2 .6 2.2l-.6-2.2z"/></g><g opacity=".1"><path d="M102.3 34.2s-2.2 1.3-1.5 1.7c.6.3 1.5-1.7 1.5-1.7z"/></g><g opacity=".1"><path d="M102.3 29.4s-2.2 4-1.2 3.8c1-.3 1.2-3.8 1.2-3.8z"/></g><g opacity=".1"><path d="M125.7 33.4s-1.3 1.6-1 2.5l1-2.5z"/></g><g opacity=".1"><path d="M129.3 34.2s-2 1.8-1.8 2l1.8-2z"/></g><g opacity=".1"><path d="M130.5 36.4s-.2 1.2.1 1.3v-1.3z"/></g><g opacity=".1"><path d="M108.4 61.4c-.5.6-.5 1.8-.7 2.3l-.7 1.1c0-.2-.2-.4-.4-.2L106 61c-.1-.5 1.2-2 1.2-2s1.3.3 1.7 1c.3.6 0 .6-.6 1.3z"/></g><g opacity=".1"><path d="M101.6 47.2c-1.4.2-4.2 4.1-4.2 4.1l-.8-1.3-2.1-3.1 3.6-3.7.6.7s1.3 1.3 1.3 1.5a32.4 32.4 0 001.6 1.8z"/></g><g opacity=".1"><path d="M97 30.6l-.2-.2h1.6l.8 5.3-2.3-5.1z"/></g><g opacity=".1"><path d="M100.3 46.4a265.9 265.9 0 01-4 3.9l-2.1-3.1.3-.3 3.3-3.4.4.4s1.3 1.3 1.3 1.5l.8 1z"/></g><path d="M98.7 30.5l-1.9-.2s-.5 1.2-.9 1.3l-1 1s-1.5.3-1.4.8c0 .5-2.4 4-2.4 4s-.9 1.6-.3 2.9c.6 1.2 1 2 1.1 2.5.1.4 1.6 2.4 1.6 2.7 0 .4 3.7 5.8 3.7 5.8s2.7-4 4.2-4.1c0 0-1.6-1.5-1.6-1.8 0-.2-1.3-1.5-1.3-1.5l-1.6-1.7s-.5-.3 0-.7L96 40s0-.7.5-1l1.2-1.5 2-1-1-6z" fill="#464353"/><g opacity=".1"><path d="M91.6 38.6s2.2-.5 2.3-.2c0 .3-2.3.2-2.3.2z"/></g><g opacity=".1"><path d="M93.5 40.8s1.8.3 1.8.7c-.1.4-1.8-.7-1.8-.7z"/></g><g opacity=".1"><path d="M95 33.9s1.8 2.5 2 2l-2-2z"/></g><g opacity=".1"><path d="M105.8 15v-1l-.2-.3.1.6.1.6zM114.4 17.6c0-.4.3-.7.3-1v-.3c0 .4-.3.8-.3 1.1v.2zM114.7 19.4c-.2.2-.4.2-.6.2-.3 0-.5 0-.7-.2-.3 0-.6-.2-.8-.5-.1-.2-.2-.5-.4-.6-.3-.2-.6 0-1 0a2 2 0 01-1 0c-.5-.2-1.3-.6-1.8-.2-.4.2-.2.8-.4 1.3-.1.6-.8 1-1 1.8 0 .3 0 .6-.2.8l-.3.1c-.4.1-.9.1-1.1-.2l-.2-.3c0 .2 0 .4.2.6.2.3.7.3 1 .2l.4-.1c.2-.2.2-.6.2-.9.2-.7.9-1.1 1-1.8.2-.4 0-1 .4-1.3.5-.4 1.3 0 1.8.2.3.1.7.2 1 .1.4 0 .7-.2 1 0 .2 0 .3.4.4.6l.8.5.7.2.6-.3c.1-.1.2-.3.1-.5l-.1.3zM104.8 18.5c0-.3-.3-.5-.4-.8l-.1-.3v.6l.5.8v-.3zM105.5 20.5V20c-.2-.2-.5-.2-.7-.3l-.1-.3.1.6c.2 0 .5 0 .6.2v.2z" opacity=".1"/></g></g><g><path d="M363.7 25.6l2.4 8.6 2.3-8.6h3.6l-4.3 12.7h-3.2l-4.3-12.7h3.5zm13.3 0v12.7h-3.4V25.6h3.4zm-3.6-3.2q0-.8.5-1.3.6-.5 1.4-.5.9 0 1.4.5.5.5.5 1.3 0 .7-.5 1.2t-1.4.5q-.8 0-1.3-.5-.6-.5-.6-1.2zm5.9 9.5q0-3 1.3-4.7 1.4-1.8 3.7-1.8 1.8 0 3 1.4v-6.5h3.4v18h-3l-.2-1.3q-1.3 1.6-3.3 1.6-2.2 0-3.6-1.8-1.3-1.8-1.3-5zm3.4.2q0 1.8.6 2.8.6 1 1.8 1 1.6 0 2.2-1.4v-5q-.6-1.3-2.2-1.3-2.4 0-2.4 4zm16.5 6.5q-2.8 0-4.6-1.8-1.7-1.7-1.7-4.5V32q0-2 .7-3.5.8-1.5 2.1-2.3 1.4-.8 3.1-.8 2.6 0 4.1 1.7 1.5 1.6 1.5 4.6v1.4h-8q0 1.2 1 2 .7.7 2 .7 2 0 3-1.4l1.7 1.9q-.7 1-2 1.7-1.3.6-3 .6zm-.4-10.4q-1 0-1.6.6-.7.7-.8 2h4.7v-.3q0-1.1-.6-1.7-.6-.6-1.7-.6zm7 3.8V32q0-2 .7-3.4.7-1.5 2.1-2.3 1.4-.8 3.2-.8 2.5 0 4.2 1.6 1.6 1.6 1.8 4.2v1q0 2.8-1.6 4.6-1.7 1.8-4.4 1.8t-4.4-1.8q-1.6-1.8-1.6-4.8zm3.4.1q0 1.8.7 2.8.6 1 2 1 1.1 0 1.8-1t.7-3q0-1.8-.7-2.8-.7-1-2-1-1.2 0-1.8 1-.7 1-.7 3zm17.6 2.7q0-.6-.7-1-.6-.3-2-.6-4.5-1-4.5-3.8 0-1.7 1.4-2.9 1.4-1 3.7-1 2.4 0 3.9 1 1.4 1.2 1.4 3h-3.4q0-.7-.4-1.2-.5-.5-1.5-.5-.9 0-1.3.4-.5.4-.5 1t.5 1q.6.3 1.8.5l2.2.6q2.7 1 2.7 3.4 0 1.7-1.5 2.8-1.5 1-3.9 1-1.6 0-2.8-.5-1.2-.6-2-1.6-.7-1-.7-2.1h3.3q0 .9.6 1.4.6.5 1.7.5 1 0 1.5-.4t.5-1zm11.2-1.7h-3q0-1.7.4-2.6.4-1 1.5-2 1-.9 1.4-1.5.3-.6.3-1.2 0-2-1.8-2-.9 0-1.4.5-.5.6-.5 1.5h-3.4q0-2.2 1.4-3.5 1.4-1.3 3.9-1.3t3.8 1.2q1.4 1.2 1.4 3.4 0 1-.4 1.9-.5.9-1.6 2l-1 .9q-.8.8-1 2v.7zm-3.3 3.6q0-.8.5-1.3t1.4-.5q.8 0 1.3.5.6.5.6 1.3t-.6 1.3q-.5.5-1.3.5-.9 0-1.4-.5-.5-.5-.5-1.3zm-133-4.8v.2q0 3-1.3 4.7-1.4 1.8-3.6 1.8-2 0-3.1-1.4v6h-3.4V25.6h3.1l.2 1.3q1.2-1.5 3.2-1.5 2.3 0 3.6 1.7 1.3 1.8 1.3 4.8zm-3.4 0q0-1.8-.6-2.8-.6-1-1.8-1-1.6 0-2.2 1.3v5.2q.6 1.2 2.2 1.2 2.4 0 2.4-4zm12.7-6.3v3.2h-1.3q-2 0-2.5 1.2v8.3h-3.4V25.6h3.2l.1 1.6q1-1.8 2.8-1.8.6 0 1 .2zm7.2 13q-2.8 0-4.6-1.8-1.7-1.7-1.7-4.5V32q0-2 .7-3.5.8-1.5 2.1-2.3 1.4-.8 3.1-.8 2.6 0 4 1.7 1.6 1.6 1.6 4.6v1.4h-8q0 1.2.9 2 .8.7 2 .7 2 0 3.2-1.4l1.6 1.9q-.7 1-2 1.7-1.3.6-3 .6zm-.4-10.4q-1 0-1.7.6-.6.7-.8 2h4.8v-.3q0-1.1-.7-1.7-.5-.6-1.6-.6zm11.8 10.1h-3.4V28.1h-1.9v-2.5h2v-1q0-2.2 1.2-3.3 1.2-1.2 3.4-1.2l1.7.2V23h-1q-2 0-2 1.7v1h2.6v2.5h-2.6v10.2zm9.9.3q-2.8 0-4.6-1.8-1.7-1.7-1.7-4.5V32q0-2 .7-3.5t2.1-2.3q1.4-.8 3-.8 2.7 0 4.2 1.7 1.5 1.6 1.5 4.6v1.4h-8q0 1.2.9 2 .8.7 2 .7 2 0 3.1-1.4l1.7 1.9q-.8 1-2 1.7-1.4.6-3 .6zm-.4-10.4q-1 0-1.7.6-.6.7-.8 2h4.8v-.3q0-1.1-.7-1.7-.5-.6-1.6-.6zm14.7-2.6v3.2h-1.3q-2 0-2.5 1.2v8.3h-3.4V25.6h3.2v1.6q1.1-1.8 3-1.8l1 .2zm-106 0l2.4 8 2.3-8h3.7L251 40.3l-.3.7q-1.2 2.4-3.8 2.4l-1.5-.2v-2.5h.5q1 0 1.5-.3t.7-1l.4-1-4.4-12.8h3.6zm9 6.4V32q0-2 .7-3.4.7-1.5 2.1-2.3 1.4-.8 3.2-.8 2.5 0 4.2 1.6 1.6 1.6 1.8 4.2v1q0 2.8-1.6 4.6-1.7 1.8-4.4 1.8t-4.4-1.8q-1.6-1.8-1.6-4.8zm3.4.1q0 1.8.7 2.8.6 1 1.9 1 1.2 0 2-1 .6-1 .6-3 0-1.8-.7-2.8-.7-1-2-1-1.2 0-1.8 1-.7 1-.7 3zm18.4 6.2l-.1-1.3q-1.3 1.6-3.5 1.6-2 0-3.1-1.2-1-1.2-1-3.4v-8.4h3.3v8.2q0 2 1.8 2 1.7 0 2.4-1.2v-9h3.4v12.7h-3.2zm-62.8 0h-5.3v-17h5.3q2.2 0 4 1 1.8 1 2.8 2.9 1 1.8 1 4.2v.8q0 2.4-1 4.2-1 1.9-2.8 2.9-1.8 1-4 1zm0-14.2H214v11.4h1.7q2.1 0 3.2-1.3 1-1.4 1.1-3.9v-.9q0-2.6-1-4-1.2-1.3-3.2-1.3zm9.6 8v-.2q0-2 .7-3.4.7-1.5 2-2.3 1.5-.8 3.3-.8 2.5 0 4.1 1.6 1.7 1.6 1.9 4.2v1q0 2.8-1.6 4.6-1.7 1.8-4.4 1.8-2.8 0-4.4-1.8-1.6-1.8-1.6-4.8zm3.4 0q0 1.8.6 2.8.7 1 2 1 1.2 0 2-1 .6-1 .6-3 0-1.8-.7-2.8-.7-1-2-1-1.2 0-1.9 1-.6 1-.6 3z" fill="#9A68F2"/><path d="M729.2 58.4l-.1 10.2h-1.7l-.1-10.2h1.9zm-2 13.3q0-.4.3-.7.3-.3.8-.3t.8.3q.3.3.3.7 0 .4-.3.7-.3.3-.8.3t-.8-.3q-.3-.3-.3-.7zm-29 1h-5.6V58.3h5q2.6 0 3.9 1 1.3 1 1.3 2.9 0 1-.5 1.8t-1.5 1.2q1 .3 1.7 1.1.6.8.6 2 0 2-1.3 3.1t-3.7 1.1zm0-6.3h-2.7v3.9h2.5q1 0 1.6-.5.6-.5.6-1.4 0-2-2-2zm-2.7-5.6v3.6h2.2q2.2 0 2.2-1.8 0-1-.6-1.4-.5-.4-1.7-.4h-2zm9.2 6.6v-.2q0-1.5.6-2.8.6-1.2 1.8-1.9 1.1-.6 2.6-.6 2.2 0 3.5 1.3 1.4 1.3 1.5 3.5v.7q0 2.5-1.3 4-1.4 1.4-3.7 1.4-2.3 0-3.6-1.5-1.4-1.4-1.4-4zm2.8 0q0 1.5.6 2.3.6.8 1.6.8t1.6-.8q.6-.7.6-2.5 0-1.4-.6-2.3-.5-.8-1.6-.8-1 0-1.6.8-.6.8-.6 2.5zm14.7 2.3q0-.5-.5-.8-.5-.3-1.7-.6-3.7-.7-3.7-3.2 0-1.4 1.1-2.3 1.2-1 3-1 2.1 0 3.3 1 1.2 1 1.2 2.5h-2.8q0-.6-.4-1t-1.2-.4q-.7 0-1.1.3-.4.3-.4.8t.4.8q.5.3 1.5.5l1.8.4q2.2.9 2.2 2.9 0 1.4-1.2 2.3-1.2 1-3.2 1-1.3 0-2.4-.6-1-.4-1.6-1.3-.6-.8-.6-1.7h2.7q0 .7.6 1.1.5.4 1.4.4.8 0 1.2-.3.4-.3.4-.8zM658 58.4l2.3 10.1 2-10.1h2.8l-3.1 14.2h-3l-2.3-9.5-2.3 9.5h-3l-3.1-14.2h3l1.8 10 2.4-10h2.5zm13 14.4q-2.2 0-3.7-1.4t-1.5-3.8v-.3q0-1.6.7-2.8.6-1.3 1.7-2 1.1-.6 2.6-.6 2.1 0 3.4 1.3 1.2 1.4 1.2 3.9v1.2h-6.7q.1 1 .8 1.6.7.6 1.8.6 1.6 0 2.5-1.1l1.4 1.5q-.6 1-1.7 1.4-1 .5-2.4.5zm-.2-8.7q-.9 0-1.4.6-.5.6-.7 1.6h4v-.2q0-1-.5-1.4-.5-.6-1.4-.6zm12 5.6q0-.5-.6-.8-.5-.3-1.6-.6-3.8-.7-3.8-3.2 0-1.4 1.2-2.3 1.2-1 3-1 2 0 3.3 1 1.2 1 1.2 2.5h-2.9q0-.6-.3-1-.4-.4-1.3-.4-.7 0-1 .3-.5.3-.5.8t.5.8q.4.3 1.5.5l1.8.4q2.2.9 2.2 2.9 0 1.4-1.2 2.3-1.3 1-3.2 1-1.4 0-2.4-.6-1-.4-1.6-1.3-.6-.8-.6-1.7h2.7q0 .7.5 1.1.5.4 1.4.4.8 0 1.2-.3.5-.3.5-.8zm-69-7.7l2.5 8.1 2-8h1.8l-3 10.5h-1.5l-2.6-8-2.5 8h-1.4L606 62h1.8l2 8 2.5-8h1.5zm10.1 0v10.6h-1.8V62h1.8zm-2-2.8q0-.4.3-.7.3-.3.8-.3.6 0 .8.3.3.3.3.7 0 .5-.3.8-.2.3-.8.3-.5 0-.8-.3-.2-.3-.2-.8zm5.6.3h1.8V62h2v1.4h-2V70q0 .6.2 1 .3.3 1 .3l.8-.1v1.4l-1.4.2q-1.2 0-1.8-.7-.6-.8-.6-2.1v-6.6h-2V62h2v-2.5zm7.7-1.9v5.7q1.2-1.4 3-1.4 3.4 0 3.5 3.7v7H640v-7q0-1.1-.6-1.7-.5-.5-1.6-.5-.8 0-1.5.5-.7.4-1 1.2v7.5h-1.8v-15h1.8zm-121.7 15h-2l-.2-1.1q-1.2 1.3-3 1.3-1.5 0-2.5-.9t-1-2.2q0-1.7 1.2-2.6 1.3-.9 3.6-.9h1.7v-.8q0-1-.6-1.5-.5-.6-1.6-.6-1 0-1.6.5-.7.5-.7 1.2h-1.8q0-.8.5-1.5.6-.8 1.6-1.2 1-.4 2-.4 2 0 3 .9t1 2.5V70q0 1.5.4 2.4v.1zm-4.9-1.4q.8 0 1.6-.4t1.1-1.1v-2.2H510q-3.3 0-3.3 2 0 .8.5 1.3.6.4 1.5.4zm10 1.4H517v-9.2h-1.6V62h1.6v-1q0-1.7 1-2.7.9-.9 2.5-.9l1.3.2-.1 1.4h-1q-.9 0-1.4.5-.5.5-.5 1.4V62h2.3v1.4h-2.3v9.2zm5-13.1h1.7V62h2v1.4h-2V70q0 .6.3 1 .3.3 1 .3l.8-.1v1.4l-1.4.2q-1.2 0-1.8-.7-.7-.8-.7-2.1v-6.6h-1.9V62h2v-2.5zm10.2 13.3q-2.1 0-3.5-1.4-1.3-1.4-1.3-3.8v-.3q0-1.6.6-2.8.6-1.3 1.6-2 1.1-.6 2.4-.6 2 0 3.2 1.3 1.1 1.4 1.1 3.9v.8H531q0 1.5.9 2.5t2.2 1q1 0 1.6-.5.7-.3 1.2-1l1.1.9q-1.3 2-4 2zm-.2-9.5q-1.1 0-1.8.8-.8.8-1 2.3h5.3v-.2q0-1.3-.7-2.1t-1.8-.8zm11.5-1.3v1.7l-.9-.1q-1.7 0-2.4 1.5v7.5h-1.8V62h1.8v1.3q.9-1.4 2.5-1.4h.8zm1.7 0h1.7v1.4q1.3-1.5 3.2-1.5 3.4 0 3.4 3.7v7h-1.8v-7q0-1.1-.5-1.7-.5-.5-1.6-.5-.9 0-1.6.5-.6.4-1 1.2v7.5h-1.8V62zm10.5 5.4v-.2q0-1.5.7-2.8.6-1.2 1.7-1.9 1-.6 2.4-.6 2.2 0 3.5 1.4 1.4 1.5 1.4 4v.1q0 1.6-.6 2.8-.6 1.2-1.7 2-1.1.6-2.5.6-2.2 0-3.5-1.5-1.4-1.5-1.4-4zm1.9 0q0 1.8.8 2.9.8 1 2.2 1 1.3 0 2.1-1 .9-1.1.9-3 0-1.8-.9-2.9-.8-1-2.2-1-1.3 0-2.1 1t-.8 3zm9.6 0v-.2q0-1.5.6-2.8.6-1.2 1.7-1.9 1-.6 2.4-.6 2.2 0 3.5 1.4 1.4 1.5 1.4 4v.1q0 1.6-.6 2.8-.6 1.2-1.7 2-1.1.6-2.5.6-2.2 0-3.5-1.5-1.3-1.5-1.3-4zm1.8 0q0 1.8.8 2.9.8 1 2.2 1 1.3 0 2.2-1 .8-1.1.8-3 0-1.8-.9-2.9-.8-1-2.2-1-1.3 0-2.1 1t-.8 3zm10-5.4h1.7l.1 1.4q1.2-1.5 3.2-1.5 3.3 0 3.3 3.7v7h-1.8v-7q0-1.1-.5-1.7-.5-.5-1.6-.5-.9 0-1.5.5-.7.4-1 1.2v7.5h-1.9V62zm17.2 7.8q0-.7-.5-1.1-.6-.4-2-.7-1.3-.3-2.1-.7-.8-.4-1.2-1-.4-.6-.4-1.4 0-1.2 1-2.1 1.2-1 2.9-1 1.8 0 3 1 1 1 1 2.4h-1.8q0-.8-.6-1.3-.6-.6-1.6-.6t-1.5.5q-.6.4-.6 1 0 .7.5 1 .5.4 1.9.7 1.3.3 2.2.7.8.5 1.2 1 .4.6.4 1.5 0 1.4-1.1 2.3-1.1.8-3 .8-1.2 0-2.2-.4-1-.5-1.5-1.3-.6-.8-.6-1.7h1.8q0 .9.8 1.4.6.5 1.8.5 1 0 1.6-.4.6-.4.6-1zm-116.5-2.4v-.2q0-1.5.6-2.8.6-1.2 1.7-1.9 1-.6 2.5-.6 2.1 0 3.5 1.4 1.3 1.5 1.3 4v.1q0 1.6-.6 2.8-.6 1.2-1.7 2-1 .6-2.5.6-2.1 0-3.5-1.5-1.3-1.5-1.3-4zm1.8 0q0 1.8.8 2.9.8 1 2.2 1 1.4 0 2.2-1 .8-1.1.8-3 0-1.8-.8-2.9-.8-1-2.2-1-1.3 0-2.2 1-.8 1-.8 3zm12.8 5.2h-1.8v-9.2h-1.7V62h1.7v-1q0-1.7.9-2.7.9-.9 2.5-.9.7 0 1.3.2l-.1 1.4h-1q-.9 0-1.3.5-.5.5-.5 1.4V62h2.2v1.4H496v9.2zm-74.4-1.3q1 0 1.7-.5.7-.6.8-1.5h1.7q0 .9-.6 1.7-.6.8-1.6 1.3t-2 .5q-2.2 0-3.4-1.4-1.3-1.5-1.3-4v-.3q0-1.5.5-2.7.6-1.2 1.7-1.9 1-.6 2.5-.6 1.8 0 3 1 1.1 1 1.2 2.8H424q-.1-1-.8-1.7-.7-.7-1.7-.7-1.4 0-2.2 1-.7 1-.7 2.9v.3q0 1.9.7 2.8.8 1 2.2 1zm5.7-4q0-1.6.6-2.9.7-1.2 1.7-1.9 1.1-.6 2.5-.6 2.2 0 3.5 1.4 1.4 1.5 1.4 4v.1q0 1.6-.6 2.8-.6 1.2-1.7 2-1.1.6-2.5.6-2.2 0-3.5-1.5-1.4-1.5-1.4-4zm1.9.1q0 1.8.8 2.9.8 1 2.2 1 1.3 0 2.1-1 .9-1.1.9-3 0-1.8-.9-2.9-.8-1-2.2-1-1.3 0-2.1 1t-.8 3zm16.6 5.2v-1q-1.1 1.2-3.1 1.2-1.7 0-2.6-1-1-1-1-2.9V62h1.9V69q0 2.4 2 2.4t2.7-1.6V62h1.8v10.6h-1.7zm13.4-5.3v.1q0 2.5-1.1 4-1.1 1.4-3 1.4-2 0-3-1.2v5h-1.9V62h1.7v1.2q1.2-1.3 3.2-1.3 1.9 0 3 1.4 1 1.4 1 4zm-1.8 0q0-1.8-.8-2.9-.8-1-2-1-1.7 0-2.5 1.4v5q.8 1.5 2.4 1.5 1.3 0 2.1-1t.8-3zm6-9.7v15h-1.8v-15h1.8zm7.3 15.2q-2.1 0-3.5-1.4-1.3-1.4-1.3-3.8v-.3q0-1.6.6-2.8.6-1.3 1.6-2 1.1-.6 2.4-.6 2 0 3.2 1.3 1.1 1.4 1.1 3.9v.8h-7.1q0 1.5.9 2.5t2.2 1q1 0 1.6-.5.7-.3 1.2-1l1 .9q-1.2 2-3.9 2zm-.2-9.5q-1.1 0-1.9.8-.7.8-.9 2.3h5.3v-.2q0-1.3-.7-2.1t-1.8-.8zm-60.6 9.3H408l-.2-1.1q-1.3 1.3-3 1.3-1.6 0-2.6-.9t-1-2.2q0-1.7 1.3-2.6 1.2-.9 3.5-.9h1.8v-.8q0-1-.6-1.5-.6-.6-1.7-.6-1 0-1.6.5-.7.5-.7 1.2h-1.8q0-.8.6-1.5.6-.8 1.5-1.2 1-.4 2.1-.4 1.9 0 2.9.9t1 2.5V70q0 1.5.4 2.4v.1zm-4.9-1.4q.9 0 1.7-.4.7-.4 1-1.1v-2.2h-1.4q-3.3 0-3.3 2 0 .8.6 1.3.6.4 1.4.4zM364 62h1.8v11.8q0 3-2.8 3h-1v-1.5h.7q.6 0 1-.3.3-.3.3-1.1V62zm-.2-2.8q0-.4.3-.7.2-.3.8-.3.5 0 .8.3.2.3.2.7 0 .5-.3.8-.2.3-.8.3-.5 0-.7-.3-.3-.3-.3-.8zm11.5 13.4v-1q-1.1 1.2-3.2 1.2-1.7 0-2.5-1-1-1-1-2.9V62h1.9V69q0 2.4 2 2.4t2.7-1.6V62h1.8v10.6h-1.7zm10.6-2.8q0-.7-.6-1.1-.5-.4-1.9-.7-1.4-.3-2.2-.7-.8-.4-1.2-1-.4-.6-.4-1.4 0-1.2 1.1-2.1 1.1-1 2.9-1 1.7 0 2.9 1 1 1 1 2.4h-1.7q0-.8-.7-1.3-.6-.6-1.5-.6-1 0-1.6.5-.5.4-.5 1 0 .7.5 1 .5.4 1.8.7 1.4.3 2.2.7.9.5 1.3 1 .4.6.4 1.5 0 1.4-1.2 2.3-1 .8-2.9.8-1.3 0-2.2-.4-1-.5-1.6-1.3-.5-.8-.5-1.7h1.8q0 .9.7 1.4.7.5 1.8.5 1 0 1.7-.4.6-.4.6-1zm4.8-10.3h1.8V62h2v1.4h-2V70q0 .6.3 1 .2.3.8.3l1-.1v1.4l-1.5.2q-1.2 0-1.8-.7-.6-.8-.6-2.1v-6.6h-2V62h2v-2.5zM345 62v10.6h-1.8V62h1.8zm-2-2.8q0-.4.4-.7.2-.3.8-.3.5 0 .8.3.2.3.2.7 0 .5-.2.8-.3.3-.8.3-.6 0-.8-.3-.3-.3-.3-.8zm5 2.8h1.6l.1 1.4q1.2-1.5 3.2-1.5 3.3 0 3.3 3.7v7h-1.8v-7q0-1.1-.5-1.7-.5-.5-1.6-.5-.9 0-1.5.5-.7.4-1 1.2v7.5h-1.9V62zm-25.5 0h2.9v11.2q0 1.7-1 2.7-.9 1-2.6 1-.8 0-1.4-.2v-2.2h.8q1.3 0 1.3-1.3V62zm-.2-2.7q0-.6.4-1t1.2-.4q.7 0 1.1.4.5.4.5 1 0 .7-.5 1-.4.5-1.1.5-.7 0-1.2-.4-.4-.4-.4-1zm11 10.4q0-.5-.5-.8-.5-.3-1.7-.6-3.7-.7-3.7-3.2 0-1.4 1.1-2.3 1.2-1 3-1 2 0 3.3 1 1.2 1 1.2 2.5h-2.8q0-.6-.4-1t-1.2-.4q-.7 0-1.1.3-.4.3-.4.8t.4.8q.5.3 1.5.5l1.8.4q2.2.9 2.2 2.9 0 1.4-1.2 2.3-1.2 1-3.2 1-1.3 0-2.4-.6-1-.4-1.6-1.3-.6-.8-.6-1.7h2.7q0 .7.6 1.1.5.4 1.3.4.9 0 1.3-.3t.4-.8zm-60.1 3l-2.7-5.3h-2.3v5.2h-3V58.4h5.3q2.6 0 4 1.1 1.3 1.1 1.3 3.2 0 1.4-.6 2.4-.7 1-2 1.6l3.1 5.8v.1h-3.1zm-5-12V65h2.4q1 0 1.7-.5.6-.6.6-1.6t-.6-1.6q-.6-.5-1.8-.5h-2.3zm14.5 12.1q-2.3 0-3.8-1.4-1.4-1.4-1.4-3.8v-.3q0-1.6.6-2.8.6-1.3 1.7-2 1.1-.6 2.6-.6 2.2 0 3.4 1.3 1.2 1.4 1.2 3.9v1.2h-6.7q.2 1 .8 1.6.7.6 1.8.6 1.6 0 2.5-1.1l1.4 1.5q-.6 1-1.7 1.4-1 .5-2.4.5zm-.3-8.7q-.9 0-1.4.6-.5.6-.7 1.6h4v-.2q0-1-.5-1.4-.5-.6-1.4-.6zm15.2 8.5h-2.8l-.3-1q-1 1.2-2.7 1.2-1.5 0-2.6-.9-1-.9-1-2.3 0-1.6 1.3-2.5 1.2-1 3.6-1h1.3v-.5q0-.8-.4-1.2-.4-.5-1.2-.5-.7 0-1.1.4-.4.3-.4 1h-2.8q0-1 .5-1.8.6-.8 1.6-1.2 1-.4 2.4-.4 2 0 3 1 1.2 1 1.2 2.7v4.6q0 1.5.4 2.2v.2zm-5.2-2q.7 0 1.2-.2.5-.3.8-.8v-1.8h-1q-2.2 0-2.3 1.5v.1q0 .6.3 1 .4.3 1 .3zm11.4 0q.7 0 1.2-.5.5-.4.5-1.1h2.7q0 1-.6 2-.6.8-1.6 1.3t-2.2.5q-2.3 0-3.6-1.4-1.3-1.5-1.3-4v-.2q0-2.4 1.3-3.9 1.3-1.4 3.6-1.4 2 0 3.2 1 1.2 1.2 1.2 3h-2.7q0-.7-.5-1.2-.5-.6-1.3-.6-1 0-1.4.8-.5.7-.5 2.3v.3q0 1.6.5 2.3.4.7 1.5.7zm6.6-11.1h2.8V62h1.8v2.1h-1.8v5.3q0 .6.2.8.2.3.9.3h.8v2q-.8.3-1.7.3-3 0-3-3v-5.7h-1.6v-2h1.6v-2.6zm6.3 11.7q0-.6.5-1 .4-.5 1.1-.5.7 0 1.1.4.5.5.5 1.1 0 .7-.5 1.1-.4.4-1.1.4-.7 0-1.1-.4-.5-.4-.5-1zM212.5 58.4v12.7h6.8v1.5h-8.7V58.4h2zm13 14.4q-2.1 0-3.5-1.4-1.3-1.4-1.3-3.8v-.3q0-1.6.6-2.8.6-1.3 1.6-2 1.1-.6 2.4-.6 2 0 3.2 1.3 1.1 1.4 1.1 3.9v.8h-7.1q0 1.5.9 2.5t2.2 1q1 0 1.6-.5.7-.3 1.2-1l1.1.9q-1.3 2-4 2zm-.2-9.5q-1.1 0-1.8.8-.8.8-1 2.3h5.3v-.2q0-1.3-.7-2.1t-1.8-.8zm14.8 9.3h-1.9l-.2-1.1q-1.3 1.3-3 1.3-1.6 0-2.6-.9t-1-2.2q0-1.7 1.3-2.6 1.2-.9 3.5-.9h1.8v-.8q0-1-.6-1.5-.6-.6-1.7-.6-1 0-1.6.5-.6.5-.6 1.2h-1.9q0-.8.6-1.5.6-.8 1.5-1.2 1-.4 2.1-.4 1.9 0 2.9.9t1 2.5V70q0 1.5.4 2.4v.1zm-4.8-1.4q.8 0 1.6-.4.7-.4 1-1.1v-2.2h-1.4q-3.3 0-3.3 2 0 .8.6 1.3.6.4 1.4.4zm12.4-9.2v1.7l-.9-.1q-1.8 0-2.4 1.5v7.5h-1.8V62h1.8v1.3q.9-1.4 2.5-1.4h.8zm1.7 0h1.7v1.4q1.3-1.5 3.2-1.5 3.4 0 3.4 3.7v7h-1.8v-7q0-1.1-.5-1.7-.6-.5-1.6-.5t-1.6.5q-.7.4-1 1.2v7.5h-1.8V62z" fill="#102C3C"/></g><g><path fill="#FFA8A8" d="M-38.9 76.6L74-36.2l17.7 17.7L-21.2 94.3z"/><path d="M14.8 42.8l1.5-1.5q1.2 1.3 1 2.8 0 1.5-1.4 2.8-1.4 1.5-3.3 1.3-1.8-.1-3.5-1.8l-.4-.5q-1.1-1-1.6-2.3-.4-1.2-.1-2.4.2-1.1 1.2-2 1.3-1.4 2.8-1.5 1.5 0 2.9 1l-1.6 1.6q-.8-.6-1.5-.6-.6 0-1.4.7-.7.8-.6 1.7.2 1 1.4 2.2l.5.5Q12 46 13 46.2q1 .2 1.7-.6.8-.7.8-1.4t-.6-1.4zm2-2.5h-.1q-.9-1-1.2-1.9-.3-1 0-2 .2-.9 1-1.7 1.1-1.1 2.5-1.1t2.7 1l.4.4q1.3 1.3 1.3 2.8.1 1.5-1.1 2.7-1.2 1.2-2.7 1.2-1.5 0-2.9-1.4zm1.5-1.5q.8.8 1.5 1 .7 0 1.3-.5.5-.5.4-1.3-.1-.7-1-1.6-.8-.8-1.5-.9-.8-.1-1.3.4-.6.6-.4 1.3 0 .7 1 1.6zM29 33.4l-.6-.5q.2 1.2-.8 2.2-1 1-2 .9-.9 0-2-1l-3.6-3.7 1.5-1.5 3.6 3.6q1 .9 1.7 0 .8-.7.5-1.5l-4-4 1.6-1.5 5.6 5.6-1.5 1.4zm.1-11.3l1.4 1.5-.5.5q-.9.8-.6 1.6l3.7 3.7-1.5 1.5-5.6-5.6 1.4-1.4.7.6q-.3-1.2.5-2l.5-.4zm7.8.4q-.2-.3-.7-.2-.4.1-1.1.6-2.4 1.6-3.7.3-.8-.8-.6-1.9 0-1.1 1-2.1 1.1-1 2.3-1.2 1.1-.1 2 .7l-1.6 1.5q-.3-.4-.7-.4-.4 0-.9.5l-.4.7q0 .4.3.7.2.2.6.1.4 0 1-.5l1.2-.7q1.7-.7 2.7.3.8.8.6 2-.2 1-1.2 2.1-.7.7-1.5 1-.8.3-1.6.2-.7-.1-1.2-.7l1.4-1.4q.4.4 1 .3.4 0 .9-.5.4-.4.5-.8 0-.4-.3-.6zm6.7-3.4q-1.2 1.2-2.8 1.3-1.5 0-2.8-1.3L38 19q-.8-.9-1.2-1.9-.3-1 0-2 .2-.9 1-1.6 1-1.2 2.5-1.1 1.3 0 2.7 1.4l.6.6L40 18q.6.4 1.3.4.7 0 1.3-.6.9-.9.7-2l1.6.1q.1.8-.2 1.7-.3.8-1 1.5zm-4.8-4.4q-.4.4-.4 1T39 17l2-2v-.2q-.5-.5-1-.5-.6 0-1 .5z" fill="#9F1818"/></g><g><path d="M757 64.9L771.8 50 757 35.1l4.5-4.6L781 50l-19.5 19.5-4.5-4.6z" fill="#102C3C" opacity=".2"/><path d="M722.1 11H800v78h-77.9V11z" fill="none"/></g></g></svg>