<svg xmlns="http://www.w3.org/2000/svg" style="isolation:isolate" viewBox="0 0 500 155" width="500pt" height="155pt"><defs><clipPath id="a"><path d="M0 0h500v155H0z"/></clipPath></defs><g clip-path="url(#a)"><path fill="#FFF" d="M0 0h500v155H0z"/><path d="M113.9 91.1s2.6 17.8 17.8 23.8H70c15.2-6 17.8-23.8 17.8-23.8h26z" fill="#E0E0E0"/><linearGradient id="b" x1=".5" y1="1" x2=".5" y2="0" gradientTransform="matrix(62.291 0 0 3.771 69.7 115)" gradientUnits="userSpaceOnUse"><stop offset="0%" stop-opacity=".3" stop-color="gray"/><stop offset="54%" stop-opacity=".1" stop-color="gray"/><stop offset="100%" stop-opacity=".1" stop-color="gray"/></linearGradient><path transform="translate(-.2 .1)" fill="url(#b)" d="M69.7 114.9H132v3.8H69.7z"/><path fill="#F5F5F5" d="M70 115h61.7v2.8H70z"/><linearGradient id="c" x1="0" y1=".5" x2="0" y2="-.5" gradientTransform="matrix(104.459 0 0 70.786 48.5 26.9)" gradientUnits="userSpaceOnUse"><stop offset="0%" stop-opacity=".1" stop-color="gray"/></linearGradient><path d="M151 26.9L50.4 27a2 2 0 00-2 2.1l.1 58.6v2c0 4.4 3.5 8 7.7 8l89-.2c4.3 0 7.7-3.6 7.7-8V29a2 2 0 00-2-2.1z" fill="url(#c)"/><path d="M51.5 28.8H150c1 0 1.7.8 1.7 1.7v56H49.8v-56c0-1 .7-1.7 1.7-1.7z" fill="#FFF"/><path d="M145 95.8l-88.4.1a6.7 6.7 0 01-6.7-6.6v-2.9l101.8-.1V89c0 3.7-3 6.7-6.6 6.7z" fill="#F5F5F5"/><path fill="#9A68F2" d="M54.9 33.4l92.2-.1v46.6H54.9z"/><defs><linearGradient id="d" x1="0" y1=".5" x2="0" y2="-.5"><stop offset="0%" stop-color="rgba(128,128,128,.1)"/></linearGradient></defs><path d="M39.7 51H82c1.5 0 2.8 1.2 2.8 2.7v68.8c0 1.5-1.2 2.8-2.7 2.8H39.8a2.8 2.8 0 01-2.8-2.7l-.1-68.8c0-1.6 1.2-2.8 2.8-2.8z" fill="url(#d)"/><linearGradient id="e" x1=".5" y1="1" x2=".5" y2="0" gradientTransform="matrix(41.438 0 0 62.385 40.3 56.6)" gradientUnits="userSpaceOnUse"><stop offset="0%"/><stop offset="54.4%"/><stop offset="99.6%"/></linearGradient><path transform="translate(-.1)" fill="url(#e)" d="M40.3 56.6h41.4V119H40.3z"/><path d="M41.1 52.1h39.5c1.6 0 2.8 1.2 2.8 2.7l.1 65.4c0 1.5-1.2 2.8-2.8 2.8H41.2a2.8 2.8 0 01-2.8-2.7V54.9c0-1.5 1.2-2.8 2.7-2.8z" fill="#fff"/><path fill="#9A68F2" d="M41.4 57.6h38.9v59.5H41.4z"/><circle vector-effect="non-scaling-stroke" cx="61" cy="120.1" fill="#DBDBDB" r="1.6"/><path d="M53.7 55c0-.4.2-.6.5-.6s.6.2.6.5-.3.6-.6.6a.5.5 0 01-.5-.6z" fill="#DBDBDB"/><path d="M57.1 54.6h6.5c.1 0 .2 0 .2.2v.1c0 .1 0 .2-.2.2h-6.5a.2.2 0 110-.5z" fill="#dbdbdb"/><defs><linearGradient id="f" x1="0" y1=".5" x2="0" y2="-.5"><stop offset="0%" stop-color="rgba(128,128,128,.1)"/></linearGradient></defs><path d="M22.6 68.8h28.5c1 0 1.7.7 1.7 1.6V125c0 .9-.7 1.6-1.6 1.6H22.7c-.9 0-1.6-.7-1.6-1.6L21 70.4c0-.9.7-1.6 1.6-1.6z" fill="url(#f)"/><path d="M23.4 69.8h27c1 0 1.6.6 1.6 1.5l.1 52.4c0 .8-.7 1.6-1.6 1.6h-27c-1 0-1.7-.7-1.7-1.6V71.4c0-1 .7-1.6 1.6-1.7z" fill="#fff"/><path fill="#9A68F2" d="M25.1 73.7h23.5v45.2H25.3z"/><circle vector-effect="non-scaling-stroke" cx="36.8" cy="122.2" fill="#DBDBDB" r="1.9"/><path d="M33 71.6c0-.3.1-.4.3-.4.2 0 .4.1.4.4 0 .2-.2.3-.4.3a.4.4 0 01-.3-.3z" fill="#DBDBDB"/><path d="M35.3 71.3h5.3c.1 0 .2 0 .2.2s0 .3-.2.3h-5.3a.2.2 0 01-.3-.2c0-.2.1-.3.3-.3z" fill="#dbdbdb"/><g><ellipse vector-effect="non-scaling-stroke" cx="93" cy="126.8" rx="39.8" ry="1.4" fill="#6C63FF" opacity=".1"/><mask id="g" x="-200%" y="-200%" width="400%" height="400%"><rect x="-200%" y="-200%" width="400%" height="400%" fill="#fff"/><path d="M124.6 125.9s8.6-10.9 8-21.7c-.4-4.5.7-9 3.2-12.8 1.2-1.8 2.6-3.5 4-5"/></mask><path d="M124.6 125.9s8.6-10.9 8-21.7c-.4-4.5.7-9 3.2-12.8 1.2-1.8 2.6-3.5 4-5" fill="none" mask="url(#g)" vector-effect="non-scaling-stroke" stroke-width=".9" stroke="#535461" stroke-miterlimit="10"/><path d="M124.6 125.9s8.6-10.9 8-21.7c-.4-4.5.7-9 3.2-12.8 1.2-1.8 2.6-3.5 4-5" fill="none"/><path d="M139.5 79.6c-.6 1.5.3 7 .3 7s4.5-3.3 5.1-4.8a3 3 0 00-5.4-2.2zM131.6 86.1c.3 1.6 4.1 5.7 4.1 5.7s2-5.2 1.7-6.8a3 3 0 00-5.8 1.1zM126 100.5c1.1 1.2 6.5 2.8 6.5 2.8s-1-5.5-2-6.7a3 3 0 00-4.4 3.9zM124.3 112.3c.9 1.4 5.9 3.8 5.9 3.8s0-5.5-.9-7a3 3 0 10-5 3.2zM141.3 94.4c-1.5.6-7-.4-7-.4s3.3-4.5 4.8-5a3 3 0 012.2 5.4zM139.1 108.1c-1.6.2-6.5-2.4-6.5-2.4s4.4-3.3 6-3.4a3 3 0 11.5 5.8zM135.1 121.2c-1.6.5-6.9-1.2-6.9-1.2s3.9-4 5.4-4.5a3 3 0 011.5 5.7z" fill="#6C63FF"/><path d="M139.5 79.6c-.6 1.5.3 7 .3 7s4.5-3.3 5.1-4.8a3 3 0 00-5.4-2.2zM131.6 86.1c.3 1.6 4.1 5.7 4.1 5.7s2-5.2 1.7-6.8a3 3 0 00-5.8 1.1zM126 100.5c1.1 1.2 6.5 2.8 6.5 2.8s-1-5.5-2-6.7a3 3 0 00-4.4 3.9zM124.3 112.3c.9 1.4 5.9 3.8 5.9 3.8s0-5.5-.9-7a3 3 0 10-5 3.2zM141.3 94.4c-1.5.6-7-.4-7-.4s3.3-4.5 4.8-5a3 3 0 012.2 5.4zM139.1 108.1c-1.6.2-6.5-2.4-6.5-2.4s4.4-3.3 6-3.4a3 3 0 11.5 5.8zM135.1 121.2c-1.6.5-6.9-1.2-6.9-1.2s3.9-4 5.4-4.5a3 3 0 011.5 5.7z" fill="#7021F9"/><mask id="h" x="-200%" y="-200%" width="400%" height="400%"><rect x="-200%" y="-200%" width="400%" height="400%" fill="#fff"/><path d="M124.7 125.4s12.2-6.4 16-16.6a21 21 0 018.2-10.3c1.8-1.2 3.7-2.2 5.7-3"/></mask><path d="M124.7 125.4s12.2-6.4 16-16.6a21 21 0 018.2-10.3c1.8-1.2 3.7-2.2 5.7-3" fill="none" mask="url(#h)" vector-effect="non-scaling-stroke" stroke-width=".9" stroke="#535461" stroke-miterlimit="10"/><path d="M124.7 125.4s12.2-6.4 16-16.6a21 21 0 018.2-10.3c1.8-1.2 3.7-2.2 5.7-3" fill="none"/><path d="M157 89.1c-1.1 1.1-2.5 6.5-2.5 6.5s5.5-1.1 6.6-2.3a3 3 0 00-4-4.2zM147.2 92c-.4 1.5 1.4 6.7 1.4 6.7s4-3.9 4.3-5.5a3 3 0 10-5.7-1.3zM136.3 102.8c.5 1.5 4.7 5.2 4.7 5.2s1.4-5.4 1-7a3 3 0 10-5.7 1.8zM130 112.9c.2 1.6 3.7 5.9 3.7 5.9s2.3-5.1 2-6.7a3 3 0 00-5.8.8zM152.7 103.4c-1.6 0-6.2-3.1-6.2-3.1s4.8-2.8 6.4-2.8a3 3 0 01-.2 5.9zM145.1 115c-1.5-.4-5-4.8-5-4.8s5.4-1.2 7-.7a3 3 0 01-2 5.6zM136.2 125.4c-1.6-.2-5.8-3.9-5.8-3.9s5.1-2.1 6.7-1.9a3 3 0 01-1 5.8z" fill="#9A68F2"/><path d="M125.7 126.3h-1.3L115 76.8l-1.3 49.5h-1.4L110.7 77l-9.4 49.4H100l6.3-50.8.2-1.7 12.5-1.4.4 3 6.4 51zM91.4 62.5h7.9v4.9h-7.9zM137.4 60.4l4.7-2h1.1c.3 0 .6.3.6.6v13.5c0 .3-.3.6-.6.6h-1l-4.8-2V60.4z" fill="#464353"/><path fill="#464353" d="M127.6 61h9.8v9.5h-9.8z"/><path fill="#514E7F" d="M110.6 43.2h6.3v1.1h-6.3zM103.4 44.6h17.7v13h-17.7z"/><path d="M103.4 56.1h17.7v1.5h-17.7zM127.4 61h.4v9.5h-.4zM96.6 62.5h2.7v4.9h-2.7zM119.3 75.5h-13l.1-1.7 12.5-1.4.4 3z" opacity=".1"/><path d="M98.4 56.3H126c.8 0 1.6.7 1.6 1.6v15.7c0 1-.8 1.6-1.6 1.6H98.4c-.8 0-1.6-.7-1.6-1.6V58c0-.9.8-1.6 1.6-1.6z" fill="#514e7f"/><path d="M137.3 60.4V71a.8.8 0 01-.8-.8v-9.2a.8.8 0 01.8-.7zM142.1 58.4h1c.4 0 .7.3.7.7v13.3c0 .4-.3.7-.7.7h-1V58.4z" fill="#514E7F"/><path d="M91.4 62.5h1.4v4.9h-1.4z" opacity=".1"/><path d="M90.9 61h.6c.6 0 1 .5 1 1v6.3c0 .6-.4 1-1 1h-.6a1 1 0 01-1.1-1V62c0-.5.5-1 1-1z" fill="#514e7f"/><circle vector-effect="non-scaling-stroke" cx="103.4" cy="44.6" r="8.8" fill="#464353"/><circle vector-effect="non-scaling-stroke" cx="103.4" cy="44.6" r="6.6" fill="#DBC7FF"/><circle vector-effect="non-scaling-stroke" cx="119.8" cy="44.8" r="6.4" fill="#464353"/><circle vector-effect="non-scaling-stroke" cx="119.8" cy="44.8" r="4.8" fill="#DBC7FF"/><circle vector-effect="non-scaling-stroke" cx="119.3" cy="59.1" r=".8" fill="#DBC7FF"/><circle vector-effect="non-scaling-stroke" cx="122" cy="59.1" r=".8" fill="#9A68F2"/><linearGradient id="i" x1=".5" y1="1" x2=".5" y2="0" gradientTransform="matrix(57.107 0 0 95.104 55.4 32.2)" gradientUnits="userSpaceOnUse"><stop offset="0%" stop-opacity=".3" stop-color="gray"/><stop offset="54%" stop-opacity=".1" stop-color="gray"/><stop offset="100%" stop-opacity=".1" stop-color="gray"/></linearGradient><path d="M111.3 62c.3 0 .6.2 1 .4-.2-1.3-5-4.9-6-4.9-.9 0-1.8-1.5-1.8-1.5s-2.6-.4-3-.8c-.4-.4-3-.2-3.7 0-.6.1-1.6-.4-1.6-.4s-.6-1-1.2-1c-.7 0-1.5-.9-1.5-.9s-.6-.6-1.2-.7c-.6 0-1.3-.7-1.7-1.2-.3-.5-2-.8-3-.6-1 .1-3.7-.2-3.7-.2 1.1-.5 1.4-1.7 1.4-1.7-1 0-3.5-2.2-3.5-2.2L82 48l-.2-.2v-2-.2a4.6 4.6 0 001.3-5c.2.2.4.2.6.2h.1c.3 0 .5 0 .7-.2v-.2a.9.9 0 00.1-.2V40l-.1-.7c-.2-.4-.4-.8-.4-1.2 0-.4.3-.7.4-1a2.3 2.3 0 000-.4c0-.6-.4-1.1-1-1.4l-1.5-.6c-.6-.3-.9-1-1.3-1.4-.5-.8-1.4-1.3-2.3-1.2-.6 0-1 .4-1.6.5-.9.2-1.8-.1-2.6 0l-.5.4-.2.3v.5h.1v.4l.1.2v.4c.1.3 0 .7-.2 1-.3.6-1.1.9-1.4 1.5l-.2.5v.5l.1.1c.2.4.5.6.5 1v.8l-.1.1v.5l.1.1.8.4v.5l-.2.8V43.5h.1c.2.3.5.4.8.4h.5l.1.2c.2.5.5.9.9 1.2v.1l-.2 1c-.4 0-.6-.1-.8 0-.5.5 0 2.4 0 2.4s-2.4 0-3 .5c-.6.6-1.6 0-1.6 0s-2.3.3-2.1.7c.1.5-1.2 0-1.2 0s-1 .1-.9.8c0 .6-1.4 1-1.2 1.4.2.4-.9.7-.9.7s-1 0-.7.6c0 0-.6 1.4-1 1.5l-1.2 1.2s-1.9.3-1.8 1l-3 4.8s-1 2-.2 3.5c0 0 1.2 2.4 1.3 3 .2.5 2 3 2 3.4l1 1.8-.2.2-.4.4s-1.2 3 .3 3.2c1.2.1 2.1.2 2.6 0h.2l.9 1.3.1-.2.2.2.3-.4V81s.6 0 .3 2.9c-.3 3 1.8 5.4 1.8 5.4V94c0 .6.2 2 .7 3 .7 1.3 0 4.7 0 4.7l.2 6.2v.2c-3 2.5-6.2 5.8-6.2 5.8l.4.2-.1.3-.9 1-.6.7 1 3.1 1.1-.4s.6 1 .5 1.7l-.2.4v.1c-.3 1.1.8 6 2.7 6.1 0 0 .7.3.9-.3 0-.3 0-.8-.2-1.5 0 0-1-1.2-.3-2.5l1.5-2.5.1-.3.7.8 1.4-1.5a4.3 4.3 0 00.5.8l1 4 .4-.2v.3c0 .7 0 1.6.3 2.3.2.5.6.8 1.3.8 2.3 0 3-1.3 3-1.3v-3.1l.8-.2-.3-10.6v-.2l5-5.5.4-.2c3.3-1.2 3.3-4.6 3.3-4.6s0-1.8.4-3.3a40 40 0 00-.7-11.5c-.7-2-1-4.2-1-4.2s.8-1 0-1.8l-.5-.9 1-.2h.8c-.1 1.2-.1 2.2.2 2.5 1.1.7 4.7-1.8 4.7-1.8-1.3 0-2-9.9-1.8-10.1.3-.3.7-5.3.4-6.1-.4-1 1.2-4.9 1.2-4.9l.3-.3s5.8 2.5 6.4 3c0 0 2.7-1.2 3-.6l2.5 1.6s3.2-.3 3.6.5c.3.8 2.4 2.7 2.4 2.7v-1.3l.2.3c1 2.3 2.6 5.2 4.1 3.6 1.7-1.8.4-5-.4-6.7zM67.5 72.6zm-1.2-11.3l-.6 6.6-1.2 1.2-.2.2-1.2-1.4s-.7-.3 0-.8L62 65.2s0-.9.6-1.1l1.4-2 2.4-1.1v.2zm8.3 33.7h.1c.3-.2.5 0 .6.3l-.1 1.5c-.4.8.5 4 .5 4s-1.1.4-1.3 1.4l-.2.3v-.3a45.9 45.9 0 01-.3-3.3l.6-3.6V95z" fill="url(#i)"/><path d="M81.4 46.9l.4-.2.9 1.9-.4.4h-1v-1.1l.1-1z" fill="#464353"/><path d="M75.3 122v4.1s-.7 1.3-3 1.3c-.6 0-1-.3-1.3-.8a5 5 0 01-.3-2.2v-1l4.6-1.3z" fill="#3F3D56"/><path d="M75.3 122v1.3l-4.6 1v-1l4.6-1.2z" opacity=".1"/><path d="M76 122.9l-5.7 1.3-1-4a4.7 4.7 0 01-.5-1A36.2 36.2 0 0167 108l-.2-6s.7-3.4 0-4.7a9 9 0 01-.7-3.1v-.6l.5-1.1h4.8l2.8 2.3.4.4v.3l-.7 3.6.1 2.3a304.3 304.3 0 00.3 1.4 114.3 114.3 0 001.5 9v.5l.3 10.6z" fill="#514E7F"/><path d="M75.3 126.1s-.7 1.3-3 1.3c-.6 0-1-.3-1.3-.8 1 .3 2.7.4 4.3-.5z" opacity=".1"/><path d="M111.7 69.1c-1.5 1.6-3.2-1.3-4.1-3.6l-1-2.5 4.1-1.7.6 1c.8 1.7 2.1 5 .4 6.8zM81.8 46c0 1.5 0 3 .3 4.4 0 0-8.2.9-7.5-.4.5-.7.7-2.7.9-4.2l.2-2s7.8-3 6.7-.4c-.4.8-.6 1.7-.6 2.6z" fill="#C8A6AB"/><path d="M82.5 67.2l-1.1 13.2 5-.8-.8-11 .2-2.8-3.3 1.4z" fill="#464353"/><path d="M86.4 79.6l-2.2.3-2.8.5.2-2.4.9-10.8 1.1-.5.8-.3 1.4-.6-.2 2.9.8 10.9z" opacity=".1"/><path d="M65 123c-.6 1.2.4 2.4.4 2.4.3.8.3 1.2.2 1.5-.2.6-.9.4-.9.4-2-.3-3.2-5.7-2.7-6.3.5-.6-.3-2-.3-2l-1 .4-1-3 .5-.9.9-1 .5-.6 5.5 5.7-.6.9-1.4 2.4z" fill="#3F3D56"/><path d="M75.8 112.3l-6.9 7.3c-1.2-2.3-1.7-7-1.9-11 1.3-1 2.5-2 3.4-2.4 0 0 3.2-2.3 3.9-3.4.3 2.2 1 6.2 1.3 7.1l.2 2.4zM74.2 94.8l-8-1.2.4-1.1h4.8l2.8 2.3z" opacity=".1"/><path d="M75.8 111.7l-7 7.5A36 36 0 0167 108c1.3-1 2.5-2 3.4-2.4 0 0 3-2.1 3.8-3.3v.5a114.4 114.4 0 001.6 9zM67.1 119.6l-.6.9c-1.1-1.5-4-5-5.4-6l.5-.6 5.5 5.7z" opacity=".1"/><path d="M85 98.5c-.5 1.5-.5 3.4-.5 3.4s0 3.3-3.3 4.5l-.4.2L67.4 121s-5-6.5-6.6-6.9c0 0 6.5-6.7 9.6-8.2 0 0 3.8-2.7 4-3.7.2-.9 1.3-1.4 1.3-1.4s-.9-3.1-.5-4c.2-.4.2-1 0-1.4 0-.3-.2-.5-.5-.4l-.1.2-8.5-1.3v-4.4s-2.1-2.4-1.8-5.4l-.3-2.8s0-5 .4-5.4l4.5-2.4 12.6 2.3.6 2.4s.4 2 1.1 2.8V83s.3 2.2 1 4.2c.8 2 1.1 9.9.7 11.4z" fill="#514E7F"/><path d="M82.4 43.4c-.4.8-.6 1.7-.6 2.6a4.6 4.6 0 01-6.3-.2l.2-2s7.8-3 6.7-.4z" opacity=".1"/><path d="M83.4 42.4a4.6 4.6 0 11-9.2 0 4.6 4.6 0 019.2 0z" fill="#C8A6AB"/><path d="M79.6 50.4l-3.4-1.7-7 17.3-2 8.7s10.2 4.4 12.5 3.8H82s2.2-12.7 3-13.8c.7-1.1-.7-12.7-.7-12.7l-2.6-3.3-2.2 1.7z" opacity=".1"/><path d="M79.6 49.8l-3.4-1.7-7 17.3-2 8.7s10.2 4.4 12.5 3.8H82s2.2-12.7 3-13.8c.7-1.1-.7-12.7-.7-12.7l-2.6-3.3-2.2 1.7z" opacity=".1"/><path d="M85 64.4l-.6 2-.5 2.4c-.9 4-1.8 9.4-1.8 9.4s-.1-.2-.5-.2l-2 .2c-2.2.6-12.4-3.8-12.4-3.8l.3-1.3 1.6-7.4s6.9-17.5 7-17.3a26.4 26.4 0 003.6 1.7l2-1.6.1-.1 2.6 3.3s1.4 11.6.7 12.7z" fill="#DBC7FF"/><path d="M77.2 51.8c.3 1.2-.4 3-.4 3s-2.3 5.9-3 8.5c-.7 2.7-4.6 8.1-4.6 8.1l-1.4 1.4-.3.3 1.6-7.4s6.9-17.5 7-17.3l2.4 1.2c-.6.5-1.5 1.5-1.3 2.2z" opacity=".1"/><path d="M77 51.8c.2 1.2-.5 3-.5 3s-2.3 5.9-3 8.5c-.7 2.7-4.6 8.1-4.6 8.1l-1.4 1.4-.3.3a316.5 316.5 0 01-5 4.7h-2.5c-1.5-.2-.3-3.3-.3-3.3l.4-.4.4-.3 4-4.2.3-.3 1.2-1.3.6-6.5v-.2l-.4-1a202.5 202.5 0 00-3-6.5c-.3-.6.7-.6.7-.6s1.1-.3 1-.7c-.3-.5 1.2-.8 1.2-1.4 0-.6.8-.7.8-.7s1.4.4 1.2 0c-.1-.5 2.1-.7 2.1-.7s1 .5 1.7 0c.6-.6 3-.6 3-.6s-.5-1.8 0-2.4c.5-.5 4.2 2.4 4.2 2.4s-2.2 1.6-1.9 2.7z" fill="#464353"/><path d="M64.6 77s4.1 5.8 7 4l-3.9-6.8-3 2.8z" opacity=".1"/><path d="M64.6 76.7s4.1 5.8 7 4l-3.9-6.8-3 2.8z" fill="#C8A6AB"/><path d="M84.2 80c.3-2.8 1.3-6.9.5-8.1-.3-.6-.6-1.8-.8-3a39 39 0 01-.5-5.6s-1.8-7.9-1.4-9.5c.2-1 0-3.6-.3-5.3l.1-.1 2.6 3.3s1.4 11.6.7 12.7c-.2.2-.4 1-.7 2l1.4-.6-.2 2.9.8 10.9-2.2.3z" opacity=".1"/><path d="M81.8 46.7s2.5 2 3.5 2.1c0 0-.3 1.2-1.4 1.7 0 0 2.7.4 3.7.2 1-.1 2.7.1 3 .6.4.5 1.1 1.1 1.7 1.2.6.1 1.2.7 1.2.7l-4.3 6.4s-1.6 4-1.2 4.8c0 0 0 5.9-.3 6.1 0 0 .4 10.2 1.8 10.2 0 0-3.7 2.4-4.8 1.7-1-.7 1.4-8.7.3-10.5-1-1.8-1.3-8.6-1.3-8.6s-1.8-7.9-1.4-9.5c.3-1.6-.5-7.1-.5-7.1z" fill="#464353"/><path d="M111.3 62.3c-1.3-.4-3.4-.4-3.7 3.1l-1-2.4 4.1-1.7.6 1z" opacity=".1"/><path d="M91.1 53l2.4.2s.8 1 1.5 1l1.2.9s1 .5 1.6.4c0 0 3.3-.4 3.7 0l3 .8s1 1.5 1.8 1.5c1 0 5.8 3.6 6 5 0 0-4.9-3.2-5 3.6 0 0-2-1.8-2.3-2.6-.4-.8-3.6-.5-3.6-.5s-2.2-1-2.5-1.6c-.3-.6-2.4 1-3 .6-.6-.5-6.5-3-6.5-3l-1.7-3.4 3.4-3z" fill="#464353"/><circle vector-effect="non-scaling-stroke" cx="80" cy="58.5" r=".4" fill="#3F3D56"/><circle vector-effect="non-scaling-stroke" cx="79.6" cy="67.2" r=".4" fill="#3F3D56"/><circle vector-effect="non-scaling-stroke" cx="80" cy="62.6" r=".4" fill="#3F3D56"/><circle vector-effect="non-scaling-stroke" cx="78.8" cy="71.8" r=".4" fill="#3F3D56"/><g opacity=".1"><path d="M65.6 127c-.2.5-.9.3-.9.3-2-.2-3.2-5.7-2.7-6.3.5-.6-.3-2-.3-2l-1 .4-1-3 .5-.9 1.8 3c.4.9.6 1.8.5 2.7 0 1 1.1 5.6 3 5.7z"/></g><g opacity=".1"><path d="M83.2 41.4l-.3-.1c-.3-.2-.7-.3-.9-.6-.1-.3-.2-.7-.5-.9-.3-.1-.7.1-1.1.2-.4.1-.9 0-1.3-.2-.6-.2-1.5-.6-2.2-.2-.5.3-.3 1-.4 1.6-.2.8-1 1.3-1.2 2.1 0 .4 0 .8-.3 1l-.3.2a4.6 4.6 0 118.5-3.1z"/></g><path d="M79 39.5c.5.2 1 .3 1.4.2.4 0 .8-.3 1-.2.4.2.4.6.6.9.2.3.6.4 1 .6l.7.2c.3 0 .6-.1.8-.3.3-.3.2-.8 0-1.2-.1-.4-.4-.7-.3-1.1 0-.5.3-1 .4-1.4 0-.7-.5-1.2-1-1.4-.6-.3-1.1-.3-1.6-.6-.5-.4-.8-1-1.2-1.5-.6-.7-1.5-1.2-2.4-1.1-.5 0-1 .3-1.6.4-.9.2-1.7 0-2.6.1-.2 0-.4.2-.5.3-.2.3-.1.7 0 1 .1.6.2 1.3-.1 1.8-.4.6-1.2.9-1.5 1.5-.2.4-.2.8 0 1.2l.5 1c0 .3 0 .5-.2.8 0 .2 0 .6.2.7.2.2.5.1.7.3v.5c0 .3 0 .6-.2.9 0 .3 0 .6.2.8.2.4.8.4 1.3.3l.4-.2c.3-.2.2-.6.3-1 .1-.8 1-1.3 1.2-2.1.1-.5 0-1.3.4-1.6.7-.4 1.6 0 2.2.2z" fill="#464353"/><g opacity=".1"><path d="M78.4 93s4.6 2.9 4.8 4l-4.8-4z"/></g><g opacity=".1"><path d="M78.1 95.3s5.3 2.6 5 3.5l-5-3.5z"/></g><g opacity=".1"><path d="M77.8 97.6s3 1.5 3.2 2.5l-3.2-2.5z"/></g><g opacity=".1"><path d="M79 101.1s2 1.7 2.4 1.3c.4-.4-2.3-1.3-2.3-1.3z"/></g><g opacity=".1"><path d="M76.3 102.2s1.5 2.5.8 2.6l-.8-2.6z"/></g><g opacity=".1"><path d="M69.6 58.5s-2.6 1.6-1.9 2c.8.3 1.9-2 1.9-2z"/></g><g opacity=".1"><path d="M69.6 52.7s-2.7 4.8-1.5 4.5c1.3-.3 1.5-4.5 1.5-4.5z"/></g><g opacity=".1"><path d="M97.8 57.5s-1.6 2-1.3 3l1.3-3z"/></g><g opacity=".1"><path d="M102 58.5s-2.4 2.2-2 2.4l2-2.4z"/></g><g opacity=".1"><path d="M103.6 61.1s-.3 1.5.1 1.5l-.1-1.5z"/></g><g opacity=".1"><path d="M77 91.2c-.7.8-.7 2.2-1 2.8l-.7 1.4c-.1-.3-.3-.5-.6-.4l-.6-4.1c-.1-.7 1.5-2.5 1.5-2.5s1.6.4 2 1.2c.4.8 0 .8-.6 1.6z"/></g><g opacity=".1"><path d="M68.8 74c-1.8.3-5.1 5-5.1 5l-1-1.4-2.5-3.8 4.3-4.5.8.9s1.5 1.5 1.5 1.8l.7.8 1.3 1.3z"/></g><g opacity=".1"><path d="M63.1 54.1l-.1-.3 1.9.2 1 6.2c-.8-1.7-2.2-5-2.8-6z"/></g><g opacity=".1"><path d="M67.2 73.1a323.3 323.3 0 01-5 4.7l-2.4-3.7.4-.3 4-4.2.5.6s1.5 1.5 1.5 1.8l1 1.1z"/></g><path d="M65.2 54l-2.2-.2s-.6 1.4-1.1 1.5l-1.2 1.2s-1.9.4-1.8 1c.1.5-2.9 4.8-2.9 4.8s-1 2-.3 3.5c.7 1.4 1.2 2.4 1.3 3 .2.5 2 2.9 2 3.3 0 .5 4.4 7 4.4 7s3.3-4.8 5-5c0 0-1.9-1.8-1.9-2.1 0-.3-1.5-1.8-1.5-1.8L63 68s-.6-.3 0-.9l-1-1.7s0-1 .6-1.2l1.4-1.8 2.4-1.2-1.2-7.3z" fill="#464353"/><g opacity=".1"><path d="M56.7 63.8s2.7-.6 2.7-.2c0 .3-2.7.2-2.7.2z"/></g><g opacity=".1"><path d="M59 66.4s2.2.3 2 .8c0 .5-2-.8-2-.8z"/></g><g opacity=".1"><path d="M60.8 58s2.2 3.1 2.5 2.5l-2.5-2.4z"/></g><g opacity=".1"><path d="M73.8 35.2l-.1-1-.1-.5v.7l.2.8zM84.2 38.5c0-.5.3-.9.4-1.3v-.3c-.1.5-.4.9-.4 1.4v.2zM84.5 40.6a1 1 0 01-.8.3l-.8-.2c-.3-.2-.7-.3-.9-.6-.2-.3-.2-.7-.5-.8-.3-.2-.7 0-1.1.1-.4.1-.9 0-1.3-.2-.6-.2-1.5-.6-2.2-.2-.5.4-.3 1-.4 1.6-.2.8-1 1.3-1.2 2.1 0 .4 0 .8-.3 1a1 1 0 01-.4.2c-.5.1-1 .1-1.3-.2l-.2-.4c0 .2 0 .4.2.6.2.4.8.4 1.3.3l.4-.1c.3-.3.2-.7.3-1 .1-.9 1-1.4 1.2-2.2.1-.5 0-1.3.4-1.6.7-.4 1.6 0 2.2.2.4.2.9.3 1.3.2.4 0 .8-.3 1-.2.4.2.4.6.6.9.2.3.6.4 1 .6l.7.2c.3 0 .6-.1.8-.3l.2-.7-.2.4zM72.6 39.6c0-.4-.4-.7-.5-1l-.2-.4c0 .2 0 .5.2.7l.5 1v-.3zM73.4 41.9v-.5c-.2-.2-.6-.1-.8-.3a.5.5 0 01-.2-.3c0 .2 0 .5.2.6.2.2.6.1.7.3l.1.2z" opacity=".1"/></g></g><g><path d="M343.7 40.6l2.4 8.6 2.3-8.6h3.6l-4.3 12.7h-3.2l-4.3-12.7h3.5zm13.3 0v12.7h-3.4V40.6h3.4zm-3.6-3.3q0-.7.5-1.2.6-.5 1.4-.5.9 0 1.4.5.5.5.5 1.2 0 .8-.5 1.3t-1.4.5q-.8 0-1.3-.5-.6-.5-.6-1.3zm5.9 9.6q0-3 1.3-4.8 1.4-1.7 3.7-1.7 1.8 0 3 1.4v-6.5h3.4v18h-3l-.2-1.4q-1.3 1.6-3.3 1.6-2.2 0-3.6-1.7-1.3-1.8-1.3-5zm3.4.2q0 1.8.6 2.7.6 1 1.8 1 1.6 0 2.2-1.3v-5q-.6-1.4-2.2-1.4-2.4 0-2.4 4zm16.5 6.4q-2.8 0-4.6-1.7-1.7-1.7-1.7-4.5v-.4q0-1.9.7-3.4.8-1.5 2.1-2.3 1.4-.8 3.1-.8 2.6 0 4.1 1.6 1.5 1.7 1.5 4.7V48h-8q0 1.2 1 2 .7.7 2 .7 2 0 3-1.4l1.7 1.8q-.7 1.1-2 1.7-1.3.6-3 .6zm-.4-10.4q-1 0-1.6.7-.7.7-.8 2h4.7v-.3q0-1.1-.6-1.8-.6-.6-1.7-.6zm7 3.9v-.2q0-1.8.7-3.3.7-1.5 2.1-2.3 1.4-.8 3.2-.8 2.5 0 4.2 1.6 1.6 1.5 1.8 4.2v.9q0 2.9-1.6 4.7-1.7 1.7-4.4 1.7t-4.4-1.7q-1.6-1.8-1.6-4.8zm3.4 0q0 1.9.7 2.8.6 1 2 1 1.1 0 1.8-1 .7-.9.7-3 0-1.7-.7-2.7-.7-1-2-1-1.2 0-1.8 1-.7 1-.7 3zm17.6 2.8q0-.6-.7-1-.6-.3-2-.6-4.5-1-4.5-3.9 0-1.7 1.4-2.8 1.4-1.1 3.7-1.1 2.4 0 3.9 1.1 1.4 1.2 1.4 3h-3.4q0-.8-.4-1.2-.5-.5-1.5-.5-.9 0-1.3.4-.5.4-.5 1 0 .5.5.9l1.8.6 2.2.5q2.7 1 2.7 3.5 0 1.7-1.5 2.8-1.5 1-3.9 1-1.6 0-2.8-.5-1.2-.6-2-1.6-.7-1-.7-2.1h3.3q0 .9.6 1.3.6.5 1.7.5 1 0 1.5-.3.5-.4.5-1zM418 48h-3q0-1.7.4-2.7.4-1 1.5-1.9l1.4-1.5q.3-.6.3-1.3 0-2-1.8-2-.9 0-1.4.6-.5.5-.5 1.5h-3.4q0-2.3 1.4-3.5 1.4-1.3 3.9-1.3t3.8 1.2q1.4 1.2 1.4 3.4 0 1-.4 1.9-.5.9-1.6 2l-1 .8q-.8.9-1 2v.8zm-3.3 3.6q0-.8.5-1.3t1.4-.5q.8 0 1.3.5.6.5.6 1.3 0 .7-.6 1.2-.5.5-1.3.5-.9 0-1.4-.5-.5-.5-.5-1.2zm-133-4.8v.2q0 2.9-1.3 4.7-1.4 1.7-3.6 1.7-2 0-3.1-1.3v6h-3.4V40.6h3.1l.2 1.3q1.2-1.5 3.2-1.5 2.3 0 3.6 1.7 1.3 1.8 1.3 4.8zm-3.4 0q0-1.8-.6-2.8-.6-1-1.8-1-1.6 0-2.2 1.3v5.1q.6 1.3 2.2 1.3 2.4 0 2.4-4zm12.7-6.4v3.3l-1.3-.1q-2 0-2.5 1.3v8.3h-3.4V40.6h3.2l.1 1.5q1-1.7 2.8-1.7l1 .1zm7.2 13q-2.8 0-4.6-1.7-1.7-1.7-1.7-4.5v-.4q0-1.9.7-3.4.8-1.5 2.1-2.3 1.4-.8 3.1-.8 2.6 0 4 1.6 1.6 1.7 1.6 4.7V48h-8q0 1.2.9 2 .8.7 2 .7 2 0 3.2-1.4l1.6 1.8q-.7 1.1-2 1.7-1.3.6-3 .6zm-.4-10.4q-1 0-1.7.7-.6.7-.8 2h4.8v-.3q0-1.1-.7-1.8-.5-.6-1.6-.6zm11.8 10.2h-3.4V43.1h-1.9v-2.5h2v-1q0-2.2 1.2-3.4 1.2-1.2 3.4-1.2.7 0 1.7.3v2.6l-1-.1q-2 0-2 1.8v1h2.6v2.5h-2.6v10.2zm9.9.2q-2.8 0-4.6-1.7-1.7-1.7-1.7-4.5v-.4q0-1.9.7-3.4t2.1-2.3q1.4-.8 3-.8 2.7 0 4.2 1.6 1.5 1.7 1.5 4.7V48h-8q0 1.2.9 2 .8.7 2 .7 2 0 3.1-1.4l1.7 1.8q-.8 1.1-2 1.7-1.4.6-3 .6zm-.4-10.4q-1 0-1.7.7-.6.7-.8 2h4.8v-.3q0-1.1-.7-1.8-.5-.6-1.6-.6zm14.7-2.6v3.3l-1.3-.1q-2 0-2.5 1.3v8.3h-3.4V40.6h3.2v1.5q1.1-1.7 3-1.7l1 .1zm-106 .1l2.4 7.9 2.3-7.9h3.7L231 55.3l-.3.6q-1.2 2.5-3.8 2.5l-1.5-.2v-2.6h.5q1 0 1.5-.3.5-.2.7-1l.4-1-4.4-12.7h3.6zm9 6.4v-.2q0-1.8.7-3.3.7-1.5 2.1-2.3 1.4-.8 3.2-.8 2.5 0 4.2 1.6 1.6 1.5 1.8 4.2v.9q0 2.9-1.6 4.7-1.7 1.7-4.4 1.7t-4.4-1.7q-1.6-1.8-1.6-4.8zm3.4 0q0 1.9.7 2.8.6 1 1.9 1 1.2 0 2-1 .6-.9.6-3 0-1.7-.7-2.7-.7-1-2-1-1.2 0-1.8 1-.7 1-.7 3zm18.4 6.3l-.1-1.3q-1.3 1.5-3.5 1.5-2 0-3.1-1.1-1-1.2-1-3.5v-8.3h3.3v8.2q0 2 1.8 2 1.7 0 2.4-1.2v-9h3.4v12.7h-3.2zm-62.8 0h-5.3v-17h5.3q2.2 0 4 1 1.8 1 2.8 2.8 1 1.9 1 4.3v.8q0 2.3-1 4.2-1 1.8-2.8 2.9-1.8 1-4 1zm0-14.2H194v11.4h1.7q2.1 0 3.2-1.4 1-1.3 1.1-3.8v-1q0-2.5-1-3.9-1.2-1.3-3.2-1.3zm9.6 7.9v-.2q0-1.8.7-3.3.7-1.5 2-2.3 1.5-.8 3.3-.8 2.5 0 4.1 1.6 1.7 1.5 1.9 4.2v.9q0 2.9-1.6 4.7-1.7 1.7-4.4 1.7-2.8 0-4.4-1.7-1.6-1.8-1.6-4.8zm3.4 0q0 1.9.6 2.8.7 1 2 1 1.2 0 2-1 .6-.9.6-3 0-1.7-.7-2.7-.7-1-2-1-1.2 0-1.9 1-.6 1-.6 3z" fill="#9A68F2"/><path d="M437.7 101.7l-.1 10.2h-1.7l-.1-10.2h1.9zm-2 13.4q0-.5.3-.8.3-.3.8-.3t.8.3q.3.3.3.8 0 .4-.3.7-.3.3-.8.3t-.8-.3q-.3-.3-.3-.7zm-29 .9H401v-14.3h5q2.5 0 3.9 1 1.3 1 1.3 3 0 1-.5 1.8-.6.8-1.5 1.1 1 .3 1.7 1.2.6.8.6 2 0 2-1.3 3-1.3 1.1-3.7 1.2zm0-6.2H404v3.8h2.5q1 0 1.6-.5.6-.5.6-1.3 0-2-2-2zM404 104v3.6h2.2q2.2 0 2.2-1.8 0-1-.6-1.4-.5-.4-1.7-.4h-2zm9.2 6.6v-.1q0-1.6.6-2.8.6-1.3 1.8-2 1.1-.6 2.6-.6 2.1 0 3.5 1.3t1.5 3.6v.7q0 2.4-1.3 3.9-1.4 1.5-3.7 1.5-2.3 0-3.6-1.5-1.4-1.5-1.4-4zm2.8 0q0 1.6.6 2.4.6.8 1.6.8t1.6-.8q.6-.8.6-2.5 0-1.5-.6-2.3-.5-.8-1.6-.8-1 0-1.6.8-.6.8-.6 2.5zm14.7 2.3q0-.5-.5-.8-.5-.3-1.7-.5-3.7-.8-3.7-3.2 0-1.4 1.1-2.4 1.2-.9 3-.9 2 0 3.3 1 1.2.9 1.2 2.4h-2.8q0-.6-.4-1t-1.2-.4q-.7 0-1.1.3-.4.4-.4.9 0 .4.4.7.5.3 1.5.5l1.8.5q2.2.8 2.2 2.8 0 1.5-1.2 2.4-1.2.9-3.2.9-1.3 0-2.4-.5-1-.5-1.6-1.3-.6-.8-.6-1.8h2.7q0 .8.6 1.2.5.4 1.3.4.9 0 1.3-.4.4-.3.4-.8zm-64.1-11.3l2.3 10.2 2-10.2h2.8l-3.1 14.3h-3l-2.3-9.5-2.3 9.5h-3l-3.1-14.3h3l1.8 10.1 2.4-10h2.5zm13 14.5q-2.2 0-3.7-1.5-1.5-1.4-1.5-3.8v-.2q0-1.6.7-2.9.6-1.2 1.7-2 1.1-.6 2.6-.6 2.1 0 3.4 1.4 1.2 1.3 1.2 3.8v1.2h-6.7q.1 1 .8 1.7.7.6 1.8.6 1.6 0 2.5-1.2l1.4 1.6q-.6.9-1.7 1.4-1.1.5-2.4.5zm-.2-8.7q-.9 0-1.4.6-.5.5-.7 1.6h4v-.3q0-.9-.6-1.4-.4-.5-1.3-.5zm12 5.5q0-.5-.6-.8-.5-.3-1.6-.5-3.8-.8-3.8-3.2 0-1.4 1.2-2.4 1.2-.9 3-.9 2 0 3.3 1 1.2.9 1.2 2.4h-2.9q0-.6-.3-1-.4-.4-1.3-.4-.7 0-1 .3-.5.4-.5.9 0 .4.5.7.4.3 1.5.5l1.8.5q2.2.8 2.2 2.8 0 1.5-1.2 2.4-1.3.9-3.2.9-1.4 0-2.4-.5t-1.6-1.3q-.6-.8-.6-1.8h2.7q0 .8.5 1.2.5.4 1.4.4.8 0 1.2-.4.5-.3.5-.8zm-69-7.6l2.5 8 2-8h1.8l-3 10.6h-1.5l-2.6-8-2.5 8h-1.4l-3.1-10.6h1.8l2 8 2.5-8h1.5zm10.1 0V116h-1.8v-10.6h1.8zm-2-2.8q0-.4.3-.8.3-.3.8-.3.6 0 .8.3.3.4.3.8t-.3.7q-.2.3-.8.3-.5 0-.8-.3-.2-.3-.2-.7zm5.6.2h1.8v2.6h2v1.4h-2v6.5q0 .7.2 1 .3.3 1 .3l.8-.1v1.5l-1.4.2q-1.2 0-1.8-.8-.6-.7-.6-2v-6.6h-2v-1.4h2v-2.6zm7.7-1.8v5.7q1.2-1.5 3-1.5 3.4 0 3.5 3.8v7h-1.8v-7q0-1.2-.6-1.7-.5-.6-1.6-.6-.8 0-1.5.5t-1 1.2v7.6h-1.9v-15h1.9zM222 116h-2l-.2-1.2q-1.2 1.4-3 1.4-1.5 0-2.5-1-1-.8-1-2.2 0-1.6 1.2-2.5 1.3-1 3.6-1h1.7v-.8q0-1-.6-1.5-.5-.5-1.6-.5-1 0-1.6.4-.7.5-.7 1.2h-1.8q0-.8.5-1.5.6-.7 1.6-1.2 1-.4 2-.4 2 0 3 1 1 .8 1 2.4v4.9q0 1.4.4 2.3v.2zm-5-1.4q1 0 1.7-.5.8-.4 1.1-1.1v-2.2h-1.4q-3.3 0-3.3 2 0 .8.5 1.3.6.5 1.5.5zm10.1 1.4h-1.8v-9.2h-1.6v-1.4h1.6v-1q0-1.8 1-2.7.9-1 2.5-1l1.3.2-.1 1.5-1-.1q-.9 0-1.4.5-.5.5-.5 1.5v1h2.3v1.5h-2.3v9.2zm5-13.2h1.7v2.6h2v1.4h-2v6.5q0 .7.3 1 .3.3.9.3l.9-.1v1.5l-1.4.2q-1.2 0-1.8-.8-.7-.7-.7-2v-6.6h-1.9v-1.4h2v-2.6zm10.2 13.4q-2.1 0-3.5-1.5-1.3-1.4-1.3-3.7v-.4q0-1.5.6-2.8.6-1.2 1.6-1.9 1.1-.7 2.4-.7 2 0 3.2 1.4 1.1 1.3 1.1 3.8v.8h-7.1q0 1.6.9 2.5.9 1 2.2 1 1 0 1.6-.4.7-.4 1.2-1l1 .8q-1.2 2-3.9 2zm-.2-9.5q-1.1 0-1.9.8-.7.8-.9 2.2h5.3v-.1q0-1.4-.7-2.2-.7-.7-1.8-.7zm11.5-1.4v1.7h-.9q-1.7 0-2.4 1.5v7.5h-1.8v-10.6h1.8v1.2q.9-1.4 2.5-1.4l.8.1zm1.7 0h1.7v1.4q1.3-1.5 3.2-1.5 3.4 0 3.4 3.8v7h-1.8v-7q0-1.2-.5-1.7-.5-.6-1.6-.6-1 0-1.6.5-.6.5-1 1.2v7.6h-1.8v-10.6zm10.5 5.4v-.1q0-1.6.7-2.8.6-1.3 1.7-2 1-.6 2.4-.6 2.2 0 3.5 1.5 1.4 1.5 1.4 4v.1q0 1.5-.6 2.8-.6 1.2-1.7 1.9t-2.5.7q-2.2 0-3.5-1.5-1.4-1.5-1.4-4zm1.9.1q0 1.8.8 2.8.8 1 2.2 1 1.3 0 2.1-1 .9-1 .9-3 0-1.8-.9-2.8-.8-1.1-2.2-1.1-1.3 0-2.1 1-.8 1.1-.8 3.1zm9.6 0v-.2q0-1.6.6-2.8.6-1.3 1.7-2 1-.6 2.4-.6 2.2 0 3.5 1.5 1.4 1.5 1.4 4v.1q0 1.5-.6 2.8-.6 1.2-1.7 1.9t-2.5.7q-2.2 0-3.5-1.5-1.3-1.5-1.3-4zm1.8 0q0 1.8.8 2.8.8 1 2.2 1 1.3 0 2.2-1 .8-1 .8-3 0-1.8-.9-2.8-.8-1.1-2.2-1.1-1.3 0-2.1 1-.8 1.1-.8 3.1zm10-5.4h1.7l.1 1.3q1.2-1.5 3.2-1.5 3.3 0 3.3 3.8v7h-1.8v-7q0-1.2-.5-1.7-.5-.6-1.6-.6-.9 0-1.5.5-.7.5-1 1.2v7.6h-1.9v-10.6zm17.2 7.8q0-.8-.5-1.2-.6-.4-2-.7-1.3-.3-2.1-.7-.8-.4-1.2-1-.4-.5-.4-1.3 0-1.3 1-2.2 1.2-.9 2.9-.9 1.8 0 3 1 1 .9 1 2.3h-1.8q0-.7-.6-1.3-.6-.5-1.6-.5t-1.5.4q-.6.4-.6 1.1 0 .7.5 1 .5.4 1.9.7 1.3.3 2.2.7.8.4 1.2 1 .4.6.4 1.4 0 1.4-1.1 2.3-1.1.9-3 .9-1.2 0-2.2-.5-1-.4-1.5-1.2-.6-.9-.6-1.8h1.8q0 1 .8 1.5.6.5 1.8.5 1 0 1.6-.4.6-.4.6-1.1zM190 110.7v-.1q0-1.6.6-2.8.6-1.3 1.7-2 1-.6 2.5-.6 2.1 0 3.5 1.5 1.3 1.5 1.3 4v.1q0 1.5-.6 2.8-.6 1.2-1.7 1.9-1 .7-2.5.7-2.1 0-3.5-1.5-1.3-1.5-1.3-4zm1.8.1q0 1.8.8 2.8.8 1 2.2 1 1.4 0 2.2-1 .8-1 .8-3 0-1.8-.8-2.8-.8-1.1-2.2-1.1-1.4 0-2.2 1-.8 1.1-.8 3.1zm12.8 5.2h-1.8v-9.2H201v-1.4h1.7v-1q0-1.8.9-2.7.9-1 2.5-1 .7 0 1.3.2l-.1 1.5-1-.1q-.9 0-1.4.5-.4.5-.4 1.5v1h2.2v1.5h-2.2v9.2zm197-24.8q1 0 1.8-.5.7-.6.8-1.5h1.7q0 .9-.6 1.7-.6.8-1.6 1.3t-2 .5q-2.2 0-3.4-1.4-1.3-1.5-1.3-4V87q0-1.5.5-2.7.6-1.2 1.7-1.9 1-.6 2.5-.6 1.8 0 3 1 1.1 1 1.2 2.8H404q-.1-1-.8-1.7-.7-.7-1.7-.7-1.4 0-2.2 1-.7 1-.7 2.9v.3q0 1.9.7 2.9.8 1 2.2 1zm5.8-4q0-1.6.6-2.9.7-1.2 1.7-1.9 1.1-.6 2.5-.6 2.2 0 3.5 1.5 1.4 1.5 1.4 4 0 1.6-.6 2.8-.6 1.3-1.7 2-1.1.6-2.5.6-2.2 0-3.5-1.5-1.4-1.5-1.4-4zm1.9.2q0 1.7.8 2.8.8 1 2.2 1 1.3 0 2.1-1 .9-1.1.9-3 0-1.8-.9-2.9-.8-1-2.2-1-1.3 0-2.1 1t-.8 3zm16.6 5.1v-1q-1.1 1.2-3.1 1.2-1.7 0-2.6-1-1-1-1-2.9V82h1.9v6.8q0 2.4 2 2.4t2.7-1.6V82h1.8v10.5h-1.7zm13.4-5.3v.2q0 2.4-1.1 3.8-1.1 1.5-3 1.5-2 0-3-1.2v5h-1.9V82h1.7V83q1.2-1.3 3.2-1.3 1.9 0 3 1.4 1 1.4 1 4zm-1.8 0q0-1.8-.8-2.9-.8-1-2-1-1.7 0-2.5 1.5v5q.8 1.4 2.4 1.4 1.3 0 2.1-1t.8-3zm6-9.7v15h-1.8v-15h1.8zm7.3 15.2q-2.1 0-3.5-1.4-1.3-1.4-1.3-3.8v-.3q0-1.6.6-2.8.6-1.2 1.6-2 1.1-.6 2.4-.6 2 0 3.2 1.3 1.1 1.4 1.1 4v.7h-7.1q0 1.5.9 2.5t2.2 1q1 0 1.6-.4.7-.4 1.2-1l1 .8q-1.2 2-3.9 2zm-.2-9.5q-1.1 0-1.9.8-.7.8-.9 2.3h5.3V86q0-1.3-.7-2.1t-1.8-.8zm-60.6 9.3H388l-.2-1q-1.3 1.2-3 1.2-1.6 0-2.6-.9-1-.8-1-2.2 0-1.7 1.3-2.6 1.2-.9 3.5-.9h1.8v-.8q0-1-.6-1.5-.6-.6-1.7-.6-1 0-1.6.5-.7.5-.7 1.2h-1.8q0-.8.6-1.5.6-.8 1.5-1.2 1-.4 2.1-.4 1.9 0 2.9.9t1 2.5V90q0 1.4.4 2.3v.1zm-4.9-1.4q.9 0 1.7-.4.7-.4 1-1.1v-2.2h-1.4q-3.3 0-3.3 2 0 .8.6 1.3.6.4 1.4.4zM344 82h1.8v11.7q0 3-2.8 3h-1v-1.5h.7q.6 0 1-.3.3-.3.3-1.1V82zm-.2-2.8q0-.5.3-.8.2-.3.8-.3.5 0 .8.3.2.3.2.8 0 .4-.3.7-.2.3-.8.3-.5 0-.7-.3-.3-.3-.3-.7zm11.5 13.3v-1q-1.1 1.2-3.2 1.2-1.7 0-2.5-1-1-1-1-2.9V82h1.9v6.8q0 2.4 2 2.4t2.7-1.6V82h1.8v10.5h-1.7zm10.6-2.8q0-.7-.6-1.1-.5-.4-1.9-.7-1.4-.3-2.2-.7-.8-.4-1.2-1-.4-.6-.4-1.3 0-1.3 1.1-2.2 1.1-1 2.9-1 1.7 0 2.9 1 1 1 1 2.4h-1.7q0-.8-.7-1.3-.6-.6-1.5-.6-1 0-1.6.5-.5.4-.5 1.1 0 .7.5 1 .5.3 1.8.6 1.4.3 2.2.7.9.5 1.3 1 .4.6.4 1.5 0 1.4-1.2 2.3-1 .8-2.9.8-1.3 0-2.2-.4-1-.5-1.6-1.3-.5-.8-.5-1.7h1.8q0 .9.7 1.4.7.5 1.8.5 1 0 1.7-.4.6-.4.6-1zm4.8-10.3h1.8V82h2v1.4h-2v6.5q0 .6.3 1 .2.3.8.3l1-.1v1.4l-1.5.2q-1.2 0-1.8-.7-.6-.7-.6-2v-6.6h-2V82h2v-2.6zM325 82v10.5h-1.8V82h1.8zm-2-2.8q0-.5.4-.8.2-.3.8-.3.5 0 .8.3.2.3.2.8 0 .4-.2.7-.3.3-.8.3-.6 0-.8-.3-.3-.3-.3-.7zm5 2.8h1.6l.1 1.3q1.2-1.5 3.2-1.5 3.3 0 3.3 3.7v7h-1.8v-7q0-1.1-.5-1.7-.5-.5-1.6-.5-.9 0-1.5.5-.7.4-1 1.2v7.5h-1.9V82zm-25.5 0h2.9V93q0 1.7-1 2.7-.9 1-2.6 1-.8 0-1.4-.2v-2.2h.8q1.3 0 1.3-1.3V82zm-.2-2.8q0-.6.4-1t1.2-.4q.7 0 1.1.4.5.4.5 1 0 .7-.5 1-.4.5-1.1.5-.7 0-1.2-.4-.4-.4-.4-1zm11 10.4q0-.5-.5-.8-.5-.3-1.7-.5-3.7-.8-3.7-3.2 0-1.5 1.1-2.4 1.2-1 3-1 2 0 3.3 1 1.2 1 1.2 2.5h-2.8q0-.6-.4-1t-1.2-.4q-.7 0-1.1.3-.4.3-.4.8t.4.8q.5.3 1.5.5l1.8.4q2.2.9 2.2 2.9 0 1.4-1.2 2.3-1.2 1-3.2 1-1.3 0-2.4-.6-1-.4-1.6-1.3-.6-.8-.6-1.7h2.7q0 .7.6 1.1.5.4 1.3.4.9 0 1.3-.3t.4-.8zm-60.1 3l-2.7-5.3h-2.3v5.2h-3V78.3h5.3q2.6 0 4 1.1 1.3 1.2 1.3 3.2 0 1.5-.6 2.4-.7 1-2 1.6l3.1 5.8v.1h-3.1zm-5-12V85h2.4q1 0 1.7-.5.6-.6.6-1.6t-.6-1.5q-.6-.6-1.8-.6h-2.3zm14.5 12.1q-2.3 0-3.8-1.4-1.4-1.4-1.4-3.8v-.3q0-1.6.6-2.8.6-1.3 1.7-2 1.1-.6 2.6-.6 2.2 0 3.4 1.3 1.2 1.4 1.2 4v1h-6.7q.2 1 .8 1.7.7.6 1.8.6 1.6 0 2.5-1.1l1.4 1.5q-.6 1-1.7 1.4-1 .5-2.4.5zm-.3-8.7q-.9 0-1.4.6-.5.6-.7 1.6h4V86q0-1-.5-1.4-.5-.6-1.4-.6zm15.2 8.5h-2.8l-.3-1q-1 1.2-2.7 1.2-1.5 0-2.6-.9-1-.9-1-2.2 0-1.7 1.3-2.6 1.2-1 3.6-1h1.3v-.5q0-.8-.4-1.2-.4-.4-1.2-.4-.7 0-1.1.3-.4.3-.4 1h-2.8q0-1 .5-1.8.6-.7 1.6-1.2 1-.4 2.4-.4 2 0 3 1 1.2 1 1.2 2.7v4.6q0 1.5.4 2.3v.1zm-5.2-2q.7 0 1.2-.2.5-.3.8-.8v-1.8h-1q-2.2 0-2.3 1.5v.1q0 .6.3 1 .4.3 1 .3zm11.4 0q.7 0 1.2-.5.5-.4.5-1.1h2.7q0 1-.6 2-.6.8-1.6 1.3t-2.2.5q-2.3 0-3.6-1.4-1.3-1.5-1.3-4v-.2q0-2.4 1.3-3.9 1.3-1.4 3.6-1.4 2 0 3.2 1 1.2 1.2 1.2 3h-2.7q0-.7-.5-1.2-.5-.6-1.3-.6-1 0-1.4.8-.5.7-.5 2.3v.3q0 1.6.5 2.3.4.7 1.5.7zm6.6-11.1h2.8V82h1.8v2h-1.8v5.3q0 .6.2.8.2.3.9.3h.8v2q-.8.3-1.7.3-3 0-3-3V84h-1.6v-2h1.6v-2.6zm6.3 11.7q0-.6.5-1 .4-.5 1.1-.5.7 0 1.1.4.5.5.5 1.1 0 .7-.5 1.1-.4.4-1.1.4-.7 0-1.1-.4-.5-.4-.5-1zM192.5 78.3V91h6.8v1.5h-8.7V78.3h2zm13 14.4q-2.1 0-3.5-1.4-1.3-1.4-1.3-3.8v-.3q0-1.6.6-2.8.6-1.2 1.6-2 1.1-.6 2.4-.6 2 0 3.2 1.3 1.1 1.4 1.1 4v.7h-7.1q0 1.5.9 2.5t2.2 1q1 0 1.6-.4.7-.4 1.2-1l1.1.8q-1.3 2-4 2zm-.2-9.5q-1.1 0-1.8.8-.8.8-1 2.3h5.3V86q0-1.3-.7-2.1t-1.8-.8zm14.8 9.3h-1.9l-.2-1q-1.3 1.2-3 1.2-1.6 0-2.6-.9-1-.8-1-2.2 0-1.7 1.3-2.6 1.2-.9 3.5-.9h1.8v-.8q0-1-.6-1.5-.6-.6-1.7-.6-1 0-1.6.5-.6.5-.6 1.2h-1.9q0-.8.6-1.5.6-.8 1.5-1.2 1-.4 2.1-.4 1.9 0 2.9.9t1 2.5V90q0 1.4.4 2.3v.1zm-4.8-1.4q.8 0 1.6-.4.7-.4 1-1.1v-2.2h-1.4q-3.3 0-3.3 2 0 .8.6 1.3.6.4 1.4.4zm12.4-9.2v1.7h-.9q-1.8 0-2.4 1.4v7.5h-1.8V82h1.8v1.2q.9-1.4 2.5-1.4l.8.1zm1.7 0h1.7v1.4q1.3-1.5 3.2-1.5 3.4 0 3.4 3.7v7h-1.8v-7q0-1.1-.5-1.7-.6-.5-1.6-.5t-1.6.5q-.7.4-1 1.2v7.5h-1.8V82z" fill="#102C3C"/></g><g><path fill="#FFA8A8" d="M-38.9 76.6L74-36.2l17.7 17.7L-21.2 94.3z"/><path d="M14.8 42.8l1.5-1.5q1.2 1.3 1 2.8 0 1.5-1.4 2.8-1.4 1.5-3.3 1.3-1.8-.1-3.5-1.8l-.4-.5q-1.1-1-1.6-2.3-.4-1.2-.1-2.4.2-1.1 1.2-2 1.3-1.4 2.8-1.5 1.5 0 2.9 1l-1.6 1.6q-.8-.6-1.5-.6-.6 0-1.4.7-.7.8-.6 1.7.2 1 1.4 2.2l.5.5Q12 46 13 46.2q1 .2 1.7-.6.8-.7.8-1.4t-.6-1.4zm2-2.5h-.1q-.9-1-1.2-1.9-.3-1 0-2 .2-.9 1-1.7 1.1-1.1 2.5-1.1t2.7 1l.4.4q1.3 1.3 1.3 2.8.1 1.5-1.1 2.7-1.2 1.2-2.7 1.2-1.5 0-2.9-1.4zm1.5-1.5q.8.8 1.5 1 .7 0 1.3-.5.5-.5.4-1.3-.1-.7-1-1.6-.8-.8-1.5-.9-.8-.1-1.3.4-.6.6-.4 1.3 0 .7 1 1.6zM29 33.4l-.6-.5q.2 1.2-.8 2.2-1 1-2 .9-.9 0-2-1l-3.6-3.7 1.5-1.5 3.6 3.6q1 .9 1.7 0 .8-.7.5-1.5l-4-4 1.6-1.5 5.6 5.6-1.5 1.4zm.1-11.3l1.4 1.5-.5.5q-.9.8-.6 1.6l3.7 3.7-1.5 1.5-5.6-5.6 1.4-1.4.7.6q-.3-1.2.5-2l.5-.4zm7.8.4q-.2-.3-.7-.2-.4.1-1.1.6-2.4 1.6-3.7.3-.8-.8-.6-1.9 0-1.1 1-2.1 1.1-1 2.3-1.2 1.1-.1 2 .7l-1.6 1.5q-.3-.4-.7-.4-.4 0-.9.5l-.4.7q0 .4.3.7.2.2.6.1.4 0 1-.5l1.2-.7q1.7-.7 2.7.3.8.8.6 2-.2 1-1.2 2.1-.7.7-1.5 1-.8.3-1.6.2-.7-.1-1.2-.7l1.4-1.4q.4.4 1 .3.4 0 .9-.5.4-.4.5-.8 0-.4-.3-.6zm6.7-3.4q-1.2 1.2-2.8 1.3-1.5 0-2.8-1.3L38 19q-.8-.9-1.2-1.9-.3-1 0-2 .2-.9 1-1.6 1-1.2 2.5-1.1 1.3 0 2.7 1.4l.6.6L40 18q.6.4 1.3.4.7 0 1.3-.6.9-.9.7-2l1.6.1q.1.8-.2 1.7-.3.8-1 1.5zm-4.8-4.4q-.4.4-.4 1T39 17l2-2v-.2q-.5-.5-1-.5-.6 0-1 .5z" fill="#9F1818"/></g></g></svg>