<?xml version="1.0" encoding="UTF-8" standalone="no"?>
<!--Generator: Gravit.io-->
<svg xmlns="http://www.w3.org/2000/svg" style="isolation:isolate" viewBox="0 0 800 100" width="800pt" height="100pt">
  <defs>
    <clipPath id="_clipPath_KBhGJG4svQ7GBJF2wRD8e68sLdglzRor">
      <path d="M0 0h800v100H0z"/>
    </clipPath>
  </defs>
  <g clip-path="url(#_clipPath_KBhGJG4svQ7GBJF2wRD8e68sLdglzRor)">
    <path style="fill:rgb(67,31,134)" d="M0 0h800v100H0z"/>
    <g fill="rgb(97,218,251)">
      <path d="M103 50c0-5.6-7-10.8-17.7-14.1C87.8 25 86.7 16.3 82 13.6c-1.1-.7-2.4-1-3.8-1v3.8a4 4 0 012 .5c2.2 1.3 3.2 6.4 2.5 13-.2 1.5-.5 3.2-1 5-3.3-.8-7-1.5-10.8-1.9-2.3-3.2-4.7-6-7.1-8.6 5.6-5.1 10.8-8 14.4-8v-3.8c-4.7 0-10.9 3.4-17.1 9.2-6.3-5.8-12.4-9.1-17.1-9.1v3.8c3.5 0 8.8 2.8 14.3 8a80.8 80.8 0 00-7 8.5c-3.9.4-7.6 1-11 1.9l-.8-5c-.8-6.5.2-11.6 2.5-13 .5-.3 1.2-.4 2-.4v-3.8c-1.5 0-2.8.3-4 1-4.7 2.7-5.8 11.4-3.3 22.2C25.9 39.2 19 44.5 19 50c0 5.6 7 10.8 17.7 14.1-2.5 11-1.4 19.6 3.4 22.3 1.1.7 2.4 1 3.9 1 4.7 0 10.8-3.4 17-9.2 6.3 5.8 12.5 9.1 17.2 9.1 1.4 0 2.7-.3 3.8-1 4.9-2.7 6-11.3 3.5-22.2 10.6-3.3 17.5-8.5 17.5-14zM80.7 38.6a77 77 0 01-2.3 6.8 81.2 81.2 0 00-4.7-8.2c2.4.4 4.8.8 7 1.4zM73 56.8a91 91 0 01-4.2 6.6 89.3 89.3 0 01-15.4 0A94.2 94.2 0 0145.6 50a89.2 89.2 0 017.7-13.4 89 89 0 0115.4 0A94.2 94.2 0 0176.4 50c-1 2.3-2.3 4.6-3.5 6.8zm5.5-2.2c1 2.3 1.7 4.6 2.4 6.8-2.3.6-4.6 1-7.1 1.4a95.2 95.2 0 004.7-8.2zM61 72.9a70.6 70.6 0 01-4.7-5.5 105.3 105.3 0 009.4 0c-1.5 2-3 3.8-4.7 5.5zM48.3 62.8a77 77 0 01-7-1.4 77 77 0 012.3-6.7 81.2 81.2 0 004.7 8zm12.6-35.6a71 71 0 014.8 5.4 105.3 105.3 0 00-9.5 0c1.6-2 3.2-3.8 4.7-5.4zm-12.6 10a93.6 93.6 0 00-4.7 8.2c-1-2.3-1.7-4.6-2.4-6.8l7-1.4zM32.8 58.7c-6-2.6-10-6-10-8.7 0-2.7 4-6 10-8.7 1.5-.6 3-1.2 4.7-1.7 1 3.4 2.3 6.9 3.9 10.4-1.6 3.6-2.9 7-3.8 10.4a52 52 0 01-4.8-1.7zM42 83c-2.3-1.3-3.3-6.4-2.6-13 .2-1.5.5-3.2 1-5 3.3.9 7 1.5 10.8 2 2.3 3 4.7 6 7.1 8.5-5.6 5.2-10.8 8-14.4 8a4 4 0 01-2-.5zm40.6-13c.8 6.5-.2 11.6-2.5 13-.5.3-1.2.4-2 .4-3.5 0-8.8-2.8-14.3-8 2.4-2.5 4.8-5.3 7-8.5 3.9-.4 7.6-1 11-1.9l.8 5zm6.6-11.4c-1.5.6-3 1.2-4.7 1.7-1-3.4-2.3-6.8-3.9-10.4 1.6-3.6 2.8-7 3.8-10.4l4.8 1.7c6 2.6 10 6 10 8.7 0 2.7-4 6.1-10 8.7zM43.8 12.7z"/>
      <circle vector-effect="non-scaling-stroke" cx="60.98287810843868" cy="50.00856094578067" r="7.824704443538522"/>
      <path d="M78 12.6z"/>
    </g>
    <path d="M475.8 70.4h-3.2l-.3-1q-1 1.2-2.9 1.2-1.7 0-2.8-1-1.1-1-1.1-2.5 0-1.8 1.3-2.8 1.4-1 4-1h1.4v-.7q0-.8-.4-1.2-.4-.5-1.3-.5-.8 0-1.2.3-.5.4-.5 1h-3q0-1 .5-1.8.7-.9 1.8-1.3 1.1-.5 2.6-.5 2.1 0 3.4 1 1.2 1.1 1.2 3v5.1q0 1.7.5 2.5v.2zm-5.7-2.1q.7 0 1.3-.4.5-.3.8-.8v-2h-1.1q-2.4 0-2.5 1.6v.2q0 .6.4 1t1 .4zm11.6 2.1h-3.1v-9.3h-1.8v-2.3h1.8v-1q0-2 1-3 1.2-1.1 3.2-1.1l1.6.2v2.4h-1q-1.7 0-1.7 1.6v.9h2.3V61h-2.3v9.3zm4.5-14.5h3.1v2.9h2V61h-2v5.8q0 .6.3.9.2.3.9.3l1-.1v2.3q-1 .3-2 .3-3.2 0-3.3-3.3v-6.2h-1.7v-2.3h1.7v-2.9zm12.2 14.7q-2.6 0-4.2-1.5-1.6-1.6-1.6-4.2v-.3q0-1.8.7-3.2.7-1.3 1.9-2 1.2-.8 2.8-.8 2.4 0 3.8 1.5t1.4 4.2v1.3h-7.4q.1 1.1.9 1.8.7.7 1.9.7 1.8 0 2.8-1.3l1.5 1.7q-.7 1-1.9 1.6-1.2.5-2.6.5zm-.4-9.5q-.9 0-1.5.6t-.7 1.8h4.3v-.3q0-1-.6-1.6-.5-.5-1.5-.5zm13.5-2.4v3h-1.2q-1.7 0-2.3 1.1v7.6h-3V58.8h2.9v1.4q1-1.6 2.6-1.6l1 .1zm1.4 0h2.9l.1 1.4q1.2-1.5 3.3-1.5 1.9 0 2.8 1 .9 1.1 1 3.3v7.5h-3.2V63q0-1-.4-1.5-.5-.4-1.4-.4-1.4 0-2 1.1v8.2h-3.1V58.8zm11.9 6v-.2q0-1.7.6-3 .7-1.4 2-2.2 1.2-.7 2.9-.7 2.3 0 3.8 1.4 1.5 1.5 1.7 4v.7q0 2.7-1.5 4.3-1.5 1.6-4 1.6t-4-1.6q-1.5-1.6-1.5-4.4zm3 0q0 1.7.7 2.5.6 1 1.8 1 1.1 0 1.8-1 .6-.8.6-2.7 0-1.6-.6-2.5-.7-1-1.8-1-1.2 0-1.8 1-.6.9-.6 2.7zm9.4 0v-.2q0-1.7.7-3 .7-1.4 1.9-2.2 1.3-.7 3-.7 2.3 0 3.8 1.4 1.4 1.5 1.6 4v.7q0 2.7-1.5 4.3-1.5 1.6-4 1.6t-4-1.6q-1.5-1.6-1.5-4.4zm3.1 0q0 1.7.6 2.5.7 1 1.8 1 1.2 0 1.8-1 .6-.8.6-2.7 0-1.6-.6-2.5-.6-1-1.8-1-1.1 0-1.8 1-.6.9-.6 2.7zm9.8-6h2.9l.1 1.4q1.2-1.5 3.3-1.5 1.9 0 2.8 1 .9 1.1 1 3.3v7.5H557V63q0-1-.4-1.5-.5-.4-1.5-.4-1.3 0-2 1.1v8.2h-3V58.8zm18.7 8.5q0-.6-.6-.9l-1.8-.6q-4.2-.9-4.2-3.5 0-1.6 1.3-2.6t3.4-1q2.2 0 3.5 1 1.3 1 1.3 2.7h-3q0-.6-.5-1-.4-.5-1.3-.5-.8 0-1.2.3-.5.4-.5 1 0 .5.5.8.5.3 1.7.5l2 .5q2.4 1 2.4 3.2 0 1.6-1.4 2.5-1.3 1-3.5 1-1.5 0-2.6-.5t-1.8-1.4q-.6-1-.6-2h3q0 .8.5 1.3.6.4 1.6.4.8 0 1.3-.3.5-.4.5-.9zm5.1 1.7q0-.8.5-1.2.5-.5 1.3-.5t1.3.5q.5.4.5 1.2 0 .7-.5 1.2-.5.4-1.3.4t-1.3-.4q-.5-.5-.5-1.2zm-134.3-4.3v-.1q0-1.7.7-3 .7-1.4 2-2.2 1.2-.7 2.8-.7 2.4 0 3.9 1.4 1.4 1.5 1.6 4v.7q0 2.7-1.5 4.3-1.4 1.6-4 1.6-2.5 0-4-1.6t-1.5-4.4zm3.1.1q0 1.7.7 2.5.6 1 1.7 1 1.2 0 1.8-1 .6-.8.6-2.7 0-1.6-.6-2.5-.6-1-1.8-1-1.1 0-1.7 1-.7.9-.7 2.7zm13.8 5.7h-3.1v-9.3h-1.7v-2.3h1.7v-1q0-2 1.1-3 1.1-1.1 3.2-1.1l1.5.2v2.4h-1q-1.7 0-1.7 1.6v.9h2.3V61h-2.3v9.3zm-83.4-2.3q.9 0 1.4-.5.6-.4.6-1.2h2.9q0 1.2-.6 2.2-.7 1-1.8 1.5-1 .5-2.4.5-2.5 0-4-1.6-1.4-1.5-1.4-4.3v-.2q0-2.7 1.4-4.3 1.5-1.6 4-1.6 2.1 0 3.5 1.2 1.3 1.3 1.3 3.3h-3q0-.9-.5-1.5-.5-.5-1.4-.5-1 0-1.6.8-.6.8-.6 2.5v.4q0 1.8.6 2.5.5.8 1.6.8zm6.2-3.5v-.1q0-1.7.7-3 .6-1.4 1.9-2.2 1.2-.7 2.9-.7 2.3 0 3.8 1.4 1.5 1.5 1.7 4v.7q0 2.7-1.5 4.3-1.5 1.6-4 1.6t-4-1.6q-1.5-1.6-1.5-4.4zm3 .1q0 1.7.7 2.5.6 1 1.8 1 1.1 0 1.8-1 .6-.8.6-2.7 0-1.6-.6-2.5-.7-1-1.8-1-1.2 0-1.8 1-.6.9-.6 2.7zm17 5.7l-.1-1.2q-1.2 1.4-3.2 1.4-1.9 0-2.9-1-1-1.1-1-3.2v-7.6h3.1v7.5q0 1.8 1.7 1.8 1.6 0 2.2-1v-8.3h3v11.6h-2.8zm15.7-5.9v.2q0 2.7-1.2 4.3-1.3 1.6-3.3 1.6-1.8 0-2.9-1.2v5.5h-3V58.8h2.8l.1 1.1q1.1-1.3 3-1.3 2.1 0 3.3 1.6 1.2 1.6 1.2 4.3zm-3.1 0q0-1.6-.6-2.5-.6-.9-1.7-.9-1.4 0-2 1.1V67q.6 1.1 2 1.1 2.3 0 2.3-3.6zm8.3-10.6v16.5H417V54h3zm7.9 16.7q-2.6 0-4.2-1.5-1.6-1.6-1.6-4.2v-.3q0-1.8.7-3.2.7-1.3 2-2 1.2-.8 2.7-.8 2.4 0 3.8 1.5t1.4 4.2v1.3h-7.4q.1 1.1.9 1.8.7.7 1.9.7 1.8 0 2.8-1.3l1.5 1.7q-.7 1-1.9 1.6-1.2.5-2.6.5zm-.4-9.5q-.9 0-1.5.6-.5.6-.7 1.8h4.3v-.3q0-1-.5-1.6-.6-.5-1.6-.5zM361 70.4h-3.1q-.3-.4-.3-1-1.2 1.2-3 1.2-1.7 0-2.8-1-1.1-1-1.1-2.5 0-1.8 1.3-2.8 1.4-1 4-1h1.4v-.7q0-.8-.4-1.2-.4-.5-1.3-.5-.8 0-1.2.3-.5.4-.5 1h-3q0-1 .5-1.8.7-.9 1.8-1.3 1.1-.5 2.6-.5 2.1 0 3.4 1 1.2 1.1 1.2 3v5.1q0 1.7.5 2.5v.2zm-5.7-2.1q.7 0 1.3-.4.5-.3.8-.8v-2h-1.1q-2.4 0-2.5 1.6v.2q0 .6.4 1t1 .4zm-46.3-9.5h3.2V71q0 2-1 3-1 1.1-3 1.1-.8 0-1.5-.2v-2.4h1q1.3 0 1.3-1.4V58.8zm-.2-3q0-.7.5-1.2.4-.4 1.2-.4.8 0 1.3.4.5.5.5 1.2t-.5 1.1q-.5.5-1.3.5-.7 0-1.2-.5-.5-.4-.5-1.1zm12.8 14.6v-1.2q-1.2 1.4-3.2 1.4-1.9 0-2.9-1-1-1.1-1-3.2v-7.6h3.1v7.5q0 1.8 1.7 1.8 1.6 0 2.1-1v-8.3h3.2v11.6h-3zm11.6-3.2q0-.6-.6-.9-.5-.3-1.8-.6-4.1-.9-4.1-3.5 0-1.6 1.3-2.6 1.2-1 3.3-1 2.2 0 3.6 1 1.3 1 1.3 2.7H333q0-.6-.4-1-.5-.5-1.4-.5-.8 0-1.2.3-.4.4-.4 1 0 .5.5.8.4.3 1.6.5l2 .5q2.4 1 2.4 3.2 0 1.6-1.3 2.5-1.4 1-3.6 1-1.4 0-2.6-.5-1.1-.5-1.7-1.4-.7-1-.7-2h3q0 .8.6 1.3.5.4 1.5.4.9 0 1.3-.3.5-.4.5-.9zm5.6-11.3h3.1v2.9h2V61h-2v5.8q0 .6.3.9.2.3 1 .3l.8-.1v2.3q-.9.3-1.8.3-3.3 0-3.4-3.3v-6.2H337v-2.3h1.7v-2.9zm-50.3 2.9v11.6h-3V58.8h3zm-3.3-3q0-.7.5-1.2.5-.4 1.3-.4t1.2.4q.5.5.5 1.2t-.5 1.1q-.5.5-1.2.5-.8 0-1.3-.5-.5-.4-.5-1.1zm5.8 3h3V60q1.3-1.5 3.4-1.5 1.8 0 2.7 1 1 1.1 1 3.3v7.5h-3.2V63q0-1-.4-1.5-.4-.4-1.4-.4-1.3 0-2 1.1v8.2h-3V58.8z" fill="rgb(255,255,255)"/>
    <path d="M262.8 58.8h3.1V71q0 2-1 3-1 1.1-3 1.1l-1.5-.2v-2.4h1q1.4 0 1.4-1.4V58.8zm-.2-3q0-.7.4-1.2.5-.4 1.3-.4t1.3.4q.4.5.4 1.2t-.4 1.1q-.5.5-1.3.5t-1.3-.5q-.4-.4-.4-1.1zm12 11.4q0-.6-.5-.9l-1.8-.6q-4.2-.9-4.2-3.5 0-1.6 1.3-2.6t3.4-1q2.2 0 3.5 1 1.3 1 1.3 2.7h-3q0-.6-.5-1-.4-.5-1.3-.5-.8 0-1.3.3-.4.4-.4 1 0 .5.5.8.5.3 1.7.5l2 .5q2.4 1 2.4 3.2 0 1.6-1.4 2.5-1.4 1-3.5 1-1.5 0-2.6-.5t-1.8-1.4q-.6-1-.6-2h3q0 .8.5 1.3.6.4 1.5.4 1 0 1.4-.3.4-.4.4-.9zm-66 3.2l-3-5.7H203v5.7h-3.2V54.8h5.8q2.8 0 4.3 1.2t1.5 3.5q0 1.6-.7 2.7-.7 1-2 1.7l3.3 6.4v.1h-3.5zm-5.6-13V62h2.6q1.3 0 2-.6.6-.7.6-1.7 0-1.2-.6-1.8-.7-.6-2-.6H203zm16 13.2q-2.6 0-4.2-1.5-1.6-1.6-1.6-4.2v-.3q0-1.8.7-3.2.7-1.3 2-2 1.2-.8 2.8-.8 2.3 0 3.7 1.5 1.4 1.5 1.4 4.2v1.3h-7.4q.1 1.1.9 1.8t2 .7q1.7 0 2.7-1.3l1.5 1.7q-.7 1-1.9 1.6-1.1.5-2.6.5zm-.3-9.5q-1 0-1.5.6-.6.6-.8 1.8h4.3v-.3q0-1-.5-1.6-.6-.5-1.5-.5zm16.7 9.3h-3.1l-.3-1q-1.2 1.2-3 1.2-1.7 0-2.8-1-1.1-1-1.1-2.5 0-1.8 1.4-2.8 1.3-1 4-1h1.3v-.7q0-.8-.4-1.2-.4-.5-1.3-.5-.8 0-1.2.3-.5.4-.5 1h-3q0-1 .6-1.8.6-.9 1.7-1.3 1.2-.5 2.6-.5 2.1 0 3.4 1 1.3 1.1 1.3 3v5.1q0 1.7.4 2.5v.2zm-5.7-2.1q.7 0 1.3-.4.6-.3.8-.8v-2h-1.1q-2.3 0-2.5 1.6v.2q0 .6.4 1t1.1.4zm12.5-.2q.8 0 1.4-.5.5-.4.5-1.2h3q0 1.2-.7 2.2-.6 1-1.7 1.5t-2.5.5q-2.5 0-3.9-1.6-1.4-1.5-1.4-4.3v-.2q0-2.7 1.4-4.3 1.4-1.6 4-1.6 2 0 3.4 1.2 1.3 1.3 1.3 3.3h-2.9q0-.9-.5-1.5-.6-.5-1.4-.5-1.1 0-1.7.8-.5.8-.5 2.5v.4q0 1.8.5 2.5.6.8 1.7.8zm7.2-12.2h3.1v2.9h2V61h-2v5.8q0 .6.3.9.2.3 1 .3l.8-.1v2.3q-.9.3-1.8.3-3.3 0-3.4-3.3v-6.2h-1.7v-2.3h1.7v-2.9zm7 13q0-.8.5-1.2.5-.5 1.3-.5.7 0 1.2.5.5.4.5 1.2 0 .7-.5 1.2-.5.4-1.2.4-.8 0-1.3-.4-.5-.5-.5-1.2z" fill="rgb(97,218,251)"/>
    <path d="M141.6 54.8v13h6.9v2.6h-10.1V54.8h3.2zm13.9 15.8q-2.6 0-4.2-1.5-1.6-1.6-1.6-4.2v-.3q0-1.8.7-3.2.6-1.3 1.9-2 1.2-.8 2.8-.8 2.4 0 3.8 1.5 1.3 1.5 1.3 4.2v1.3h-7.4q.2 1.1 1 1.8.7.7 1.9.7 1.8 0 2.8-1.3l1.5 1.7q-.7 1-1.9 1.6-1.2.5-2.6.5zm-.4-9.5q-1 0-1.5.6-.6.6-.7 1.8h4.3v-.3q0-1-.6-1.6-.5-.5-1.5-.5zm16.8 9.3h-3.2l-.3-1q-1.1 1.2-3 1.2-1.6 0-2.7-1-1.2-1-1.2-2.5 0-1.8 1.4-2.8 1.4-1 4-1h1.4v-.7q0-.8-.4-1.2-.4-.5-1.3-.5-.8 0-1.3.3-.4.4-.4 1h-3.1q0-1 .6-1.8.6-.9 1.8-1.3 1.1-.5 2.5-.5 2.2 0 3.4 1 1.3 1.1 1.3 3v5.1q0 1.7.5 2.5v.2zm-5.7-2.1q.7 0 1.2-.4.6-.3.9-.8v-2H167q-2.3 0-2.4 1.6v.2q0 .6.3 1 .5.4 1.2.4zm14.2-9.6v3h-1.2q-1.8 0-2.3 1.1v7.6h-3.1V58.8h3v1.4q1-1.6 2.6-1.6l1 .1zm1.4 0h2.9v1.4q1.3-1.5 3.4-1.5 1.9 0 2.8 1 .9 1.1.9 3.3v7.5h-3.1V63q0-1-.4-1.5-.5-.4-1.5-.4-1.3 0-2 1.1v8.2h-3V58.8zM393 41.5q0-.6-.5-.9l-1.8-.6q-4.2-.8-4.2-3.5 0-1.5 1.3-2.6 1.3-1 3.4-1 2.2 0 3.5 1 1.3 1 1.3 2.7h-3q0-.6-.5-1-.4-.5-1.4-.5-.7 0-1.2.4-.4.3-.4.9 0 .5.5.8.5.3 1.6.5l2 .6q2.5.9 2.5 3 0 1.7-1.4 2.7-1.4 1-3.5 1-1.5 0-2.6-.6-1.2-.5-1.8-1.4-.6-1-.6-2h2.9q0 .9.6 1.3t1.5.4q1 0 1.4-.3.4-.3.4-.9zm12.3 3.2l-3-4.6-1.1 1v3.6h-3.1V28.1h3v9.2l.7-.8 3-3.5h3.7l-4.2 4.9 4.5 6.7h-3.5zm7.8-11.6v11.6H410V33h3zm-3.3-3q0-.7.5-1.2.4-.4 1.2-.4.8 0 1.3.4.5.5.5 1.2t-.5 1.2q-.5.4-1.3.4t-1.2-.4q-.5-.5-.5-1.2zm9.1-1.9v16.5H416V28.1h3.1zm5.8 0v16.5h-3V28.1h3zm8.9 13.3q0-.6-.6-.9-.5-.3-1.8-.6-4.1-.8-4.1-3.5 0-1.5 1.3-2.6 1.2-1 3.3-1 2.2 0 3.6 1 1.3 1 1.3 2.7h-3.1q0-.6-.4-1-.5-.5-1.4-.5-.8 0-1.2.4-.4.3-.4.9 0 .5.5.8.4.3 1.6.5l2 .6q2.4.9 2.4 3 0 1.7-1.3 2.7-1.4 1-3.6 1-1.4 0-2.6-.6-1.1-.5-1.7-1.4-.7-1-.7-2h3q0 .9.6 1.3.5.4 1.5.4.9 0 1.3-.3.5-.3.5-.9zm5.2 1.7q0-.7.5-1.2t1.2-.5q.8 0 1.3.5t.5 1.2q0 .7-.5 1.2-.5.4-1.3.4-.7 0-1.2-.4-.5-.5-.5-1.2z" fill="rgb(255,255,255)"/>
    <path d="M282.5 39.8V29h3.2v10.8q0 1.5-.6 2.7-.7 1.1-1.9 1.7-1.2.6-2.7.6-2.5 0-3.9-1.2-1.3-1.3-1.3-3.6h3.2q0 1.2.5 1.7.5.6 1.5.6t1.5-.7q.5-.6.5-1.8zm15.7 4.8H295l-.3-1q-1.1 1.2-2.9 1.2-1.7 0-2.8-1-1.2-1-1.2-2.4 0-1.9 1.4-2.9t4-1h1.4V37q0-.8-.4-1.3t-1.3-.5q-.8 0-1.3.4-.4.3-.4 1h-3.1q0-1 .6-1.9.6-.8 1.8-1.3 1.1-.5 2.5-.5 2.2 0 3.5 1 1.2 1.2 1.2 3.1v5q0 1.7.5 2.5v.2zm-5.7-2.1q.7 0 1.2-.3.6-.3.9-.9v-2h-1.2q-2.3 0-2.4 1.7v.1q0 .6.4 1t1 .4zM302 33l2.2 7.8 2.1-7.8h3.3l-4 11.6h-2.9l-4-11.6h3.3zm18.7 11.6h-3.2l-.3-1q-1.1 1.2-3 1.2-1.6 0-2.7-1-1.2-1-1.2-2.4 0-1.9 1.4-2.9t4-1h1.4V37q0-.8-.4-1.3t-1.3-.5q-.8 0-1.3.4-.4.3-.4 1h-3.1q0-1 .6-1.9.6-.8 1.8-1.3 1.1-.5 2.5-.5 2.2 0 3.4 1 1.3 1.2 1.3 3.1v5q0 1.7.5 2.5v.2zm-5.7-2.1q.6 0 1.2-.3t.9-.9v-2H316q-2.3 0-2.5 1.7v.1q0 .6.4 1 .5.4 1.2.4zm15.9-2q0-.9-.6-1.4-.7-.5-2.4-1l-2.6-1q-2.7-1.5-2.7-4 0-1.2.7-2.2.8-1 2-1.6 1.4-.5 3-.5 1.8 0 3 .6 1.4.6 2.1 1.7.7 1.1.7 2.5H331q0-1-.7-1.7-.6-.6-1.9-.6-1.1 0-1.8.5t-.7 1.4q0 .7.8 1.2.8.6 2.3 1 2.7.8 4 2 1.2 1.3 1.2 3.1 0 2-1.5 3.2-1.5 1.1-4.1 1.1-1.8 0-3.3-.6-1.5-.7-2.3-1.8-.8-1.2-.8-2.7h3.3q0 2.6 3 2.6 1.2 0 1.9-.5.6-.4.6-1.3zm10 1.8q1 0 1.4-.4.6-.5.6-1.3h3q-.1 1.2-.7 2.2-.7 1-1.8 1.5-1 .5-2.4.5-2.5 0-4-1.5-1.4-1.6-1.4-4.4v-.2q0-2.7 1.5-4.3 1.4-1.6 3.9-1.6 2.2 0 3.5 1.2 1.3 1.3 1.3 3.3H343q0-.9-.6-1.4-.5-.6-1.4-.6-1 0-1.6.8-.6.8-.6 2.6v.3q0 1.8.6 2.6.5.7 1.6.7zm13.3-9.4v3H353q-1.8 0-2.3 1.1v7.6h-3.1V33h3v1.4q1-1.6 2.6-1.6l1 .1zm4.7.1v11.6h-3.1V33h3zm-3.3-3q0-.7.5-1.2.4-.4 1.2-.4.8 0 1.3.4.5.5.5 1.2t-.5 1.2q-.5.4-1.3.4t-1.2-.4q-.5-.5-.5-1.2zm16.3 8.8v.1q0 2.7-1.2 4.3-1.2 1.6-3.3 1.6-1.8 0-2.9-1.2v5.5h-3v-16h2.8l.1 1q1.2-1.3 3-1.3 2.1 0 3.3 1.6 1.2 1.6 1.2 4.4zm-3.1-.1q0-1.6-.6-2.5-.5-.9-1.6-.9-1.5 0-2 1.1v4.8q.5 1.1 2 1.1 2.2 0 2.2-3.6zm5.6-8.6h3.1v3h2v2.2h-2V41q0 .6.3 1 .2.2 1 .2h.9v2.3l-2 .2q-3.2 0-3.3-3.3v-6.2h-1.7V33h1.7v-2.9z" fill="rgb(255,191,0)"/>
    <path d="M229 33l2.2 7.2 2.2-7.2h3.3L232 46.4l-.2.6q-1 2.3-3.5 2.3l-1.3-.2v-2.3h.4q1 0 1.3-.3.5-.3.7-.9l.4-1-4-11.6h3.3zm8.3 5.9v-.2q0-1.7.6-3 .7-1.4 2-2.2 1.2-.7 2.9-.7 2.3 0 3.8 1.4 1.5 1.5 1.7 4v.7q0 2.7-1.5 4.3-1.5 1.6-4 1.6t-4-1.6q-1.5-1.6-1.5-4.4zm3 0q0 1.7.7 2.6.6.8 1.8.8 1.1 0 1.8-.8.6-.9.6-2.8 0-1.6-.6-2.5-.7-.9-1.8-.9-1.2 0-1.8.9-.6.9-.6 2.7zm17 5.7l-.1-1.2q-1.2 1.4-3.2 1.4-1.9 0-2.9-1-1-1.1-1-3.2V33h3.1v7.5q0 1.8 1.7 1.8 1.6 0 2.2-1V33h3v11.6h-2.9zM269 33v3h-1.2q-1.7 0-2.3 1.1v7.6h-3V33h2.8l.1 1.4q1-1.6 2.6-1.6l1 .1zM147 29h3.2v10.4q0 2.6-1.6 4-1.6 1.5-4.4 1.5-2.7 0-4.3-1.4-1.6-1.5-1.7-4V29h3.3v10.3q0 1.5.7 2.3.7.7 2 .7 2.8 0 2.8-2.9V29zm16.1 9.9v.1q0 2.7-1.2 4.3-1.2 1.6-3.3 1.6-1.7 0-2.8-1.2v5.5h-3.1v-16h2.9v1q1.2-1.3 3-1.3 2.2 0 3.3 1.6 1.2 1.6 1.2 4.4zm-3-.1q0-1.6-.6-2.5-.6-.9-1.7-.9-1.5 0-2 1.1v4.8q.5 1.1 2 1.1 2.2 0 2.2-3.6zm4.5.2v-.2q0-2.6 1.3-4.3 1.3-1.6 3.4-1.6 2 0 3 1.3l.1-1h2.8v11.1q0 1.6-.7 2.7t-2 1.7q-1.2.6-2.9.6-1.2 0-2.4-.5-1.3-.5-1.9-1.3l1.4-2q1.2 1.4 2.8 1.4 1.2 0 2-.7.6-.6.6-1.8v-.7q-1 1.2-2.8 1.2-2.1 0-3.4-1.6-1.3-1.6-1.3-4.3zm3.1 0q0 1.6.6 2.5.7 1 1.8 1 1.4 0 2-1.1v-5q-.6-1-2-1-1.1 0-1.7 1-.7.8-.7 2.7zm16.5-6v3H183q-1.7 0-2.3 1.1v7.6h-3V33h2.8l.1 1.4q1-1.6 2.6-1.6l1 .1zm11 11.7H192q-.3-.4-.4-1-1 1.2-2.9 1.2-1.7 0-2.8-1-1.1-1-1.1-2.4 0-1.9 1.3-2.9 1.4-1 4-1h1.4V37q0-.8-.4-1.3t-1.3-.5q-.8 0-1.2.4-.5.3-.5 1h-3q0-1 .5-1.9.7-.8 1.8-1.3t2.6-.5q2.1 0 3.4 1 1.2 1.2 1.2 3.1v5q0 1.7.5 2.5v.2zm-5.7-2.1q.7 0 1.3-.3.5-.3.8-.9v-2h-1.1q-2.4 0-2.5 1.7v.1q0 .6.4 1t1 .4zm7.1-3.8q0-2.7 1.2-4.3 1.3-1.6 3.4-1.6 1.7 0 2.8 1.3v-6h3.1v16.5h-2.8l-.2-1.2q-1.1 1.4-3 1.4-2 0-3.2-1.6-1.3-1.6-1.3-4.5zm3.1.3q0 1.6.6 2.5.6.8 1.7.8 1.4 0 2-1.2v-4.6q-.6-1.2-2-1.2-2.3 0-2.3 3.7zm15.2 5.8q-2.6 0-4.2-1.5-1.6-1.6-1.6-4.2v-.3q0-1.8.7-3.1.6-1.4 1.9-2.2 1.2-.7 2.8-.7 2.4 0 3.8 1.5 1.3 1.5 1.3 4.3v1.2h-7.4q.2 1.2 1 1.9.7.6 1.9.6 1.8 0 2.8-1.3l1.5 1.7q-.7 1-1.9 1.6-1.2.5-2.6.5zm-.4-9.5q-1 0-1.5.6-.6.7-.7 1.8h4.3v-.2q0-1-.6-1.6-.5-.6-1.5-.6z" fill="rgb(255,255,255)"/>
    <defs>
      <filter id="hYdPEqLLE5uA08TlJpPaodC9Xl5AIz9a" x="-200%" y="-200%" width="400%" height="400%" filterUnits="objectBoundingBox" color-interpolation-filters="sRGB">
        <feGaussianBlur xmlns="http://www.w3.org/2000/svg" in="SourceGraphic" stdDeviation="2.146804531419514"/>
        <feOffset xmlns="http://www.w3.org/2000/svg" dx="0" dy="0" result="pf_100_offsetBlur"/>
        <feFlood xmlns="http://www.w3.org/2000/svg" flood-color="#000000" flood-opacity="0.65"/>
        <feComposite xmlns="http://www.w3.org/2000/svg" in2="pf_100_offsetBlur" operator="in" result="pf_100_dropShadow"/>
        <feBlend xmlns="http://www.w3.org/2000/svg" in="SourceGraphic" in2="pf_100_dropShadow" mode="normal"/>
      </filter>
    </defs>
    <g filter="url(#hYdPEqLLE5uA08TlJpPaodC9Xl5AIz9a)">
      <path fill="rgb(192,158,251)" d="M597 25h168v50H597z"/>
    </g>
    <path d="M705.6 55.6q.8 0 1.9-.4v2.3q-1.1.5-2.7.5-1.8 0-2.7-1-.8-.9-.8-2.7v-5.2H700v-1.3l1.6-1 1-2.3h1.8v2.3h3v2.3h-3v5.2q0 .7.4 1 .3.3 1 .3zm14.2-5v7.2h-3v-6.4q0-2.4-1.8-2.4-1.2 0-1.8.9-.5.8-.5 2.7v5.2h-3V42.6h3v3l-.1 1.8v.8q1-1.6 3.3-1.6 1.9 0 2.9 1 1 1.1 1 3zm3-6.6q0-1.4 1.5-1.4 1.7 0 1.7 1.4 0 .7-.5 1.1-.4.4-1.2.4-1.6 0-1.6-1.5zm3 2.8v11h-3v-11h3zm10.8 7.7q0 1.7-1.2 2.6-1.2.9-3.5.9-1.2 0-2-.2l-1.6-.5V55l1.9.6q1 .3 1.8.3 1.6 0 1.6-1 0-.3-.2-.5-.2-.3-.7-.5l-1.4-.7q-1.3-.5-1.9-1-.6-.4-.9-1-.2-.6-.2-1.4 0-1.5 1.1-2.3 1.1-.8 3.2-.8 2 0 3.8.9l-.9 2.1-1.5-.5q-.7-.3-1.4-.3-1.4 0-1.4.8 0 .4.5.6l1.8 1q1.3.4 1.9.9.6.4.9 1 .3.6.3 1.4zm5.3-11l-.5 9.5H739l-.5-9.5h3.4zm-3.4 12.9q0-.9.4-1.3t1.3-.4q.8 0 1.2.4.5.5.5 1.3 0 .7-.5 1.2-.4.4-1.2.4-.8 0-1.3-.4-.4-.4-.4-1.2zM674.2 58q-1.9 0-3-1.5-1-1.5-1-4.2t1-4.2q1.1-1.5 3.1-1.5t3.2 1.6l-.2-2.1v-3.5h3v15.2H678l-.5-1.5h-.2q-1 1.7-3 1.7zm1-2.4q1.2 0 1.8-.7.5-.6.5-2.2v-.4q0-1.7-.5-2.5-.5-.7-1.8-.7-1 0-1.5.8-.6.8-.6 2.5 0 1.6.6 2.4.5.8 1.6.8zm10.6-3.3q0 1.6.5 2.4.6.9 1.8.9 1.2 0 1.7-.9.5-.8.5-2.4 0-1.6-.5-2.5-.5-.8-1.7-.8t-1.8.8q-.5.8-.5 2.5zm7.6 0q0 2.6-1.5 4.2-1.4 1.5-3.9 1.5-1.5 0-2.7-.7-1.2-.7-1.9-2-.6-1.3-.6-3 0-2.7 1.4-4.2t3.9-1.5q1.6 0 2.8.7 1.2.7 1.8 2 .7 1.3.7 3zm-65.8 5.5h-8.8V43.5h3v11.8h5.8v2.5zm6.7-9q-1 0-1.4.6-.6.6-.7 1.7h4.2q0-1.1-.6-1.7-.5-.6-1.5-.6zm.5 9.2q-2.7 0-4.2-1.5-1.4-1.5-1.4-4.1 0-2.8 1.3-4.3 1.4-1.5 3.8-1.5 2.3 0 3.6 1.4 1.3 1.3 1.3 3.6V53h-7q0 1.3.7 2t2 .7q1 0 1.9-.2l1.8-.6v2.3q-.8.4-1.7.6-.9.2-2.1.2zm11.4-2.4q.8 0 2-.4v2.3q-1.2.5-2.8.5-1.8 0-2.6-1-.8-.9-.8-2.7v-5.2h-1.5v-1.3l1.7-1 .8-2.3h2v2.3h3v2.3h-3v5.2q0 .7.3 1 .3.3 1 .3zm3.9-12.1h2.7l-.4 5.1h-2l-.3-5.1zm13.2 11q0 1.7-1.2 2.6-1.2.9-3.5.9-1.2 0-2-.2l-1.6-.5V55l1.9.6q1 .3 1.8.3 1.6 0 1.6-1 0-.3-.2-.5-.2-.3-.7-.5L658 53q-1.3-.5-1.9-1-.6-.4-.9-1-.2-.6-.2-1.4 0-1.5 1.1-2.3 1.1-.8 3.2-.8 2 0 3.8.9l-.9 2.1-1.5-.5q-.7-.3-1.4-.3-1.4 0-1.4.8 0 .4.5.6l1.8 1q1.3.4 1.9.9.6.4.9 1 .3.6.3 1.4z" fill="rgb(87,18,206)"/>
  </g>
</svg>
