<?xml version="1.0" encoding="UTF-8" standalone="no"?>
<!--Generator: Gravit.io-->
<svg xmlns="http://www.w3.org/2000/svg" style="isolation:isolate" viewBox="0 0 500 155" width="500pt" height="155pt">
  <defs>
    <clipPath id="_clipPath_bflK2qE4giQSx07agFNXPfSDHhHfMfDK">
      <path d="M0 0h500v155H0z"/>
    </clipPath>
  </defs>
  <g clip-path="url(#_clipPath_bflK2qE4giQSx07agFNXPfSDHhHfMfDK)">
    <path style="fill:rgb(67,31,134)" d="M0 0h500v155H0z"/>
    <g fill="rgb(97,218,251)">
      <path d="M100 77.5c0-5.6-7-10.8-17.7-14.1 2.5-10.9 1.4-19.6-3.4-22.3-1.1-.7-2.4-1-3.8-1V44a4 4 0 012 .5c2.2 1.3 3.2 6.4 2.5 13-.2 1.5-.5 3.2-1 5-3.3-.8-7-1.5-10.8-1.9-2.3-3.2-4.7-6-7.1-8.6 5.6-5.1 10.8-8 14.4-8v-3.8c-4.7 0-10.9 3.4-17.1 9.2-6.3-5.8-12.4-9.1-17.1-9.1V44c3.5 0 8.8 2.8 14.3 8a80.8 80.8 0 00-7 8.5c-3.9.4-7.6 1-11 1.9l-.8-5c-.8-6.5.2-11.6 2.5-13 .5-.3 1.2-.4 2-.4v-3.8c-1.5 0-2.8.3-4 1-4.7 2.7-5.8 11.4-3.3 22.2C22.9 66.7 16 72 16 77.5c0 5.6 7 10.8 17.7 14.1-2.5 11-1.4 19.6 3.4 22.3 1.1.7 2.4 1 3.9 1 4.7 0 10.8-3.4 17-9.2 6.3 5.8 12.5 9.1 17.2 9.1 1.4 0 2.7-.3 3.8-1 4.9-2.7 6-11.3 3.5-22.2 10.6-3.3 17.5-8.5 17.5-14zM77.7 66.1a77 77 0 01-2.3 6.8 81.2 81.2 0 00-4.7-8.2c2.4.4 4.8.8 7 1.4zM70 84.3a91 91 0 01-4.2 6.6 89.3 89.3 0 01-15.4 0 94.2 94.2 0 01-7.7-13.3 89.2 89.2 0 017.7-13.4 89 89 0 0115.4 0 94.2 94.2 0 017.7 13.3c-1 2.3-2.3 4.6-3.5 6.8zm5.5-2.2c1 2.3 1.7 4.6 2.4 6.8-2.3.6-4.6 1-7.1 1.4a95.2 95.2 0 004.7-8.2zM58 100.4a70.6 70.6 0 01-4.7-5.5 105.3 105.3 0 009.4 0c-1.5 2-3 3.8-4.7 5.5zM45.3 90.3a77 77 0 01-7-1.4 77 77 0 012.3-6.7 81.2 81.2 0 004.7 8zm12.6-35.6a71 71 0 014.8 5.4 105.3 105.3 0 00-9.5 0c1.6-2 3.2-3.8 4.7-5.4zm-12.6 10a93.6 93.6 0 00-4.7 8.2c-1-2.3-1.7-4.6-2.4-6.8l7-1.4zM29.8 86.2c-6-2.6-10-6-10-8.7 0-2.7 4-6 10-8.7 1.5-.6 3-1.2 4.7-1.7 1 3.4 2.3 6.9 3.9 10.4-1.6 3.6-2.9 7-3.8 10.4a52 52 0 01-4.8-1.7zm9.2 24.4c-2.3-1.3-3.3-6.4-2.6-13 .2-1.5.5-3.2 1-5 3.3.9 7 1.5 10.8 2 2.3 3 4.7 6 7.1 8.5-5.6 5.2-10.8 8-14.4 8a4 4 0 01-2-.5zm40.6-13c.8 6.5-.2 11.6-2.5 13-.5.3-1.2.4-2 .4-3.5 0-8.8-2.8-14.3-8 2.4-2.5 4.8-5.3 7-8.5 3.9-.4 7.6-1 11-1.9l.8 5zm6.6-11.4c-1.5.6-3 1.2-4.7 1.7-1-3.4-2.3-6.8-3.9-10.4 1.6-3.6 2.8-7 3.8-10.4l4.8 1.7c6 2.6 10 6 10 8.7 0 2.7-4 6.1-10 8.7zM40.8 40.2z"/>
      <circle vector-effect="non-scaling-stroke" cx="57.98287863095729" cy="77.50855885570601" r="7.824704443538522"/>
      <path d="M75 40.1z"/>
    </g>
    <path d="M453.9 112.2l-.5 12.3h-2.9l-.4-12.3h3.8zm-2 14.3q1 0 1.5.5.6.5.6 1.3t-.6 1.4q-.5.5-1.4.5-.9 0-1.4-.5-.6-.6-.6-1.4 0-.8.6-1.3.5-.5 1.4-.5z" fill="rgb(255,255,255)"/>
    <path d="M414 130h-6.9v-17.8h6.3q3.2 0 4.9 1.3 1.6 1.2 1.6 3.6 0 1.3-.6 2.3-.7 1-1.9 1.4 1.4.4 2.2 1.4.8 1 .8 2.6 0 2.5-1.7 3.8-1.6 1.4-4.6 1.4zm.2-7.7h-3.4v4.7h3.1q1.3 0 2-.6.8-.6.8-1.7 0-2.4-2.5-2.4zm-3.4-7.1v4.5h2.7q2.8 0 2.8-2.2 0-1.3-.7-1.8t-2.2-.5h-2.6zm11.5 8.2v-.1q0-2 .8-3.5.7-1.6 2.2-2.4 1.4-.9 3.3-.9 2.6 0 4.3 1.7 1.7 1.6 2 4.4v1q0 3-1.8 4.8-1.7 1.8-4.5 1.8-2.9 0-4.6-1.8-1.7-1.8-1.7-5zm3.5.1q0 1.9.8 2.9.7 1 2 1t2-1q.7-1 .7-3.1 0-1.9-.7-2.9t-2-1q-1.3 0-2 1-.8 1-.8 3.1zm18.4 2.8q0-.6-.7-1-.6-.4-2-.6-4.8-1-4.8-4 0-1.8 1.5-3t3.8-1.2q2.5 0 4 1.2t1.5 3.1H444q0-.8-.5-1.3-.5-.4-1.5-.4-.9 0-1.4.4-.5.4-.5 1t.6 1q.6.3 1.9.5l2.2.6q2.8 1 2.8 3.6 0 1.8-1.6 3-1.5 1-4 1-1.6 0-3-.6-1.2-.5-2-1.6-.7-1-.7-2.2h3.4q0 1 .7 1.4.6.5 1.7.5 1 0 1.5-.4.6-.3.6-1zm-80.2-14l3 12.6 2.3-12.7h3.7l-4 17.8h-3.7l-2.9-11.9-2.9 11.9H356l-4-17.8h3.7l2.4 12.6 2.9-12.6h3zm16.4 18q-3 0-4.7-1.8-1.9-1.8-1.9-4.8v-.3q0-2 .8-3.6t2.2-2.4q1.4-.9 3.2-.9 2.7 0 4.3 1.7 1.5 1.8 1.5 4.9v1.4h-8.4q.2 1.3 1 2.1 1 .8 2.2.8 2 0 3.2-1.5l1.7 2q-.7 1-2.1 1.7-1.4.6-3 .6zm-.4-11q-1 0-1.7.8-.7.7-.8 2h4.9v-.3q0-1.1-.7-1.8-.6-.6-1.7-.6zm15 7q0-.6-.7-1-.6-.4-2-.6-4.7-1-4.7-4 0-1.8 1.4-3 1.5-1.2 3.8-1.2 2.6 0 4 1.2 1.6 1.2 1.6 3.1h-3.5q0-.8-.5-1.3-.5-.4-1.6-.4-.9 0-1.3.4-.5.4-.5 1t.5 1q.6.3 1.9.5l2.2.6q2.8 1 2.8 3.6 0 1.8-1.5 3-1.6 1-4 1-1.7 0-3-.6-1.3-.5-2-1.6-.7-1-.7-2.2h3.3q0 1 .7 1.4.6.5 1.7.5 1 0 1.6-.4.5-.3.5-1z" fill="rgb(255,191,0)"/>
    <path d="M308.3 116.8l2.4 8.4 1.7-8.4h3.4l-3.4 13.2h-3l-2.4-8.3-2.5 8.3h-3l-3.3-13.2h3.4l1.7 8.4 2.4-8.4h2.6zm13 0V130h-3.6v-13.2h3.6zm-3.8-3.4q0-.8.6-1.3.5-.6 1.4-.6.9 0 1.4.6.6.5.6 1.3t-.6 1.3q-.5.5-1.4.5-.9 0-1.4-.5-.6-.5-.6-1.3zm7.4.1h3.5v3.3h2.3v2.6h-2.3v6.6q0 .7.3 1 .3.3 1 .3h1v2.6q-1 .3-2 .3-3.8 0-3.8-3.7v-7.1h-2v-2.6h2v-3.3zm11.2-2.3v7q1.4-1.7 3.5-1.7 4.3 0 4.3 5v8.5h-3.5v-8.4q0-1.1-.5-1.6-.5-.6-1.6-.6-1.5 0-2.2 1.2v9.4h-3.6v-18.8h3.6zM181.6 130H178l-.3-1.2q-1.3 1.4-3.4 1.4-1.9 0-3.2-1-1.2-1.2-1.2-3 0-2 1.5-3.1 1.6-1.2 4.5-1.2h1.6v-.7q0-1-.4-1.5-.5-.5-1.5-.5t-1.4.4q-.5.4-.5 1.2H170q0-1.2.8-2.2.7-1 2-1.5 1.2-.6 2.9-.6 2.4 0 3.8 1.3 1.5 1.2 1.5 3.4v5.7q0 2 .5 2.9v.2zm-6.5-2.5q.8 0 1.5-.3.6-.4 1-1V124h-1.4q-2.6 0-2.8 1.8v.2q0 .7.4 1.1.5.4 1.3.4zm13.2 2.5h-3.6v-10.6h-2v-2.6h2v-1.1q0-2.3 1.3-3.5 1.3-1.2 3.6-1.2l1.8.2v2.8l-1.1-.1q-2 0-2 1.8v1h2.6v2.7h-2.6V130zm5.1-16.5h3.6v3.3h2.2v2.6H197v6.6q0 .7.2 1 .3.3 1.1.3h1v2.6q-1 .3-2 .3-3.8 0-3.9-3.7v-7.1h-1.9v-2.6h2v-3.3zm13.9 16.7q-3 0-4.8-1.7-1.8-1.8-1.8-4.8v-.3q0-2 .8-3.6.7-1.6 2.2-2.4 1.4-.9 3.2-.9 2.7 0 4.2 1.7 1.6 1.8 1.6 4.9v1.4h-8.4q.2 1.3 1 2.1.9.8 2.2.8 2 0 3.2-1.5l1.7 2q-.8 1-2.1 1.7-1.4.6-3 .6zm-.4-10.8q-1 0-1.7.7t-.9 2h5v-.3q0-1.1-.7-1.8-.6-.6-1.7-.6zm15.3-2.7v3.4l-1.3-.1q-2 0-2.7 1.3v8.7h-3.5v-13.2h3.3l.1 1.6q1-1.9 3-1.9.6 0 1 .2zm1.5 0h3.4v1.6q1.5-1.8 3.9-1.8 2 0 3.1 1.3 1 1.2 1 3.7v8.5h-3.5v-8.5q0-1-.5-1.6-.5-.5-1.6-.5-1.5 0-2.2 1.3v9.3h-3.6v-13.2zm13.6 6.7v-.1q0-2 .7-3.5.8-1.6 2.2-2.4 1.4-.9 3.3-.9 2.7 0 4.4 1.7 1.7 1.6 1.9 4.4v1q0 3-1.7 4.8-1.7 1.8-4.6 1.8-2.8 0-4.5-1.8-1.7-1.8-1.7-5zm3.5.1q0 1.9.7 2.9t2 1q1.3 0 2-1 .8-1 .8-3.1 0-1.9-.8-2.9-.7-1-2-1t-2 1q-.7 1-.7 3.1zm10.6 0v-.2q0-2 .8-3.5.7-1.6 2.1-2.4 1.5-.9 3.3-.9 2.7 0 4.4 1.7 1.7 1.6 1.9 4.4v1q0 3-1.7 4.8-1.7 1.8-4.5 1.8-2.9 0-4.6-1.8-1.7-1.8-1.7-5zm3.5 0q0 1.9.7 2.9.8 1 2 1 1.3 0 2-1 .8-1 .8-3.1 0-1.9-.7-2.9-.8-1-2-1-1.3 0-2 1-.8 1-.8 3.1zm11.1-6.7h3.3l.1 1.5q1.5-1.8 3.8-1.8 2.1 0 3.2 1.3 1 1.2 1 3.7v8.5H274v-8.5q0-1-.5-1.6-.5-.5-1.6-.5-1.5 0-2.3 1.3v9.3H266v-13.2zm21.2 9.5q0-.6-.6-1t-2-.6q-4.8-1-4.8-4 0-1.8 1.5-3t3.8-1.2q2.5 0 4 1.2t1.5 3.1h-3.5q0-.8-.5-1.3-.5-.4-1.5-.4-.9 0-1.4.4-.5.4-.5 1t.6 1q.5.3 1.9.5l2.2.6q2.8 1 2.8 3.6 0 1.8-1.6 3-1.5 1-4 1-1.6 0-3-.6-1.2-.5-2-1.6-.7-1-.7-2.2h3.4q0 1 .7 1.4.6.5 1.7.5 1 0 1.5-.4.5-.3.5-1zm-146.7-2.9v-.1q0-2 .8-3.5.7-1.6 2.1-2.4 1.5-.9 3.3-.9 2.7 0 4.4 1.7 1.7 1.6 1.9 4.4v1q0 3-1.7 4.8-1.7 1.8-4.5 1.8-2.9 0-4.6-1.8-1.7-1.8-1.7-5zm3.5.1q0 1.9.7 2.9t2 1q1.3 0 2-1 .8-1 .8-3.1 0-1.9-.7-2.9-.8-1-2-1-1.4 0-2 1-.8 1-.8 3.1zm15.7 6.5h-3.5v-10.6h-2v-2.6h2v-1.1q0-2.3 1.2-3.5 1.3-1.2 3.6-1.2l1.8.2v2.8l-1.1-.1q-2 0-2 1.8v1h2.6v2.7h-2.6V130zm237.7-32q1 0 1.6-.4.6-.6.6-1.5h3.3q0 1.4-.7 2.5t-2 1.7q-1.2.6-2.7.6-2.9 0-4.5-1.8t-1.6-5V94q0-3 1.6-4.8 1.6-1.9 4.4-1.9 2.5 0 4 1.5 1.5 1.4 1.5 3.7h-3.3q0-1-.6-1.7-.6-.6-1.6-.6-1.3 0-1.9.9-.6.9-.6 3v.3q0 2 .6 2.9.6.9 1.9.9zm7-3.9V94q0-2 .8-3.5.7-1.6 2.1-2.4 1.5-.9 3.3-.9 2.7 0 4.4 1.7 1.7 1.6 1.9 4.4v1q0 3-1.7 4.8-1.7 1.8-4.5 1.8-2.9 0-4.6-1.8-1.7-1.8-1.7-5zm3.5.1q0 1.9.7 2.9t2 1q1.3 0 2-1 .8-1 .8-3.1 0-1.9-.7-2.9-.8-1-2-1-1.4 0-2 1-.8 1-.8 3.1zm19.2 6.5l-.1-1.3q-1.3 1.5-3.6 1.5-2.1 0-3.3-1.2-1-1.2-1.1-3.6v-8.6h3.5V96q0 2 1.9 2 1.8 0 2.5-1.2v-9.3h3.5v13.2h-3.3zM445 94v.2q0 3-1.4 4.9-1.4 1.8-3.8 1.8-2 0-3.2-1.4v6.3h-3.5V87.5h3.2l.2 1.3q1.2-1.6 3.3-1.6 2.5 0 3.8 1.8 1.4 1.9 1.4 5zm-3.6 0q0-1.9-.6-2.9-.7-1-2-1-1.6 0-2.2 1.3v5.4q.6 1.3 2.3 1.3 2.5 0 2.5-4.1zm9.5-12v18.7h-3.6V81.9h3.6zm9 19q-3 0-4.8-1.8-1.8-1.8-1.8-4.8v-.3q0-2 .8-3.6.7-1.6 2.1-2.4 1.5-.9 3.3-.9 2.7 0 4.2 1.8 1.6 1.7 1.6 4.8v1.4h-8.4q.1 1.3 1 2.1t2.2.8q2 0 3.2-1.5l1.7 2q-.8 1-2.1 1.7-1.4.6-3 .6zm-.4-10.9q-1.1 0-1.8.7-.6.7-.8 2h5v-.2q-.1-1.2-.7-1.9-.6-.6-1.7-.6zm-76 10.6h-3.6l-.3-1.2q-1.3 1.4-3.4 1.4-1.9 0-3.2-1-1.2-1.2-1.2-3 0-2 1.5-3.1 1.6-1.2 4.5-1.2h1.6V92q0-1-.4-1.5-.5-.5-1.5-.5t-1.4.4q-.5.4-.5 1.2H372q0-1.2.8-2.2.7-1 2-1.5 1.3-.6 2.9-.6 2.4 0 3.8 1.3 1.5 1.2 1.5 3.4v5.7q0 2 .5 2.9v.2zm-6.5-2.5q.8 0 1.5-.3.6-.4 1-1v-2.2H378q-2.6 0-2.8 1.8v.2q0 .7.4 1.1.5.4 1.3.4zm-52.5-10.7h3.5v14q0 2.1-1.2 3.3-1.1 1.2-3.3 1.2-1 0-1.7-.2V103l1 .1q1.7 0 1.7-1.7v-14zm-.3-3.4q0-.8.5-1.3.5-.6 1.5-.6.9 0 1.4.6.5.5.5 1.3t-.5 1.3q-.5.5-1.4.5-1 0-1.5-.5t-.5-1.3zm14.6 16.6l-.1-1.3q-1.3 1.5-3.6 1.5-2.2 0-3.3-1.2-1.1-1.2-1.1-3.6v-8.6h3.5V96q0 2 1.9 2 1.8 0 2.5-1.2v-9.3h3.5v13.2h-3.3zm13.1-3.7q0-.6-.6-1l-2-.6q-4.8-1-4.8-4 0-1.8 1.5-3 1.4-1.2 3.8-1.2 2.5 0 4 1.2t1.5 3.1h-3.5q0-.8-.5-1.3-.5-.4-1.5-.4t-1.4.4q-.5.4-.5 1t.5 1q.6.3 2 .6l2.1.5q2.8 1 2.8 3.6 0 1.8-1.5 3-1.6 1-4 1-1.7 0-3-.6-1.3-.5-2-1.6-.7-1-.7-2.2h3.3q0 1 .7 1.4.7.5 1.8.5 1 0 1.5-.3.5-.4.5-1zm6.4-12.8h3.5v3.3h2.3V90h-2.3v6.6q0 .7.3 1 .3.3 1 .3h1.1v2.6q-1 .3-2.1.3-3.7 0-3.8-3.7V90h-2v-2.6h2v-3.3zm-57.2 3.3v13.2h-3.5V87.5h3.5zm-3.7-3.4q0-.8.5-1.3.6-.6 1.5-.6t1.4.6q.5.5.5 1.3t-.5 1.3q-.5.5-1.4.5-1 0-1.5-.5t-.5-1.3zm6.6 3.4h3.3l.1 1.5q1.4-1.8 3.8-1.8 2.1 0 3.1 1.3 1 1.2 1 3.7v8.5h-3.5v-8.5q0-1-.4-1.6-.5-.5-1.7-.5-1.5 0-2.2 1.3v9.3H304V87.5z" fill="rgb(255,255,255)"/>
    <path d="M272 87.5h3.6v14q0 2.1-1.2 3.3-1.1 1.2-3.3 1.2-1 0-1.8-.2V103l1.1.1q1.6 0 1.6-1.7v-14zm-.2-3.4q0-.8.5-1.3.5-.6 1.4-.6 1 0 1.5.6.5.5.5 1.3t-.5 1.3q-.6.5-1.5.5t-1.4-.5q-.5-.5-.5-1.3zm13.7 13q0-.7-.7-1-.6-.4-2-.7-4.7-1-4.7-4 0-1.8 1.4-3 1.5-1.2 3.9-1.2 2.5 0 4 1.2t1.5 3.1h-3.5q0-.8-.5-1.3-.5-.4-1.6-.4-.9 0-1.3.4-.5.4-.5 1t.5 1q.6.3 1.9.6l2.2.5q2.8 1 2.8 3.6 0 1.8-1.5 3-1.6 1-4 1-1.7 0-3-.6-1.3-.5-2-1.6-.7-1-.7-2.2h3.3q0 1 .7 1.4.7.5 1.7.5t1.6-.3q.5-.4.5-1zm-75.1 3.6l-3.4-6.5h-2.9v6.5h-3.6V82.9h6.6q3.1 0 4.8 1.4 1.7 1.4 1.7 4 0 1.8-.8 3-.7 1.2-2.3 2l3.8 7.2v.2h-4zM204 85.9v5.3h3q1.3 0 2.1-.7t.8-2q0-1.2-.8-1.9-.7-.7-2.1-.7h-3zm18.2 15q-3 0-4.8-1.7-1.8-1.8-1.8-4.8v-.3q0-2 .8-3.6.7-1.6 2.1-2.4 1.5-.9 3.3-.9 2.7 0 4.2 1.8 1.6 1.7 1.6 4.8v1.4h-8.4q.1 1.3 1 2.1t2.2.8q2 0 3.2-1.5l1.7 2q-.8 1-2.1 1.7-1.4.6-3 .6zm-.4-10.8q-1.1 0-1.8.7-.6.7-.8 2h5v-.2q-.1-1.2-.7-1.9-.6-.6-1.7-.6zm19 10.6h-3.6l-.3-1.2q-1.3 1.4-3.3 1.4-2 0-3.3-1-1.2-1.2-1.2-3 0-2 1.5-3.1 1.6-1.2 4.5-1.2h1.6V92q0-1-.4-1.5-.5-.5-1.5-.5-.9 0-1.4.4-.5.4-.5 1.2h-3.5q0-1.2.7-2.2.7-1 2-1.5 1.3-.6 2.9-.6 2.4 0 3.8 1.3 1.5 1.2 1.5 3.4v5.7q0 2 .5 2.9v.2zm-6.5-2.5q.8 0 1.5-.3.6-.4 1-1v-2.2h-1.4q-2.6 0-2.8 1.8v.2q0 .7.5 1.1.4.4 1.2.4zm14.2-.1q1 0 1.6-.5.6-.6.6-1.5h3.3q0 1.4-.7 2.5t-2 1.7q-1.2.6-2.8.6-2.8 0-4.4-1.8-1.7-1.8-1.7-5V94q0-3 1.7-4.8 1.6-1.9 4.4-1.9 2.5 0 4 1.5 1.5 1.4 1.5 3.7h-3.3q0-1-.6-1.7-.6-.6-1.6-.6-1.3 0-1.9.9-.6.9-.6 3v.3q0 2 .6 2.9.6.9 1.9.9zm8.2-13.9h3.6v3.3h2.2V90h-2.2v6.6q0 .7.2 1 .3.3 1.1.3h1v2.6q-1 .3-2 .3-3.8 0-3.9-3.7V90H255v-2.6h2v-3.3zm8 14.8q0-.9.5-1.4.6-.5 1.4-.5 1 0 1.5.5.6.5.6 1.4 0 .8-.6 1.3t-1.4.5q-1 0-1.5-.5t-.5-1.3z" fill="rgb(97,218,251)"/>
    <path d="M134.3 83v14.8h7.8v2.9h-11.4V82.9h3.6zm15.7 18q-2.9 0-4.7-1.8-1.8-1.8-1.8-4.8v-.3q0-2 .8-3.6.7-1.6 2.1-2.4 1.4-.9 3.2-.9 2.8 0 4.3 1.8 1.6 1.7 1.6 4.8v1.4H147q.1 1.3 1 2.1t2.2.8q2 0 3.2-1.5l1.7 2q-.8 1-2.2 1.7-1.3.6-3 .6zm-.4-10.9q-1 0-1.7.7-.6.7-.8 2h4.9v-.2q0-1.2-.6-1.9-.6-.6-1.8-.6zm19 10.6h-3.5l-.3-1.2q-1.3 1.4-3.4 1.4-1.9 0-3.2-1-1.3-1.2-1.3-3 0-2 1.6-3.1 1.6-1.2 4.5-1.2h1.6V92q0-1-.4-1.5-.5-.5-1.5-.5t-1.4.4q-.5.4-.5 1.2h-3.6q0-1.2.7-2.2.8-1 2-1.5 1.3-.6 3-.6 2.4 0 3.8 1.3 1.5 1.2 1.5 3.4v5.7q0 2 .5 2.9v.2zm-6.4-2.5q.8 0 1.5-.3.6-.4 1-1v-2.2h-1.4q-2.6 0-2.8 1.8v.2q0 .7.4 1.1.5.4 1.3.4zm16.1-10.8v3.4l-1.3-.1q-2 0-2.6 1.4v8.6h-3.5V87.5h3.3l.1 1.6q1-1.9 3-1.9l1 .2zm1.6 0h3.3l.2 1.6q1.4-1.8 3.7-1.8 2.1 0 3.2 1.3 1 1.2 1 3.7v8.5h-3.5v-8.5q0-1-.5-1.6-.5-.5-1.6-.5-1.5 0-2.3 1.3v9.3H180V87.5zm234.3-49q0-.6-.7-1-.6-.3-2-.6-4.7-1-4.7-4 0-1.8 1.4-3 1.5-1.2 3.8-1.2 2.6 0 4 1.2 1.6 1.2 1.6 3.1H414q0-.7-.4-1.2-.5-.5-1.6-.5-.9 0-1.3.4-.5.4-.5 1t.5 1q.6.3 1.9.6 1.3.2 2.2.6 2.8 1 2.8 3.5 0 1.8-1.5 3-1.6 1-4 1-1.7 0-3-.5-1.3-.6-2-1.7-.7-1-.7-2.2h3.3q0 1 .7 1.4.6.5 1.7.5 1 0 1.6-.3.5-.4.5-1zm13.9 3.7l-3.4-5.3-1.3 1.3v4H420V23.3h3.5v10.4l.7-.8 3.4-4h4.2l-4.8 5.5 5.2 7.7h-4zm8.9-13.2V42h-3.6V28.9h3.6zm-3.8-3.4q0-.8.5-1.3.6-.5 1.5-.5t1.4.5q.6.5.6 1.3t-.6 1.3q-.5.5-1.4.5-.9 0-1.4-.5-.6-.5-.6-1.3zm10.4-2.1V42H440V23.3h3.6zm6.6 0V42h-3.5V23.3h3.5zm10 15q0-.6-.6-1-.6-.3-2-.6-4.7-1-4.7-4 0-1.8 1.4-3 1.5-1.2 3.8-1.2 2.6 0 4 1.2 1.6 1.2 1.6 3.1H460q0-.7-.4-1.2-.5-.5-1.6-.5-.9 0-1.4.4-.4.4-.4 1t.5 1q.6.3 1.9.6 1.3.2 2.2.6 2.8 1 2.8 3.5 0 1.8-1.5 3-1.6 1-4 1-1.7 0-3-.5-1.3-.6-2-1.7-.8-1-.8-2.2h3.4q0 1 .7 1.4.6.5 1.7.5 1 0 1.6-.3.5-.4.5-1zm6 2q0-.9.5-1.4.6-.5 1.4-.5 1 0 1.5.5t.5 1.4q0 .8-.5 1.3-.6.5-1.5.5-.8 0-1.4-.5-.5-.5-.5-1.3z" fill="rgb(255,255,255)"/>
    <path d="M288.5 36.6V24.3h3.6v12.3q0 1.7-.7 3-.8 1.3-2.1 2-1.4.7-3.1.7-2.8 0-4.4-1.4-1.6-1.4-1.6-4h3.7q0 1.3.6 1.9.5.6 1.7.6 1 0 1.7-.7.6-.7.6-2zm17.8 5.5h-3.6l-.3-1.2q-1.3 1.4-3.4 1.4-2 0-3.2-1-1.3-1.2-1.3-3 0-2 1.6-3.1 1.5-1.2 4.5-1.2h1.6v-.7q0-1-.5-1.5-.4-.5-1.4-.5-1 0-1.4.4-.6.4-.6 1.2h-3.5q0-1.2.7-2.2.7-1 2-1.5 1.3-.6 3-.6 2.4 0 3.8 1.3 1.4 1.2 1.4 3.4V39q0 2 .6 2.9v.2zm-6.5-2.5q.8 0 1.4-.3.7-.3 1-1v-2.2H301q-2.7 0-2.8 1.8v.2q0 .7.4 1.1.5.4 1.3.4zm11-10.7l2.4 8.9 2.5-9h3.7l-4.5 13.3h-3.4l-4.4-13.2h3.7zM331.9 42h-3.5q-.3-.5-.4-1.2-1.3 1.4-3.3 1.4-2 0-3.2-1-1.3-1.2-1.3-3 0-2 1.6-3.1 1.5-1.2 4.5-1.2h1.6v-.7q0-1-.5-1.5t-1.5-.5q-.9 0-1.4.4-.5.4-.5 1.2h-3.5q0-1.2.7-2.2.7-1 2-1.5 1.3-.6 3-.6 2.3 0 3.8 1.3 1.4 1.2 1.4 3.4V39q0 2 .5 2.9v.2zm-6.4-2.5q.7 0 1.4-.3t1-1v-2.2h-1.3q-2.7 0-2.9 1.8v.2q0 .7.5 1.1.5.4 1.3.4zm18-2.2q0-1-.7-1.6-.7-.5-2.6-1.1-1.9-.6-3-1.2-3-1.7-3-4.4 0-1.5.8-2.6t2.3-1.8q1.5-.6 3.4-.6 2 0 3.4.7 1.5.7 2.3 2 .9 1.2.9 2.8h-3.7q0-1.2-.8-2-.8-.6-2.1-.6-1.4 0-2.1.6-.8.5-.8 1.5 0 .8.9 1.4.9.6 2.6 1.1 3 1 4.5 2.3 1.4 1.4 1.4 3.5 0 2.3-1.7 3.6-1.7 1.3-4.7 1.3-2 0-3.7-.7-1.7-.8-2.6-2-.9-1.4-.9-3h3.7q0 2.9 3.5 2.9 1.3 0 2-.6.8-.5.8-1.5zm11.5 2.1q1 0 1.6-.5.6-.6.6-1.5h3.3q0 1.4-.7 2.5t-2 1.7q-1.2.6-2.8.6-2.8 0-4.4-1.8-1.7-1.8-1.7-5v-.2q0-3 1.7-4.8 1.6-1.9 4.4-1.9 2.5 0 4 1.5 1.5 1.4 1.5 3.7h-3.3q0-1-.6-1.7-.6-.6-1.6-.6-1.3 0-1.9.9-.6.9-.6 3v.3q0 2 .6 3 .6.8 1.9.8zm15-10.7v3.4l-1.3-.1q-2 0-2.6 1.4V42h-3.6V28.9h3.4v1.6q1.1-1.9 3-1.9.6 0 1.1.2zm5.4 0v13.3h-3.6V28.9h3.6zm-3.8-3.3q0-.8.6-1.3.5-.5 1.4-.5 1 0 1.4.5.6.5.6 1.3t-.6 1.3q-.5.5-1.4.5-.9 0-1.4-.5-.6-.5-.6-1.3zm18.6 10v.1q0 3-1.4 5-1.4 1.7-3.8 1.7-2 0-3.2-1.3v6.2h-3.5V28.9h3.3v1.3q1.4-1.6 3.4-1.6 2.5 0 3.8 1.9 1.4 1.8 1.4 5zm-3.6-.1q0-1.9-.6-2.9-.7-1-2-1-1.6 0-2.2 1.3v5.4q.7 1.3 2.3 1.3 2.5 0 2.5-4.1zm6.5-9.8h3.5V29h2.2v2.6h-2.2V38q0 .7.3 1 .2.3 1 .3h1V42q-1 .3-2 .3-3.8 0-3.8-3.7v-7.1h-2v-2.6h2v-3.3z" fill="rgb(255,191,0)"/>
    <path d="M227.7 28.9l2.5 8.2 2.4-8.2h3.8l-5.3 15.3-.3.6q-1.2 2.6-3.9 2.6l-1.6-.2v-2.7h.6q1 0 1.5-.3t.7-1l.5-1-4.7-13.3h3.8zm9.4 6.6v-.1q0-2 .7-3.5.8-1.6 2.2-2.4 1.4-.9 3.3-.9 2.7 0 4.4 1.7 1.7 1.6 1.9 4.4v1q0 3-1.7 4.8-1.7 1.8-4.6 1.8-2.8 0-4.5-1.8-1.7-1.8-1.7-5zm3.5.1q0 2 .7 3 .7.9 2 .9t2-1q.8-1 .8-3.1 0-1.9-.8-2.9-.7-1-2-1t-2 1q-.7 1-.7 3.1zm19.2 6.5l-.1-1.3q-1.3 1.5-3.6 1.5-2.2 0-3.3-1.2-1.1-1.2-1.1-3.6V29h3.5v8.5q0 2 1.9 2 1.8 0 2.4-1.2V29h3.6V42h-3.3zm13.4-13.3v3.4l-1.3-.1q-2 0-2.6 1.4V42h-3.6V28.9h3.4v1.6q1.1-1.9 3-1.9.6 0 1.1.2zm-138.7-4.5h3.7V36q0 3-1.9 4.6-1.8 1.7-5 1.7-3 0-4.9-1.6-1.8-1.7-1.9-4.5V24.3h3.7v11.8q0 1.7.8 2.5.9.8 2.3.8 3.1 0 3.2-3.2V24.3zm18.3 11.1v.2q0 3-1.4 5-1.4 1.7-3.7 1.7-2 0-3.2-1.3v6.2h-3.6V28.9h3.3l.1 1.3q1.3-1.6 3.4-1.6 2.4 0 3.8 1.9 1.3 1.8 1.3 5zm-3.5 0q0-1.9-.7-2.9-.6-1-1.9-1-1.6 0-2.2 1.3v5.4q.6 1.3 2.3 1.3 2.5 0 2.5-4.1zm5.2.1v-.1q0-3 1.4-4.9 1.5-1.9 4-1.9 2.1 0 3.3 1.5l.2-1.2h3.2v12.8q0 1.7-.8 3t-2.2 2q-1.5.6-3.4.6-1.4 0-2.8-.6t-2.1-1.5l1.6-2.1q1.3 1.5 3.2 1.5 1.4 0 2.1-.8.8-.7.8-2.1V41q-1.2 1.3-3.2 1.3-2.4 0-3.8-1.8-1.5-1.9-1.5-5zm3.5.2q0 1.7.7 2.8.8 1 2 1 1.6 0 2.3-1.2v-5.6q-.7-1.2-2.3-1.2-1.2 0-2 1-.7 1-.7 3.2zm18.7-6.9v3.4l-1.3-.1q-2 0-2.6 1.4V42h-3.5V28.9h3.3l.1 1.6q1-1.9 3-1.9l1 .2zm12.5 13.3h-3.5q-.3-.5-.4-1.2-1.3 1.4-3.3 1.4-2 0-3.2-1-1.3-1.2-1.3-3 0-2 1.6-3.1 1.5-1.2 4.5-1.2h1.6v-.7q0-1-.5-1.5t-1.5-.5q-.9 0-1.4.4-.5.4-.5 1.2h-3.5q0-1.2.7-2.2.7-1 2-1.5 1.3-.6 3-.6 2.3 0 3.8 1.3 1.4 1.2 1.4 3.4V39q0 2 .5 2.9v.2zm-6.4-2.5q.7 0 1.4-.3t1-1v-2.2h-1.3q-2.7 0-2.9 1.8v.2q0 .7.5 1.1.5.4 1.3.4zm8-4.2q0-3 1.5-5 1.3-1.8 3.8-1.8 1.9 0 3.1 1.5v-6.8h3.6v18.8h-3.2l-.2-1.4q-1.3 1.6-3.4 1.6-2.3 0-3.7-1.8-1.4-1.8-1.4-5.1zm3.6.3q0 1.8.7 2.8.6 1 1.8 1 1.7 0 2.3-1.4V33q-.6-1.4-2.2-1.4-2.6 0-2.6 4.2zm17.2 6.6q-3 0-4.7-1.7-1.9-1.8-1.9-4.8v-.3q0-2 .8-3.6t2.2-2.4q1.4-.9 3.2-.9 2.7 0 4.3 1.8 1.5 1.7 1.5 4.8v1.4h-8.4q.2 1.3 1 2.1 1 .8 2.2.8 2 0 3.2-1.5l1.7 2q-.7 1-2.1 1.7-1.4.6-3 .6zm-.4-10.8q-1 0-1.7.7t-.8 2h4.9V34q0-1.2-.7-1.9-.6-.6-1.7-.6z" fill="rgb(255,255,255)"/>
  </g>
</svg>
