<?xml version="1.0" standalone="no"?><!-- Generator: Gravit.io --><svg xmlns="http://www.w3.org/2000/svg" xmlns:xlink="http://www.w3.org/1999/xlink" style="isolation:isolate" viewBox="0 0 800 800" width="800" height="800"><defs><clipPath id="_clipPath_h2HePXJ0nGXywBfke8Hz6UVVmw2gY0D9"><rect width="800" height="800"/></clipPath></defs><g clip-path="url(#_clipPath_h2HePXJ0nGXywBfke8Hz6UVVmw2gY0D9)"><g><defs><filter id="CBgXfD5JThscR17PPFno65i5Ykqj1ZL2" x="-200%" y="-200%" width="400%" height="400%" filterUnits="objectBoundingBox" color-interpolation-filters="sRGB"><feOffset xmlns="http://www.w3.org/2000/svg" in="SourceGraphic" dx="0" dy="0"/><feGaussianBlur xmlns="http://www.w3.org/2000/svg" stdDeviation="8.587218125678056" result="pf_100_offsetBlur"/><feComposite xmlns="http://www.w3.org/2000/svg" in="SourceGraphic" in2="pf_100_offsetBlur" result="pf_100_inverse" operator="out"/><feFlood xmlns="http://www.w3.org/2000/svg" flood-color="#000000" flood-opacity="0.5" result="pf_100_color"/><feComposite xmlns="http://www.w3.org/2000/svg" in="pf_100_color" in2="pf_100_inverse" operator="in" result="pf_100_shadow"/><feComposite xmlns="http://www.w3.org/2000/svg" in="pf_100_shadow" in2="SourceGraphic" operator="over"/></filter></defs><g filter="url(#CBgXfD5JThscR17PPFno65i5Ykqj1ZL2)"><circle vector-effect="non-scaling-stroke" cx="400.0000000000001" cy="399.99999999999994" r="399.99999999999994" fill="rgb(154,104,242)"/></g><defs><filter id="Gdlb0YXwU2icrKUvh0tTKYX8dkcOqxB1" x="-200%" y="-200%" width="400%" height="400%" filterUnits="objectBoundingBox" color-interpolation-filters="sRGB"><feOffset xmlns="http://www.w3.org/2000/svg" in="SourceGraphic" dx="0" dy="0"/><feGaussianBlur xmlns="http://www.w3.org/2000/svg" stdDeviation="8.587218125678056" result="pf_100_offsetBlur"/><feComposite xmlns="http://www.w3.org/2000/svg" in="SourceGraphic" in2="pf_100_offsetBlur" result="pf_100_inverse" operator="out"/><feFlood xmlns="http://www.w3.org/2000/svg" flood-color="#000000" flood-opacity="0.5" result="pf_100_color"/><feComposite xmlns="http://www.w3.org/2000/svg" in="pf_100_color" in2="pf_100_inverse" operator="in" result="pf_100_shadow"/><feComposite xmlns="http://www.w3.org/2000/svg" in="pf_100_shadow" in2="SourceGraphic" operator="over"/></filter></defs><g filter="url(#Gdlb0YXwU2icrKUvh0tTKYX8dkcOqxB1)"><path d=" M 669.053 415.065 C 668.647 428.287 665.395 440.798 659.871 451.994 C 658.922 618.198 523.696 752.837 357.272 752.837 C 190.258 752.837 54.665 617.244 54.665 450.231 C 54.665 283.217 190.258 147.624 357.272 147.624 C 417.962 147.624 474.503 165.529 521.896 196.341 C 525.824 195.813 529.834 195.543 533.906 195.543 C 569.133 195.543 599.664 215.813 614.454 245.319 C 619.393 244.472 624.47 244.034 629.649 244.034 C 679.353 244.034 719.707 284.388 719.707 334.093 C 719.707 369.667 699.037 400.451 669.053 415.065 Z " fill-rule="evenodd" fill="rgb(33,13,68)"/></g><g opacity="0.17"><circle vector-effect="non-scaling-stroke" cx="338.0000000000001" cy="195.54259137188984" r="13" fill="rgb(229,220,243)"/></g><g opacity="0.17"><circle vector-effect="non-scaling-stroke" cx="293.0000000000001" cy="190.00000000000009" r="23" fill="rgb(229,220,243)"/></g><g opacity="0.17"><circle vector-effect="non-scaling-stroke" cx="316.0000000000001" cy="222.00000000000017" r="9.000000000000057" fill="rgb(229,220,243)"/></g><g><linearGradient id="_lgradient_0" x1="-0.009803921568627472" y1="0.9773780280965836" x2="1.025846702317291" y2="-0.02798219303343985" gradientTransform="matrix(73.103,-414.989,-370.101,-65.196,359.778,684.245)" gradientUnits="userSpaceOnUse"><stop offset="0%" stop-opacity="1" style="stop-color:rgb(102,52,187)"/><stop offset="14.821718847892711%" stop-opacity="0.8798591952417508" style="stop-color:rgb(110,60,195)"/><stop offset="98.69565217391305%" stop-opacity="0.2" style="stop-color:rgb(154,104,242)"/></linearGradient><path d=" M 114.242 609.408 Q 239.045 513.679 432.881 269.256 C 241.067 362.986 105.456 444.225 26.232 512.931 L 26.232 512.931 Q 4.043 537.497 1.014 554.693 C -5.243 590.212 18.514 624.129 54.034 630.386 C 77.191 634.466 96.581 622.652 114.242 609.408 Z " fill="url(#_lgradient_0)"/><linearGradient id="_lgradient_1" x1="0.04216269841269838" y1="0.9410796986131623" x2="1.061507936507937" y2="-0.06006891693275451" gradientTransform="matrix(49.257,-279.618,-249.373,-43.929,266.043,644.853)" gradientUnits="userSpaceOnUse"><stop offset="0%" stop-opacity="1" style="stop-color:rgb(255,255,255)"/><stop offset="14.347826086956522%" stop-opacity="1" style="stop-color:rgb(255,200,0)"/><stop offset="82.17391304347827%" stop-opacity="0.8" style="stop-color:rgb(255,27,156)"/></linearGradient><path d=" M 100.601 594.428 Q 184.693 529.925 315.299 365.234 C 186.056 428.389 94.681 483.127 41.3 529.422 L 41.3 529.422 Q 26.35 545.974 24.309 557.561 C 20.093 581.494 36.1 604.347 60.033 608.563 C 75.637 611.311 88.702 603.351 100.601 594.428 Z " fill="url(#_lgradient_1)"/></g><g><linearGradient id="_lgradient_2" x1="-0.009803921568627472" y1="0.9773780280965836" x2="1.025846702317291" y2="-0.02798219303343985" gradientTransform="matrix(16.326,-153.941,-137.289,-14.56,492.165,762.78)" gradientUnits="userSpaceOnUse"><stop offset="0%" stop-opacity="1" style="stop-color:rgb(102,52,187)"/><stop offset="14.821718847892711%" stop-opacity="0.8798591952417508" style="stop-color:rgb(110,60,195)"/><stop offset="98.69565217391305%" stop-opacity="0.2" style="stop-color:rgb(154,104,242)"/></linearGradient><path d=" M 400.286 741.545 Q 443.613 703.311 508.49 608.839 C 440.553 648.03 392.9 681.225 365.596 708.405 L 365.596 708.405 Q 358.084 717.968 357.407 724.347 C 356.01 737.523 365.573 749.354 378.749 750.752 C 387.339 751.663 394.147 746.844 400.286 741.545 Z " fill="url(#_lgradient_2)"/><linearGradient id="_lgradient_3" x1="0.04216269841269838" y1="0.9410796986131623" x2="1.061507936507937" y2="-0.06006891693275451" gradientTransform="matrix(11,-103.725,-92.505,-9.81,456.816,750.706)" gradientUnits="userSpaceOnUse"><stop offset="0%" stop-opacity="1" style="stop-color:rgb(255,255,255)"/><stop offset="14.347826086956522%" stop-opacity="1" style="stop-color:rgb(255,200,0)"/><stop offset="82.17391304347827%" stop-opacity="0.8" style="stop-color:rgb(255,27,156)"/></linearGradient><path d=" M 394.909 736.398 Q 424.102 710.636 467.817 646.982 C 422.041 673.388 389.932 695.755 371.535 714.069 L 371.535 714.069 Q 366.473 720.512 366.017 724.81 C 365.076 733.688 371.519 741.66 380.397 742.602 C 386.185 743.216 390.773 739.969 394.909 736.398 Z " fill="url(#_lgradient_3)"/></g><g><linearGradient id="_lgradient_4" x1="-0.009803921568627472" y1="0.9773780280965836" x2="1.025846702317291" y2="-0.02798219303343985" gradientTransform="matrix(16.326,-153.941,-137.289,-14.56,220.222,750.507)" gradientUnits="userSpaceOnUse"><stop offset="0%" stop-opacity="1" style="stop-color:rgb(102,52,187)"/><stop offset="14.821718847892711%" stop-opacity="0.8798591952417508" style="stop-color:rgb(110,60,195)"/><stop offset="98.69565217391305%" stop-opacity="0.2" style="stop-color:rgb(154,104,242)"/></linearGradient><path d=" M 128.344 729.272 Q 171.671 691.038 236.548 596.567 C 168.611 635.757 120.957 668.952 93.654 696.132 L 93.654 696.132 Q 86.141 705.695 85.465 712.074 C 84.068 725.25 93.63 737.082 106.806 738.479 C 115.397 739.39 122.205 734.571 128.344 729.272 Z " fill="url(#_lgradient_4)"/><linearGradient id="_lgradient_5" x1="0.04216269841269838" y1="0.9410796986131623" x2="1.061507936507937" y2="-0.06006891693275451" gradientTransform="matrix(11,-103.725,-92.505,-9.81,184.874,738.434)" gradientUnits="userSpaceOnUse"><stop offset="0%" stop-opacity="1" style="stop-color:rgb(255,255,255)"/><stop offset="14.347826086956522%" stop-opacity="1" style="stop-color:rgb(255,200,0)"/><stop offset="82.17391304347827%" stop-opacity="0.8" style="stop-color:rgb(255,27,156)"/></linearGradient><path d=" M 122.967 724.125 Q 152.16 698.364 195.874 634.709 C 150.098 661.116 117.99 683.482 99.593 701.796 L 99.593 701.796 Q 94.531 708.24 94.075 712.538 C 93.133 721.416 99.577 729.388 108.455 730.329 C 114.243 730.943 118.83 727.696 122.967 724.125 Z " fill="url(#_lgradient_5)"/></g><g><linearGradient id="_lgradient_6" x1="-0.009803921568627472" y1="0.9773780280965836" x2="1.025846702317291" y2="-0.02798219303343985" gradientTransform="matrix(37.338,-352.068,-313.986,-33.299,535.584,727.728)" gradientUnits="userSpaceOnUse"><stop offset="0%" stop-opacity="1" style="stop-color:rgb(102,52,187)"/><stop offset="14.821718847892711%" stop-opacity="0.8798591952417508" style="stop-color:rgb(110,60,195)"/><stop offset="98.69565217391305%" stop-opacity="0.2" style="stop-color:rgb(154,104,242)"/></linearGradient><path d=" M 325.455 679.162 Q 424.545 591.72 572.922 375.66 C 417.547 465.29 308.561 541.209 246.118 603.37 L 246.118 603.37 Q 228.936 625.241 227.389 639.83 C 224.193 669.964 246.063 697.023 276.197 700.219 C 295.844 702.303 311.415 691.281 325.455 679.162 Z " fill="url(#_lgradient_6)"/><linearGradient id="_lgradient_7" x1="0.04216269841269838" y1="0.9410796986131623" x2="1.061507936507937" y2="-0.06006891693275451" gradientTransform="matrix(25.158,-237.222,-211.563,-22.437,454.741,700.115)" gradientUnits="userSpaceOnUse"><stop offset="0%" stop-opacity="1" style="stop-color:rgb(255,255,255)"/><stop offset="14.347826086956522%" stop-opacity="1" style="stop-color:rgb(255,200,0)"/><stop offset="82.17391304347827%" stop-opacity="0.8" style="stop-color:rgb(255,27,156)"/></linearGradient><path d=" M 313.157 667.392 Q 379.923 608.474 479.899 462.893 C 375.208 523.286 301.774 574.439 259.7 616.323 L 259.7 616.323 Q 248.122 631.06 247.08 640.89 C 244.927 661.194 259.663 679.427 279.967 681.58 C 293.205 682.984 303.697 675.558 313.157 667.392 Z " fill="url(#_lgradient_7)"/></g></g><g><g opacity="0.39"><radialGradient id="_rgradient_0" fx="0.5" fy="0.5" cx="0.5" cy="0.5" r="0.5" gradientTransform="matrix(22.486,-14.405,14.405,22.486,100.906,192.311)" gradientUnits="userSpaceOnUse"><stop offset="0%" stop-opacity="1" style="stop-color:rgb(235,235,235)"/><stop offset="98.26086956521739%" stop-opacity="0" style="stop-color:rgb(255,255,255)"/></radialGradient><path d=" M 108.109 203.554 C 104.133 197.349 105.944 189.084 112.149 185.109 C 118.354 181.133 126.619 182.944 130.594 189.149 C 134.57 195.354 132.759 203.619 126.554 207.594 C 120.349 211.57 112.084 209.759 108.109 203.554 Z " fill="url(#_rgradient_0)"/></g><path d=" M 114.965 186.232 L 120.508 193.425 L 129.471 191.965 L 122.278 197.508 L 123.738 206.471 L 118.195 199.278 L 109.232 200.738 L 116.425 195.195 L 114.965 186.232 Z " fill="rgb(235,235,235)"/></g><g><g opacity="0.39"><radialGradient id="_rgradient_1" fx="0.5" fy="0.5" cx="0.5" cy="0.5" r="0.5" gradientTransform="matrix(29.28,-18.758,18.758,29.28,4.629,361.663)" gradientUnits="userSpaceOnUse"><stop offset="0%" stop-opacity="1" style="stop-color:rgb(235,235,235)"/><stop offset="98.26086956521739%" stop-opacity="0" style="stop-color:rgb(255,255,255)"/></radialGradient><path d=" M 14.008 376.303 C 8.832 368.223 11.19 357.46 19.27 352.284 C 27.35 347.108 38.112 349.465 43.289 357.545 C 48.465 365.625 46.107 376.388 38.027 381.564 C 29.947 386.74 19.185 384.383 14.008 376.303 Z " fill="url(#_rgradient_1)"/></g><path d=" M 22.936 353.747 L 30.154 363.114 L 41.826 361.212 L 32.459 368.43 L 34.361 380.101 L 27.143 370.735 L 15.471 372.636 L 24.838 365.418 L 22.936 353.747 Z " fill="rgb(235,235,235)"/></g><g><g opacity="0.39"><radialGradient id="_rgradient_2" fx="0.5" fy="0.5" cx="0.5" cy="0.5" r="0.5" gradientTransform="matrix(34.392,-2.297,2.297,34.392,448.89,224.718)" gradientUnits="userSpaceOnUse"><stop offset="0%" stop-opacity="1" style="stop-color:rgb(235,235,235)"/><stop offset="98.26086956521739%" stop-opacity="0" style="stop-color:rgb(255,255,255)"/></radialGradient><path d=" M 450.039 241.914 C 449.405 232.423 456.596 224.203 466.086 223.569 C 475.577 222.935 483.797 230.126 484.431 239.616 C 485.065 249.107 477.874 257.327 468.384 257.961 C 458.893 258.595 450.673 251.404 450.039 241.914 Z " fill="url(#_rgradient_2)"/></g><path d=" M 468.572 226.592 L 470.364 238.175 L 481.408 242.102 L 469.825 243.894 L 465.898 254.938 L 464.106 243.355 L 453.062 239.428 L 464.645 237.636 L 468.572 226.592 Z " fill="rgb(235,235,235)"/></g><g><g opacity="0.39"><radialGradient id="_rgradient_3" fx="0.5" fy="0.5" cx="0.5" cy="0.5" r="0.5" gradientTransform="matrix(22.486,-14.405,14.405,22.486,381.555,76.311)" gradientUnits="userSpaceOnUse"><stop offset="0%" stop-opacity="1" style="stop-color:rgb(235,235,235)"/><stop offset="98.26086956521739%" stop-opacity="0" style="stop-color:rgb(255,255,255)"/></radialGradient><path d=" M 388.757 87.554 C 384.782 81.349 386.592 73.084 392.797 69.109 C 399.003 65.133 407.268 66.944 411.243 73.149 C 415.218 79.354 413.408 87.619 407.203 91.594 C 400.997 95.57 392.732 93.759 388.757 87.554 Z " fill="url(#_rgradient_3)"/></g><path d=" M 395.613 70.232 L 401.156 77.425 L 410.119 75.965 L 402.926 81.508 L 404.387 90.471 L 398.844 83.278 L 389.881 84.738 L 397.074 79.195 L 395.613 70.232 Z " fill="rgb(235,235,235)"/></g><g><g opacity="0.39"><radialGradient id="_rgradient_4" fx="0.5" fy="0.5" cx="0.5" cy="0.5" r="0.5" gradientTransform="matrix(38.634,22.541,-22.541,38.634,218.385,69.061)" gradientUnits="userSpaceOnUse"><stop offset="0%" stop-opacity="1" style="stop-color:rgb(235,235,235)"/><stop offset="98.26086956521739%" stop-opacity="0" style="stop-color:rgb(255,255,255)"/></radialGradient><path d=" M 207.115 88.378 C 213.335 77.717 227.04 74.111 237.702 80.332 C 248.363 86.552 251.968 100.258 245.748 110.919 C 239.528 121.58 225.822 125.185 215.161 118.965 C 204.5 112.745 200.894 99.039 207.115 88.378 Z " fill="url(#_rgradient_4)"/></g><path d=" M 238.175 85.388 L 231.677 99.141 L 240.692 111.392 L 226.939 104.894 L 214.688 113.909 L 221.186 100.156 L 212.17 87.905 L 225.923 94.403 L 238.175 85.388 Z " fill="rgb(235,235,235)"/></g><g><g opacity="0.39"><radialGradient id="_rgradient_5" fx="0.5" fy="0.5" cx="0.5" cy="0.5" r="0.5" gradientTransform="matrix(46.002,-22.062,22.062,46.002,537.039,122.912)" gradientUnits="userSpaceOnUse"><stop offset="0%" stop-opacity="1" style="stop-color:rgb(235,235,235)"/><stop offset="98.26086956521739%" stop-opacity="0" style="stop-color:rgb(255,255,255)"/></radialGradient><path d=" M 548.07 145.913 C 541.982 133.218 547.346 117.969 560.041 111.881 C 572.735 105.793 587.985 111.156 594.073 123.851 C 600.161 136.546 594.797 151.795 582.103 157.883 C 569.408 163.971 554.159 158.608 548.07 145.913 Z " fill="url(#_rgradient_5)"/></g><path d=" M 565.118 114.669 L 573.948 129.603 L 591.285 128.928 L 576.35 137.758 L 577.026 155.095 L 568.195 140.161 L 550.858 140.836 L 565.793 132.005 L 565.118 114.669 Z " fill="rgb(235,235,235)"/></g><g><g opacity="0.39"><radialGradient id="_rgradient_6" fx="0.5" fy="0.5" cx="0.5" cy="0.5" r="0.5" gradientTransform="matrix(57.06,-32.293,32.293,57.06,195.107,278.4)" gradientUnits="userSpaceOnUse"><stop offset="0%" stop-opacity="1" style="stop-color:rgb(235,235,235)"/><stop offset="98.26086956521739%" stop-opacity="0" style="stop-color:rgb(255,255,255)"/></radialGradient><path d=" M 211.253 306.929 C 202.342 291.183 207.89 271.165 223.636 262.253 C 239.382 253.342 259.401 258.89 268.313 274.636 C 277.224 290.382 271.675 310.401 255.929 319.313 C 240.183 328.224 220.165 322.675 211.253 306.929 Z " fill="url(#_rgradient_6)"/></g><path d=" M 230.389 265.385 L 243.011 283.764 L 265.18 281.389 L 246.801 294.011 L 249.177 316.18 L 236.555 297.801 L 214.385 300.177 L 232.764 287.555 L 230.389 265.385 Z " fill="rgb(235,235,235)"/></g><g><g opacity="0.39"><radialGradient id="_rgradient_7" fx="0.5" fy="0.5" cx="0.5" cy="0.5" r="0.5" gradientTransform="matrix(29.171,-18.362,18.362,29.171,575.469,507.831)" gradientUnits="userSpaceOnUse"><stop offset="0%" stop-opacity="1" style="stop-color:rgb(235,235,235)"/><stop offset="98.26086956521739%" stop-opacity="0" style="stop-color:rgb(255,255,255)"/></radialGradient><path d=" M 584.65 522.416 C 579.582 514.366 582.004 503.717 590.054 498.65 C 598.104 493.582 608.753 496.004 613.82 504.054 C 618.887 512.104 616.466 522.753 608.416 527.82 C 600.366 532.887 589.717 530.466 584.65 522.416 Z " fill="url(#_rgradient_7)"/></g><path d=" M 593.677 500.128 L 600.758 509.47 L 612.341 507.677 L 603 514.758 L 604.793 526.341 L 597.712 517 L 586.128 518.793 L 595.47 511.712 L 593.677 500.128 Z " fill="rgb(235,235,235)"/></g><g><g opacity="0.39"><radialGradient id="_rgradient_8" fx="0.5" fy="0.5" cx="0.5" cy="0.5" r="0.5" gradientTransform="matrix(86.521,-5.779,5.779,86.521,562.085,283.195)" gradientUnits="userSpaceOnUse"><stop offset="0%" stop-opacity="1" style="stop-color:rgb(235,235,235)"/><stop offset="98.26086956521739%" stop-opacity="0" style="stop-color:rgb(255,255,255)"/></radialGradient><path d=" M 564.974 326.455 C 563.38 302.579 581.469 281.9 605.345 280.305 C 629.222 278.71 649.901 296.8 651.495 320.676 C 653.09 344.552 635.001 365.231 611.124 366.826 C 587.248 368.421 566.569 350.331 564.974 326.455 Z " fill="url(#_rgradient_8)"/></g><path d=" M 611.598 287.909 L 616.106 317.051 L 643.891 326.928 L 614.75 331.437 L 604.872 359.222 L 600.364 330.08 L 572.579 320.203 L 601.72 315.694 L 611.598 287.909 Z " fill="rgb(235,235,235)"/></g><g><g opacity="0.39"><radialGradient id="_rgradient_9" fx="0.5" fy="0.5" cx="0.5" cy="0.5" r="0.5" gradientTransform="matrix(22.486,-14.405,14.405,22.486,719.203,440.608)" gradientUnits="userSpaceOnUse"><stop offset="0%" stop-opacity="1" style="stop-color:rgb(235,235,235)"/><stop offset="98.26086956521739%" stop-opacity="0" style="stop-color:rgb(255,255,255)"/></radialGradient><path d=" M 726.406 451.851 C 722.43 445.646 724.241 437.381 730.446 433.406 C 736.651 429.43 744.916 431.241 748.891 437.446 C 752.867 443.651 751.056 451.916 744.851 455.891 C 738.646 459.867 730.381 458.056 726.406 451.851 Z " fill="url(#_rgradient_9)"/></g><path d=" M 733.262 434.529 L 738.805 441.722 L 747.768 440.262 L 740.575 445.805 L 742.035 454.768 L 736.492 447.575 L 727.529 449.035 L 734.722 443.492 L 733.262 434.529 Z " fill="rgb(235,235,235)"/></g><g><g opacity="0.39"><radialGradient id="_rgradient_10" fx="0.5" fy="0.5" cx="0.5" cy="0.5" r="0.5" gradientTransform="matrix(47.994,-30.746,30.746,47.994,635.133,587.874)" gradientUnits="userSpaceOnUse"><stop offset="0%" stop-opacity="1" style="stop-color:rgb(235,235,235)"/><stop offset="98.26086956521739%" stop-opacity="0" style="stop-color:rgb(255,255,255)"/></radialGradient><path d=" M 650.506 611.871 C 642.021 598.626 645.885 580.985 659.129 572.501 C 672.374 564.016 690.015 567.88 698.499 581.125 C 706.984 594.369 703.12 612.01 689.875 620.494 C 676.631 628.979 658.99 625.115 650.506 611.871 Z " fill="url(#_rgradient_10)"/></g><path d=" M 665.14 574.898 L 676.971 590.252 L 696.102 587.135 L 680.748 598.966 L 683.865 618.097 L 672.034 602.743 L 652.903 605.86 L 668.257 594.029 L 665.14 574.898 Z " fill="rgb(235,235,235)"/></g></g></svg>