<?xml version="1.0" standalone="no"?><!-- Generator: Gravit.io --><svg xmlns="http://www.w3.org/2000/svg" xmlns:xlink="http://www.w3.org/1999/xlink" style="isolation:isolate" viewBox="0 0 425.197 425.197" width="425.197" height="425.197"><g><path d=" M 357.692 48.046 L 331.255 344.206 L 212.421 377.15 L 93.914 344.252 L 67.505 48.046 L 357.692 48.046 Z " fill="none" vector-effect="non-scaling-stroke" stroke-width="1" stroke="rgb(255,255,255)" stroke-linejoin="miter" stroke-linecap="butt" stroke-miterlimit="4"/><path d=" M 308.622 325.347 L 331.214 72.266 L 212.598 72.266 L 212.598 351.969 L 308.622 325.347 Z " fill="none"/><path d=" M 128.046 182.124 L 131.302 218.452 L 212.598 218.452 L 212.598 182.124 L 128.046 182.124 Z " fill="rgb(255,255,255)"/><path d=" M 212.598 108.594 L 212.473 108.594 L 121.504 108.594 L 124.806 144.923 L 212.598 144.923 L 212.598 108.594 Z " fill="rgb(255,255,255)"/><path d=" M 212.598 314.27 L 212.598 276.473 L 212.439 276.515 L 171.98 265.59 L 169.394 236.617 L 149.734 236.617 L 132.926 236.617 L 138.015 293.658 L 212.431 314.316 L 212.598 314.27 Z " fill="rgb(255,255,255)"/><path d=" M 257.207 218.452 L 252.99 265.567 L 212.473 276.503 L 212.473 314.298 L 286.948 293.658 L 287.494 287.52 L 296.031 191.879 L 296.918 182.124 L 303.476 108.594 L 212.473 108.594 L 212.473 144.923 L 263.663 144.923 L 260.358 182.124 L 212.473 182.124 L 212.473 218.452 L 257.207 218.452 Z " fill="rgb(255,255,255)"/></g></svg>