<?xml version="1.0" standalone="no"?><!-- Generator: Gravit.io --><svg xmlns="http://www.w3.org/2000/svg" xmlns:xlink="http://www.w3.org/1999/xlink" style="isolation:isolate" viewBox="0 0 512 512" width="512" height="512"><g><g><path d=" M 107.644 420.567 L 74.633 50.31 L 437.367 50.31 L 404.321 420.509 L 255.778 461.69 L 107.644 420.567 Z " fill="none" vector-effect="non-scaling-stroke" stroke-width="1" stroke="rgb(255,255,255)" stroke-linejoin="miter" stroke-linecap="butt" stroke-miterlimit="4"/><path d=" M 256 430.213 L 376.03 396.936 L 404.27 80.584 L 256 80.584 L 256 430.213 Z " fill="none"/><g><path d=" M 256 217.907 L 195.91 217.907 L 191.76 171.406 L 256 171.406 L 256 125.995 L 255.843 125.995 L 142.132 125.995 L 143.219 138.178 L 154.38 263.317 L 256 263.317 L 256 217.907 Z " fill="rgb(255,255,255)"/><path d=" M 256 335.843 L 255.801 335.896 L 205.227 322.24 L 201.994 286.023 L 177.419 286.023 L 156.409 286.023 L 162.771 357.324 L 255.791 383.147 L 256 383.089 L 256 335.843 Z " fill="rgb(255,255,255)"/></g><g><path d=" M 255.843 217.907 L 255.843 263.317 L 311.761 263.317 L 306.49 322.211 L 255.843 335.881 L 255.843 383.125 L 348.937 357.324 L 349.62 349.652 L 360.291 230.101 L 361.399 217.907 L 349.162 217.907 L 255.843 217.907 Z " fill="rgb(255,255,255)"/><path d=" M 255.843 125.995 L 255.843 154.199 L 255.843 171.295 L 255.843 171.406 L 365.385 171.406 L 365.385 171.406 L 365.531 171.406 L 366.442 161.199 L 368.511 138.178 L 369.597 125.995 L 255.843 125.995 Z " fill="rgb(255,255,255)"/></g></g></g></svg>