<?xml version="1.0" standalone="no"?><!-- Generator: Gravit.io --><svg xmlns="http://www.w3.org/2000/svg" xmlns:xlink="http://www.w3.org/1999/xlink" style="isolation:isolate" viewBox="0 0 1052 1052" width="1052" height="1052"><defs><clipPath id="_clipPath_ziewVdwc4nVGto0HkGeUsIBawbgJth7S"><rect width="1052" height="1052"/></clipPath></defs><g clip-path="url(#_clipPath_ziewVdwc4nVGto0HkGeUsIBawbgJth7S)"><path d=" M 784 478 C 746.2 481 714.5 494.6 690.9 518 C 666.6 542.1 655 571.5 655 608.8 C 655 664.6 677.9 703.6 729 734.5 C 742 742.3 759.7 750.8 790.3 764 C 832 781.9 847.5 790.4 857.4 801 C 869.6 814.1 873 835 865.3 851 C 863.8 854.1 859.9 859.3 856.4 862.8 C 844.6 874.7 826 881 802.9 881 C 763.9 881 734.8 865 711.4 830.4 C 708.2 825.8 705.3 822 704.9 822 C 704 822 627.9 865.9 626.3 867.4 C 625.3 868.3 626.1 870.4 630 876.8 C 660.4 928 707.9 958 772.1 966.6 C 788.9 968.9 820.4 968.8 836.5 966.6 C 876.9 960.9 907.2 947.5 930.7 924.7 C 955.7 900.6 968 869.4 968 830.3 C 968 805.3 963.9 785.8 954.6 766.5 C 948.2 753.3 941.8 744.4 930.8 733.2 C 909.7 711.8 882.4 695.6 827.9 672.2 C 786.7 654.5 772.9 646.9 763.8 637.2 C 755.1 627.9 751.4 617 752.2 603.4 C 752.9 592.6 755.9 585.3 762.5 578.2 C 772 567.9 783 563.6 800 563.7 C 819.3 563.7 831.8 568.7 844.5 581.5 C 849 585.9 854.8 593 857.5 597.3 C 860.6 602.2 862.9 604.9 863.7 604.6 C 866.3 603.5 939 556.5 939 555.8 C 939 555.4 935.3 549.6 930.8 542.8 C 921.2 528.4 903.9 510.4 892 502.5 C 870 487.9 846.5 480.4 815.5 478.1 C 800.3 476.9 798.3 476.9 784 478 Z " fill="rgb(255,255,255)"/><path d=" M 472.7 659.7 L 472.4 836.5 L 470.2 844.8 C 467.3 855.7 463.9 862.2 457.9 868.2 C 449.5 876.6 438.7 880.1 420.7 880.2 C 395 880.3 379.6 869.4 361.7 838.8 C 358.8 834 356.2 830.1 355.9 830.2 C 355.5 830.4 337.4 841.3 315.7 854.4 L 276.2 878.4 L 279.2 884.4 C 297.1 920.1 328.1 947.1 365.4 959.5 C 404.8 972.6 455.4 971.4 492.5 956.5 C 537 938.5 563.1 901.3 570 846 C 570.6 840.4 571 777.9 571 660.3 L 571 483 L 522 483 L 473.1 483 L 472.7 659.7 L 472.7 659.7 Z " fill="rgb(255,255,255)"/></g></svg>