<?xml version="1.0" standalone="no"?><!-- Generator: Gravit.io --><svg xmlns="http://www.w3.org/2000/svg" xmlns:xlink="http://www.w3.org/1999/xlink" style="isolation:isolate" viewBox="0 0 283.465 283.465" width="283.465" height="283.465"><defs><clipPath id="_clipPath_D4FjeBViqj8Uc0h7qEXFlakMB3GWa8ut"><rect width="283.465" height="283.465"/></clipPath></defs><g clip-path="url(#_clipPath_D4FjeBViqj8Uc0h7qEXFlakMB3GWa8ut)"><g><path d=" M 77.334 40.073 L 206.131 40.073 C 213.668 40.073 219.787 46.193 219.787 53.73 L 219.787 57.587 C 219.787 65.125 213.668 71.244 206.131 71.244 L 77.334 71.244 C 69.797 71.244 63.678 65.125 63.678 57.587 L 63.678 53.73 C 63.678 46.193 69.797 40.073 77.334 40.073 Z " fill="rgb(255,255,255)"/><path d=" M 77.334 212.22 L 206.131 212.22 C 213.668 212.22 219.787 218.34 219.787 225.878 L 219.787 229.734 C 219.787 237.272 213.668 243.392 206.131 243.392 L 77.334 243.392 C 69.797 243.392 63.678 237.272 63.678 229.734 L 63.678 225.878 C 63.678 218.34 69.797 212.22 77.334 212.22 Z " fill="rgb(255,255,255)"/><path d=" M 77.334 126.147 L 206.131 126.147 C 213.668 126.147 219.787 132.267 219.787 139.803 L 219.787 143.661 C 219.787 151.198 213.668 157.317 206.131 157.317 L 77.334 157.317 C 69.797 157.317 63.678 151.198 63.678 143.661 L 63.678 139.803 C 63.678 132.267 69.797 126.147 77.334 126.147 Z " fill="rgb(255,255,255)"/><path d=" M 77.334 170.677 L 143.129 170.677 C 150.666 170.677 156.786 176.796 156.786 184.333 L 156.786 188.191 C 156.786 195.727 150.666 201.847 143.129 201.847 L 77.334 201.847 C 69.797 201.847 63.678 195.727 63.678 188.191 L 63.678 184.333 C 63.678 176.796 69.797 170.677 77.334 170.677 Z " fill="rgb(255,255,255)"/><path d=" M 77.334 83.111 L 143.129 83.111 C 150.666 83.111 156.786 89.229 156.786 96.767 L 156.786 100.625 C 156.786 108.161 150.666 114.281 143.129 114.281 L 77.334 114.281 C 69.797 114.281 63.678 108.161 63.678 100.625 L 63.678 96.767 C 63.678 89.229 69.797 83.111 77.334 83.111 Z " fill="rgb(255,255,255)"/></g></g></svg>