<?xml version="1.0" standalone="no"?><!-- Generator: Gravit.io --><svg xmlns="http://www.w3.org/2000/svg" xmlns:xlink="http://www.w3.org/1999/xlink" style="isolation:isolate" viewBox="0 0 630 630" width="630" height="630"><defs><clipPath id="_clipPath_mvThWJFiJLQlyKG5HJaPhiLv3G3YR3E8"><rect width="630" height="630"/></clipPath></defs><g clip-path="url(#_clipPath_mvThWJFiJLQlyKG5HJaPhiLv3G3YR3E8)"><path d=" M 507.7 289.9 C 523.7 293.9 535.9 301 547.1 312.6 C 552.9 318.8 561.5 330.1 562.2 332.8 C 562.4 333.6 535 352 518.4 362.3 C 517.8 362.7 515.4 360.1 512.7 356.1 C 504.6 344.3 496.1 339.2 483.1 338.3 C 464 337 451.7 347 451.8 363.7 C 451.8 368.6 452.5 371.5 454.5 375.5 C 458.7 384.2 466.5 389.4 491 400 C 536.1 419.4 555.4 432.2 567.4 450.4 C 580.8 470.7 583.8 503.1 574.7 527.2 C 564.7 553.4 539.9 571.2 505 577.1 C 494.2 579 468.6 578.7 457 576.6 C 431.7 572.1 407.7 559.6 392.9 543.2 C 387.1 536.8 375.8 520.1 376.5 518.9 C 376.8 518.5 379.4 516.9 382.3 515.2 C 385.1 513.6 395.7 507.5 405.7 501.7 L 423.8 491.2 L 427.6 496.8 C 432.9 504.9 444.5 516 451.5 519.7 C 471.6 530.3 499.2 528.8 512.8 516.6 C 518.6 511.3 521 505.8 521 497.7 C 521 490.4 520.1 487.2 516.3 481.7 C 511.4 474.7 501.4 468.8 473 456.5 C 440.5 442.5 426.5 433.8 413.7 420 C 406.3 412 399.3 399.2 396.4 388.5 C 394 379.6 393.4 357.3 395.3 348.3 C 402 316.9 425.7 295 459.9 288.5 C 471 286.4 496.8 287.2 507.7 289.9 Z " fill="rgb(255,255,255)"/><path d=" M 359.8 316.2 L 360 342 L 319 342 L 278 342 L 278 458.5 L 278 575 L 249 575 L 220 575 L 220 458.5 L 220 342 L 179 342 L 138 342 L 138 316.7 C 138 302.7 138.3 291 138.7 290.7 C 139 290.3 188.9 290.1 249.4 290.2 L 359.5 290.5 L 359.8 316.2 L 359.8 316.2 Z " fill="rgb(255,255,255)"/></g></svg>