<svg height="105" viewBox="0 0 888 105" width="888" xmlns="http://www.w3.org/2000/svg" xmlns:xlink="http://www.w3.org/1999/xlink"><defs><rect id="a" height="105" rx="15" width="888"/><rect id="b" height="46" rx="23" width="172"/><filter id="c" height="104.3%" width="101.2%" x="-.6%" y="-2.2%"><feOffset dx="0" dy="-2" in="SourceAlpha" result="shadowOffsetInner1"/><feComposite in="shadowOffsetInner1" in2="SourceAlpha" k2="-1" k3="1" operator="arithmetic" result="shadowInnerInner1"/><feColorMatrix in="shadowInnerInner1" type="matrix" values="0 0 0 0 0   0 0 0 0 0   0 0 0 0 0  0 0 0 0.245820586 0"/></filter><rect id="d" height="105" rx="15" width="888"/><filter id="e" height="102.9%" width="100.3%" x="-.2%" y="-1.4%"><feOffset dx="0" dy="-3" in="SourceAlpha" result="shadowOffsetInner1"/><feComposite in="shadowOffsetInner1" in2="SourceAlpha" k2="-1" k3="1" operator="arithmetic" result="shadowInnerInner1"/><feColorMatrix in="shadowInnerInner1" type="matrix" values="0 0 0 0 0   0 0 0 0 0   0 0 0 0 0  0 0 0 0.2 0"/></filter><mask id="f" fill="#fff"><use fill="#fff" fill-rule="evenodd" xlink:href="#a"/></mask></defs><g fill="none" fill-rule="evenodd"><g><use fill="#131231" fill-rule="nonzero" xlink:href="#a"/><g mask="url(#f)"><g fill-rule="nonzero" transform="translate(668 27)"><use fill="#ce1f99" xlink:href="#b"/><use fill="#000" filter="url(#c)" xlink:href="#b"/><path d="m24.504 24.39 1.692-.792c.4560023 1.1880059 1.2779941 1.782 2.466 1.782.5760029 0 1.0349983-.1499985 1.377-.45s.513-.7139974.513-1.242c0-.4800024-.1949981-.8969982-.585-1.251-.390002-.3540018-.8639972-.6569987-1.422-.909s-1.1129972-.5219986-1.665-.81-1.0229981-.6989973-1.413-1.233c-.390002-.5340027-.585-1.1729963-.585-1.917 0-.996005.3449965-1.8119968 1.035-2.448.6900034-.6360032 1.6049943-.954 2.745-.954.5640028 0 1.0769977.0899991 1.539.27s.8369986.4139986 1.125.702.5129992.5609987.675.819.2909995.5189987.387.783l-1.656.738c-.4680023-.9840049-1.1699953-1.476-2.106-1.476-.5400027 0-.9659984.1469985-1.278.441s-.468.6629978-.468 1.107c0 .3840019.1409986.7289985.423 1.035s.6329979.554999 1.053.747.8789975.4139987 1.377.666.9569979.5129987 1.377.783c.4200021.2700014.7709986.6419976 1.053 1.116s.423 1.0229969.423 1.647c0 1.0800054-.3629964 1.9649966-1.089 2.655-.7260036.6900035-1.7009939 1.035-2.925 1.035-.6120031 0-1.1639975-.0929991-1.656-.279s-.8969984-.4319985-1.215-.738-.5699991-.6059985-.756-.9-.3329995-.6029984-.441-.927zm14.661-7.02c1.1280056 0 1.9559974.3779962 2.484 1.134s.792 1.7039943.792 2.844v5.652h-1.944v-5.814c0-.6360032-.1769982-1.1369982-.531-1.503s-.8069972-.549-1.359-.549c-.6120031 0-1.1099981.203998-1.494.612s-.576.9359968-.576 1.584v5.67h-1.962v-13.014h1.962v4.842c.2280011-.408002.5759977-.7529986 1.044-1.035s.9959971-.423 1.584-.423zm7.857 2.664c-.5520028.600003-.828 1.3619954-.828 2.286s.2789972 1.682997.837 2.277 1.2749956.891 2.151.891 1.5989971-.299997 2.169-.9c.5700028-.600003.855-1.3619954.855-2.286s-.2849972-1.686-.855-2.286c-.5700029-.600003-1.2929956-.9-2.169-.9s-1.5959972.3059969-2.16.918zm-2.808 2.286c0-1.4160071.4739953-2.5949953 1.422-3.537s2.1299929-1.413 3.546-1.413c1.4400072 0 2.6309953.4679953 3.573 1.404s1.413 2.1119929 1.413 3.528-.4739953 2.5919953-1.422 3.528-2.1359929 1.404-3.564 1.404c-1.4400072 0-2.6279953-.4619954-3.564-1.386s-1.404-2.0999929-1.404-3.528zm20.205 4.68-2.106-6.732-2.124 6.732h-2.16l-2.988-9.396h2.124l2.052 7.2 2.16-7.2h1.872l2.142 7.2 2.07-7.2h2.124l-2.988 9.396zm24.624-6.138v6.138h-1.944v-5.634c0-1.4880074-.599994-2.232-1.8-2.232-.5640028 0-1.0229982.197998-1.377.594s-.531.9479965-.531 1.656v5.616h-1.962v-5.814c0-.6360032-.1589984-1.1369982-.477-1.503s-.7589972-.549-1.323-.549c-.5400027 0-.9899982.203998-1.35.612s-.54.9419967-.54 1.602v5.652h-1.962v-9.396h1.926v1.224c.192001-.396002.5129977-.7379986.963-1.026.4500022-.2880014.974997-.432 1.575-.432 1.3080065 0 2.2079975.5219948 2.7 1.566.5880029-1.0440052 1.5539933-1.566 2.898-1.566 1.0320052 0 1.8239972.3179968 2.376.954s.828 1.4819947.828 2.538zm3.141 5.004c-.9000045-.9120046-1.35-2.0879928-1.35-3.528s.4379956-2.6279953 1.314-3.564 1.9619935-1.404 3.258-1.404c1.404007 0 2.507996.4469955 3.312 1.341s1.206 2.0849926 1.206 3.573l-.00288.2332803c-.00288.1036798-.00792.1879194-.01512.2527197h-7.074c.0120001.8280041.2909973 1.4939975.837 1.998s1.2389958.756 2.079.756c1.1280056 0 1.991997-.4379956 2.592-1.314l1.296.972c-.3000015.5160026-.7799967.9869979-1.44 1.413s-1.487995.639-2.484.639c-1.4520073 0-2.6279955-.4559954-3.528-1.368zm.72-4.446h5.022c-.0360002-.7560038-.2879977-1.3469979-.756-1.773s-1.0499965-.639-1.746-.639c-.6840034 0-1.2599977.2189978-1.728.657s-.7319997 1.0229963-.792 1.755zm18.162-4.05c1.128006 0 1.955997.3779962 2.484 1.134s.792 1.7039943.792 2.844v5.652h-1.944v-5.814c0-.6360032-.176998-1.1369982-.531-1.503s-.806997-.549-1.359-.549c-.612003 0-1.109998.203998-1.494.612s-.576.9359968-.576 1.584v5.67h-1.962v-13.014h1.962v4.842c.228001-.408002.575998-.7529986 1.044-1.035s.995997-.423 1.584-.423zm7.857 2.664c-.552003.600003-.828 1.3619954-.828 2.286s.278997 1.682997.837 2.277 1.274996.891 2.151.891 1.598997-.299997 2.169-.9.855-1.3619954.855-2.286-.284997-1.686-.855-2.286c-.570003-.600003-1.292996-.9-2.169-.9s-1.595997.3059969-2.16.918zm-2.808 2.286c0-1.4160071.473995-2.5949953 1.422-3.537s2.129993-1.413 3.546-1.413c1.440007 0 2.630995.4679953 3.573 1.404s1.413 2.1119929 1.413 3.528-.473995 2.5919953-1.422 3.528-2.135993 1.404-3.564 1.404c-1.440007 0-2.627995-.4619954-3.564-1.386s-1.404-2.0999929-1.404-3.528zm20.205 4.68-2.106-6.732-2.124 6.732h-2.16l-2.988-9.396h2.124l2.052 7.2 2.16-7.2h1.872l2.142 7.2 2.07-7.2h2.124l-2.988 9.396zm7.119-3.384-.144-9.216h2.052l-.162 9.216zm-.018 3.258c-.252001-.2520013-.378-.5519983-.378-.9s.125999-.6479987.378-.9.551998-.378.9-.378.647999.1259987.9.378.378.5519983.378.9-.125999.6449988-.378.891-.551998.369-.9.369-.647999-.1199988-.9-.36z" fill="#fff"/></g></g></g><g fill-rule="nonzero" transform="translate(99.624 26.072)"><path d="m1.118 18.928v-18.2h9.308v3.302h-5.642v4.29h4.94v3.276h-4.94v7.332zm11.102-4.212c0-1.3346733.4853285-2.4179958 1.456-3.25s2.2446588-1.248 3.822-1.248c1.2306728 0 2.2099964.2513308 2.938.754v-.884c0-.6066697-.2166645-1.09199818-.65-1.456s-1.0399961-.546-1.82-.546c-1.1613391 0-2.3659938.32066346-3.614.962l-1.352-2.444c.65867-.45066892 1.4689952-.83199844 2.431-1.144s1.9369951-.468 2.925-.468c2.0453436 0 3.501329.47232861 4.368 1.417s1.3 2.24899168 1.3 3.913v8.606h-3.172l-.234-.884c-.7626705.8146707-1.8633261 1.222-3.302 1.222s-2.6476618-.4116626-3.627-1.235c-.9793382-.8233375-1.469-1.9283264-1.469-3.315zm4.238-1.456c-.4333355.3466684-.65.7973306-.65 1.352s.2253311 1.0053316.676 1.352 1.0139966.52 1.69.52c.6933368 0 1.2566645-.1689983 1.69-.507s.65-.7929971.65-1.365c0-.5893363-.2166645-1.0529983-.65-1.391s-1.0053298-.507-1.716-.507c-.6933368 0-1.2566645.1819982-1.69.546zm14.378 6.006c-1.2306728 0-2.2749957-.2469975-3.133-.741s-1.5036645-1.0876632-1.937-1.781l2.106-1.872c.8493376.9880049 1.8893272 1.482 3.12 1.482.5200026 0 .9273319-.1083323 1.222-.325.2946681-.2166678.442-.5156648.442-.897 0-.3640018-.2209978-.680332-.663-.949-.3683352-.22389-.8028688-.4297218-1.3036102-.6174997l-.3083898-.1105003c-.6326698-.2166678-1.2609969-.4766652-1.885-.78-.6240031-.3033349-1.1569978-.7626636-1.599-1.378s-.663-1.37366216-.663-2.275c0-1.23067282.4679953-2.20999636 1.404-2.938s2.1146596-1.092 3.536-1.092c2.1146772 0 3.6659951.80599194 4.654 2.418l-2.366 1.768c-.6933368-.866671-1.5079953-1.3-2.444-1.3-.4160021 0-.7539987.09966567-1.014.299s-.39.46366502-.39.793c0 .38133524.2209978.7019987.663.962.3683352.2166677.8028688.4122682 1.3036102.5868053l.3083898.1021947c.6326698.1993343 1.2653302.4419986 1.898.728s1.1699978.7323303 1.612 1.339.663 1.3606622.663 2.262c0 1.3000065-.4939951 2.3443294-1.482 3.133s-2.2359925 1.183-3.744 1.183zm7.488-13.936v-2.86h3.536v2.86h2.548v2.912h-2.548v5.252c0 .9706715.1516652 1.620665.455 1.95.3033349.329335.8189964.494 1.547.494.2426679 0 .4593324-.0086666.65-.026v3.068c-.3640018.0866671-.87533.13-1.534.13-1.6120081 0-2.7949962-.4549955-3.549-1.365-.7540038-.9100046-1.131-2.2923241-1.131-4.147v-5.356h-1.43v-2.912zm8.086 7.306v-3.224h7.228v3.224zm10.166-7.306v-2.86h3.536v2.86h2.548v2.912h-2.548v5.252c0 .9706715.1516652 1.620665.455 1.95.3033349.329335.8189964.494 1.547.494.2426679 0 .4593324-.0086666.65-.026v3.068c-.3640018.0866671-.87533.13-1.534.13-1.6120081 0-2.7949962-.4549955-3.549-1.365-.7540038-.9100046-1.131-2.2923241-1.131-4.147v-5.356h-1.43v-2.912zm15.574-.338v3.64c-2.4440122 0-3.666 1.4559854-3.666 4.368v5.928h-3.588v-13.598h3.51v1.976c.3120016-.6933368.79733-1.25233121 1.456-1.677s1.421329-.637 2.288-.637zm1.326 9.724c0-1.3346733.4853285-2.4179958 1.456-3.25s2.2446588-1.248 3.822-1.248c1.2306728 0 2.2099964.2513308 2.938.754v-.884c0-.6066697-.2166645-1.09199818-.65-1.456s-1.0399961-.546-1.82-.546c-1.1613391 0-2.3659938.32066346-3.614.962l-1.352-2.444c.65867-.45066892 1.4689952-.83199844 2.431-1.144s1.9369951-.468 2.925-.468c2.0453436 0 3.501329.47232861 4.368 1.417s1.3 2.24899168 1.3 3.913v8.606h-3.172l-.234-.884c-.7626705.8146707-1.8633261 1.222-3.302 1.222s-2.6476618-.4116626-3.627-1.235c-.9793382-.8233375-1.469-1.9283264-1.469-3.315zm4.238-1.456c-.4333355.3466684-.65.7973306-.65 1.352s.2253311 1.0053316.676 1.352 1.0139966.52 1.69.52c.6933368 0 1.2566645-.1689983 1.69-.507s.65-.7929971.65-1.365c0-.5893363-.2166645-1.0529983-.65-1.391s-1.0053298-.507-1.716-.507c-.6933368 0-1.2566645.1819982-1.69.546zm16.926 2.834c1.0573386 0 2.0799951-.4073293 3.068-1.222l.962 2.938c-1.2133394.9706715-2.6259919 1.456-4.238 1.456-2.1146772 0-3.8523265-.6673267-5.213-2.002s-2.041-3.033323-2.041-5.096.6889931-3.77432653 2.067-5.135 3.098323-2.041 5.161-2.041c1.5946746 0 3.0246603.48532848 4.29 1.456l-1.014 3.016c-.9533381-.866671-2.0106609-1.3-3.172-1.3-1.1266723 0-2.0323299.38132952-2.717 1.144-.6846701.7626705-1.027 1.7073277-1.027 2.834 0 1.1613391.3639964 2.1103296 1.092 2.847.7280036.7366703 1.6553277 1.105 2.782 1.105zm6.032 2.834v-18.798h3.588v10.92l4.368-5.72h4.03l-4.784 6.162 5.148 7.436h-4.212l-4.55-7.02v7.02zm25.792 4.654h-3.432l1.898-4.992-5.226-13.26h3.848l3.042 8.866 3.068-8.866h3.744zm9.828-6.318c-1.36934-1.3346733-2.054-3.033323-2.054-5.096s.69766-3.77432653 2.093-5.135 3.13299-2.041 5.213-2.041 3.821993.68465982 5.226 2.054 2.106 3.0766564 2.106 5.122c0 2.062677-.688993 3.7613267-2.067 5.096s-3.132989 2.002-5.265 2.002c-2.114677 0-3.865326-.6673267-5.252-2.002zm1.534-5.096c0 1.1440057.350996 2.0843296 1.053 2.821.702004.7366703 1.590328 1.105 2.665 1.105 1.092005 0 1.988996-.3683297 2.691-1.105.702004-.7366704 1.053-1.6769943 1.053-2.821 0-1.1613391-.35533-2.1189962-1.066-2.873-.71067-.75400377-1.603328-1.131-2.678-1.131s-1.962996.37699623-2.665 1.131c-.702004.7540038-1.053 1.7116609-1.053 2.873zm17.706 7.098c-3.137349 0-4.706-2.0279797-4.706-6.084v-7.852h3.588v8.268c0 .7280036.220998 1.3173311.663 1.768s.974997.676 1.599.676c.728004 0 1.312998-.238331 1.755-.715.442002-.4766691.663-1.0876629.663-1.833v-8.164h3.588v13.598h-3.51v-1.586c-.329335.5200026-.814663.9706648-1.456 1.352s-1.369329.572-2.184.572zm17.108-14.274v3.64c-2.444012 0-3.666 1.4559854-3.666 4.368v5.928h-3.588v-13.598h3.51v1.976c.312002-.6933368.79733-1.25233121 1.456-1.677s1.421329-.637 2.288-.637z" fill="#fff"/><path d="m191.464 14.248h-6.188l-1.586 4.68h-3.692l6.448-18.2h3.848l6.448 18.2h-3.692zm-.962-3.042-2.132-6.552-2.106 6.552zm15.002-6.214c3.137349 0 4.706 2.02797972 4.706 6.084v7.852h-3.588v-8.268c0-.72800364-.220998-1.31733108-.663-1.768s-.974997-.676-1.599-.676c-.728004 0-1.312998.23833095-1.755.715s-.663 1.0876629-.663 1.833v8.164h-3.588v-13.598h3.51v1.586c.329335-.5200026.814663-.97066476 1.456-1.352s1.369329-.572 2.184-.572zm8.398 17.68 1.092-2.756c1.178673.6240031 2.469993.936 3.874.936 2.496012 0 3.744-.9013243 3.744-2.704v-.624c-.138667.1906676-.346665.4029988-.624.637s-.727997.4766654-1.352.728-1.29133.377-2.002.377c-1.958676 0-3.531661-.6586601-4.719-1.976s-1.781-3.0333228-1.781-5.148c0-2.0973438.61966-3.81332666 1.859-5.148s2.829657-2.002 4.771-2.002c1.005338 0 1.858996.19499805 2.561.585s1.200332.78433134 1.495 1.183v-1.43h3.38v11.882c0 2.3746785-.667327 4.0863281-2.002 5.135s-3.102656 1.573-5.304 1.573c-1.820009 0-3.483992-.4159958-4.992-1.248zm8.814-10.556c0-1.1613391-.324997-2.1103296-.975-2.847-.650003-.73667035-1.494995-1.105-2.535-1.105-1.022672 0-1.854663.36399636-2.496 1.092s-.962 1.6813274-.962 2.86.324997 2.1363297.975 2.873c.650003.7366704 1.486328 1.105 2.509 1.105 1.040005 0 1.880663-.3639964 2.522-1.092s.962-1.689994.962-2.886zm10.79 7.15c-3.137349 0-4.706-2.0279797-4.706-6.084v-7.852h3.588v8.268c0 .7280036.220998 1.3173311.663 1.768s.974997.676 1.599.676c.728004 0 1.312998-.2383309 1.755-.715.442002-.476669.663-1.0876629.663-1.833v-8.164h3.588v13.598h-3.51v-1.586c-.329335.5200026-.814663.9706648-1.456 1.352s-1.369329.572-2.184.572zm9.854-.338v-18.798h3.588v18.798zm5.642-4.212c0-1.3346733.485328-2.4179958 1.456-3.25s2.244659-1.248 3.822-1.248c1.230673 0 2.209996.2513308 2.938.754v-.884c0-.6066697-.216664-1.09199818-.65-1.456-.433335-.36400182-1.039996-.546-1.82-.546-1.161339 0-2.365994.32066346-3.614.962l-1.352-2.444c.65867-.45066892 1.468995-.83199844 2.431-1.144s1.936995-.468 2.925-.468c2.045344 0 3.501329.47232861 4.368 1.417s1.3 2.24899168 1.3 3.913v8.606h-3.172l-.234-.884c-.76267.8146707-1.863326 1.222-3.302 1.222s-2.647662-.4116625-3.627-1.235c-.979338-.8233374-1.469-1.9283264-1.469-3.315zm4.238-1.456c-.433335.3466684-.65.7973306-.65 1.352s.225331 1.0053316.676 1.352 1.013997.52 1.69.52c.693337 0 1.256665-.1689983 1.69-.507.433336-.3380017.65-.7929971.65-1.365 0-.5893363-.216664-1.0529983-.65-1.391-.433335-.3380017-1.00533-.507-1.716-.507-.693337 0-1.256664.1819982-1.69.546zm17.472-8.268v3.64c-2.444012 0-3.666 1.4559854-3.666 4.368v5.928h-3.588v-13.598h3.51v1.976c.312002-.6933368.79733-1.25233121 1.456-1.677s1.421329-.637 2.288-.637zm12.714 14.274c-1.230673 0-2.274996-.2469975-3.133-.741s-1.503664-1.0876632-1.937-1.781l2.106-1.872c.849338.9880049 1.889327 1.482 3.12 1.482.520003 0 .927332-.1083322 1.222-.325.294668-.2166677.442-.5156648.442-.897 0-.3640018-.220998-.680332-.663-.949-.368335-.22389-.802869-.4297218-1.30361-.6174997l-.30839-.1105003c-.63267-.2166677-1.260997-.4766651-1.885-.78-.624003-.3033348-1.156998-.7626636-1.599-1.378s-.663-1.37366216-.663-2.275c0-1.23067282.467995-2.20999636 1.404-2.938s2.11466-1.092 3.536-1.092c2.114677 0 3.665995.80599194 4.654 2.418l-2.366 1.768c-.693337-.866671-1.507995-1.3-2.444-1.3-.416002 0-.753999.09966567-1.014.299s-.39.46366502-.39.793c0 .38133524.220998.7019987.663.962.368335.2166678.802869.4122682 1.30361.5868053l.30839.1021947c.63267.1993343 1.26533.4419986 1.898.728s1.169998.7323303 1.612 1.339.663 1.3606622.663 2.262c0 1.3000065-.493995 2.3443294-1.482 3.133s-2.235992 1.183-3.744 1.183zm7.15-.338v-18.798h3.588v10.92l4.368-5.72h4.03l-4.784 6.162 5.148 7.436h-4.212l-4.55-7.02v7.02zm13.832 0v-13.598h3.588v13.598zm.286-15.392c-.398669-.39866866-.598-.89266372-.598-1.482s.199331-1.07899805.598-1.469.892664-.585 1.482-.585c.60667 0 1.109331.19499805 1.508.585s.598.87966372.598 1.469-.199331 1.07899805-.598 1.469-.90133.585-1.508.585c-.589336 0-1.083331-.19066476-1.482-.572zm6.136 15.392v-18.798h3.588v18.798zm6.422 0v-18.798h3.588v18.798zm10.582.338c-1.230673 0-2.274996-.2469975-3.133-.741s-1.503664-1.0876632-1.937-1.781l2.106-1.872c.849338.9880049 1.889327 1.482 3.12 1.482.520003 0 .927332-.1083322 1.222-.325.294668-.2166677.442-.5156648.442-.897 0-.3640018-.220998-.680332-.663-.949-.368335-.22389-.802869-.4297218-1.30361-.6174997l-.30839-.1105003c-.63267-.2166677-1.260997-.4766651-1.885-.78-.624003-.3033348-1.156998-.7626636-1.599-1.378s-.663-1.37366216-.663-2.275c0-1.23067282.467995-2.20999636 1.404-2.938s2.11466-1.092 3.536-1.092c2.114677 0 3.665995.80599194 4.654 2.418l-2.366 1.768c-.693337-.866671-1.507995-1.3-2.444-1.3-.416002 0-.753999.09966567-1.014.299s-.39.46366502-.39.793c0 .38133524.220998.7019987.663.962.368335.2166678.802869.4122682 1.30361.5868053l.30839.1021947c.63267.1993343 1.26533.4419986 1.898.728s1.169998.7323303 1.612 1.339.663 1.3606622.663 2.262c0 1.3000065-.493995 2.3443294-1.482 3.133s-2.235992 1.183-3.744 1.183z" fill="#f6c95b"/><path d="m341.77 5.33v-2.86h3.536v2.86h2.548v2.912h-2.548v5.252c0 .9706715.151665 1.620665.455 1.95s.818996.494 1.547.494c.242668 0 .459332-.0086666.65-.026v3.068c-.364002.0866671-.87533.13-1.534.13-1.612008 0-2.794996-.4549955-3.549-1.365-.754004-.9100046-1.131-2.2923241-1.131-4.147v-5.356h-1.43v-2.912zm9.62 11.934c-1.36934-1.3346733-2.054-3.033323-2.054-5.096s.69766-3.77432653 2.093-5.135 3.13299-2.041 5.213-2.041 3.821993.68465982 5.226 2.054 2.106 3.0766564 2.106 5.122c0 2.062677-.688993 3.7613267-2.067 5.096s-3.132989 2.002-5.265 2.002c-2.114677 0-3.865326-.6673267-5.252-2.002zm1.534-5.096c0 1.1440057.350996 2.0843296 1.053 2.821.702004.7366703 1.590328 1.105 2.665 1.105 1.092005 0 1.988996-.3683297 2.691-1.105.702004-.7366704 1.053-1.6769943 1.053-2.821 0-1.1613391-.35533-2.1189962-1.066-2.873-.71067-.75400377-1.603328-1.131-2.678-1.131s-1.962996.37699623-2.665 1.131c-.702004.7540038-1.053 1.7116609-1.053 2.873zm19.552 6.76v-18.798h3.588v6.63c.277335-.38133524.762663-.77133134 1.456-1.17s1.551328-.598 2.574-.598c1.941343 0 3.501327.66299337 4.68 1.989s1.768 3.0463228 1.768 5.161c0 2.0973438-.61966 3.8089934-1.859 5.135s-2.838324 1.989-4.797 1.989c-1.005338 0-1.85033-.1949981-2.535-.585-.68467-.390002-1.182998-.7756648-1.495-1.157v1.404zm3.484-6.76c0 1.1093389.31633 2.0409962.949 2.795s1.477661 1.131 2.535 1.131c1.022672 0 1.858997-.3553298 2.509-1.066s.975-1.663994.975-2.86c0-1.1786726-.320663-2.1406629-.962-2.886-.641337-.74533706-1.481995-1.118-2.522-1.118-1.022672 0-1.858997.35532978-2.509 1.066s-.975 1.6899938-.975 2.938zm17.238 7.098c-3.137349 0-4.706-2.0279797-4.706-6.084v-7.852h3.588v8.268c0 .7280036.220998 1.3173311.663 1.768s.974997.676 1.599.676c.728004 0 1.312998-.238331 1.755-.715.442002-.4766691.663-1.0876629.663-1.833v-8.164h3.588v13.598h-3.51v-1.586c-.329335.5200026-.814663.9706648-1.456 1.352s-1.369329.572-2.184.572zm9.854-.338v-13.598h3.588v13.598zm.286-15.392c-.398669-.39866866-.598-.89266372-.598-1.482s.199331-1.07899805.598-1.469.892664-.585 1.482-.585c.60667 0 1.109331.19499805 1.508.585s.598.87966372.598 1.469-.199331 1.07899805-.598 1.469-.90133.585-1.508.585c-.589336 0-1.083331-.19066476-1.482-.572zm6.136 15.392v-18.798h3.588v18.798zm19.734-18.798v18.798h-3.38v-1.404c-.173334.2253345-.402999.4506655-.689.676s-.740997.4593321-1.365.702-1.282663.364-1.976.364c-1.958676 0-3.55766-.6629934-4.797-1.989s-1.859-3.0376562-1.859-5.135c0-2.1146772.589327-3.83499337 1.768-5.161s2.738657-1.989 4.68-1.989c1.022672 0 1.880663.19933134 2.574.598s1.178665.78866476 1.456 1.17v-6.63zm-6.968 8.034c-1.040005 0-1.880663.37266294-2.522 1.118-.641337.7453371-.962 1.7073274-.962 2.886 0 1.196006.324997 2.1493298.975 2.86s1.486328 1.066 2.509 1.066c1.057339 0 1.90233-.3769962 2.535-1.131s.949-1.6856611.949-2.795c0-1.2480062-.324997-2.22732978-.975-2.938s-1.486328-1.066-2.509-1.066z" fill="#fff"/><path d="m0 44.716c0-1.3346733.48532848-2.4179958 1.456-3.25s2.24465878-1.248 3.822-1.248c1.23067282 0 2.20999636.2513308 2.938.754v-.884c0-.6066697-.2166645-1.0919982-.65-1.456s-1.0399961-.546-1.82-.546c-1.16133914 0-2.36599376.3206635-3.614.962l-1.352-2.444c.65866996-.4506689 1.46899519-.8319984 2.431-1.144s1.93699506-.468 2.925-.468c2.04534356 0 3.501329.4723286 4.368 1.417s1.3 2.2489917 1.3 3.913v8.606h-3.172l-.234-.884c-.76267048.8146707-1.86332614 1.222-3.302 1.222s-2.64766177-.4116625-3.627-1.235c-.97933823-.8233374-1.469-1.9283264-1.469-3.315zm4.238-1.456c-.4333355.3466684-.65.7973306-.65 1.352s.22533108 1.0053316.676 1.352 1.01399662.52 1.69.52c.6933368 0 1.2566645-.1689983 1.69-.507s.65-.7929971.65-1.365c0-.5893363-.2166645-1.0529983-.65-1.391s-1.00532978-.507-1.716-.507c-.6933368 0-1.2566645.1819982-1.69.546zm17.368-8.268c3.137349 0 4.706 2.0279797 4.706 6.084v7.852h-3.588v-8.268c0-.7280036-.2209978-1.3173311-.663-1.768s-.9749969-.676-1.599-.676c-.7280036 0-1.3129978.238331-1.755.715-.4420022.4766691-.663 1.0876629-.663 1.833v8.164h-3.588v-13.598h3.51v1.586c.329335-.5200026.8146635-.9706648 1.456-1.352s1.3693293-.572 2.184-.572zm12.922 18.59h-3.432l1.898-4.992-5.226-13.26h3.848l3.042 8.866 3.068-8.866h3.744zm14.976.208v-18.46h3.38v1.43c.1733342-.2253345.4029986-.4549988.689-.689s.7409969-.4723321 1.365-.715 1.2826632-.364 1.976-.364c1.941343 0 3.5359938.6673267 4.784 2.002s1.872 3.0419896 1.872 5.122c0 2.1146772-.5893274 3.8349934-1.768 5.161s-2.738657 1.989-4.68 1.989c-.7106702 0-1.3779969-.1213321-2.002-.364s-1.0789986-.4809988-1.365-.715-.5069992-.454999-.663-.663v6.266zm3.484-11.7c0 1.2480062.3249968 2.2273298.975 2.938.6500033.7106702 1.4863282 1.066 2.509 1.066 1.0400052 0 1.8806635-.3726629 2.522-1.118s.962-1.7073274.962-2.886c0-1.196006-.3249967-2.1493298-.975-2.86-.6500032-.7106702-1.4863282-1.066-2.509-1.066-1.0573386 0-1.9023302.3769962-2.535 1.131s-.949 1.6856611-.949 2.795zm19.916-7.098v3.64c-2.4440122 0-3.666 1.4559854-3.666 4.368v5.928h-3.588v-13.598h3.51v1.976c.3120016-.6933368.79733-1.2523312 1.456-1.677s1.421329-.637 2.288-.637zm3.406 12.272c-1.3693402-1.3346733-2.054-3.033323-2.054-5.096s.6976597-3.7743265 2.093-5.135 3.1329896-2.041 5.213-2.041 3.821993.6846598 5.226 2.054 2.106 3.0766564 2.106 5.122c0 2.062677-.6889931 3.7613267-2.067 5.096s-3.1329893 2.002-5.265 2.002c-2.1146772 0-3.8653264-.6673267-5.252-2.002zm1.534-5.096c0 1.1440057.3509965 2.0843297 1.053 2.821.7020035.7366704 1.590328 1.105 2.665 1.105 1.0920055 0 1.9889965-.3683296 2.691-1.105.7020035-.7366703 1.053-1.6769943 1.053-2.821 0-1.1613391-.3553298-2.1189962-1.066-2.873s-1.603328-1.131-2.678-1.131-1.9629965.3769962-2.665 1.131-1.053 1.7116609-1.053 2.873zm13.104 6.786v-13.624h3.588v13.78c0 3.1893493-1.733316 4.784-5.2 4.784l-.884-.052v-3.042c.2426679.0346668.4506658.052.624.052 1.2480062 0 1.872-.6326603 1.872-1.898zm.286-15.418c-.3986687-.3986687-.598-.8926637-.598-1.482s.1993313-1.078998.598-1.469c.3986687-.3900019.8926637-.585 1.482-.585.6066697 0 1.1093313.1949981 1.508.585.3986687.390002.598.8796637.598 1.469s-.1993313 1.0789981-.598 1.469c-.3986687.390002-.9013303.585-1.508.585-.5893363 0-1.0833313-.1906648-1.482-.572zm5.408 8.632c0-2.062677.6283271-3.7743265 1.885-5.135 1.256673-1.3606735 2.84699-2.041 4.771-2.041 2.08001 0 3.700661.6456602 4.862 1.937s1.742 3.0636554 1.742 5.317l-.00416.3744005c-.00416.1663997-.01144.301599-.02184.4055995h-9.568c.034667.9186713.38133 1.6683304 1.04 2.249s1.490662.871 2.496.871c1.438674 0 2.53933-.5546611 3.302-1.664l2.366 1.794c-.381335.6933368-1.057328 1.3649968-2.028 2.015-.970672.6500033-2.201326.975-3.692.975-2.149344 0-3.8783268-.6629934-5.187-1.989s-1.963-3.0289896-1.963-5.109zm3.77-1.482h5.85c-.034667-.8320042-.320664-1.4993308-.858-2.002s-1.221996-.754-2.054-.754-1.507997.2599974-2.028.78-.823333 1.1786627-.91 1.976zm18.2 5.408c1.057339 0 2.079995-.4073293 3.068-1.222l.962 2.938c-1.213339.9706715-2.625992 1.456-4.238 1.456-2.114677 0-3.852327-.6673267-5.213-2.002s-2.041-3.033323-2.041-5.096.688993-3.7743265 2.067-5.135 3.098323-2.041 5.161-2.041c1.594675 0 3.02466.4853285 4.29 1.456l-1.014 3.016c-.953338-.866671-2.010661-1.3-3.172-1.3-1.126672 0-2.03233.3813295-2.717 1.144s-1.027 1.7073277-1.027 2.834c0 1.1613391.363996 2.1103297 1.092 2.847.728004.7366704 1.655328 1.105 2.782 1.105zm6.37-10.764v-2.86h3.536v2.86h2.548v2.912h-2.548v5.252c0 .9706715.151665 1.620665.455 1.95s.818996.494 1.547.494c.242668 0 .459332-.0086666.65-.026v3.068c-.364002.0866671-.87533.13-1.534.13-1.612008 0-2.794996-.4549954-3.549-1.365-.754004-.9100045-1.131-2.2923241-1.131-4.147v-5.356h-1.43v-2.912z" fill="#f6c95b"/><path d="m141.05 47.264c-1.36934-1.3346733-2.054-3.033323-2.054-5.096s.69766-3.7743265 2.093-5.135 3.13299-2.041 5.213-2.041 3.821993.6846598 5.226 2.054 2.106 3.0766564 2.106 5.122c0 2.062677-.688993 3.7613267-2.067 5.096s-3.132989 2.002-5.265 2.002c-2.114677 0-3.865326-.6673267-5.252-2.002zm1.534-5.096c0 1.1440057.350996 2.0843296 1.053 2.821.702004.7366703 1.590328 1.105 2.665 1.105 1.092005 0 1.988996-.3683297 2.691-1.105.702004-.7366704 1.053-1.6769943 1.053-2.821 0-1.1613391-.35533-2.1189962-1.066-2.873s-1.603328-1.131-2.678-1.131-1.962996.3769962-2.665 1.131-1.053 1.7116609-1.053 2.873zm20.358-7.176v3.64c-2.444012 0-3.666 1.4559854-3.666 4.368v5.928h-3.588v-13.598h3.51v1.976c.312002-.6933368.79733-1.2523312 1.456-1.677s1.421329-.637 2.288-.637z" fill="#fff"/><path d="m172.484 52.672 1.092-2.756c1.178673.6240031 2.469993.936 3.874.936 2.496012 0 3.744-.9013243 3.744-2.704v-.624c-.138667.1906676-.346665.4029988-.624.637s-.727997.4766654-1.352.728-1.29133.377-2.002.377c-1.958676 0-3.531661-.6586601-4.719-1.976s-1.781-3.0333228-1.781-5.148c0-2.0973438.61966-3.8133267 1.859-5.148s2.829657-2.002 4.771-2.002c1.005338 0 1.858996.1949981 2.561.585.702004.390002 1.200332.7843313 1.495 1.183v-1.43h3.38v11.882c0 2.3746785-.667327 4.0863281-2.002 5.135s-3.102656 1.573-5.304 1.573c-1.820009 0-3.483992-.4159958-4.992-1.248zm8.814-10.556c0-1.1613391-.324997-2.1103296-.975-2.847-.650003-.7366703-1.494995-1.105-2.535-1.105-1.022672 0-1.854663.3639964-2.496 1.092s-.962 1.6813274-.962 2.86.324997 2.1363297.975 2.873c.650003.7366704 1.486328 1.105 2.509 1.105 1.040005 0 1.880663-.3639964 2.522-1.092s.962-1.689994.962-2.886zm5.46.052c0-2.062677.628327-3.7743265 1.885-5.135s2.84699-2.041 4.771-2.041c2.08001 0 3.700661.6456602 4.862 1.937s1.742 3.0636554 1.742 5.317l-.00416.3744005c-.00416.1663997-.01144.301599-.02184.4055995h-9.568c.034667.9186713.38133 1.6683304 1.04 2.249s1.490662.871 2.496.871c1.438674 0 2.53933-.5546611 3.302-1.664l2.366 1.794c-.381335.6933368-1.057328 1.3649968-2.028 2.015-.970672.6500033-2.201326.975-3.692.975-2.149344 0-3.878327-.6629934-5.187-1.989s-1.963-3.0289896-1.963-5.109zm3.77-1.482h5.85c-.034667-.8320042-.320664-1.4993308-.858-2.002s-1.221996-.754-2.054-.754-1.507997.2599974-2.028.78-.823333 1.1786627-.91 1.976zm11.83-5.356v-2.86h3.536v2.86h2.548v2.912h-2.548v5.252c0 .9706715.151665 1.620665.455 1.95s.818996.494 1.547.494c.242668 0 .459332-.0086666.65-.026v3.068c-.364002.0866671-.87533.13-1.534.13-1.612008 0-2.794996-.4549954-3.549-1.365-.754004-.9100045-1.131-2.2923241-1.131-4.147v-5.356h-1.43v-2.912zm21.944-.338c3.137349 0 4.706 2.0279797 4.706 6.084v7.852h-3.562v-8.268c0-.7280036-.220998-1.3173311-.663-1.768s-.974997-.676-1.599-.676c-.745337 0-1.343331.238331-1.794.715-.450669.4766691-.676 1.0876629-.676 1.833v8.164h-3.588v-18.798h3.588v6.786c.329335-.537336.805997-.9923315 1.43-1.365s1.343329-.559 2.158-.559zm7.436 13.936v-13.598h3.588v13.598zm.286-15.392c-.398669-.3986687-.598-.8926637-.598-1.482s.199331-1.078998.598-1.469c.398669-.3900019.892664-.585 1.482-.585.60667 0 1.109331.1949981 1.508.585.398669.390002.598.8796637.598 1.469s-.199331 1.0789981-.598 1.469c-.398669.390002-.90133.585-1.508.585-.589336 0-1.083331-.1906648-1.482-.572zm13.39 1.456v3.64c-2.444012 0-3.666 1.4559854-3.666 4.368v5.928h-3.588v-13.598h3.51v1.976c.312002-.6933368.79733-1.2523312 1.456-1.677s1.421329-.637 2.288-.637zm1.378 7.176c0-2.062677.628327-3.7743265 1.885-5.135s2.84699-2.041 4.771-2.041c2.08001 0 3.700661.6456602 4.862 1.937s1.742 3.0636554 1.742 5.317l-.00416.3744005c-.00416.1663997-.01144.301599-.02184.4055995h-9.568c.034667.9186713.38133 1.6683304 1.04 2.249s1.490662.871 2.496.871c1.438674 0 2.53933-.5546611 3.302-1.664l2.366 1.794c-.381335.6933368-1.057328 1.3649968-2.028 2.015-.970672.6500033-2.201326.975-3.692.975-2.149344 0-3.878327-.6629934-5.187-1.989s-1.963-3.0289896-1.963-5.109zm3.77-1.482h5.85c-.034667-.8320042-.320664-1.4993308-.858-2.002s-1.221996-.754-2.054-.754-1.507997.2599974-2.028.78-.823333 1.1786627-.91 1.976zm24.804-10.556v18.798h-3.38v-1.404c-.173334.2253345-.402999.4506655-.689.676s-.740997.4593321-1.365.702-1.282663.364-1.976.364c-1.958676 0-3.55766-.6629934-4.797-1.989s-1.859-3.0376562-1.859-5.135c0-2.1146772.589327-3.8349934 1.768-5.161s2.738657-1.989 4.68-1.989c1.022672 0 1.880663.1993313 2.574.598s1.178665.7886648 1.456 1.17v-6.63zm-6.968 8.034c-1.040005 0-1.880663.3726629-2.522 1.118s-.962 1.7073274-.962 2.886c0 1.196006.324997 2.1493298.975 2.86s1.486328 1.066 2.509 1.066c1.057339 0 1.90233-.3769962 2.535-1.131s.949-1.6856611.949-2.795c0-1.2480062-.324997-2.2273298-.975-2.938s-1.486328-1.066-2.509-1.066z" fill="#f6c95b"/><path d="m283.842 44.716c0-1.3346733.485328-2.4179958 1.456-3.25s2.244659-1.248 3.822-1.248c1.230673 0 2.209996.2513308 2.938.754v-.884c0-.6066697-.216665-1.0919982-.65-1.456-.433336-.3640018-1.039996-.546-1.82-.546-1.161339 0-2.365994.3206635-3.614.962l-1.352-2.444c.65867-.4506689 1.468995-.8319984 2.431-1.144s1.936995-.468 2.925-.468c2.045344 0 3.501329.4723286 4.368 1.417s1.3 2.2489917 1.3 3.913v8.606h-3.172l-.234-.884c-.76267.8146707-1.863326 1.222-3.302 1.222s-2.647662-.4116625-3.627-1.235c-.979338-.8233374-1.469-1.9283264-1.469-3.315zm4.238-1.456c-.433336.3466684-.65.7973306-.65 1.352s.225331 1.0053316.676 1.352 1.013997.52 1.69.52c.693337 0 1.256664-.1689983 1.69-.507.433335-.3380017.65-.7929971.65-1.365 0-.5893363-.216665-1.0529983-.65-1.391-.433336-.3380017-1.00533-.507-1.716-.507-.693337 0-1.256665.1819982-1.69.546zm10.556-7.93v-2.86h3.536v2.86h2.548v2.912h-2.548v5.252c0 .9706715.151665 1.620665.455 1.95s.818996.494 1.547.494c.242668 0 .459332-.0086666.65-.026v3.068c-.364002.0866671-.87533.13-1.534.13-1.612008 0-2.794996-.4549954-3.549-1.365-.754004-.9100045-1.131-2.2923241-1.131-4.147v-5.356h-1.43v-2.912zm13.988 9.386c0-1.3346733.485328-2.4179958 1.456-3.25s2.244659-1.248 3.822-1.248c1.230673 0 2.209996.2513308 2.938.754v-.884c0-.6066697-.216665-1.0919982-.65-1.456-.433336-.3640018-1.039996-.546-1.82-.546-1.161339 0-2.365994.3206635-3.614.962l-1.352-2.444c.65867-.4506689 1.468995-.8319984 2.431-1.144s1.936995-.468 2.925-.468c2.045344 0 3.501329.4723286 4.368 1.417s1.3 2.2489917 1.3 3.913v8.606h-3.172l-.234-.884c-.76267.8146707-1.863326 1.222-3.302 1.222s-2.647662-.4116625-3.627-1.235c-.979338-.8233374-1.469-1.9283264-1.469-3.315zm4.238-1.456c-.433336.3466684-.65.7973306-.65 1.352s.225331 1.0053316.676 1.352 1.013997.52 1.69.52c.693337 0 1.256664-.1689983 1.69-.507.433335-.3380017.65-.7929971.65-1.365 0-.5893363-.216665-1.0529983-.65-1.391-.433336-.3380017-1.00533-.507-1.716-.507-.693337 0-1.256665.1819982-1.69.546zm17.004-7.93v-2.86h3.536v2.86h2.548v2.912h-2.548v5.252c0 .9706715.151665 1.620665.455 1.95s.818996.494 1.547.494c.242668 0 .459332-.0086666.65-.026v3.068c-.364002.0866671-.87533.13-1.534.13-1.612008 0-2.794996-.4549954-3.549-1.365-.754004-.9100045-1.131-2.2923241-1.131-4.147v-5.356h-1.43v-2.912zm9.62 11.934c-1.36934-1.3346733-2.054-3.033323-2.054-5.096s.69766-3.7743265 2.093-5.135 3.13299-2.041 5.213-2.041 3.821993.6846598 5.226 2.054 2.106 3.0766564 2.106 5.122c0 2.062677-.688993 3.7613267-2.067 5.096s-3.132989 2.002-5.265 2.002c-2.114677 0-3.865326-.6673267-5.252-2.002zm1.534-5.096c0 1.1440057.350996 2.0843297 1.053 2.821.702004.7366704 1.590328 1.105 2.665 1.105 1.092005 0 1.988996-.3683296 2.691-1.105.702004-.7366703 1.053-1.6769943 1.053-2.821 0-1.1613391-.35533-2.1189962-1.066-2.873s-1.603328-1.131-2.678-1.131-1.962996.3769962-2.665 1.131-1.053 1.7116609-1.053 2.873zm13.104 11.622v-18.46h3.38v1.43c.173334-.2253345.402999-.4549988.689-.689s.740997-.4723321 1.365-.715 1.282663-.364 1.976-.364c1.941343 0 3.535994.6673267 4.784 2.002s1.872 3.0419896 1.872 5.122c0 2.1146772-.589327 3.8349934-1.768 5.161s-2.738657 1.989-4.68 1.989c-.71067 0-1.377997-.1213321-2.002-.364s-1.078999-.4809988-1.365-.715-.506999-.454999-.663-.663v6.266zm3.484-11.7c0 1.2480062.324997 2.2273298.975 2.938s1.486328 1.066 2.509 1.066c1.040005 0 1.880663-.3726629 2.522-1.118s.962-1.7073274.962-2.886c0-1.196006-.324997-2.1493298-.975-2.86s-1.486328-1.066-2.509-1.066c-1.057339 0-1.90233.3769962-2.535 1.131s-.949 1.6856611-.949 2.795zm25.818 4.004c1.057339 0 2.079995-.4073293 3.068-1.222l.962 2.938c-1.213339.9706715-2.625992 1.456-4.238 1.456-2.114677 0-3.852327-.6673267-5.213-2.002s-2.041-3.033323-2.041-5.096.688993-3.7743265 2.067-5.135 3.098323-2.041 5.161-2.041c1.594675 0 3.02466.4853285 4.29 1.456l-1.014 3.016c-.953338-.866671-2.010661-1.3-3.172-1.3-1.126672 0-2.03233.3813295-2.717 1.144s-1.027 1.7073277-1.027 2.834c0 1.1613391.363996 2.1103297 1.092 2.847.728004.7366704 1.655328 1.105 2.782 1.105zm7.332 1.17c-1.36934-1.3346733-2.054-3.033323-2.054-5.096s.69766-3.7743265 2.093-5.135 3.13299-2.041 5.213-2.041 3.821993.6846598 5.226 2.054 2.106 3.0766564 2.106 5.122c0 2.062677-.688993 3.7613267-2.067 5.096s-3.132989 2.002-5.265 2.002c-2.114677 0-3.865326-.6673267-5.252-2.002zm1.534-5.096c0 1.1440057.350996 2.0843297 1.053 2.821.702004.7366704 1.590328 1.105 2.665 1.105 1.092005 0 1.988996-.3683296 2.691-1.105.702004-.7366703 1.053-1.6769943 1.053-2.821 0-1.1613391-.35533-2.1189962-1.066-2.873s-1.603328-1.131-2.678-1.131-1.962996.3769962-2.665 1.131-1.053 1.7116609-1.053 2.873zm32.526-2.21v8.97h-3.588v-8.138c0-.7973373-.190665-1.4256644-.572-1.885s-.90133-.689-1.56-.689-1.191665.2296644-1.599.689-.611 1.0963293-.611 1.911v8.112h-3.588v-8.268c0-.7626705-.186331-1.3606645-.559-1.794s-.88833-.65-1.547-.65-1.191665.2296644-1.599.689-.611 1.0876627-.611 1.885v8.138h-3.588v-13.598h3.51v1.586c.277335-.537336.723664-.9923315 1.339-1.365s1.347662-.559 2.197-.559c1.716009 0 2.95533.6759932 3.718 2.028.866671-1.3520068 2.209991-2.028 4.03-2.028 1.508008 0 2.656329.4506622 3.445 1.352s1.183 2.1059925 1.183 3.614zm2.704 13.832v-18.46h3.38v1.43c.173334-.2253345.402999-.4549988.689-.689s.740997-.4723321 1.365-.715 1.282663-.364 1.976-.364c1.941343 0 3.535994.6673267 4.784 2.002s1.872 3.0419896 1.872 5.122c0 2.1146772-.589327 3.8349934-1.768 5.161s-2.738657 1.989-4.68 1.989c-.71067 0-1.377997-.1213321-2.002-.364s-1.078999-.4809988-1.365-.715-.506999-.454999-.663-.663v6.266zm3.484-11.7c0 1.2480062.324997 2.2273298.975 2.938s1.486328 1.066 2.509 1.066c1.040005 0 1.880663-.3726629 2.522-1.118s.962-1.7073274.962-2.886c0-1.196006-.324997-2.1493298-.975-2.86s-1.486328-1.066-2.509-1.066c-1.057339 0-1.90233.3769962-2.535 1.131s-.949 1.6856611-.949 2.795zm11.882 2.626c0-1.3346733.485328-2.4179958 1.456-3.25s2.244659-1.248 3.822-1.248c1.230673 0 2.209996.2513308 2.938.754v-.884c0-.6066697-.216665-1.0919982-.65-1.456-.433336-.3640018-1.039996-.546-1.82-.546-1.161339 0-2.365994.3206635-3.614.962l-1.352-2.444c.65867-.4506689 1.468995-.8319984 2.431-1.144s1.936995-.468 2.925-.468c2.045344 0 3.501329.4723286 4.368 1.417s1.3 2.2489917 1.3 3.913v8.606h-3.172l-.234-.884c-.76267.8146707-1.863326 1.222-3.302 1.222s-2.647662-.4116625-3.627-1.235c-.979338-.8233374-1.469-1.9283264-1.469-3.315zm4.238-1.456c-.433336.3466684-.65.7973306-.65 1.352s.225331 1.0053316.676 1.352 1.013997.52 1.69.52c.693337 0 1.256664-.1689983 1.69-.507.433335-.3380017.65-.7929971.65-1.365 0-.5893363-.216665-1.0529983-.65-1.391-.433336-.3380017-1.00533-.507-1.716-.507-.693337 0-1.256665.1819982-1.69.546zm17.368-8.268c3.137349 0 4.706 2.0279797 4.706 6.084v7.852h-3.588v-8.268c0-.7280036-.220998-1.3173311-.663-1.768s-.974997-.676-1.599-.676c-.728004 0-1.312998.238331-1.755.715-.442002.4766691-.663 1.0876629-.663 1.833v8.164h-3.588v-13.598h3.51v1.586c.329335-.5200026.814663-.9706648 1.456-1.352s1.369329-.572 2.184-.572zm12.922 18.59h-3.432l1.898-4.992-5.226-13.26h3.848l3.042 8.866 3.068-8.866h3.744zm11.856-4.94c-.416002.4160021-.935997.624-1.56.624s-1.148331-.2123312-1.573-.637-.637-.9403303-.637-1.547c0-.6240031.212331-1.1526645.637-1.586s.948997-.65 1.573-.65 1.148331.2166645 1.573.65.637.9619969.637 1.586c0 .6066697-.216665 1.1266645-.65 1.56z" fill="#fff"/></g><g transform="translate(26.462647 27)"><path d="m23.4023551 0-23.30289509 8.25518077 3.55423268 30.60881783 19.74866241 10.8660061 19.7486625-10.8660061 3.5542327-30.60881783" fill="#dd0031"/><path d="m23.4023551 0v5.52003052-.02486501 44.23483919l19.7486625-10.8660061 3.5542327-30.60881783" fill="#c3002f"/><path d="m23.4023551 5.49516551-14.56796604 32.44882809h5.43227164l2.9282197-7.2605807h12.3652194l2.9282197 7.2605807h5.430809zm4.2563034 20.71254699h-8.5126067l4.2563033-10.169786z" fill="#fff" fill-rule="nonzero"/></g><g fill-rule="nonzero"><use fill="none" xlink:href="#d"/><use fill="#000" filter="url(#e)" xlink:href="#d"/></g></g></svg>