<svg height="250" viewBox="0 0 300 250" width="300" xmlns="http://www.w3.org/2000/svg" xmlns:xlink="http://www.w3.org/1999/xlink"><defs><rect id="a" height="250" rx="15" width="300"/><rect id="b" height="40" rx="20" width="163"/><filter id="c" height="105%" width="101.2%" x="-.6%" y="-2.5%"><feOffset dx="0" dy="-2" in="SourceAlpha" result="shadowOffsetInner1"/><feComposite in="shadowOffsetInner1" in2="SourceAlpha" k2="-1" k3="1" operator="arithmetic" result="shadowInnerInner1"/><feColorMatrix in="shadowInnerInner1" type="matrix" values="0 0 0 0 0   0 0 0 0 0   0 0 0 0 0  0 0 0 0.245738636 0"/></filter><linearGradient id="d" x1="98.336583%" x2="35.67497%" y1="90.013%" y2="17.616%"><stop offset="0" stop-color="#ff16b8"/><stop offset="1" stop-color="#ff16b8"/></linearGradient><linearGradient id="e" x1="20.333019%" x2="79.666981%" y1="0%" y2="100%"><stop offset="0" stop-color="#ff16b8"/><stop offset="1" stop-color="#ff16b8" stop-opacity=".461"/></linearGradient><mask id="f" fill="#fff"><use fill="#fff" fill-rule="evenodd" xlink:href="#a"/></mask></defs><g fill="none" fill-rule="evenodd"><use fill="#131231" fill-rule="nonzero" xlink:href="#a"/><g fill="#fff" mask="url(#f)"><g transform="translate(-53 -8)"><path d="m0 333c4.389057-77.276042 36.8544188-126.609375 97.396085-148 90.8125-32.085937 151.929688 17.828125 210.953125-32.085937 39.348959-33.276042 42.682292-84.2473963 10-152.914063h95c8.284272 0 15 6.71572875 15 15v303c0 8.284271-6.715728 15-15 15z" fill-opacity=".082632"/><g fill-opacity=".1"><circle cx="325.5" cy="196.5" r="3.5"/><circle cx="158.5" cy="207.5" r="3.5"/><circle cx="240.5" cy="159.5" r="3.5"/></g></g></g><circle cx="243" cy="166" fill="#262642" mask="url(#f)" r="32"/><g mask="url(#f)"><g fill="#61dafb" transform="translate(224 149.235294)"><path d="m37.9463529 16.7647059c0-2.4934706-3.1439411-4.8572941-7.9632353-6.3225294 1.1120589-4.87964709.6180589-8.76235297-1.5602352-10.0051765-.5029412-.29058823-1.0885883-.42917647-1.7301177-.42917647v1.71c.3554118 0 .6415294.07041176.8807059.20117647 1.0505882.59794118 1.5054706 2.87682353 1.1511765 5.80729412-.0860589.72088235-.2246471 1.48088235-.3945295 2.25541176-1.6145299-.38646595-3.2528494-.66574192-4.9042352-.836-.9844517-1.34872731-2.0579211-2.63016967-3.2132353-3.8357647 2.5180588-2.32470589 4.8807647-3.59882353 6.4879411-3.59882353v-1.71111765c-2.1235294 0-4.9042353 1.50435294-7.7162353 4.11294118-2.8108823-2.59294118-5.5915882-4.08276471-7.7151176-4.08276471v1.71111765c1.5982353 0 3.9698823 1.26629412 6.4868235 3.57647059-1.149693 1.20139993-2.2154589 2.48039375-3.1897647 3.82794117-1.744647.18441177-3.397647.46829412-4.91205881.84382353-.17047187-.73433359-.30475149-1.47660146-.40235294-2.22411765-.36211764-2.93158823.08605883-5.21047058 1.12882355-5.81623529.2313529-.13858823.5331176-.20005882.8885294-.20005882v-1.71c-.6493529 0-1.2361177.13747059-1.74576471.42917647-2.17047059 1.24170588-2.65776471 5.11770588-1.53676471 9.98170588-4.8047647 1.4730588-7.93305882 3.8290588-7.93305882 6.3147059 0 2.4934706 3.14394118 4.8572941 7.96323529 6.3225294-1.11205882 4.8796471-.61805882 8.7623529 1.5602353 10.0051765.50294115.2905882 1.08858825.4291764 1.73794115.4291764 2.1235294 0 4.9042353-1.5032353 7.7162353-4.1129411 2.8108824 2.5929411 5.5915883 4.0827647 7.7151177 4.0827647.6482353 0 1.2361176-.1385883 1.7457647-.4302942 2.1704706-1.2428235 2.656647-5.1177058 1.5367647-9.9817058 4.7891176-1.4652353 7.9174117-3.8290589 7.9174117-6.3147059zm-10.0565882-5.1177059c-.3003013 1.0260071-.6482671 2.0374578-1.0427647 3.0310588-.3162941-.6147059-.6482353-1.2282941-1.0114706-1.8418823-.3553909-.6076558-.7261974-1.2061635-1.1120588-1.7949412 1.0964118.1609412 2.1548235.3598823 3.1662941.6057647zm-3.5373529 8.1711176c-.5784505 1.0031372-1.1993057 1.9812171-1.8608824 2.9315883-2.3179234.2029847-4.6490384.2056023-6.9674118.0078235-.6625131-.946401-1.2859388-1.9195715-1.8687058-2.9170588-.5795061-.9937704-1.1157332-2.0121546-1.6071765-3.0522941.9817796-2.0919103 2.1393462-4.0967139 3.4602353-5.9928236 2.3179234-.2029847 4.6490384-.2056023 6.9674118-.0078235.6624871.9460358 1.2859125 1.918833 1.8687058 2.9159412.5867647 1.0058823 1.1198824 2.0251765 1.6071765 3.0534118-.4872941 1.0282352-1.0204118 2.0564705-1.5993529 3.0623529zm2.4945882-.9969411c.4168824 1.0282353.7722941 2.0564706 1.0662353 3.0534117-1.0114706.2458824-2.0788235.4526471-3.1819412.6147059.3777647-.5923529.7566471-1.1981176 1.1120588-1.8195294.3554118-.6135882.687353-1.235 1.0036471-1.8485882zm-7.8313529 8.1867647c-.7573368-.7810977-1.4739522-1.6006729-2.147-2.4554706.6951764.0301765 1.4048823.053647 2.1235294.053647.7264706 0 1.444-.015647 2.147-.053647-.6630136.8562113-1.371894 1.6759009-2.1235294 2.4554706zm-5.7469412-4.5197647c-1.0641616-.1532641-2.1207097-.3553993-3.1662941-.6057647.2861176-.9902353.6415294-2.0106471 1.0427647-3.0310589.3162941.6147059.6482353 1.2282942 1.0114706 1.8418824.3632353.6147059.7342941 1.2126471 1.1120588 1.7949412zm5.7089412-15.96670591c.7569551.78112542 1.473197 1.60070015 2.1458823 2.45547059-.7073623-.03350258-1.4153778-.05138929-2.1235294-.05364706-.7264706 0-1.444.01564706-2.147.05364706.6630135-.85621129 1.371894-1.67590092 2.1235294-2.45547059zm-5.7167647 4.52088231c-.7657226 1.1837371-1.4718377 2.4049843-2.1157059 3.6591765-.4055036-.9996146-.7613496-2.0186619-1.0662353-3.0534118 1.0514871-.2473751 2.1131121-.4494829 3.1819412-.6057647zm-6.98976475 9.6061765c-2.73376471-1.1601176-4.50188236-2.679-4.50188236-3.8838235s1.76811765-2.7315294 4.50188236-3.8827059c.665-.2838824 1.39035294-.5364706 2.14029411-.7745294.47239335 1.5948178 1.05267267 3.1556721 1.73682354 4.6717647-.67708723 1.5087956-1.24992092 3.0622429-1.71447059 4.6494118-.73318665-.2254285-1.45492842-.4865237-2.16264706-.782353zm4.15541175 10.9641177c-1.05058822-.5990589-1.50547058-2.8779412-1.15117646-5.8084118.08605882-.7208824.22464706-1.4808824.39452941-2.2554118 1.51441175.3688236 3.16629415.6515883 4.90423525.836.9844517 1.3487273 2.0579211 2.6301697 3.2132353 3.8357647-2.5180588 2.3247059-4.8807647 3.5988236-6.4879411 3.5988236-.3464706-.0078236-.6404118-.0771177-.8717647-.2067647zm18.3204706-5.8464118c.3632353 2.9304706-.0849412 5.2093529-1.1277059 5.8151176-.2313529.1385883-.5331176.2000589-.8885294.2000589-1.5982353 0-3.9698823-1.2662942-6.4868235-3.5764706 1.149693-1.2014 2.2154589-2.4803938 3.1897647-3.8279412 1.6547578-.1683596 3.2959812-.450299 4.9120588-.8438235.1777059.7745294.3162941 1.52.4023529 2.2330588zm2.9729412-5.1188235c-.6638824.285-1.3892353.5375882-2.1391765.775647-.4723933-1.5948178-1.0526727-3.1556721-1.7368235-4.6717647.6770872-1.5087956 1.2499209-3.0622429 1.7144706-4.6494117.7644706.2369411 1.4898235.4973529 2.1704706.7823529 2.7337647 1.1578823 4.5018823 2.6767647 4.5018823 3.8815882-.0067059 1.2048236-1.7759412 2.7315294-4.5097059 3.8827059z" fill-rule="nonzero"/><ellipse cx="18.992177" cy="16.764706" rx="3.529529" ry="3.506059"/></g></g><g fill-rule="nonzero" transform="translate(25 187)"><use fill="#ce1f99" xlink:href="#b"/><use fill="#000" filter="url(#c)" xlink:href="#b"/><g fill="#fff"><path d="m17 5h-13.17l2.88-2.88c.39-.39.39-1.02 0-1.41s-1.02-.39-1.41 0l-4.59 4.59c-.39.39-.39 1.02 0 1.41l4.59 4.59c.39.39 1.02.39 1.41 0s.39-1.02 0-1.41l-2.88-2.89h13.17c.55 0 1-.45 1-1s-.45-1-1-1z" transform="matrix(-1 0 0 1 148 12)"/><path d="m19.064 23.208c1.088 0 1.9546667-.3066667 2.6-.92s.968-1.4.968-2.36c0-.5546667-.1253333-1.0426667-.376-1.464s-.5626667-.752-.936-.992-.7813333-.472-1.224-.696-.8506667-.4213333-1.224-.592-.6853333-.392-.936-.664-.376-.5786667-.376-.92c0-.3946667.1386667-.7226667.416-.984s.656-.392 1.136-.392c.832 0 1.456.4373333 1.872 1.312l1.472-.656c-.0853333-.2346667-.2-.4666667-.344-.696s-.344-.472-.6-.728-.5893333-.464-1-.624-.8666667-.24-1.368-.24c-1.0133333 0-1.8266667.2826667-2.44.848s-.92 1.2906667-.92 2.176c0 .6613333.1733333 1.2293333.52 1.704s.7653333.84 1.256 1.096.984.496 1.48.72.9173333.4933333 1.264.808.52.6853333.52 1.112c0 .4693333-.152.8373333-.456 1.104s-.712.4-1.224.4c-1.056 0-1.7866667-.528-2.192-1.584l-1.504.704c.096.288.2266667.5626667.392.824s.3893333.528.672.8.6426667.4906667 1.08.656.928.248 1.472.248zm7.08-.208v-5.04c0-.576.1706667-1.0453333.512-1.408s.784-.544 1.328-.544c.4906667 0 .8933333.1626667 1.208.488s.472.7706667.472 1.336v5.168h1.728v-5.024c0-1.0133333-.2346667-1.856-.704-2.528s-1.2053333-1.008-2.208-1.008c-.5226667 0-.992.1253333-1.408.376s-.7253333.5573333-.928.92v-4.304h-1.744v11.568zm11.24.208c1.2693333 0 2.3253333-.416 3.168-1.248s1.264-1.8773333 1.264-3.136-.4186667-2.304-1.256-3.136-1.896-1.248-3.176-1.248c-1.2586667 0-2.3093333.4186667-3.152 1.256s-1.264 1.8853333-1.264 3.144c0 1.2693333.416 2.3146667 1.248 3.136s1.888 1.232 3.168 1.232zm0-1.552c-.7786667 0-1.416-.264-1.912-.792s-.744-1.2026667-.744-2.024.2453333-1.4986667.736-2.032c.5013333-.544 1.1413333-.816 1.92-.816s1.4213333.2666667 1.928.8.76 1.2106667.76 2.032-.2533333 1.4986667-.76 2.032-1.1493333.8-1.928.8zm9.784 1.344 1.888-5.984 1.872 5.984h1.936l2.656-8.352h-1.888l-1.84 6.4-1.904-6.4h-1.664c-1.2693333 4.2346667-1.9093333 6.368-1.92 6.4l-1.824-6.4h-1.888l2.656 8.352zm15.6 0v-5.024c0-.5866667.16-1.0613333.48-1.424s.72-.544 1.2-.544c.5013333 0 .8933333.1626667 1.176.488s.424.7706667.424 1.336v5.168h1.744v-4.992c0-.6293333.1573333-1.12.472-1.472s.7226667-.528 1.224-.528c1.0666667 0 1.6.6613333 1.6 1.984v5.008h1.728v-5.456c0-.9386667-.2453333-1.6906667-.736-2.256s-1.1946667-.848-2.112-.848c-1.1946667 0-2.0533333.464-2.576 1.392-.4373333-.928-1.2373333-1.392-2.4-1.392-.5333333 0-1 .128-1.4.384s-.6853333.56-.856.912v-1.088h-1.712v8.352zm15.976.208c.8853333 0 1.6213333-.1893333 2.208-.568s1.0133333-.7973333 1.28-1.256l-1.152-.864c-.5333333.7786667-1.3013333 1.168-2.304 1.168-.7466667 0-1.3626667-.224-1.848-.672s-.7333333-1.04-.744-1.776h6.288c.0106667-.096.016-.24.016-.432 0-1.3226667-.3573333-2.3813333-1.072-3.176s-1.696-1.192-2.944-1.192c-1.152 0-2.1173333.416-2.896 1.248s-1.168 1.888-1.168 3.168.4 2.3253333 1.2 3.136 1.8453333 1.216 3.136 1.216zm1.968-5.168h-4.464c.0533333-.6506667.288-1.1706667.704-1.56s.928-.584 1.536-.584c.6186667 0 1.136.1893333 1.552.568s.64.904.672 1.576zm9.344 4.96v-5.04c0-.576.1706667-1.0453333.512-1.408s.784-.544 1.328-.544c.4906667 0 .8933333.1626667 1.208.488s.472.7706667.472 1.336v5.168h1.728v-5.024c0-1.0133333-.2346667-1.856-.704-2.528s-1.2053333-1.008-2.208-1.008c-.5226667 0-.992.1253333-1.408.376s-.7253333.5573333-.928.92v-4.304h-1.744v11.568zm11.24.208c1.269333 0 2.325333-.416 3.168-1.248s1.264-1.8773333 1.264-3.136-.418667-2.304-1.256-3.136-1.896-1.248-3.176-1.248c-1.258667 0-2.3093333.4186667-3.152 1.256s-1.264 1.8853333-1.264 3.144c0 1.2693333.416 2.3146667 1.248 3.136s1.888 1.232 3.168 1.232zm0-1.552c-.778667 0-1.416-.264-1.912-.792s-.744-1.2026667-.744-2.024.2453333-1.4986667.736-2.032c.5013333-.544 1.141333-.816 1.92-.816s1.421333.2666667 1.928.8.76 1.2106667.76 2.032-.253333 1.4986667-.76 2.032-1.149333.8-1.928.8zm9.784 1.344 1.888-5.984 1.872 5.984h1.936l2.656-8.352h-1.888l-1.84 6.4-1.904-6.4h-1.664c-1.269333 4.2346667-1.909333 6.368-1.92 6.4l-1.824-6.4h-1.888l2.656 8.352z"/></g></g><g transform="translate(25 25)"><path d="m14.4267454.10452911h-3.0114386v8.84400369c0 3.1338665-2.50602972 5.6778663-5.59312207 5.6778663-2.89322968 0-5.27028028-2.2274665-5.56054892-5.08799967.34411938 4.49839977 4.0548296 8.03599957 8.57225023 8.03599957 4.75410116 0 8.60456486-3.9087998 8.60456486-8.73493286v-5.67759966c.0013235-.8112676-.3155535-1.5896956-.8806451-2.16334921s-1.3319013-.89533174-2.1310604-.89398816z" fill="url(#d)"/><path d="m11.4153068 8.88319947v.17466666c0 .02186666 0 .04373333-.0107702.06559999 0 .0216 0 .04346667-.0107701.06533333 0 .02186667-.0107702.04373333-.0107702.0656 0 .02186666-.0105074.04373333-.0105074.06559999 0 .0216-.0110329.04346667-.0110329.06533333 0 .02186667-.0105074.04373333-.0105074.0656s-.0110329.04373333-.0110329.0656c-.0105074.02186666-.0105074.04346666-.0215403.06533333-.0105074.02186666-.0105074.04373333-.0215403.06559999-.0105074.02186667-.0105074.04373333-.0212776.0656-.0107701.02186666-.0107701.04346666-.0215403.05439999-.0107701.02186667-.0107701.04373334-.0215403.0656-.0107701.02186667-.0107701.04373333-.0215403.05466666-.00999.01685214-.0172619.03521722-.0215403.0544-.0107701.02186667-.0215402.0328-.0215402.05466666-.0105075.0218667-.0215403.0437333-.0323105.0546667-.0105075.0218666-.0215403.0328-.0323104.0546666-.0105075.0218667-.0212777.0325334-.0320478.0544-.0107701.0218667-.0215403.0328-.0323104.0546667-.0107702.0218667-.0215403.0328-.0323105.0546667-.0107701.0218666-.0215403.0328-.0323104.0546666-.0105075.0216-.0215403.0325333-.0323105.0544-.0105074.0218667-.0215403.0328-.0323104.0546667-.0105075.0218666-.0212776.0328-.0428179.0546666-.0107702.0106667-.0215403.0328-.0430806.0437334-.0107702.0216-.0323105.0325333-.0430806.0434666-.0105075.0109334-.0215403.0328-.0430806.0437334l-.0428179.0437333-.0430806.0437333-.0430806.0434667-.0430806.0437333-.0430806.0437334c-.0105075.0106666-.0320478.0218666-.0428179.0437333-.0215403.0106667-.0323105.0218667-.0538508.0437333-.0107701.0106667-.0323104.0216-.0430806.0325333-.0215402.0109334-.0323104.0218667-.0538507.0328-.0105075.0109334-.0320478.0218667-.0428179.0328-.0215403.0109334-.0323104.0218667-.0538507.0328-.0215403.0106667-.0323105.0218667-.0538508.0328-.0215403.0106667-.0323104.0218667-.0538507.0328-.0212776.0106667-.0320478.0216-.0535881.0325334-.0215403.0109333-.0430806.0218666-.0538507.0328-.02154033.0109333-.03231048.0218666-.05385077.0218666l-.06435821.0328c-.0215403.0106667-.03231045.0218667-.05385074.0218667-.01964633.0121294-.04173481.0196038-.06462089.0218667-.0215403.0106666-.03231045.0106666-.05385075.0218666-.02127761.0106667-.04281791.0106667-.0643582.0216-.0215403.0109334-.03231045.0109334-.05385075.0218667-.02154029.0109333-.04308059.0109333-.06462089.0218667-.02127761.0109333-.04281791.0109333-.05358805.0218666-.0215403.0109334-.0430806.0109334-.0646209.0109334-.02154029 0-.03231044.0109333-.05385074.0109333s-.05358805.0109333-.07512835.0109333-.03231045.0106667-.05385075.0106667c-.02154029 0-.05385074.0112-.07539104.0112-.02154029 0-.03231044 0-.05358805.0106667-.03231045 0-.06462089 0-.08616119.0111999h-.17205969c-.68514883.001705-1.34271955-.2738386-1.82719439-.765654-.48447484-.4918153-.75590582-1.15934926-.75422635-1.85487913v-5.68853299c-.02127761-1.69253323-1.36597007-3.05733315-3.03297893-3.05733315h-3.01170131v8.76773281c0 .22933332.01050746.4477333.03231045.66613329.29026864 2.86053317 2.66731924 5.08799967 5.56054892 5.08799967 3.08709235 0 5.59312207-2.5439998 5.59312207-5.6778663z" fill="url(#e)"/></g><g fill-rule="nonzero" transform="translate(26 27)"><g transform="translate(.62 40.31)"><path d="m11.46 21.69v-3.81h-6.84v-17.19h-4.23v21zm9.6.39c1.72 0 3.14-.375 4.26-1.125s1.9-1.525 2.34-2.325l-2.73-2.07c-.88 1.28-2.15 1.92-3.81 1.92-1.16 0-2.12-.335-2.88-1.005s-1.16-1.535-1.2-2.595h11.04c.02-.2.03-.5.03-.9 0-2.6-.67-4.645-2.01-6.135s-3.21-2.235-5.61-2.235c-2.22 0-4.055.785-5.505 2.355s-2.175 3.545-2.175 5.925c0 2.4.755 4.365 2.265 5.895s3.505 2.295 5.985 2.295zm2.85-9.9h-6.75c.1-.92.45-1.68 1.05-2.28s1.38-.9 2.34-.9 1.75.29 2.37.87.95 1.35.99 2.31zm11.49 9.9c1.66 0 2.93-.47 3.81-1.41l.27 1.02h3.66v-9.93c0-1.92-.5-3.425-1.5-4.515s-2.68-1.635-5.04-1.635c-1.14 0-2.265.18-3.375.54s-2.045.8-2.805 1.32l1.56 2.82c1.44-.74 2.83-1.11 4.17-1.11.9 0 1.6.21 2.1.63s.75.98.75 1.68v1.02c-.84-.58-1.97-.87-3.39-.87-1.82 0-3.29.48-4.41 1.44s-1.68 2.21-1.68 3.75c0 1.6.565 2.875 1.695 3.825s2.525 1.425 4.185 1.425zm.99-3.21c-.78 0-1.43-.2-1.95-.6s-.78-.92-.78-1.56.25-1.16.75-1.56c.5-.42 1.15-.63 1.95-.63.82 0 1.48.195 1.98.585s.75.925.75 1.605c0 .66-.25 1.185-.75 1.575s-1.15.585-1.95.585zm13.95 2.82v-6.84c0-3.36 1.41-5.04 4.23-5.04v-4.2c-1 0-1.88.245-2.64.735s-1.32 1.135-1.68 1.935v-2.28h-4.05v15.69zm10.8 0v-9.42c0-.86.255-1.565.765-2.115s1.185-.825 2.025-.825c.72 0 1.335.26 1.845.78s.765 1.2.765 2.04v9.54h4.14v-9.06c0-4.68-1.81-7.02-5.43-7.02-.94 0-1.78.22-2.52.66s-1.3.96-1.68 1.56v-1.83h-4.05v15.69z" fill="#fff"/><path d="m85.86 21.69v-8.22h2.25l4.08 8.22h4.68l-4.98-9.21c.98-.54 1.755-1.29 2.325-2.25s.855-2.06.855-3.3c0-1.8-.63-3.29-1.89-4.47s-3-1.77-5.22-1.77h-6.33v21zm1.98-11.79h-1.98v-5.55h1.77c.96 0 1.715.245 2.265.735s.825 1.155.825 1.995c0 .88-.275 1.57-.825 2.07s-1.235.75-2.055.75zm18.36 12.18c1.72 0 3.14-.375 4.26-1.125s1.9-1.525 2.34-2.325l-2.73-2.07c-.88 1.28-2.15 1.92-3.81 1.92-1.16 0-2.12-.335-2.88-1.005s-1.16-1.535-1.2-2.595h11.04c.02-.2.03-.5.03-.9 0-2.6-.67-4.645-2.01-6.135s-3.21-2.235-5.61-2.235c-2.22 0-4.055.785-5.505 2.355s-2.175 3.545-2.175 5.925c0 2.4.755 4.365 2.265 5.895s3.505 2.295 5.985 2.295zm2.85-9.9h-6.75c.1-.92.45-1.68 1.05-2.28s1.38-.9 2.34-.9 1.75.29 2.37.87.95 1.35.99 2.31zm11.49 9.9c1.66 0 2.93-.47 3.81-1.41l.27 1.02h3.66v-9.93c0-1.92-.5-3.425-1.5-4.515s-2.68-1.635-5.04-1.635c-1.14 0-2.265.18-3.375.54s-2.045.8-2.805 1.32l1.56 2.82c1.44-.74 2.83-1.11 4.17-1.11.9 0 1.6.21 2.1.63s.75.98.75 1.68v1.02c-.84-.58-1.97-.87-3.39-.87-1.82 0-3.29.48-4.41 1.44s-1.68 2.21-1.68 3.75c0 1.6.565 2.875 1.695 3.825s2.525 1.425 4.185 1.425zm.99-3.21c-.78 0-1.43-.2-1.95-.6s-.78-.92-.78-1.56.25-1.16.75-1.56c.5-.42 1.15-.63 1.95-.63.82 0 1.48.195 1.98.585s.75.925.75 1.605c0 .66-.25 1.185-.75 1.575s-1.15.585-1.95.585zm17.31 3.21c1.86 0 3.49-.56 4.89-1.68l-1.11-3.39c-1.14.94-2.32 1.41-3.54 1.41-1.3 0-2.37-.425-3.21-1.275s-1.26-1.945-1.26-3.285c0-1.3.395-2.39 1.185-3.27s1.835-1.32 3.135-1.32c1.34 0 2.56.5 3.66 1.5l1.17-3.48c-1.46-1.12-3.11-1.68-4.95-1.68-2.38 0-4.365.785-5.955 2.355s-2.385 3.545-2.385 5.925.785 4.34 2.355 5.88 3.575 2.31 6.015 2.31zm12.96-.18c.76 0 1.35-.05 1.77-.15v-3.54c-.22.02-.47.03-.75.03-.84 0-1.435-.19-1.785-.57s-.525-1.13-.525-2.25v-6.06h2.94v-3.36h-2.94v-3.3h-4.08v3.3h-1.68v3.36h1.65v6.18c0 2.14.435 3.735 1.305 4.785s2.235 1.575 4.095 1.575z" fill="#f6c95b"/><path d="m169.23 21.9c.76 0 1.35-.05 1.77-.15v-3.54c-.22.02-.47.03-.75.03-.84 0-1.435-.19-1.785-.57s-.525-1.13-.525-2.25v-6.06h2.94v-3.36h-2.94v-3.3h-4.08v3.3h-1.68v3.36h1.65v6.18c0 2.14.435 3.735 1.305 4.785s2.235 1.575 4.095 1.575zm8.37-.21v-9.42c0-.86.26-1.565.78-2.115s1.21-.825 2.07-.825c.72 0 1.335.26 1.845.78s.765 1.2.765 2.04v9.54h4.11v-9.06c0-4.68-1.81-7.02-5.43-7.02-.94 0-1.77.215-2.49.645s-1.27.955-1.65 1.575v-7.83h-4.14v21.69zm20.13.39c1.72 0 3.14-.375 4.26-1.125s1.9-1.525 2.34-2.325l-2.73-2.07c-.88 1.28-2.15 1.92-3.81 1.92-1.16 0-2.12-.335-2.88-1.005s-1.16-1.535-1.2-2.595h11.04c.02-.2.03-.5.03-.9 0-2.6-.67-4.645-2.01-6.135s-3.21-2.235-5.61-2.235c-2.22 0-4.055.785-5.505 2.355s-2.175 3.545-2.175 5.925c0 2.4.755 4.365 2.265 5.895s3.505 2.295 5.985 2.295zm2.85-9.9h-6.75c.1-.92.45-1.68 1.05-2.28s1.38-.9 2.34-.9 1.75.29 2.37.87.95 1.35.99 2.31zm-196.44 46.51v-6.84c0-3.36 1.41-5.04 4.23-5.04v-4.2c-1 0-1.88.245-2.64.735s-1.32 1.135-1.68 1.935v-2.28h-4.05v15.69zm8.7-17.1c.7 0 1.28-.225 1.74-.675s.69-1.015.69-1.695-.23-1.245-.69-1.695-1.04-.675-1.74-.675c-.68 0-1.25.225-1.71.675s-.69 1.015-.69 1.695.23 1.25.69 1.71c.46.44 1.03.66 1.71.66zm2.1 17.1v-15.69h-4.14v15.69zm10.17 5.76c2.54 0 4.58-.605 6.12-1.815s2.31-3.185 2.31-5.925v-13.71h-3.9v1.65c-.34-.46-.915-.915-1.725-1.365s-1.795-.675-2.955-.675c-2.24 0-4.075.77-5.505 2.31s-2.145 3.52-2.145 5.94c0 2.44.685 4.42 2.055 5.94s3.185 2.28 5.445 2.28c.82 0 1.59-.145 2.31-.435s1.24-.57 1.56-.84.56-.515.72-.735v.72c0 2.08-1.44 3.12-4.32 3.12-1.62 0-3.11-.36-4.47-1.08l-1.26 3.18c1.74.96 3.66 1.44 5.76 1.44zm.39-9.03c-1.18 0-2.145-.425-2.895-1.275s-1.125-1.955-1.125-3.315.37-2.46 1.11-3.3 1.7-1.26 2.88-1.26c1.2 0 2.175.425 2.925 1.275s1.125 1.945 1.125 3.285c0 1.38-.37 2.49-1.11 3.33s-1.71 1.26-2.91 1.26zm15.3 3.27v-9.42c0-.86.26-1.565.78-2.115s1.21-.825 2.07-.825c.72 0 1.335.26 1.845.78s.765 1.2.765 2.04v9.54h4.11v-9.06c0-4.68-1.81-7.02-5.43-7.02-.94 0-1.77.215-2.49.645s-1.27.955-1.65 1.575v-7.83h-4.14v21.69zm18.48.21c.76 0 1.35-.05 1.77-.15v-3.54c-.22.02-.47.03-.75.03-.84 0-1.435-.19-1.785-.57s-.525-1.13-.525-2.25v-6.06h2.94v-3.36h-2.94v-3.3h-4.08v3.3h-1.68v3.36h1.65v6.18c0 2.14.435 3.735 1.305 4.785s2.235 1.575 4.095 1.575zm19.56-.21 2.91-10.05 2.88 10.05h4.62l4.71-15.69h-4.5l-2.79 11.13-2.97-11.13h-3.9l-3 11.13-2.76-11.13h-4.5l4.68 15.69zm21.93.39c1.66 0 2.93-.47 3.81-1.41l.27 1.02h3.66v-9.93c0-1.92-.5-3.425-1.5-4.515s-2.68-1.635-5.04-1.635c-1.14 0-2.265.18-3.375.54s-2.045.8-2.805 1.32l1.56 2.82c1.44-.74 2.83-1.11 4.17-1.11.9 0 1.6.21 2.1.63s.75.98.75 1.68v1.02c-.84-.58-1.97-.87-3.39-.87-1.82 0-3.29.48-4.41 1.44s-1.68 2.21-1.68 3.75c0 1.6.565 2.875 1.695 3.825s2.525 1.425 4.185 1.425zm.99-3.21c-.78 0-1.43-.2-1.95-.6s-.78-.92-.78-1.56.25-1.16.75-1.56c.5-.42 1.15-.63 1.95-.63.82 0 1.48.195 1.98.585s.75.925.75 1.605c0 .66-.25 1.185-.75 1.575s-1.15.585-1.95.585zm16.17 8.19 8.01-21.06h-4.32l-3.54 10.23-3.51-10.23h-4.44l6.03 15.3-2.19 5.76zm14.46-11.34.33-15.03h-4.38l.33 15.03zm-1.86 6.36c.72 0 1.32-.24 1.8-.72.5-.5.75-1.1.75-1.8 0-.72-.245-1.33-.735-1.83s-1.095-.75-1.815-.75-1.325.25-1.815.75-.735 1.11-.735 1.83c0 .7.245 1.295.735 1.785s1.095.735 1.815.735z" fill="#fff"/></g><path d="m28.346 11.182c.4666667 0 .882-.1096667 1.246-.329s.6346667-.4876667.812-.805v.952h1.498v-7.308h-1.526v4.41c0 .504-.147.91466667-.441 1.232s-.679.476-1.155.476c-.4293333 0-.7816667-.14233333-1.057-.427s-.413-.67433333-.413-1.169v-4.522h-1.512v4.396c0 .88666667.2053333 1.624.616 2.212s1.0546667.882 1.932.882zm6.734-.182v-10.122h-1.526v10.122zm4.144.098c.3173333 0 .5646667-.0186667.742-.056v-1.316l-.294.014c-.4386667 0-.756-.09566667-.952-.287s-.294-.55766667-.294-1.099v-3.402h1.484v-1.26h-1.484v-1.526h-1.512v1.526h-.812v1.26h.812v3.164c0 .96133333.175 1.69866667.525 2.212.35.5133333.945.77 1.785.77zm2.716-8.26c.2706667 0 .497-.091.679-.273s.273-.40833333.273-.679-.091-.497-.273-.679-.4083333-.273-.679-.273-.497.091-.679.273-.273.40833333-.273.679.0886667.49933333.266.686c.1866667.17733333.4153333.266.686.266zm.77 8.162v-7.308h-1.526v7.308zm3.234 0v-4.396c0-.51333333.14-.92866667.42-1.246s.63-.476 1.05-.476c.4386667 0 .7816667.14233333 1.029.427s.371.67433333.371 1.169v4.522h1.526v-4.368c0-.55066667.1376667-.98.413-1.288s.6323333-.462 1.071-.462c.9333333 0 1.4.57866667 1.4 1.736v4.382h1.512v-4.774c0-.82133333-.2146667-1.47933333-.644-1.974s-1.0453333-.742-1.848-.742c-1.0453333 0-1.7966667.406-2.254 1.218-.3826667-.812-1.0826667-1.218-2.1-1.218-.4666667 0-.875.112-1.225.336s-.5996667.49-.749.798v-.952h-1.498v7.308zm12.754.182c.812 0 1.4373333-.2426667 1.876-.728l.126.546h1.33v-4.718c0-1.848-.9706667-2.772-2.912-2.772-.9893333 0-1.918.28-2.786.84l.588 1.064c.6906667-.38266667 1.372-.574 2.044-.574.4853333 0 .8656667.119 1.141.357s.413.567.413.987v.686c-.392-.35466667-.9753333-.532-1.75-.532-.84 0-1.5213333.224-2.044.672s-.784 1.02666667-.784 1.736c0 .71866667.2636667 1.3043333.791 1.757s1.183.679 1.967.679zm.322-1.218c-.4573333 0-.8306667-.119-1.12-.357s-.434-.539-.434-.903.14-.66266667.42-.896c.2893333-.24266667.6626667-.364 1.12-.364.4666667 0 .8423333.11433333 1.127.343s.427.53433333.427.917c0 .37333333-.1446667.67666667-.434.91s-.658.35-1.106.35zm7.056 1.134c.3173333 0 .5646667-.0186667.742-.056v-1.316l-.294.014c-.4386667 0-.756-.09566667-.952-.287s-.294-.55766667-.294-1.099v-3.402h1.484v-1.26h-1.484v-1.526h-1.512v1.526h-.812v1.26h.812v3.164c0 .96133333.175 1.69866667.525 2.212.35.5133333.945.77 1.785.77zm5.32.084c.7746667 0 1.4186667-.1656667 1.932-.497s.8866667-.69766667 1.12-1.099l-1.008-.756c-.4666667.68133333-1.1386667 1.022-2.016 1.022-.6533333 0-1.1923333-.196-1.617-.588s-.6416667-.91-.651-1.554h5.502c.0093333-.084.014-.21.014-.378 0-1.15733333-.3126667-2.08366667-.938-2.779s-1.484-1.043-2.576-1.043c-1.008 0-1.8526667.364-2.534 1.092s-1.022 1.652-1.022 2.772.35 2.03466667 1.05 2.744c.7.7093333 1.6146667 1.064 2.744 1.064zm1.722-4.522h-3.906c.0466667-.56933333.252-1.02433333.616-1.365s.812-.511 1.344-.511c.5413333 0 .994.16566667 1.358.497s.56.791.588 1.379zm6.16 4.522c.9333333 0 1.7406667-.3033333 2.422-.91l-.434-1.26c-.5973333.54133333-1.232.812-1.904.812s-1.2343333-.238-1.687-.714-.679-1.064-.679-1.764.2146667-1.28333333.644-1.75.9846667-.7 1.666-.7c.7373333 0 1.3813333.266 1.932.798l.462-1.288c-.6906667-.59733333-1.5026667-.896-2.436-.896-1.0826667 0-1.988.36633333-2.716 1.099s-1.092 1.645-1.092 2.737c0 1.10133333.3593333 2.016 1.078 2.744s1.6333333 1.092 2.744 1.092zm7.056 0c1.1106667 0 2.0346667-.364 2.772-1.092s1.106-1.64266667 1.106-2.744-.3663333-2.016-1.099-2.744-1.659-1.092-2.779-1.092c-1.1013333 0-2.0206667.36633333-2.758 1.099s-1.106 1.64966667-1.106 2.751c0 1.11066667.364 2.02533333 1.092 2.744.728.7186667 1.652 1.078 2.772 1.078zm0-1.358c-.6813333 0-1.239-.231-1.673-.693s-.651-1.05233333-.651-1.771.2146667-1.31133333.644-1.778c.4386667-.476.9986667-.714 1.68-.714s1.2436667.23333333 1.687.7.665 1.05933333.665 1.778-.2216667 1.31133333-.665 1.778-1.0056667.7-1.687.7zm7.63 1.358c.4666667 0 .882-.1096667 1.246-.329s.6346667-.4876667.812-.805v.952h1.498v-7.308h-1.526v4.41c0 .504-.147.91466667-.441 1.232s-.679.476-1.155.476c-.4293333 0-.7816667-.14233333-1.057-.427s-.413-.67433333-.413-1.169v-4.522h-1.512v4.396c0 .88666667.2053333 1.624.616 2.212s1.0546667.882 1.932.882zm6.734-.182v-3.15c0-1.86666667.686-2.8 2.058-2.8v-1.54c-.494667 0-.928667.126-1.302.378s-.634667.56933333-.784.952v-1.148h-1.498v7.308zm5.306.182c.765333 0 1.397667-.2053333 1.897-.616s.749-.952.749-1.624c0-.476-.123667-.875-.371-1.197s-.546-.56-.896-.714-.697667-.29166667-1.043-.413-.641667-.266-.889-.434-.371-.378-.371-.63c0-.24266667.091-.43633333.273-.581s.417667-.217.707-.217c.606667 0 1.078.27066667 1.414.812l1.05-.7c-.177333-.35466667-.464333-.66966667-.861-.945s-.903-.413-1.519-.413c-.728 0-1.327667.18666667-1.799.56s-.707.87733333-.707 1.512c0 .46666667.121333.861.364 1.183s.539.56233333.889.721.7.301 1.05.427.646333.27766667.889.455.364.392.364.644c0 .28933333-.102667.51333333-.308.672s-.476.238-.812.238c-.728 0-1.311333-.31733333-1.75-.952l-.952.756c.541333.9706667 1.418667 1.456 2.632 1.456zm7.21 0c.774667 0 1.418667-.1656667 1.932-.497s.886667-.69766667 1.12-1.099l-1.008-.756c-.466667.68133333-1.138667 1.022-2.016 1.022-.653333 0-1.192333-.196-1.617-.588s-.641667-.91-.651-1.554h5.502c.009333-.084.014-.21.014-.378 0-1.15733333-.312667-2.08366667-.938-2.779s-1.484-1.043-2.576-1.043c-1.008 0-1.852667.364-2.534 1.092s-1.022 1.652-1.022 2.772.35 2.03466667 1.05 2.744c.7.7093333 1.614667 1.064 2.744 1.064zm1.722-4.522h-3.906c.046667-.56933333.252-1.02433333.616-1.365s.812-.511 1.344-.511c.541333 0 .994.16566667 1.358.497s.56.791.588 1.379zm4.9 4.522c.765333 0 1.397667-.2053333 1.897-.616s.749-.952.749-1.624c0-.476-.123667-.875-.371-1.197s-.546-.56-.896-.714-.697667-.29166667-1.043-.413-.641667-.266-.889-.434-.371-.378-.371-.63c0-.24266667.091-.43633333.273-.581s.417667-.217.707-.217c.606667 0 1.078.27066667 1.414.812l1.05-.7c-.177333-.35466667-.464333-.66966667-.861-.945s-.903-.413-1.519-.413c-.728 0-1.327667.18666667-1.799.56s-.707.87733333-.707 1.512c0 .46666667.121333.861.364 1.183s.539.56233333.889.721.7.301 1.05.427.646333.27766667.889.455.364.392.364.644c0 .28933333-.102667.51333333-.308.672s-.476.238-.812.238c-.728 0-1.311333-.31733333-1.75-.952l-.952.756c.541333.9706667 1.418667 1.456 2.632 1.456zm4.592 0c.270667 0 .504-.0956667.7-.287s.294-.4223333.294-.693c0-.27066667-.098-.504-.294-.7s-.429333-.294-.7-.294-.504.098-.7.294-.294.42933333-.294.7c0 .2706667.098.504.294.7.196.1866667.429333.28.7.28zm5.838 0c.933333 0 1.740667-.3033333 2.422-.91l-.434-1.26c-.597333.54133333-1.232.812-1.904.812s-1.234333-.238-1.687-.714-.679-1.064-.679-1.764.214667-1.28333333.644-1.75.984667-.7 1.666-.7c.737333 0 1.381333.266 1.932.798l.462-1.288c-.690667-.59733333-1.502667-.896-2.436-.896-1.082667 0-1.988.36633333-2.716 1.099s-1.092 1.645-1.092 2.737c0 1.10133333.359333 2.016 1.078 2.744s1.633333 1.092 2.744 1.092zm7.056 0c1.110667 0 2.034667-.364 2.772-1.092s1.106-1.64266667 1.106-2.744-.366333-2.016-1.099-2.744-1.659-1.092-2.779-1.092c-1.101333 0-2.020667.36633333-2.758 1.099s-1.106 1.64966667-1.106 2.751c0 1.11066667.364 2.02533333 1.092 2.744.728.7186667 1.652 1.078 2.772 1.078zm0-1.358c-.681333 0-1.239-.231-1.673-.693s-.651-1.05233333-.651-1.771.214667-1.31133333.644-1.778c.438667-.476.998667-.714 1.68-.714s1.243667.23333333 1.687.7.665 1.05933333.665 1.778-.221667 1.31133333-.665 1.778-1.005667.7-1.687.7zm6.664 1.176v-4.396c0-.51333333.14-.92866667.42-1.246s.63-.476 1.05-.476c.438667 0 .781667.14233333 1.029.427s.371.67433333.371 1.169v4.522h1.526v-4.368c0-.55066667.137667-.98.413-1.288s.632333-.462 1.071-.462c.933333 0 1.4.57866667 1.4 1.736v4.382h1.512v-4.774c0-.82133333-.214667-1.47933333-.644-1.974s-1.045333-.742-1.848-.742c-1.045333 0-1.796667.406-2.254 1.218-.382667-.812-1.082667-1.218-2.1-1.218-.466667 0-.875.112-1.225.336s-.599667.49-.749.798v-.952h-1.498v7.308z" fill="#fff" fill-opacity=".7"/></g></g></svg>