<svg height="250" viewBox="0 0 300 250" width="300" xmlns="http://www.w3.org/2000/svg" xmlns:xlink="http://www.w3.org/1999/xlink"><defs><rect id="a" height="250" rx="15" width="300"/><rect id="b" height="38" rx="19" width="146" x=".700004" y=".400001"/><filter id="c" height="110.5%" width="101.4%" x="-.7%" y="-2.6%"><feOffset dx="0" dy="2" in="SourceAlpha" result="shadowOffsetOuter1"/><feColorMatrix in="shadowOffsetOuter1" type="matrix" values="0 0 0 0 0.635294118   0 0 0 0 0.0941176471   0 0 0 0 0.470588235  0 0 0 1 0"/></filter><rect id="d" height="250" rx="15" width="300"/><filter id="e" height="101.2%" width="101%" x="-.5%" y="-.6%"><feOffset dx="0" dy="-3" in="SourceAlpha" result="shadowOffsetInner1"/><feComposite in="shadowOffsetInner1" in2="SourceAlpha" k2="-1" k3="1" operator="arithmetic" result="shadowInnerInner1"/><feColorMatrix in="shadowInnerInner1" type="matrix" values="0 0 0 0 0   0 0 0 0 0   0 0 0 0 0  0 0 0 0.2 0"/></filter><mask id="f" fill="#fff"><use fill="#fff" fill-rule="evenodd" xlink:href="#a"/></mask></defs><g fill="none" fill-rule="evenodd"><g><use fill="#131231" fill-rule="nonzero" xlink:href="#a"/><g mask="url(#f)"><g fill-rule="nonzero" transform="translate(23.299996 187.599999)"><use fill="#000" filter="url(#c)" xlink:href="#b"/><use fill="#ce1f99" xlink:href="#b"/><path d="m19.1480035 21.0800006 1.504-.704c.4053354 1.0560053 1.1359947 1.584 2.192 1.584.5120026 0 .9199985-.133332 1.224-.4s.456-.6346643.456-1.104c0-.4266688-.1733316-.7973318-.52-1.112-.3466684-.3146683-.7679975-.5839989-1.264-.808s-.9893309-.4639987-1.48-.72-.9093316-.621331-1.256-1.096c-.3466684-.4746691-.52-1.0426634-.52-1.704 0-.8853378.3066636-1.6106639.92-2.176.6133364-.5653362 1.4266616-.848 2.44-.848.5013358 0 .9573313.0799992 1.368.24s.7439987.3679987 1 .624.4559993.4986655.6.728.2586662.4613321.344.696l-1.472.656c-.4160021-.8746711-1.0399958-1.312-1.872-1.312-.4800024 0-.8586653.1306653-1.136.392-.2773347.2613346-.416.5893313-.416.984 0 .341335.1253321.6479986.376.92.2506679.2720013.5626648.4933325.936.664s.7813311.3679989 1.224.592.8506648.4559988 1.224.696.6853321.5706645.936.992c.2506679.4213354.376.9093305.376 1.464 0 .9600048-.3226634 1.7466636-.968 2.36s-1.5119946.92-2.6.92c-.5440027 0-1.0346645-.0826659-1.472-.248-.4373355-.1653342-.7973319-.3839987-1.08-.656-.2826681-.2720014-.5066658-.5386654-.672-.8-.1653342-.2613347-.2959995-.5359986-.392-.824zm13.032-6.24c1.0026717 0 1.7386643.3359966 2.208 1.008.4693357.6720033.704 1.5146616.704 2.528v5.024h-1.728v-5.168c0-.5653362-.1573318-1.0106651-.472-1.336-.3146682-.325335-.7173309-.488-1.208-.488-.5440027 0-.986665.1813315-1.328.544s-.512.8319971-.512 1.408v5.04h-1.744v-11.568h1.744v4.304c.2026677-.3626685.5119979-.6693321.928-.92s.8853307-.376 1.408-.376zm6.984 2.368c-.4906691.533336-.736 1.2106625-.736 2.032 0 .8213374.2479975 1.4959973.744 2.024.4960025.5280026 1.1333295.792 1.912.792.7786706 0 1.4213308-.266664 1.928-.8s.76-1.2106626.76-2.032c0-.8213375-.2533308-1.498664-.76-2.032s-1.1493294-.8-1.928-.8c-.7786705 0-1.4186641.2719973-1.92.816zm-2.496 2.032c0-1.258673.4213291-2.3066625 1.264-3.144s1.8933271-1.256 3.152-1.256c1.2800064 0 2.3386625.4159958 3.176 1.248.8373375.8320041 1.256 1.877327 1.256 3.136 0 1.2586729-.4213291 2.3039958-1.264 3.136-.8426709.8320041-1.8986603 1.248-3.168 1.248-1.2800064 0-2.3359958-.4106626-3.168-1.232-.8320041-.8213375-1.248-1.8666603-1.248-3.136zm17.96 4.16-1.872-5.984-1.888 5.984h-1.92l-2.656-8.352h1.888l1.824 6.4 1.92-6.4h1.664l1.904 6.4 1.84-6.4h1.888l-2.656 8.352zm21.888-5.456v5.456h-1.728v-5.008c0-1.3226733-.533328-1.984-1.6-1.984-.5013358 0-.9093317.1759982-1.224.528-.3146682.3520017-.472.8426635-.472 1.472v4.992h-1.744v-5.168c0-.5653362-.1413319-1.0106651-.424-1.336-.2826681-.325335-.6746641-.488-1.176-.488-.4800024 0-.8799984.1813315-1.2.544s-.48.8373304-.48 1.424v5.024h-1.744v-8.352h1.712v1.088c.1706675-.3520018.455998-.6559987.856-.912s.866664-.384 1.4-.384c1.1626725 0 1.9626645.4639953 2.4 1.392.5226693-.9280047 1.3813274-1.392 2.576-1.392.9173379 0 1.6213309.2826638 2.112.848.4906691.5653361.736 1.3173286.736 2.256zm2.792 4.448c-.800004-.8106707-1.2-1.8559936-1.2-3.136s.3893295-2.3359959 1.168-3.168c.7786706-.8320042 1.7439943-1.248 2.896-1.248 1.2480063 0 2.2293298.3973293 2.944 1.192.7146703.7946706 1.072 1.8533267 1.072 3.176l-.004.2520002c-.0026666.0719998-.0066666.1319995-.012.1799998h-6.288c.0106667.7360037.2586643 1.3279977.744 1.776.4853358.4480022 1.1013296.672 1.848.672 1.0026717 0 1.770664-.3893295 2.304-1.168l1.152.864c-.266668.4586689-.6933304.8773314-1.28 1.256-.5866696.3786685-1.3226622.568-2.208.568-1.2906731 0-2.336-.4053293-3.136-1.216zm.64-3.952h4.464c-.0320001-.6720034-.2559979-1.1973315-.672-1.576-.4160021-.3786686-.9333302-.568-1.552-.568-.608003 0-1.1199979.1946647-1.536.584s-.6506664.9093301-.704 1.56zm16.144-3.6c1.0026717 0 1.7386643.3359966 2.208 1.008.4693357.6720033.704 1.5146616.704 2.528v5.024h-1.728v-5.168c0-.5653362-.1573317-1.0106651-.472-1.336-.3146682-.325335-.7173309-.488-1.208-.488-.5440027 0-.9866649.1813315-1.328.544-.341335.3626685-.512.8319971-.512 1.408v5.04h-1.744v-11.568h1.744v4.304c.2026677-.3626685.5119979-.6693321.928-.92s.8853307-.376 1.408-.376zm6.9840005 2.368c-.49067.533336-.736 1.2106625-.736 2.032 0 .8213374.247997 1.4959973.744 2.024.496002.5280026 1.133329.792 1.912.792.77867 0 1.42133-.266664 1.928-.8.506669-.533336.76-1.2106626.76-2.032 0-.8213375-.253331-1.498664-.76-2.032-.50667-.533336-1.14933-.8-1.928-.8-.778671 0-1.418665.2719973-1.92.816zm-2.496 2.032c0-1.258673.421329-2.3066625 1.264-3.144.84267-.8373375 1.893327-1.256 3.152-1.256 1.280006 0 2.338662.4159958 3.176 1.248.837337.8320041 1.256 1.877327 1.256 3.136 0 1.2586729-.42133 2.3039958-1.264 3.136-.842671.8320041-1.898661 1.248-3.168 1.248-1.280007 0-2.335996-.4106626-3.168-1.232-.832005-.8213375-1.248-1.8666603-1.248-3.136zm17.96 4.16-1.872-5.984-1.888 5.984h-1.92l-2.656-8.352h1.888l1.824 6.4 1.92-6.4h1.664l1.904 6.4 1.84-6.4h1.888l-2.656 8.352zm6.328-3.008-.128-8.192h1.824l-.144 8.192zm-.016 2.896c-.224002-.2240011-.336-.4906651-.336-.8s.111998-.5759989.336-.8c.224001-.2240011.490665-.336.8-.336.309334 0 .575998.1119989.8.336.224001.2240011.336.4906651.336.8s-.111999.5733322-.336.792c-.224002.2186677-.490666.328-.8.328-.309335 0-.575999-.1066656-.8-.32z" fill="#fff"/></g><g transform="translate(25.028831 20)"><path d="m13.2613348 0-13.20497413 4.67793586 2.01406523 17.34499714 11.1909089 6.1574035 11.1909089-6.1574035 2.0140653-17.34499714" fill="#dd0031"/><path d="m13.2613348 0v3.12801735-.01409017 25.06640932l11.1909089-6.1574035 2.0140653-17.34499714" fill="#c3002f"/><path d="m13.2613348 3.11392718-8.25518091 18.38766952h3.07828735l1.65932452-4.1143291h7.00695774l1.6593246 4.1143291h3.0774585zm2.4119053 11.73711012h-4.8238105l2.4119052-5.76287878z" fill="#fff" fill-rule="nonzero"/></g></g></g><g fill-rule="nonzero"><g transform="translate(24.456 61.648)"><path d="m1.152 17.352v-16.8h8.592v3.048h-5.208v3.96h4.56v3.024h-4.56v6.768zm10.248-3.888c0-1.2320062.4479955-2.2319962 1.344-3 .8960045-.76800384 2.0719927-1.152 3.528-1.152 1.1360057 0 2.0399966.23199768 2.712.696v-.816c0-.5600028-.199998-1.00799832-.6-1.344s-.9599964-.504-1.68-.504c-1.0720054 0-2.1839942.29599704-3.336.888l-1.248-2.256c.608003-.41600208 1.3559956-.76799856 2.244-1.056s1.7879954-.432 2.7-.432c1.8880094 0 3.231996.43599564 4.032 1.308s1.2 2.07599232 1.2 3.612v7.944h-2.928l-.216-.816c-.7040035.7520038-1.7199934 1.128-3.048 1.128s-2.4439955-.3799962-3.348-1.14-1.356-1.7799936-1.356-3.06zm3.912-1.344c-.400002.3200016-.6.7359974-.6 1.248s.2079979.9279984.624 1.248.9359969.48 1.56.48c.6400032 0 1.159998-.1559984 1.56-.468s.6-.7319974.6-1.26c0-.5440027-.199998-.9719984-.6-1.284s-.9279967-.468-1.584-.468c-.6400032 0-1.16.1679983-1.56.504zm13.272 5.544c-1.1360057 0-2.099996-.2279977-2.892-.684s-1.387998-1.0039968-1.788-1.644l1.944-1.728c.7840039.9120046 1.7439943 1.368 2.88 1.368.4800024 0 .8559986-.099999 1.128-.3s.408-.4759982.408-.828c0-.3360017-.203998-.6279988-.612-.876-.3400017-.2066677-.7411096-.3966663-1.2033325-.5699997l-.2846675-.1020003c-.5840029-.200001-1.1639971-.4399986-1.74-.72s-1.067998-.7039972-1.476-1.272c-.408002-.56800284-.612-1.26799584-.612-2.1 0-1.13600568.4319957-2.03999664 1.296-2.712s1.9519934-1.008 3.264-1.008c1.9520098 0 3.3839954.74399256 4.296 2.232l-2.184 1.632c-.6400032-.800004-1.3919957-1.2-2.256-1.2-.3840019 0-.6959988.09199908-.936.276s-.36.42799848-.36.732c0 .35200176.203998.6479988.612.888.3400017.200001.7411097.38055525 1.2033325.54166643l.2846675.09433357c.5840029.18400092 1.1679971.4079987 1.752.672s1.079998.6759972 1.488 1.236.612 1.2559958.612 2.088c0 1.200006-.4559954 2.1639964-1.368 2.892s-2.063993 1.092-3.456 1.092zm6.912-12.864v-2.64h3.264v2.64h2.352v2.688h-2.352v4.848c0 .8960045.1399986 1.4959985.42 1.8s.7559966.456 1.428.456c.2240011 0 .4239991-.0079999.6-.024v2.832c-.3360017.0800004-.807997.12-1.416.12-1.4880074 0-2.5799965-.4199958-3.276-1.26s-1.044-2.1159914-1.044-3.828v-4.944h-1.32v-2.688zm7.464 6.744v-2.976h6.672v2.976zm9.384-6.744v-2.64h3.264v2.64h2.352v2.688h-2.352v4.848c0 .8960045.1399986 1.4959985.42 1.8s.7559966.456 1.428.456c.2240011 0 .4239991-.0079999.6-.024v2.832c-.3360017.0800004-.807997.12-1.416.12-1.4880074 0-2.5799965-.4199958-3.276-1.26s-1.044-2.1159914-1.044-3.828v-4.944h-1.32v-2.688zm14.376-.312v3.36c-2.2560113 0-3.384 1.34398656-3.384 4.032v5.472h-3.312v-12.552h3.24v1.824c.2880014-.6400032.735997-1.15599804 1.344-1.548s1.311996-.588 2.112-.588zm1.224 8.976c0-1.2320062.4479955-2.2319962 1.344-3 .8960045-.76800384 2.0719927-1.152 3.528-1.152 1.1360057 0 2.0399966.23199768 2.712.696v-.816c0-.5600028-.199998-1.00799832-.6-1.344s-.9599964-.504-1.68-.504c-1.0720054 0-2.1839942.29599704-3.336.888l-1.248-2.256c.608003-.41600208 1.3559956-.76799856 2.244-1.056s1.7879954-.432 2.7-.432c1.8880094 0 3.231996.43599564 4.032 1.308s1.2 2.07599232 1.2 3.612v7.944h-2.928l-.216-.816c-.7040035.7520038-1.7199934 1.128-3.048 1.128s-2.4439955-.3799962-3.348-1.14-1.356-1.7799936-1.356-3.06zm3.912-1.344c-.400002.3200016-.6.7359974-.6 1.248s.2079979.9279984.624 1.248.9359969.48 1.56.48c.6400032 0 1.159998-.1559984 1.56-.468s.6-.7319974.6-1.26c0-.5440027-.199998-.9719984-.6-1.284s-.9279967-.468-1.584-.468c-.6400032 0-1.16.1679983-1.56.504zm15.624 2.616c.9760049 0 1.9199954-.3759962 2.832-1.128l.888 2.712c-1.1200056.8960045-2.4239926 1.344-3.912 1.344-1.9520098 0-3.5559937-.6159938-4.812-1.848s-1.884-2.7999905-1.884-4.704c0-1.90400952.6359936-3.48399372 1.908-4.74s2.8599905-1.884 4.764-1.884c1.4720074 0 2.7919942.44799552 3.96 1.344l-.936 2.784c-.8800044-.800004-1.8559946-1.2-2.928-1.2-1.0400052 0-1.8759968.35199648-2.508 1.056s-.948 1.5759948-.948 2.616c0 1.0720054.3359966 1.9479966 1.008 2.628s1.5279948 1.02 2.568 1.02zm5.568 2.616v-17.352h3.312v10.08l4.032-5.28h3.72l-4.416 5.688 4.752 6.864h-3.888l-4.2-6.48v6.48zm23.808 4.296h-3.168l1.752-4.608-4.824-12.24h3.552l2.808 8.184 2.832-8.184h3.456zm9.072-5.832c-1.264006-1.2320062-1.896-2.7999905-1.896-4.704 0-1.90400952.643994-3.48399372 1.932-4.74s2.89199-1.884 4.812-1.884 3.527994.63199368 4.824 1.896 1.944 2.83999056 1.944 4.728c0 1.9040095-.635994 3.4719938-1.908 4.704s-2.89199 1.848-4.86 1.848c-1.95201 0-3.567994-.6159938-4.848-1.848zm1.416-4.704c0 1.0560053.323997 1.9239966.972 2.604s1.467995 1.02 2.46 1.02c1.008005 0 1.835997-.3399966 2.484-1.02s.972-1.5479947.972-2.604c0-1.0720054-.327997-1.95599652-.984-2.652s-1.479995-1.044-2.472-1.044-1.811997.34799652-2.46 1.044-.972 1.5799946-.972 2.652zm16.344 6.552c-2.896014 0-4.344-1.8719813-4.344-5.616v-7.248h3.312v7.632c0 .6720034.203998 1.2159979.612 1.632s.899997.624 1.476.624c.672003 0 1.211998-.2199978 1.62-.66s.612-1.0039966.612-1.692v-7.536h3.312v12.552h-3.24v-1.464c-.304002.4800024-.751997.8959982-1.344 1.248s-1.263996.528-2.016.528zm15.792-13.176v3.36c-2.256011 0-3.384 1.34398656-3.384 4.032v5.472h-3.312v-12.552h3.24v1.824c.288001-.6400032.735997-1.15599804 1.344-1.548s1.311996-.588 2.112-.588z" fill="#fff"/><path d="m176.856 13.032h-5.712l-1.464 4.32h-3.408l5.952-16.8h3.552l5.952 16.8h-3.408zm-.888-2.808-1.968-6.048-1.944 6.048zm13.848-5.736c2.896014 0 4.344 1.87198128 4.344 5.616v7.248h-3.312v-7.632c0-.67200336-.203998-1.21599792-.612-1.632s-.899997-.624-1.476-.624c-.672003 0-1.211998.2199978-1.62.66s-.612 1.00399656-.612 1.692v7.536h-3.312v-12.552h3.24v1.464c.304002-.4800024.751997-.89599824 1.344-1.248s1.263996-.528 2.016-.528zm7.752 16.32 1.008-2.544c1.088005.5760029 2.279994.864 3.576.864 2.304012 0 3.456-.8319917 3.456-2.496v-.576c-.128001.1760009-.319999.3719989-.576.588s-.671997.4399988-1.248.672-1.191997.348-1.848.348c-1.808009 0-3.259995-.6079939-4.356-1.824s-1.644-2.7999902-1.644-4.752c0-1.93600968.571994-3.51999384 1.716-4.752s2.611991-1.848 4.404-1.848c.928005 0 1.715997.1799982 2.364.54s1.107999.72399816 1.38 1.092v-1.32h3.12v10.968c0 2.192011-.615994 3.7719952-1.848 4.74s-2.86399 1.452-4.896 1.452c-1.680008 0-3.215993-.3839962-4.608-1.152zm8.136-9.744c0-1.07200536-.299997-1.9479966-.9-2.628s-1.379995-1.02-2.34-1.02c-.944005 0-1.711997.33599664-2.304 1.008s-.888 1.55199456-.888 2.64c0 1.0880054.299997 1.9719966.9 2.652.6.6800034 1.371995 1.02 2.316 1.02.960005 0 1.735997-.3359966 2.328-1.008s.888-1.5599945.888-2.664zm9.96 6.6c-2.896014 0-4.344-1.8719813-4.344-5.616v-7.248h3.312v7.632c0 .6720034.203998 1.2159979.612 1.632s.899997.624 1.476.624c.672003 0 1.211998-.2199978 1.62-.66s.612-1.0039966.612-1.692v-7.536h3.312v12.552h-3.24v-1.464c-.304002.4800024-.751997.8959982-1.344 1.248s-1.263996.528-2.016.528zm9.096-.312v-17.352h3.312v17.352zm5.208-3.888c0-1.2320062.447996-2.2319962 1.344-3 .896004-.76800384 2.071993-1.152 3.528-1.152 1.136006 0 2.039997.23199768 2.712.696v-.816c0-.5600028-.199998-1.00799832-.6-1.344s-.959996-.504-1.68-.504c-1.072005 0-2.183994.29599704-3.336.888l-1.248-2.256c.608003-.41600208 1.355996-.76799856 2.244-1.056s1.787995-.432 2.7-.432c1.888009 0 3.231996.43599564 4.032 1.308s1.2 2.07599232 1.2 3.612v7.944h-2.928l-.216-.816c-.704004.7520038-1.719993 1.128-3.048 1.128s-2.443995-.3799962-3.348-1.14-1.356-1.7799936-1.356-3.06zm3.912-1.344c-.400002.3200016-.6.7359974-.6 1.248s.207998.9279984.624 1.248.935997.48 1.56.48c.640003 0 1.159998-.1559984 1.56-.468s.6-.7319974.6-1.26c0-.5440027-.199998-.9719984-.6-1.284s-.927997-.468-1.584-.468c-.640003 0-1.16.1679983-1.56.504zm16.128-7.632v3.36c-2.256011 0-3.384 1.34398656-3.384 4.032v5.472h-3.312v-12.552h3.24v1.824c.288001-.6400032.735997-1.15599804 1.344-1.548s1.311996-.588 2.112-.588zm-245.328 43.176c-1.13600568 0-2.09999604-.2279977-2.892-.684s-1.387998-1.0039968-1.788-1.644l1.944-1.728c.78400392.9120046 1.74399432 1.368 2.88 1.368.4800024 0 .85599864-.099999 1.128-.3s.408-.4759982.408-.828c0-.3360017-.20399796-.6279988-.612-.876-.3400017-.2066677-.74110965-.3966663-1.20333246-.5699997l-.28466754-.1020003c-.58400292-.200001-1.16399712-.4399986-1.74-.72s-1.06799796-.7039972-1.476-1.272-.612-1.2679958-.612-2.1c0-1.1360057.43199568-2.0399966 1.296-2.712s1.95199344-1.008 3.264-1.008c1.95200976 0 3.38399544.7439926 4.296 2.232l-2.184 1.632c-.6400032-.800004-1.39199568-1.2-2.256-1.2-.38400192 0-.6959988.0919991-.936.276s-.36.4279985-.36.732c0 .3520018.20399796.6479988.612.888.3400017.200001.74110965.3805552 1.20333246.5416664l.28466754.0943336c.58400292.1840009 1.16799708.4079987 1.752.672s1.07999796.6759972 1.488 1.236.612 1.2559958.612 2.088c0 1.200006-.45599544 2.1639964-1.368 2.892s-2.06399304 1.092-3.456 1.092zm6.6-.312v-17.352h3.312v10.08l4.032-5.28h3.72l-4.416 5.688 4.752 6.864h-3.888l-4.2-6.48v6.48zm12.768 0v-12.552h3.312v12.552zm.264-14.208c-.3680018-.3680018-.552-.8239973-.552-1.368s.1839982-.9959982.552-1.356.8239973-.54 1.368-.54c.5600028 0 1.0239982.1799982 1.392.54s.552.8119973.552 1.356-.1839982.9959982-.552 1.356-.8319972.54-1.392.54c-.5440027 0-.9999982-.1759982-1.368-.528zm5.664 14.208v-17.352h3.312v17.352zm5.928 0v-17.352h3.312v17.352zm9.768.312c-1.1360057 0-2.099996-.2279977-2.892-.684s-1.387998-1.0039968-1.788-1.644l1.944-1.728c.7840039.9120046 1.7439943 1.368 2.88 1.368.4800024 0 .8559986-.099999 1.128-.3s.408-.4759982.408-.828c0-.3360017-.203998-.6279988-.612-.876-.3400017-.2066677-.7411097-.3966663-1.2033325-.5699997l-.2846675-.1020003c-.5840029-.200001-1.1639971-.4399986-1.74-.72s-1.067998-.7039972-1.476-1.272-.612-1.2679958-.612-2.1c0-1.1360057.4319957-2.0399966 1.296-2.712s1.9519934-1.008 3.264-1.008c1.9520098 0 3.3839954.7439926 4.296 2.232l-2.184 1.632c-.6400032-.800004-1.3919957-1.2-2.256-1.2-.3840019 0-.6959988.0919991-.936.276s-.36.4279985-.36.732c0 .3520018.203998.6479988.612.888.3400017.200001.7411096.3805552 1.2033325.5416664l.2846675.0943336c.5840029.1840009 1.1679971.4079987 1.752.672s1.079998.6759972 1.488 1.236.612 1.2559958.612 2.088c0 1.200006-.4559954 2.1639964-1.368 2.892s-2.063993 1.092-3.456 1.092z" fill="#f6c95b"/><path d="m58.536 34.8v-2.64h3.264v2.64h2.352v2.688h-2.352v4.848c0 .8960045.1399986 1.4959985.42 1.8s.7559966.456 1.428.456c.2240011 0 .4239991-.0079999.6-.024v2.832c-.3360017.0800004-.807997.12-1.416.12-1.4880074 0-2.5799965-.4199958-3.276-1.26s-1.044-2.1159914-1.044-3.828v-4.944h-1.32v-2.688zm8.88 11.016c-1.2640063-1.2320062-1.896-2.7999905-1.896-4.704s.6439936-3.4839937 1.932-4.74 2.8919904-1.884 4.812-1.884 3.5279935.6319937 4.824 1.896 1.944 2.8399906 1.944 4.728c0 1.9040095-.6359936 3.4719938-1.908 4.704s-2.8919902 1.848-4.86 1.848c-1.9520098 0-3.5679936-.6159938-4.848-1.848zm1.416-4.704c0 1.0560053.3239968 1.9239966.972 2.604s1.467995 1.02 2.46 1.02c1.008005 0 1.8359968-.3399966 2.484-1.02s.972-1.5479947.972-2.604c0-1.0720054-.3279967-1.9559965-.984-2.652s-1.479995-1.044-2.472-1.044-1.8119968.3479965-2.46 1.044-.972 1.5799946-.972 2.652zm18.048 6.24v-17.352h3.312v6.12c.2560013-.3520018.7039968-.7119982 1.344-1.08s1.4319953-.552 2.376-.552c1.792009 0 3.2319946.6119939 4.32 1.836s1.632 2.8119902 1.632 4.764c0 1.9360097-.5719943 3.5159939-1.716 4.74s-2.619991 1.836-4.428 1.836c-.9280046 0-1.7079968-.1799982-2.34-.54s-1.0919986-.7159982-1.38-1.068v1.296zm3.216-6.24c0 1.0240051.2919971 1.8839965.876 2.58s1.3639951 1.044 2.34 1.044c.9440047 0 1.715997-.3279967 2.316-.984s.9-1.5359945.9-2.64c0-1.0880054-.295997-1.9759966-.888-2.664s-1.3679952-1.032-2.328-1.032c-.9440047 0-1.716.3279967-2.316.984-.600003.6560033-.9 1.5599942-.9 2.712zm15.912 6.552c-2.896014 0-4.344-1.8719813-4.344-5.616v-7.248h3.312v7.632c0 .6720034.203998 1.2159979.612 1.632s.899997.624 1.476.624c.672003 0 1.211998-.2199978 1.62-.66s.612-1.0039966.612-1.692v-7.536h3.312v12.552h-3.24v-1.464c-.304002.4800024-.751997.8959982-1.344 1.248s-1.263996.528-2.016.528zm9.096-.312v-12.552h3.312v12.552zm.264-14.208c-.368002-.3680018-.552-.8239973-.552-1.368s.183998-.9959982.552-1.356.823997-.54 1.368-.54c.560003 0 1.023998.1799982 1.392.54s.552.8119973.552 1.356-.183998.9959982-.552 1.356-.831997.54-1.392.54c-.544003 0-.999998-.1759982-1.368-.528zm5.664 14.208v-17.352h3.312v17.352zm18.216-17.352v17.352h-3.12v-1.296c-.160001.208001-.371999.415999-.636.624s-.683997.4239989-1.26.648-1.183997.336-1.824.336c-1.808009 0-3.283994-.6119939-4.428-1.836s-1.716-2.8039903-1.716-4.74c0-1.9520098.543995-3.5399939 1.632-4.764s2.527991-1.836 4.32-1.836c.944005 0 1.735997.1839982 2.376.552s1.087999.7279982 1.344 1.08v-6.12zm-6.432 7.416c-.960005 0-1.735997.3439966-2.328 1.032s-.888 1.5759946-.888 2.664c0 1.1040055.299997 1.9839967.9 2.64.6.6560033 1.371995.984 2.316.984.976005 0 1.755997-.3479965 2.34-1.044s.876-1.5559949.876-2.58c0-1.1520058-.299997-2.0559967-.9-2.712s-1.371995-.984-2.316-.984z" fill="#fff"/><path d="m147.072 43.464c0-1.2320062.447996-2.2319962 1.344-3s2.071993-1.152 3.528-1.152c1.136006 0 2.039997.2319977 2.712.696v-.816c0-.5600028-.199998-1.0079983-.6-1.344s-.959996-.504-1.68-.504c-1.072005 0-2.183994.295997-3.336.888l-1.248-2.256c.608003-.4160021 1.355996-.7679986 2.244-1.056s1.787995-.432 2.7-.432c1.888009 0 3.231996.4359956 4.032 1.308s1.2 2.0759923 1.2 3.612v7.944h-2.928l-.216-.816c-.704004.7520038-1.719993 1.128-3.048 1.128s-2.443995-.3799962-3.348-1.14-1.356-1.7799936-1.356-3.06zm3.912-1.344c-.400002.3200016-.6.7359974-.6 1.248s.207998.9279984.624 1.248.935997.48 1.56.48c.640003 0 1.159998-.1559984 1.56-.468s.6-.7319974.6-1.26c0-.5440027-.199998-.9719984-.6-1.284s-.927997-.468-1.584-.468c-.640003 0-1.16.1679983-1.56.504zm16.032-7.632c2.896014 0 4.344 1.8719813 4.344 5.616v7.248h-3.312v-7.632c0-.6720034-.203998-1.2159979-.612-1.632s-.899997-.624-1.476-.624c-.672003 0-1.211998.2199978-1.62.66s-.612 1.0039966-.612 1.692v7.536h-3.312v-12.552h3.24v1.464c.304002-.4800024.751997-.8959982 1.344-1.248s1.263996-.528 2.016-.528zm11.928 17.16h-3.168l1.752-4.608-4.824-12.24h3.552l2.808 8.184 2.832-8.184h3.456zm-178.104 30.192v-17.04h3.12v1.32c.1600008-.208001.37199868-.4199989.636-.636s.68399712-.4359989 1.26-.66 1.1839968-.336 1.824-.336c1.79200896 0 3.2639942.6159938 4.416 1.848s1.728 2.8079904 1.728 4.728c0 1.9520098-.5439946 3.5399939-1.632 4.764s-2.52799104 1.836-4.32 1.836c-.65600328 0-1.27199712-.1119989-1.848-.336s-.99599868-.4439989-1.26-.66-.46799928-.419999-.612-.612v5.784zm3.216-10.8c0 1.1520058.299997 2.0559967.9 2.712.6.6560033 1.37199528.984 2.316.984.9600048 0 1.73599704-.3439966 2.328-1.032.592003-.6880034.888-1.5759946.888-2.664 0-1.1040055-.299997-1.9839967-.9-2.64s-1.37199528-.984-2.316-.984c-.97600488 0-1.75599708.3479965-2.34 1.044s-.876 1.5559949-.876 2.58zm18.384-6.552v3.36c-2.2560113 0-3.384 1.3439866-3.384 4.032v5.472h-3.312v-12.552h3.24v1.824c.2880014-.6400032.735997-1.155998 1.344-1.548s1.311996-.588 2.112-.588zm3.144 11.328c-1.2640063-1.2320062-1.896-2.7999905-1.896-4.704s.6439936-3.4839937 1.932-4.74 2.8919904-1.884 4.812-1.884 3.5279935.6319937 4.824 1.896 1.944 2.8399906 1.944 4.728c0 1.9040095-.6359936 3.4719938-1.908 4.704s-2.8919902 1.848-4.86 1.848c-1.9520098 0-3.5679936-.6159938-4.848-1.848zm1.416-4.704c0 1.0560053.3239968 1.9239966.972 2.604s1.467995 1.02 2.46 1.02c1.008005 0 1.8359968-.3399966 2.484-1.02s.972-1.5479947.972-2.604c0-1.0720054-.3279967-1.9559965-.984-2.652s-1.479995-1.044-2.472-1.044-1.8119968.3479965-2.46 1.044-.972 1.5799946-.972 2.652zm12.096 6.264v-12.576h3.312v12.72c0 2.9440147-1.599984 4.416-4.8 4.416l-.816-.048v-2.808c.2240011.0320002.4159992.048.576.048 1.1520058 0 1.728-.5839942 1.728-1.752zm.264-14.232c-.3680018-.3680018-.552-.8239973-.552-1.368s.1839982-.9959982.552-1.356.8239973-.54 1.368-.54c.5600028 0 1.0239982.1799982 1.392.54s.552.8119973.552 1.356-.1839982.9959982-.552 1.356-.8319972.54-1.392.54c-.5440027 0-.9999982-.1759982-1.368-.528zm4.992 7.968c0-1.9040095.5799942-3.4839937 1.74-4.74s2.6279911-1.884 4.404-1.884c1.9200096 0 3.4159946.595994 4.488 1.788s1.608 2.8279896 1.608 4.908l-.00384.3456005c-.00384.1535997-.01056.278399-.02016.3743995h-8.832c.0320002.8480042.351997 1.5399973.96 2.076s1.3759954.804 2.304.804c1.3280066 0 2.3439965-.5119949 3.048-1.536l2.184 1.656c-.3520018.6400032-.9759955 1.259997-1.872 1.86s-2.0319931.9-3.408.9c-1.9840099 0-3.579994-.6119939-4.788-1.836s-1.812-2.7959904-1.812-4.716zm3.48-1.368h5.4c-.0320002-.7680038-.2959975-1.3839977-.792-1.848s-1.1279962-.696-1.896-.696-1.3919976.2399976-1.872.72-.7599996 1.0879963-.84 1.824zm16.8 4.992c.9760049 0 1.9199954-.3759962 2.832-1.128l.888 2.712c-1.1200056.8960045-2.4239926 1.344-3.912 1.344-1.9520098 0-3.5559937-.6159938-4.812-1.848s-1.884-2.7999905-1.884-4.704.6359936-3.4839937 1.908-4.74 2.8599905-1.884 4.764-1.884c1.4720074 0 2.7919942.4479955 3.96 1.344l-.936 2.784c-.8800044-.800004-1.8559946-1.2-2.928-1.2-1.0400052 0-1.8759968.3519965-2.508 1.056s-.948 1.5759948-.948 2.616c0 1.0720054.3359966 1.9479966 1.008 2.628s1.5279948 1.02 2.568 1.02zm5.88-9.936v-2.64h3.264v2.64h2.352v2.688h-2.352v4.848c0 .8960045.1399986 1.4959985.42 1.8s.7559966.456 1.428.456c.2240011 0 .4239991-.0079999.6-.024v2.832c-.3360017.0800004-.807997.12-1.416.12-1.4880074 0-2.5799965-.4199958-3.276-1.26s-1.044-2.1159914-1.044-3.828v-4.944h-1.32v-2.688z" fill="#f6c95b"/><path d="m85.344 75.816c-1.2640063-1.2320062-1.896-2.7999905-1.896-4.704s.6439936-3.4839937 1.932-4.74 2.8919904-1.884 4.812-1.884 3.5279935.6319937 4.824 1.896 1.944 2.8399906 1.944 4.728c0 1.9040095-.6359936 3.4719938-1.908 4.704s-2.8919902 1.848-4.86 1.848c-1.9520098 0-3.5679936-.6159938-4.848-1.848zm1.416-4.704c0 1.0560053.3239968 1.9239966.972 2.604s1.467995 1.02 2.46 1.02c1.008005 0 1.8359968-.3399966 2.484-1.02s.972-1.5479947.972-2.604c0-1.0720054-.3279967-1.9559965-.984-2.652s-1.479995-1.044-2.472-1.044-1.8119968.3479965-2.46 1.044-.972 1.5799946-.972 2.652zm18.792-6.624v3.36c-2.256011 0-3.384 1.3439866-3.384 4.032v5.472h-3.312v-12.552h3.24v1.824c.288001-.6400032.735997-1.155998 1.344-1.548s1.311996-.588 2.112-.588z" fill="#fff"/><path d="m114.36 80.808 1.008-2.544c1.088005.5760029 2.279994.864 3.576.864 2.304012 0 3.456-.8319917 3.456-2.496v-.576c-.128001.1760009-.319999.3719989-.576.588s-.671997.4399988-1.248.672-1.191997.348-1.848.348c-1.808009 0-3.259995-.6079939-4.356-1.824s-1.644-2.7999902-1.644-4.752c0-1.9360097.571994-3.5199938 1.716-4.752s2.611991-1.848 4.404-1.848c.928005 0 1.715997.1799982 2.364.54s1.107999.7239982 1.38 1.092v-1.32h3.12v10.968c0 2.192011-.615994 3.7719952-1.848 4.74s-2.86399 1.452-4.896 1.452c-1.680008 0-3.215993-.3839962-4.608-1.152zm8.136-9.744c0-1.0720054-.299997-1.9479966-.9-2.628s-1.379995-1.02-2.34-1.02c-.944005 0-1.711997.3359966-2.304 1.008s-.888 1.5519946-.888 2.64.299997 1.9719966.9 2.652c.6.6800034 1.371995 1.02 2.316 1.02.960005 0 1.735997-.3359966 2.328-1.008s.888-1.5599945.888-2.664zm5.04.048c0-1.9040095.579994-3.4839937 1.74-4.74s2.627991-1.884 4.404-1.884c1.92001 0 3.415995.595994 4.488 1.788s1.608 2.8279896 1.608 4.908l-.00384.3456005c-.00384.1535997-.01056.278399-.02016.3743995h-8.832c.032.8480042.351997 1.5399973.96 2.076s1.375995.804 2.304.804c1.328007 0 2.343996-.5119949 3.048-1.536l2.184 1.656c-.352002.6400032-.975996 1.259997-1.872 1.86s-2.031993.9-3.408.9c-1.98401 0-3.579994-.6119939-4.788-1.836s-1.812-2.7959904-1.812-4.716zm3.48-1.368h5.4c-.032-.7680038-.295998-1.3839977-.792-1.848s-1.127996-.696-1.896-.696-1.391998.2399976-1.872.72-.76 1.0879963-.84 1.824zm10.92-4.944v-2.64h3.264v2.64h2.352v2.688h-2.352v4.848c0 .8960045.139999 1.4959985.42 1.8s.755997.456 1.428.456c.224001 0 .423999-.0079999.6-.024v2.832c-.336002.0800004-.807997.12-1.416.12-1.488007 0-2.579997-.4199958-3.276-1.26s-1.044-2.1159914-1.044-3.828v-4.944h-1.32v-2.688zm20.256-.312c2.896014 0 4.344 1.8719813 4.344 5.616v7.248h-3.288v-7.632c0-.6720034-.203998-1.2159979-.612-1.632s-.899997-.624-1.476-.624c-.688003 0-1.239998.2199978-1.656.66s-.624 1.0039966-.624 1.692v7.536h-3.312v-17.352h3.312v6.264c.304002-.4960025.743997-.9159983 1.32-1.26s1.239996-.516 1.992-.516zm6.864 12.864v-12.552h3.312v12.552zm.264-14.208c-.368002-.3680018-.552-.8239973-.552-1.368s.183998-.9959982.552-1.356.823997-.54 1.368-.54c.560003 0 1.023998.1799982 1.392.54s.552.8119973.552 1.356-.183998.9959982-.552 1.356-.831997.54-1.392.54c-.544003 0-.999998-.1759982-1.368-.528zm12.36 1.344v3.36c-2.256011 0-3.384 1.3439866-3.384 4.032v5.472h-3.312v-12.552h3.24v1.824c.288001-.6400032.735997-1.155998 1.344-1.548s1.311996-.588 2.112-.588zm1.272 6.624c0-1.9040095.579994-3.4839937 1.74-4.74s2.627991-1.884 4.404-1.884c1.92001 0 3.415995.595994 4.488 1.788s1.608 2.8279896 1.608 4.908l-.00384.3456005c-.00384.1535997-.01056.278399-.02016.3743995h-8.832c.032.8480042.351997 1.5399973.96 2.076s1.375995.804 2.304.804c1.328007 0 2.343996-.5119949 3.048-1.536l2.184 1.656c-.352002.6400032-.975996 1.259997-1.872 1.86s-2.031993.9-3.408.9c-1.98401 0-3.579994-.6119939-4.788-1.836s-1.812-2.7959904-1.812-4.716zm3.48-1.368h5.4c-.032-.7680038-.295998-1.3839977-.792-1.848s-1.127996-.696-1.896-.696-1.391998.2399976-1.872.72-.76 1.0879963-.84 1.824zm22.896-9.744v17.352h-3.12v-1.296c-.160001.208001-.371999.415999-.636.624s-.683997.4239989-1.26.648-1.183997.336-1.824.336c-1.808009 0-3.283994-.6119939-4.428-1.836s-1.716-2.8039903-1.716-4.74c0-1.9520098.543995-3.5399939 1.632-4.764s2.527991-1.836 4.32-1.836c.944005 0 1.735997.1839982 2.376.552s1.087999.7279982 1.344 1.08v-6.12zm-6.432 7.416c-.960005 0-1.735997.3439966-2.328 1.032s-.888 1.5759946-.888 2.664c0 1.1040055.299997 1.9839967.9 2.64.6.6560033 1.371995.984 2.316.984.976005 0 1.755997-.3479965 2.34-1.044s.876-1.5559949.876-2.58c0-1.1520058-.299997-2.0559967-.9-2.712s-1.371995-.984-2.316-.984z" fill="#f6c95b"/><path d="m217.152 73.464c0-1.2320062.447996-2.2319962 1.344-3s2.071993-1.152 3.528-1.152c1.136006 0 2.039997.2319977 2.712.696v-.816c0-.5600028-.199998-1.0079983-.6-1.344s-.959996-.504-1.68-.504c-1.072005 0-2.183994.295997-3.336.888l-1.248-2.256c.608003-.4160021 1.355996-.7679986 2.244-1.056s1.787995-.432 2.7-.432c1.888009 0 3.231996.4359956 4.032 1.308s1.2 2.0759923 1.2 3.612v7.944h-2.928l-.216-.816c-.704004.7520038-1.719993 1.128-3.048 1.128s-2.443995-.3799962-3.348-1.14-1.356-1.7799936-1.356-3.06zm3.912-1.344c-.400002.3200016-.6.7359974-.6 1.248s.207998.9279984.624 1.248.935997.48 1.56.48c.640003 0 1.159998-.1559984 1.56-.468s.6-.7319974.6-1.26c0-.5440027-.199998-.9719984-.6-1.284s-.927997-.468-1.584-.468c-.640003 0-1.16.1679983-1.56.504zm9.744-7.32v-2.64h3.264v2.64h2.352v2.688h-2.352v4.848c0 .8960045.139999 1.4959985.42 1.8s.755997.456 1.428.456c.224001 0 .423999-.0079999.6-.024v2.832c-.336002.0800004-.807997.12-1.416.12-1.488007 0-2.579997-.4199958-3.276-1.26s-1.044-2.1159914-1.044-3.828v-4.944h-1.32v-2.688zm-230.688 38.664c0-1.232006.44799552-2.231996 1.344-3 .89600448-.7680038 2.07199272-1.152 3.528-1.152 1.13600568 0 2.03999664.2319977 2.712.696v-.816c0-.5600028-.199998-1.0079983-.6-1.344s-.9599964-.504-1.68-.504c-1.07200536 0-2.18399424.295997-3.336.888l-1.248-2.256c.60800304-.4160021 1.35599556-.7679986 2.244-1.056s1.78799544-.432 2.7-.432c1.88800944 0 3.231996.4359956 4.032 1.308s1.2 2.0759923 1.2 3.612v7.944h-2.928l-.216-.816c-.70400352.752004-1.71999336 1.128-3.048 1.128s-2.44399548-.379996-3.348-1.14-1.356-1.779994-1.356-3.06zm3.912-1.344c-.400002.320002-.6.735997-.6 1.248s.20799792.927998.624 1.248.93599688.48 1.56.48c.6400032 0 1.159998-.155998 1.56-.468s.6-.731997.6-1.26c0-.544003-.199998-.971998-.6-1.284s-.92799672-.468-1.584-.468c-.6400032 0-1.16.167998-1.56.504zm15.696-7.32v-2.64h3.264v2.64h2.352v2.688h-2.352v4.848c0 .896004.1399986 1.495998.42 1.8s.7559966.456 1.428.456c.2240011 0 .4239991-.008.6-.024v2.832c-.3360017.08-.807997.12-1.416.12-1.4880074 0-2.5799965-.419996-3.276-1.26s-1.044-2.115991-1.044-3.828v-4.944h-1.32v-2.688zm8.88 11.016c-1.2640063-1.232006-1.896-2.79999-1.896-4.704 0-1.9040095.6439936-3.4839937 1.932-4.74s2.8919904-1.884 4.812-1.884 3.5279935.6319937 4.824 1.896 1.944 2.8399906 1.944 4.728c0 1.90401-.6359936 3.471994-1.908 4.704s-2.8919902 1.848-4.86 1.848c-1.9520098 0-3.5679936-.615994-4.848-1.848zm1.416-4.704c0 1.056005.3239968 1.923997.972 2.604s1.467995 1.02 2.46 1.02c1.008005 0 1.8359968-.339997 2.484-1.02s.972-1.547995.972-2.604c0-1.072005-.3279967-1.9559965-.984-2.652s-1.479995-1.044-2.472-1.044-1.8119968.3479965-2.46 1.044-.972 1.579995-.972 2.652zm12.096 10.728v-17.04h3.12v1.32c.1600008-.208001.3719987-.4199989.636-.636s.6839971-.4359989 1.26-.66 1.1839968-.336 1.824-.336c1.792009 0 3.2639942.6159938 4.416 1.848s1.728 2.8079904 1.728 4.728c0 1.95201-.5439946 3.539994-1.632 4.764s-2.527991 1.836-4.32 1.836c-.6560033 0-1.2719971-.111999-1.848-.336s-.9959987-.443999-1.26-.66-.4679993-.419999-.612-.612v5.784zm3.216-10.8c0 1.152006.299997 2.055997.9 2.712.6.656003 1.3719953.984 2.316.984.9600048 0 1.735997-.343997 2.328-1.032s.888-1.575995.888-2.664c0-1.1040055-.299997-1.9839967-.9-2.64s-1.3719953-.984-2.316-.984c-.9760049 0-1.7559971.3479965-2.34 1.044s-.876 1.555995-.876 2.58zm23.832 3.696c.9760049 0 1.9199954-.375996 2.832-1.128l.888 2.712c-1.1200056.896004-2.4239926 1.344-3.912 1.344-1.9520098 0-3.5559937-.615994-4.812-1.848s-1.884-2.79999-1.884-4.704c0-1.9040095.6359936-3.4839937 1.908-4.74s2.8599905-1.884 4.764-1.884c1.4720074 0 2.7919942.4479955 3.96 1.344l-.936 2.784c-.8800044-.800004-1.8559946-1.2-2.928-1.2-1.0400052 0-1.8759968.3519965-2.508 1.056s-.948 1.575995-.948 2.616c0 1.072005.3359966 1.947997 1.008 2.628s1.5279948 1.02 2.568 1.02zm6.768 1.08c-1.2640063-1.232006-1.896-2.79999-1.896-4.704 0-1.9040095.6439936-3.4839937 1.932-4.74s2.8919904-1.884 4.812-1.884 3.5279935.6319937 4.824 1.896 1.944 2.8399906 1.944 4.728c0 1.90401-.6359936 3.471994-1.908 4.704s-2.8919902 1.848-4.86 1.848c-1.9520098 0-3.5679936-.615994-4.848-1.848zm1.416-4.704c0 1.056005.3239968 1.923997.972 2.604s1.467995 1.02 2.46 1.02c1.008005 0 1.8359968-.339997 2.484-1.02s.972-1.547995.972-2.604c0-1.072005-.3279967-1.9559965-.984-2.652s-1.479995-1.044-2.472-1.044-1.8119968.3479965-2.46 1.044-.972 1.579995-.972 2.652zm30.024-2.04v8.28h-3.312v-7.512c0-.7360037-.175998-1.3159979-.528-1.74s-.831997-.636-1.44-.636-1.099998.2119979-1.476.636-.564 1.0119962-.564 1.764v7.488h-3.312v-7.632c0-.7040035-.1719983-1.255998-.516-1.656s-.819997-.6-1.428-.6-1.0999981.2119979-1.476.636c-.376.4240021-.564 1.0039963-.564 1.74v7.512h-3.312v-12.552h3.24v1.464c.2560013-.4960025.6679972-.9159983 1.236-1.26s1.2439961-.516 2.028-.516c1.5840079 0 2.7279965.6239938 3.432 1.872.800004-1.2480062 2.039992-1.872 3.72-1.872 1.392007 0 2.451996.4159958 3.18 1.248s1.092 1.943993 1.092 3.336zm2.496 12.768v-17.04h3.12v1.32c.160001-.208001.371999-.4199989.636-.636s.683997-.4359989 1.26-.66 1.183997-.336 1.824-.336c1.792009 0 3.263994.6159938 4.416 1.848s1.728 2.8079904 1.728 4.728c0 1.95201-.543995 3.539994-1.632 4.764s-2.527991 1.836-4.32 1.836c-.656003 0-1.271997-.111999-1.848-.336s-.995999-.443999-1.26-.66-.467999-.419999-.612-.612v5.784zm3.216-10.8c0 1.152006.299997 2.055997.9 2.712.6.656003 1.371995.984 2.316.984.960005 0 1.735997-.343997 2.328-1.032s.888-1.575995.888-2.664c0-1.1040055-.299997-1.9839967-.9-2.64s-1.371995-.984-2.316-.984c-.976005 0-1.755997.3479965-2.34 1.044s-.876 1.555995-.876 2.58zm10.968 2.424c0-1.232006.447996-2.231996 1.344-3 .896004-.7680038 2.071993-1.152 3.528-1.152 1.136006 0 2.039997.2319977 2.712.696v-.816c0-.5600028-.199998-1.0079983-.6-1.344s-.959996-.504-1.68-.504c-1.072005 0-2.183994.295997-3.336.888l-1.248-2.256c.608003-.4160021 1.355996-.7679986 2.244-1.056s1.787995-.432 2.7-.432c1.888009 0 3.231996.4359956 4.032 1.308s1.2 2.0759923 1.2 3.612v7.944h-2.928l-.216-.816c-.704004.752004-1.719993 1.128-3.048 1.128s-2.443995-.379996-3.348-1.14-1.356-1.779994-1.356-3.06zm3.912-1.344c-.400002.320002-.6.735997-.6 1.248s.207998.927998.624 1.248.935997.48 1.56.48c.640003 0 1.159998-.155998 1.56-.468s.6-.731997.6-1.26c0-.544003-.199998-.971998-.6-1.284s-.927997-.468-1.584-.468c-.640003 0-1.16.167998-1.56.504zm16.032-7.632c2.896014 0 4.344 1.8719813 4.344 5.616v7.248h-3.312v-7.632c0-.6720034-.203998-1.2159979-.612-1.632s-.899997-.624-1.476-.624c-.672003 0-1.211998.2199978-1.62.66s-.612 1.0039966-.612 1.692v7.536h-3.312v-12.552h3.24v1.464c.304002-.4800024.751997-.8959982 1.344-1.248s1.263996-.528 2.016-.528zm11.928 17.16h-3.168l1.752-4.608-4.824-12.24h3.552l2.808 8.184 2.832-8.184h3.456zm10.944-4.56c-.384002.384002-.863997.576-1.44.576s-1.059998-.195998-1.452-.588-.588-.867997-.588-1.428c0-.576003.195998-1.064.588-1.464.392002-.400002.875997-.6 1.452-.6s1.059998.199998 1.452.6c.392002.4.588.887997.588 1.464 0 .560003-.199998 1.039998-.6 1.44z" fill="#fff"/></g><g><use fill="none" xlink:href="#d"/><use fill="#000" filter="url(#e)" xlink:href="#d"/></g></g></g></svg>