<svg height="105" viewBox="0 0 888 105" width="888" xmlns="http://www.w3.org/2000/svg" xmlns:xlink="http://www.w3.org/1999/xlink"><defs><rect id="a" height="105" rx="15" width="888"/><rect id="b" height="40" rx="20" width="163"/><filter id="c" height="105%" width="101.2%" x="-.6%" y="-2.5%"><feOffset dx="0" dy="-2" in="SourceAlpha" result="shadowOffsetInner1"/><feComposite in="shadowOffsetInner1" in2="SourceAlpha" k2="-1" k3="1" operator="arithmetic" result="shadowInnerInner1"/><feColorMatrix in="shadowInnerInner1" type="matrix" values="0 0 0 0 0   0 0 0 0 0   0 0 0 0 0  0 0 0 0.245738636 0"/></filter><linearGradient id="d" x1="98.336583%" x2="35.67497%" y1="90.013%" y2="17.616%"><stop offset="0" stop-color="#ff16b8"/><stop offset="1" stop-color="#ff16b8"/></linearGradient><linearGradient id="e" x1="20.333019%" x2="79.666981%" y1="0%" y2="100%"><stop offset="0" stop-color="#ff16b8"/><stop offset="1" stop-color="#ff16b8" stop-opacity=".461"/></linearGradient><mask id="f" fill="#fff"><use fill="#fff" fill-rule="evenodd" xlink:href="#a"/></mask></defs><g fill="none" fill-rule="evenodd"><use fill="#131231" fill-rule="nonzero" xlink:href="#a"/><g fill="#fff" mask="url(#f)"><g transform="translate(461 -125)"><path d="m0 333c4.389057-77.276042 36.8544188-126.609375 97.396085-148 90.8125-32.085937 151.929688 17.828125 210.953125-32.085937 39.348959-33.276042 42.682292-84.2473963 10-152.914063h95c8.284272 0 15 6.71572875 15 15v303c0 8.284271-6.715728 15-15 15z" fill-opacity=".082632"/><g fill-opacity=".1"><circle cx="5.5" cy="180.5" r="3.5"/><circle cx="250.5" cy="149.5" r="3.5"/><circle cx="150.5" cy="209.5" r="3.5"/></g></g></g><g mask="url(#f)"><g transform="translate(542 18)"><circle cx="35" cy="35" fill="#262642" r="35"/><g fill="#61dafb" transform="translate(14 16.470588)"><path d="m41.9407059 18.5294118c0-2.7559412-3.4748824-5.3685883-8.8014706-6.9880589 1.2291176-5.39329408.6831176-9.68470584-1.7244706-11.0583529-.5558823-.32117647-1.2031765-.47435294-1.9122353-.47435294v1.89c.3928235 0 .7090588.07782353.9734118.22235294 1.1611764.66088235 1.6639412 3.17964706 1.2723529 6.41858824-.0951176.7967647-.2482941 1.63676466-.4360588 2.49282356-1.7844805-.4271466-3.5952547-.7358201-5.4204706-.924-1.0880782-1.49069864-2.2745443-2.90702967-3.5514706-4.23952945 2.7831177-2.56941176 5.3945294-3.97764706 7.1708824-3.97764706v-1.89123529c-2.3470589 0-5.4204706 1.66270588-8.5284706 4.54588235-3.1067647-2.86588235-6.1801765-4.51252941-8.5272353-4.51252941v1.8912353c1.7664706 0 4.3877647 1.39958823 7.169647 3.95294117-1.2707133 1.32786308-2.4486651 2.74148784-3.5255294 4.23088239-1.9282941.2038235-3.7552941.5175882-5.4291176.932647-.1884163-.8116318-.3368306-1.63203317-.4447059-2.45823527-.40023529-3.24017647.0951177-5.75894118 1.2476471-6.42847059.2557058-.15317647.5892353-.22111765.9820588-.22111765v-1.89c-.7177059 0-1.3662353.15194118-1.9295294.47435294-2.3989412 1.37241177-2.93752944 5.65641177-1.69852944 11.03241177-5.31052941 1.6281176-8.76811764 4.2321176-8.76811764 6.9794118 0 2.7559411 3.47488235 5.3685882 8.80147059 6.9880588-1.22911765 5.3932941-.68311765 9.6847059 1.72447059 11.0583529.5558823.3211765 1.2031765.474353 1.9208823.474353 2.3470589 0 5.4204706-1.6614706 8.5284706-4.5458824 3.1067647 2.8658824 6.1801765 4.5125294 8.5272353 4.5125294.7164706 0 1.3662353-.1531764 1.9295294-.4755882 2.3989412-1.3736471 2.9362942-5.6564118 1.6985295-11.0324118 5.2932352-1.6194706 8.7508235-4.2321176 8.7508235-6.9794117zm-11.1151765-5.6564118c-.3319119 1.1340078-.7165058 2.251927-1.1525294 3.3501176-.3495882-.6794117-.7164706-1.3575882-1.1179412-2.0357647-.3928005-.6716195-.8026392-1.333128-1.2291176-1.9838823 1.2118235.1778823 2.381647.3977647 3.4995882.6695294zm-3.9097059 9.0312353c-.63934 1.1087305-1.3255483 2.1897663-2.0567647 3.2401765-2.5619153.2243515-5.1384108.2272446-7.7008235.008647-.7322514-1.0460221-1.4213008-2.1216316-2.0654118-3.2241176-.6405066-1.0983778-1.2331788-2.2239603-1.7763529-3.3735883 1.0851248-2.3121113 2.3645405-4.5279469 3.8244706-6.623647 2.5619153-.2243516 5.1384108-.2272447 7.7008235-.0086471.7322226 1.0456185 1.4212718 2.1208154 2.0654118 3.2228824.6485294 1.1117647 1.2377647 2.2383529 1.7763529 3.3748235-.5385882 1.1364706-1.1278235 2.2729412-1.7677059 3.3847059zm2.7571765-1.1018824c.4607647 1.1364706.8535882 2.2729412 1.1784706 3.3748236-1.1179412.2717647-2.2976471.5002941-3.5168824.6794117.4175294-.6547058.8362942-1.3242353 1.2291177-2.0110588.3928235-.6781765.7597059-1.365 1.1092941-2.0431765zm-8.6557059 9.0485295c-.8370564-.8633185-1.629105-1.7691648-2.373-2.7139412.768353.0333529 1.5527647.0592941 2.3470588.0592941.8029412 0 1.596-.0172941 2.373-.0592941-.7328044.9463388-1.5163038 1.8523115-2.3470588 2.7139412zm-6.3518823-4.9955295c-1.1761786-.1693971-2.3439423-.3928097-3.4995883-.6695294.3162353-1.0944706.7090589-2.2222941 1.1525294-3.3501176.3495883.6794117.7164706 1.3575882 1.1179412 2.0357647.4014706.6794118.8115883 1.3402941 1.2291177 1.9838823zm6.3098823-17.64741172c.8366346.86334915 1.6282704 1.7691949 2.3717647 2.71394117-.7818214-.03702916-1.5643649-.05679868-2.3470588-.05929411-.8029412 0-1.596.01729411-2.373.05929411.7328044-.94633878 1.5163039-1.85231154 2.3470588-2.71394117zm-6.3185294 4.99676472c-.8463249 1.308341-1.6267679 2.6581405-2.3384118 4.0443529-.4481881-1.1048372-.8414915-2.2311526-1.1784705-3.3748235 1.1621699-.2734147 2.3355449-.4967969 3.5168823-.6695294zm-7.72552941 10.6173529c-3.02152941-1.2822353-4.9757647-2.961-4.9757647-4.292647 0-1.3316471 1.95423529-3.0190589 4.9757647-4.2914118.735-.3137647 1.53670589-.5929412 2.36558824-.8560588.52211896 1.7626933 1.16348027 3.4878481 1.91964707 5.1635294-.7483596 1.6676162-1.38149155 3.3845843-1.89494119 5.1388235-.81036419-.2491577-1.60807877-.5377367-2.39029412-.8647059zm4.59282351 12.1182353c-1.1611764-.6621176-1.66394115-3.1808823-1.2723529-6.4198235.0951176-.7967647.2482941-1.6367647.4360588-2.4928235 1.6738235.407647 3.4995882.7201764 5.4204706.924 1.0880782 1.4906986 2.2745443 2.9070296 3.5514706 4.2395294-2.7831177 2.5694117-5.3945294 3.977647-7.1708824 3.977647-.3829411-.008647-.7078235-.0852353-.9635294-.2285294zm20.2489412-6.4618235c.4014706 3.2389412-.0938824 5.7577059-1.2464118 6.4272353-.2557058.1531765-.5892353.2211176-.9820588.2211176-1.7664706 0-4.3877647-1.3995882-7.169647-3.9529411 1.2707133-1.3278631 2.4486651-2.7414879 3.5255294-4.2308824 1.8289428-.1860816 3.6429266-.4976989 5.4291176-.9326471.1964118.8560589.3495882 1.68.4447059 2.4681177zm3.2858824-5.6576471c-.7337648.315-1.5354706.5941765-2.364353.8572941-.5221189-1.7626933-1.1634803-3.487848-1.919647-5.1635294.7483595-1.6676162 1.3814915-3.3845842 1.8949411-5.1388235.8449412.2618824 1.6466471.5497059 2.3989412.8647059 3.0215294 1.2797647 4.9757647 2.9585294 4.9757647 4.2901765-.0074118 1.331647-1.9628823 3.0190588-4.9844118 4.2914117z" fill-rule="nonzero"/><ellipse cx="20.991353" cy="18.529412" rx="3.901059" ry="3.875118"/></g><g fill-rule="nonzero" transform="translate(153 15)"><use fill="#ce1f99" xlink:href="#b"/><use fill="#000" filter="url(#c)" xlink:href="#b"/><g fill="#fff"><path d="m17 5h-13.17l2.88-2.88c.39-.39.39-1.02 0-1.41s-1.02-.39-1.41 0l-4.59 4.59c-.39.39-.39 1.02 0 1.41l4.59 4.59c.39.39 1.02.39 1.41 0s.39-1.02 0-1.41l-2.88-2.89h13.17c.55 0 1-.45 1-1s-.45-1-1-1z" transform="matrix(-1 0 0 1 148 12)"/><path d="m19.064 23.208c1.088 0 1.9546667-.3066667 2.6-.92s.968-1.4.968-2.36c0-.5546667-.1253333-1.0426667-.376-1.464s-.5626667-.752-.936-.992-.7813333-.472-1.224-.696-.8506667-.4213333-1.224-.592-.6853333-.392-.936-.664-.376-.5786667-.376-.92c0-.3946667.1386667-.7226667.416-.984s.656-.392 1.136-.392c.832 0 1.456.4373333 1.872 1.312l1.472-.656c-.0853333-.2346667-.2-.4666667-.344-.696s-.344-.472-.6-.728-.5893333-.464-1-.624-.8666667-.24-1.368-.24c-1.0133333 0-1.8266667.2826667-2.44.848s-.92 1.2906667-.92 2.176c0 .6613333.1733333 1.2293333.52 1.704s.7653333.84 1.256 1.096.984.496 1.48.72.9173333.4933333 1.264.808.52.6853333.52 1.112c0 .4693333-.152.8373333-.456 1.104s-.712.4-1.224.4c-1.056 0-1.7866667-.528-2.192-1.584l-1.504.704c.096.288.2266667.5626667.392.824s.3893333.528.672.8.6426667.4906667 1.08.656.928.248 1.472.248zm7.08-.208v-5.04c0-.576.1706667-1.0453333.512-1.408s.784-.544 1.328-.544c.4906667 0 .8933333.1626667 1.208.488s.472.7706667.472 1.336v5.168h1.728v-5.024c0-1.0133333-.2346667-1.856-.704-2.528s-1.2053333-1.008-2.208-1.008c-.5226667 0-.992.1253333-1.408.376s-.7253333.5573333-.928.92v-4.304h-1.744v11.568zm11.24.208c1.2693333 0 2.3253333-.416 3.168-1.248s1.264-1.8773333 1.264-3.136-.4186667-2.304-1.256-3.136-1.896-1.248-3.176-1.248c-1.2586667 0-2.3093333.4186667-3.152 1.256s-1.264 1.8853333-1.264 3.144c0 1.2693333.416 2.3146667 1.248 3.136s1.888 1.232 3.168 1.232zm0-1.552c-.7786667 0-1.416-.264-1.912-.792s-.744-1.2026667-.744-2.024.2453333-1.4986667.736-2.032c.5013333-.544 1.1413333-.816 1.92-.816s1.4213333.2666667 1.928.8.76 1.2106667.76 2.032-.2533333 1.4986667-.76 2.032-1.1493333.8-1.928.8zm9.784 1.344 1.888-5.984 1.872 5.984h1.936l2.656-8.352h-1.888l-1.84 6.4-1.904-6.4h-1.664c-1.2693333 4.2346667-1.9093333 6.368-1.92 6.4l-1.824-6.4h-1.888l2.656 8.352zm15.6 0v-5.024c0-.5866667.16-1.0613333.48-1.424s.72-.544 1.2-.544c.5013333 0 .8933333.1626667 1.176.488s.424.7706667.424 1.336v5.168h1.744v-4.992c0-.6293333.1573333-1.12.472-1.472s.7226667-.528 1.224-.528c1.0666667 0 1.6.6613333 1.6 1.984v5.008h1.728v-5.456c0-.9386667-.2453333-1.6906667-.736-2.256s-1.1946667-.848-2.112-.848c-1.1946667 0-2.0533333.464-2.576 1.392-.4373333-.928-1.2373333-1.392-2.4-1.392-.5333333 0-1 .128-1.4.384s-.6853333.56-.856.912v-1.088h-1.712v8.352zm15.976.208c.8853333 0 1.6213333-.1893333 2.208-.568s1.0133333-.7973333 1.28-1.256l-1.152-.864c-.5333333.7786667-1.3013333 1.168-2.304 1.168-.7466667 0-1.3626667-.224-1.848-.672s-.7333333-1.04-.744-1.776h6.288c.0106667-.096.016-.24.016-.432 0-1.3226667-.3573333-2.3813333-1.072-3.176s-1.696-1.192-2.944-1.192c-1.152 0-2.1173333.416-2.896 1.248s-1.168 1.888-1.168 3.168.4 2.3253333 1.2 3.136 1.8453333 1.216 3.136 1.216zm1.968-5.168h-4.464c.0533333-.6506667.288-1.1706667.704-1.56s.928-.584 1.536-.584c.6186667 0 1.136.1893333 1.552.568s.64.904.672 1.576zm9.344 4.96v-5.04c0-.576.1706667-1.0453333.512-1.408s.784-.544 1.328-.544c.4906667 0 .8933333.1626667 1.208.488s.472.7706667.472 1.336v5.168h1.728v-5.024c0-1.0133333-.2346667-1.856-.704-2.528s-1.2053333-1.008-2.208-1.008c-.5226667 0-.992.1253333-1.408.376s-.7253333.5573333-.928.92v-4.304h-1.744v11.568zm11.24.208c1.269333 0 2.325333-.416 3.168-1.248s1.264-1.8773333 1.264-3.136-.418667-2.304-1.256-3.136-1.896-1.248-3.176-1.248c-1.258667 0-2.3093333.4186667-3.152 1.256s-1.264 1.8853333-1.264 3.144c0 1.2693333.416 2.3146667 1.248 3.136s1.888 1.232 3.168 1.232zm0-1.552c-.778667 0-1.416-.264-1.912-.792s-.744-1.2026667-.744-2.024.2453333-1.4986667.736-2.032c.5013333-.544 1.141333-.816 1.92-.816s1.421333.2666667 1.928.8.76 1.2106667.76 2.032-.253333 1.4986667-.76 2.032-1.149333.8-1.928.8zm9.784 1.344 1.888-5.984 1.872 5.984h1.936l2.656-8.352h-1.888l-1.84 6.4-1.904-6.4h-1.664c-1.269333 4.2346667-1.909333 6.368-1.92 6.4l-1.824-6.4h-1.888l2.656 8.352z"/></g></g></g></g><g transform="translate(31 68)"><path d="m9.86110699.07144874h-2.05840733v6.04513798c0 2.14209039-1.71294539 3.88098949-3.82306427 3.88098949-1.97760802 0-3.60239239-1.52253923-3.80079958-3.47779821.23521577 3.07478921 2.77159591 5.4928432 5.85938646 5.4928432 3.24956872 0 5.88147443-2.67178015 5.88147443-5.97058477v-3.88080722c.0009047-.55452539-.2156901-1.08660393-.6019469-1.47871314-.3862568-.3921092-.9103939-.61198571-1.45664281-.61106733z" fill="url(#d)"/><path d="m7.80269966 6.07192946v.11938982c0 .01494651 0 .02989302-.00736171.04483954 0 .01476423 0 .02971075-.00736172.04465726 0 .01494651-.00736171.02989302-.00736171.04483954 0 .01494651-.00718216.02989302-.00718216.04483953 0 .01476424-.00754127.02971075-.00754127.04465726 0 .01494652-.00718216.02989303-.00718216.04483954s-.00754127.02989303-.00754127.04483954c-.00718216.01494651-.00718216.02971075-.01472343.04465726-.00718216.01494651-.00718216.02989302-.01472343.04483954-.00718216.01494651-.00718216.02989302-.01454388.04483953-.00736171.01494652-.00736171.02971075-.01472343.03718401-.00736171.01494651-.00736171.02989302-.01472343.04483954-.00736171.01494651-.00736171.02989302-.01472343.03736628-.00682848.01151893-.01179901.02407201-.01472343.037184-.00736171.01494652-.01472343.02241977-.01472343.03736628-.00718216.01494652-.01472343.02989303-.02208514.03736628-.00718216.01494652-.01472343.02241977-.02208515.03736628-.00718216.01494652-.01454387.0222375-.02190559.03718401-.00736171.01494651-.01472343.02241977-.02208514.03736628-.00736172.01494651-.01472343.02241977-.02208515.03736628-.00736171.01494651-.01472343.02241977-.02208514.03736628-.00718216.01476424-.01472343.0222375-.02208515.03718401-.00718216.01494651-.01472343.02241977-.02208514.03736628-.00718216.01494651-.01454388.02241977-.02926731.03736628-.00736171.00729098-.01472343.02241977-.02944686.02989302-.00736171.01476424-.02208514.0222375-.02944686.02971075-.00718216.00747326-.01472343.02241977-.02944686.02989303l-.02926731.02989302-.02944686.02989303-.02944685.02971075-.02944686.02989302-.02944686.02989303c-.00718217.00729098-.0219056.01494651-.02926731.02989302-.01472343.00729098-.02208515.01494651-.03680858.02989303-.00736171.00729098-.02208514.01476423-.02944686.02223749-.01472343.00747326-.02208514.01494651-.03680857.02241977-.00718216.00747325-.02190559.01494651-.02926731.02241977-.01472343.00747325-.02208514.01494651-.03680857.02241976-.01472343.00729099-.02208515.01494652-.03680858.02241977-.01472343.00729098-.02208514.01494651-.03680857.02241977-.01454388.00729098-.02190559.01476424-.03662902.02223749-.01472343.00747326-.02944686.01494652-.03680858.02241977-.01472343.00747326-.02208514.01494652-.03680857.01494652l-.04399074.02241976c-.01472343.00729098-.02208514.01494652-.03680857.01494652-.01342885.00829081-.02852698.01339977-.04417029.01494651-.01472343.00729098-.02208515.00729098-.03680858.01494651-.01454387.00729098-.0292673.00729098-.04399073.01476424-.01472343.00747325-.02208515.00747325-.03680858.01494651s-.02944686.00747326-.04417029.01494651c-.01454387.00747326-.0292673.00747326-.03662902.01494651-.01472343.00747326-.02944686.00747326-.04417029.00747326s-.02208514.00747326-.03680857.00747326-.03662902.00747325-.05135245.00747325-.02208515.00729098-.03680858.00729098-.03680857.00765554-.051532.00765554-.02208515 0-.03662902.00729098c-.02208515 0-.04417029 0-.05889372.00765553h-.11760789c-.46831948.00116535-.91778851-.18717682-1.24894138-.52334717-.33115288-.33617034-.51668398-.7924495-.51553601-1.26786473v-3.88828048c-.01454388-1.1568965-.93368093-2.08977759-2.07313076-2.08977759h-2.05858689v5.99300458c0 .1567561.00718216.30603895.02208515.4553218.19840719 1.95525898 1.82319156 3.47779821 3.80079958 3.47779821 2.11011888 0 3.82306427-1.7388991 3.82306427-3.88098949z" fill="url(#e)"/></g><g fill-rule="nonzero" transform="translate(31 26)"><g transform="translate(.278 .248)"><path d="m12.546 24.752v-4.318h-7.752v-19.482h-4.794v23.8zm10.88.442c1.9493333 0 3.5586667-.425 4.828-1.275s2.1533333-1.7283333 2.652-2.635l-3.094-2.346c-.9973333 1.4506667-2.4366667 2.176-4.318 2.176-1.3146667 0-2.4026667-.3796667-3.264-1.139s-1.3146667-1.7396667-1.36-2.941h12.512c.0226667-.2266667.034-.5666667.034-1.02 0-2.9466667-.7593333-5.2643333-2.278-6.953-1.5186667-1.68866667-3.638-2.533-6.358-2.533-2.516 0-4.5956667.88966667-6.239 2.669-1.6433333 1.7793333-2.465 4.0176667-2.465 6.715 0 2.72.8556667 4.947 2.567 6.681s3.9723333 2.601 6.783 2.601zm3.23-11.22h-7.65c.1133333-1.0426667.51-1.904 1.19-2.584s1.564-1.02 2.652-1.02 1.9833333.3286667 2.686.986 1.0766667 1.53 1.122 2.618zm13.022 11.22c1.8813333 0 3.3206667-.5326667 4.318-1.598l.306 1.156h4.148v-11.254c0-2.176-.5666667-3.88166667-1.7-5.117s-3.0373333-1.853-5.712-1.853c-1.292 0-2.567.204-3.825.612s-2.3176667.90666667-3.179 1.496l1.768 3.196c1.632-.8386667 3.2073333-1.258 4.726-1.258 1.02 0 1.8133333.238 2.38.714s.85 1.1106667.85 1.904v1.156c-.952-.6573333-2.2326667-.986-3.842-.986-2.0626667 0-3.7286667.544-4.998 1.632s-1.904 2.5046667-1.904 4.25c0 1.8133333.6403333 3.2583333 1.921 4.335s2.8616667 1.615 4.743 1.615zm1.122-3.638c-.884 0-1.6206667-.2266667-2.21-.68s-.884-1.0426667-.884-1.768.2833333-1.3146667.85-1.768c.5666667-.476 1.3033333-.714 2.21-.714.9293333 0 1.6773333.221 2.244.663s.85 1.0483333.85 1.819c0 .748-.2833333 1.343-.85 1.785s-1.3033333.663-2.21.663zm15.81 3.196v-7.752c0-3.808 1.598-5.712 4.794-5.712v-4.76c-1.1333333 0-2.1306667.27766667-2.992.833s-1.496 1.28633333-1.904 2.193v-2.584h-4.59v17.782zm12.24 0v-10.676c0-.9746667.289-1.7736667.867-2.397s1.343-.935 2.295-.935c.816 0 1.513.2946667 2.091.884s.867 1.36.867 2.312v10.812h4.692v-10.268c0-5.304-2.0513333-7.956-6.154-7.956-1.0653333 0-2.0173333.24933333-2.856.748s-1.4733333 1.088-1.904 1.768v-2.074h-4.59v17.782z" fill="#fff"/><path d="m96.866 24.752v-9.316h2.55l4.624 9.316h5.304l-5.644-10.438c1.110667-.612 1.989-1.462 2.635-2.55s.969-2.33466667.969-3.74c0-2.04-.714-3.72866667-2.142-5.066s-3.4-2.006-5.916-2.006h-7.174v23.8zm2.244-13.362h-2.244v-6.29h2.006c1.088 0 1.943667.27766667 2.567.833s.935 1.309.935 2.261c0 .99733333-.311667 1.77933333-.935 2.346-.623333.5666667-1.399667.85-2.329.85zm20.808 13.804c1.949333 0 3.558667-.425 4.828-1.275s2.153333-1.7283333 2.652-2.635l-3.094-2.346c-.997333 1.4506667-2.436667 2.176-4.318 2.176-1.314667 0-2.402667-.3796667-3.264-1.139s-1.314667-1.7396667-1.36-2.941h12.512c.022667-.2266667.034-.5666667.034-1.02 0-2.9466667-.759333-5.2643333-2.278-6.953-1.518667-1.68866667-3.638-2.533-6.358-2.533-2.516 0-4.595667.88966667-6.239 2.669-1.643333 1.7793333-2.465 4.0176667-2.465 6.715 0 2.72.855667 4.947 2.567 6.681s3.972333 2.601 6.783 2.601zm3.23-11.22h-7.65c.113333-1.0426667.51-1.904 1.19-2.584s1.564-1.02 2.652-1.02 1.983333.3286667 2.686.986 1.076667 1.53 1.122 2.618zm13.022 11.22c1.881333 0 3.320667-.5326667 4.318-1.598l.306 1.156h4.148v-11.254c0-2.176-.566667-3.88166667-1.7-5.117s-3.037333-1.853-5.712-1.853c-1.292 0-2.567.204-3.825.612s-2.317667.90666667-3.179 1.496l1.768 3.196c1.632-.8386667 3.207333-1.258 4.726-1.258 1.02 0 1.813333.238 2.38.714s.85 1.1106667.85 1.904v1.156c-.952-.6573333-2.232667-.986-3.842-.986-2.062667 0-3.728667.544-4.998 1.632s-1.904 2.5046667-1.904 4.25c0 1.8133333.640333 3.2583333 1.921 4.335s2.861667 1.615 4.743 1.615zm1.122-3.638c-.884 0-1.620667-.2266667-2.21-.68s-.884-1.0426667-.884-1.768.283333-1.3146667.85-1.768c.566667-.476 1.303333-.714 2.21-.714.929333 0 1.677333.221 2.244.663s.85 1.0483333.85 1.819c0 .748-.283333 1.343-.85 1.785s-1.303333.663-2.21.663zm19.618 3.638c2.108 0 3.955333-.6346667 5.542-1.904l-1.258-3.842c-1.292 1.0653333-2.629333 1.598-4.012 1.598-1.473333 0-2.686-.4816667-3.638-1.445s-1.428-2.2043333-1.428-3.723c0-1.4733333.447667-2.7086667 1.343-3.706s2.079667-1.496 3.553-1.496c1.518667 0 2.901333.5666667 4.148 1.7l1.326-3.944c-1.654667-1.26933333-3.524667-1.904-5.61-1.904-2.697333 0-4.947.88966667-6.749 2.669-1.802 1.7793333-2.703 4.0176667-2.703 6.715s.889667 4.9186667 2.669 6.664 4.051667 2.618 6.817 2.618zm14.688-.204c.861333 0 1.53-.0566667 2.006-.17v-4.012c-.249333.0226667-.532667.034-.85.034-.952 0-1.626333-.2153333-2.023-.646s-.595-1.2806667-.595-2.55v-6.868h3.332v-3.808h-3.332v-3.74h-4.624v3.74h-1.904v3.808h1.87v7.004c0 2.4253333.493 4.233 1.479 5.423s2.533 1.785 4.641 1.785z" fill="#f6c95b"/><path d="m191.352 24.99c.861333 0 1.53-.0566667 2.006-.17v-4.012c-.249333.0226667-.532667.034-.85.034-.952 0-1.626333-.2153333-2.023-.646s-.595-1.2806667-.595-2.55v-6.868h3.332v-3.808h-3.332v-3.74h-4.624v3.74h-1.904v3.808h1.87v7.004c0 2.4253333.493 4.233 1.479 5.423s2.533 1.785 4.641 1.785zm9.486-.238v-10.676c0-.9746667.294667-1.7736667.884-2.397s1.371333-.935 2.346-.935c.816 0 1.513.2946667 2.091.884s.867 1.36.867 2.312v10.812h4.658v-10.268c0-5.304-2.051333-7.956-6.154-7.956-1.065333 0-2.006.24366667-2.822.731s-1.439333 1.08233333-1.87 1.785v-8.874h-4.692v24.582zm22.814.442c1.949333 0 3.558667-.425 4.828-1.275s2.153333-1.7283333 2.652-2.635l-3.094-2.346c-.997333 1.4506667-2.436667 2.176-4.318 2.176-1.314667 0-2.402667-.3796667-3.264-1.139s-1.314667-1.7396667-1.36-2.941h12.512c.022667-.2266667.034-.5666667.034-1.02 0-2.9466667-.759333-5.2643333-2.278-6.953-1.518667-1.68866667-3.638-2.533-6.358-2.533-2.516 0-4.595667.88966667-6.239 2.669-1.643333 1.7793333-2.465 4.0176667-2.465 6.715 0 2.72.855667 4.947 2.567 6.681s3.972333 2.601 6.783 2.601zm3.23-11.22h-7.65c.113333-1.0426667.51-1.904 1.19-2.584s1.564-1.02 2.652-1.02 1.983333.3286667 2.686.986 1.076667 1.53 1.122 2.618zm20.502 10.778v-7.752c0-3.808 1.598-5.712 4.794-5.712v-4.76c-1.133333 0-2.130667.27766667-2.992.833s-1.496 1.28633333-1.904 2.193v-2.584h-4.59v17.782zm9.86-19.38c.793333 0 1.450667-.255 1.972-.765s.782-1.15033333.782-1.921-.260667-1.411-.782-1.921-1.178667-.765-1.972-.765c-.770667 0-1.416667.255-1.938.765s-.782 1.15033333-.782 1.921.260667 1.41666667.782 1.938c.521333.49866667 1.167333.748 1.938.748zm2.38 19.38v-17.782h-4.692v17.782zm11.526 6.528c2.878667 0 5.190667-.6856667 6.936-2.057s2.618-3.6096667 2.618-6.715v-15.538h-4.42v1.87c-.385333-.52133333-1.037-1.037-1.955-1.547s-2.034333-.765-3.349-.765c-2.538667 0-4.618333.87266667-6.239 2.618-1.620667 1.7453333-2.431 3.9893333-2.431 6.732 0 2.7653333.776333 5.0093333 2.329 6.732s3.609667 2.584 6.171 2.584c.929333 0 1.802-.1643333 2.618-.493s1.405333-.646 1.768-.952.634667-.5836667.816-.833v.816c0 2.3573333-1.632 3.536-4.896 3.536-1.836 0-3.524667-.408-5.066-1.224l-1.428 3.604c1.972 1.088 4.148 1.632 6.528 1.632zm.442-10.234c-1.337333 0-2.431-.4816667-3.281-1.445s-1.275-2.2156667-1.275-3.757.419333-2.788 1.258-3.74 1.926667-1.428 3.264-1.428c1.36 0 2.465.4816667 3.315 1.445s1.275 2.2043333 1.275 3.723c0 1.564-.419333 2.822-1.258 3.774s-1.938 1.428-3.298 1.428zm17.34 3.706v-10.676c0-.9746667.294667-1.7736667.884-2.397s1.371333-.935 2.346-.935c.816 0 1.513.2946667 2.091.884s.867 1.36.867 2.312v10.812h4.658v-10.268c0-5.304-2.051333-7.956-6.154-7.956-1.065333 0-2.006.24366667-2.822.731s-1.439333 1.08233333-1.87 1.785v-8.874h-4.692v24.582zm20.944.238c.861333 0 1.53-.0566667 2.006-.17v-4.012c-.249333.0226667-.532667.034-.85.034-.952 0-1.626333-.2153333-2.023-.646s-.595-1.2806667-.595-2.55v-6.868h3.332v-3.808h-3.332v-3.74h-4.624v3.74h-1.904v3.808h1.87v7.004c0 2.4253333.493 4.233 1.479 5.423s2.533 1.785 4.641 1.785zm22.168-.238 3.298-11.39 3.264 11.39h5.236l5.338-17.782h-5.1l-3.162 12.614-3.366-12.614h-4.42l-3.4 12.614-3.128-12.614h-5.1l5.304 17.782zm24.854.442c1.881333 0 3.320667-.5326667 4.318-1.598l.306 1.156h4.148v-11.254c0-2.176-.566667-3.88166667-1.7-5.117s-3.037333-1.853-5.712-1.853c-1.292 0-2.567.204-3.825.612s-2.317667.90666667-3.179 1.496l1.768 3.196c1.632-.8386667 3.207333-1.258 4.726-1.258 1.02 0 1.813333.238 2.38.714s.85 1.1106667.85 1.904v1.156c-.952-.6573333-2.232667-.986-3.842-.986-2.062667 0-3.728667.544-4.998 1.632s-1.904 2.5046667-1.904 4.25c0 1.8133333.640333 3.2583333 1.921 4.335s2.861667 1.615 4.743 1.615zm1.122-3.638c-.884 0-1.620667-.2266667-2.21-.68s-.884-1.0426667-.884-1.768.283333-1.3146667.85-1.768c.566667-.476 1.303333-.714 2.21-.714.929333 0 1.677333.221 2.244.663s.85 1.0483333.85 1.819c0 .748-.283333 1.343-.85 1.785s-1.303333.663-2.21.663zm18.326 9.282 9.078-23.868h-4.896l-4.012 11.594-3.978-11.594h-5.032l6.834 17.34-2.482 6.528zm16.388-12.852.374-17.034h-4.964l.374 17.034zm-2.108 7.208c.816 0 1.496-.272 2.04-.816.566667-.5666667.85-1.2466667.85-2.04 0-.816-.277667-1.5073333-.833-2.074s-1.241-.85-2.057-.85-1.501667.2833333-2.057.85-.833 1.258-.833 2.074c0 .7933333.277667 1.4676667.833 2.023s1.241.833 2.057.833z" fill="#fff"/></g><path d="m19.868 51.156c.4 0 .756-.094 1.068-.282s.544-.418.696-.69v.816h1.284v-6.264h-1.308v3.78c0 .432-.126.784-.378 1.056s-.582.408-.99.408c-.368 0-.67-.122-.906-.366s-.354-.578-.354-1.002v-3.876h-1.296v3.768c0 .76.176 1.392.528 1.896s.904.756 1.656.756zm5.772-.156v-8.676h-1.308v8.676zm3.552.084c.272 0 .484-.016.636-.048v-1.128l-.252.012c-.376 0-.648-.082-.816-.246s-.252-.478-.252-.942v-2.916h1.272v-1.08h-1.272v-1.308h-1.296v1.308h-.696v1.08h.696v2.712c0 .824.15 1.456.45 1.896s.81.66 1.53.66zm2.328-7.08c.232 0 .426-.078.582-.234s.234-.35.234-.582-.078-.426-.234-.582-.35-.234-.582-.234-.426.078-.582.234-.234.35-.234.582.076.428.228.588c.16.152.356.228.588.228zm.66 6.996v-6.264h-1.308v6.264zm2.772 0v-3.768c0-.44.12-.796.36-1.068s.54-.408.9-.408c.376 0 .67.122.882.366s.318.578.318 1.002v3.876h1.308v-3.744c0-.472.118-.84.354-1.104s.542-.396.918-.396c.8 0 1.2.496 1.2 1.488v3.756h1.296v-4.092c0-.704-.184-1.268-.552-1.692s-.896-.636-1.584-.636c-.896 0-1.54.348-1.932 1.044-.328-.696-.928-1.044-1.8-1.044-.4 0-.75.096-1.05.288s-.514.42-.642.684v-.816h-1.284v6.264zm10.932.156c.696 0 1.232-.208 1.608-.624l.108.468h1.14v-4.044c0-1.584-.832-2.376-2.496-2.376-.848 0-1.644.24-2.388.72l.504.912c.592-.328 1.176-.492 1.752-.492.416 0 .742.102.978.306s.354.486.354.846v.588c-.336-.304-.836-.456-1.5-.456-.72 0-1.304.192-1.752.576s-.672.88-.672 1.488c0 .616.226 1.118.678 1.506s1.014.582 1.686.582zm.276-1.044c-.392 0-.712-.102-.96-.306s-.372-.462-.372-.774.12-.568.36-.768c.248-.208.568-.312.96-.312.4 0 .722.098.966.294s.366.458.366.786c0 .32-.124.58-.372.78s-.564.3-.948.3zm6.048.972c.272 0 .484-.016.636-.048v-1.128l-.252.012c-.376 0-.648-.082-.816-.246s-.252-.478-.252-.942v-2.916h1.272v-1.08h-1.272v-1.308h-1.296v1.308h-.696v1.08h.696v2.712c0 .824.15 1.456.45 1.896s.81.66 1.53.66zm4.56.072c.664 0 1.216-.142 1.656-.426s.76-.598.96-.942l-.864-.648c-.4.584-.976.876-1.728.876-.56 0-1.022-.168-1.386-.504s-.55-.78-.558-1.332h4.716c.008-.072.012-.18.012-.324 0-.992-.268-1.786-.804-2.382s-1.272-.894-2.208-.894c-.864 0-1.588.312-2.172.936s-.876 1.416-.876 2.376.3 1.744.9 2.352 1.384.912 2.352.912zm1.476-3.876h-3.348c.04-.488.216-.878.528-1.17s.696-.438 1.152-.438c.464 0 .852.142 1.164.426s.48.678.504 1.182zm5.28 3.876c.8 0 1.492-.26 2.076-.78l-.372-1.08c-.512.464-1.056.696-1.632.696s-1.058-.204-1.446-.612-.582-.912-.582-1.512.184-1.1.552-1.5.844-.6 1.428-.6c.632 0 1.184.228 1.656.684l.396-1.104c-.592-.512-1.288-.768-2.088-.768-.928 0-1.704.314-2.328.942s-.936 1.41-.936 2.346c0 .944.308 1.728.924 2.352s1.4.936 2.352.936zm6.048 0c.952 0 1.744-.312 2.376-.936s.948-1.408.948-2.352-.314-1.728-.942-2.352-1.422-.936-2.382-.936c-.944 0-1.732.314-2.364.942s-.948 1.414-.948 2.358c0 .952.312 1.736.936 2.352s1.416.924 2.376.924zm0-1.164c-.584 0-1.062-.198-1.434-.594s-.558-.902-.558-1.518.184-1.124.552-1.524c.376-.408.856-.612 1.44-.612s1.066.2 1.446.6.57.908.57 1.524-.19 1.124-.57 1.524-.862.6-1.446.6zm6.54 1.164c.4 0 .756-.094 1.068-.282s.544-.418.696-.69v.816h1.284v-6.264h-1.308v3.78c0 .432-.126.784-.378 1.056s-.582.408-.99.408c-.368 0-.67-.122-.906-.366s-.354-.578-.354-1.002v-3.876h-1.296v3.768c0 .76.176 1.392.528 1.896s.904.756 1.656.756zm5.772-.156v-2.7c0-1.6.588-2.4 1.764-2.4v-1.32c-.424 0-.796.108-1.116.324s-.544.488-.672.816v-.984h-1.284v6.264zm4.548.156c.656 0 1.198-.176 1.626-.528s.642-.816.642-1.392c0-.408-.106-.75-.318-1.026s-.468-.48-.768-.612-.598-.25-.894-.354-.55-.228-.762-.372-.318-.324-.318-.54c0-.208.078-.374.234-.498s.358-.186.606-.186c.52 0 .924.232 1.212.696l.9-.6c-.152-.304-.398-.574-.738-.81s-.774-.354-1.302-.354c-.624 0-1.138.16-1.542.48s-.606.752-.606 1.296c0 .4.104.738.312 1.014s.462.482.762.618.6.258.9.366.554.238.762.39.312.336.312.552c0 .248-.088.44-.264.576s-.408.204-.696.204c-.624 0-1.124-.272-1.5-.816l-.816.648c.464.832 1.216 1.248 2.256 1.248zm6.18 0c.664 0 1.216-.142 1.656-.426s.76-.598.96-.942l-.864-.648c-.4.584-.976.876-1.728.876-.56 0-1.022-.168-1.386-.504s-.55-.78-.558-1.332h4.716c.008-.072.012-.18.012-.324 0-.992-.268-1.786-.804-2.382s-1.272-.894-2.208-.894c-.864 0-1.588.312-2.172.936s-.876 1.416-.876 2.376.3 1.744.9 2.352 1.384.912 2.352.912zm1.476-3.876h-3.348c.04-.488.216-.878.528-1.17s.696-.438 1.152-.438c.464 0 .852.142 1.164.426s.48.678.504 1.182zm4.2 3.876c.656 0 1.198-.176 1.626-.528s.642-.816.642-1.392c0-.408-.106-.75-.318-1.026s-.468-.48-.768-.612-.598-.25-.894-.354-.55-.228-.762-.372-.318-.324-.318-.54c0-.208.078-.374.234-.498s.358-.186.606-.186c.52 0 .924.232 1.212.696l.9-.6c-.152-.304-.398-.574-.738-.81s-.774-.354-1.302-.354c-.624 0-1.138.16-1.542.48s-.606.752-.606 1.296c0 .4.104.738.312 1.014s.462.482.762.618.6.258.9.366.554.238.762.39.312.336.312.552c0 .248-.088.44-.264.576s-.408.204-.696.204c-.624 0-1.124-.272-1.5-.816l-.816.648c.464.832 1.216 1.248 2.256 1.248zm3.936 0c.232 0 .432-.082.6-.246s.252-.362.252-.594-.084-.432-.252-.6-.368-.252-.6-.252-.432.084-.6.252-.252.368-.252.6.084.432.252.6c.168.16.368.24.6.24zm5.004 0c.8 0 1.492-.26 2.076-.78l-.372-1.08c-.512.464-1.056.696-1.632.696s-1.058-.204-1.446-.612-.582-.912-.582-1.512.184-1.1.552-1.5.844-.6 1.428-.6c.632 0 1.184.228 1.656.684l.396-1.104c-.592-.512-1.288-.768-2.088-.768-.928 0-1.704.314-2.328.942s-.936 1.41-.936 2.346c0 .944.308 1.728.924 2.352s1.4.936 2.352.936zm6.048 0c.952 0 1.744-.312 2.376-.936s.948-1.408.948-2.352-.314-1.728-.942-2.352-1.422-.936-2.382-.936c-.944 0-1.732.314-2.364.942s-.948 1.414-.948 2.358c0 .952.312 1.736.936 2.352s1.416.924 2.376.924zm0-1.164c-.584 0-1.062-.198-1.434-.594s-.558-.902-.558-1.518.184-1.124.552-1.524c.376-.408.856-.612 1.44-.612s1.066.2 1.446.6.57.908.57 1.524-.19 1.124-.57 1.524-.862.6-1.446.6zm5.712 1.008v-3.768c0-.44.12-.796.36-1.068s.54-.408.9-.408c.376 0 .67.122.882.366s.318.578.318 1.002v3.876h1.308v-3.744c0-.472.118-.84.354-1.104s.542-.396.918-.396c.8 0 1.2.496 1.2 1.488v3.756h1.296v-4.092c0-.704-.184-1.268-.552-1.692s-.896-.636-1.584-.636c-.896 0-1.54.348-1.932 1.044-.328-.696-.928-1.044-1.8-1.044-.4 0-.75.096-1.05.288s-.514.42-.642.684v-.816h-1.284v6.264z" fill="#fff" fill-opacity=".7"/></g></g></svg>