<?xml version="1.0" encoding="UTF-8" standalone="no"?><!-- Generator: Gravit.io --><svg xmlns="http://www.w3.org/2000/svg" xmlns:xlink="http://www.w3.org/1999/xlink" style="isolation:isolate" viewBox="0 0 888 105" width="888pt" height="105pt"><defs><clipPath id="_clipPath_p2rvtjPK95LGamsE6LvaplC3IlrJ6IjQ"><rect width="888" height="105"/></clipPath></defs><g clip-path="url(#_clipPath_p2rvtjPK95LGamsE6LvaplC3IlrJ6IjQ)"><rect width="888" height="105" style="fill:rgb(19,18,49)"/><g><path d=" M 59.877 17.997 L 59.877 17.997 L 59.877 17.997 L 27.755 29.452 L 32.654 71.925 L 59.877 87.003 L 59.877 87.003 L 59.877 87.003 L 87.101 71.925 L 92 29.452 L 59.877 17.997 Z " fill="rgb(221,0,49)"/><path d=" M 59.877 17.997 L 59.877 25.656 L 59.877 25.622 L 59.877 60.574 L 59.877 60.574 L 59.877 87.003 L 59.877 87.003 L 87.101 71.925 L 92 29.452 L 59.877 17.997 L 59.877 17.997 Z " fill="rgb(195,0,47)"/><path d=" M 59.877 25.622 L 39.797 70.649 L 39.797 70.649 L 47.284 70.649 L 47.284 70.649 L 51.321 60.574 L 68.365 60.574 L 72.402 70.649 L 72.402 70.649 L 79.889 70.649 L 79.889 70.649 L 59.877 25.622 L 59.877 25.622 L 59.877 25.622 L 59.877 25.622 L 59.877 25.622 Z  M 65.743 54.363 L 54.012 54.363 L 59.877 40.251 L 65.743 54.363 Z " fill="rgb(255,255,255)"/></g><g><path d=" M 409.73 82.446 L 403.374 82.446 L 403.374 66.095 L 409.102 66.095 L 409.102 66.095 Q 412.078 66.095 413.616 67.235 L 413.616 67.235 L 413.616 67.235 Q 415.155 68.375 415.155 70.576 L 415.155 70.576 L 415.155 70.576 Q 415.155 71.778 414.537 72.693 L 414.537 72.693 L 414.537 72.693 Q 413.919 73.608 412.819 74.035 L 412.819 74.035 L 412.819 74.035 Q 414.077 74.349 414.801 75.304 L 414.801 75.304 L 414.801 75.304 Q 415.525 76.258 415.525 77.64 L 415.525 77.64 L 415.525 77.64 Q 415.525 79.998 414.021 81.211 L 414.021 81.211 L 414.021 81.211 Q 412.516 82.424 409.73 82.446 L 409.73 82.446 L 409.73 82.446 Z  M 409.832 75.326 L 406.743 75.326 L 406.743 79.74 L 409.629 79.74 L 409.629 79.74 Q 410.82 79.74 411.488 79.173 L 411.488 79.173 L 411.488 79.173 Q 412.156 78.606 412.156 77.606 L 412.156 77.606 L 412.156 77.606 Q 412.156 75.36 409.832 75.326 L 409.832 75.326 L 409.832 75.326 Z  M 406.743 68.824 L 406.743 72.945 L 409.236 72.945 L 409.236 72.945 Q 411.786 72.901 411.786 70.913 L 411.786 70.913 L 411.786 70.913 Q 411.786 69.801 411.14 69.312 L 411.14 69.312 L 411.14 69.312 Q 410.494 68.824 409.102 68.824 L 409.102 68.824 L 406.743 68.824 L 406.743 68.824 Z  M 421.421 66.095 L 421.421 79.74 L 428.575 79.74 L 428.575 82.446 L 418.052 82.446 L 418.052 66.095 L 421.421 66.095 L 421.421 66.095 Z  M 441.086 82.446 L 439.952 79.077 L 434.044 79.077 L 432.921 82.446 L 429.339 82.446 L 435.426 66.095 L 438.548 66.095 L 444.668 82.446 L 441.086 82.446 L 441.086 82.446 Z  M 436.987 70.228 L 434.954 76.348 L 439.042 76.348 L 436.987 70.228 L 436.987 70.228 Z  M 455.427 77 L 458.796 77 L 458.796 77 Q 458.605 79.639 456.848 81.155 L 456.848 81.155 L 456.848 81.155 Q 455.09 82.671 452.215 82.671 L 452.215 82.671 L 452.215 82.671 Q 449.071 82.671 447.268 80.554 L 447.268 80.554 L 447.268 80.554 Q 445.466 78.437 445.466 74.742 L 445.466 74.742 L 445.466 73.743 L 445.466 73.743 Q 445.466 71.384 446.297 69.588 L 446.297 69.588 L 446.297 69.588 Q 447.128 67.791 448.672 66.83 L 448.672 66.83 L 448.672 66.83 Q 450.216 65.87 452.26 65.87 L 452.26 65.87 L 452.26 65.87 Q 455.09 65.87 456.82 67.386 L 456.82 67.386 L 456.82 67.386 Q 458.549 68.903 458.819 71.643 L 458.819 71.643 L 455.45 71.643 L 455.45 71.643 Q 455.326 70.059 454.568 69.346 L 454.568 69.346 L 454.568 69.346 Q 453.81 68.633 452.26 68.633 L 452.26 68.633 L 452.26 68.633 Q 450.576 68.633 449.739 69.84 L 449.739 69.84 L 449.739 69.84 Q 448.902 71.048 448.88 73.586 L 448.88 73.586 L 448.88 74.821 L 448.88 74.821 Q 448.88 77.471 449.683 78.695 L 449.683 78.695 L 449.683 78.695 Q 450.486 79.92 452.215 79.92 L 452.215 79.92 L 452.215 79.92 Q 453.776 79.92 454.546 79.206 L 454.546 79.206 L 454.546 79.206 Q 455.315 78.493 455.427 77 L 455.427 77 L 455.427 77 Z  M 470.33 82.446 L 466.13 75.888 L 464.378 77.775 L 464.378 82.446 L 461.009 82.446 L 461.009 66.095 L 464.378 66.095 L 464.378 73.507 L 465.86 71.474 L 470.027 66.095 L 474.171 66.095 L 468.365 73.361 L 474.339 82.446 L 470.33 82.446 L 470.33 82.446 Z  M 485.446 73.047 L 485.446 75.764 L 478.978 75.764 L 478.978 82.446 L 475.608 82.446 L 475.608 66.095 L 486.255 66.095 L 486.255 68.824 L 478.978 68.824 L 478.978 73.047 L 485.446 73.047 L 485.446 73.047 Z  M 497.328 82.446 L 494.262 76.461 L 491.578 76.461 L 491.578 82.446 L 488.209 82.446 L 488.209 66.095 L 494.285 66.095 L 494.285 66.095 Q 497.182 66.095 498.754 67.386 L 498.754 67.386 L 498.754 67.386 Q 500.327 68.678 500.327 71.036 L 500.327 71.036 L 500.327 71.036 Q 500.327 72.71 499.602 73.827 L 499.602 73.827 L 499.602 73.827 Q 498.878 74.944 497.407 75.607 L 497.407 75.607 L 500.944 82.289 L 500.944 82.446 L 497.328 82.446 L 497.328 82.446 Z  M 491.578 68.824 L 491.578 73.732 L 494.296 73.732 L 494.296 73.732 Q 495.565 73.732 496.261 73.086 L 496.261 73.086 L 496.261 73.086 Q 496.958 72.44 496.958 71.306 L 496.958 71.306 L 496.958 71.306 Q 496.958 70.149 496.301 69.486 L 496.301 69.486 L 496.301 69.486 Q 495.644 68.824 494.285 68.824 L 494.285 68.824 L 491.578 68.824 L 491.578 68.824 Z  M 506.47 66.095 L 506.47 82.446 L 503.101 82.446 L 503.101 66.095 L 506.47 66.095 L 506.47 66.095 Z  M 514.657 82.446 L 509.592 82.446 L 509.592 66.095 L 514.623 66.095 L 514.623 66.095 Q 516.779 66.095 518.481 67.066 L 518.481 67.066 L 518.481 67.066 Q 520.182 68.038 521.137 69.829 L 521.137 69.829 L 521.137 69.829 Q 522.091 71.62 522.091 73.9 L 522.091 73.9 L 522.091 74.653 L 522.091 74.653 Q 522.091 76.932 521.154 78.707 L 521.154 78.707 L 521.154 78.707 Q 520.216 80.481 518.509 81.458 L 518.509 81.458 L 518.509 81.458 Q 516.802 82.435 514.657 82.446 L 514.657 82.446 L 514.657 82.446 Z  M 514.623 68.824 L 512.961 68.824 L 512.961 79.74 L 514.589 79.74 L 514.589 79.74 Q 516.566 79.74 517.61 78.448 L 517.61 78.448 L 517.61 78.448 Q 518.655 77.157 518.677 74.754 L 518.677 74.754 L 518.677 73.889 L 518.677 73.889 Q 518.677 71.396 517.644 70.11 L 517.644 70.11 L 517.644 70.11 Q 516.611 68.824 514.623 68.824 L 514.623 68.824 L 514.623 68.824 Z  M 534.669 82.446 L 533.535 79.077 L 527.628 79.077 L 526.505 82.446 L 522.922 82.446 L 529.009 66.095 L 532.131 66.095 L 538.252 82.446 L 534.669 82.446 L 534.669 82.446 Z  M 530.57 70.228 L 528.538 76.348 L 532.625 76.348 L 530.57 70.228 L 530.57 70.228 Z  M 540.352 66.095 L 543.732 73.462 L 547.135 66.095 L 550.819 66.095 L 545.451 76.517 L 545.451 82.446 L 542.025 82.446 L 542.025 76.517 L 536.657 66.095 L 540.352 66.095 L 540.352 66.095 Z " fill="rgb(255,200,0)"/><path d=" M 326.12 80.975 L 326.12 80.975 L 326.12 80.975 Q 327.231 80.975 328.063 80.301 L 328.063 80.301 L 328.063 80.301 Q 328.894 79.628 328.983 78.617 L 328.983 78.617 L 330.949 78.617 L 330.949 78.617 Q 330.893 79.661 330.23 80.605 L 330.23 80.605 L 330.23 80.605 Q 329.567 81.548 328.461 82.11 L 328.461 82.11 L 328.461 82.11 Q 327.355 82.671 326.12 82.671 L 326.12 82.671 L 326.12 82.671 Q 323.638 82.671 322.172 81.015 L 322.172 81.015 L 322.172 81.015 Q 320.707 79.358 320.707 76.483 L 320.707 76.483 L 320.707 76.135 L 320.707 76.135 Q 320.707 74.361 321.358 72.979 L 321.358 72.979 L 321.358 72.979 Q 322.009 71.598 323.228 70.834 L 323.228 70.834 L 323.228 70.834 Q 324.446 70.07 326.108 70.07 L 326.108 70.07 L 326.108 70.07 Q 328.152 70.07 329.506 71.295 L 329.506 71.295 L 329.506 71.295 Q 330.859 72.519 330.949 74.473 L 330.949 74.473 L 328.983 74.473 L 328.983 74.473 Q 328.894 73.294 328.091 72.536 L 328.091 72.536 L 328.091 72.536 Q 327.288 71.778 326.108 71.778 L 326.108 71.778 L 326.108 71.778 Q 324.525 71.778 323.655 72.917 L 323.655 72.917 L 323.655 72.917 Q 322.784 74.057 322.784 76.214 L 322.784 76.214 L 322.784 76.607 L 322.784 76.607 Q 322.784 78.707 323.649 79.841 L 323.649 79.841 L 323.649 79.841 Q 324.514 80.975 326.12 80.975 Z  M 332.734 76.404 L 332.734 76.258 L 332.734 76.258 Q 332.734 74.473 333.436 73.047 L 333.436 73.047 L 333.436 73.047 Q 334.138 71.62 335.39 70.845 L 335.39 70.845 L 335.39 70.845 Q 336.643 70.07 338.249 70.07 L 338.249 70.07 L 338.249 70.07 Q 340.73 70.07 342.263 71.789 L 342.263 71.789 L 342.263 71.789 Q 343.796 73.507 343.796 76.36 L 343.796 76.36 L 343.796 76.506 L 343.796 76.506 Q 343.796 78.28 343.117 79.689 L 343.117 79.689 L 343.117 79.689 Q 342.438 81.099 341.174 81.885 L 341.174 81.885 L 341.174 81.885 Q 339.911 82.671 338.271 82.671 L 338.271 82.671 L 338.271 82.671 Q 335.8 82.671 334.267 80.953 L 334.267 80.953 L 334.267 80.953 Q 332.734 79.235 332.734 76.404 L 332.734 76.404 L 332.734 76.404 Z  M 334.823 76.506 L 334.823 76.506 L 334.823 76.506 Q 334.823 78.527 335.761 79.751 L 335.761 79.751 L 335.761 79.751 Q 336.699 80.975 338.271 80.975 L 338.271 80.975 L 338.271 80.975 Q 339.854 80.975 340.787 79.734 L 340.787 79.734 L 340.787 79.734 Q 341.719 78.493 341.719 76.258 L 341.719 76.258 L 341.719 76.258 Q 341.719 74.259 340.77 73.018 L 340.77 73.018 L 340.77 73.018 Q 339.821 71.778 338.249 71.778 L 338.249 71.778 L 338.249 71.778 Q 336.71 71.778 335.767 73.002 L 335.767 73.002 L 335.767 73.002 Q 334.823 74.226 334.823 76.506 Z  M 353.949 82.446 L 353.904 81.245 L 353.904 81.245 Q 352.691 82.671 350.344 82.671 L 350.344 82.671 L 350.344 82.671 Q 348.401 82.671 347.385 81.542 L 347.385 81.542 L 347.385 81.542 Q 346.368 80.414 346.357 78.201 L 346.357 78.201 L 346.357 70.295 L 348.435 70.295 L 348.435 78.145 L 348.435 78.145 Q 348.435 80.908 350.681 80.908 L 350.681 80.908 L 350.681 80.908 Q 353.062 80.908 353.848 79.133 L 353.848 79.133 L 353.848 70.295 L 355.925 70.295 L 355.925 82.446 L 353.949 82.446 L 353.949 82.446 Z  M 369.346 76.315 L 369.346 76.506 L 369.346 76.506 Q 369.346 79.279 368.077 80.975 L 368.077 80.975 L 368.077 80.975 Q 366.808 82.671 364.64 82.671 L 364.64 82.671 L 364.64 82.671 Q 362.428 82.671 361.159 81.267 L 361.159 81.267 L 361.159 87.118 L 359.081 87.118 L 359.081 70.295 L 360.979 70.295 L 361.08 71.643 L 361.08 71.643 Q 362.349 70.07 364.606 70.07 L 364.606 70.07 L 364.606 70.07 Q 366.796 70.07 368.071 71.721 L 368.071 71.721 L 368.071 71.721 Q 369.346 73.372 369.346 76.315 L 369.346 76.315 L 369.346 76.315 Z  M 367.268 76.27 L 367.268 76.27 L 367.268 76.27 Q 367.268 74.215 366.392 73.024 L 366.392 73.024 L 366.392 73.024 Q 365.516 71.834 363.989 71.834 L 363.989 71.834 L 363.989 71.834 Q 362.102 71.834 361.159 73.507 L 361.159 73.507 L 361.159 79.313 L 361.159 79.313 Q 362.091 80.975 364.011 80.975 L 364.011 80.975 L 364.011 80.975 Q 365.505 80.975 366.386 79.79 L 366.386 79.79 L 366.386 79.79 Q 367.268 78.606 367.268 76.27 Z  M 371.435 76.404 L 371.435 76.258 L 371.435 76.258 Q 371.435 74.473 372.136 73.047 L 372.136 73.047 L 372.136 73.047 Q 372.838 71.62 374.091 70.845 L 374.091 70.845 L 374.091 70.845 Q 375.343 70.07 376.949 70.07 L 376.949 70.07 L 376.949 70.07 Q 379.431 70.07 380.964 71.789 L 380.964 71.789 L 380.964 71.789 Q 382.497 73.507 382.497 76.36 L 382.497 76.36 L 382.497 76.506 L 382.497 76.506 Q 382.497 78.28 381.817 79.689 L 381.817 79.689 L 381.817 79.689 Q 381.138 81.099 379.874 81.885 L 379.874 81.885 L 379.874 81.885 Q 378.611 82.671 376.971 82.671 L 376.971 82.671 L 376.971 82.671 Q 374.5 82.671 372.968 80.953 L 372.968 80.953 L 372.968 80.953 Q 371.435 79.235 371.435 76.404 L 371.435 76.404 L 371.435 76.404 Z  M 373.523 76.506 L 373.523 76.506 L 373.523 76.506 Q 373.523 78.527 374.461 79.751 L 374.461 79.751 L 374.461 79.751 Q 375.399 80.975 376.971 80.975 L 376.971 80.975 L 376.971 80.975 Q 378.555 80.975 379.487 79.734 L 379.487 79.734 L 379.487 79.734 Q 380.419 78.493 380.419 76.258 L 380.419 76.258 L 380.419 76.258 Q 380.419 74.259 379.47 73.018 L 379.47 73.018 L 379.47 73.018 Q 378.521 71.778 376.949 71.778 L 376.949 71.778 L 376.949 71.778 Q 375.41 71.778 374.467 73.002 L 374.467 73.002 L 374.467 73.002 Q 373.523 74.226 373.523 76.506 Z  M 385.102 70.295 L 387.067 70.295 L 387.135 71.822 L 387.135 71.822 Q 388.527 70.07 390.773 70.07 L 390.773 70.07 L 390.773 70.07 Q 394.625 70.07 394.659 74.417 L 394.659 74.417 L 394.659 82.446 L 392.582 82.446 L 392.582 74.405 L 392.582 74.405 Q 392.57 73.091 391.981 72.463 L 391.981 72.463 L 391.981 72.463 Q 391.391 71.834 390.145 71.834 L 390.145 71.834 L 390.145 71.834 Q 389.134 71.834 388.37 72.373 L 388.37 72.373 L 388.37 72.373 Q 387.606 72.912 387.18 73.788 L 387.18 73.788 L 387.18 82.446 L 385.102 82.446 L 385.102 70.295 L 385.102 70.295 Z  M 280.378 70.295 L 283.264 79.583 L 285.6 70.295 L 287.678 70.295 L 284.14 82.446 L 282.456 82.446 L 279.502 73.237 L 276.627 82.446 L 274.942 82.446 L 271.416 70.295 L 273.482 70.295 L 275.875 79.392 L 278.705 70.295 L 280.378 70.295 L 280.378 70.295 Z  M 292.046 70.295 L 292.046 82.446 L 289.969 82.446 L 289.969 70.295 L 292.046 70.295 L 292.046 70.295 Z  M 289.8 67.072 L 289.8 67.072 L 289.8 67.072 Q 289.8 66.567 290.109 66.218 L 290.109 66.218 L 290.109 66.218 Q 290.418 65.87 291.024 65.87 L 291.024 65.87 L 291.024 65.87 Q 291.631 65.87 291.945 66.218 L 291.945 66.218 L 291.945 66.218 Q 292.26 66.567 292.26 67.072 L 292.26 67.072 L 292.26 67.072 Q 292.26 67.577 291.945 67.914 L 291.945 67.914 L 291.945 67.914 Q 291.631 68.251 291.024 68.251 L 291.024 68.251 L 291.024 68.251 Q 290.418 68.251 290.109 67.914 L 290.109 67.914 L 290.109 67.914 Q 289.8 67.577 289.8 67.072 Z  M 296.112 67.353 L 298.189 67.353 L 298.189 70.295 L 300.458 70.295 L 300.458 71.901 L 298.189 71.901 L 298.189 79.437 L 298.189 79.437 Q 298.189 80.167 298.493 80.532 L 298.493 80.532 L 298.493 80.532 Q 298.796 80.897 299.526 80.897 L 299.526 80.897 L 299.526 80.897 Q 299.885 80.897 300.514 80.762 L 300.514 80.762 L 300.514 82.446 L 300.514 82.446 Q 299.694 82.671 298.919 82.671 L 298.919 82.671 L 298.919 82.671 Q 297.527 82.671 296.819 81.829 L 296.819 81.829 L 296.819 81.829 Q 296.112 80.986 296.112 79.437 L 296.112 79.437 L 296.112 71.901 L 293.899 71.901 L 293.899 70.295 L 296.112 70.295 L 296.112 67.353 L 296.112 67.353 Z  M 304.961 65.196 L 304.961 71.766 L 304.961 71.766 Q 306.343 70.07 308.555 70.07 L 308.555 70.07 L 308.555 70.07 Q 312.407 70.07 312.441 74.417 L 312.441 74.417 L 312.441 82.446 L 310.363 82.446 L 310.363 74.405 L 310.363 74.405 Q 310.352 73.091 309.762 72.463 L 309.762 72.463 L 309.762 72.463 Q 309.173 71.834 307.926 71.834 L 307.926 71.834 L 307.926 71.834 Q 306.916 71.834 306.152 72.373 L 306.152 72.373 L 306.152 72.373 Q 305.388 72.912 304.961 73.788 L 304.961 73.788 L 304.961 82.446 L 302.884 82.446 L 302.884 65.196 L 304.961 65.196 L 304.961 65.196 Z " fill="rgb(255,255,255)"/><path d=" M 239.05 73.911 L 239.05 74.641 L 239.05 74.641 Q 239.05 77.056 238.196 78.875 L 238.196 78.875 L 238.196 78.875 Q 237.343 80.694 235.754 81.683 L 235.754 81.683 L 235.754 81.683 Q 234.165 82.671 232.109 82.671 L 232.109 82.671 L 232.109 82.671 Q 230.077 82.671 228.482 81.694 L 228.482 81.694 L 228.482 81.694 Q 226.887 80.717 226.011 78.903 L 226.011 78.903 L 226.011 78.903 Q 225.135 77.09 225.124 74.731 L 225.124 74.731 L 225.124 73.923 L 225.124 73.923 Q 225.124 71.508 225.994 69.672 L 225.994 69.672 L 225.994 69.672 Q 226.865 67.836 228.454 66.853 L 228.454 66.853 L 228.454 66.853 Q 230.043 65.87 232.087 65.87 L 232.087 65.87 L 232.087 65.87 Q 234.131 65.87 235.72 66.853 L 235.72 66.853 L 235.72 66.853 Q 237.309 67.836 238.179 69.672 L 238.179 69.672 L 238.179 69.672 Q 239.05 71.508 239.05 73.911 L 239.05 73.911 L 239.05 73.911 Z  M 235.636 74.697 L 235.636 73.9 L 235.636 73.9 Q 235.636 71.328 234.715 69.992 L 234.715 69.992 L 234.715 69.992 Q 233.794 68.655 232.087 68.655 L 232.087 68.655 L 232.087 68.655 Q 230.391 68.655 229.47 69.975 L 229.47 69.975 L 229.47 69.975 Q 228.549 71.295 228.538 73.844 L 228.538 73.844 L 228.538 74.641 L 228.538 74.641 Q 228.538 77.146 229.459 78.527 L 229.459 78.527 L 229.459 78.527 Q 230.38 79.908 232.109 79.908 L 232.109 79.908 L 232.109 79.908 Q 233.805 79.908 234.715 78.578 L 234.715 78.578 L 234.715 78.578 Q 235.625 77.247 235.636 74.697 L 235.636 74.697 L 235.636 74.697 Z  M 251.336 73.047 L 251.336 75.764 L 244.867 75.764 L 244.867 82.446 L 241.498 82.446 L 241.498 66.095 L 252.145 66.095 L 252.145 68.824 L 244.867 68.824 L 244.867 73.047 L 251.336 73.047 L 251.336 73.047 Z  M 263.937 73.047 L 263.937 75.764 L 257.468 75.764 L 257.468 82.446 L 254.099 82.446 L 254.099 66.095 L 264.745 66.095 L 264.745 68.824 L 257.468 68.824 L 257.468 73.047 L 263.937 73.047 L 263.937 73.047 Z  M 179.472 75.371 L 179.472 72.833 L 181.202 72.833 L 181.202 72.833 Q 182.437 72.833 183.032 72.215 L 183.032 72.215 L 183.032 72.215 Q 183.627 71.598 183.627 70.576 L 183.627 70.576 L 183.627 70.576 Q 183.627 69.588 183.038 69.037 L 183.038 69.037 L 183.038 69.037 Q 182.448 68.487 181.415 68.487 L 181.415 68.487 L 181.415 68.487 Q 180.483 68.487 179.854 68.998 L 179.854 68.998 L 179.854 68.998 Q 179.225 69.509 179.225 70.329 L 179.225 70.329 L 175.979 70.329 L 175.979 70.329 Q 175.979 69.049 176.67 68.032 L 176.67 68.032 L 176.67 68.032 Q 177.361 67.016 178.602 66.443 L 178.602 66.443 L 178.602 66.443 Q 179.843 65.87 181.336 65.87 L 181.336 65.87 L 181.336 65.87 Q 183.931 65.87 185.402 67.111 L 185.402 67.111 L 185.402 67.111 Q 186.873 68.352 186.873 70.531 L 186.873 70.531 L 186.873 70.531 Q 186.873 71.654 186.188 72.597 L 186.188 72.597 L 186.188 72.597 Q 185.503 73.541 184.391 74.046 L 184.391 74.046 L 184.391 74.046 Q 185.772 74.54 186.452 75.528 L 186.452 75.528 L 186.452 75.528 Q 187.131 76.517 187.131 77.864 L 187.131 77.864 L 187.131 77.864 Q 187.131 80.043 185.542 81.357 L 185.542 81.357 L 185.542 81.357 Q 183.953 82.671 181.336 82.671 L 181.336 82.671 L 181.336 82.671 Q 178.888 82.671 177.333 81.38 L 177.333 81.38 L 177.333 81.38 Q 175.777 80.088 175.777 77.965 L 175.777 77.965 L 179.023 77.965 L 179.023 77.965 Q 179.023 78.886 179.714 79.47 L 179.714 79.47 L 179.714 79.47 Q 180.404 80.054 181.415 80.054 L 181.415 80.054 L 181.415 80.054 Q 182.572 80.054 183.229 79.442 L 183.229 79.442 L 183.229 79.442 Q 183.886 78.83 183.886 77.819 L 183.886 77.819 L 183.886 77.819 Q 183.886 75.371 181.19 75.371 L 181.19 75.371 L 179.472 75.371 L 179.472 75.371 Z  M 200.372 72.676 L 200.372 75.686 L 200.372 75.686 Q 200.372 79.077 198.968 80.874 L 198.968 80.874 L 198.968 80.874 Q 197.564 82.671 194.858 82.671 L 194.858 82.671 L 194.858 82.671 Q 192.185 82.671 190.77 80.908 L 190.77 80.908 L 190.77 80.908 Q 189.355 79.145 189.321 75.854 L 189.321 75.854 L 189.321 72.844 L 189.321 72.844 Q 189.321 69.419 190.742 67.645 L 190.742 67.645 L 190.742 67.645 Q 192.163 65.87 194.835 65.87 L 194.835 65.87 L 194.835 65.87 Q 197.508 65.87 198.923 67.628 L 198.923 67.628 L 198.923 67.628 Q 200.338 69.385 200.372 72.676 L 200.372 72.676 L 200.372 72.676 Z  M 197.126 76.27 L 197.126 72.384 L 197.126 72.384 Q 197.126 70.351 196.571 69.425 L 196.571 69.425 L 196.571 69.425 Q 196.015 68.498 194.835 68.498 L 194.835 68.498 L 194.835 68.498 Q 193.69 68.498 193.145 69.38 L 193.145 69.38 L 193.145 69.38 Q 192.601 70.261 192.567 72.137 L 192.567 72.137 L 192.567 76.112 L 192.567 76.112 Q 192.567 78.111 193.112 79.083 L 193.112 79.083 L 193.112 79.083 Q 193.656 80.054 194.858 80.054 L 194.858 80.054 L 194.858 80.054 Q 196.048 80.054 196.576 79.122 L 196.576 79.122 L 196.576 79.122 Q 197.104 78.19 197.126 76.27 L 197.126 76.27 L 197.126 76.27 Z  M 202.517 70.037 L 202.517 69.239 L 202.517 69.239 Q 202.517 67.735 203.494 66.797 L 203.494 66.797 L 203.494 66.797 Q 204.471 65.859 206.055 65.859 L 206.055 65.859 L 206.055 65.859 Q 207.661 65.859 208.638 66.786 L 208.638 66.786 L 208.638 66.786 Q 209.615 67.712 209.615 69.296 L 209.615 69.296 L 209.615 70.104 L 209.615 70.104 Q 209.615 71.62 208.638 72.541 L 208.638 72.541 L 208.638 72.541 Q 207.661 73.462 206.077 73.462 L 206.077 73.462 L 206.077 73.462 Q 204.482 73.462 203.5 72.536 L 203.5 72.536 L 203.5 72.536 Q 202.517 71.609 202.517 70.037 L 202.517 70.037 L 202.517 70.037 Z  M 204.673 69.284 L 204.673 70.104 L 204.673 70.104 Q 204.673 70.778 205.061 71.188 L 205.061 71.188 L 205.061 71.188 Q 205.448 71.598 206.077 71.598 L 206.077 71.598 L 206.077 71.598 Q 206.706 71.598 207.077 71.182 L 207.077 71.182 L 207.077 71.182 Q 207.447 70.767 207.447 70.07 L 207.447 70.07 L 207.447 69.239 L 207.447 69.239 Q 207.447 68.566 207.077 68.15 L 207.077 68.15 L 207.077 68.15 Q 206.706 67.735 206.055 67.735 L 206.055 67.735 L 206.055 67.735 Q 205.437 67.735 205.055 68.144 L 205.055 68.144 L 205.055 68.144 Q 204.673 68.554 204.673 69.284 L 204.673 69.284 L 204.673 69.284 Z  M 210.333 79.268 L 210.333 78.437 L 210.333 78.437 Q 210.333 76.921 211.322 75.995 L 211.322 75.995 L 211.322 75.995 Q 212.31 75.068 213.882 75.068 L 213.882 75.068 L 213.882 75.068 Q 215.477 75.068 216.46 75.983 L 216.46 75.983 L 216.46 75.983 Q 217.442 76.899 217.442 78.505 L 217.442 78.505 L 217.442 79.313 L 217.442 79.313 Q 217.442 80.818 216.477 81.745 L 216.477 81.745 L 216.477 81.745 Q 215.511 82.671 213.905 82.671 L 213.905 82.671 L 213.905 82.671 Q 212.288 82.671 211.311 81.739 L 211.311 81.739 L 211.311 81.739 Q 210.333 80.807 210.333 79.268 L 210.333 79.268 L 210.333 79.268 Z  M 212.49 78.471 L 212.49 79.313 L 212.49 79.313 Q 212.49 79.931 212.894 80.369 L 212.894 80.369 L 212.894 80.369 Q 213.298 80.807 213.905 80.807 L 213.905 80.807 L 213.905 80.807 Q 215.275 80.807 215.275 79.291 L 215.275 79.291 L 215.275 78.437 L 215.275 78.437 Q 215.275 77.763 214.893 77.353 L 214.893 77.353 L 214.893 77.353 Q 214.511 76.944 213.882 76.944 L 213.882 76.944 L 213.882 76.944 Q 213.253 76.944 212.872 77.353 L 212.872 77.353 L 212.872 77.353 Q 212.49 77.763 212.49 78.471 L 212.49 78.471 L 212.49 78.471 Z  M 214.702 68.442 L 206.717 81.222 L 205.134 80.369 L 213.119 67.589 L 214.702 68.442 L 214.702 68.442 Z " fill="rgb(255,200,0)"/><path d=" M 147.971 74.304 L 147.971 80.301 L 147.971 80.301 Q 147.14 81.492 145.652 82.081 L 145.652 82.081 L 145.652 82.081 Q 144.164 82.671 142.187 82.671 L 142.187 82.671 L 142.187 82.671 Q 140.188 82.671 138.638 81.733 L 138.638 81.733 L 138.638 81.733 Q 137.088 80.796 136.24 79.066 L 136.24 79.066 L 136.24 79.066 Q 135.393 77.337 135.37 75.057 L 135.37 75.057 L 135.37 73.631 L 135.37 73.631 Q 135.37 69.936 137.094 67.903 L 137.094 67.903 L 137.094 67.903 Q 138.818 65.87 141.94 65.87 L 141.94 65.87 L 141.94 65.87 Q 144.5 65.87 146.062 67.179 L 146.062 67.179 L 146.062 67.179 Q 147.623 68.487 147.971 70.89 L 147.971 70.89 L 145.814 70.89 L 145.814 70.89 Q 145.208 67.645 141.951 67.645 L 141.951 67.645 L 141.951 67.645 Q 139.784 67.645 138.666 69.166 L 138.666 69.166 L 138.666 69.166 Q 137.549 70.688 137.538 73.574 L 137.538 73.574 L 137.538 74.911 L 137.538 74.911 Q 137.538 77.662 138.795 79.285 L 138.795 79.285 L 138.795 79.285 Q 140.053 80.908 142.198 80.908 L 142.198 80.908 L 142.198 80.908 Q 143.411 80.908 144.321 80.638 L 144.321 80.638 L 144.321 80.638 Q 145.23 80.369 145.826 79.729 L 145.826 79.729 L 145.826 76.056 L 142.041 76.056 L 142.041 74.304 L 147.971 74.304 L 147.971 74.304 Z  M 156.281 82.671 L 156.281 82.671 L 156.281 82.671 Q 153.811 82.671 152.261 81.048 L 152.261 81.048 L 152.261 81.048 Q 150.711 79.425 150.711 76.708 L 150.711 76.708 L 150.711 76.326 L 150.711 76.326 Q 150.711 74.518 151.402 73.097 L 151.402 73.097 L 151.402 73.097 Q 152.092 71.676 153.333 70.873 L 153.333 70.873 L 153.333 70.873 Q 154.574 70.07 156.023 70.07 L 156.023 70.07 L 156.023 70.07 Q 158.393 70.07 159.707 71.632 L 159.707 71.632 L 159.707 71.632 Q 161.021 73.193 161.021 76.101 L 161.021 76.101 L 161.021 76.966 L 152.789 76.966 L 152.789 76.966 Q 152.833 78.763 153.839 79.869 L 153.839 79.869 L 153.839 79.869 Q 154.844 80.975 156.394 80.975 L 156.394 80.975 L 156.394 80.975 Q 157.494 80.975 158.258 80.526 L 158.258 80.526 L 158.258 80.526 Q 159.021 80.077 159.594 79.336 L 159.594 79.336 L 160.863 80.324 L 160.863 80.324 Q 159.336 82.671 156.281 82.671 Z  M 156.023 71.778 L 156.023 71.778 L 156.023 71.778 Q 154.765 71.778 153.912 72.693 L 153.912 72.693 L 153.912 72.693 Q 153.058 73.608 152.856 75.259 L 152.856 75.259 L 158.943 75.259 L 158.943 75.102 L 158.943 75.102 Q 158.853 73.518 158.089 72.648 L 158.089 72.648 L 158.089 72.648 Q 157.326 71.778 156.023 71.778 Z  M 164.165 67.353 L 166.243 67.353 L 166.243 70.295 L 168.511 70.295 L 168.511 71.901 L 166.243 71.901 L 166.243 79.437 L 166.243 79.437 Q 166.243 80.167 166.546 80.532 L 166.546 80.532 L 166.546 80.532 Q 166.849 80.897 167.579 80.897 L 167.579 80.897 L 167.579 80.897 Q 167.938 80.897 168.567 80.762 L 168.567 80.762 L 168.567 82.446 L 168.567 82.446 Q 167.748 82.671 166.973 82.671 L 166.973 82.671 L 166.973 82.671 Q 165.58 82.671 164.873 81.829 L 164.873 81.829 L 164.873 81.829 Q 164.165 80.986 164.165 79.437 L 164.165 79.437 L 164.165 71.901 L 161.953 71.901 L 161.953 70.295 L 164.165 70.295 L 164.165 67.353 L 164.165 67.353 Z " fill="rgb(255,255,255)"/><path d=" M 320.826 39.101 L 320.826 39.101 L 320.826 39.101 Q 320.826 37.973 320.028 37.344 L 320.028 37.344 L 320.028 37.344 Q 319.229 36.714 317.223 36.04 L 317.223 36.04 L 317.223 36.04 Q 315.216 35.366 313.941 34.736 L 313.941 34.736 L 313.941 34.736 Q 309.796 32.7 309.796 29.14 L 309.796 29.14 L 309.796 29.14 Q 309.796 27.368 310.829 26.013 L 310.829 26.013 L 310.829 26.013 Q 311.861 24.658 313.751 23.904 L 313.751 23.904 L 313.751 23.904 Q 315.641 23.149 317.999 23.149 L 317.999 23.149 L 317.999 23.149 Q 320.299 23.149 322.123 23.97 L 322.123 23.97 L 322.123 23.97 Q 323.946 24.79 324.957 26.306 L 324.957 26.306 L 324.957 26.306 Q 325.968 27.822 325.968 29.77 L 325.968 29.77 L 320.841 29.77 L 320.841 29.77 Q 320.841 28.467 320.042 27.749 L 320.042 27.749 L 320.042 27.749 Q 319.244 27.031 317.882 27.031 L 317.882 27.031 L 317.882 27.031 Q 316.505 27.031 315.707 27.639 L 315.707 27.639 L 315.707 27.639 Q 314.908 28.247 314.908 29.184 L 314.908 29.184 L 314.908 29.184 Q 314.908 30.005 315.787 30.671 L 315.787 30.671 L 315.787 30.671 Q 316.666 31.338 318.878 32.048 L 318.878 32.048 L 318.878 32.048 Q 321.09 32.759 322.511 33.579 L 322.511 33.579 L 322.511 33.579 Q 325.968 35.571 325.968 39.072 L 325.968 39.072 L 325.968 39.072 Q 325.968 41.87 323.858 43.467 L 323.858 43.467 L 323.858 43.467 Q 321.749 45.063 318.072 45.063 L 318.072 45.063 L 318.072 45.063 Q 315.479 45.063 313.377 44.133 L 313.377 44.133 L 313.377 44.133 Q 311.275 43.203 310.213 41.584 L 310.213 41.584 L 310.213 41.584 Q 309.151 39.966 309.151 37.856 L 309.151 37.856 L 314.308 37.856 L 314.308 37.856 Q 314.308 39.57 315.194 40.383 L 315.194 40.383 L 315.194 40.383 Q 316.08 41.196 318.072 41.196 L 318.072 41.196 L 318.072 41.196 Q 319.347 41.196 320.086 40.647 L 320.086 40.647 L 320.086 40.647 Q 320.826 40.097 320.826 39.101 Z  M 342.242 44.77 L 337.306 44.77 L 337.306 44.77 Q 337.042 44.287 336.837 43.349 L 336.837 43.349 L 336.837 43.349 Q 335.475 45.063 333.028 45.063 L 333.028 45.063 L 333.028 45.063 Q 330.787 45.063 329.22 43.708 L 329.22 43.708 L 329.22 43.708 Q 327.652 42.353 327.652 40.303 L 327.652 40.303 L 327.652 40.303 Q 327.652 37.724 329.557 36.406 L 329.557 36.406 L 329.557 36.406 Q 331.461 35.088 335.094 35.088 L 335.094 35.088 L 336.617 35.088 L 336.617 34.253 L 336.617 34.253 Q 336.617 32.07 334.728 32.07 L 334.728 32.07 L 334.728 32.07 Q 332.97 32.07 332.97 33.799 L 332.97 33.799 L 328.033 33.799 L 328.033 33.799 Q 328.033 31.499 329.989 30.063 L 329.989 30.063 L 329.989 30.063 Q 331.944 28.628 334.977 28.628 L 334.977 28.628 L 334.977 28.628 Q 338.009 28.628 339.767 30.107 L 339.767 30.107 L 339.767 30.107 Q 341.524 31.587 341.568 34.165 L 341.568 34.165 L 341.568 41.181 L 341.568 41.181 Q 341.598 43.364 342.242 44.521 L 342.242 44.521 L 342.242 44.77 L 342.242 44.77 Z  M 334.215 41.548 L 334.215 41.548 L 334.215 41.548 Q 335.138 41.548 335.746 41.152 L 335.746 41.152 L 335.746 41.152 Q 336.354 40.757 336.617 40.259 L 336.617 40.259 L 336.617 37.724 L 335.182 37.724 L 335.182 37.724 Q 332.604 37.724 332.604 40.039 L 332.604 40.039 L 332.604 40.039 Q 332.604 40.713 333.058 41.13 L 333.058 41.13 L 333.058 41.13 Q 333.512 41.548 334.215 41.548 Z  M 349.508 22.27 L 349.508 44.77 L 344.557 44.77 L 344.557 22.27 L 349.508 22.27 L 349.508 22.27 Z  M 360.216 45.063 L 360.216 45.063 L 360.216 45.063 Q 356.568 45.063 354.313 42.888 L 354.313 42.888 L 354.313 42.888 Q 352.057 40.713 352.057 37.226 L 352.057 37.226 L 352.057 36.816 L 352.057 36.816 Q 352.057 34.385 352.958 32.524 L 352.958 32.524 L 352.958 32.524 Q 353.858 30.664 355.587 29.646 L 355.587 29.646 L 355.587 29.646 Q 357.315 28.628 359.688 28.628 L 359.688 28.628 L 359.688 28.628 Q 363.028 28.628 364.962 30.701 L 364.962 30.701 L 364.962 30.701 Q 366.896 32.773 366.896 36.479 L 366.896 36.479 L 366.896 38.398 L 357.081 38.398 L 357.081 38.398 Q 357.345 39.731 358.238 40.493 L 358.238 40.493 L 358.238 40.493 Q 359.132 41.255 360.553 41.255 L 360.553 41.255 L 360.553 41.255 Q 362.896 41.255 364.215 39.614 L 364.215 39.614 L 366.471 42.28 L 366.471 42.28 Q 365.548 43.555 363.856 44.309 L 363.856 44.309 L 363.856 44.309 Q 362.164 45.063 360.216 45.063 Z  M 359.659 32.436 L 359.659 32.436 L 359.659 32.436 Q 357.491 32.436 357.081 35.307 L 357.081 35.307 L 362.062 35.307 L 362.062 34.927 L 362.062 34.927 Q 362.091 33.74 361.461 33.088 L 361.461 33.088 L 361.461 33.088 Q 360.831 32.436 359.659 32.436 Z  M 232.027 32.319 L 232.027 36.274 L 223.736 36.274 L 223.736 44.77 L 218.595 44.77 L 218.595 23.442 L 232.862 23.442 L 232.862 27.412 L 223.736 27.412 L 223.736 32.319 L 232.027 32.319 L 232.027 32.319 Z  M 244.068 28.804 L 243.98 33.389 L 242.354 33.271 L 242.354 33.271 Q 240.025 33.271 239.366 34.736 L 239.366 34.736 L 239.366 44.77 L 234.43 44.77 L 234.43 28.921 L 239.059 28.921 L 239.22 30.957 L 239.22 30.957 Q 240.465 28.628 242.691 28.628 L 242.691 28.628 L 242.691 28.628 Q 243.482 28.628 244.068 28.804 L 244.068 28.804 L 244.068 28.804 Z  M 250.968 28.921 L 250.968 44.77 L 246.017 44.77 L 246.017 28.921 L 250.968 28.921 L 250.968 28.921 Z  M 245.724 24.834 L 245.724 24.834 L 245.724 24.834 Q 245.724 23.779 246.485 23.105 L 246.485 23.105 L 246.485 23.105 Q 247.247 22.431 248.463 22.431 L 248.463 22.431 L 248.463 22.431 Q 249.679 22.431 250.44 23.105 L 250.44 23.105 L 250.44 23.105 Q 251.202 23.779 251.202 24.834 L 251.202 24.834 L 251.202 24.834 Q 251.202 25.889 250.44 26.562 L 250.44 26.562 L 250.44 26.562 Q 249.679 27.236 248.463 27.236 L 248.463 27.236 L 248.463 27.236 Q 247.247 27.236 246.485 26.562 L 246.485 26.562 L 246.485 26.562 Q 245.724 25.889 245.724 24.834 Z  M 253.385 36.728 L 253.385 36.728 L 253.385 36.728 Q 253.385 32.964 255.011 30.796 L 255.011 30.796 L 255.011 30.796 Q 256.637 28.628 259.552 28.628 L 259.552 28.628 L 259.552 28.628 Q 261.676 28.628 263.126 30.298 L 263.126 30.298 L 263.126 22.27 L 268.077 22.27 L 268.077 44.77 L 263.639 44.77 L 263.39 43.071 L 263.39 43.071 Q 261.866 45.063 259.522 45.063 L 259.522 45.063 L 259.522 45.063 Q 256.695 45.063 255.04 42.895 L 255.04 42.895 L 255.04 42.895 Q 253.385 40.727 253.385 36.728 Z  M 258.336 36.128 L 258.321 37.036 L 258.321 37.036 Q 258.321 41.255 260.782 41.255 L 260.782 41.255 L 260.782 41.255 Q 262.423 41.255 263.126 39.878 L 263.126 39.878 L 263.126 33.843 L 263.126 33.843 Q 262.452 32.436 260.812 32.436 L 260.812 32.436 L 260.812 32.436 Q 258.526 32.436 258.336 36.128 L 258.336 36.128 L 258.336 36.128 Z  M 284.747 44.77 L 279.811 44.77 L 279.811 44.77 Q 279.547 44.287 279.342 43.349 L 279.342 43.349 L 279.342 43.349 Q 277.979 45.063 275.533 45.063 L 275.533 45.063 L 275.533 45.063 Q 273.292 45.063 271.725 43.708 L 271.725 43.708 L 271.725 43.708 Q 270.157 42.353 270.157 40.303 L 270.157 40.303 L 270.157 40.303 Q 270.157 37.724 272.062 36.406 L 272.062 36.406 L 272.062 36.406 Q 273.966 35.088 277.599 35.088 L 277.599 35.088 L 279.122 35.088 L 279.122 34.253 L 279.122 34.253 Q 279.122 32.07 277.232 32.07 L 277.232 32.07 L 277.232 32.07 Q 275.475 32.07 275.475 33.799 L 275.475 33.799 L 270.538 33.799 L 270.538 33.799 Q 270.538 31.499 272.494 30.063 L 272.494 30.063 L 272.494 30.063 Q 274.449 28.628 277.481 28.628 L 277.481 28.628 L 277.481 28.628 Q 280.514 28.628 282.271 30.107 L 282.271 30.107 L 282.271 30.107 Q 284.029 31.587 284.073 34.165 L 284.073 34.165 L 284.073 41.181 L 284.073 41.181 Q 284.103 43.364 284.747 44.521 L 284.747 44.521 L 284.747 44.77 L 284.747 44.77 Z  M 276.72 41.548 L 276.72 41.548 L 276.72 41.548 Q 277.643 41.548 278.25 41.152 L 278.25 41.152 L 278.25 41.152 Q 278.858 40.757 279.122 40.259 L 279.122 40.259 L 279.122 37.724 L 277.687 37.724 L 277.687 37.724 Q 275.108 37.724 275.108 40.039 L 275.108 40.039 L 275.108 40.039 Q 275.108 40.713 275.563 41.13 L 275.563 41.13 L 275.563 41.13 Q 276.017 41.548 276.72 41.548 Z  M 290.416 28.921 L 292.921 37.856 L 295.558 28.921 L 300.846 28.921 L 294.386 47.422 L 294.107 48.096 L 294.107 48.096 Q 292.73 51.172 289.244 51.172 L 289.244 51.172 L 289.244 51.172 Q 288.277 51.172 287.208 50.879 L 287.208 50.879 L 287.208 47.348 L 287.853 47.348 L 287.853 47.348 Q 288.893 47.348 289.442 47.048 L 289.442 47.048 L 289.442 47.048 Q 289.991 46.748 290.255 45.972 L 290.255 45.972 L 290.65 44.917 L 285.143 28.921 L 290.416 28.921 L 290.416 28.921 Z  M 144.269 44.77 L 135.611 44.77 L 135.611 23.442 L 143.272 23.442 L 143.272 23.442 Q 147.389 23.442 149.535 24.951 L 149.535 24.951 L 149.535 24.951 Q 151.681 26.46 151.681 29.331 L 151.681 29.331 L 151.681 29.331 Q 151.681 30.986 150.919 32.158 L 150.919 32.158 L 150.919 32.158 Q 150.157 33.33 148.678 33.887 L 148.678 33.887 L 148.678 33.887 Q 150.348 34.326 151.241 35.527 L 151.241 35.527 L 151.241 35.527 Q 152.135 36.728 152.135 38.457 L 152.135 38.457 L 152.135 38.457 Q 152.135 41.592 150.15 43.166 L 150.15 43.166 L 150.15 43.166 Q 148.165 44.741 144.269 44.77 L 144.269 44.77 L 144.269 44.77 Z  M 144.356 35.703 L 140.753 35.703 L 140.753 40.815 L 144.122 40.815 L 144.122 40.815 Q 145.514 40.815 146.261 40.178 L 146.261 40.178 L 146.261 40.178 Q 147.008 39.541 147.008 38.384 L 147.008 38.384 L 147.008 38.384 Q 147.008 35.718 144.356 35.703 L 144.356 35.703 L 144.356 35.703 Z  M 140.753 27.412 L 140.753 32.334 L 143.434 32.334 L 143.434 32.334 Q 145.118 32.319 145.836 31.719 L 145.836 31.719 L 145.836 31.719 Q 146.554 31.118 146.554 29.946 L 146.554 29.946 L 146.554 29.946 Q 146.554 28.598 145.777 28.005 L 145.777 28.005 L 145.777 28.005 Q 145.001 27.412 143.272 27.412 L 143.272 27.412 L 140.753 27.412 L 140.753 27.412 Z  M 159.942 22.27 L 159.942 44.77 L 154.991 44.77 L 154.991 22.27 L 159.942 22.27 L 159.942 22.27 Z  M 176.847 44.77 L 171.91 44.77 L 171.91 44.77 Q 171.646 44.287 171.441 43.349 L 171.441 43.349 L 171.441 43.349 Q 170.079 45.063 167.633 45.063 L 167.633 45.063 L 167.633 45.063 Q 165.392 45.063 163.824 43.708 L 163.824 43.708 L 163.824 43.708 Q 162.257 42.353 162.257 40.303 L 162.257 40.303 L 162.257 40.303 Q 162.257 37.724 164.161 36.406 L 164.161 36.406 L 164.161 36.406 Q 166.065 35.088 169.698 35.088 L 169.698 35.088 L 171.222 35.088 L 171.222 34.253 L 171.222 34.253 Q 171.222 32.07 169.332 32.07 L 169.332 32.07 L 169.332 32.07 Q 167.574 32.07 167.574 33.799 L 167.574 33.799 L 162.638 33.799 L 162.638 33.799 Q 162.638 31.499 164.593 30.063 L 164.593 30.063 L 164.593 30.063 Q 166.549 28.628 169.581 28.628 L 169.581 28.628 L 169.581 28.628 Q 172.613 28.628 174.371 30.107 L 174.371 30.107 L 174.371 30.107 Q 176.129 31.587 176.173 34.165 L 176.173 34.165 L 176.173 41.181 L 176.173 41.181 Q 176.202 43.364 176.847 44.521 L 176.847 44.521 L 176.847 44.77 L 176.847 44.77 Z  M 168.819 41.548 L 168.819 41.548 L 168.819 41.548 Q 169.742 41.548 170.35 41.152 L 170.35 41.152 L 170.35 41.152 Q 170.958 40.757 171.222 40.259 L 171.222 40.259 L 171.222 37.724 L 169.786 37.724 L 169.786 37.724 Q 167.208 37.724 167.208 40.039 L 167.208 40.039 L 167.208 40.039 Q 167.208 40.713 167.662 41.13 L 167.662 41.13 L 167.662 41.13 Q 168.116 41.548 168.819 41.548 Z  M 185.606 41.255 L 185.606 41.255 L 185.606 41.255 Q 186.646 41.255 187.218 40.691 L 187.218 40.691 L 187.218 40.691 Q 187.789 40.127 187.774 39.116 L 187.774 39.116 L 192.403 39.116 L 192.403 39.116 Q 192.403 41.723 190.536 43.393 L 190.536 43.393 L 190.536 43.393 Q 188.668 45.063 185.724 45.063 L 185.724 45.063 L 185.724 45.063 Q 182.267 45.063 180.274 42.895 L 180.274 42.895 L 180.274 42.895 Q 178.282 40.727 178.282 36.889 L 178.282 36.889 L 178.282 36.684 L 178.282 36.684 Q 178.282 34.282 179.168 32.444 L 179.168 32.444 L 179.168 32.444 Q 180.055 30.605 181.725 29.617 L 181.725 29.617 L 181.725 29.617 Q 183.395 28.628 185.68 28.628 L 185.68 28.628 L 185.68 28.628 Q 188.771 28.628 190.587 30.342 L 190.587 30.342 L 190.587 30.342 Q 192.403 32.056 192.403 34.985 L 192.403 34.985 L 187.774 34.985 L 187.774 34.985 Q 187.774 33.755 187.174 33.096 L 187.174 33.096 L 187.174 33.096 Q 186.573 32.436 185.563 32.436 L 185.563 32.436 L 185.563 32.436 Q 183.644 32.436 183.321 34.883 L 183.321 34.883 L 183.321 34.883 Q 183.219 35.659 183.219 37.021 L 183.219 37.021 L 183.219 37.021 Q 183.219 39.409 183.79 40.332 L 183.79 40.332 L 183.79 40.332 Q 184.361 41.255 185.606 41.255 Z  M 204.313 44.77 L 200.855 38.867 L 199.464 40.259 L 199.464 44.77 L 194.527 44.77 L 194.527 22.256 L 199.464 22.256 L 199.464 34.209 L 199.962 33.55 L 203.683 28.921 L 209.601 28.921 L 204.049 35.439 L 209.967 44.77 L 204.313 44.77 L 204.313 44.77 Z " fill="rgb(255,255,255)"/></g></g></svg>