<svg xmlns="http://www.w3.org/2000/svg" style="isolation:isolate" viewBox="0 0 800 300" width="800pt" height="400"><defs><clipPath id="a"><path d="M0 0h800v300H0z"/></clipPath></defs><g clip-path="url(#a)"><path fill="#131231" d="M0 0h800v300H0z"/><path d="M583 136h-7.3v-11.5q0-2.1-.6-3.2-.6-1-2-1-1.7 0-2.6 1.4-.8 1.5-.8 5v9.2h-7.2v-21h5.4l1 2.6h.4q.9-1.5 2.5-2.2 1.7-.8 3.8-.8 3.5 0 5.4 2 2 2 2 5.7V136zm25-10.6q0 5.1-2.8 8-2.8 2.9-7.7 2.9-4.8 0-7.7-3-2.8-3-2.8-8t2.8-8q2.8-2.8 7.8-2.8 3 0 5.4 1.3 2.4 1.4 3.7 3.8 1.3 2.5 1.3 5.8zm-13.6 0q0 2.7.7 4 .7 1.5 2.4 1.5t2.4-1.4q.7-1.4.7-4.1 0-2.7-.7-4.1-.7-1.4-2.4-1.4t-2.4 1.4q-.7 1.4-.7 4zm43.6 10.5h-7.8l-2.3-10-.6-3-.4-2.5-1.3 6.6-2.1 9h-7.7l-5.7-21.1h7.1l1.7 8q.9 4.2 1 7h.1q0-1.7 1-6.5l2-8.5h8l1.8 8.6q.8 4 1 6.4h.2q0-1.4.3-3.5l.6-3.4 1.9-8.1h7l-5.8 21zm15.8-27.1l-1 17.5h-6.1l-1-17.5h8zm-8 24q0-1.6 1-2.6t3-1q1.8 0 2.8 1 1 1 1 2.6 0 1.7-1 2.6-1 1-2.9 1-1.8 0-2.8-1-1-.9-1-2.6zm-216-18.3q3.5 0 5.5 2.9t2 8q0 5-2 8-2 2.9-5.6 2.9-1.2 0-2.1-.3-1-.2-1.7-.7-.7-.4-1.6-1.4h-.5l-1.1 2H417v-28.8h7.3v6.5l-.3 4h.3q1-1.6 2.4-2.3 1.4-.8 3.2-.8zm-2.6 5.7q-1.5 0-2.2 1-.7 1.1-.7 3.4v1q0 2.6.7 3.7t2.3 1.1q1.3 0 2-1.3.6-1.3.6-3.8 0-5-2.7-5zM462 136h-5.5l-.9-2.6h-.4q-.9 1.5-2.5 2.2-1.6.8-3.8.8-3.5 0-5.4-2-2-2-2-5.7v-13.7h7.3v11.5q0 2 .6 3.1.6 1 1.9 1 1.9 0 2.7-1.4.8-1.5.8-5v-9.2h7.2v21zm25.5 0h-7.2v-11.4q0-2.1-.6-3.2-.6-1-2-1-1.8 0-2.6 1.4-.8 1.5-.8 5v9.2h-7.3v-21h5.5l1 2.6h.3q1-1.5 2.6-2.2 1.6-.8 3.8-.8 3.5 0 5.4 2 2 2 2 5.7V136zm11.5.4q-2.2 0-4-1.3-1.6-1.3-2.5-3.8-1-2.4-1-5.8 0-5 2.1-8 2-2.9 5.7-2.9 1.8 0 3 .7 1.4.7 2.5 2.4h.2q-.4-2.5-.4-5v-5.5h7.3v28.8h-5.5l-1.5-2.6h-.3q-1.9 3-5.6 3zm3-5.7q1.7 0 2.4-1.1.8-1.1.8-3.4v-.6q0-2.8-.8-4-.8-1.1-2.5-1.1-1.4 0-2.2 1.3-.8 1.4-.8 3.8 0 2.5.8 3.8.8 1.3 2.3 1.3zM524 107v28.8h-7.3v-28.8h7.3zm15.2 29.2q-5.3 0-8.2-2.8-2.9-2.8-2.9-8 0-5.3 2.7-8.1 2.7-2.9 7.7-2.9 4.7 0 7.3 2.5 2.6 2.5 2.6 7.1v3.3h-13q.1 1.7 1.3 2.7 1.2 1 3.3 1 2 0 3.5-.3 1.6-.4 3.5-1.3v5.3q-1.7.8-3.5 1.2-1.8.3-4.3.3zm-.5-16.8q-1.3 0-2.1.8-.9.8-1 2.5h6.2q0-1.5-.9-2.4-.8-1-2.2-1zM287 135.9h-7l-5.5-19.5h-.2q.4 5 .4 7.7V136h-6.5v-27.1h9.8l5.6 19.3h.2l5.5-19.3h9.8v27.1h-6.7V124v-2l.3-5.6h-.2l-5.5 19.5zm36.3 0h-5l-1.5-2.8h-.1q-1.5 1.9-3 2.5-1.5.7-4 .7-2.9 0-4.6-1.8-1.7-1.8-1.7-5 0-3.4 2.3-5 2.4-1.6 6.8-1.8l3.5-.2v-.3q0-2.6-2.5-2.6-2.4 0-5.9 1.6l-2-4.8q3.6-1.9 9.2-1.9 4 0 6.2 2 2.3 2 2.3 5.6V136zm-10.4-4.7q1.3 0 2.2-.9 1-.8 1-2.1v-1.7l-1.7.1q-3.6.1-3.6 2.6 0 2 2 2zm31.5-1.7q0 3.3-2.3 5-2.3 1.8-6.6 1.8-2.3 0-4-.3-1.8-.2-3.6-.9v-5.8q1.7.8 3.7 1.2 2 .5 3.6.5 2.4 0 2.4-1 0-.6-.7-1-.6-.5-3.8-1.7-2.9-1.2-4-2.7-1.2-1.6-1.2-3.9 0-3 2.3-4.5 2.2-1.7 6.4-1.7 2 0 3.9.5 1.8.4 3.8 1.3l-2 4.7q-1.4-.7-3-1.1-1.7-.5-2.7-.5-1.8 0-1.8.9 0 .5.6 1l3.6 1.5q2.2.9 3.3 1.7 1.1 1 1.6 2.1.5 1.2.5 2.9zm14.4 1q1.4 0 3.5-.7v5.3q-1.5.7-2.8 1-1.4.2-3.1.2-3.7 0-5.3-1.8-1.6-1.8-1.6-5.5v-8.7h-2.6v-3l3.3-2.2 1.8-4.4h4.8v4.2h5.2v5.4h-5.2v8.2q0 2 2 2zm17.3 5.8q-5.3 0-8.2-2.8-2.9-2.8-2.9-8 0-5.3 2.7-8.1 2.7-2.9 7.7-2.9 4.8 0 7.3 2.5 2.6 2.5 2.6 7.1v3.3h-13q.1 1.7 1.4 2.7 1.2 1 3.3 1 1.9 0 3.5-.3 1.6-.4 3.5-1.3v5.3q-1.7.8-3.6 1.2-1.8.3-4.3.3zm-.4-16.8q-1.3 0-2.2.8-.8.8-1 2.5h6.2q0-1.5-.8-2.4-.8-1-2.2-1zm26.4-5q1 0 1.8.2h.4l-.6 6.9q-1-.2-2.5-.2-2.4 0-3.4 1-1.1 1.1-1.1 3.2v10.3h-7.3v-21h5.4l1.2 3.4h.3q1-1.7 2.5-2.7 1.7-1 3.3-1zm183.7-21.8q-2 0-3.8-.4v-5.7l1.2.3h1.5q1.8 0 2.6-1 .7-1.1.7-3.8v-25h7.4v24.4q0 5.5-2.4 8.4-2.4 2.8-7.2 2.8zm33.8-8.5h-5l-1.4-2.8h-.2q-1.5 1.8-3 2.5-1.5.6-4 .6-2.9 0-4.6-1.7-1.7-1.8-1.7-5 0-3.4 2.3-5 2.4-1.7 6.8-1.9l3.5-.1v-.3q0-2.6-2.5-2.6-2.3 0-5.9 1.6l-2-4.8q3.6-2 9.2-2 4 0 6.3 2 2.2 2 2.2 5.7v13.8zM609 79.4q1.3 0 2.2-.8 1-.8 1-2.2v-1.6h-1.7q-3.6.2-3.6 2.7 0 2 2 2zm28 4.8H630l-8-21h7.6l3.5 12.4.1.3.1.5.1.7v.6h.2q0-1 .3-2l3.8-12.6h7.5l-8 21zm29.3 0h-5l-1.4-2.8h-.2q-1.5 1.8-3 2.5-1.5.6-4 .6-2.9 0-4.6-1.7-1.7-1.8-1.7-5 0-3.4 2.3-5 2.4-1.7 6.8-1.9l3.5-.1v-.3q0-2.6-2.5-2.6-2.3 0-5.9 1.6l-2-4.8q3.6-2 9.2-2 4 0 6.3 2 2.2 2 2.2 5.7v13.8zM656 79.4q1.3 0 2.2-.8 1-.8 1-2.2v-1.6h-1.7q-3.6.2-3.6 2.7 0 2 2 2zm33.5-3.5q0 2.6-1.3 4.5-1.3 2-3.7 3-2.4 1.1-5.7 1.1-2.7 0-4.5-.3-1.8-.4-3.8-1.4v-6.5q2 1 4.3 1.7 2.3.6 4.2.6 1.6 0 2.4-.6.7-.5.7-1.4 0-.6-.3-1l-1-.9q-.6-.4-3.6-1.7-2.6-1.2-4-2.3-1.3-1.2-1.9-2.6-.6-1.5-.6-3.5 0-3.8 2.7-5.8 2.7-2.1 7.5-2.1 4.2 0 8.6 1.9l-2.3 5.7q-3.8-1.8-6.5-1.8-1.5 0-2.1.5-.7.5-.7 1.3t.9 1.4q.8.6 4.4 2.3 3.5 1.6 5 3.4 1.3 1.8 1.3 4.5zm13.3 8.6q-5.1 0-7.8-2.7-2.7-2.8-2.7-8 0-5.3 3-8.1 2.8-3 8-3 3.7 0 7 1.7l-2.2 5.3-2.4-.9q-1.1-.3-2.3-.3-1.8 0-2.7 1.3-1 1.4-1 4 0 5 3.7 5 3.2 0 6.1-1.9v5.8q-2.8 1.8-6.7 1.8zm23.6-21.7l1.8.1.4.1-.6 6.8q-1-.2-2.5-.2-2.4 0-3.4 1.1-1.1 1.1-1.1 3.1v10.4h-7.3v-21h5.4l1.2 3.3h.3q1-1.7 2.5-2.7 1.7-1 3.3-1zm12.4.4v21h-7.2v-21h7.2zm-7.4-5.3q0-1.6 1-2.4.8-.8 2.8-.8 2 0 3 .8t1 2.4q0 3.2-4 3.2-3.8 0-3.8-3.2zm25.1 26.6q-1.6 0-2.8-.5-1.3-.5-2.5-1.9h-.4l.4 2.8v8.4h-7.3V63.2h6l1 2.6h.3q2-3 5.6-3 3.4 0 5.4 2.9 2 2.9 2 8 0 5-2 8-2.1 2.8-5.7 2.8zm-2.4-16q-1.6 0-2.2 1.1-.7 1.2-.7 3.4v.6q0 2.7.7 3.9.7 1.2 2.3 1.2 1.4 0 2-1.2.6-1.2.6-4 0-2.7-.6-3.8-.6-1.2-2.1-1.2zm24.5 10.3q1.5 0 3.6-.7v5.3q-1.5.6-2.8.9-1.4.2-3.1.2-3.7 0-5.3-1.7-1.6-1.8-1.6-5.5v-8.7h-2.6v-3l3.3-2.2 1.8-4.5h4.8v4.3h5.1v5.4h-5.1v8.2q0 2 2 2zm-257.2 0q1.4 0 3.5-.7v5.3q-1.5.6-2.8.9-1.3.2-3.1.2-3.7 0-5.3-1.7-1.6-1.8-1.6-5.5v-8.7h-2.6v-3l3.3-2.2 1.9-4.5h4.7v4.3h5.2v5.4h-5.2v8.2q0 2 2 2zm27.7 5.4h-7.3V72.7q0-4.2-2.5-4.2-1.8 0-2.7 1.5-.8 1.5-.8 5v9.2h-7.3V55.3h7.3v4.1q0 2.8-.3 6.3h.3q1-1.6 2.5-2.3 1.4-.6 3.3-.6 3.6 0 5.5 2 2 2 2 5.7v13.7zm15 .3q-5.2 0-8.1-2.7-2.9-2.8-2.9-8 0-5.3 2.7-8.2 2.7-2.8 7.7-2.8 4.7 0 7.3 2.5 2.6 2.4 2.6 7v3.3h-13q.1 1.8 1.3 2.8 1.2 1 3.3 1 2 0 3.5-.4 1.6-.3 3.5-1.2V83q-1.7.9-3.5 1.2-1.8.3-4.3.3zm-.4-16.8q-1.3 0-2.1.8-.9.8-1 2.6h6.2q0-1.6-.9-2.5-.8-.9-2.2-.9z" fill="#FFF"/><path d="M465.7 73.6q0 5.2-2.8 8-2.8 3-7.8 3-4.8 0-7.6-3t-2.8-8q0-5.1 2.8-8 2.7-2.8 7.7-2.8 3.1 0 5.5 1.3t3.7 3.8q1.3 2.4 1.3 5.7zm-13.7 0q0 2.7.8 4.1.7 1.5 2.4 1.5t2.4-1.5q.7-1.4.7-4 0-2.8-.7-4.1-.7-1.4-2.4-1.4t-2.4 1.3q-.8 1.4-.8 4.1zm30.6-10.4v5.4h-4.4v15.6h-7.3V68.6h-2.8V65l3-1.8V63q0-4.2 1.7-6 1.7-1.8 5.4-1.8 1.5 0 2.7.2 1.3.2 3 .8l-1.5 4.7q-1.4-.4-2.6-.4-.9 0-1.2.5-.4.5-.4 1.7v.5h4.4zm15.7 0v5.4H494v15.6h-7.3V68.6h-2.8V65l3-1.8V63q0-4.2 1.7-6 1.7-1.8 5.4-1.8 1.5 0 2.7.2 1.3.2 3 .8l-1.5 4.7q-1.4-.4-2.6-.4-.9 0-1.3.5-.3.5-.3 1.7v.5h4.4zM353.5 86.3v-3.5q-4-.2-7.8-1.8v-6.2q2.1 1.1 4.6 1.9 2.6.7 4.5.7 1.6 0 2.3-.4.7-.4.7-1.3 0-.6-.5-1t-1.8-1l-3.3-1.3q-2.4-.8-3.8-2-1.4-1-2.1-2.3-.7-1.4-.7-3.4 0-3 2-4.8 2-1.7 5.9-2.1v-2.6h3.8v2.5q3.7.2 7.5 1.9l-2.2 5.3q-3.9-1.8-7-1.8-1.5 0-2.1.4-.6.3-.6 1 0 .6.4 1l1.5 1 3 1q3.9 1.5 5.6 3.2 1.7 1.8 1.7 4.5 0 3.1-2 5-2 2-5.8 2.5v3.6h-3.8zm2-29.4zm28.4 0v27.2h-7.4V69.8 65q-.6.9-1.6 1.8l-3.1 2.5-3.8-4.7 9.3-7.6h6.6zm25.7 13.6q0 7.2-2.4 10.6-2.4 3.3-7.4 3.3-4.8 0-7.3-3.5T390 70.6q0-7.2 2.4-10.6 2.4-3.3 7.4-3.3 4.9 0 7.3 3.5 2.5 3.5 2.5 10.4zm-12.3 0q0 4.6.6 6.4.6 1.7 2 1.7 1.3 0 1.9-1.8.5-1.8.5-6.3t-.6-6.3q-.5-1.8-1.9-1.8-1.3 0-2 1.8-.5 1.7-.5 6.3zm34.6 0q0 7.2-2.4 10.6-2.4 3.3-7.4 3.3-4.9 0-7.3-3.5-2.5-3.5-2.5-10.4 0-7.2 2.4-10.6 2.4-3.3 7.4-3.3 4.8 0 7.3 3.5t2.5 10.4zm-12.3 0q0 4.6.6 6.4.5 1.7 1.9 1.7t2-1.8q.5-1.8.5-6.3t-.6-6.3q-.6-1.8-2-1.8-1.3 0-1.8 1.8-.6 1.7-.6 6.3z" fill="#F7DF1E"/><path d="M279 74v-5.7h11.7v14.6q-4.8 1.6-10.5 1.6-6.2 0-9.7-3.6-3.4-3.6-3.4-10.4 0-6.5 3.8-10.2 3.7-3.6 10.5-3.6 2.5 0 4.8.4 2.3.5 4 1.3l-2.4 5.7q-2.9-1.4-6.4-1.4-3.2 0-5 2-1.7 2.1-1.7 6 0 3.8 1.6 5.8t4.5 2q1.7 0 3-.3v-4.3H279zm27 10.5q-5.3 0-8.2-2.7-2.9-2.8-2.9-8 0-5.3 2.7-8.2 2.7-2.8 7.7-2.8 4.7 0 7.3 2.5 2.6 2.4 2.6 7v3.3h-13q.1 1.8 1.3 2.8 1.2 1 3.3 1 2 0 3.6-.4 1.6-.3 3.4-1.2V83q-1.7.9-3.5 1.2-1.8.3-4.3.3zm-.5-16.8q-1.2 0-2.1.8-.9.8-1 2.6h6.2q0-1.6-.8-2.5-.9-.9-2.3-.9zm24.1 11.1q1.5 0 3.5-.7v5.3q-1.5.6-2.8.9-1.3.2-3 .2-3.7 0-5.4-1.7-1.6-1.8-1.6-5.5v-8.7h-2.5v-3l3.2-2.2 1.9-4.5h4.7v4.3h5.2v5.4h-5.2v8.2q0 2 2 2z" fill="#FFF"/><linearGradient id="b" x1="0" y1=".5" x2=".7" y2="1.2" gradientTransform="matrix(29.48 0 0 24.488 265.2 19)" gradientUnits="userSpaceOnUse"><stop offset="24.8%" stop-color="#ff16b8"/><stop offset="97.2%" stop-color="#ff16b8"/></linearGradient><path d="M289.5 19h-5.1v12.5c0 4.4-4.3 8-9.6 8-5 0-9-3.2-9.6-7.2.6 6.3 7 11.3 14.8 11.3 8.1 0 14.7-5.5 14.7-12.3v-8a4 4 0 00-1.5-3c-1-.8-2.3-1.2-3.7-1.2z" fill-rule="evenodd" fill="url(#b)"/><linearGradient id="c" x1="0" y1=".5" x2=".6" y2="1.3" gradientTransform="matrix(19.198 0 0 20.356 265.2 19)" gradientUnits="userSpaceOnUse"><stop offset="0%" stop-color="#ff16b8"/><stop offset="100%" stop-opacity=".5" stop-color="#ff16b8"/></linearGradient><path d="M284.4 31.4V32h-.1v.4h-.1v.1l-.1.1v.1l-.1.2-.1.1-.1.2-.1.1-.1.2-.2.1-.1.1v.1h-.2v.1h-.1v.2h-.2l-.1.1-.2.1-.2.1-.1.1h-.1l-.1.1h-.2l-.1.1h-.1-.1l-.1.1h-.1-.1-.1l-.1.1h-.1-.2-.2l-.2.1h-.3a5 5 0 01-3.1-1 3.4 3.4 0 01-1.3-2.7v-8c0-2.3-2.4-4.2-5.2-4.2h-5.2V32.3c.5 4 4.6 7.1 9.6 7.1 5.3 0 9.6-3.5 9.6-8z" fill-rule="evenodd" fill="url(#c)"/><g><path d="M373.8 27.4q-1.8 0-2.8 1.2-1 1.1-1 3.2 0 2 1 3.2 1 1.2 2.8 1.2 1 0 2.5-.4v1q-1.1.5-2.7.5-2.4 0-3.7-1.5-1.3-1.4-1.3-4 0-1.7.6-3 .7-1.2 1.8-1.9 1.2-.6 2.8-.6 1.7 0 3 .6l-.6 1q-1.2-.5-2.4-.5zm11.6 5.7q0 2-1 3-1 1.2-2.7 1.2-1.1 0-2-.5-.8-.5-1.2-1.5-.5-1-.5-2.2 0-2 1-3 1-1.1 2.7-1.1 1.7 0 2.7 1 1 1.2 1 3.1zm-6.1 0q0 1.5.6 2.4.6.8 1.8.8 1.2 0 1.8-.8.6-.8.6-2.4 0-1.5-.6-2.3-.6-.8-1.8-.8-1.2 0-1.8.8-.6.8-.6 2.3zm8.1-4h1.3v5.2q0 1 .4 1.5.5.5 1.4.5 1.3 0 1.9-.7.5-.7.5-2.3v-4.2h1.3v8h-1l-.2-1-1.1.9q-.7.3-1.5.3-1.5 0-2.2-.7-.8-.7-.8-2.2V29zm13-.1h1l-.2 1.2-.9-.1q-1 0-1.7.8-.7.7-.7 2V37h-1.2v-8h1l.2 1.5q.5-.8 1.1-1.2.6-.4 1.4-.4zm7.6 6q0 1-.8 1.7-.8.6-2.3.6-1.6 0-2.5-.5v-1.2l1.2.5 1.3.2q1 0 1.5-.3t.5-1q0-.4-.4-.8l-1.6-.7-1.6-.8q-.5-.3-.7-.7-.3-.4-.3-1 0-1 .8-1.5t2.2-.5q1.3 0 2.6.5l-.5 1q-1.2-.5-2.2-.5-.8 0-1.3.2-.4.3-.4.8 0 .3.2.5.1.3.5.5l1.4.6q1.4.5 2 1 .4.5.4 1.3zm5.4 2.3q-1.8 0-2.8-1.1-1-1-1-3t1-3.1q.9-1.1 2.5-1.1 1.5 0 2.4 1 .9 1 .9 2.6v.7h-5.6q0 1.5.7 2.2.7.7 2 .7 1.2 0 2.5-.5v1l-1.2.5h-1.4zm-.3-7.3q-1 0-1.6.6-.5.6-.6 1.7h4.2q0-1.1-.6-1.7-.5-.6-1.4-.6zm10.5 5q0 1-.8 1.7-.9.6-2.4.6-1.6 0-2.5-.5v-1.2l1.3.5q.6.2 1.3.2 1 0 1.4-.3.5-.3.5-1 0-.4-.4-.8-.4-.3-1.6-.7l-1.6-.8-.7-.7q-.2-.4-.2-1 0-1 .8-1.5t2.2-.5q1.3 0 2.5.5l-.4 1q-1.2-.5-2.2-.5-.8 0-1.3.2-.4.3-.4.8l.1.5q.2.3.6.5l1.4.6q1.4.5 1.9 1t.5 1.3zm3.4-7.8v4.5h-.9v-4.5h-1.5v-.8h4v.8H427zm5.2 4.5h-.8l-1.5-4v4h-.9v-5.3h1.4l1.4 4.1 1.5-4h1.3v5.2h-.9v-4l-1.5 4zm-119.9-5.3h1.3v7q0 1.8-1.1 2.8-1.1 1-3 1-2 0-3-1-1.1-1-1.1-2.9v-6.9h1.2v7q0 1.4.7 2 .8.8 2.2.8 1.4 0 2-.7.8-.8.8-2.1v-7zm5.1-.7v11.4h-1.2V25.7h1.2zm5.2 10.6h.6l.5-.2v1l-.6.1h-.7q-2.3 0-2.3-2.4V30h-1.2v-.5l1.2-.5.5-1.8h.7v1.9h2.3v1h-2.3v4.7q0 .7.4 1 .3.5.9.5zm4-7.2v8h-1.3v-8h1.2zm-1.4-2.2q0-.4.2-.6.2-.2.5-.2t.5.2q.2.2.2.6 0 .4-.2.6-.2.2-.5.2t-.5-.2q-.2-.2-.2-.6zm15.3 10.2h-1.2V32q0-1-.4-1.4-.4-.5-1.3-.5-1 0-1.6.6-.6.7-.6 2v4.5h-1.2V32q0-1-.4-1.4-.4-.5-1.3-.5-1.1 0-1.7.7-.5.7-.5 2.2v4.2h-1.2v-8h1l.2 1.1q.4-.6 1-1 .6-.2 1.4-.2 1.9 0 2.5 1.3.4-.6 1-1 .8-.3 1.6-.3 1.4 0 2 .7.7.7.7 2.2V37zm8.4 0h-1l-.2-1.1q-.6.7-1.2 1-.6.3-1.5.3-1.2 0-1.9-.6-.6-.7-.6-1.8 0-2.4 3.8-2.5h1.4v-.6q0-1-.4-1.4-.4-.4-1.3-.4-1 0-2.3.6l-.3-1q.5-.3 1.3-.4l1.4-.2q1.4 0 2.1.6.7.6.7 2v5.5zm-3.7-.8q1.2 0 1.8-.6.7-.7.7-1.8v-.7h-1.2q-1.5 0-2.1.5-.7.4-.7 1.2 0 .7.4 1 .4.4 1.1.4zm8.8 0h.6l.5-.2v1l-.6.1h-.7q-2.3 0-2.3-2.4V30h-1.2v-.5l1.2-.5.5-1.8h.7v1.9h2.3v1h-2.3v4.7q0 .7.3 1 .4.5 1 .5zm6 1q-1.7 0-2.7-1.1-1-1-1-3t.9-3.1q1-1.1 2.6-1.1 1.5 0 2.4 1 .8 1 .8 2.6v.7h-5.5q0 1.5.7 2.2.7.7 2 .7 1.2 0 2.5-.5v1l-1.2.5H360zm-.2-7.3q-1 0-1.6.6-.6.6-.7 1.7h4.2q0-1.1-.5-1.7-.5-.6-1.4-.6z" fill="#FFF"/></g><path d="M441.2 198.5v7.1h-3v-6.4q0-1.1-.4-1.7-.4-.6-1.3-.6-1.3 0-1.8.8-.6.8-.6 2.8v5.1h-3v-11h2.3l.4 1.5h.2q.5-.8 1.4-1.2.8-.4 2-.4 1.9 0 2.9 1t1 3zm5.5 1.6q0 1.7.5 2.5t1.7.8q1.2 0 1.8-.8.5-.8.5-2.5 0-1.6-.5-2.4-.6-.8-1.8-.8-1.2 0-1.7.8t-.5 2.4zm7.5 0q0 2.7-1.4 4.2t-3.9 1.5q-1.6 0-2.8-.7-1.2-.7-1.8-2-.7-1.2-.7-3 0-2.6 1.4-4.1 1.4-1.5 4-1.5 1.5 0 2.7.7 1.2.7 1.9 2 .6 1.2.6 3zm14.7 5.5h-3.2l-.9-3.8-1.1-4.8-2 8.6h-3.3l-3-11h2.9l1.2 5q.4 1.2.7 3.5 0-.7.4-2.3l.1-.9 1.4-5.2h3.2l1.3 5.2.1.7.2.9.2.9v.7l.4-2 .3-1.6 1.3-4.8h3l-3.2 11zm7.9-14.3l-.5 9.6H474l-.5-9.6h3.4zm-3.4 13q0-.9.4-1.3.5-.4 1.3-.4t1.3.4q.4.4.4 1.2 0 .8-.4 1.2-.5.5-1.3.5t-1.3-.5q-.4-.4-.4-1.2zm-110.9-9.8q2 0 3 1.5 1.1 1.5 1.1 4.1 0 2.7-1 4.2-1.2 1.5-3.2 1.5-1.9 0-3-1.4h-.2l-.5 1.2h-2.3v-15.2h3v3.6l-.1 2.1h.1q1-1.6 3.1-1.6zm-1 2.4q-1 0-1.6.7-.5.6-.5 2.2v.3q0 1.8.5 2.5.6.8 1.7.8 1 0 1.5-.8.5-.9.5-2.5t-.5-2.4q-.6-.8-1.5-.8zm17.6 8.7h-2.3l-.4-1.4h-.1q-.5.8-1.4 1.2-.9.4-2 .4-2 0-2.9-1-1-1-1-3v-7.1h3v6.4q0 1.2.4 1.7.5.6 1.4.6 1.2 0 1.8-.8.5-.8.5-2.8v-5.1h3v11zm13.2-7.1v7.1h-3v-6.4q0-1.1-.4-1.7-.4-.6-1.3-.6-1.3 0-1.8.8-.6.8-.6 2.8v5.1h-3v-11h2.3l.4 1.5h.2q.5-.8 1.4-1.2.8-.4 2-.4 1.8 0 2.8 1 1 1 1 3zm6.5 7.3q-1.9 0-3-1.5-1-1.5-1-4.1 0-2.7 1-4.2 1.2-1.5 3.1-1.5 2 0 3.2 1.6l-.2-2.2v-3.5h3v15.2h-2.3l-.5-1.4h-.2q-1 1.6-3 1.6zm1-2.4q1.2 0 1.8-.6.5-.7.5-2.3v-.3q0-1.8-.5-2.5-.5-.8-1.8-.8-1 0-1.5.9-.6.8-.6 2.4 0 1.6.6 2.4.6.8 1.6.8zm11.2-13v15.2h-3v-15.2h3zm7.7 6.2q-1 0-1.5.6-.6.6-.6 1.7h4.1q0-1-.5-1.7-.6-.6-1.5-.6zm.4 9.2q-2.6 0-4.1-1.4-1.5-1.5-1.5-4.2t1.4-4.2q1.3-1.5 3.7-1.5 2.4 0 3.7 1.3 1.2 1.3 1.2 3.7v1.4h-7q0 1.3.8 2 .7.7 2 .7 1 0 1.8-.2.9-.2 1.8-.7v2.3l-1.6.6q-1 .2-2.2.2zm-148-9.3q2.1 0 3.4 1.2 1.2 1.1 1.2 3.1 0 2.4-1.5 3.7-1.4 1.3-4.2 1.3-2.4 0-3.8-.8v-2.6q.7.4 1.8.7 1 .3 1.9.3 2.8 0 2.8-2.3 0-2.2-2.9-2.2l-1.1.1q-.7.1-1 .3l-1.3-.7.6-7.3h7.7v2.6h-5l-.3 2.8h.3q.6-.2 1.5-.2zm11.3 5h-5.2V199h5.2v2.5zm6.6 4.3q-5 0-5-5.6 0-2.8 1.3-4.2 1.4-1.5 4-1.5 1.9 0 3.4.7l-.9 2.3-1.3-.4-1.2-.2q-2.3 0-2.3 3.3 0 3.2 2.3 3.2.9 0 1.6-.2l1.5-.8v2.6q-.8.5-1.5.6-.7.2-1.9.2zm8.3-5.7q0 1.7.5 2.5t1.7.8q1.2 0 1.7-.8.6-.8.6-2.5 0-1.6-.6-2.4-.5-.8-1.7-.8t-1.7.8q-.5.8-.5 2.4zm7.5 0q0 2.7-1.4 4.2t-4 1.5q-1.5 0-2.7-.7-1.2-.7-1.8-2-.7-1.2-.7-3 0-2.6 1.4-4.1 1.4-1.5 4-1.5 1.5 0 2.7.7 1.2.7 1.9 2 .6 1.2.6 3zm12.5 5.5H315l-.4-1.4h-.2q-.4.8-1.3 1.2-.9.4-2 .4-2 0-3-1-.9-1-.9-3v-7.1h3v6.4q0 1.2.4 1.7.4.6 1.3.6 1.3 0 1.8-.8.6-.8.6-2.8v-5.1h3v11zm9.2-11.1h1l-.2 2.9-.9-.1q-1.4 0-2.2.7-.8.7-.8 2v5.6h-3v-11h2.3l.4 2h.1q.6-1 1.4-1.5.9-.6 1.9-.6zm10.6 7.9q0 1.7-1.2 2.5-1.1 1-3.5 1-1.1 0-2-.3l-1.6-.4v-2.5l2 .7 1.7.2q1.7 0 1.7-1 0-.3-.2-.5l-.8-.5-1.4-.6q-1.3-.6-1.8-1l-1-1q-.2-.6-.2-1.5 0-1.4 1.2-2.2 1-.8 3.2-.8 2 0 3.8.8l-1 2.2-1.4-.6-1.5-.2q-1.3 0-1.3.7 0 .4.4.7l1.9.9q1.2.5 1.8 1 .6.4 1 1 .2.6.2 1.4zm6.9-5.8q-1 0-1.5.6-.6.6-.6 1.7h4.1q0-1-.5-1.7-.6-.6-1.5-.6zm.4 9.2q-2.7 0-4.1-1.4-1.5-1.5-1.5-4.2t1.3-4.2q1.4-1.5 3.8-1.5 2.3 0 3.6 1.3 1.3 1.3 1.3 3.7v1.4h-7q0 1.3.7 2t2 .7q1 0 1.9-.2.9-.2 1.8-.7v2.3q-.8.4-1.7.6-.8.2-2.1.2zm339-29.6q.8 0 2-.3v2.2q-1.2.5-2.8.5-1.8 0-2.6-1-.8-.8-.8-2.6v-5.3h-1.4v-1.3l1.6-1 .9-2.3h1.9v2.4h3v2.2h-3v5.3q0 .6.3.9.4.3 1 .3zm14.2-5v7.2h-3V172q0-2.4-1.7-2.4-1.3 0-1.8.9-.6.8-.6 2.7v5.2h-3v-15.2h3v4.8l-.1.9h.1q1-1.6 3.2-1.6 2 0 3 1t1 3zm7.6-1.8q-1 0-1.5.6t-.6 1.7h4.2q0-1.1-.6-1.7-.5-.6-1.5-.6zm.4 9.2q-2.6 0-4-1.5-1.6-1.4-1.6-4.1 0-2.7 1.4-4.2t3.8-1.5q2.3 0 3.6 1.3 1.3 1.3 1.3 3.6v1.5h-7q0 1.2.7 2 .7.7 2 .7 1 0 1.8-.3 1-.2 1.9-.6v2.3q-.8.4-1.7.6-.9.2-2.2.2zm-61.3-5.7v-2.5h5.7v7.4l-2.6.6q-1.2.2-2.5.2-3.2 0-5-2-1.6-1.8-1.6-5.4 0-3.4 2-5.4 2-2 5.4-2 2.2 0 4.3 1l-1 2.4q-1.6-.8-3.3-.8-2 0-3.1 1.3-1.2 1.4-1.2 3.6 0 2.3 1 3.5 1 1.3 2.7 1.3l2-.2v-3h-2.8zm13.4-3.5q-1 0-1.5.6t-.6 1.7h4.2q0-1.1-.6-1.7-.6-.6-1.5-.6zm.4 9.2q-2.6 0-4.1-1.5-1.5-1.4-1.5-4.1 0-2.7 1.4-4.2t3.8-1.5q2.3 0 3.6 1.3 1.3 1.3 1.3 3.6v1.5h-7q0 1.2.7 2 .7.7 2 .7 1 0 1.8-.3l1.8-.6v2.3q-.7.4-1.6.6-1 .2-2.2.2zm11.5-2.4q.8 0 1.9-.3v2.2q-1.2.5-2.8.5-1.8 0-2.6-1-.8-.8-.8-2.6v-5.3H664v-1.3l1.6-1 .9-2.3h1.9v2.4h3v2.2h-3v5.3q0 .6.3.9.4.3 1 .3zm-77.6-5v7.2h-3V172q0-2.4-1.7-2.4-1.3 0-1.8.9-.6.8-.6 2.7v5.2h-3v-15.2h3v4.8l-.1.9h.1q1-1.6 3.2-1.6 2 0 3 1t1 3zm7.6-1.8q-1 0-1.5.6t-.6 1.7h4.2q0-1.1-.6-1.7-.6-.6-1.5-.6zm.4 9.2q-2.6 0-4.1-1.5-1.5-1.4-1.5-4.1 0-2.7 1.4-4.2t3.8-1.5q2.3 0 3.6 1.3 1.3 1.3 1.3 3.6v1.5h-7q0 1.2.7 2 .7.7 2 .7 1 0 1.8-.3l1.9-.6v2.3q-.8.4-1.7.6-1 .2-2.2.2zm13-11.3h1l-.2 2.8h-1q-1.3 0-2.1.7t-.8 2v5.6h-3v-11h2.2l.5 1.9h.1q.5-1 1.4-1.5.9-.5 1.9-.5zm7.5 2q-1 0-1.5.7-.5.6-.6 1.7h4.2q0-1.1-.6-1.7-.6-.6-1.5-.6zm.4 9.3q-2.6 0-4.1-1.5-1.5-1.4-1.5-4.1 0-2.7 1.4-4.2t3.8-1.5q2.3 0 3.6 1.3 1.3 1.3 1.3 3.6v1.5h-7q0 1.2.7 2 .7.7 2 .7 1 0 1.8-.3l1.9-.6v2.3q-.8.4-1.7.6-1 .2-2.2.2zm6.5-1.6q0-.8.4-1.3.4-.4 1.3-.4.8 0 1.2.4.5.5.5 1.3t-.5 1.2q-.4.4-1.2.4-.8 0-1.3-.4-.4-.4-.4-1.2zm-66.8-12.4q0-1.4 1.6-1.4t1.6 1.4q0 .7-.4 1.1-.4.4-1.2.4-1.6 0-1.6-1.5zm3 2.9v10.9h-3v-11h3zm10.8 7.6q0 1.7-1.2 2.6-1.1.9-3.4.9-1.2 0-2-.2l-1.7-.5v-2.4q.9.4 2 .6 1 .3 1.8.3 1.6 0 1.6-1 0-.3-.2-.5l-.8-.5-1.4-.7q-1.3-.5-1.8-1-.6-.4-.9-1-.3-.5-.3-1.4 0-1.5 1.2-2.3 1-.7 3.2-.7 2 0 3.8.8l-.9 2.2-1.5-.6-1.5-.2q-1.3 0-1.3.7 0 .4.4.7.4.3 1.9.8 1.3.6 1.8 1l1 1q.2.6.2 1.4zm-56.4-4q0 3.5-2 5.4-2 1.9-5.8 1.9h-4V164h4.4q3.5 0 5.5 1.8 1.9 1.9 1.9 5.2zm-3.1 0q0-4.5-4.1-4.5h-1.6v9.3h1.3q4.4 0 4.4-4.7zm19 .1q0 3.6-1.7 5.5-1.8 1.9-5 1.9-3.4 0-5.1-2-1.8-1.8-1.8-5.4 0-3.6 1.8-5.4 1.7-2 5-2t5 2q1.8 1.9 1.8 5.4zm-10.4 0q0 2.4.9 3.6 1 1.2 2.7 1.2 3.6 0 3.6-4.8t-3.6-4.8q-1.8 0-2.7 1.2-1 1.2-1 3.6zm22.2 7.2h-2.8l-3.4-11.2h-.1l.2 4.5v6.7h-2.7V164h4l3.5 11 3.6-11h4.1v14.3h-2.8v-6.8-1l.2-3.4h-.1l-3.7 11.2zm-146.2 4.2q-1 0-1.8-.2v-2.6l1.4.2q1 0 1.4-.6.5-.6.5-2v-13.3h3v13.4q0 2.5-1.1 3.8-1.2 1.3-3.4 1.3zm16.9-4.2h-2.1l-.6-1.5q-.8 1-1.6 1.3-.8.4-2 .4-1.7 0-2.6-1-.9-.8-.9-2.5t1.3-2.5q1.2-.9 3.6-1h2v-.5q0-1.7-1.8-1.7-1.3 0-3 .8l-1-2q1.8-1 4.1-1 2.2 0 3.4 1 1.2 1 1.2 2.9v7.3zm-3-4.2v-.9h-1.1q-1.3.1-2 .5-.6.5-.6 1.3 0 1.3 1.4 1.3 1 0 1.7-.6.6-.6.6-1.6zm11.7 4.2h-3l-4.2-11h3l2.2 6.3q.4 1.2.4 2.2h.1q0-1 .4-2.2l2.1-6.2h3.2l-4.2 10.9zm14.7 0h-2l-.6-1.5h-.1q-.8 1-1.6 1.3-.7.4-2 .4-1.6 0-2.5-1-1-.8-1-2.5t1.3-2.5q1.2-.9 3.7-1h1.9v-.5q0-1.7-1.7-1.7-1.3 0-3.1.8l-1-2q1.9-1 4.2-1 2.2 0 3.4 1 1.1 1 1.1 2.9v7.3zm-3-4.2v-.9h-1q-1.4.1-2 .5-.6.5-.6 1.3 0 1.3 1.4 1.3 1 0 1.7-.6.6-.6.6-1.6zm14.8.2q0 2-1.4 3-1.4 1.2-3.9 1.2-2.3 0-4-.9V175l2.4 1 1.8.2q1 0 1.6-.4.5-.4.5-1.1 0-.5-.2-.8l-.7-.6-1.9-1q-1.3-.6-2-1.2-.6-.5-1-1.3-.4-.7-.4-1.7 0-2 1.3-3 1.3-1.1 3.6-1.1 1 0 2 .3 1 .2 2.2.7l-1 2.4-1.9-.7-1.4-.2q-.9 0-1.4.4-.4.4-.4 1 0 .5.2.8.1.3.6.5l1.9 1q2 1 2.7 2 .8 1 .8 2.3zm6.7 4.2q-5 0-5-5.6 0-2.8 1.3-4.3 1.4-1.4 4-1.4 1.9 0 3.4.7l-.9 2.3-1.3-.5-1.2-.1q-2.3 0-2.3 3.3 0 3.2 2.3 3.2.9 0 1.6-.3.7-.2 1.5-.7v2.6l-1.5.6q-.7.2-1.9.2zm12-11.3h1l-.2 2.8h-1q-1.3 0-2.1.7t-.8 2v5.6h-3v-11h2.3l.4 1.9h.1q.5-1 1.4-1.5.9-.5 1.9-.5zm2.9-2.7q0-1.4 1.6-1.4t1.6 1.4q0 .7-.4 1.1-.4.4-1.2.4-1.6 0-1.6-1.5zm3 2.9v10.9h-3v-11h3zm9.2 11q-2 0-3-1.3h-.2l.2 1.6v4.4h-3v-15.7h2.4l.4 1.4h.2q1-1.6 3-1.6t3 1.4q1.2 1.5 1.2 4.2 0 1.7-.5 3t-1.5 2q-1 .7-2.2.7zm-.9-8.9q-1.1 0-1.6.7t-.5 2.3v.3q0 1.7.5 2.5t1.6.8q2 0 2-3.3 0-1.7-.5-2.5-.4-.8-1.5-.8zm12.1 6.6q.8 0 2-.3v2.2q-1.2.5-2.8.5-1.8 0-2.6-1-.8-.8-.8-2.6v-5.3h-1.5v-1.3l1.7-1 .8-2.3h2v2.4h3v2.2h-3v5.3q0 .6.3.9.4.3 1 .3zm-139.5-5.1q0 3.5-2 5.4-2 1.9-5.8 1.9h-4V164h4.5q3.4 0 5.4 1.8 2 1.9 2 5.2zm-3.1 0q0-4.5-4-4.5h-1.7v9.3h1.3q4.4 0 4.4-4.7zm10.4-1.7q-1 0-1.5.6-.6.6-.6 1.7h4.1q0-1.1-.5-1.7-.6-.6-1.5-.6zm.4 9.2q-2.7 0-4.1-1.5-1.5-1.4-1.5-4.1 0-2.7 1.3-4.2 1.4-1.5 3.8-1.5t3.6 1.3q1.3 1.3 1.3 3.6v1.5h-7q0 1.2.7 2 .7.7 2 .7 1 0 1.9-.3l1.8-.6v2.3q-.8.4-1.7.6-.8.2-2.1.2zm15.9-.2h-2.1l-.6-1.5q-.8 1-1.6 1.3-.8.4-2 .4-1.7 0-2.6-1-.9-.8-.9-2.5t1.3-2.5q1.2-.9 3.6-1h2v-.5q0-1.7-1.8-1.7-1.3 0-3 .8l-1-2q1.8-1 4.1-1 2.2 0 3.4 1 1.2 1 1.2 2.9v7.3zm-3-4.2v-.9h-1.1q-1.3.1-2 .5-.6.5-.6 1.3 0 1.3 1.4 1.3 1 0 1.7-.6.6-.6.6-1.6zm9-11v15.2h-3v-15.2h3zm2.7 13.8q0-.8.5-1.3.4-.4 1.2-.4.8 0 1.3.4.4.5.4 1.3t-.4 1.2q-.5.4-1.3.4t-1.2-.4q-.5-.4-.5-1.2zm0-8q0-1 .5-1.3.4-.4 1.2-.4.8 0 1.3.4.4.4.4 1.2 0 .8-.4 1.2-.5.5-1.3.5t-1.2-.5q-.5-.4-.5-1.2zm-113.6 9.4H267V164h3v11.8h5.8v2.5zm11.3 0H285l-.6-1.5q-.8 1-1.6 1.3-.8.4-2.1.4-1.6 0-2.5-1-.9-.8-.9-2.5t1.2-2.5q1.3-.9 3.7-1h1.9v-.5q0-1.7-1.7-1.7-1.3 0-3 .8l-1-2q1.8-1 4.1-1 2.2 0 3.4 1 1.2 1 1.2 2.9v7.3zm-3-4.2v-.9h-1.2q-1.3.1-1.9.5-.6.5-.6 1.3 0 1.3 1.4 1.3 1 0 1.7-.6.6-.6.6-1.6zm16 4.2H298l-.4-1.4h-.2q-.5.7-1.4 1.2-.8.4-2 .4-1.9 0-2.9-1t-1-3v-7.1h3v6.3q0 1.2.5 1.8.4.6 1.3.6 1.3 0 1.8-.8.6-.9.6-2.8v-5.1h3v10.9zm13.2-7.1v7h-3V172q0-1.2-.4-1.8-.4-.6-1.3-.6-1.2 0-1.8.9-.6.8-.6 2.7v5.2h-3v-11h2.3l.4 1.5h.2q.5-.8 1.4-1.2.9-.4 2-.4 1.9 0 2.9 1t1 3zm7.5 7.3q-5 0-5-5.6 0-2.8 1.3-4.3 1.4-1.4 4-1.4 1.9 0 3.4.7l-.9 2.3-1.3-.5-1.2-.1q-2.3 0-2.3 3.3 0 3.2 2.3 3.2.9 0 1.6-.3.7-.2 1.5-.7v2.6l-1.5.6q-.7.2-1.9.2zm16-7.3v7h-3V172q0-2.4-1.8-2.4-1.2 0-1.8.9-.5.8-.5 2.7v5.2h-3v-15.2h3v4.8l-.2.9h.2q1-1.6 3.2-1.6 1.9 0 2.9 1t1 3z" fill="#FFF"/><g><path d="M294 225h156.4c15.9 0 28.8 12.2 28.8 27.1 0 15-13 27.2-28.8 27.2H294c-15.9 0-28.8-12.2-28.8-27.2S278 225 294 225z" fill="#f7df1e"/><path d="M352.8 264.1q-1 0-1.8-.2v-2.5l1.4.2q1 0 1.5-.7.4-.6.4-1.9v-13.4h3V259q0 2.5-1.1 3.8-1.2 1.3-3.4 1.3zm16.9-4.2h-2l-.7-1.5q-.8 1-1.6 1.3-.8.4-2 .4-1.6 0-2.5-.9-1-.9-1-2.6 0-1.7 1.3-2.5 1.2-.8 3.6-1h2v-.5q0-1.6-1.8-1.6-1.3 0-3 .8l-1-2q1.9-1 4.2-1 2.2 0 3.3 1 1.2.9 1.2 2.8v7.3zm-3-4.2v-.9h-1.1q-1.3.1-2 .6-.6.4-.6 1.3 0 1.2 1.5 1.2 1 0 1.6-.6.6-.6.6-1.6zm11.7 4.2h-3l-4.2-11h3.1l2.1 6.3q.4 1.2.5 2.2 0-.9.5-2.2l2-6.2h3.2l-4.2 10.9zm14.8 0H391l-.6-1.5q-.8 1-1.6 1.3-.8.4-2.1.4-1.6 0-2.5-.9-.9-.9-.9-2.6 0-1.7 1.2-2.5 1.3-.8 3.7-1h1.9v-.5q0-1.6-1.7-1.6-1.3 0-3 .8l-1-2q1.8-1 4.1-1 2.2 0 3.4 1 1.2.9 1.2 2.8v7.3zm-3-4.2v-.9H389q-1.3.1-1.9.6-.6.4-.6 1.3 0 1.2 1.4 1.2 1 0 1.7-.6.6-.6.6-1.6zm14.7.2q0 2-1.4 3-1.4 1.2-3.9 1.2-2.3 0-4-.9v-2.8q1.4.7 2.4 1l1.9.2q1 0 1.5-.4t.5-1.1l-.2-.8-.7-.6-1.9-1q-1.3-.6-2-1.1-.6-.6-1-1.4-.4-.7-.4-1.7 0-2 1.3-3t3.6-1l2.1.2 2.1.7-1 2.4-1.9-.7-1.4-.2q-.9 0-1.3.4-.5.4-.5 1 0 .5.2.8l.6.6 1.9 1q2 1 2.7 1.9.8 1 .8 2.3zm6.8 4.2q-5.1 0-5.1-5.6 0-2.8 1.4-4.2 1.3-1.5 4-1.5 1.8 0 3.3.7l-.8 2.3-1.4-.4-1.2-.2q-2.3 0-2.3 3.3 0 3.2 2.3 3.2.9 0 1.6-.2.8-.3 1.5-.8v2.6q-.7.4-1.5.6-.7.2-1.8.2zm12-11.3h1l-.3 2.9-.9-.1q-1.4 0-2.2.7-.8.7-.8 2v5.6h-3v-11h2.3l.4 2h.2q.5-1 1.3-1.6.9-.5 2-.5zm2.8-2.6q0-1.5 1.6-1.5t1.6 1.5q0 .7-.4 1-.4.4-1.2.4-1.6 0-1.6-1.4zm3 2.8v10.9h-2.9v-11h3zm9.2 11.1q-2 0-3-1.4h-.2l.2 1.6v4.4h-3V249h2.4l.4 1.4h.2q1-1.6 3-1.6t3.1 1.5q1.1 1.5 1.1 4.1 0 1.8-.5 3-.5 1.4-1.5 2-1 .7-2.2.7zm-.9-9q-1 0-1.6.7-.5.7-.5 2.3v.3q0 1.8.5 2.5.5.8 1.7.8 2 0 2-3.3 0-1.6-.5-2.4-.5-.8-1.6-.8zm12.2 6.6q.7 0 1.8-.3v2.2q-1 .5-2.7.5-1.8 0-2.6-.9-.8-1-.8-2.7v-5.3h-1.4V250l1.6-1 .9-2.3h1.9v2.3h3v2.2h-3v5.3q0 .6.3 1 .4.2 1 .2zM300.5 260h-8.8v-14.3h3v11.8h5.8v2.5zm6.8-9q-1 0-1.5.6-.6.6-.6 1.7h4.1q0-1.1-.5-1.7-.6-.6-1.5-.6zm.4 9.2q-2.7 0-4.1-1.5-1.5-1.4-1.5-4 0-2.8 1.4-4.3 1.3-1.5 3.7-1.5 2.4 0 3.7 1.3 1.2 1.3 1.2 3.6v1.5h-7q0 1.3.8 2 .7.7 2 .7 1 0 1.8-.2.9-.2 1.8-.7v2.3l-1.6.6q-1 .2-2.2.2zm15.9-.2h-2.1l-.6-1.5q-.8 1-1.6 1.3-.8.4-2 .4-1.7 0-2.6-.9-.9-.9-.9-2.6 0-1.7 1.3-2.5 1.2-.8 3.6-1h2v-.5q0-1.6-1.8-1.6-1.3 0-3 .8l-1-2q1.8-1 4.1-1 2.2 0 3.4 1 1.2.9 1.2 2.8v7.3zm-3-4.2v-.9h-1.1q-1.3.1-2 .6-.6.4-.6 1.3 0 1.2 1.4 1.2 1 0 1.7-.6.6-.6.6-1.6zm12.1-7q.6 0 1 .2l-.2 2.8-.9-.1q-1.4 0-2.2.7-.8.7-.8 2v5.6h-3v-11h2.3l.4 2h.2q.5-1 1.4-1.6.8-.5 1.8-.5zm13.1 4v7.2h-3v-6.4q0-1.2-.4-1.7-.4-.6-1.3-.6-1.3 0-1.8.8-.6.8-.6 2.8v5.1h-3v-11h2.3l.4 1.5h.2q.5-.8 1.3-1.2 1-.4 2-.4 2 0 3 1 .9 1 .9 3z" fill="#131231"/></g><g><path d="M75.4 74h124c10.8 0 19.6 8.7 19.6 19.5v124c0 10.9-8.8 19.6-19.6 19.6h-124a19.6 19.6 0 01-19.6-19.5v-124c0-10.9 8.8-19.6 19.6-19.6z" fill="#f7df1e"/><path d="M165.4 201.5c3.3 5.3 7.6 9.3 15.2 9.3 6.3 0 10.4-3.2 10.4-7.6 0-5.3-4.2-7.1-11.2-10.2l-3.8-1.6c-11-4.7-18.4-10.6-18.4-23.1 0-11.5 8.7-20.3 22.4-20.3 9.8 0 16.8 3.4 21.8 12.3l-12 7.7c-2.5-4.8-5.4-6.6-9.8-6.6-4.5 0-7.3 2.8-7.3 6.6 0 4.6 2.8 6.4 9.4 9.3l3.8 1.6c13 5.6 20.4 11.3 20.4 24.1 0 13.8-10.8 21.4-25.4 21.4-14.2 0-23.4-6.8-28-15.7l12.5-7.2zm-54.1 1.3c2.4 4.3 4.6 7.9 9.8 7.9 5 0 8.3-2 8.3-9.7V149h15.3v52.3c0 16-9.3 23.1-23 23.1a23.8 23.8 0 01-23-14l12.6-7.5z" fill="#131231"/></g></g></svg>