<svg xmlns="http://www.w3.org/2000/svg" style="isolation:isolate" viewBox="0 0 800 300" width="800pt" height="400"><defs><clipPath id="a"><path d="M0 0h800v300H0z"/></clipPath></defs><g clip-path="url(#a)"><path fill="#131231" d="M0 0h800v300H0z"/><path d="M139.4 55L50.8 86.6l13.5 117.2 75 41.6 75.2-41.6L228 86.6 139.4 55z" fill="#DD0031"/><path d="M139.4 55v190.4l75-41.6L228 86.6 139.4 55z" fill="#C3002F"/><path d="M139.4 76L84 200.2h20.6l11.2-27.7h47l11.1 27.7h20.7L139.4 76zm16.2 79.3h-32.4l16.2-39 16.2 39z" fill="#FFF"/><g><path d="M583 136h-7.3v-11.5q0-2.1-.6-3.2-.6-1-2-1-1.7 0-2.6 1.4-.8 1.5-.8 5v9.2h-7.2v-21h5.4l1 2.6h.4q.9-1.5 2.5-2.2 1.7-.8 3.8-.8 3.5 0 5.4 2 2 2 2 5.7V136zm25-10.6q0 5.1-2.8 8-2.8 2.9-7.7 2.9-4.8 0-7.7-3-2.8-3-2.8-8t2.8-8q2.8-2.8 7.8-2.8 3 0 5.4 1.3 2.4 1.4 3.7 3.8 1.3 2.5 1.3 5.8zm-13.6 0q0 2.7.7 4 .7 1.5 2.4 1.5t2.4-1.4q.7-1.4.7-4.1 0-2.7-.7-4.1-.7-1.4-2.4-1.4t-2.4 1.4q-.7 1.4-.7 4zm43.6 10.5h-7.8l-2.3-10-.6-3-.4-2.5-1.3 6.6-2.1 9h-7.7l-5.7-21.1h7.1l1.7 8q.9 4.2 1 7h.1q0-1.7 1-6.5l2-8.5h8l1.8 8.6q.8 4 1 6.4h.2q0-1.4.3-3.5l.6-3.4 1.9-8.1h7l-5.8 21zm15.8-27.1l-1 17.5h-6.1l-1-17.5h8zm-8 24q0-1.6 1-2.6t3-1q1.8 0 2.8 1 1 1 1 2.6 0 1.7-1 2.6-1 1-2.9 1-1.8 0-2.8-1-1-.9-1-2.6zm-216-18.3q3.5 0 5.5 2.9t2 8q0 5-2 8-2 2.9-5.6 2.9-1.2 0-2.1-.3-1-.2-1.7-.7-.7-.4-1.6-1.4h-.5l-1.1 2H417v-28.8h7.3v6.5l-.3 4h.3q1-1.6 2.4-2.3 1.4-.8 3.2-.8zm-2.6 5.7q-1.5 0-2.2 1-.7 1.1-.7 3.4v1q0 2.6.7 3.7t2.3 1.1q1.3 0 2-1.3.6-1.3.6-3.8 0-5-2.7-5zM462 136h-5.5l-.9-2.6h-.4q-.9 1.5-2.5 2.2-1.6.8-3.8.8-3.5 0-5.4-2-2-2-2-5.7v-13.7h7.3v11.5q0 2 .6 3.1.6 1 1.9 1 1.9 0 2.7-1.4.8-1.5.8-5v-9.2h7.2v21zm25.5 0h-7.2v-11.4q0-2.1-.6-3.2-.6-1-2-1-1.8 0-2.6 1.4-.8 1.5-.8 5v9.2h-7.3v-21h5.5l1 2.6h.3q1-1.5 2.6-2.2 1.6-.8 3.8-.8 3.5 0 5.4 2 2 2 2 5.7V136zm11.5.4q-2.2 0-4-1.3-1.6-1.3-2.5-3.8-1-2.4-1-5.8 0-5 2.1-8 2-2.9 5.7-2.9 1.8 0 3 .7 1.4.7 2.5 2.4h.2q-.4-2.5-.4-5v-5.5h7.3v28.8h-5.5l-1.5-2.6h-.3q-1.9 3-5.6 3zm3-5.7q1.7 0 2.4-1.1.8-1.1.8-3.4v-.6q0-2.8-.8-4-.8-1.1-2.5-1.1-1.4 0-2.2 1.3-.8 1.4-.8 3.8 0 2.5.8 3.8.8 1.3 2.3 1.3zM524 107v28.8h-7.3v-28.8h7.3zm15.2 29.2q-5.3 0-8.2-2.8-2.9-2.8-2.9-8 0-5.3 2.7-8.1 2.7-2.9 7.7-2.9 4.7 0 7.3 2.5 2.6 2.5 2.6 7.1v3.3h-13q.1 1.7 1.3 2.7 1.2 1 3.3 1 2 0 3.5-.3 1.6-.4 3.5-1.3v5.3q-1.7.8-3.5 1.2-1.8.3-4.3.3zm-.5-16.8q-1.3 0-2.1.8-.9.8-1 2.5h6.2q0-1.5-.9-2.4-.8-1-2.2-1zM287 135.9h-7l-5.5-19.5h-.2q.4 5 .4 7.7V136h-6.5v-27.1h9.8l5.6 19.3h.2l5.5-19.3h9.8v27.1h-6.7V124v-2l.3-5.6h-.2l-5.5 19.5zm36.3 0h-5l-1.5-2.8h-.1q-1.5 1.9-3 2.5-1.5.7-4 .7-2.9 0-4.6-1.8-1.7-1.8-1.7-5 0-3.4 2.3-5 2.4-1.6 6.8-1.8l3.5-.2v-.3q0-2.6-2.5-2.6-2.4 0-5.9 1.6l-2-4.8q3.6-1.9 9.2-1.9 4 0 6.2 2 2.3 2 2.3 5.6V136zm-10.4-4.7q1.3 0 2.2-.9 1-.8 1-2.1v-1.7l-1.7.1q-3.6.1-3.6 2.6 0 2 2 2zm31.5-1.7q0 3.3-2.3 5-2.3 1.8-6.6 1.8-2.3 0-4-.3-1.8-.2-3.6-.9v-5.8q1.7.8 3.7 1.2 2 .5 3.6.5 2.4 0 2.4-1 0-.6-.7-1-.6-.5-3.8-1.7-2.9-1.2-4-2.7-1.2-1.6-1.2-3.9 0-3 2.3-4.5 2.2-1.7 6.4-1.7 2 0 3.9.5 1.8.4 3.8 1.3l-2 4.7q-1.4-.7-3-1.1-1.7-.5-2.7-.5-1.8 0-1.8.9 0 .5.6 1l3.6 1.5q2.2.9 3.3 1.7 1.1 1 1.6 2.1.5 1.2.5 2.9zm14.4 1q1.4 0 3.5-.7v5.3q-1.5.7-2.8 1-1.4.2-3.1.2-3.7 0-5.3-1.8-1.6-1.8-1.6-5.5v-8.7h-2.6v-3l3.3-2.2 1.8-4.4h4.8v4.2h5.2v5.4h-5.2v8.2q0 2 2 2zm17.3 5.8q-5.3 0-8.2-2.8-2.9-2.8-2.9-8 0-5.3 2.7-8.1 2.7-2.9 7.7-2.9 4.8 0 7.3 2.5 2.6 2.5 2.6 7.1v3.3h-13q.1 1.7 1.4 2.7 1.2 1 3.3 1 1.9 0 3.5-.3 1.6-.4 3.5-1.3v5.3q-1.7.8-3.6 1.2-1.8.3-4.3.3zm-.4-16.8q-1.3 0-2.2.8-.8.8-1 2.5h6.2q0-1.5-.8-2.4-.8-1-2.2-1zm26.4-5q1 0 1.8.2h.4l-.6 6.9q-1-.2-2.5-.2-2.4 0-3.4 1-1.1 1.1-1.1 3.2v10.3h-7.3v-21h5.4l1.2 3.4h.3q1-1.7 2.5-2.7 1.7-1 3.3-1zm188.2-30.3h-8l-1.4-5.1H572l-1.4 5h-8l8.8-27.2h9.8l9 27.3zM573.5 73h5.8l-1.2-4.5-1-3.8-.7-3.4-.7 3.1-2.2 8.6zm39.7 11H606V72.8q0-2-.6-3.2-.6-1-2-1-1.8 0-2.6 1.4-.9 1.5-.9 5v9.3h-7.2v-21h5.5l.9 2.5h.4q1-1.4 2.6-2.2 1.6-.7 3.7-.7 3.5 0 5.5 2t2 5.7v13.7zm17.5-21h7.3v3.6l-2.9 1q.6 1 .6 2.5 0 3.4-2.4 5.3t-7.1 1.9q-1.2 0-1.9-.2l-.2 1q0 .5.9.8.8.2 2.2.2h3.5q7.1 0 7.1 6 0 3.8-3.3 6-3.3 2.1-9.2 2.1-4.4 0-6.9-1.5-2.4-1.5-2.4-4.3 0-3.8 4.7-4.8-1-.5-1.7-1.4-.7-.9-.7-1.8 0-1 .5-1.7.6-.8 2.3-1.8-1.7-.7-2.6-2.3-1-1.5-1-3.7 0-3.4 2.4-5.3 2.3-2 6.7-2l2 .2q1.4.1 2 .3zM622 86.8q0 .9 1 1.4 1 .6 2.6.6 2.6 0 4.2-.7 1.6-.6 1.6-1.7 0-.8-1-1.2-1-.3-2.7-.3h-2.9q-1.1 0-2 .5-.8.6-.8 1.4zm2.3-16.8q0 3.3 2.3 3.3 1 0 1.6-.8.5-.8.5-2.4 0-3.3-2.1-3.3-2.3 0-2.3 3.2zm37.2 14.2h-5.5l-.9-2.6h-.4q-.9 1.4-2.5 2.2-1.6.7-3.8.7-3.5 0-5.4-2-2-2-2-5.7V63.2h7.3v11.4q0 2 .6 3.2.6 1 1.9 1 1.9 0 2.7-1.5.8-1.4.8-5v-9.1h7.2v21zM674 55.3v28.9h-7.3V55.3h7.3zm23.8 28.9h-5l-1.5-2.8h-.1q-1.5 1.8-3 2.5-1.5.6-4 .6-2.9 0-4.6-1.7-1.7-1.8-1.7-5 0-3.4 2.3-5 2.4-1.7 6.8-1.9l3.5-.1v-.3q0-2.6-2.6-2.6-2.3 0-5.8 1.6l-2.1-4.8q3.7-2 9.3-2 4 0 6.2 2 2.3 2 2.3 5.7v13.8zm-10.5-4.8q1.4 0 2.3-.8 1-.8 1-2.2v-1.6h-1.7q-3.6.2-3.6 2.7 0 2 2 2zm28-16.6l1.9.1.4.1-.7 6.8q-.9-.2-2.4-.2-2.4 0-3.5 1.1-1 1.1-1 3.1v10.4h-7.3v-21h5.4l1.1 3.3h.4q.9-1.7 2.5-2.7 1.6-1 3.3-1zm-216.1 16q1.5 0 3.5-.7v5.3q-1.5.6-2.8.9-1.3.2-3 .2-3.7 0-5.4-1.7-1.6-1.8-1.6-5.5v-8.7h-2.5v-3l3.2-2.2 1.9-4.5h4.7v4.3h5.2v5.4H497v8.2q0 2 2 2zm27.7 5.4h-7.3V72.7q0-4.2-2.5-4.2-1.8 0-2.6 1.5-.9 1.5-.9 5v9.2h-7.2V55.3h7.2v4.1q0 2.8-.3 6.3h.4q1-1.6 2.4-2.3 1.5-.6 3.4-.6 3.5 0 5.4 2 2 2 2 5.7v13.7zm15 .3q-5.2 0-8-2.7-3-2.8-3-8 0-5.3 2.7-8.2 2.7-2.8 7.7-2.8 4.8 0 7.3 2.5 2.6 2.4 2.6 7v3.3h-13q.1 1.8 1.3 2.8 1.3 1 3.4 1 1.9 0 3.5-.4 1.6-.3 3.5-1.2V83q-1.8.9-3.6 1.2-1.8.3-4.3.3zm-.3-16.8q-1.3 0-2.2.8-.8.8-1 2.6h6.2q0-1.6-.8-2.5-.8-.9-2.2-.9z" fill="#FFF"/><path d="M443.4 73.6q0 5.2-2.8 8-2.7 3-7.7 3-4.8 0-7.7-3-2.8-3-2.8-8 0-5.1 2.8-8 2.8-2.8 7.8-2.8 3 0 5.4 1.3 2.4 1.3 3.7 3.8 1.3 2.4 1.3 5.7zm-13.6 0q0 2.7.7 4.1.7 1.5 2.4 1.5t2.4-1.5q.7-1.4.7-4 0-2.8-.7-4.1-.7-1.4-2.4-1.4t-2.4 1.3q-.7 1.4-.7 4.1zm30.6-10.4v5.4h-4.5v15.6h-7.2V68.6h-2.8V65l2.9-1.8V63q0-4.2 1.7-6 1.7-1.8 5.4-1.8 1.5 0 2.8.2 1.3.2 3 .8l-1.6 4.7q-1.3-.4-2.6-.4-.8 0-1.2.5-.4.5-.4 1.7v.5h4.5zm15.7 0v5.4h-4.5v15.6h-7.3V68.6h-2.7V65l2.9-1.8V63q0-4.2 1.7-6 1.7-1.8 5.4-1.8 1.5 0 2.8.2 1.3.2 3 .8l-1.6 4.7q-1.3-.4-2.6-.4-.8 0-1.2.5-.4.5-.4 1.7v.5h4.5zM353.5 86.3v-3.5q-4-.2-7.8-1.8v-6.2q2.1 1.1 4.6 1.9 2.6.7 4.5.7 1.6 0 2.3-.4.7-.4.7-1.3 0-.6-.5-1t-1.8-1l-3.3-1.3q-2.4-.8-3.8-2-1.4-1-2.1-2.3-.7-1.4-.7-3.4 0-3 2-4.8 2-1.7 5.9-2.1v-2.6h3.8v2.5q3.7.2 7.5 1.9l-2.2 5.3q-3.9-1.8-7-1.8-1.5 0-2.1.4-.6.3-.6 1 0 .6.4 1l1.5 1 3 1q3.9 1.5 5.6 3.2 1.7 1.8 1.7 4.5 0 3.1-2 5-2 2-5.8 2.5v3.6h-3.8zm2-29.4zm23.2 9.4q2.4 0 4.3 1 1.8 1.2 2.9 3.2 1 2 1 4.5 0 4.6-2.7 7-2.7 2.4-8.3 2.4-4.7 0-7.7-1.4v-6q1.6.7 3.6 1.2t3.5.5q2 0 3.1-.9t1.1-2.5q0-1.6-1-2.5-1.2-.8-3.5-.8-1.7 0-3.7.6l-2.7-1.3 1-14.4h15.5v6.1H376l-.4 3.6 2.1-.3h1.1zm31 4.2q0 7.2-2.5 10.6-2.4 3.3-7.4 3.3-4.8 0-7.3-3.5T390 70.6q0-7.2 2.4-10.6 2.4-3.3 7.4-3.3 4.9 0 7.3 3.5 2.5 3.5 2.5 10.4zm-12.4 0q0 4.6.6 6.4.6 1.7 2 1.7 1.3 0 1.9-1.8.5-1.8.5-6.3t-.6-6.3q-.5-1.8-1.9-1.8-1.3 0-2 1.8-.5 1.7-.5 6.3z" fill="#DD0031"/><path d="M279 74v-5.7h11.7v14.6q-4.8 1.6-10.5 1.6-6.2 0-9.7-3.6-3.4-3.6-3.4-10.4 0-6.5 3.8-10.2 3.7-3.6 10.5-3.6 2.5 0 4.8.4 2.3.5 4 1.3l-2.4 5.7q-2.9-1.4-6.4-1.4-3.2 0-5 2-1.7 2.1-1.7 6 0 3.8 1.6 5.8t4.5 2q1.7 0 3-.3v-4.3H279zm27 10.5q-5.3 0-8.2-2.7-2.9-2.8-2.9-8 0-5.3 2.7-8.2 2.7-2.8 7.7-2.8 4.7 0 7.3 2.5 2.6 2.4 2.6 7v3.3h-13q.1 1.8 1.3 2.8 1.2 1 3.3 1 2 0 3.6-.4 1.6-.3 3.4-1.2V83q-1.7.9-3.5 1.2-1.8.3-4.3.3zm-.5-16.8q-1.2 0-2.1.8-.9.8-1 2.6h6.2q0-1.6-.8-2.5-.9-.9-2.3-.9zm24.1 11.1q1.5 0 3.5-.7v5.3q-1.5.6-2.8.9-1.3.2-3 .2-3.7 0-5.4-1.7-1.6-1.8-1.6-5.5v-8.7h-2.5v-3l3.2-2.2 1.9-4.5h4.7v4.3h5.2v5.4h-5.2v8.2q0 2 2 2z" fill="#FFF"/><linearGradient id="b" x1="0" y1=".5" x2=".7" y2="1.2" gradientTransform="matrix(29.48 0 0 24.488 265.2 19)" gradientUnits="userSpaceOnUse"><stop offset="24.8%" stop-color="#ff16b8"/><stop offset="97.2%" stop-color="#ff16b8"/></linearGradient><path d="M289.5 19h-5.1v12.5c0 4.4-4.3 8-9.6 8-5 0-9-3.2-9.6-7.2.6 6.3 7 11.3 14.8 11.3 8.1 0 14.7-5.5 14.7-12.3v-8a4 4 0 00-1.5-3c-1-.8-2.3-1.2-3.7-1.2z" fill-rule="evenodd" fill="url(#b)"/><linearGradient id="c" x1="0" y1=".5" x2=".6" y2="1.3" gradientTransform="matrix(19.198 0 0 20.356 265.2 19)" gradientUnits="userSpaceOnUse"><stop offset="0%" stop-color="#ff16b8"/><stop offset="100%" stop-opacity=".5" stop-color="#ff16b8"/></linearGradient><path d="M284.4 31.4V32h-.1v.4h-.1v.1l-.1.1v.1l-.1.2-.1.1-.1.2-.1.1-.1.2-.2.1-.1.1v.1h-.2v.1h-.1v.2h-.2l-.1.1-.2.1-.2.1-.1.1h-.1l-.1.1h-.2l-.1.1h-.1-.1l-.1.1h-.1-.1-.1l-.1.1h-.1-.2-.2l-.2.1h-.3a5 5 0 01-3.1-1 3.4 3.4 0 01-1.3-2.7v-8c0-2.3-2.4-4.2-5.2-4.2h-5.2V32.3c.5 4 4.6 7.1 9.6 7.1 5.3 0 9.6-3.5 9.6-8z" fill-rule="evenodd" fill="url(#c)"/><path d="M373.8 27.4q-1.8 0-2.8 1.2-1 1.1-1 3.2 0 2 1 3.2 1 1.2 2.8 1.2 1 0 2.5-.4v1q-1.1.5-2.7.5-2.4 0-3.7-1.5-1.3-1.4-1.3-4 0-1.7.6-3 .7-1.2 1.8-1.9 1.2-.6 2.8-.6 1.7 0 3 .6l-.6 1q-1.2-.5-2.4-.5zm11.6 5.7q0 2-1 3-1 1.2-2.7 1.2-1.1 0-2-.5-.8-.5-1.2-1.5-.5-1-.5-2.2 0-2 1-3 1-1.1 2.7-1.1 1.7 0 2.7 1 1 1.2 1 3.1zm-6.1 0q0 1.5.6 2.4.6.8 1.8.8 1.2 0 1.8-.8.6-.8.6-2.4 0-1.5-.6-2.3-.6-.8-1.8-.8-1.2 0-1.8.8-.6.8-.6 2.3zm8.1-4h1.3v5.2q0 1 .4 1.5.5.5 1.4.5 1.3 0 1.9-.7.5-.7.5-2.3v-4.2h1.3v8h-1l-.2-1-1.1.9q-.7.3-1.5.3-1.5 0-2.2-.7-.8-.7-.8-2.2V29zm13-.1h1l-.2 1.2-.9-.1q-1 0-1.7.8-.7.7-.7 2V37h-1.2v-8h1l.2 1.5q.5-.8 1.1-1.2.6-.4 1.4-.4zm7.6 6q0 1-.8 1.7-.8.6-2.3.6-1.6 0-2.5-.5v-1.2l1.2.5 1.3.2q1 0 1.5-.3t.5-1q0-.4-.4-.8l-1.6-.7-1.6-.8q-.5-.3-.7-.7-.3-.4-.3-1 0-1 .8-1.5t2.2-.5q1.3 0 2.6.5l-.5 1q-1.2-.5-2.2-.5-.8 0-1.3.2-.4.3-.4.8 0 .3.2.5.1.3.5.5l1.4.6q1.4.5 2 1 .4.5.4 1.3zm5.4 2.3q-1.8 0-2.8-1.1-1-1-1-3t1-3.1q.9-1.1 2.5-1.1 1.5 0 2.4 1 .9 1 .9 2.6v.7h-5.6q0 1.5.7 2.2.7.7 2 .7 1.2 0 2.5-.5v1l-1.2.5h-1.4zm-.3-7.3q-1 0-1.6.6-.5.6-.6 1.7h4.2q0-1.1-.6-1.7-.5-.6-1.4-.6zm10.5 5q0 1-.8 1.7-.9.6-2.4.6-1.6 0-2.5-.5v-1.2l1.3.5q.6.2 1.3.2 1 0 1.4-.3.5-.3.5-1 0-.4-.4-.8-.4-.3-1.6-.7l-1.6-.8-.7-.7q-.2-.4-.2-1 0-1 .8-1.5t2.2-.5q1.3 0 2.5.5l-.4 1q-1.2-.5-2.2-.5-.8 0-1.3.2-.4.3-.4.8l.1.5q.2.3.6.5l1.4.6q1.4.5 1.9 1t.5 1.3zm3.4-7.8v4.5h-.9v-4.5h-1.5v-.8h4v.8H427zm5.2 4.5h-.8l-1.5-4v4h-.9v-5.3h1.4l1.4 4.1 1.5-4h1.3v5.2h-.9v-4l-1.5 4zm-119.9-5.3h1.3v7q0 1.8-1.1 2.8-1.1 1-3 1-2 0-3-1-1.1-1-1.1-2.9v-6.9h1.2v7q0 1.4.7 2 .8.8 2.2.8 1.4 0 2-.7.8-.8.8-2.1v-7zm5.1-.7v11.4h-1.2V25.7h1.2zm5.2 10.6h.6l.5-.2v1l-.6.1h-.7q-2.3 0-2.3-2.4V30h-1.2v-.5l1.2-.5.5-1.8h.7v1.9h2.3v1h-2.3v4.7q0 .7.4 1 .3.5.9.5zm4-7.2v8h-1.3v-8h1.2zm-1.4-2.2q0-.4.2-.6.2-.2.5-.2t.5.2q.2.2.2.6 0 .4-.2.6-.2.2-.5.2t-.5-.2q-.2-.2-.2-.6zm15.3 10.2h-1.2V32q0-1-.4-1.4-.4-.5-1.3-.5-1 0-1.6.6-.6.7-.6 2v4.5h-1.2V32q0-1-.4-1.4-.4-.5-1.3-.5-1.1 0-1.7.7-.5.7-.5 2.2v4.2h-1.2v-8h1l.2 1.1q.4-.6 1-1 .6-.2 1.4-.2 1.9 0 2.5 1.3.4-.6 1-1 .8-.3 1.6-.3 1.4 0 2 .7.7.7.7 2.2V37zm8.4 0h-1l-.2-1.1q-.6.7-1.2 1-.6.3-1.5.3-1.2 0-1.9-.6-.6-.7-.6-1.8 0-2.4 3.8-2.5h1.4v-.6q0-1-.4-1.4-.4-.4-1.3-.4-1 0-2.3.6l-.3-1q.5-.3 1.3-.4l1.4-.2q1.4 0 2.1.6.7.6.7 2v5.5zm-3.7-.8q1.2 0 1.8-.6.7-.7.7-1.8v-.7h-1.2q-1.5 0-2.1.5-.7.4-.7 1.2 0 .7.4 1 .4.4 1.1.4zm8.8 0h.6l.5-.2v1l-.6.1h-.7q-2.3 0-2.3-2.4V30h-1.2v-.5l1.2-.5.5-1.8h.7v1.9h2.3v1h-2.3v4.7q0 .7.3 1 .4.5 1 .5zm6 1q-1.7 0-2.7-1.1-1-1-1-3t.9-3.1q1-1.1 2.6-1.1 1.5 0 2.4 1 .8 1 .8 2.6v.7h-5.5q0 1.5.7 2.2.7.7 2 .7 1.2 0 2.5-.5v1l-1.2.5H360zm-.2-7.3q-1 0-1.6.6-.6.6-.7 1.7h4.2q0-1.1-.5-1.7-.5-.6-1.4-.6zM276.8 198.5v7.1h-3v-6.4q0-1.1-.4-1.7-.4-.6-1.3-.6-1.3 0-1.8.8-.6.8-.6 2.8v5.1h-3v-11h2.3l.4 1.5h.2q.5-.8 1.4-1.2.8-.4 2-.4 1.9 0 2.8 1 1 1 1 3zm5.5 1.6q0 1.7.5 2.5t1.7.8q1.2 0 1.7-.8.6-.8.6-2.5 0-1.6-.6-2.4-.5-.8-1.7-.8t-1.7.8q-.5.8-.5 2.4zm7.5 0q0 2.7-1.4 4.2t-4 1.5q-1.5 0-2.7-.7-1.2-.7-1.8-2-.7-1.2-.7-3 0-2.6 1.4-4.1 1.4-1.5 4-1.5 1.5 0 2.7.7 1.2.7 1.9 2 .6 1.2.6 3zm14.7 5.5h-3.3l-.8-3.8-1.1-4.8h-.1l-2 8.6H294l-3.1-11h3l1.2 5 .6 3.5h.1l.3-2.3.2-.9 1.4-5.2h3.2l1.3 5.2.1.7.2.9.1.9.1.7.4-2 .3-1.6 1.3-4.8h3l-3.2 11zm7.9-14.3l-.5 9.6h-2.4l-.5-9.6h3.4zm-3.4 13q0-.9.4-1.3.5-.4 1.3-.4t1.2.4q.5.4.5 1.2 0 .8-.5 1.2-.4.5-1.2.5-.8 0-1.3-.5-.4-.4-.4-1.2zm296-25.7q-5.2 0-5.2-5.6 0-2.8 1.4-4.3 1.4-1.4 4-1.4 1.9 0 3.4.7l-.9 2.3-1.3-.5-1.2-.1q-2.3 0-2.3 3.3 0 3.2 2.3 3.2.9 0 1.6-.3.7-.2 1.5-.7v2.6l-1.5.6q-.7.2-1.9.2zm15.9-7.3v7h-3V172q0-2.4-1.8-2.4-1.2 0-1.8.9-.5.8-.5 2.7v5.2h-3v-15.2h3v3l-.1 1.8v.9q1-1.6 3.2-1.6 2 0 3 1t1 3zm7.6-2q-1 0-1.5.7-.6.6-.6 1.7h4.1q0-1.1-.5-1.7-.6-.6-1.5-.6zm.4 9.3q-2.7 0-4.1-1.5-1.5-1.4-1.5-4.1 0-2.7 1.3-4.2 1.4-1.5 3.8-1.5 2.3 0 3.6 1.3 1.3 1.3 1.3 3.6v1.5h-7q0 1.2.7 2 .7.7 2 .7 1 0 1.9-.3l1.8-.6v2.3q-.8.4-1.7.6-.8.2-2.1.2zm11.3 0q-5.1 0-5.1-5.6 0-2.8 1.4-4.3 1.4-1.4 4-1.4 1.8 0 3.3.7l-.8 2.3-1.3-.5-1.3-.1q-2.3 0-2.3 3.3 0 3.2 2.3 3.2.9 0 1.6-.3.8-.2 1.5-.7v2.6q-.7.4-1.5.6-.7.2-1.8.2zm8.7-6.2l1.3-1.6 3-3.3h3.4l-4.3 4.7 4.6 6.2h-3.5l-3.1-4.4-1.3 1v3.4h-3v-15.2h3v6.8l-.1 2.4zm12 .5q0 1.6.4 2.4.6.9 1.8.9 1.2 0 1.7-.8.5-.9.5-2.5t-.5-2.4q-.5-.8-1.7-.8t-1.8.8q-.5.8-.5 2.4zm7.5 0q0 2.7-1.5 4.2-1.4 1.5-3.9 1.5-1.5 0-2.7-.7-1.2-.7-1.9-2-.6-1.3-.6-3 0-2.7 1.4-4.2 1.4-1.4 3.9-1.4 1.6 0 2.8.6 1.2.7 1.8 2 .7 1.3.7 3zm12.4 5.5h-2.2l-.4-1.4h-.2q-.5.7-1.4 1.2-.8.4-2 .4-1.9 0-2.9-1t-1-3v-7.1h3v6.3q0 1.2.5 1.8.4.6 1.3.6 1.2 0 1.8-.8.6-.9.6-2.8v-5.1h3v10.9zm7.8-2.2q.7 0 1.8-.3v2.2q-1 .5-2.7.5-1.8 0-2.6-1-.8-.8-.8-2.6v-5.3h-1.4v-1.3l1.6-1 .9-2.3h1.9v2.4h3v2.2h-3v5.3q0 .6.3.9.4.3 1 .3zm-105 2.2h-2.1l-.6-1.5q-.8 1-1.6 1.3-.8.4-2.1.4-1.6 0-2.5-1-.9-.8-.9-2.5t1.2-2.5q1.3-.9 3.7-1h1.9v-.5q0-1.7-1.7-1.7-1.3 0-3 .8l-1-2q1.8-1 4.1-1 2.2 0 3.4 1 1.2 1 1.2 2.9v7.3zm-3-4.2v-.9h-1.2q-1.2.1-1.9.5-.6.5-.6 1.3 0 1.3 1.4 1.3 1 0 1.7-.6.6-.6.6-1.6zm10.6 2q.8 0 1.9-.3v2.2q-1.1.5-2.7.5-1.8 0-2.6-1-.9-.8-.9-2.6v-5.3h-1.4v-1.3l1.7-1 .8-2.3h2v2.4h3v2.2h-3v5.3q0 .6.3.9.3.3 1 .3z" fill="#FFF"/><path d="M452.6 178.4h-3.3l-1-3.4H443l-1 3.4h-3.3l5-14.4h3.7l5 14.4zm-8.8-6h3.8l-1.7-5.2-.2-1-1.9 6.2zm23.2-8.3v14.3h-3.8l-6.2-10.8h-.1l.2 4v6.8h-2.7V164h3.8l6.2 10.7V164h2.6zm9 8.8v-2.5h5.7v7.4l-2.6.6q-1.2.2-2.5.2-3.2 0-4.9-2-1.7-1.8-1.7-5.4 0-3.4 2-5.4 2-2 5.5-2 2.2 0 4.2 1l-1 2.4q-1.6-.8-3.3-.8-2 0-3.1 1.3-1.2 1.4-1.2 3.6 0 2.3 1 3.5 1 1.3 2.7 1.3l2-.2v-3H476zm17.7-8.8h3v9.2q0 1.6-.7 2.8-.7 1.2-2 1.8-1.4.7-3.2.7-2.7 0-4.3-1.4-1.5-1.4-1.5-3.9v-9.2h3v8.7q0 1.7.7 2.5.7.7 2.2.7 1.5 0 2.1-.7.7-.8.7-2.5v-8.7zm15.3 14.3h-8.8V164h3v11.8h5.8v2.5zm14.5 0h-3.2l-1-3.4H514l-1 3.4h-3.3l5-14.4h3.8l5 14.4zm-8.7-6h3.7l-1.6-5.2-.3-1-1.8 6.2zm13.6-5.8v3.8h1q1.4 0 2-.4.7-.5.7-1.5t-.7-1.5q-.7-.4-2.1-.4h-1zm1.6 6.3h-1.6v5.5h-3V164h4q3 0 4.4 1 1.4 1.1 1.4 3.3 0 1.2-.7 2.2-.7 1-2 1.6l4.2 6.2h-3.3l-3.4-5.5zm15 7.3v1.3h-8.3v-1.3h8.3zm6-11q2 0 3.2 1.2 1.3 1.2 1.3 3.2 0 2.4-1.5 3.7-1.5 1.3-4.2 1.3-2.4 0-3.9-.8v-2.6l1.8.7 2 .2q2.7 0 2.7-2.2t-2.8-2.2l-1.2.1-1 .2-1.2-.6.6-7.3h7.7v2.6h-5.1l-.3 2.8.4-.1 1.5-.1zm16 2q0 3.8-1.1 5.6-1.3 1.8-3.8 1.8t-3.7-1.9q-1.3-1.8-1.3-5.5t1.2-5.5q1.2-1.8 3.8-1.8 2.4 0 3.7 1.8 1.3 2 1.3 5.5zm-7 0q0 2.7.5 3.8.5 1.1 1.6 1.1 1 0 1.5-1.1.5-1.2.5-3.8 0-2.6-.5-3.7-.5-1.2-1.5-1.2t-1.5 1.2q-.5 1.1-.5 3.7z" fill="#DD0031"/><path d="M392.4 178.6q-5 0-5-5.6 0-2.8 1.3-4.3 1.4-1.4 4-1.4 1.9 0 3.4.7l-.9 2.3-1.3-.5-1.2-.1q-2.3 0-2.3 3.3 0 3.2 2.3 3.2.9 0 1.6-.3.7-.2 1.5-.7v2.6l-1.5.6q-.7.2-1.9.2zm8.3-5.7q0 1.6.5 2.4.5.9 1.7.9t1.7-.8q.6-.9.6-2.5t-.6-2.4q-.5-.8-1.7-.8t-1.7.8q-.5.8-.5 2.4zm7.5 0q0 2.7-1.4 4.2t-4 1.5q-1.5 0-2.7-.7-1.2-.7-1.8-2-.7-1.3-.7-3 0-2.7 1.4-4.2 1.4-1.4 4-1.4 1.5 0 2.7.6 1.2.7 1.9 2 .6 1.3.6 3zm6 5.7q-2 0-3-1.5-1.2-1.5-1.2-4.2 0-2.6 1.1-4.1 1.1-1.5 3.1-1.5t3.2 1.6l-.2-2.2v-3.5h3v15.2H418l-.5-1.4h-.2q-1 1.6-3 1.6zm1-2.4q1.1 0 1.6-.7.6-.6.6-2.2v-.3q0-1.8-.5-2.6-.6-.7-1.8-.7-1 0-1.5.8-.6.9-.6 2.5t.6 2.4q.5.8 1.6.8zm12.6-6.8q-.9 0-1.4.6-.6.6-.7 1.7h4.2q0-1.1-.5-1.7-.6-.6-1.6-.6zm.5 9.2q-2.7 0-4.2-1.5-1.4-1.4-1.4-4.1 0-2.7 1.3-4.2 1.4-1.5 3.8-1.5 2.3 0 3.6 1.3 1.3 1.3 1.3 3.6v1.5h-7q0 1.2.7 2 .7.7 2 .7 1 0 1.9-.3l1.8-.6v2.3q-.8.4-1.7.6-.9.2-2.1.2zm-115 0q-5.1 0-5.1-5.6 0-2.8 1.3-4.3 1.4-1.4 4-1.4 2 0 3.4.7l-.9 2.3-1.3-.5-1.2-.1q-2.3 0-2.3 3.3 0 3.2 2.3 3.2.9 0 1.6-.3.7-.2 1.5-.7v2.6l-1.5.6q-.7.2-1.9.2zm8.2-5.7q0 1.6.5 2.4.5.9 1.7.9t1.8-.8q.5-.9.5-2.5t-.6-2.4q-.5-.8-1.7-.8t-1.7.8q-.5.8-.5 2.4zm7.5 0q0 2.7-1.4 4.2t-3.9 1.5q-1.6 0-2.8-.7-1.2-.7-1.8-2-.7-1.3-.7-3 0-2.7 1.4-4.2 1.4-1.4 4-1.4 1.5 0 2.7.6 1.2.7 1.9 2 .6 1.3.6 3zm12.5 5.5h-2.3l-.4-1.4h-.1q-.5.7-1.4 1.2-.9.4-2 .4-2 0-2.9-1-1-1-1-3v-7.1h3v6.3q0 1.2.4 1.8.4.6 1.4.6 1.2 0 1.8-.8.5-.9.5-2.8v-5.1h3v10.9zm9.1.2q-1.9 0-3-1.4h-.2l.2 1.6v4.4h-3v-15.7h2.4l.5 1.4h.1q1-1.6 3.1-1.6 2 0 3 1.4 1.1 1.5 1.1 4.2 0 1.7-.5 3t-1.5 2q-.9.7-2.2.7zm-.9-9q-1 0-1.6.7-.5.7-.5 2.3v.3q0 1.7.5 2.5t1.7.8q2 0 2-3.3 0-1.7-.5-2.5t-1.6-.8zm10 3.3q0 1.6.5 2.4.5.9 1.7.9t1.7-.8q.6-.9.6-2.5t-.6-2.4q-.5-.8-1.7-.8t-1.7.8q-.5.8-.5 2.4zm7.5 0q0 2.7-1.4 4.2t-4 1.5q-1.5 0-2.7-.7-1.2-.7-1.8-2-.7-1.3-.7-3 0-2.7 1.4-4.2 1.4-1.4 4-1.4 1.5 0 2.7.6 1.2.7 1.9 2 .6 1.3.6 3zm12.5-1.6v7h-3V172q0-1.2-.4-1.8-.4-.6-1.3-.6-1.2 0-1.8.9-.6.8-.6 2.7v5.2h-3v-11h2.3l.4 1.5h.2q.5-.8 1.4-1.2.9-.4 2-.4 1.9 0 2.9 1t1 3zM275.6 164h3v9.2q0 1.6-.7 2.8-.7 1.2-2 1.8-1.4.7-3.2.7-2.8 0-4.3-1.4t-1.5-3.9v-9.2h3v8.7q0 1.7.7 2.5.6.7 2.2.7 1.4 0 2.1-.7.7-.8.7-2.5v-8.7zm13.9 11q0 1.7-1.2 2.6-1.2.9-3.5.9-1.2 0-2-.2l-1.6-.5v-2.4q.8.4 1.9.6 1 .3 1.8.3 1.6 0 1.6-1 0-.3-.2-.5l-.7-.5-1.4-.7q-1.3-.5-1.9-1-.6-.4-.8-1-.3-.5-.3-1.4 0-1.5 1.1-2.3 1.2-.7 3.2-.7t3.9.8l-1 2.2-1.5-.6-1.4-.2q-1.3 0-1.3.7 0 .4.4.7.4.3 1.8.8l2 1 .8 1q.3.6.3 1.4zm6.8-5.7q-1 0-1.5.6t-.6 1.7h4.2q0-1.1-.6-1.7-.5-.6-1.5-.6zm.4 9.2q-2.6 0-4-1.5-1.6-1.4-1.6-4.1 0-2.7 1.4-4.2t3.8-1.5q2.3 0 3.6 1.3 1.3 1.3 1.3 3.6v1.5h-7q0 1.2.7 2 .7.7 2 .7 1 0 1.8-.3 1-.2 1.9-.6v2.3q-.8.4-1.7.6-.9.2-2.2.2z" fill="#FFF"/></g><g><path d="M292.3 227H428a27.2 27.2 0 010 54.3H292.3a27.2 27.2 0 010-54.3z" fill="#DD0031"/><path d="M385.2 250q-1.7 0-2.6 1.2-1 1.3-1 3.6 0 4.8 3.6 4.8 1.5 0 3.7-.8v2.6q-1.8.7-4 .7-3 0-4.7-1.9-1.7-1.9-1.7-5.4 0-2.2.8-4 .8-1.6 2.4-2.5 1.5-.9 3.5-.9 2.1 0 4.2 1l-1 2.5-1.6-.7q-.8-.3-1.6-.3zm8.8 6.4q0 1.6.6 2.5.5.8 1.7.8t1.7-.8q.5-.8.5-2.5 0-1.6-.5-2.4-.5-.8-1.7-.8t-1.7.8q-.6.8-.6 2.4zm7.6 0q0 2.7-1.4 4.2t-4 1.5q-1.5 0-2.7-.7-1.2-.7-1.9-2-.6-1.3-.6-3 0-2.6 1.4-4.1 1.4-1.5 4-1.5 1.5 0 2.7.7 1.2.6 1.8 2 .7 1.2.7 3zm6 5.7q-2 0-3.1-1.5t-1.1-4.1q0-2.7 1.1-4.2t3-1.5q2.1 0 3.2 1.6h.1l-.2-2.2v-3.5h3V262h-2.3l-.6-1.4q-1.1 1.6-3.2 1.6zm1-2.4q1.1 0 1.6-.6.6-.7.6-2.3v-.3q0-1.8-.5-2.5-.6-.8-1.8-.8-1 0-1.5.8-.6.9-.6 2.5t.6 2.4q.5.8 1.6.8zm12.6-6.8q-1 0-1.5.6t-.6 1.7h4.2q0-1.1-.6-1.7-.5-.6-1.5-.6zm.4 9.2q-2.6 0-4-1.5-1.6-1.4-1.6-4 0-2.8 1.4-4.3t3.8-1.5q2.3 0 3.6 1.3 1.3 1.3 1.3 3.6v1.5h-7q0 1.3.7 2t2 .7q1 0 1.9-.2.8-.2 1.8-.7v2.3q-.8.4-1.7.6-.9.2-2.2.2zm-125.6-12v3.9h1q1.5 0 2.1-.5.7-.5.7-1.5t-.7-1.5q-.7-.4-2.1-.4h-1zm1.7 6.3H296v5.5h-3v-14.3h4.2q2.9 0 4.3 1 1.4 1.1 1.4 3.3 0 1.3-.7 2.2-.7 1-2 1.6l4.2 6.2h-3.3l-3.4-5.5zm12.8-3.5q-1 0-1.5.6t-.6 1.7h4.2q0-1.1-.6-1.7-.5-.6-1.5-.6zm.4 9.2q-2.6 0-4-1.5-1.6-1.4-1.6-4 0-2.8 1.4-4.3t3.8-1.5q2.3 0 3.6 1.3 1.3 1.3 1.3 3.6v1.5h-7q0 1.3.7 2t2 .7q1 0 1.8-.2 1-.2 1.9-.7v2.3q-.8.4-1.7.6-.9.2-2.2.2zm10.4 0q-2 0-3-1.5-1.2-1.5-1.2-4.1 0-2.7 1.2-4.2 1-1.5 3-1.5 2.1 0 3.2 1.6l-.1-2.2v-3.5h3V262H325l-.6-1.4h-.1q-1 1.6-3.1 1.6zm1-2.4q1.1 0 1.7-.6.5-.7.6-2.3v-.3q0-1.8-.6-2.5-.5-.8-1.7-.8-1 0-1.6.8-.5.9-.5 2.5t.5 2.4q.6.8 1.6.8zM335 253q-1 0-1.5.6t-.6 1.7h4.2q0-1.1-.6-1.7-.6-.6-1.5-.6zm.4 9.2q-2.6 0-4.1-1.5-1.5-1.4-1.5-4 0-2.8 1.4-4.3 1.3-1.5 3.8-1.5 2.3 0 3.6 1.3 1.3 1.3 1.3 3.6v1.5h-7q0 1.3.7 2t2 .7q1 0 1.8-.2.9-.2 1.8-.7v2.3q-.7.4-1.6.6-1 .2-2.2.2zm11.4-9.2q-1 0-1.5.6t-.6 1.7h4.2q0-1.1-.6-1.7-.6-.6-1.5-.6zm.4 9.2q-2.6 0-4.1-1.5-1.5-1.4-1.5-4 0-2.8 1.4-4.3t3.8-1.5q2.3 0 3.6 1.3 1.3 1.3 1.3 3.6v1.5h-7q0 1.3.7 2t2 .7q1 0 1.8-.2.9-.2 1.9-.7v2.3q-.8.4-1.7.6-.9.2-2.2.2zm16.7-5.7v5.5h-3v-6.4q0-1.2-.4-1.7-.4-.6-1.3-.6-1 0-1.6.8-.5.8-.5 2.8v5.1h-3v-11h2.3l.4 1.5h.1q.5-.8 1.3-1.2.8-.4 2-.4 2.4 0 3.2 1.6h.3q.4-.8 1.3-1.2.8-.4 2-.4 1.8 0 2.7 1 1 .9 1 3v7.1h-3v-6.4q0-1.2-.4-1.7-.4-.6-1.3-.6-1 0-1.6.7-.5.8-.5 2.5z" fill="#FFF"/></g></g></svg>