<?xml version="1.0" standalone="no"?><!-- Generator: Gravit.io --><svg xmlns="http://www.w3.org/2000/svg" xmlns:xlink="http://www.w3.org/1999/xlink" style="isolation:isolate" viewBox="0 0 1920 300" width="1920" height="300"><defs><clipPath id="_clipPath_QwIKBG0S7u6OfUXFuTfH2RriHy3YIxRF"><rect width="1920" height="300"/></clipPath></defs><g clip-path="url(#_clipPath_QwIKBG0S7u6OfUXFuTfH2RriHy3YIxRF)"><g><g><path d=" M 997.115 958.333 L 997.115 976.731 L 1254.69 976.731 L 1254.69 939.934 L 997.115 939.934 L 997.115 958.333 Z " fill="rgb(101,99,106)"/><path d=" M 1040.044 1093.253 L 1015.513 976.731 L 1213.294 976.731 L 1236.292 976.731 L 1230.159 1093.253 L 1346.681 1289.501 L 1346.681 1326.298 L 935.787 1326.298 L 935.787 1289.501 L 1040.044 1093.253 Z " fill="rgb(156,152,168)"/></g><path d=" M 1358.947 946.067 L 1358.947 762.085 L 1254.69 590.368 L 1193.363 584.235 L 1193.363 762.085 L 1174.964 946.067 L 1358.947 946.067 Z " fill="rgb(156,152,168)"/><path d=" M 917.32 506.733 C 947.566 481.207 1024.623 522.69 1089.29 599.312 C 1153.957 675.934 1181.904 758.865 1151.658 784.392 C 1121.413 809.918 1044.355 768.435 979.688 691.813 C 915.021 615.191 887.075 532.26 917.32 506.733 Z " fill="rgb(156,152,168)"/><path d=" M 905.123 970.598 L 1174.964 946.067 L 1193.363 762.085 L 1193.363 516.775 L 1174.964 516.775 L 1113.637 768.217 L 1009.38 768.217 L 1009.38 529.04 L 966.451 529.04 L 929.654 768.217 L 905.123 970.598 Z " fill="rgb(223,223,234)"/><path d=" M 1061.44 390.211 C 1091.686 364.684 1168.743 406.167 1233.41 482.789 C 1298.077 559.411 1326.023 642.343 1295.778 667.869 C 1265.532 693.396 1188.475 651.913 1123.808 575.291 C 1059.141 498.669 1031.195 415.738 1061.44 390.211 Z " fill="rgb(223,223,234)"/><path d=" M 1346.681 780.483 L 1487.735 780.483 L 1487.735 798.881 L 1352.814 798.881 L 1346.681 798.881 L 1346.681 780.483 Z " fill="rgb(101,99,106)"/><path d=" M 1358.947 927.669 L 1475.469 798.881 L 1487.735 798.881 L 1358.947 946.067 L 1358.947 927.669 Z " fill="rgb(101,99,106)"/><g><path d=" M 279.744 589.897 C 181.957 443.216 1371.71 -354.041 1469.498 -207.36 C 1567.285 -60.679 1426.52 303.772 1096.506 523.781 C 766.492 743.79 377.532 736.578 279.744 589.897 Z " fill="none" vector-effect="non-scaling-stroke" stroke-width="3" stroke="rgb(255,255,255)" stroke-linejoin="miter" stroke-linecap="square" stroke-miterlimit="3"/><path d=" M 287.916 593.855 C 210.847 478.252 416.207 205.778 746.221 -14.231 C 1076.234 -234.24 1406.733 -319.005 1483.802 -203.403 C 1560.87 -87.8 1355.51 184.674 1025.497 404.683 C 695.483 624.692 364.984 709.457 287.916 593.855 Z " fill="none" vector-effect="non-scaling-stroke" stroke-width="3" stroke="rgb(255,255,255)" stroke-linejoin="miter" stroke-linecap="square" stroke-miterlimit="3"/><path d=" M 481.964 535.173 L 512.627 529.04 L 555.557 -127.164 L 541.911 -176.226 L 481.964 535.173 Z " fill="none" vector-effect="non-scaling-stroke" stroke-width="3" stroke="rgb(255,255,255)" stroke-linejoin="miter" stroke-linecap="square" stroke-miterlimit="3"/><path d=" M 1365.08 7.757 L 1377.345 -16.774 L 715.008 -262.084 L 745.672 -219.155 L 1365.08 7.757 Z " fill="none" vector-effect="non-scaling-stroke" stroke-width="3" stroke="rgb(255,255,255)" stroke-linejoin="miter" stroke-linecap="square" stroke-miterlimit="3"/><path d=" M 905.123 124.279 L 929.654 112.013 L 678.212 -176.226 L 665.946 -170.093 L 905.123 124.279 Z " fill="none" vector-effect="non-scaling-stroke" stroke-width="3" stroke="rgb(255,255,255)" stroke-linejoin="miter" stroke-linecap="square" stroke-miterlimit="3"/><path d=" M 541.911 -176.226 L 555.557 -127.164 L 653.681 -133.297 L 629.15 -188.491 L 541.911 -176.226 Z " fill="rgb(168,164,164)"/><path d=" M 653.681 -133.297 L 745.672 -219.155 L 715.008 -262.084 L 629.15 -188.491 L 653.681 -133.297 Z " fill="rgb(255,255,255)"/><path d=" M 629.15 -255.952 L 541.911 -176.226 L 629.15 -188.491 L 715.008 -262.084 L 629.15 -255.952 Z " fill="rgb(255,255,255)"/><path d=" M 935.787 437.049 L 954.185 424.783 L 647.548 -176.226 L 629.15 -188.491 L 629.15 -170.093 L 935.787 437.049 Z " fill="none" vector-effect="non-scaling-stroke" stroke-width="3" stroke="rgb(255,255,255)" stroke-linejoin="miter" stroke-linecap="square" stroke-miterlimit="3"/></g></g><g><circle vector-effect="non-scaling-stroke" cx="956.7483057774784" cy="301.2516942225217" r="301.2516942225216" fill="rgb(26,8,57)" stroke-width="1" stroke="rgb(0,0,0)" stroke-linejoin="miter" stroke-linecap="square" stroke-miterlimit="3"/><circle vector-effect="non-scaling-stroke" cx="956.7483057774784" cy="301.7483057774785" r="235.25169422252134" fill="rgb(33,13,68)"/><circle vector-effect="non-scaling-stroke" cx="956.7483057774784" cy="301.25169422252117" r="176.25169422252105" fill="rgb(34,4,68)"/></g><g><g><path d=" M 947 240 L 947 243 L 989 243 L 989 237 L 947 237 L 947 240 Z " fill="rgb(101,99,106)"/><path d=" M 954 262 L 950 243 L 982.25 243 L 986 243 L 985 262 L 1004 294 L 1004 300 L 937 300 L 937 294 L 954 262 Z " fill="rgb(156,152,168)"/></g><path d=" M 1006 238 L 1006 208 L 989 180 L 979 179 L 979 208 L 976 238 L 1006 238 Z " fill="rgb(156,152,168)"/><path d=" M 933.989 166.363 C 938.921 162.2 951.486 168.964 962.03 181.458 C 972.575 193.952 977.132 207.475 972.2 211.637 C 967.268 215.8 954.703 209.036 944.158 196.542 C 933.614 184.048 929.057 170.525 933.989 166.363 Z " fill="rgb(156,152,168)"/><path d=" M 932 242 L 976 238 L 979 208 L 979 168 L 976 168 L 966 209 L 949 209 L 949 170 L 942 170 L 936 209 L 932 242 Z " fill="rgb(223,223,234)"/><path d=" M 957.489 147.363 C 962.421 143.2 974.986 149.964 985.53 162.458 C 996.075 174.952 1000.632 188.475 995.7 192.637 C 990.768 196.8 978.203 190.036 967.658 177.542 C 957.114 165.048 952.557 151.525 957.489 147.363 Z " fill="rgb(223,223,234)"/><path d=" M 1004 211 L 1027 211 L 1027 214 L 1005 214 L 1004 214 L 1004 211 Z " fill="rgb(101,99,106)"/><path d=" M 1006 235 L 1025 214 L 1027 214 L 1006 238 L 1006 235 Z " fill="rgb(101,99,106)"/><g><path d=" M 830.026 179.923 C 814.081 156.006 1008.081 26.006 1024.026 49.923 C 1039.971 73.841 1017.018 133.268 963.207 169.142 C 909.395 205.017 845.971 203.841 830.026 179.923 Z " fill="rgb(156,152,168)"/><path d=" M 831.359 180.569 C 818.792 161.719 852.278 117.289 906.09 81.415 C 959.901 45.54 1013.792 31.719 1026.359 50.569 C 1038.925 69.419 1005.44 113.848 951.628 149.722 C 897.816 185.597 843.925 199.419 831.359 180.569 Z " fill="rgb(223,223,234)"/><path d=" M 863 171 L 868 170 L 875 63 L 872.775 55 L 863 171 Z " fill="rgb(156,152,168)"/><path d=" M 1007 85 L 1009 81 L 901 41 L 906 48 L 1007 85 Z " fill="rgb(156,152,168)"/><path d=" M 932 104 L 936 102 L 895 55 L 893 56 L 932 104 Z " fill="rgb(156,152,168)"/><path d=" M 872.775 55 L 875 63 L 891 62 L 887 53 L 872.775 55 Z " fill="rgb(168,164,164)"/><path d=" M 891 62 L 906 48 L 901 41 L 887 53 L 891 62 Z " fill="rgb(255,255,255)"/><path d=" M 887 42 L 872.775 55 L 887 53 L 901 41 L 887 42 Z " fill="rgb(255,255,255)"/><path d=" M 937 155 L 940 153 L 890 55 L 887 53 L 887 56 L 937 155 Z " fill="rgb(156,152,168)"/></g></g></g></svg>