<?xml version="1.0" standalone="no"?><!-- Generator: Gravit.io --><svg xmlns="http://www.w3.org/2000/svg" xmlns:xlink="http://www.w3.org/1999/xlink" style="isolation:isolate" viewBox="0 0 1920 300" width="1920" height="300"><defs><clipPath id="_clipPath_EywMS9yRfoOJ0hLs8vC9Qwk3K8rQaACy"><rect width="1920" height="300"/></clipPath></defs><g clip-path="url(#_clipPath_EywMS9yRfoOJ0hLs8vC9Qwk3K8rQaACy)"><g><g><rect x="640.376" y="-428.429" width="52.679" height="289.735" transform="matrix(-0.215,-0.977,0.977,-0.215,1087.137,306.492)" fill="rgb(235,235,235)"/><rect x="838.96" y="-312.885" width="52.679" height="426.975" transform="matrix(0.971,-0.24,0.24,0.971,49.144,204.764)" fill="rgb(235,235,235)"/><rect x="827.562" y="34.872" width="126.693" height="57.069" transform="matrix(1,0,0,1,0,0)" fill="rgb(71,82,104)"/><circle vector-effect="non-scaling-stroke" cx="805.6125777733491" cy="-318.51614514935534" r="21.94958740077675" fill="rgb(51,58,72)"/><path d=" M 763.908 -318.516 C 763.908 -329.579 768.298 -340.202 776.112 -348.016 C 783.926 -355.83 794.55 -360.22 805.613 -360.22 C 816.675 -360.22 827.299 -355.83 835.113 -348.016 C 842.927 -340.202 847.317 -329.579 847.317 -318.516 C 847.317 -307.454 842.927 -296.83 835.113 -289.016 C 827.299 -281.202 816.675 -276.812 805.613 -276.812 C 794.55 -276.812 783.926 -281.202 776.112 -289.016 C 768.298 -296.83 763.908 -307.454 763.908 -318.516 Z  M 785.858 -318.516 C 785.858 -323.74 787.921 -328.789 791.653 -332.476 C 795.34 -336.208 800.389 -338.271 805.613 -338.271 C 810.837 -338.271 815.885 -336.208 819.572 -332.476 C 823.304 -328.789 825.367 -323.74 825.367 -318.516 C 825.367 -313.292 823.304 -308.244 819.572 -304.556 C 815.885 -300.825 810.837 -298.762 805.613 -298.762 C 800.389 -298.762 795.34 -300.825 791.653 -304.556 C 787.921 -308.244 785.858 -313.292 785.858 -318.516 Z " fill-rule="evenodd" fill="rgb(71,82,104)"/></g><path d=" M 519.653 -265.76 C 707.96 -306.401 809.233 -423.472 853.287 -342.661 C 898.009 -260.624 716.377 -198.146 809.388 -156.705 C 902.399 -115.264 1022.848 -143.47 949.865 -57.316 Q 876.883 28.838 866.457 91.941" fill="none" vector-effect="non-scaling-stroke" stroke-width="3" stroke="rgb(62,70,85)" stroke-linejoin="miter" stroke-linecap="butt" stroke-miterlimit="3"/><g><path d=" M 506.726 -272.504 L 431.551 -287.556 L 343.196 -218.856 L 439.973 -248.955 L 514.211 -238.192 Q 507.74 -276.868 506.726 -272.504 Z " fill="rgb(71,82,104)"/><path d=" M 517.954 -221.036 L 455.879 -176.041 L 346.939 -201.7 L 447.458 -214.643 L 510.469 -255.348 Q 520.693 -217.491 517.954 -221.036 Z " fill="rgb(51,58,72)"/><rect x="484.174" y="-251.718" width="65.849" height="7.82" transform="matrix(-0.213,-0.977,0.977,-0.213,869.429,204.588)" fill="rgb(71,82,104)"/><rect x="484.131" y="-253.384" width="81.213" height="7.82" transform="matrix(-0.213,-0.977,0.977,-0.213,880.325,210.031)" fill="rgb(51,58,72)"/></g><g><path d="M 645.205 -102.247 L 670.667 -102.247 C 698.772 -102.247 721.59 -79.429 721.59 -51.324 L 721.59 63.209 C 721.59 91.314 698.772 114.132 670.667 114.132 L 645.205 114.132 C 617.1 114.132 594.282 91.314 594.282 63.209 L 594.282 -51.324 C 594.282 -79.429 617.1 -102.247 645.205 -102.247 Z" style="fill:none;stroke:#FFFFFF;stroke-width:3;stroke-linecap:square;stroke-miterlimit:2;"/><path d=" M 414.295 65.602 L 954.255 65.602 L 954.255 241.198 L 471.364 241.198 L 414.295 188.519 L 414.295 65.602 Z " fill="none" vector-effect="non-scaling-stroke" stroke-width="3" stroke="rgb(255,255,255)" stroke-linejoin="miter" stroke-linecap="square" stroke-miterlimit="3"/><clipPath id="_clipPath_36wVWVVcKlYu04TI5VQBsmDKmdYJJ2Nl"><path d=" M 414.295 65.602 L 954.255 65.602 L 954.255 241.198 L 471.364 241.198 L 414.295 188.519 L 414.295 65.602 Z " fill="none" vector-effect="non-scaling-stroke" stroke-width="3" stroke="rgb(255,255,255)" stroke-linejoin="miter" stroke-linecap="square" stroke-miterlimit="3"/></clipPath><g clip-path="url(#_clipPath_36wVWVVcKlYu04TI5VQBsmDKmdYJJ2Nl)"><rect x="414.295" y="188.036" width="539.96" height="65.322" transform="matrix(1,0,0,1,0,0)" fill="none" vector-effect="non-scaling-stroke" stroke-width="3" stroke="rgb(255,255,255)" stroke-linejoin="miter" stroke-linecap="square" stroke-miterlimit="2"/></g><path d=" M 414.295 65.602 L 954.255 65.602 L 954.255 241.198 L 471.364 241.198 L 414.295 188.519 L 414.295 65.602 Z " fill="transparent" vector-effect="non-scaling-stroke" stroke-width="3" stroke="rgb(255,255,255)" stroke-linejoin="miter" stroke-linecap="square" stroke-miterlimit="3"/><path d=" M 449.459 303.93 L 439.406 308.364 L 430.538 288.258 L 440.591 283.824 L 701.703 168.765 L 870.847 168.765 L 881.822 168.765 L 881.822 190.714 L 870.847 190.714 L 706.357 190.714 L 449.459 303.93 Z " fill="none" vector-effect="non-scaling-stroke" stroke-width="3" stroke="rgb(255,255,255)" stroke-linejoin="miter" stroke-linecap="square" stroke-miterlimit="3"/><path d=" M 701.22 188.036 L 715.619 171.443 L 790.994 236.765 L 847.317 285.58 L 832.918 302.174 L 776.595 253.358 L 701.22 188.036 Z " fill="rgb(71,82,104)"/><circle vector-effect="non-scaling-stroke" cx="708.4198047627106" cy="179.73948884827652" r="21.94958740077675" fill="rgb(51,58,72)"/><path d=" M 666.716 179.739 C 666.716 168.677 671.106 158.053 678.92 150.239 C 686.734 142.425 697.357 138.035 708.42 138.035 C 719.482 138.035 730.106 142.425 737.92 150.239 C 745.734 158.053 750.124 168.677 750.124 179.739 C 750.124 190.802 745.734 201.426 737.92 209.24 C 730.106 217.054 719.482 221.444 708.42 221.444 C 697.357 221.444 686.734 217.054 678.92 209.24 C 671.106 201.426 666.716 190.802 666.716 179.739 Z  M 688.665 179.739 C 688.665 174.515 690.728 169.467 694.46 165.78 C 698.147 162.048 703.196 159.985 708.42 159.985 C 713.644 159.985 718.692 162.048 722.38 165.78 C 726.111 169.467 728.174 174.515 728.174 179.739 C 728.174 184.964 726.111 190.012 722.38 193.699 C 718.692 197.431 713.644 199.494 708.42 199.494 C 703.196 199.494 698.147 197.431 694.46 193.699 C 690.728 190.012 688.665 184.964 688.665 179.739 Z " fill-rule="evenodd" fill="none" vector-effect="non-scaling-stroke" stroke-width="3" stroke="rgb(255,255,255)" stroke-linejoin="miter" stroke-linecap="square" stroke-miterlimit="3"/><path d=" M 954.255 206.079 L 840.117 206.079 C 825.58 206.079 813.778 194.277 813.778 179.739 L 813.778 179.739 C 813.778 165.202 825.58 153.4 840.117 153.4 L 954.255 153.4 L 954.255 206.079 L 954.255 206.079 Z " fill="rgb(154,104,242)"/><g><circle vector-effect="non-scaling-stroke" cx="445.0247559533906" cy="277.11584022626863" r="13.169752440466084" fill="none" stroke-width="3" stroke="rgb(255,255,255)" stroke-linejoin="miter" stroke-linecap="square" stroke-miterlimit="3"/><path d=" M 497.911 390.813 L 466.37 421.234 L 497.77 451.8 L 455.655 439.695 L 444.884 482.171 L 434.31 439.646 L 392.139 451.557 L 423.679 421.136 L 392.279 390.57 L 434.395 402.675 L 445.165 360.198 L 455.74 402.724 L 497.911 390.813 Z " fill="rgb(71,82,104)"/><rect x="438.44" y="320.217" width="13.17" height="100.968" transform="matrix(1,0,0,1,0,0)" fill="rgb(71,82,104)"/><polygon points="456,402.176,466.974,421.185,456,440.194,434.05,440.194,423.075,421.185,434.05,402.176" fill="rgb(235,235,235)"/><path d=" M 361.616 421.185 C 361.616 375.151 398.99 337.777 445.025 337.777 C 491.059 337.777 528.433 375.151 528.433 421.185 C 528.433 467.219 491.059 504.593 445.025 504.593 C 398.99 504.593 361.616 467.219 361.616 421.185 Z  M 387.956 421.185 C 387.956 406.04 393.97 391.509 404.681 380.842 C 415.349 370.13 429.879 364.116 445.025 364.116 C 460.17 364.116 474.701 370.13 485.368 380.842 C 496.08 391.509 502.094 406.04 502.094 421.185 C 502.094 436.33 496.08 450.861 485.368 461.528 C 474.701 472.24 460.17 478.254 445.025 478.254 C 429.879 478.254 415.349 472.24 404.681 461.528 C 393.97 450.861 387.956 436.33 387.956 421.185 Z " fill-rule="evenodd" fill="rgb(45,41,57)"/><polygon points="448.317,415.482,451.61,421.185,448.317,426.888,441.732,426.888,438.44,421.185,441.732,415.482" fill="rgb(51,58,72)"/><rect x="416.291" y="277.116" width="61.06" height="39.509" transform="matrix(1,0,0,1,0,0)" fill="none" vector-effect="non-scaling-stroke" stroke-width="3" stroke="rgb(255,255,255)" stroke-linejoin="miter" stroke-linecap="square" stroke-miterlimit="2"/><rect x="405.515" y="309.442" width="79.019" height="14.367" transform="matrix(1,0,0,1,0,0)" fill="rgb(71,82,104)"/></g><g><circle vector-effect="non-scaling-stroke" cx="840.11732916737" cy="277.11584022626863" r="13.169752440466027" fill="rgb(71,82,104)"/><path d=" M 893.003 390.813 L 861.463 421.234 L 892.863 451.8 L 850.747 439.695 L 839.977 482.171 L 829.402 439.646 L 787.231 451.557 L 818.772 421.136 L 787.372 390.57 L 829.487 402.675 L 840.258 360.198 L 850.833 402.724 L 893.003 390.813 Z " fill="rgb(71,82,104)"/><rect x="833.532" y="320.217" width="13.17" height="100.968" transform="matrix(1,0,0,1,0,0)" fill="rgb(71,82,104)"/><polygon points="851.092,402.176,862.067,421.185,851.092,440.194,829.143,440.194,818.168,421.185,829.143,402.176" fill="rgb(235,235,235)"/><path d=" M 756.709 421.185 C 756.709 375.151 794.083 337.777 840.117 337.777 C 886.152 337.777 923.526 375.151 923.526 421.185 C 923.526 467.219 886.152 504.593 840.117 504.593 C 794.083 504.593 756.709 467.219 756.709 421.185 Z  M 783.048 421.185 C 783.048 406.04 789.063 391.509 799.774 380.842 C 810.441 370.13 824.972 364.116 840.117 364.116 C 855.263 364.116 869.793 370.13 880.461 380.842 C 891.172 391.509 897.186 406.04 897.186 421.185 C 897.186 436.33 891.172 450.861 880.461 461.528 C 869.793 472.24 855.263 478.254 840.117 478.254 C 824.972 478.254 810.441 472.24 799.774 461.528 C 789.063 450.861 783.048 436.33 783.048 421.185 Z " fill-rule="evenodd" fill="rgb(45,41,57)"/><polygon points="843.41,415.482,846.702,421.185,843.41,426.888,836.825,426.888,833.532,421.185,836.825,415.482" fill="rgb(51,58,72)"/><rect x="811.383" y="277.116" width="61.06" height="39.509" transform="matrix(1,0,0,1,0,0)" fill="rgb(51,58,72)"/><rect x="800.608" y="309.442" width="79.019" height="14.367" transform="matrix(1,0,0,1,0,0)" fill="rgb(71,82,104)"/></g><path d=" M 414.295 65.602 L 414.295 -48.536 L 466.974 -48.536 L 581.112 65.602 L 414.295 65.602 Z " fill="none" vector-effect="non-scaling-stroke" stroke-width="3" stroke="rgb(255,255,255)" stroke-linejoin="miter" stroke-linecap="square" stroke-miterlimit="3"/><rect x="431.855" y="131.45" width="65.849" height="26.34" transform="matrix(1,0,0,1,0,0)" fill="none" vector-effect="non-scaling-stroke" stroke-width="3" stroke="rgb(255,255,255)" stroke-linejoin="miter" stroke-linecap="square" stroke-miterlimit="2"/></g><path d=" M 1343.641 2.738 L 1346.846 5.723 L 1340.875 12.132 L 1337.67 9.147 C 1333.764 5.548 1330.076 1.728 1326.52 -2.266 C 1323.93 -5.208 1321.56 -8.325 1319.409 -11.573 C 1316.555 -15.831 1314.316 -20.441 1312.736 -25.314 C 1311.551 -28.913 1311.068 -32.733 1311.375 -36.508 C 1311.507 -38.264 1311.814 -39.976 1312.297 -41.688 C 1312.78 -43.356 1313.438 -45.024 1314.272 -46.605 C 1315.15 -48.273 1316.204 -49.897 1317.389 -51.39 C 1318.706 -53.058 1320.199 -54.638 1321.823 -56.043 C 1324.457 -58.414 1327.31 -60.477 1330.383 -62.189 C 1334.598 -64.559 1338.944 -66.667 1343.465 -68.379 C 1349.523 -70.705 1355.362 -73.559 1360.849 -76.939 C 1365.239 -79.573 1369.234 -82.778 1372.834 -86.377 C 1375.599 -89.099 1377.882 -92.304 1379.594 -95.772 C 1380.911 -98.318 1381.57 -101.127 1381.657 -104.025 C 1381.657 -106.264 1381.087 -108.459 1379.989 -110.434 C 1378.716 -112.673 1376.916 -114.517 1374.809 -115.921 C 1371.912 -117.853 1368.707 -119.214 1365.327 -120.004 C 1360.761 -121.102 1356.064 -121.672 1351.367 -121.584 C 1349.348 -121.584 1347.372 -121.541 1345.397 -121.365 C 1337.714 -120.75 1329.988 -120.355 1322.306 -120.267 C 1319.716 -120.267 1317.126 -120.355 1314.536 -120.575 C 1312.472 -120.75 1310.453 -121.145 1308.434 -121.716 C 1306.546 -122.243 1304.79 -123.253 1303.385 -124.614 C 1301.893 -126.194 1301.059 -128.301 1301.059 -130.496 C 1301.103 -131.989 1301.454 -133.481 1302.024 -134.886 C 1302.639 -136.335 1303.429 -137.739 1304.307 -139.056 C 1306.678 -142.48 1309.312 -145.685 1312.209 -148.67 C 1316.248 -152.928 1320.418 -157.099 1324.72 -161.138 C 1330.471 -166.581 1336.266 -171.981 1342.104 -177.293 L 1345.353 -180.234 L 1351.236 -173.737 L 1347.987 -170.795 C 1342.192 -165.528 1336.442 -160.172 1330.734 -154.772 C 1326.564 -150.821 1322.481 -146.783 1318.53 -142.568 C 1315.984 -139.934 1313.658 -137.125 1311.551 -134.096 C 1310.98 -133.262 1310.497 -132.34 1310.102 -131.418 C 1310.014 -131.154 1309.926 -130.891 1309.882 -130.628 C 1310.19 -130.408 1310.497 -130.276 1310.848 -130.189 C 1312.297 -129.75 1313.746 -129.442 1315.282 -129.355 C 1317.565 -129.135 1319.891 -129.047 1322.218 -129.047 C 1329.725 -129.135 1337.231 -129.486 1344.695 -130.145 C 1346.89 -130.276 1349.085 -130.364 1351.28 -130.364 C 1356.723 -130.452 1362.122 -129.837 1367.39 -128.564 C 1371.736 -127.511 1375.863 -125.711 1379.638 -123.253 C 1382.931 -121.102 1385.652 -118.204 1387.628 -114.78 C 1389.472 -111.444 1390.437 -107.712 1390.437 -103.937 C 1390.349 -99.723 1389.34 -95.596 1387.452 -91.821 C 1385.301 -87.519 1382.448 -83.568 1379.067 -80.188 C 1374.985 -76.061 1370.419 -72.461 1365.459 -69.432 C 1359.489 -65.789 1353.167 -62.672 1346.626 -60.213 C 1342.5 -58.589 1338.505 -56.701 1334.685 -54.55 C 1332.183 -53.146 1329.813 -51.434 1327.662 -49.502 C 1326.432 -48.405 1325.291 -47.175 1324.237 -45.902 C 1323.403 -44.849 1322.657 -43.751 1322.043 -42.566 C 1321.516 -41.512 1321.077 -40.371 1320.725 -39.23 C 1320.418 -38.132 1320.199 -36.991 1320.111 -35.849 C 1319.935 -33.215 1320.242 -30.538 1321.077 -28.035 C 1322.394 -23.953 1324.325 -20.046 1326.696 -16.446 C 1328.627 -13.505 1330.778 -10.695 1333.105 -8.061 C 1336.442 -4.286 1339.953 -0.686 1343.641 2.738 Z " fill="none" vector-effect="non-scaling-stroke" stroke-width="3" stroke="rgb(255,255,255)" stroke-linejoin="miter" stroke-linecap="square" stroke-miterlimit="3"/><g><rect x="1336.178" y="-184.624" width="30.729" height="215.106" transform="matrix(1,0,0,1,0,0)" fill="none" vector-effect="non-scaling-stroke" stroke-width="3" stroke="rgb(255,255,255)" stroke-linejoin="miter" stroke-linecap="square" stroke-miterlimit="2"/><rect x="1314.228" y="-0.247" width="79.019" height="39.509" transform="matrix(1,0,0,1,0,0)" fill="none" vector-effect="non-scaling-stroke" stroke-width="3" stroke="rgb(255,255,255)" stroke-linejoin="miter" stroke-linecap="square" stroke-miterlimit="2"/><path d=" M 1265.939 100.721 L 1265.939 26.092 L 1410.807 26.092 L 1410.807 109.501 L 1265.939 109.501 L 1265.939 100.721 Z " fill="none" vector-effect="non-scaling-stroke" stroke-width="3" stroke="rgb(255,255,255)" stroke-linejoin="miter" stroke-linecap="square" stroke-miterlimit="3"/><rect x="1318.618" y="-153.894" width="65.849" height="21.95" transform="matrix(1,0,0,1,0,0)" fill="rgb(223,223,234)"/><g><rect x="1283.499" y="-259.252" width="144.867" height="92.188" transform="matrix(1,0,0,1,0,0)" fill="rgb(223,223,234)"/><rect x="1283.499" y="-180.234" width="144.867" height="13.17" transform="matrix(1,0,0,1,0,0)" fill="rgb(132,135,162)"/><g><circle vector-effect="non-scaling-stroke" cx="1391.051972926868" cy="-213.15812562562706" r="28.534463621009763" fill="rgb(51,58,72)"/><circle vector-effect="non-scaling-stroke" cx="1391.0519729268674" cy="-213.15812562562712" r="19.754628660699154" fill="rgb(34,40,51)"/><circle vector-effect="non-scaling-stroke" cx="1391.0519729268658" cy="-213.15812562562704" r="6.584876220233127" fill="rgb(23,32,47)"/></g></g></g><g><path d=" M 1494.215 96.331 L 1323.008 96.331 L 1243.99 65.602 L 954.255 65.602 L 954.255 241.198 L 1437.146 241.198 L 1494.215 188.519 L 1494.215 96.331 Z " fill="none" vector-effect="non-scaling-stroke" stroke-width="3" stroke="rgb(255,255,255)" stroke-linejoin="miter" stroke-linecap="square" stroke-miterlimit="3"/><clipPath id="_clipPath_fiIBZ3lkre3WS3zAEOrADSze7vQTyaoS"><path d=" M 1494.215 96.331 L 1323.008 96.331 L 1243.99 65.602 L 954.255 65.602 L 954.255 241.198 L 1437.146 241.198 L 1494.215 188.519 L 1494.215 96.331 Z " fill="none" vector-effect="non-scaling-stroke" stroke-width="3" stroke="rgb(255,255,255)" stroke-linejoin="miter" stroke-linecap="square" stroke-miterlimit="3"/></clipPath><g clip-path="url(#_clipPath_fiIBZ3lkre3WS3zAEOrADSze7vQTyaoS)"><rect x="954.255" y="188.783" width="539.96" height="65.322" transform="matrix(1,0,0,1,0,0)" fill="none" vector-effect="non-scaling-stroke" stroke-width="3" stroke="rgb(255,255,255)" stroke-linejoin="miter" stroke-linecap="square" stroke-miterlimit="2"/></g><path d=" M 1494.215 96.331 L 1323.008 96.331 L 1243.99 65.602 L 954.255 65.602 L 954.255 241.198 L 1437.146 241.198 L 1494.215 188.519 L 1494.215 96.331 Z " fill="transparent" vector-effect="non-scaling-stroke" stroke-width="3" stroke="rgb(255,255,255)" stroke-linejoin="miter" stroke-linecap="square" stroke-miterlimit="3"/><path d=" M 1037.664 190.714 L 1026.689 190.714 L 1026.689 168.765 L 1037.664 168.765 L 1206.807 168.765 L 1467.919 283.824 L 1477.973 288.258 L 1469.105 308.364 L 1459.052 303.93 L 1202.154 190.714 L 1037.664 190.714 Z " fill="none" vector-effect="non-scaling-stroke" stroke-width="3" stroke="rgb(255,255,255)" stroke-linejoin="miter" stroke-linecap="square" stroke-miterlimit="3"/><path d=" M 1192.891 171.443 L 1207.29 188.036 L 1075.593 302.174 L 1061.194 285.58 L 1192.891 171.443 Z " fill="rgb(71,82,104)"/><circle vector-effect="non-scaling-stroke" cx="1200.090562540109" cy="179.73948884827627" r="24.144546140854573" fill="rgb(51,58,72)"/><path d=" M 1200.091 221.444 C 1189.028 221.444 1178.404 217.054 1170.59 209.24 C 1162.776 201.426 1158.386 190.802 1158.386 179.739 C 1158.386 168.677 1162.776 158.053 1170.59 150.239 C 1178.404 142.425 1189.028 138.035 1200.091 138.035 C 1211.153 138.035 1221.777 142.425 1229.591 150.239 C 1237.405 158.053 1241.795 168.677 1241.795 179.739 C 1241.795 190.802 1237.405 201.426 1229.591 209.24 C 1221.777 217.054 1211.153 221.444 1200.091 221.444 Z  M 1200.091 199.494 C 1194.867 199.494 1189.818 197.431 1186.131 193.699 C 1182.399 190.012 1180.336 184.964 1180.336 179.739 C 1180.336 174.515 1182.399 169.467 1186.131 165.78 C 1189.818 162.048 1194.867 159.985 1200.091 159.985 C 1205.315 159.985 1210.363 162.048 1214.05 165.78 C 1217.782 169.467 1219.845 174.515 1219.845 179.739 C 1219.845 184.964 1217.782 190.012 1214.05 193.699 C 1210.363 197.431 1205.315 199.494 1200.091 199.494 Z " fill-rule="evenodd" fill="none" vector-effect="non-scaling-stroke" stroke-width="3" stroke="rgb(255,255,255)" stroke-linejoin="miter" stroke-linecap="square" stroke-miterlimit="3"/><path d=" M 954.255 206.079 L 1068.393 206.079 C 1082.93 206.079 1094.733 194.277 1094.733 179.739 L 1094.733 179.739 C 1094.733 165.202 1082.93 153.4 1068.393 153.4 L 954.255 153.4 L 954.255 206.079 L 954.255 206.079 Z " fill="rgb(154,104,242)"/><g><circle vector-effect="non-scaling-stroke" cx="1463.4856113494322" cy="277.11584022626863" r="13.169752440466027" fill="none" stroke-width="3" stroke="rgb(255,255,255)" stroke-linejoin="miter" stroke-linecap="square" stroke-miterlimit="3"/><path d=" M 1410.599 390.813 L 1442.14 421.234 L 1410.74 451.8 L 1452.856 439.695 L 1463.626 482.171 L 1474.201 439.646 L 1516.372 451.557 L 1484.831 421.136 L 1516.231 390.57 L 1474.116 402.675 L 1463.345 360.198 L 1452.77 402.724 L 1410.599 390.813 Z " fill="rgb(71,82,104)"/><rect x="1456.901" y="320.217" width="13.17" height="100.968" transform="matrix(1,0,0,1,0,0)" fill="rgb(71,82,104)"/><polygon points="1452.511,402.176,1441.536,421.185,1452.511,440.194,1474.46,440.194,1485.435,421.185,1474.46,402.176" fill="rgb(235,235,235)"/><path d=" M 1463.486 504.593 C 1417.451 504.593 1380.077 467.219 1380.077 421.185 C 1380.077 375.151 1417.451 337.777 1463.486 337.777 C 1509.52 337.777 1546.894 375.151 1546.894 421.185 C 1546.894 467.219 1509.52 504.593 1463.486 504.593 Z  M 1463.486 478.254 C 1448.341 478.254 1433.81 472.24 1423.143 461.528 C 1412.431 450.861 1406.417 436.33 1406.417 421.185 C 1406.417 406.04 1412.431 391.509 1423.143 380.842 C 1433.81 370.13 1448.341 364.116 1463.486 364.116 C 1478.631 364.116 1493.161 370.13 1503.829 380.842 C 1514.54 391.509 1520.555 406.04 1520.555 421.185 C 1520.555 436.33 1514.54 450.861 1503.829 461.528 C 1493.161 472.24 1478.631 478.254 1463.486 478.254 Z " fill-rule="evenodd" fill="rgb(45,41,57)"/><polygon points="1460.193,415.482,1456.901,421.185,1460.193,426.888,1466.778,426.888,1470.07,421.185,1466.778,415.482" fill="rgb(51,58,72)"/><rect x="1431.16" y="277.116" width="61.06" height="39.509" transform="matrix(1,0,0,1,0,0)" fill="none" vector-effect="non-scaling-stroke" stroke-width="3" stroke="rgb(255,255,255)" stroke-linejoin="miter" stroke-linecap="square" stroke-miterlimit="2"/><rect x="1423.976" y="309.442" width="79.019" height="14.367" transform="matrix(1,0,0,1,0,0)" fill="rgb(71,82,104)"/></g><g><circle vector-effect="non-scaling-stroke" cx="1068.3930381354494" cy="277.11584022626863" r="13.169752440466027" fill="rgb(71,82,104)"/><path d=" M 1015.507 390.813 L 1047.048 421.234 L 1015.647 451.8 L 1057.763 439.695 L 1068.534 482.171 L 1079.108 439.646 L 1121.279 451.557 L 1089.738 421.136 L 1121.139 390.57 L 1079.023 402.675 L 1068.253 360.198 L 1057.678 402.724 L 1015.507 390.813 Z " fill="rgb(71,82,104)"/><rect x="1061.808" y="320.217" width="13.17" height="100.968" transform="matrix(1,0,0,1,0,0)" fill="rgb(71,82,104)"/><polygon points="1057.418,402.176,1046.443,421.185,1057.418,440.194,1079.368,440.194,1090.343,421.185,1079.368,402.176" fill="rgb(235,235,235)"/><path d=" M 1068.393 504.593 C 1022.359 504.593 984.985 467.219 984.985 421.185 C 984.985 375.151 1022.359 337.777 1068.393 337.777 C 1114.427 337.777 1151.801 375.151 1151.801 421.185 C 1151.801 467.219 1114.427 504.593 1068.393 504.593 Z  M 1068.393 478.254 C 1053.248 478.254 1038.717 472.24 1028.05 461.528 C 1017.338 450.861 1011.324 436.33 1011.324 421.185 C 1011.324 406.04 1017.338 391.509 1028.05 380.842 C 1038.717 370.13 1053.248 364.116 1068.393 364.116 C 1083.538 364.116 1098.069 370.13 1108.736 380.842 C 1119.448 391.509 1125.462 406.04 1125.462 421.185 C 1125.462 436.33 1119.448 450.861 1108.736 461.528 C 1098.069 472.24 1083.538 478.254 1068.393 478.254 Z " fill-rule="evenodd" fill="rgb(45,41,57)"/><polygon points="1065.101,415.482,1061.808,421.185,1065.101,426.888,1071.685,426.888,1074.978,421.185,1071.685,415.482" fill="rgb(51,58,72)"/><rect x="1036.067" y="277.116" width="61.06" height="39.509" transform="matrix(1,0,0,1,0,0)" fill="rgb(51,58,72)"/><rect x="1028.884" y="309.442" width="79.019" height="14.367" transform="matrix(1,0,0,1,0,0)" fill="rgb(71,82,104)"/></g><g><path d=" M 1370.696 126.013 L 1371.297 170.413 L 1295.213 171.443 L 1294.612 127.043 L 1370.696 126.013 Z " fill="none"/><path d=" M 1370.696 126.013 L 1371.297 170.413 L 1349.869 170.703 L 1366.666 126.068 L 1370.696 126.013 Z " fill="none" vector-effect="non-scaling-stroke" stroke-width="3" stroke="rgb(255,255,255)" stroke-linejoin="miter" stroke-linecap="square" stroke-miterlimit="3"/><path d=" M 1338.084 126.455 L 1320.044 171.106 L 1295.213 171.443 L 1294.612 127.043 L 1338.084 126.455 Z " fill="none" vector-effect="non-scaling-stroke" stroke-width="3" stroke="rgb(255,255,255)" stroke-linejoin="miter" stroke-linecap="square" stroke-miterlimit="3"/></g><g><path d=" M 462.584 125.883 L 442 125.975 L 433.421 126.013 L 433.197 76.037 L 462.361 75.907 L 462.584 125.883 Z " fill="none" vector-effect="non-scaling-stroke" stroke-width="3" stroke="rgb(255,255,255)" stroke-linejoin="miter" stroke-linecap="square" stroke-miterlimit="3"/><path d=" M 462.584 125.883 L 433.421 126.013 L 433.358 111.938 L 462.573 123.236 L 462.584 125.883 Z " fill="none" vector-effect="non-scaling-stroke" stroke-width="3" stroke="rgb(255,255,255)" stroke-linejoin="miter" stroke-linecap="square" stroke-miterlimit="3"/><path d=" M 462.489 104.461 L 433.27 92.348 L 433.197 76.037 L 462.361 75.907 L 462.489 104.461 Z " fill="none" vector-effect="non-scaling-stroke" stroke-width="3" stroke="rgb(255,255,255)" stroke-linejoin="miter" stroke-linecap="square" stroke-miterlimit="3"/></g><g><path d=" M 497.704 125.883 L 468.54 126.013 L 468.317 76.037 L 497.48 75.907 L 497.704 125.883 Z " fill="none" vector-effect="non-scaling-stroke" stroke-width="3" stroke="rgb(255,255,255)" stroke-linejoin="miter" stroke-linecap="square" stroke-miterlimit="3"/><path d=" M 497.704 125.883 L 468.54 126.013 L 468.477 111.938 L 497.692 123.236 L 497.704 125.883 Z " fill="none" vector-effect="non-scaling-stroke" stroke-width="3" stroke="rgb(255,255,255)" stroke-linejoin="miter" stroke-linecap="square" stroke-miterlimit="3"/><path d=" M 497.608 104.461 L 468.39 92.348 L 468.317 76.037 L 497.48 75.907 L 497.608 104.461 Z " fill="none" vector-effect="non-scaling-stroke" stroke-width="3" stroke="rgb(255,255,255)" stroke-linejoin="miter" stroke-linecap="square" stroke-miterlimit="3"/></g></g><path d="M 642.571 -88.045 L 673.3 -88.045 C 675.723 -88.045 677.69 -86.078 677.69 -83.656 L 677.69 -83.656 C 677.69 -81.233 675.723 -79.266 673.3 -79.266 L 642.571 -79.266 C 640.148 -79.266 638.181 -81.233 638.181 -83.656 L 638.181 -83.656 C 638.181 -86.078 640.148 -88.045 642.571 -88.045 Z" style="stroke:none;fill:#EBEBEB;stroke-linecap:square;stroke-miterlimit:2;"/><path d="M 687.825 -82.787 L 694.213 -79.28 C 695.95 -78.326 696.586 -76.141 695.633 -74.404 L 695.633 -74.404 C 694.679 -72.667 692.494 -72.031 690.757 -72.984 L 684.368 -76.492 C 682.631 -77.446 681.995 -79.63 682.949 -81.368 L 682.949 -81.368 C 683.903 -83.105 686.087 -83.741 687.825 -82.787 Z" style="stroke:none;fill:#EBEBEB;stroke-linecap:square;stroke-miterlimit:2;"/></g><g><circle vector-effect="non-scaling-stroke" cx="960" cy="300" r="301.2516942225216" fill="rgb(26,8,57)"/><circle vector-effect="non-scaling-stroke" cx="960.0000000000002" cy="299.9999999999999" r="235.2516942225214" fill="rgb(33,13,68)"/><circle vector-effect="non-scaling-stroke" cx="960.0000000000002" cy="300" r="176.2516942225211" fill="rgb(34,4,68)"/></g><g><g><rect x="888.5" y="77.462" width="12" height="66" transform="matrix(-0.215,-0.977,0.977,-0.215,979.161,1007.772)" fill="rgb(235,235,235)"/><rect x="933.736" y="103.783" width="12" height="97.263" transform="matrix(0.971,-0.24,0.24,0.971,-9.114,229.988)" fill="rgb(235,235,235)"/><rect x="931.14" y="183" width="28.86" height="13" transform="matrix(1,0,0,1,0,0)" fill="rgb(71,82,104)"/><circle vector-effect="non-scaling-stroke" cx="926.1399999999999" cy="102.5" r="5" fill="rgb(51,58,72)"/><path d=" M 916.64 102.5 C 916.64 99.98 917.64 97.56 919.42 95.78 C 921.2 94 923.62 93 926.14 93 C 928.66 93 931.08 94 932.86 95.78 C 934.64 97.56 935.64 99.98 935.64 102.5 C 935.64 105.02 934.64 107.44 932.86 109.22 C 931.08 111 928.66 112 926.14 112 C 923.62 112 921.2 111 919.42 109.22 C 917.64 107.44 916.64 105.02 916.64 102.5 Z  M 921.64 102.5 C 921.64 101.31 922.11 100.16 922.96 99.32 C 923.8 98.47 924.95 98 926.14 98 C 927.33 98 928.48 98.47 929.32 99.32 C 930.17 100.16 930.64 101.31 930.64 102.5 C 930.64 103.69 930.17 104.84 929.32 105.68 C 928.48 106.53 927.33 107 926.14 107 C 924.95 107 923.8 106.53 922.96 105.68 C 922.11 104.84 921.64 103.69 921.64 102.5 Z " fill-rule="evenodd" fill="rgb(71,82,104)"/></g><path d=" M 861 114.517 C 903.895 105.26 926.965 78.592 937 97 C 947.188 115.688 905.813 129.92 927 139.36 C 948.188 148.8 975.625 142.375 959 162 Q 942.375 181.625 940 196" fill="none" vector-effect="non-scaling-stroke" stroke-width="3" stroke="rgb(62,70,85)" stroke-linejoin="miter" stroke-linecap="butt" stroke-miterlimit="3"/><g><path d=" M 858.055 112.981 L 840.931 109.552 L 820.804 125.202 L 842.849 118.346 L 859.76 120.797 Q 858.286 111.987 858.055 112.981 Z " fill="rgb(71,82,104)"/><path d=" M 860.613 124.706 L 846.473 134.955 L 821.657 129.11 L 844.554 126.162 L 858.908 116.889 Q 861.237 125.513 860.613 124.706 Z " fill="rgb(51,58,72)"/><rect x="852.918" y="117.716" width="15" height="1.781" transform="matrix(-0.213,-0.977,0.977,-0.213,927.93,984.533)" fill="rgb(71,82,104)"/><rect x="852.908" y="117.337" width="18.5" height="1.781" transform="matrix(-0.213,-0.977,0.977,-0.213,930.412,985.773)" fill="rgb(51,58,72)"/></g><g><path d="M 889.6 151.765 L 895.4 151.765 C 901.802 151.765 907 156.963 907 163.365 L 907 189.455 C 907 195.857 901.802 201.055 895.4 201.055 L 889.6 201.055 C 883.198 201.055 878 195.857 878 189.455 L 878 163.365 C 878 156.963 883.198 151.765 889.6 151.765 Z" style="stroke:none;fill:#9A68F2;stroke-linecap:square;stroke-miterlimit:2;"/><path d=" M 837 190 L 960 190 L 960 230 L 850 230 L 837 218 L 837 190 Z " fill="rgb(223,223,234)"/><clipPath id="_clipPath_rtAyOUdza7eSG81bOb7BHXuNgqzPJzAy"><path d=" M 837 190 L 960 190 L 960 230 L 850 230 L 837 218 L 837 190 Z " fill="rgb(223,223,234)"/></clipPath><g clip-path="url(#_clipPath_rtAyOUdza7eSG81bOb7BHXuNgqzPJzAy)"><rect x="837" y="217.89" width="123" height="14.88" transform="matrix(1,0,0,1,0,0)" fill="rgb(189,189,200)"/></g><path d=" M 845.01 244.29 L 842.72 245.3 L 840.7 240.72 L 842.99 239.71 L 902.47 213.5 L 941 213.5 L 943.5 213.5 L 943.5 218.5 L 941 218.5 L 903.53 218.5 L 845.01 244.29 Z " fill="rgb(71,82,104)"/><path d=" M 902.36 217.89 L 905.64 214.11 L 922.81 228.99 L 935.64 240.11 L 932.36 243.89 L 919.53 232.77 L 902.36 217.89 Z " fill="rgb(71,82,104)"/><circle vector-effect="non-scaling-stroke" cx="904" cy="216.00000000000003" r="5" fill="rgb(51,58,72)"/><path d=" M 894.5 216 C 894.5 213.48 895.5 211.06 897.28 209.28 C 899.06 207.5 901.48 206.5 904 206.5 C 906.52 206.5 908.94 207.5 910.72 209.28 C 912.5 211.06 913.5 213.48 913.5 216 C 913.5 218.52 912.5 220.94 910.72 222.72 C 908.94 224.5 906.52 225.5 904 225.5 C 901.48 225.5 899.06 224.5 897.28 222.72 C 895.5 220.94 894.5 218.52 894.5 216 Z  M 899.5 216 C 899.5 214.81 899.97 213.66 900.82 212.82 C 901.66 211.97 902.81 211.5 904 211.5 C 905.19 211.5 906.34 211.97 907.18 212.82 C 908.03 213.66 908.5 214.81 908.5 216 C 908.5 217.19 908.03 218.34 907.18 219.18 C 906.34 220.03 905.19 220.5 904 220.5 C 902.81 220.5 901.66 220.03 900.82 219.18 C 899.97 218.34 899.5 217.19 899.5 216 Z " fill-rule="evenodd" fill="rgb(71,82,104)"/><path d=" M 960 222 L 934 222 C 930.689 222 928 219.311 928 216 L 928 216 C 928 212.689 930.689 210 934 210 L 960 210 L 960 222 L 960 222 Z " fill="rgb(154,104,242)"/><g><circle vector-effect="non-scaling-stroke" cx="844" cy="238.1818181818183" r="3" fill="rgb(71,82,104)"/><path d=" M 856.047 264.082 L 848.862 271.011 L 856.015 277.974 L 846.421 275.217 L 843.968 284.892 L 841.559 275.205 L 831.953 277.918 L 839.138 270.989 L 831.985 264.026 L 841.579 266.783 L 844.032 257.108 L 846.441 266.795 L 856.047 264.082 Z " fill="rgb(71,82,104)"/><rect x="842.5" y="248" width="3" height="23" transform="matrix(1,0,0,1,0,0)" fill="rgb(71,82,104)"/><polygon points="846.5,266.67,849,271,846.5,275.33,841.5,275.33,839,271,841.5,266.67" fill="rgb(235,235,235)"/><path d=" M 825 271 C 825 260.514 833.514 252 844 252 C 854.486 252 863 260.514 863 271 C 863 281.486 854.486 290 844 290 C 833.514 290 825 281.486 825 271 Z  M 831 271 C 831 267.55 832.37 264.24 834.81 261.81 C 837.24 259.37 840.55 258 844 258 C 847.45 258 850.76 259.37 853.19 261.81 C 855.63 264.24 857 267.55 857 271 C 857 274.45 855.63 277.76 853.19 280.19 C 850.76 282.63 847.45 284 844 284 C 840.55 284 837.24 282.63 834.81 280.19 C 832.37 277.76 831 274.45 831 271 Z " fill-rule="evenodd" fill="rgb(45,41,57)"/><polygon points="844.75,269.701,845.5,271,844.75,272.299,843.25,272.299,842.5,271,843.25,269.701" fill="rgb(51,58,72)"/><rect x="837.455" y="238.182" width="13.909" height="9" transform="matrix(1,0,0,1,0,0)" fill="rgb(51,58,72)"/><rect x="835" y="245.545" width="18" height="3.273" transform="matrix(1,0,0,1,0,0)" fill="rgb(71,82,104)"/></g><g><circle vector-effect="non-scaling-stroke" cx="933.9999999999999" cy="238.1818181818183" r="3" fill="rgb(71,82,104)"/><path d=" M 946.047 264.082 L 938.862 271.011 L 946.015 277.974 L 936.421 275.217 L 933.968 284.892 L 931.559 275.205 L 921.953 277.918 L 929.138 270.989 L 921.985 264.026 L 931.579 266.783 L 934.032 257.108 L 936.441 266.795 L 946.047 264.082 Z " fill="rgb(71,82,104)"/><rect x="932.5" y="248" width="3" height="23" transform="matrix(1,0,0,1,0,0)" fill="rgb(71,82,104)"/><polygon points="936.5,266.67,939,271,936.5,275.33,931.5,275.33,929,271,931.5,266.67" fill="rgb(235,235,235)"/><path d=" M 915 271 C 915 260.514 923.514 252 934 252 C 944.486 252 953 260.514 953 271 C 953 281.486 944.486 290 934 290 C 923.514 290 915 281.486 915 271 Z  M 921 271 C 921 267.55 922.37 264.24 924.81 261.81 C 927.24 259.37 930.55 258 934 258 C 937.45 258 940.76 259.37 943.19 261.81 C 945.63 264.24 947 267.55 947 271 C 947 274.45 945.63 277.76 943.19 280.19 C 940.76 282.63 937.45 284 934 284 C 930.55 284 927.24 282.63 924.81 280.19 C 922.37 277.76 921 274.45 921 271 Z " fill-rule="evenodd" fill="rgb(45,41,57)"/><polygon points="934.75,269.701,935.5,271,934.75,272.299,933.25,272.299,932.5,271,933.25,269.701" fill="rgb(51,58,72)"/><rect x="927.455" y="238.182" width="13.909" height="9" transform="matrix(1,0,0,1,0,0)" fill="rgb(51,58,72)"/><rect x="925" y="245.545" width="18" height="3.273" transform="matrix(1,0,0,1,0,0)" fill="rgb(71,82,104)"/></g><path d=" M 837 190 L 837 164 L 849 164 L 875 190 L 837 190 Z " fill="rgb(71,82,104)"/><rect x="841" y="205" width="15" height="6" transform="matrix(1,0,0,1,0,0)" fill="rgb(154,104,242)"/></g><path d=" M 1048.7 175.68 L 1049.43 176.36 L 1048.07 177.82 L 1047.34 177.14 C 1046.45 176.32 1045.61 175.45 1044.8 174.54 C 1044.21 173.87 1043.67 173.16 1043.18 172.42 C 1042.53 171.45 1042.02 170.4 1041.66 169.29 C 1041.39 168.47 1041.28 167.6 1041.35 166.74 C 1041.38 166.34 1041.45 165.95 1041.56 165.56 C 1041.67 165.18 1041.82 164.8 1042.01 164.44 C 1042.21 164.06 1042.45 163.69 1042.72 163.35 C 1043.02 162.97 1043.36 162.61 1043.73 162.29 C 1044.33 161.75 1044.98 161.28 1045.68 160.89 C 1046.64 160.35 1047.63 159.87 1048.66 159.48 C 1050.04 158.95 1051.37 158.3 1052.62 157.53 C 1053.62 156.93 1054.53 156.2 1055.35 155.38 C 1055.98 154.76 1056.5 154.03 1056.89 153.24 C 1057.19 152.66 1057.34 152.02 1057.36 151.36 C 1057.36 150.85 1057.23 150.35 1056.98 149.9 C 1056.69 149.39 1056.28 148.97 1055.8 148.65 C 1055.14 148.21 1054.41 147.9 1053.64 147.72 C 1052.6 147.47 1051.53 147.34 1050.46 147.36 C 1050 147.36 1049.55 147.37 1049.1 147.41 C 1047.35 147.55 1045.59 147.64 1043.84 147.66 C 1043.25 147.66 1042.66 147.64 1042.07 147.59 C 1041.6 147.55 1041.14 147.46 1040.68 147.33 C 1040.25 147.21 1039.85 146.98 1039.53 146.67 C 1039.19 146.31 1039 145.83 1039 145.33 C 1039.01 144.99 1039.09 144.65 1039.22 144.33 C 1039.36 144 1039.54 143.68 1039.74 143.38 C 1040.28 142.6 1040.88 141.87 1041.54 141.19 C 1042.46 140.22 1043.41 139.27 1044.39 138.35 C 1045.7 137.11 1047.02 135.88 1048.35 134.67 L 1049.09 134 L 1050.43 135.48 L 1049.69 136.15 C 1048.37 137.35 1047.06 138.57 1045.76 139.8 C 1044.81 140.7 1043.88 141.62 1042.98 142.58 C 1042.4 143.18 1041.87 143.82 1041.39 144.51 C 1041.26 144.7 1041.15 144.91 1041.06 145.12 C 1041.04 145.18 1041.02 145.24 1041.01 145.3 C 1041.08 145.35 1041.15 145.38 1041.23 145.4 C 1041.56 145.5 1041.89 145.57 1042.24 145.59 C 1042.76 145.64 1043.29 145.66 1043.82 145.66 C 1045.53 145.64 1047.24 145.56 1048.94 145.41 C 1049.44 145.38 1049.94 145.36 1050.44 145.36 C 1051.68 145.34 1052.91 145.48 1054.11 145.77 C 1055.1 146.01 1056.04 146.42 1056.9 146.98 C 1057.65 147.47 1058.27 148.13 1058.72 148.91 C 1059.14 149.67 1059.36 150.52 1059.36 151.38 C 1059.34 152.34 1059.11 153.28 1058.68 154.14 C 1058.19 155.12 1057.54 156.02 1056.77 156.79 C 1055.84 157.73 1054.8 158.55 1053.67 159.24 C 1052.31 160.07 1050.87 160.78 1049.38 161.34 C 1048.44 161.71 1047.53 162.14 1046.66 162.63 C 1046.09 162.95 1045.55 163.34 1045.06 163.78 C 1044.78 164.03 1044.52 164.31 1044.28 164.6 C 1044.09 164.84 1043.92 165.09 1043.78 165.36 C 1043.66 165.6 1043.56 165.86 1043.48 166.12 C 1043.41 166.37 1043.36 166.63 1043.34 166.89 C 1043.3 167.49 1043.37 168.1 1043.56 168.67 C 1043.86 169.6 1044.3 170.49 1044.84 171.31 C 1045.28 171.98 1045.77 172.62 1046.3 173.22 C 1047.06 174.08 1047.86 174.9 1048.7 175.68 Z " fill="rgb(62,70,85)"/><g><rect x="1047" y="133" width="7" height="49" transform="matrix(1,0,0,1,0,0)" fill="rgb(223,223,234)"/><rect x="1042" y="175" width="18" height="9" transform="matrix(1,0,0,1,0,0)" fill="rgb(223,223,234)"/><path d=" M 1031 198 L 1031 181 L 1064 181 L 1064 200 L 1031 200 L 1031 198 Z " fill="rgb(189,189,200)"/><rect x="1043" y="140" width="15" height="5" transform="matrix(1,0,0,1,0,0)" fill="rgb(223,223,234)"/><g><rect x="1035" y="116" width="33" height="21" transform="matrix(1,0,0,1,0,0)" fill="rgb(223,223,234)"/><rect x="1035" y="134" width="33" height="3" transform="matrix(1,0,0,1,0,0)" fill="rgb(132,135,162)"/><g><circle vector-effect="non-scaling-stroke" cx="1059.5" cy="126.5" r="6.5" fill="rgb(51,58,72)"/><circle vector-effect="non-scaling-stroke" cx="1059.5" cy="126.49999999999999" r="4.5" fill="rgb(34,40,51)"/><circle vector-effect="non-scaling-stroke" cx="1059.5" cy="126.49999999999997" r="1.5" fill="rgb(23,32,47)"/></g></g></g><g><path d=" M 1083 197 L 1044 197 L 1026 190 L 960 190 L 960 230 L 1070 230 L 1083 218 L 1083 197 Z " fill="rgb(223,223,234)"/><clipPath id="_clipPath_I7kgSvLx6h5FciPJz2Xr6d4fsoxi3jd2"><path d=" M 1083 197 L 1044 197 L 1026 190 L 960 190 L 960 230 L 1070 230 L 1083 218 L 1083 197 Z " fill="rgb(223,223,234)"/></clipPath><g clip-path="url(#_clipPath_I7kgSvLx6h5FciPJz2Xr6d4fsoxi3jd2)"><rect x="960" y="218.06" width="123" height="14.88" transform="matrix(1,0,0,1,0,0)" fill="rgb(189,189,200)"/></g><path d=" M 979 218.5 L 976.5 218.5 L 976.5 213.5 L 979 213.5 L 1017.53 213.5 L 1077.01 239.71 L 1079.3 240.72 L 1077.28 245.3 L 1074.99 244.29 L 1016.47 218.5 L 979 218.5 Z " fill="rgb(71,82,104)"/><path d=" M 1014.36 214.11 L 1017.64 217.89 L 987.64 243.89 L 984.36 240.11 L 1014.36 214.11 Z " fill="rgb(71,82,104)"/><circle vector-effect="non-scaling-stroke" cx="1015.9999999999998" cy="215.99999999999994" r="5.5" fill="rgb(51,58,72)"/><path d=" M 1016 225.5 C 1013.48 225.5 1011.06 224.5 1009.28 222.72 C 1007.5 220.94 1006.5 218.52 1006.5 216 C 1006.5 213.48 1007.5 211.06 1009.28 209.28 C 1011.06 207.5 1013.48 206.5 1016 206.5 C 1018.52 206.5 1020.94 207.5 1022.72 209.28 C 1024.5 211.06 1025.5 213.48 1025.5 216 C 1025.5 218.52 1024.5 220.94 1022.72 222.72 C 1020.94 224.5 1018.52 225.5 1016 225.5 Z  M 1016 220.5 C 1014.81 220.5 1013.66 220.03 1012.82 219.18 C 1011.97 218.34 1011.5 217.19 1011.5 216 C 1011.5 214.81 1011.97 213.66 1012.82 212.82 C 1013.66 211.97 1014.81 211.5 1016 211.5 C 1017.19 211.5 1018.34 211.97 1019.18 212.82 C 1020.03 213.66 1020.5 214.81 1020.5 216 C 1020.5 217.19 1020.03 218.34 1019.18 219.18 C 1018.34 220.03 1017.19 220.5 1016 220.5 Z " fill-rule="evenodd" fill="rgb(71,82,104)"/><path d=" M 960 222 L 986 222 C 989.311 222 992 219.311 992 216 L 992 216 C 992 212.689 989.311 210 986 210 L 960 210 L 960 222 L 960 222 Z " fill="rgb(154,104,242)"/><g><circle vector-effect="non-scaling-stroke" cx="1076" cy="238.1818181818183" r="3" fill="rgb(71,82,104)"/><path d=" M 1063.953 264.082 L 1071.138 271.011 L 1063.985 277.974 L 1073.579 275.217 L 1076.032 284.892 L 1078.441 275.205 L 1088.047 277.918 L 1080.862 270.989 L 1088.015 264.026 L 1078.421 266.783 L 1075.968 257.108 L 1073.559 266.795 L 1063.953 264.082 Z " fill="rgb(71,82,104)"/><rect x="1074.5" y="248" width="3" height="23" transform="matrix(1,0,0,1,0,0)" fill="rgb(71,82,104)"/><polygon points="1073.5,266.67,1071,271,1073.5,275.33,1078.5,275.33,1081,271,1078.5,266.67" fill="rgb(235,235,235)"/><path d=" M 1076 290 C 1065.514 290 1057 281.486 1057 271 C 1057 260.514 1065.514 252 1076 252 C 1086.486 252 1095 260.514 1095 271 C 1095 281.486 1086.486 290 1076 290 Z  M 1076 284 C 1072.55 284 1069.24 282.63 1066.81 280.19 C 1064.37 277.76 1063 274.45 1063 271 C 1063 267.55 1064.37 264.24 1066.81 261.81 C 1069.24 259.37 1072.55 258 1076 258 C 1079.45 258 1082.76 259.37 1085.19 261.81 C 1087.63 264.24 1089 267.55 1089 271 C 1089 274.45 1087.63 277.76 1085.19 280.19 C 1082.76 282.63 1079.45 284 1076 284 Z " fill-rule="evenodd" fill="rgb(45,41,57)"/><polygon points="1075.25,269.701,1074.5,271,1075.25,272.299,1076.75,272.299,1077.5,271,1076.75,269.701" fill="rgb(51,58,72)"/><rect x="1068.636" y="238.182" width="13.909" height="9" transform="matrix(1,0,0,1,0,0)" fill="rgb(51,58,72)"/><rect x="1067" y="245.545" width="18" height="3.273" transform="matrix(1,0,0,1,0,0)" fill="rgb(71,82,104)"/></g><g><circle vector-effect="non-scaling-stroke" cx="986.0000000000002" cy="238.1818181818183" r="3" fill="rgb(71,82,104)"/><path d=" M 973.953 264.082 L 981.138 271.011 L 973.985 277.974 L 983.579 275.217 L 986.032 284.892 L 988.441 275.205 L 998.047 277.918 L 990.862 270.989 L 998.015 264.026 L 988.421 266.783 L 985.968 257.108 L 983.559 266.795 L 973.953 264.082 Z " fill="rgb(71,82,104)"/><rect x="984.5" y="248" width="3" height="23" transform="matrix(1,0,0,1,0,0)" fill="rgb(71,82,104)"/><polygon points="983.5,266.67,981,271,983.5,275.33,988.5,275.33,991,271,988.5,266.67" fill="rgb(235,235,235)"/><path d=" M 986 290 C 975.514 290 967 281.486 967 271 C 967 260.514 975.514 252 986 252 C 996.486 252 1005 260.514 1005 271 C 1005 281.486 996.486 290 986 290 Z  M 986 284 C 982.55 284 979.24 282.63 976.81 280.19 C 974.37 277.76 973 274.45 973 271 C 973 267.55 974.37 264.24 976.81 261.81 C 979.24 259.37 982.55 258 986 258 C 989.45 258 992.76 259.37 995.19 261.81 C 997.63 264.24 999 267.55 999 271 C 999 274.45 997.63 277.76 995.19 280.19 C 992.76 282.63 989.45 284 986 284 Z " fill-rule="evenodd" fill="rgb(45,41,57)"/><polygon points="985.25,269.701,984.5,271,985.25,272.299,986.75,272.299,987.5,271,986.75,269.701" fill="rgb(51,58,72)"/><rect x="978.636" y="238.182" width="13.909" height="9" transform="matrix(1,0,0,1,0,0)" fill="rgb(51,58,72)"/><rect x="977" y="245.545" width="18" height="3.273" transform="matrix(1,0,0,1,0,0)" fill="rgb(71,82,104)"/></g><g><path d=" M 1054.863 203.761 L 1055 213.875 L 1037.668 214.11 L 1037.532 203.996 L 1054.863 203.761 Z " fill="rgb(154,104,242)"/><path d=" M 1054.863 203.761 L 1055 213.875 L 1050.119 213.941 L 1053.945 203.774 L 1054.863 203.761 Z " fill="rgb(49,48,51)"/><path d=" M 1047.434 203.862 L 1043.325 214.033 L 1037.668 214.11 L 1037.532 203.996 L 1047.434 203.862 Z " fill="rgb(102,52,187)"/></g><g><path d=" M 848 203.732 L 841.357 203.761 L 841.306 192.377 L 847.949 192.348 L 848 203.732 Z " fill="rgb(154,104,242)"/><path d=" M 848 203.732 L 841.357 203.761 L 841.342 200.555 L 847.997 203.129 L 848 203.732 Z " fill="rgb(49,48,51)"/><path d=" M 847.978 198.852 L 841.322 196.093 L 841.306 192.377 L 847.949 192.348 L 847.978 198.852 Z " fill="rgb(102,52,187)"/></g><g><path d=" M 856 203.732 L 849.357 203.761 L 849.306 192.377 L 855.949 192.348 L 856 203.732 Z " fill="rgb(154,104,242)"/><path d=" M 856 203.732 L 849.357 203.761 L 849.342 200.555 L 855.997 203.129 L 856 203.732 Z " fill="rgb(49,48,51)"/><path d=" M 855.978 198.852 L 849.322 196.093 L 849.306 192.377 L 855.949 192.348 L 855.978 198.852 Z " fill="rgb(102,52,187)"/></g></g><path d="M 889 155 L 896 155 C 896.552 155 897 155.448 897 156 L 897 156 C 897 156.552 896.552 157 896 157 L 889 157 C 888.448 157 888 156.552 888 156 L 888 156 C 888 155.448 888.448 155 889 155 Z" style="stroke:none;fill:#EBEBEB;stroke-linecap:square;stroke-miterlimit:2;"/><path d="M 899.309 156.198 L 900.764 156.997 C 901.16 157.214 901.304 157.712 901.087 158.107 L 901.087 158.107 C 900.87 158.503 900.372 158.648 899.976 158.431 L 898.521 157.632 C 898.125 157.415 897.981 156.917 898.198 156.521 L 898.198 156.521 C 898.415 156.125 898.913 155.981 899.309 156.198 Z" style="stroke:none;fill:#EBEBEB;stroke-linecap:square;stroke-miterlimit:2;"/></g></g></svg>