<?xml version="1.0" standalone="no"?><!-- Generator: Gravit.io --><svg xmlns="http://www.w3.org/2000/svg" xmlns:xlink="http://www.w3.org/1999/xlink" style="isolation:isolate" viewBox="0 0 1920 300" width="1920" height="300"><defs><clipPath id="_clipPath_J1VlFdDp18GmO1qytLPizzKWPps2dH0y"><rect width="1920" height="300"/></clipPath></defs><g clip-path="url(#_clipPath_J1VlFdDp18GmO1qytLPizzKWPps2dH0y)"><rect width="1920" height="300" style="fill:rgb(34,4,68)" fill-opacity="0"/><g><g><g><path d=" M 1574.341 356.914 C 1537.288 412.886 1445.115 481.75 1366.354 492.501 C 1366.354 435.019 1366.354 425.366 1366.354 356.914 L 1574.341 356.914 Z " fill="rgb(80,34,162)"/><rect x="943.139" y="67.97" width="135.587" height="713.476" transform="matrix(0,1,-1,0,1435.64,-586.225)" fill="rgb(114,70,191)"/><g/><g><g><path d=" M 1354.507 535.941 C 1341.474 547.288 1310.068 569.338 1283.672 579.382 C 1283.672 560.965 1283.672 557.872 1283.672 535.941 L 1354.507 535.941 Z " fill="rgb(223,223,234)"/><rect x="844.76" y="140.021" width="43.44" height="835.281" transform="matrix(0,1,-1,0,1424.142,-308.819)" fill="rgb(223,223,234)"/><path d=" M 1354.507 535.941 C 1341.474 524.595 1310.068 502.544 1283.672 492.501 C 1283.672 510.917 1283.672 514.01 1283.672 535.941 L 1354.507 535.941 Z " fill="rgb(189,189,200)"/><rect x="844.76" y="96.581" width="43.44" height="835.281" transform="matrix(0,1,-1,0,1380.701,-352.259)" fill="rgb(189,189,200)"/></g><g><path d=" M 405.399 585.964 L 381.705 596.495 L 381.705 535.941 L 405.399 535.941 L 405.399 585.964 Z " fill="rgb(91,91,94)"/><path d=" M 467.269 579.382 L 400.134 604.393 L 400.134 535.941 L 467.269 535.941 L 467.269 579.382 Z " fill="rgb(223,223,234)"/></g><g><path d=" M 405.399 485.919 L 381.705 475.388 L 381.705 535.941 L 405.399 535.941 L 405.399 485.919 Z " fill="rgb(61,61,64)"/><path d=" M 467.269 492.501 L 400.134 467.49 L 400.134 535.941 L 467.269 535.941 L 467.269 492.501 Z " fill="rgb(189,189,200)"/></g><rect x="468.585" y="533.309" width="86.881" height="5.266" transform="matrix(0,1,-1,0,1047.967,23.916)" fill="rgb(128,2,2)"/><rect x="458.054" y="533.309" width="86.881" height="5.266" transform="matrix(0,1,-1,0,1037.436,34.447)" fill="rgb(128,2,2)"/><rect x="447.523" y="533.309" width="86.881" height="5.266" transform="matrix(0,1,-1,0,1026.905,44.978)" fill="rgb(128,2,2)"/><rect x="436.992" y="533.309" width="86.881" height="5.266" transform="matrix(0,1,-1,0,1016.374,55.509)" fill="rgb(128,2,2)"/><rect x="1235.374" y="531.334" width="86.881" height="9.215" transform="matrix(0,1,-1,0,1814.756,-742.874)" fill="rgb(61,61,64)"/></g><g><path d=" M 381.705 536.203 L 381.705 481.642 C 136.106 467.285 -119.429 410.468 -384.841 311.137 L -384.841 536.203 L 381.705 536.203 Z " fill="rgb(255,255,255)"/><path d=" M 381.705 535.68 L 381.705 590.241 C 136.106 604.597 -119.429 661.415 -384.841 760.745 L -384.841 535.68 L 381.705 535.68 Z " fill="rgb(255,255,255)"/></g></g><g><path d=" M 1574.341 359.127 C 1537.288 303.155 1445.115 234.291 1366.354 223.541 C 1366.354 281.022 1366.354 290.676 1366.354 359.127 L 1574.341 359.127 Z " fill="none" vector-effect="non-scaling-stroke" stroke-width="3" stroke="rgb(255,255,255)" stroke-linejoin="miter" stroke-linecap="square" stroke-miterlimit="3"/><rect x="943.139" y="-65.404" width="135.587" height="713.476" transform="matrix(0,1,-1,0,1302.266,-719.598)" fill="none" vector-effect="non-scaling-stroke" stroke-width="3" stroke="rgb(255,255,255)" stroke-linejoin="miter" stroke-linecap="square" stroke-miterlimit="2"/><g/><g><g><path d=" M 1354.507 180.1 C 1341.474 168.753 1310.068 146.703 1283.672 136.66 C 1283.672 155.076 1283.672 158.169 1283.672 180.1 L 1354.507 180.1 Z " fill="none" vector-effect="non-scaling-stroke" stroke-width="3" stroke="rgb(255,255,255)" stroke-linejoin="miter" stroke-linecap="square" stroke-miterlimit="3"/><rect x="844.76" y="-259.261" width="43.44" height="835.281" transform="matrix(0,1,-1,0,1024.86,-708.1)" fill="none" vector-effect="non-scaling-stroke" stroke-width="3" stroke="rgb(255,255,255)" stroke-linejoin="miter" stroke-linecap="square" stroke-miterlimit="2"/><path d=" M 1354.507 180.1 C 1341.474 191.447 1310.068 213.497 1283.672 223.541 C 1283.672 205.124 1283.672 202.031 1283.672 180.1 L 1354.507 180.1 Z " fill="none" vector-effect="non-scaling-stroke" stroke-width="3" stroke="rgb(255,255,255)" stroke-linejoin="miter" stroke-linecap="square" stroke-miterlimit="3"/><rect x="844.76" y="-215.82" width="43.44" height="835.281" transform="matrix(0,1,-1,0,1068.301,-664.66)" fill="none" vector-effect="non-scaling-stroke" stroke-width="3" stroke="rgb(255,255,255)" stroke-linejoin="miter" stroke-linecap="square" stroke-miterlimit="2"/></g><g><path d=" M 405.399 130.078 L 381.705 119.547 L 381.705 180.1 L 405.399 180.1 L 405.399 130.078 Z " fill="none" vector-effect="non-scaling-stroke" stroke-width="3" stroke="rgb(255,255,255)" stroke-linejoin="miter" stroke-linecap="square" stroke-miterlimit="3"/><path d=" M 467.269 136.66 L 400.134 111.649 L 400.134 180.1 L 467.269 180.1 L 467.269 136.66 Z " fill="none" vector-effect="non-scaling-stroke" stroke-width="3" stroke="rgb(255,255,255)" stroke-linejoin="miter" stroke-linecap="square" stroke-miterlimit="3"/></g><g><path d=" M 405.399 230.122 L 381.705 240.653 L 381.705 180.1 L 405.399 180.1 L 405.399 230.122 Z " fill="none" vector-effect="non-scaling-stroke" stroke-width="3" stroke="rgb(255,255,255)" stroke-linejoin="miter" stroke-linecap="square" stroke-miterlimit="3"/><path d=" M 467.269 223.541 L 400.134 248.552 L 400.134 180.1 L 467.269 180.1 L 467.269 223.541 Z " fill="none" vector-effect="non-scaling-stroke" stroke-width="3" stroke="rgb(255,255,255)" stroke-linejoin="miter" stroke-linecap="square" stroke-miterlimit="3"/></g><rect x="468.585" y="177.467" width="86.881" height="5.266" transform="matrix(0,1,-1,0,692.126,-331.926)" fill="rgb(255,255,255)"/><rect x="458.054" y="177.467" width="86.881" height="5.266" transform="matrix(0,1,-1,0,681.595,-321.395)" fill="rgb(255,255,255)"/><rect x="447.523" y="177.467" width="86.881" height="5.266" transform="matrix(0,1,-1,0,671.064,-310.864)" fill="rgb(255,255,255)"/><rect x="436.992" y="177.467" width="86.881" height="5.266" transform="matrix(0,1,-1,0,660.533,-300.333)" fill="rgb(255,255,255)"/><rect x="1235.374" y="175.493" width="86.881" height="9.215" transform="matrix(0,1,-1,0,1458.915,-1098.715)" fill="rgb(255,255,255)"/></g></g></g><g><path d=" M 1279.473 356.914 C 1238.465 409.75 1164.296 436.503 1057.006 437.213 L 602.856 437.213 L 602.856 356.914 L 1279.473 356.914 Z " fill="rgb(240,240,244)"/><path d=" M 602.856 691.274 L 602.856 437.213 L 1038.576 437.213 C 931.971 455.838 864.841 499.214 801.642 586.688 C 738.442 674.161 691.817 671.097 602.856 691.274 Z " fill="rgb(61,61,64)"/><path d=" M 917.47 449.061 C 932.583 442.419 950.28 437.272 950.379 437.213 L 602.856 437.213 L 602.856 663.63 C 604.33 663.327 632.145 658.154 633.619 657.851 C 641.478 656.284 649.337 654.652 657.169 652.954 C 664.133 651.453 671.057 649.768 677.929 647.912 C 684.129 646.24 690.263 644.292 696.292 642.068 C 701.979 639.961 707.534 637.526 712.931 634.762 C 718.434 631.931 723.739 628.72 728.807 625.165 C 734.454 621.19 739.838 616.846 744.906 612.173 C 750.909 606.644 756.582 600.773 761.927 594.586 C 768.377 587.109 774.498 579.355 780.264 571.326 C 788.254 560.229 796.653 549.434 805.446 538.969 C 813.792 529.044 822.585 519.487 831.8 510.351 C 840.685 501.544 850.019 493.199 859.773 485.353 C 869.356 477.652 879.347 470.491 889.734 463.896 C 889.826 463.837 902.356 455.702 917.47 449.061 Z " fill="rgb(223,223,234)"/><path d=" M 1193.909 356.914 L 1279.473 356.914 C 1259.131 383.124 1230.629 402.915 1193.909 416.243 L 1193.909 356.914 L 1193.909 356.914 Z " fill="rgb(61,61,64)"/><path d=" M 1172.847 359.547 C 1172.725 382.207 1165.239 404.951 1150.468 412.155 C 1143.689 414.191 1137.533 415.055 1132.039 414.787 C 1131.953 406.438 1133.695 401.206 1137.304 396.405 C 1147.478 396.149 1159.683 372.515 1159.683 359.547 L 1172.847 359.547 Z " fill="rgb(38,38,38)"/><mask id="_mask_EbyAsMh51fJdSBmXK23K4uCPYM9ylgJC"><path d=" M 602.856 691.274 L 572.579 696.539 L 559.415 570.167 L 602.856 570.167 L 602.856 691.274 Z " fill="white" stroke="none"/></mask><path d=" M 602.856 691.274 L 572.579 696.539 L 559.415 570.167 L 602.856 570.167 L 602.856 691.274 Z " fill="rgb(223,223,234)" mask="url(#_mask_EbyAsMh51fJdSBmXK23K4uCPYM9ylgJC)" vector-effect="non-scaling-stroke" stroke-width="10" stroke="rgb(61,61,64)" stroke-linejoin="miter" stroke-linecap="square" stroke-miterlimit="3"/><mask id="_mask_1QGNxd6ro3FAoXR9Kqea43nSuHXJKaQr"><path d=" M 602.856 563.585 L 559.415 563.585 L 531.771 437.213 L 602.856 437.213 L 602.856 563.585 Z " fill="white" stroke="none"/></mask><path d=" M 602.856 563.585 L 559.415 563.585 L 531.771 437.213 L 602.856 437.213 L 602.856 563.585 Z " fill="rgb(223,223,234)" mask="url(#_mask_1QGNxd6ro3FAoXR9Kqea43nSuHXJKaQr)" vector-effect="non-scaling-stroke" stroke-width="10" stroke="rgb(61,61,64)" stroke-linejoin="miter" stroke-linecap="square" stroke-miterlimit="3"/><rect x="486.356" y="152.218" width="240.897" height="7.898" transform="matrix(0,1,-1,0,762.972,-450.638)" fill="rgb(61,61,64)"/><g><path d=" M 644.98 409.505 L 644.98 409.505 L 685.129 409.505 L 687.809 409.505 L 725.279 409.505 C 725.279 436.34 708.721 458.332 687.809 460.075 L 687.809 460.186 L 685.129 460.186 L 518.608 460.186 L 518.608 409.505 L 644.98 409.505 Z " fill="rgb(240,240,244)"/><path d=" M 644.98 409.505 L 644.98 409.505 L 685.129 409.505 L 687.809 409.505 L 725.279 409.505 C 725.279 382.671 708.721 360.679 687.809 358.936 L 687.809 358.825 L 685.129 358.825 L 518.608 358.825 L 518.608 409.505 L 644.98 409.505 Z " fill="rgb(248,248,249)"/><path d=" M 496.229 366.723 L 518.608 366.723 L 518.608 409.505 L 496.229 409.505 L 481.749 409.505 C 482.427 392.9 487.24 378.652 496.229 366.723 Z " fill="rgb(91,91,94)"/><path d=" M 496.229 452.288 L 518.608 452.288 L 518.608 409.505 L 496.229 409.505 L 481.749 409.505 C 482.427 426.111 487.24 440.358 496.229 452.288 Z " fill="rgb(61,61,64)"/></g></g><g><path d=" M 1279.473 356.914 C 1238.465 304.078 1164.296 277.325 1057.006 276.615 L 602.856 276.615 L 602.856 356.914 L 1279.473 356.914 Z " fill="none" vector-effect="non-scaling-stroke" stroke-width="3" stroke="rgb(255,255,255)" stroke-linejoin="miter" stroke-linecap="square" stroke-miterlimit="3"/><path d=" M 1193.909 356.914 L 1279.473 356.914 C 1259.131 330.705 1230.629 310.913 1193.909 297.585 L 1193.909 356.914 L 1193.909 356.914 Z " fill="rgb(91,91,94)"/><path d=" M 602.856 22.555 L 602.856 276.615 L 1038.576 276.615 C 931.971 257.99 864.841 214.614 801.642 127.141 C 738.442 39.668 691.817 42.731 602.856 22.555 Z " fill="none" vector-effect="non-scaling-stroke" stroke-width="3" stroke="rgb(255,255,255)" stroke-linejoin="bevel" stroke-linecap="butt" stroke-miterlimit="3"/><path d=" M 917.47 264.768 C 932.583 271.409 950.28 276.556 950.379 276.615 L 602.856 276.615 L 602.856 50.199 C 604.33 50.501 632.145 55.675 633.619 55.977 C 641.478 57.544 649.337 59.176 657.169 60.874 C 664.133 62.375 671.057 64.06 677.929 65.916 C 684.129 67.588 690.263 69.536 696.292 71.761 C 701.979 73.867 707.534 76.302 712.931 79.067 C 718.434 81.897 723.739 85.109 728.807 88.663 C 734.454 92.638 739.838 96.983 744.906 101.656 C 750.909 107.184 756.582 113.055 761.927 119.242 C 768.377 126.719 774.498 134.473 780.264 142.503 C 788.254 153.6 796.653 164.394 805.446 174.859 C 813.792 184.785 822.585 194.342 831.8 203.477 C 840.685 212.284 850.019 220.63 859.773 228.475 C 869.356 236.176 879.347 243.337 889.734 249.932 C 889.826 249.992 902.356 258.127 917.47 264.768 Z " fill="none" vector-effect="non-scaling-stroke" stroke-width="3" stroke="rgb(255,255,255)" stroke-linejoin="bevel" stroke-linecap="butt" stroke-miterlimit="3"/><path d=" M 1172.847 354.281 C 1172.725 331.621 1165.239 308.878 1150.468 301.674 C 1143.689 299.638 1137.533 298.773 1132.039 299.041 C 1131.953 307.391 1133.695 312.622 1137.304 317.423 C 1147.478 317.679 1159.683 341.313 1159.683 354.281 L 1172.847 354.281 Z " fill="rgb(38,38,38)"/><mask id="_mask_j23rU7uAImLhbtZ4MrW950k8VHs5PlYC"><path d=" M 602.856 22.555 L 572.579 17.289 L 559.415 143.661 L 602.856 143.661 L 602.856 22.555 Z " fill="white" stroke="none"/></mask><path d=" M 602.856 22.555 L 572.579 17.289 L 559.415 143.661 L 602.856 143.661 L 602.856 22.555 Z " fill="none" mask="url(#_mask_j23rU7uAImLhbtZ4MrW950k8VHs5PlYC)" vector-effect="non-scaling-stroke" stroke-width="6" stroke="rgb(255,255,255)" stroke-linejoin="bevel" stroke-linecap="butt" stroke-miterlimit="3"/><mask id="_mask_rl5ufMvXPxehAWaJwVCBBAqjcXnAvY4X"><path d=" M 602.856 150.243 L 559.415 150.243 L 531.771 276.615 L 602.856 276.615 L 602.856 150.243 Z " fill="white" stroke="none"/></mask><path d=" M 602.856 150.243 L 559.415 150.243 L 531.771 276.615 L 602.856 276.615 L 602.856 150.243 Z " fill="none" mask="url(#_mask_rl5ufMvXPxehAWaJwVCBBAqjcXnAvY4X)" vector-effect="non-scaling-stroke" stroke-width="6" stroke="rgb(255,255,255)" stroke-linejoin="bevel" stroke-linecap="butt" stroke-miterlimit="3"/><rect x="486.356" y="152.218" width="240.897" height="7.898" transform="matrix(0,1,-1,0,762.972,-450.638)" fill="rgb(255,255,255)"/><g><path d=" M 644.98 306.828 L 644.98 306.828 L 685.129 306.828 L 687.809 306.828 L 725.279 306.828 C 725.279 333.663 708.721 355.654 687.809 357.397 L 687.809 357.509 L 685.129 357.509 L 518.608 357.509 L 518.608 306.828 L 644.98 306.828 Z " fill="none" vector-effect="non-scaling-stroke" stroke-width="5" stroke="rgb(255,255,255)" stroke-linejoin="miter" stroke-linecap="square" stroke-miterlimit="3"/><path d=" M 644.98 306.828 L 644.98 306.828 L 685.129 306.828 L 687.809 306.828 L 725.279 306.828 C 725.279 279.993 708.721 258.002 687.809 256.259 L 687.809 256.148 L 685.129 256.148 L 518.608 256.148 L 518.608 306.828 L 644.98 306.828 Z " fill="none" vector-effect="non-scaling-stroke" stroke-width="3" stroke="rgb(255,255,255)" stroke-linejoin="miter" stroke-linecap="square" stroke-miterlimit="3"/><path d=" M 496.229 264.046 L 518.608 264.046 L 518.608 306.828 L 496.229 306.828 L 481.749 306.828 C 482.427 290.223 487.24 275.975 496.229 264.046 Z " fill="none" vector-effect="non-scaling-stroke" stroke-width="3" stroke="rgb(255,255,255)" stroke-linejoin="miter" stroke-linecap="square" stroke-miterlimit="3"/><path d=" M 496.229 349.61 L 518.608 349.61 L 518.608 306.828 L 496.229 306.828 L 481.749 306.828 C 482.427 323.433 487.24 337.681 496.229 349.61 Z " fill="none" vector-effect="non-scaling-stroke" stroke-width="5" stroke="rgb(255,255,255)" stroke-linejoin="miter" stroke-linecap="square" stroke-miterlimit="3"/></g></g></g><g><circle vector-effect="non-scaling-stroke" cx="960.0000000000002" cy="300" r="287.2516942225214" fill="rgb(18,4,40)"/><circle vector-effect="non-scaling-stroke" cx="960" cy="300.0000000000001" r="301.2516942225216" fill="rgb(26,8,57)"/><circle vector-effect="non-scaling-stroke" cx="960.0000000000002" cy="300" r="235.25169422252134" fill="rgb(33,13,68)"/><circle vector-effect="non-scaling-stroke" cx="960.0000000000002" cy="300" r="176.2516942225211" fill="rgb(34,4,68)"/><g><g><g><path d=" M 959.807 16.616 C 969.571 23.08 981.584 39.158 983.459 52.898 C 973.432 52.898 971.748 52.898 959.807 52.898 L 959.807 16.616 Z " fill="rgb(80,34,162)"/><rect x="959.807" y="52.668" width="23.652" height="124.46" transform="matrix(1,0,0,1,0,0)" fill="rgb(114,70,191)"/><g/><g><g><path d=" M 991.037 54.964 C 993.016 57.238 996.862 62.716 998.614 67.321 C 995.402 67.321 994.862 67.321 991.037 67.321 L 991.037 54.964 Z " fill="rgb(223,223,234)"/><rect x="991.037" y="67.242" width="7.578" height="145.707" transform="matrix(1,0,0,1,0,0)" fill="rgb(223,223,234)"/><path d=" M 991.037 54.964 C 989.057 57.238 985.211 62.716 983.459 67.321 C 986.671 67.321 987.211 67.321 991.037 67.321 L 991.037 54.964 Z " fill="rgb(189,189,200)"/><rect x="983.459" y="67.242" width="7.578" height="145.707" transform="matrix(1,0,0,1,0,0)" fill="rgb(189,189,200)"/></g><g><path d=" M 999.763 220.527 L 1001.6 224.661 L 991.037 224.661 L 991.037 220.527 L 999.763 220.527 Z " fill="rgb(91,91,94)"/><path d=" M 998.614 209.735 L 1002.977 221.446 L 991.037 221.446 L 991.037 209.735 L 998.614 209.735 Z " fill="rgb(223,223,234)"/></g><g><path d=" M 982.311 220.527 L 980.474 224.661 L 991.037 224.661 L 991.037 220.527 L 982.311 220.527 Z " fill="rgb(61,61,64)"/><path d=" M 983.459 209.735 L 979.096 221.446 L 991.037 221.446 L 991.037 209.735 L 983.459 209.735 Z " fill="rgb(189,189,200)"/></g><rect x="983.459" y="201.468" width="15.156" height="0.919" transform="matrix(1,0,0,1,0,0)" fill="rgb(128,2,2)"/><rect x="983.459" y="203.305" width="15.156" height="0.919" transform="matrix(1,0,0,1,0,0)" fill="rgb(128,2,2)"/><rect x="983.459" y="205.142" width="15.156" height="0.919" transform="matrix(1,0,0,1,0,0)" fill="rgb(128,2,2)"/><rect x="983.459" y="206.979" width="15.156" height="0.919" transform="matrix(1,0,0,1,0,0)" fill="rgb(128,2,2)"/><rect x="983.459" y="67.364" width="15.156" height="1.607" transform="matrix(1,0,0,1,0,0)" fill="rgb(61,61,64)"/></g><g><path d=" M 991.082 224.661 L 981.565 224.661 C 979.06 267.503 969.149 312.079 951.822 358.378 L 991.082 358.378 L 991.082 224.661 Z " fill="rgb(255,255,255)"/><path d=" M 990.991 224.661 L 1000.509 224.661 C 1003.013 267.503 1012.924 312.079 1030.252 358.378 L 990.991 358.378 L 990.991 224.661 Z " fill="rgb(255,255,255)"/></g></g><g><path d=" M 960.193 16.616 C 950.429 23.08 938.416 39.158 936.541 52.898 C 946.568 52.898 948.252 52.898 960.193 52.898 L 960.193 16.616 Z " fill="rgb(102,52,187)"/><rect x="936.541" y="52.668" width="23.652" height="124.46" transform="matrix(1,0,0,1,0,0)" fill="rgb(154,104,242)"/><g/><g><g><path d=" M 928.963 54.964 C 926.984 57.238 923.138 62.716 921.386 67.321 C 924.598 67.321 925.138 67.321 928.963 67.321 L 928.963 54.964 Z " fill="rgb(223,223,234)"/><rect x="921.386" y="67.242" width="7.578" height="145.707" transform="matrix(1,0,0,1,0,0)" fill="rgb(223,223,234)"/><path d=" M 928.963 54.964 C 930.943 57.238 934.789 62.716 936.541 67.321 C 933.329 67.321 932.789 67.321 928.963 67.321 L 928.963 54.964 Z " fill="rgb(189,189,200)"/><rect x="928.963" y="67.242" width="7.578" height="145.707" transform="matrix(1,0,0,1,0,0)" fill="rgb(189,189,200)"/></g><g><path d=" M 920.237 220.527 L 918.4 224.661 L 928.963 224.661 L 928.963 220.527 L 920.237 220.527 Z " fill="rgb(91,91,94)"/><path d=" M 921.386 209.735 L 917.023 221.446 L 928.963 221.446 L 928.963 209.735 L 921.386 209.735 Z " fill="rgb(223,223,234)"/></g><g><path d=" M 937.689 220.527 L 939.526 224.661 L 928.963 224.661 L 928.963 220.527 L 937.689 220.527 Z " fill="rgb(61,61,64)"/><path d=" M 936.541 209.735 L 940.904 221.446 L 928.963 221.446 L 928.963 209.735 L 936.541 209.735 Z " fill="rgb(189,189,200)"/></g><rect x="921.386" y="201.468" width="15.156" height="0.919" transform="matrix(1,0,0,1,0,0)" fill="rgb(128,2,2)"/><rect x="921.386" y="203.305" width="15.156" height="0.919" transform="matrix(1,0,0,1,0,0)" fill="rgb(128,2,2)"/><rect x="921.386" y="205.142" width="15.156" height="0.919" transform="matrix(1,0,0,1,0,0)" fill="rgb(128,2,2)"/><rect x="921.386" y="206.979" width="15.156" height="0.919" transform="matrix(1,0,0,1,0,0)" fill="rgb(128,2,2)"/><rect x="921.386" y="67.364" width="15.156" height="1.607" transform="matrix(1,0,0,1,0,0)" fill="rgb(61,61,64)"/></g><g><path d=" M 929.009 224.661 L 919.491 224.661 C 916.987 267.503 907.076 312.079 889.748 358.378 L 929.009 358.378 L 929.009 224.661 Z " fill="rgb(255,255,255)"/><path d=" M 928.918 224.661 L 938.435 224.661 C 940.94 267.503 950.851 312.079 968.178 358.378 L 928.918 358.378 L 928.918 224.661 Z " fill="rgb(255,255,255)"/></g></g></g><g><path d=" M 959.807 68.053 C 969.024 75.207 973.691 88.145 973.814 106.861 L 973.814 186.083 L 959.807 186.083 L 959.807 68.053 Z " fill="rgb(240,240,244)"/><path d=" M 1018.133 186.083 L 973.814 186.083 L 973.814 110.075 C 977.063 128.672 984.63 140.382 999.889 151.407 C 1015.148 162.431 1014.613 170.564 1018.133 186.083 Z " fill="rgb(61,61,64)"/><path d=" M 975.881 131.201 C 974.723 128.565 973.825 125.478 973.814 125.461 L 973.814 186.083 L 1013.311 186.083 C 1013.258 185.826 1012.356 180.974 1012.303 180.716 C 1012.029 179.346 1011.745 177.975 1011.448 176.608 C 1011.187 175.394 1010.893 174.186 1010.569 172.987 C 1010.277 171.906 1009.938 170.836 1009.549 169.784 C 1009.182 168.792 1008.757 167.823 1008.275 166.881 C 1007.781 165.921 1007.221 164.996 1006.601 164.112 C 1005.908 163.127 1005.15 162.188 1004.335 161.304 C 1003.37 160.256 1002.346 159.267 1001.267 158.334 C 999.962 157.209 998.61 156.141 997.209 155.136 C 995.273 153.742 993.39 152.277 991.565 150.743 C 989.833 149.287 988.166 147.753 986.573 146.146 C 985.036 144.596 983.581 142.968 982.212 141.266 C 980.869 139.594 979.619 137.851 978.469 136.04 C 978.459 136.024 977.04 133.838 975.881 131.201 Z " fill="rgb(223,223,234)"/><path d=" M 959.807 82.979 L 959.807 68.053 C 964.379 71.602 967.831 76.574 970.156 82.979 L 959.807 82.979 L 959.807 82.979 Z " fill="rgb(61,61,64)"/><path d=" M 960.266 86.653 C 964.219 86.674 968.187 87.98 969.443 90.557 C 969.798 91.739 969.949 92.813 969.902 93.772 C 968.446 93.787 967.533 93.483 966.696 92.853 C 966.651 91.078 962.528 88.949 960.266 88.949 L 960.266 86.653 Z " fill="rgb(38,38,38)"/><mask id="_mask_SQobROnOCZvNqecKymO8M86RXmSRLlvo"><path d=" M 1018.133 186.083 L 1019.052 191.364 L 997.007 193.661 L 997.007 186.083 L 1018.133 186.083 Z " fill="white" stroke="none"/></mask><path d=" M 1018.133 186.083 L 1019.052 191.364 L 997.007 193.661 L 997.007 186.083 L 1018.133 186.083 Z " fill="rgb(223,223,234)" mask="url(#_mask_SQobROnOCZvNqecKymO8M86RXmSRLlvo)" vector-effect="non-scaling-stroke" stroke-width="10" stroke="rgb(61,61,64)" stroke-linejoin="miter" stroke-linecap="square" stroke-miterlimit="3"/><mask id="_mask_z0uyWtX08cb1PLo3VH6YXZnpa7fKc9xn"><path d=" M 995.859 186.083 L 995.859 193.661 L 973.814 198.483 L 973.814 186.083 L 995.859 186.083 Z " fill="white" stroke="none"/></mask><path d=" M 995.859 186.083 L 995.859 193.661 L 973.814 198.483 L 973.814 186.083 L 995.859 186.083 Z " fill="rgb(223,223,234)" mask="url(#_mask_z0uyWtX08cb1PLo3VH6YXZnpa7fKc9xn)" vector-effect="non-scaling-stroke" stroke-width="10" stroke="rgb(61,61,64)" stroke-linejoin="miter" stroke-linecap="square" stroke-miterlimit="3"/><rect x="903.777" y="184.705" width="42.022" height="1.378" transform="matrix(1,0,0,1,0,0)" fill="rgb(61,61,64)"/><g><path d=" M 962.421 223.386 C 962.418 223.554 962.416 223.721 962.416 223.89 L 962.487 223.89 C 963.962 234.992 966.079 246.065 968.847 257.115 C 972.005 245.28 974.214 234.202 975.481 223.89 L 975.546 223.89 C 975.546 223.722 975.544 223.555 975.541 223.389 C 975.543 223.377 975.544 223.366 975.546 223.354 L 975.54 223.354 C 975.399 216.356 972.514 210.761 968.981 210.761 C 965.448 210.761 962.563 216.356 962.422 223.354 L 962.416 223.354 C 962.418 223.365 962.419 223.375 962.421 223.386 Z " fill="rgb(255,95,95)"/><linearGradient id="_lgradient_0" x1="0.4965986394557818" y1="0.11560693641618491" x2="0.5102040816326533" y2="1.1791907514450866" gradientTransform="matrix(8.753,0,0,30.904,964.604,214.85)" gradientUnits="userSpaceOnUse"><stop offset="0%" stop-opacity="1" style="stop-color:rgb(255,149,57)"/><stop offset="10%" stop-opacity="1" style="stop-color:rgb(255,167,52)"/><stop offset="42.173913043478265%" stop-opacity="1" style="stop-color:rgb(244,230,31)"/><stop offset="100%" stop-opacity="1" style="stop-color:rgb(251,246,182)"/></linearGradient><path d=" M 964.607 223.267 C 964.606 223.379 964.604 223.491 964.604 223.603 L 964.652 223.603 C 965.635 231.005 967.046 238.387 968.892 245.754 C 970.997 237.864 972.47 230.478 973.314 223.603 L 973.358 223.603 C 973.358 223.491 973.357 223.38 973.355 223.269 C 973.356 223.261 973.357 223.254 973.358 223.246 L 973.354 223.246 C 973.26 218.58 971.337 214.85 968.981 214.85 C 966.625 214.85 964.702 218.58 964.608 223.246 L 964.604 223.246 C 964.605 223.253 964.606 223.26 964.607 223.267 Z " fill="url(#_lgradient_0)"/></g><g><path d=" M 968.981 178.735 L 968.981 178.735 L 968.981 171.731 L 968.981 171.264 L 968.981 164.727 C 973.662 164.727 977.498 167.616 977.802 171.264 L 977.822 171.264 L 977.822 171.731 L 977.822 200.779 L 968.981 200.779 L 968.981 178.735 Z " fill="rgb(240,240,244)"/><path d=" M 968.981 178.735 L 968.981 178.735 L 968.981 171.731 L 968.981 171.264 L 968.981 164.727 C 964.3 164.727 960.464 167.616 960.16 171.264 L 960.14 171.264 L 960.14 171.731 L 960.14 200.779 L 968.981 200.779 L 968.981 178.735 Z " fill="rgb(248,248,249)"/><path d=" M 961.518 204.683 L 961.518 200.779 L 968.981 200.779 L 968.981 204.683 L 968.981 207.209 C 966.084 207.091 963.599 206.251 961.518 204.683 Z " fill="rgb(91,91,94)"/><path d=" M 976.444 204.683 L 976.444 200.779 L 968.981 200.779 L 968.981 204.683 L 968.981 207.209 C 971.878 207.091 974.363 206.251 976.444 204.683 Z " fill="rgb(61,61,64)"/></g></g><g><path d=" M 959.807 68.053 C 950.59 75.207 945.923 88.145 945.8 106.861 L 945.8 186.083 L 959.807 186.083 L 959.807 68.053 Z " fill="rgb(248,248,249)"/><path d=" M 959.807 82.979 L 959.807 68.053 C 955.235 71.602 951.783 76.574 949.458 82.979 L 959.807 82.979 L 959.807 82.979 Z " fill="rgb(91,91,94)"/><path d=" M 901.481 186.083 L 945.8 186.083 L 945.8 110.075 C 942.551 128.672 934.984 140.382 919.725 151.407 C 904.466 162.431 905.001 170.564 901.481 186.083 Z " fill="rgb(61,61,64)"/><path d=" M 943.733 131.201 C 944.891 128.565 945.789 125.478 945.8 125.461 L 945.8 186.083 L 906.303 186.083 C 906.356 185.826 907.258 180.974 907.311 180.716 C 907.584 179.346 907.869 177.975 908.165 176.608 C 908.427 175.394 908.721 174.186 909.045 172.987 C 909.337 171.906 909.676 170.836 910.065 169.784 C 910.432 168.792 910.857 167.823 911.339 166.881 C 911.833 165.921 912.393 164.996 913.013 164.112 C 913.706 163.127 914.464 162.188 915.279 161.304 C 916.244 160.256 917.268 159.267 918.347 158.334 C 919.652 157.209 921.004 156.141 922.405 155.136 C 924.341 153.742 926.224 152.277 928.049 150.743 C 929.781 149.287 931.448 147.753 933.041 146.146 C 934.578 144.596 936.033 142.968 937.402 141.266 C 938.745 139.594 939.994 137.851 941.145 136.04 C 941.155 136.024 942.574 133.838 943.733 131.201 Z " fill="rgb(223,223,234)"/><path d=" M 959.348 86.653 C 955.395 86.674 951.427 87.98 950.171 90.557 C 949.816 91.739 949.665 92.813 949.712 93.772 C 951.168 93.787 952.081 93.483 952.918 92.853 C 952.963 91.078 957.085 88.949 959.348 88.949 L 959.348 86.653 Z " fill="rgb(38,38,38)"/><mask id="_mask_JF5eDVNdWACD54svOCY2j8lAMmDIBLnF"><path d=" M 901.481 186.083 L 900.562 191.364 L 922.607 193.661 L 922.607 186.083 L 901.481 186.083 Z " fill="white" stroke="none"/></mask><path d=" M 901.481 186.083 L 900.562 191.364 L 922.607 193.661 L 922.607 186.083 L 901.481 186.083 Z " fill="rgb(223,223,234)" mask="url(#_mask_JF5eDVNdWACD54svOCY2j8lAMmDIBLnF)" vector-effect="non-scaling-stroke" stroke-width="10" stroke="rgb(61,61,64)" stroke-linejoin="miter" stroke-linecap="square" stroke-miterlimit="3"/><mask id="_mask_hQ5484gCunnT8dETRxG1teOKMjPgKmc3"><path d=" M 923.755 186.083 L 923.755 193.661 L 945.8 198.483 L 945.8 186.083 L 923.755 186.083 Z " fill="white" stroke="none"/></mask><path d=" M 923.755 186.083 L 923.755 193.661 L 945.8 198.483 L 945.8 186.083 L 923.755 186.083 Z " fill="rgb(223,223,234)" mask="url(#_mask_hQ5484gCunnT8dETRxG1teOKMjPgKmc3)" vector-effect="non-scaling-stroke" stroke-width="10" stroke="rgb(61,61,64)" stroke-linejoin="miter" stroke-linecap="square" stroke-miterlimit="3"/><rect x="903.777" y="184.705" width="42.022" height="1.378" transform="matrix(1,0,0,1,0,0)" fill="rgb(61,61,64)"/><g><path d=" M 944.51 223.386 C 944.507 223.554 944.505 223.721 944.505 223.89 L 944.576 223.89 C 946.05 234.992 948.168 246.065 950.936 257.115 C 954.094 245.28 956.303 234.202 957.569 223.89 L 957.634 223.89 C 957.634 223.722 957.633 223.555 957.63 223.389 C 957.632 223.377 957.633 223.366 957.634 223.354 L 957.629 223.354 C 957.488 216.356 954.603 210.761 951.07 210.761 C 947.537 210.761 944.651 216.356 944.511 223.354 L 944.505 223.354 C 944.507 223.365 944.508 223.375 944.51 223.386 Z " fill="rgb(255,95,95)"/><linearGradient id="_lgradient_1" x1="0.4965986394557818" y1="0.11560693641618491" x2="0.5102040816326533" y2="1.1791907514450866" gradientTransform="matrix(8.753,0,0,30.904,946.693,214.689)" gradientUnits="userSpaceOnUse"><stop offset="0%" stop-opacity="1" style="stop-color:rgb(255,149,57)"/><stop offset="10%" stop-opacity="1" style="stop-color:rgb(255,167,52)"/><stop offset="42.173913043478265%" stop-opacity="1" style="stop-color:rgb(244,230,31)"/><stop offset="100%" stop-opacity="1" style="stop-color:rgb(251,246,182)"/></linearGradient><path d=" M 946.696 223.106 C 946.694 223.218 946.693 223.33 946.693 223.442 L 946.74 223.442 C 947.723 230.844 949.135 238.226 950.981 245.593 C 953.086 237.703 954.559 230.317 955.403 223.442 L 955.446 223.442 C 955.446 223.33 955.445 223.219 955.444 223.108 C 955.445 223.1 955.446 223.093 955.446 223.085 L 955.443 223.085 C 955.349 218.419 953.426 214.689 951.07 214.689 C 948.714 214.689 946.791 218.419 946.697 223.085 L 946.693 223.085 C 946.694 223.092 946.695 223.099 946.696 223.106 Z " fill="url(#_lgradient_1)"/></g><g><path d=" M 951.07 178.735 L 951.07 178.735 L 951.07 171.731 L 951.07 171.264 L 951.07 164.727 C 955.751 164.727 959.587 167.616 959.891 171.264 L 959.911 171.264 L 959.911 171.731 L 959.911 200.779 L 951.07 200.779 L 951.07 178.735 Z " fill="rgb(240,240,244)"/><path d=" M 951.07 178.735 L 951.07 178.735 L 951.07 171.731 L 951.07 171.264 L 951.07 164.727 C 946.389 164.727 942.553 167.616 942.249 171.264 L 942.229 171.264 L 942.229 171.731 L 942.229 200.779 L 951.07 200.779 L 951.07 178.735 Z " fill="rgb(248,248,249)"/><path d=" M 943.607 204.683 L 943.607 200.779 L 951.07 200.779 L 951.07 204.683 L 951.07 207.209 C 948.173 207.091 945.688 206.251 943.607 204.683 Z " fill="rgb(91,91,94)"/><path d=" M 958.533 204.683 L 958.533 200.779 L 951.07 200.779 L 951.07 204.683 L 951.07 207.209 C 953.967 207.091 956.452 206.251 958.533 204.683 Z " fill="rgb(61,61,64)"/></g></g></g></g></g></svg>