<?xml version="1.0" standalone="no"?><!-- Generator: Gravit.io --><svg xmlns="http://www.w3.org/2000/svg" xmlns:xlink="http://www.w3.org/1999/xlink" style="isolation:isolate" viewBox="0 0 1920 300" width="1920" height="300"><defs><clipPath id="_clipPath_QkQ1sGf95JZ7s0BMjicG7y2HNxoLErd7"><rect width="1920" height="300"/></clipPath></defs><g clip-path="url(#_clipPath_QkQ1sGf95JZ7s0BMjicG7y2HNxoLErd7)"><rect width="1920" height="300" style="fill:rgb(44,12,80)"/><circle vector-effect="non-scaling-stroke" cx="960" cy="300.0000000000001" r="301.2516942225216" fill="rgb(26,8,57)"/><circle vector-effect="non-scaling-stroke" cx="960" cy="300" r="235.25169422252134" fill="rgb(33,13,68)"/><circle vector-effect="non-scaling-stroke" cx="960" cy="300" r="176.2516942225211" fill="rgb(44,12,80)"/><g><g><g><rect x="971.469" y="173.414" width="14.88" height="2.892" transform="matrix(-0.524,-0.852,0.852,-0.524,1342.561,1100.385)" fill="rgb(156,152,168)"/><rect x="981.305" y="177.814" width="0.969" height="3.467" transform="matrix(-0.524,-0.852,0.852,-0.524,1342.958,1109.981)" fill="rgb(131,129,134)"/><rect x="981.445" y="178.686" width="1.938" height="3.755" transform="matrix(-0.524,-0.852,0.852,-0.524,1343.044,1112.06)" fill="rgb(189,189,200)"/></g><g><rect x="966.34" y="176.567" width="14.88" height="2.892" transform="matrix(-0.524,-0.852,0.852,-0.524,1332.061,1100.819)" fill="rgb(156,152,168)"/><rect x="976.177" y="180.966" width="0.969" height="3.467" transform="matrix(-0.524,-0.852,0.852,-0.524,1332.458,1110.415)" fill="rgb(131,129,134)"/><rect x="976.316" y="181.838" width="1.938" height="3.755" transform="matrix(-0.524,-0.852,0.852,-0.524,1332.544,1112.494)" fill="rgb(189,189,200)"/></g><rect x="956.187" y="206.931" width="101.196" height="38.362" transform="matrix(-0.524,-0.852,0.852,-0.524,1341.372,1202.224)" fill="rgb(223,223,234)"/><g><rect x="967.279" y="194.92" width="29.611" height="15.812" transform="matrix(-0.524,-0.852,0.852,-0.524,1323.575,1145.7)" fill="rgb(49,48,51)"/><rect x="984.479" y="222.902" width="29.611" height="15.812" transform="matrix(-0.524,-0.852,0.852,-0.524,1325.944,1202.988)" fill="rgb(49,48,51)"/><rect x="1001.679" y="250.883" width="29.611" height="15.812" transform="matrix(-0.524,-0.852,0.852,-0.524,1328.312,1260.276)" fill="rgb(49,48,51)"/><rect x="982.452" y="185.509" width="29.611" height="15.812" transform="matrix(-0.524,-0.852,0.852,-0.524,1354.711,1144.287)" fill="rgb(49,48,51)"/><rect x="999.689" y="213.552" width="29.611" height="15.812" transform="matrix(-0.524,-0.852,0.852,-0.524,1357.085,1201.7)" fill="rgb(49,48,51)"/><rect x="1016.852" y="241.472" width="29.611" height="15.812" transform="matrix(-0.524,-0.852,0.852,-0.524,1359.448,1258.863)" fill="rgb(49,48,51)"/></g></g><g><g><rect x="938.917" y="120.457" width="14.88" height="2.892" transform="matrix(-0.524,-0.852,0.852,-0.524,1338.078,991.964)" fill="rgb(156,152,168)"/><rect x="942.991" y="115.482" width="0.969" height="3.467" transform="matrix(-0.524,-0.852,0.852,-0.524,1337.682,982.368)" fill="rgb(131,129,134)"/><rect x="941.882" y="114.323" width="1.938" height="3.755" transform="matrix(-0.524,-0.852,0.852,-0.524,1337.596,980.289)" fill="rgb(189,189,200)"/></g><g><rect x="933.788" y="123.609" width="14.88" height="2.892" transform="matrix(-0.524,-0.852,0.852,-0.524,1327.578,992.398)" fill="rgb(156,152,168)"/><rect x="937.863" y="118.635" width="0.969" height="3.467" transform="matrix(-0.524,-0.852,0.852,-0.524,1327.182,982.802)" fill="rgb(131,129,134)"/><rect x="936.754" y="117.476" width="1.938" height="3.755" transform="matrix(-0.524,-0.852,0.852,-0.524,1327.096,980.723)" fill="rgb(189,189,200)"/></g><rect x="862.617" y="54.706" width="101.196" height="38.362" transform="matrix(-0.524,-0.852,0.852,-0.524,1328.487,890.57)" fill="rgb(223,223,234)"/><g><rect x="908.033" y="98.536" width="29.611" height="15.812" transform="matrix(-0.524,-0.852,0.852,-0.524,1315.416,948.371)" fill="rgb(49,48,51)"/><rect x="890.833" y="70.554" width="29.611" height="15.812" transform="matrix(-0.524,-0.852,0.852,-0.524,1313.048,891.083)" fill="rgb(49,48,51)"/><rect x="873.633" y="42.572" width="29.611" height="15.812" transform="matrix(-0.524,-0.852,0.852,-0.524,1310.679,833.795)" fill="rgb(49,48,51)"/><rect x="923.281" y="89.248" width="29.611" height="15.812" transform="matrix(-0.524,-0.852,0.852,-0.524,1346.563,947.209)" fill="rgb(49,48,51)"/><rect x="906.044" y="61.204" width="29.611" height="15.812" transform="matrix(-0.524,-0.852,0.852,-0.524,1344.189,889.795)" fill="rgb(49,48,51)"/><rect x="888.881" y="33.284" width="29.611" height="15.812" transform="matrix(-0.524,-0.852,0.852,-0.524,1341.825,832.632)" fill="rgb(49,48,51)"/></g></g><g><path d=" M 1008.857 130.511 C 1004.87 132.962 999.642 131.715 997.191 127.727 C 994.74 123.74 995.987 118.512 999.975 116.061 C 1003.963 113.61 1009.19 114.857 1011.641 118.845 C 1014.092 122.833 1012.845 128.06 1008.857 130.511 Z " fill="rgb(189,189,200)"/><rect x="916.217" y="168.228" width="11.849" height="12.879" transform="matrix(-0.524,-0.852,0.852,-0.524,1256.231,1051.731)" fill="rgb(189,189,200)"/><path d="M 1005.111 137.224 L 992.294 116.373 C 991.966 115.84 992.133 115.141 992.666 114.814 L 996.449 112.489 C 996.982 112.161 997.68 112.328 998.008 112.861 L 1010.825 133.712 C 1011.152 134.245 1010.985 134.943 1010.453 135.271 L 1006.669 137.596 C 1006.137 137.923 1005.438 137.757 1005.111 137.224 Z" style="stroke:none;fill:#DFDFEA;stroke-miterlimit:10;"/><path d="M 1002.774 144.479 L 984.766 115.181 C 984.35 114.505 984.562 113.619 985.237 113.204 L 989.385 110.654 C 990.061 110.239 990.947 110.45 991.363 111.126 L 1009.371 140.424 C 1009.787 141.1 1009.575 141.986 1008.9 142.401 L 1004.752 144.951 C 1004.076 145.366 1003.19 145.155 1002.774 144.479 Z" style="stroke:none;fill:#9C98A8;stroke-miterlimit:10;"/><path d="M 932.665 184.705 L 918.498 161.658 C 918.189 161.156 918.346 160.497 918.849 160.188 L 921.682 158.447 C 922.184 158.138 922.842 158.295 923.151 158.798 L 937.318 181.845 C 937.627 182.347 937.47 183.006 936.967 183.314 L 934.134 185.056 C 933.632 185.365 932.973 185.207 932.665 184.705 Z" style="stroke:none;fill:#DFDFEA;stroke-miterlimit:10;"/><path d="M 935.773 186.743 L 917.523 157.053 C 917.175 156.486 917.352 155.742 917.92 155.393 L 920.516 153.797 C 921.084 153.448 921.828 153.625 922.177 154.193 L 940.427 183.883 C 940.776 184.45 940.598 185.194 940.03 185.543 L 937.434 187.139 C 936.866 187.488 936.122 187.311 935.773 186.743 Z" style="stroke:none;fill:#9C98A8;stroke-miterlimit:10;"/><path d="M 941.734 191.278 L 916.169 149.687 C 915.754 149.011 915.965 148.125 916.641 147.709 L 982.67 107.123 C 983.346 106.707 984.232 106.919 984.647 107.594 L 1010.212 149.185 C 1010.628 149.861 1010.416 150.747 1009.74 151.163 L 943.712 191.75 C 943.036 192.165 942.15 191.954 941.734 191.278 Z" style="stroke:none;fill:#DFDFEA;stroke-miterlimit:10;"/><path d=" M 924.44 155.678 L 920.609 149.446 L 931.288 142.883 L 935.118 149.114 L 924.44 155.678 Z " fill="rgb(154,104,242)"/><path d=" M 953.906 171.493 L 943.149 153.992 L 973.139 135.557 L 983.897 153.058 L 953.906 171.493 Z " fill="rgb(154,104,242)"/><path d=" M 953.906 171.493 L 943.149 153.992 L 951.595 148.8 L 955.495 170.516 L 953.906 171.493 Z " fill="rgb(49,48,51)"/><path d=" M 966.761 163.591 L 963.351 141.574 L 973.139 135.557 L 983.897 153.058 L 966.761 163.591 Z " fill="rgb(102,52,187)"/><path d=" M 937.028 147.94 L 933.198 141.708 L 943.876 135.144 L 947.707 141.376 L 937.028 147.94 Z " fill="rgb(102,52,187)"/></g><g><path d=" M 892.7 162.426 C 902.887 156.164 917.223 160.947 924.694 173.1 C 932.164 185.253 929.958 200.204 919.771 206.466 L 906.235 184.446 L 892.7 162.426 Z " fill="rgb(223,223,234)"/><path d=" M 919.771 206.466 C 918.48 207.259 911.367 198.036 903.897 185.883 C 896.426 173.73 891.409 163.219 892.7 162.426 C 893.991 161.632 901.104 170.855 908.574 183.008 C 916.045 195.161 921.062 205.672 919.771 206.466 Z " fill="rgb(156,152,168)"/><g><polygon points="909.702,184.843,900.157,188.791,907.99,182.057" fill="rgb(189,189,200)"/><path d=" M 901.738 189.738 C 900.97 190.211 899.962 189.97 899.489 189.201 C 899.017 188.432 899.257 187.425 900.026 186.952 C 900.795 186.48 901.802 186.72 902.275 187.489 C 902.748 188.258 902.507 189.265 901.738 189.738 Z " fill="rgb(189,189,200)"/></g></g></g></g></svg>