<?xml version="1.0" standalone="no"?><!-- Generator: Gravit.io --><svg xmlns="http://www.w3.org/2000/svg" xmlns:xlink="http://www.w3.org/1999/xlink" style="isolation:isolate" viewBox="0 0 1920 300" width="1920" height="300"><defs><clipPath id="_clipPath_tRuWw5ol8YDXFoFcVmpCFRgcHjIM7NYT"><rect width="1920" height="300"/></clipPath></defs><g clip-path="url(#_clipPath_tRuWw5ol8YDXFoFcVmpCFRgcHjIM7NYT)"><g><rect x="1513.711" y="401.287" width="78.253" height="39.492" transform="matrix(-0.004,1,-1,-0.004,1980.819,-1129.904)" fill="rgb(255,255,255)"/><rect x="1492.48" y="468.717" width="139.7" height="70.503" transform="matrix(-0.004,1,-1,-0.004,2073.288,-1056.09)" fill="rgb(255,255,255)"/><rect x="1657.24" y="436.291" width="10.434" height="146.686" transform="matrix(-0.004,1,-1,-0.004,2179.528,-1150.525)" fill="rgb(255,255,255)"/><rect x="1634.565" y="482.81" width="10.434" height="101.552" transform="matrix(-0.004,1,-1,-0.004,2180.705,-1103.791)" fill="rgb(255,255,255)"/><path d=" M 1494.406 240.572 L 1494.85 141.452 L 1359.449 140.846" fill="none" vector-effect="non-scaling-stroke" stroke-width="2" stroke="rgb(255,255,255)" stroke-linejoin="miter" stroke-linecap="square" stroke-miterlimit="3"/><g><path d=" M 1618.448 177.476 C 1582.141 218.498 1509.672 219.257 1456.718 179.171 C 1403.764 139.085 1390.249 73.236 1426.556 32.215 L 1522.502 104.846 L 1618.448 177.476 Z " fill="none" vector-effect="non-scaling-stroke" stroke-width="3" stroke="rgb(255,255,255)" stroke-linejoin="miter" stroke-linecap="square" stroke-miterlimit="3"/><path d=" M 1426.556 32.215 C 1431.156 27.017 1477.883 55.342 1530.837 95.428 C 1583.791 135.514 1623.048 172.279 1618.448 177.476 C 1613.847 182.674 1567.121 154.349 1514.167 114.263 C 1461.213 74.177 1421.956 37.412 1426.556 32.215 Z " fill="none" vector-effect="non-scaling-stroke" stroke-width="3" stroke="rgb(255,255,255)" stroke-linejoin="miter" stroke-linecap="square" stroke-miterlimit="3"/><g><polygon points="1506.172,108.211,1543.209,77.817,1518.311,117.4" fill="none" vector-effect="non-scaling-stroke" stroke-width="3" stroke="rgb(255,255,255)" stroke-linejoin="miter" stroke-linecap="square" stroke-miterlimit="7"/><path d=" M 1534.555 76.143 C 1537.295 73.048 1542.239 72.593 1545.588 75.129 C 1548.938 77.665 1549.433 82.237 1546.693 85.332 C 1543.953 88.428 1539.009 88.883 1535.66 86.347 C 1532.31 83.811 1531.815 79.239 1534.555 76.143 Z " fill="none" vector-effect="non-scaling-stroke" stroke-width="3" stroke="rgb(255,255,255)" stroke-linejoin="miter" stroke-linecap="square" stroke-miterlimit="3"/></g></g><g><path d=" M 512.589 731.032 L 447.113 795.924 L 448.499 486.301 L 513.683 486.593 L 512.589 731.032 Z " fill="rgb(77,76,76)"/><g><path d=" M 440.943 1152.425 L 440.667 1214.053 L 418.031 1229.36 L 418.686 1082.991 L 441.184 1098.5 L 440.943 1152.425 Z " fill="rgb(110,115,136)"/><path d=" M 568.192 1083.661 L 585.117 1083.737 L 586.273 825.666 L 569.347 825.591 L 568.192 1083.661 Z " fill="rgb(110,115,136)"/><path d=" M 435.943 1147.742 L 429.101 1151.101 L 439.045 1160.505 L 445.943 1157.108 L 828.233 968.345 L 828.867 826.753 L 828.892 820.975 L 811.967 820.899 L 811.941 826.677 L 811.334 962.414 L 435.943 1147.742 Z " fill="rgb(110,115,136)"/></g><path d=" M 981.31 488.47 L 979.982 785.059 L 865.365 865.435 L 511.994 863.853 L 513.684 486.377 L 981.31 488.47 Z " fill="rgb(100,49,189)"/><path d=" M 513.684 486.377 L 512.167 825.335 L 833.093 826.771 L 927.889 761.837 L 929.114 488.237 L 513.684 486.377 Z " fill="rgb(123,92,176)"/><path d=" M 1545.482 490.996 L 1544.413 729.807 L 1340.69 867.563 L 1098.096 866.477 L 979.982 785.059 L 981.31 488.47 L 1545.482 490.996 Z " fill="rgb(223,223,234)"/><path d=" M 1263.275 516.696 L 1020.247 515.608 L 1019.08 776.356 L 1110.785 839.57 L 1321.733 840.515 L 1505.414 716.311 L 1506.303 517.784 L 1263.275 516.696 Z " fill="rgb(158,208,255)"/><clipPath id="_clipPath_TCWETtJOOKnNCrDJj52YxfYmNqbLtZq9"><path d=" M 1263.275 516.696 L 1020.247 515.608 L 1019.08 776.356 L 1110.785 839.57 L 1321.733 840.515 L 1505.414 716.311 L 1506.303 517.784 L 1263.275 516.696 Z " fill="rgb(158,208,255)"/></clipPath><g clip-path="url(#_clipPath_TCWETtJOOKnNCrDJj52YxfYmNqbLtZq9)"><rect x="923.728" y="440.724" width="323.554" height="473.909" transform="matrix(-0.004,1,-1,-0.004,1768.037,-404.781)" fill="rgb(110,115,136)"/></g><path d=" M 1274.481 531.913 L 1055.864 530.934 L 1054.814 765.491 L 1137.308 822.356 L 1321.801 823.182 L 1492.298 711.478 L 1493.098 532.892 L 1274.481 531.913 Z " fill="rgb(73,133,189)"/><clipPath id="_clipPath_N1vrM0A21WbyGwRSRloWgyi7AYAPgtsv"><path d=" M 1274.481 531.913 L 1055.864 530.934 L 1054.814 765.491 L 1137.308 822.356 L 1321.801 823.182 L 1492.298 711.478 L 1493.098 532.892 L 1274.481 531.913 Z " fill="rgb(73,133,189)"/></clipPath><g clip-path="url(#_clipPath_N1vrM0A21WbyGwRSRloWgyi7AYAPgtsv)"><path d=" M 1100.453 828.627 C 1170.742 828.949 1244.765 827.141 1322.543 823.185 L 1323.846 532.134 L 902.068 530.246 L 900.764 821.297 C 963.608 825.856 1030.164 828.306 1100.453 828.627 Z " fill="rgb(110,115,136)"/></g><g><path d=" M 366.598 580.089 L 392.808 562.366 L 393.151 485.837 L 367.021 485.72 L 366.598 580.089 Z " fill="rgb(110,115,136)"/><rect x="602.095" y="277.827" width="19.259" height="437.238" transform="matrix(-0.004,1,-1,-0.004,1110.904,-113.05)" fill="rgb(110,115,136)"/></g><g><path d=" M 1506.414 490.821 L 1506.19 540.895 L 1019.858 600.347 L 1020.358 488.645 L 1506.414 490.821 Z " fill="rgb(214,220,232)"/><path d=" M 1457.592 490.603 L 1457.39 535.646 L 1019.908 589.127 L 1020.358 488.645 L 1457.592 490.603 Z " fill="rgb(156,152,168)"/><path d=" M 1199.917 489.449 L 1199.693 539.523 L 1020.048 557.978 L 1020.358 488.645 L 1199.917 489.449 Z " fill="rgb(100,99,99)"/></g><g><rect x="534.09" y="486.494" width="11.284" height="46.222" transform="matrix(-1,-0.004,0.004,-1,1077.177,1021.621)" fill="rgb(110,115,136)"/><rect x="562.299" y="486.62" width="11.284" height="46.222" transform="matrix(-1,-0.004,0.004,-1,1133.594,1022)" fill="rgb(110,115,136)"/><rect x="590.507" y="486.746" width="11.284" height="46.222" transform="matrix(-1,-0.004,0.004,-1,1190.01,1022.379)" fill="rgb(110,115,136)"/><rect x="618.716" y="486.873" width="11.284" height="46.222" transform="matrix(-1,-0.004,0.004,-1,1246.426,1022.757)" fill="rgb(110,115,136)"/><rect x="646.925" y="486.999" width="11.284" height="46.222" transform="matrix(-1,-0.004,0.004,-1,1302.843,1023.136)" fill="rgb(110,115,136)"/><rect x="675.133" y="487.125" width="11.284" height="46.222" transform="matrix(-1,-0.004,0.004,-1,1359.259,1023.515)" fill="rgb(110,115,136)"/><rect x="703.342" y="487.251" width="11.284" height="46.222" transform="matrix(-1,-0.004,0.004,-1,1415.675,1023.894)" fill="rgb(110,115,136)"/><rect x="731.551" y="487.378" width="11.284" height="46.222" transform="matrix(-1,-0.004,0.004,-1,1472.092,1024.273)" fill="rgb(110,115,136)"/><rect x="759.759" y="487.504" width="11.284" height="46.222" transform="matrix(-1,-0.004,0.004,-1,1528.508,1024.652)" fill="rgb(110,115,136)"/><rect x="787.968" y="487.63" width="11.284" height="46.222" transform="matrix(-1,-0.004,0.004,-1,1584.924,1025.031)" fill="rgb(110,115,136)"/><rect x="816.176" y="487.757" width="11.284" height="46.222" transform="matrix(-1,-0.004,0.004,-1,1641.341,1025.409)" fill="rgb(110,115,136)"/><rect x="844.385" y="487.883" width="11.284" height="46.222" transform="matrix(-1,-0.004,0.004,-1,1697.757,1025.788)" fill="rgb(110,115,136)"/><rect x="872.594" y="488.009" width="11.284" height="46.222" transform="matrix(-1,-0.004,0.004,-1,1754.174,1026.167)" fill="rgb(110,115,136)"/><rect x="900.802" y="488.136" width="11.284" height="46.222" transform="matrix(-1,-0.004,0.004,-1,1810.59,1026.546)" fill="rgb(110,115,136)"/><rect x="929.011" y="488.262" width="11.284" height="46.222" transform="matrix(-1,-0.004,0.004,-1,1867.006,1026.925)" fill="rgb(110,115,136)"/><rect x="957.219" y="488.388" width="11.284" height="46.222" transform="matrix(-1,-0.004,0.004,-1,1923.423,1027.304)" fill="rgb(110,115,136)"/><rect x="985.428" y="488.514" width="11.284" height="46.222" transform="matrix(-1,-0.004,0.004,-1,1979.839,1027.683)" fill="rgb(110,115,136)"/><rect x="1014.613" y="488.645" width="11.284" height="46.222" transform="matrix(-1,-0.004,0.004,-1,2038.208,1028.075)" fill="rgb(110,115,136)"/><rect x="534.09" y="486.494" width="11.284" height="46.222" transform="matrix(-1,-0.004,0.004,-1,1077.177,1021.621)" fill="rgb(110,115,136)"/><rect x="770.431" y="280.157" width="7.704" height="491.811" transform="matrix(-0.004,1,-1,-0.004,1303.806,-245.857)" fill="rgb(110,115,136)"/></g><g><g><path d=" M 1271.274 933.207 L 1288.176 938.499 L 1288.222 928.066 L 1271.297 927.99 L 1271.274 933.207 Z " fill="rgb(119,118,118)"/><path d=" M 1271.321 922.773 L 1288.269 917.632 L 1288.222 928.066 L 1271.297 927.99 L 1271.321 922.773 Z " fill="rgb(77,76,76)"/></g><g><path d=" M 1209.215 932.929 L 1192.267 938.07 L 1192.313 927.636 L 1209.238 927.712 L 1209.215 932.929 Z " fill="rgb(119,118,118)"/><path d=" M 1209.262 922.495 L 1192.36 917.203 L 1192.313 927.636 L 1209.238 927.712 L 1209.262 922.495 Z " fill="rgb(77,76,76)"/></g><g><path d=" M 1237.377 943.489 L 1231.665 959.114 L 1242.949 959.165 L 1243.019 943.514 L 1237.377 943.489 Z " fill="rgb(119,118,118)"/><path d=" M 1248.66 943.539 L 1254.232 959.215 L 1242.949 959.165 L 1243.019 943.514 L 1248.66 943.539 Z " fill="rgb(77,76,76)"/></g><rect x="1224.617" y="896.821" width="31.301" height="62.06" transform="matrix(-0.004,1,-1,-0.004,2173.662,-308.25)" fill="rgb(223,223,234)"/><path d=" M 1260.294 865.338 L 1260.061 917.506 L 1231.852 917.38 L 1186.952 865.009 L 1260.294 865.338 Z " fill="rgb(223,223,234)"/></g></g><path d=" M 514.778 242.154 L 449.886 176.678 L 448.499 486.301 L 513.683 486.593 L 514.778 242.154 Z " fill="none" vector-effect="non-scaling-stroke" stroke-width="3" stroke="rgb(255,255,255)" stroke-linejoin="miter" stroke-linecap="square" stroke-miterlimit="3"/><g><g><path d=" M 446.908 -179.863 L 447.184 -241.492 L 424.686 -257 L 424.03 -110.632 L 446.666 -125.938 L 446.908 -179.863 Z " fill="rgb(168,168,168)"/><path d=" M 573.536 -109.963 L 590.461 -109.887 L 589.306 148.183 L 572.381 148.108 L 573.536 -109.963 Z " fill="none" vector-effect="non-scaling-stroke" stroke-width="3" stroke="rgb(255,255,255)" stroke-linejoin="miter" stroke-linecap="square" stroke-miterlimit="3"/><path d=" M 441.866 -175.225 L 435.054 -178.645 L 445.082 -187.96 L 451.95 -184.501 L 832.534 7.678 L 831.9 149.269 L 831.874 155.047 L 814.949 154.971 L 814.975 149.194 L 815.582 13.457 L 441.866 -175.225 Z " fill="none" vector-effect="non-scaling-stroke" stroke-width="3" stroke="rgb(255,255,255)" stroke-linejoin="miter" stroke-linecap="square" stroke-miterlimit="3"/></g><path d=" M 981.308 488.903 L 982.636 192.315 L 868.743 110.916 L 515.361 111.786 L 513.682 486.809 L 981.308 488.903 Z " fill="none" vector-effect="non-scaling-stroke" stroke-width="3" stroke="rgb(255,255,255)" stroke-linejoin="miter" stroke-linecap="square" stroke-miterlimit="3"/><path d=" M 513.682 486.809 L 515.162 156.398 L 836.126 149.288 L 930.337 215.069 L 929.112 488.669 L 513.682 486.809 Z " fill="none" vector-effect="non-scaling-stroke" stroke-width="3" stroke="rgb(255,255,255)" stroke-linejoin="miter" stroke-linecap="square" stroke-miterlimit="3"/><path d=" M 1545.48 491.429 L 1546.549 252.618 L 1344.068 113.044 L 1101.474 111.958 L 982.636 192.315 L 981.308 488.903 L 1545.48 491.429 Z " fill="none" vector-effect="non-scaling-stroke" stroke-width="3" stroke="rgb(255,255,255)" stroke-linejoin="miter" stroke-linecap="square" stroke-miterlimit="3"/><path d=" M 1263.497 467.055 L 1020.469 465.967 L 1021.637 205.219 L 1113.904 142.828 L 1324.852 143.773 L 1507.414 269.616 L 1506.525 468.143 L 1263.497 467.055 Z " fill="none" vector-effect="non-scaling-stroke" stroke-width="3" stroke="rgb(255,255,255)" stroke-linejoin="miter" stroke-linecap="square" stroke-miterlimit="3"/><clipPath id="_clipPath_oHLtMlExeUNN0Fi2biQ1shTnZObsw2CY"><path d=" M 1263.497 467.055 L 1020.469 465.967 L 1021.637 205.219 L 1113.904 142.828 L 1324.852 143.773 L 1507.414 269.616 L 1506.525 468.143 L 1263.497 467.055 Z " fill="none" vector-effect="non-scaling-stroke" stroke-width="3" stroke="rgb(255,255,255)" stroke-linejoin="miter" stroke-linecap="square" stroke-miterlimit="3"/></clipPath><g clip-path="url(#_clipPath_oHLtMlExeUNN0Fi2biQ1shTnZObsw2CY)"><rect x="925.399" y="67.533" width="323.554" height="473.909" transform="matrix(-0.004,1,-1,-0.004,1396.527,-781.314)" fill="none" vector-effect="non-scaling-stroke" stroke-width="3" stroke="rgb(255,255,255)" stroke-linejoin="miter" stroke-linecap="square" stroke-miterlimit="2"/></g><path d=" M 1263.497 467.055 L 1020.469 465.967 L 1021.637 205.219 L 1113.904 142.828 L 1324.852 143.773 L 1507.414 269.616 L 1506.525 468.143 L 1263.497 467.055 Z " fill="transparent" vector-effect="non-scaling-stroke" stroke-width="3" stroke="rgb(255,255,255)" stroke-linejoin="miter" stroke-linecap="square" stroke-miterlimit="3"/><path d=" M 1283.307 450.894 L 1064.69 449.915 L 1065.74 215.358 L 1148.739 159.234 L 1333.233 160.06 L 1502.723 273.287 L 1501.923 451.873 L 1283.307 450.894 Z " fill="none" vector-effect="non-scaling-stroke" stroke-width="3" stroke="rgb(255,255,255)" stroke-linejoin="miter" stroke-linecap="square" stroke-miterlimit="3"/><clipPath id="_clipPath_8L1I56Y0kBfOWbUT2uTRomloransvHx4"><path d=" M 1283.307 450.894 L 1064.69 449.915 L 1065.74 215.358 L 1148.739 159.234 L 1333.233 160.06 L 1502.723 273.287 L 1501.923 451.873 L 1283.307 450.894 Z " fill="none" vector-effect="non-scaling-stroke" stroke-width="3" stroke="rgb(255,255,255)" stroke-linejoin="miter" stroke-linecap="square" stroke-miterlimit="3"/></clipPath><g clip-path="url(#_clipPath_8L1I56Y0kBfOWbUT2uTRomloransvHx4)"><path d=" M 1333.975 160.064 L 1332.672 451.115 L 910.893 449.226 L 912.196 158.175 L 1333.975 160.064 Z " fill="none" vector-effect="non-scaling-stroke" stroke-width="3" stroke="rgb(255,255,255)" stroke-linejoin="miter" stroke-linecap="square" stroke-miterlimit="3"/></g><path d=" M 1283.307 450.894 L 1064.69 449.915 L 1065.74 215.358 L 1148.739 159.234 L 1333.233 160.06 L 1502.723 273.287 L 1501.923 451.873 L 1283.307 450.894 Z " fill="transparent" vector-effect="non-scaling-stroke" stroke-width="3" stroke="rgb(255,255,255)" stroke-linejoin="miter" stroke-linecap="square" stroke-miterlimit="3"/><g><path d=" M 367.441 391.784 L 393.491 409.741 L 393.149 486.27 L 367.019 486.153 L 367.441 391.784 Z " fill="rgb(168,168,168)"/><rect x="602.179" y="259" width="19.259" height="437.238" transform="matrix(-0.004,1,-1,-0.004,1092.162,-132.045)" fill="rgb(168,168,168)"/></g><g><path d=" M 1506.412 491.254 L 1506.636 441.181 L 1020.856 377.376 L 1020.356 489.078 L 1506.412 491.254 Z " fill="rgb(255,255,255)"/><path d=" M 1457.59 491.035 L 1457.791 445.992 L 1020.806 388.596 L 1020.356 489.078 L 1457.59 491.035 Z " fill="rgb(214,220,232)"/><path d=" M 1199.915 489.882 L 1200.139 439.808 L 1020.667 419.746 L 1020.356 489.078 L 1199.915 489.882 Z " fill="rgb(119,118,118)"/></g><g><rect x="534.295" y="440.705" width="11.284" height="46.222" transform="matrix(1,0.004,-0.004,1,2.082,-2.413)" fill="rgb(130,129,129)"/><rect x="562.504" y="440.831" width="11.284" height="46.222" transform="matrix(1,0.004,-0.004,1,2.083,-2.539)" fill="rgb(130,129,129)"/><rect x="590.712" y="440.957" width="11.284" height="46.222" transform="matrix(1,0.004,-0.004,1,2.084,-2.665)" fill="rgb(130,129,129)"/><rect x="618.921" y="441.084" width="11.284" height="46.222" transform="matrix(1,0.004,-0.004,1,2.084,-2.792)" fill="rgb(130,129,129)"/><rect x="647.13" y="441.21" width="11.284" height="46.222" transform="matrix(1,0.004,-0.004,1,2.085,-2.918)" fill="rgb(130,129,129)"/><rect x="675.338" y="441.336" width="11.284" height="46.222" transform="matrix(1,0.004,-0.004,1,2.086,-3.044)" fill="rgb(130,129,129)"/><rect x="703.547" y="441.462" width="11.284" height="46.222" transform="matrix(1,0.004,-0.004,1,2.087,-3.17)" fill="rgb(130,129,129)"/><rect x="731.756" y="441.589" width="11.284" height="46.222" transform="matrix(1,0.004,-0.004,1,2.088,-3.297)" fill="rgb(130,129,129)"/><rect x="759.964" y="441.715" width="11.284" height="46.222" transform="matrix(1,0.004,-0.004,1,2.089,-3.423)" fill="rgb(130,129,129)"/><rect x="788.173" y="441.841" width="11.284" height="46.222" transform="matrix(1,0.004,-0.004,1,2.09,-3.549)" fill="rgb(130,129,129)"/><rect x="816.381" y="441.968" width="11.284" height="46.222" transform="matrix(1,0.004,-0.004,1,2.09,-3.676)" fill="rgb(130,129,129)"/><rect x="844.59" y="442.094" width="11.284" height="46.222" transform="matrix(1,0.004,-0.004,1,2.091,-3.802)" fill="rgb(130,129,129)"/><rect x="872.799" y="442.22" width="11.284" height="46.222" transform="matrix(1,0.004,-0.004,1,2.092,-3.928)" fill="rgb(130,129,129)"/><rect x="901.007" y="442.347" width="11.284" height="46.222" transform="matrix(1,0.004,-0.004,1,2.093,-4.054)" fill="rgb(130,129,129)"/><rect x="929.216" y="442.473" width="11.284" height="46.222" transform="matrix(1,0.004,-0.004,1,2.094,-4.181)" fill="rgb(130,129,129)"/><rect x="957.424" y="442.599" width="11.284" height="46.222" transform="matrix(1,0.004,-0.004,1,2.095,-4.307)" fill="rgb(130,129,129)"/><rect x="985.633" y="442.725" width="11.284" height="46.222" transform="matrix(1,0.004,-0.004,1,2.095,-4.433)" fill="rgb(130,129,129)"/><rect x="1014.818" y="442.856" width="11.284" height="46.222" transform="matrix(1,0.004,-0.004,1,2.096,-4.564)" fill="rgb(130,129,129)"/><rect x="534.295" y="440.705" width="11.284" height="46.222" transform="matrix(1,0.004,-0.004,1,2.082,-2.413)" fill="rgb(130,129,129)"/><rect x="770.774" y="203.553" width="7.704" height="491.811" transform="matrix(-0.004,1,-1,-0.004,1227.548,-323.147)" fill="rgb(130,129,129)"/></g><g><g><path d=" M 1275.243 46.781 L 1292.191 41.64 L 1292.144 52.073 L 1275.219 51.998 L 1275.243 46.781 Z " fill="none" vector-effect="non-scaling-stroke" stroke-width="3" stroke="rgb(255,255,255)" stroke-linejoin="miter" stroke-linecap="square" stroke-miterlimit="3"/><path d=" M 1275.196 57.214 L 1292.098 62.507 L 1292.144 52.073 L 1275.219 51.998 L 1275.196 57.214 Z " fill="none" vector-effect="non-scaling-stroke" stroke-width="3" stroke="rgb(255,255,255)" stroke-linejoin="miter" stroke-linecap="square" stroke-miterlimit="3"/></g><g><path d=" M 1213.184 46.503 L 1196.282 41.21 L 1196.235 51.644 L 1213.16 51.72 L 1213.184 46.503 Z " fill="none" vector-effect="non-scaling-stroke" stroke-width="3" stroke="rgb(255,255,255)" stroke-linejoin="miter" stroke-linecap="square" stroke-miterlimit="3"/><path d=" M 1213.137 56.937 L 1196.188 62.078 L 1196.235 51.644 L 1213.16 51.72 L 1213.137 56.937 Z " fill="none" vector-effect="non-scaling-stroke" stroke-width="3" stroke="rgb(255,255,255)" stroke-linejoin="miter" stroke-linecap="square" stroke-miterlimit="3"/></g><g><path d=" M 1241.439 36.196 L 1235.867 20.52 L 1247.151 20.57 L 1247.081 36.221 L 1241.439 36.196 Z " fill="none" vector-effect="non-scaling-stroke" stroke-width="3" stroke="rgb(255,255,255)" stroke-linejoin="miter" stroke-linecap="square" stroke-miterlimit="3"/><path d=" M 1252.722 36.246 L 1258.434 20.621 L 1247.151 20.57 L 1247.122 27.018 L 1247.081 36.221 L 1252.722 36.246 Z " fill="none" vector-effect="non-scaling-stroke" stroke-width="3" stroke="rgb(255,255,255)" stroke-linejoin="miter" stroke-linecap="square" stroke-miterlimit="3"/></g><rect x="1228.539" y="20.829" width="31.301" height="62.06" transform="matrix(-0.004,1,-1,-0.004,1301.618,-1192.086)" fill="none" vector-effect="non-scaling-stroke" stroke-width="3" stroke="rgb(255,255,255)" stroke-linejoin="miter" stroke-linecap="square" stroke-miterlimit="2"/><path d=" M 1263.655 114.549 L 1263.889 62.381 L 1235.68 62.254 L 1190.313 114.221 L 1263.655 114.549 Z " fill="none" vector-effect="non-scaling-stroke" stroke-width="3" stroke="rgb(255,255,255)" stroke-linejoin="miter" stroke-linecap="square" stroke-miterlimit="3"/></g></g><path d="M 1476.919 366.116 L 1476.759 401.801 C 1476.732 407.789 1471.849 412.629 1465.86 412.602 L 1464.994 412.598 C 1459.005 412.572 1454.165 407.688 1454.192 401.7 L 1454.352 366.015 C 1454.379 360.027 1459.262 355.187 1465.251 355.213 L 1466.117 355.217 C 1472.106 355.244 1476.946 360.128 1476.919 366.116 Z" style="stroke:none;fill:#EBEBEB;stroke-miterlimit:10;"/><path d="M 1477.061 334.399 L 1477.061 334.399 C 1477.035 340.157 1472.152 344.811 1466.164 344.784 L 1465.298 344.78 C 1459.309 344.753 1454.468 340.056 1454.494 334.298 L 1454.494 334.298 C 1454.52 328.539 1459.403 323.886 1465.391 323.913 L 1466.257 323.916 C 1472.246 323.943 1477.087 328.64 1477.061 334.399 Z" style="stroke:none;fill:#EBEBEB;stroke-miterlimit:10;"/></g><g><circle vector-effect="non-scaling-stroke" cx="960" cy="300" r="301.2516942225216" fill="rgb(26,8,57)"/><circle vector-effect="non-scaling-stroke" cx="960.0000000000002" cy="299.9999999999999" r="235.2516942225214" fill="rgb(33,13,68)"/><circle vector-effect="non-scaling-stroke" cx="960" cy="299.9999999999999" r="176.2516942225211" fill="rgb(34,4,68)"/></g><g><path d=" M 943.579 228.326 C 943.573 228.563 943.569 228.8 943.569 229.038 L 943.746 229.038 C 947.436 244.731 952.736 260.381 959.665 276 C 967.57 259.272 973.098 243.614 976.268 229.038 L 976.431 229.038 C 976.431 228.801 976.427 228.565 976.421 228.33 C 976.424 228.313 976.428 228.297 976.431 228.281 L 976.418 228.281 C 976.065 218.389 968.844 210.481 960 210.481 C 951.156 210.481 943.935 218.389 943.582 228.281 L 943.569 228.281 C 943.572 228.296 943.576 228.311 943.579 228.326 Z " fill="rgb(95,207,255)"/><linearGradient id="_lgradient_26" x1="0.4965986394557818" y1="0.11560693641618491" x2="0.5102040816326533" y2="1.1791907514450866" gradientTransform="matrix(21.909,0,0,43.681,949.045,216.261)" gradientUnits="userSpaceOnUse"><stop offset="1.7391304347826086%" stop-opacity="1" style="stop-color:rgb(57,123,255)"/><stop offset="16.52173913043478%" stop-opacity="1" style="stop-color:rgb(31,216,244)"/><stop offset="97.3913043478261%" stop-opacity="1" style="stop-color:rgb(255,255,255)"/></linearGradient><path d=" M 949.052 228.158 C 949.048 228.316 949.045 228.474 949.045 228.633 L 949.163 228.633 C 951.624 239.095 955.157 249.529 959.776 259.942 C 965.047 248.789 968.732 238.351 970.846 228.633 L 970.955 228.633 C 970.955 228.475 970.952 228.317 970.948 228.16 C 970.95 228.149 970.952 228.139 970.955 228.128 L 970.946 228.128 C 970.711 221.533 965.896 216.261 960 216.261 C 954.104 216.261 949.289 221.533 949.054 228.128 L 949.045 228.128 C 949.048 228.138 949.05 228.148 949.052 228.158 Z " fill="url(#_lgradient_26)"/></g><g><rect x="946.581" y="60.08" width="9.604" height="4.847" transform="matrix(1,0,0,1,0,0)" fill="rgb(255,255,255)"/><rect x="952.984" y="56.966" width="17.145" height="8.653" transform="matrix(1,0,0,1,0,0)" fill="rgb(255,255,255)"/><rect x="961.556" y="40" width="1.281" height="18.003" transform="matrix(1,0,0,1,0,0)" fill="rgb(255,255,255)"/><rect x="964.508" y="45.539" width="1.281" height="12.463" transform="matrix(1,0,0,1,0,0)" fill="rgb(255,255,255)"/><path d=" M 929.268 69.774 L 917.103 69.774 L 917.103 86.391" fill="none" vector-effect="non-scaling-stroke" stroke-width="2" stroke="rgb(255,255,255)" stroke-linejoin="miter" stroke-linecap="square" stroke-miterlimit="3"/><g><path d=" M 921.456 54.585 C 926.51 59.018 926.643 67.912 921.753 74.433 C 916.862 80.954 908.788 82.648 903.734 78.215 L 912.595 66.4 L 921.456 54.585 Z " fill="rgb(223,223,234)"/><path d=" M 903.734 78.215 C 903.093 77.653 906.544 71.903 911.434 65.382 C 916.325 58.861 920.815 54.023 921.456 54.585 C 922.096 55.147 918.646 60.897 913.755 67.418 C 908.865 73.939 904.374 78.777 903.734 78.215 Z " fill="rgb(156,152,168)"/><g><polygon points="913.017,68.402,909.266,63.874,914.138,66.907" fill="rgb(189,189,200)"/><path d=" M 909.066 64.937 C 908.684 64.602 908.626 63.996 908.935 63.583 C 909.244 63.171 909.805 63.107 910.187 63.442 C 910.568 63.776 910.627 64.383 910.317 64.795 C 910.008 65.208 909.447 65.271 909.066 64.937 Z " fill="rgb(189,189,200)"/></g></g><g><path d=" M 990 190 L 998 198 L 960 198 L 960 190 L 990 190 Z " fill="rgb(77,76,76)"/><g><path d=" M 1041.756 198.561 L 1049.319 198.561 L 1051.21 201.331 L 1033.247 201.331 L 1035.138 198.561 L 1041.756 198.561 Z " fill="rgb(110,115,136)"/><path d=" M 1033.247 182.982 L 1033.247 180.905 L 1001.574 180.905 L 1001.574 182.982 L 1033.247 182.982 Z " fill="rgb(110,115,136)"/><path d=" M 1041.184 199.178 L 1041.6 200.015 L 1042.749 198.79 L 1042.328 197.945 L 1018.951 151.131 L 1001.574 151.131 L 1000.865 151.131 L 1000.865 153.209 L 1001.574 153.209 L 1018.233 153.209 L 1041.184 199.178 Z " fill="rgb(110,115,136)"/></g><path d=" M 959.973 132.608 L 996.374 132.608 L 1006.301 146.631 L 1006.301 190 L 959.973 190 L 959.973 132.608 Z " fill="rgb(100,49,189)"/><path d=" M 959.973 190 L 1001.574 190 L 1001.574 150.613 L 993.552 139.014 L 959.973 139.014 L 959.973 190 Z " fill="rgb(123,92,176)"/><path d=" M 959.973 63.368 L 989.283 63.368 L 1006.301 88.294 L 1006.301 118.068 L 996.374 132.608 L 959.973 132.608 L 959.973 63.368 Z " fill="rgb(223,223,234)"/><path d=" M 963.283 97.988 L 963.283 127.815 L 995.284 127.815 L 1002.992 116.525 L 1002.992 90.636 L 987.648 68.161 L 963.283 68.161 L 963.283 97.988 Z " fill="rgb(158,208,255)"/><clipPath id="_clipPath_xKIlMmSDeoSInQ7gpOevVOF4G5N004Cs"><path d=" M 963.283 97.988 L 963.283 127.815 L 995.284 127.815 L 1002.992 116.525 L 1002.992 90.636 L 987.648 68.161 L 963.283 68.161 L 963.283 97.988 Z " fill="rgb(158,208,255)"/></clipPath><g clip-path="url(#_clipPath_xKIlMmSDeoSInQ7gpOevVOF4G5N004Cs)"><rect x="963.283" y="90.636" width="39.709" height="58.162" transform="matrix(1,0,0,1,0,0)" fill="rgb(110,115,136)"/></g><path d=" M 965.144 96.604 L 965.144 123.435 L 993.931 123.435 L 1000.865 113.28 L 1000.865 90.637 L 987.062 69.774 L 965.144 69.774 L 965.144 96.604 Z " fill="rgb(73,133,189)"/><clipPath id="_clipPath_TgicolW52mMAMx6cUKNWJWWlNCqxDkcH"><path d=" M 965.144 96.604 L 965.144 123.435 L 993.931 123.435 L 1000.865 113.28 L 1000.865 90.637 L 987.062 69.774 L 965.144 69.774 L 965.144 96.604 Z " fill="rgb(73,133,189)"/></clipPath><g clip-path="url(#_clipPath_TgicolW52mMAMx6cUKNWJWWlNCqxDkcH)"><path d=" M 1001.655 117.799 C 1001.655 109.173 1001.393 100.089 1000.865 90.546 L 965.144 90.546 L 965.144 142.311 L 1000.865 142.311 C 1001.39 134.595 1001.654 126.426 1001.655 117.799 Z " fill="rgb(110,115,136)"/></g><g><path d=" M 971.555 208 L 969.366 204.793 L 959.973 204.793 L 959.973 208 L 971.555 208 Z " fill="rgb(110,115,136)"/><rect x="959.973" y="151.131" width="2.364" height="53.662" transform="matrix(1,0,0,1,0,0)" fill="rgb(110,115,136)"/></g><g><path d=" M 959.973 68.162 L 966.119 68.162 L 973.683 127.816 L 959.973 127.816 L 959.973 68.162 Z " fill="rgb(214,220,232)"/><path d=" M 959.973 74.154 L 965.502 74.154 L 972.306 127.816 L 959.973 127.816 L 959.973 74.154 Z " fill="rgb(156,152,168)"/><path d=" M 959.973 105.779 L 966.119 105.779 L 968.483 127.816 L 959.973 127.816 L 959.973 105.779 Z " fill="rgb(100,99,99)"/></g><g><rect x="962.117" y="183.954" width="1.385" height="5.673" transform="matrix(0,1,-1,0,1149.6,-776.019)" fill="rgb(110,115,136)"/><rect x="962.117" y="180.492" width="1.385" height="5.673" transform="matrix(0,1,-1,0,1146.138,-779.481)" fill="rgb(110,115,136)"/><rect x="962.117" y="177.03" width="1.385" height="5.673" transform="matrix(0,1,-1,0,1142.676,-782.943)" fill="rgb(110,115,136)"/><rect x="962.117" y="173.568" width="1.385" height="5.673" transform="matrix(0,1,-1,0,1139.214,-786.406)" fill="rgb(110,115,136)"/><rect x="962.117" y="170.106" width="1.385" height="5.673" transform="matrix(0,1,-1,0,1135.752,-789.868)" fill="rgb(110,115,136)"/><rect x="962.117" y="166.644" width="1.385" height="5.673" transform="matrix(0,1,-1,0,1132.29,-793.33)" fill="rgb(110,115,136)"/><rect x="962.117" y="163.182" width="1.385" height="5.673" transform="matrix(0,1,-1,0,1128.828,-796.792)" fill="rgb(110,115,136)"/><rect x="962.117" y="159.72" width="1.385" height="5.673" transform="matrix(0,1,-1,0,1125.366,-800.254)" fill="rgb(110,115,136)"/><rect x="962.117" y="156.258" width="1.385" height="5.673" transform="matrix(0,1,-1,0,1121.904,-803.716)" fill="rgb(110,115,136)"/><rect x="962.117" y="152.796" width="1.385" height="5.673" transform="matrix(0,1,-1,0,1118.442,-807.178)" fill="rgb(110,115,136)"/><rect x="962.117" y="149.334" width="1.385" height="5.673" transform="matrix(0,1,-1,0,1114.98,-810.64)" fill="rgb(110,115,136)"/><rect x="962.117" y="145.872" width="1.385" height="5.673" transform="matrix(0,1,-1,0,1111.518,-814.102)" fill="rgb(110,115,136)"/><rect x="962.117" y="142.41" width="1.385" height="5.673" transform="matrix(0,1,-1,0,1108.056,-817.564)" fill="rgb(110,115,136)"/><rect x="962.117" y="138.948" width="1.385" height="5.673" transform="matrix(0,1,-1,0,1104.594,-821.026)" fill="rgb(110,115,136)"/><rect x="962.117" y="135.486" width="1.385" height="5.673" transform="matrix(0,1,-1,0,1101.132,-824.488)" fill="rgb(110,115,136)"/><rect x="962.117" y="132.023" width="1.385" height="5.673" transform="matrix(0,1,-1,0,1097.67,-827.95)" fill="rgb(110,115,136)"/><rect x="962.117" y="128.561" width="1.385" height="5.673" transform="matrix(0,1,-1,0,1094.208,-831.412)" fill="rgb(110,115,136)"/><rect x="962.117" y="124.98" width="1.385" height="5.673" transform="matrix(0,1,-1,0,1090.626,-834.994)" fill="rgb(110,115,136)"/><rect x="962.117" y="183.954" width="1.385" height="5.673" transform="matrix(0,1,-1,0,1149.6,-776.019)" fill="rgb(110,115,136)"/><rect x="964.228" y="127.816" width="0.945" height="60.359" transform="matrix(1,0,0,1,0,0)" fill="rgb(110,115,136)"/></g><g><g><path d=" M 1014.395 96.777 L 1015.036 94.7 L 1013.755 94.7 L 1013.755 96.777 L 1014.395 96.777 Z " fill="rgb(119,118,118)"/><path d=" M 1013.115 96.777 L 1012.475 94.7 L 1013.755 94.7 L 1013.755 96.777 L 1013.115 96.777 Z " fill="rgb(77,76,76)"/></g><g><path d=" M 1014.395 104.394 L 1015.036 106.471 L 1013.755 106.471 L 1013.755 104.394 L 1014.395 104.394 Z " fill="rgb(119,118,118)"/><path d=" M 1013.115 104.394 L 1012.475 106.471 L 1013.755 106.471 L 1013.755 104.394 L 1013.115 104.394 Z " fill="rgb(77,76,76)"/></g><g><path d=" M 1015.676 100.932 L 1017.597 101.624 L 1017.597 100.239 L 1015.676 100.239 L 1015.676 100.932 Z " fill="rgb(119,118,118)"/><path d=" M 1015.676 99.547 L 1017.597 98.855 L 1017.597 100.239 L 1015.676 100.239 L 1015.676 99.547 Z " fill="rgb(77,76,76)"/></g><rect x="1011.834" y="96.777" width="3.842" height="7.616" transform="matrix(1,0,0,1,0,0)" fill="rgb(223,223,234)"/><path d=" M 1006.072 98.162 L 1012.475 98.162 L 1012.475 101.624 L 1006.072 107.164 L 1006.072 98.162 Z " fill="rgb(223,223,234)"/></g></g><path d=" M 930 190 L 922 198 L 960 198 L 960 190 L 930 190 Z " fill="rgb(119,118,118)"/><g><g><path d=" M 878.244 198.561 L 870.681 198.561 L 868.79 201.331 L 886.753 201.331 L 884.862 198.561 L 878.244 198.561 Z " fill="rgb(168,168,168)"/><path d=" M 886.753 182.982 L 886.753 180.905 L 918.426 180.905 L 918.426 182.982 L 886.753 182.982 Z " fill="rgb(168,168,168)"/><path d=" M 878.816 199.178 L 878.4 200.015 L 877.252 198.79 L 877.672 197.945 L 901.049 151.131 L 918.426 151.131 L 919.135 151.131 L 919.135 153.209 L 918.426 153.209 L 901.767 153.209 L 878.816 199.178 Z " fill="rgb(168,168,168)"/></g><path d=" M 960.027 132.608 L 923.626 132.608 L 913.699 146.631 L 914 190 L 960.027 190 L 960.027 132.608 Z " fill="rgb(154,104,242)"/><path d=" M 960.027 190 L 919.475 190 L 918.426 150.613 L 926.448 139.014 L 960.027 139.014 L 960.027 190 Z " fill="rgb(181,143,246)"/><path d=" M 960.027 63.368 L 930.717 63.368 L 913.699 88.294 L 913.699 118.068 L 923.626 132.608 L 960.027 132.608 L 960.027 63.368 Z " fill="rgb(255,255,255)"/><path d=" M 957.19 97.988 L 957.19 127.815 L 925.189 127.815 L 917.481 116.525 L 917.481 90.636 L 932.825 68.161 L 957.19 68.161 L 957.19 97.988 Z " fill="rgb(158,208,255)"/><clipPath id="_clipPath_w1J8OCxHlzo1TiP4cNCGg1aodTWDCyHX"><path d=" M 957.19 97.988 L 957.19 127.815 L 925.189 127.815 L 917.481 116.525 L 917.481 90.636 L 932.825 68.161 L 957.19 68.161 L 957.19 97.988 Z " fill="rgb(158,208,255)"/></clipPath><g clip-path="url(#_clipPath_w1J8OCxHlzo1TiP4cNCGg1aodTWDCyHX)"><rect x="917.481" y="90.636" width="39.709" height="58.162" transform="matrix(1,0,0,1,0,0)" fill="rgb(155,160,170)"/></g><path d=" M 955.196 95.566 L 955.196 122.397 L 926.409 122.397 L 919.475 112.241 L 919.475 89.598 L 933.278 68.735 L 955.196 68.735 L 955.196 95.566 Z " fill="rgb(86,149,208)"/><clipPath id="_clipPath_d4YJmK3Ym8LWqIKoqMhJB5WeMIJX8Ndq"><path d=" M 955.196 95.566 L 955.196 122.397 L 926.409 122.397 L 919.475 112.241 L 919.475 89.598 L 933.278 68.735 L 955.196 68.735 L 955.196 95.566 Z " fill="rgb(86,149,208)"/></clipPath><g clip-path="url(#_clipPath_d4YJmK3Ym8LWqIKoqMhJB5WeMIJX8Ndq)"><path d=" M 919.475 89.507 L 955.196 89.507 L 955.196 141.272 L 919.475 141.272 L 919.475 89.507 Z " fill="rgb(155,160,170)"/></g><g><path d=" M 948.445 208 L 950.634 204.793 L 960.027 204.793 L 960.027 208 L 948.445 208 Z " fill="rgb(168,168,168)"/><rect x="957.663" y="151.131" width="2.364" height="53.662" transform="matrix(1,0,0,1,0,0)" fill="rgb(168,168,168)"/></g><g><path d=" M 960.027 68.162 L 953.881 68.162 L 946.317 127.816 L 960.027 127.816 L 960.027 68.162 Z " fill="rgb(255,255,255)"/><path d=" M 960.027 74.154 L 954.498 74.154 L 947.694 127.816 L 960.027 127.816 L 960.027 74.154 Z " fill="rgb(214,220,232)"/><path d=" M 960.027 105.779 L 953.881 105.779 L 951.517 127.816 L 960.027 127.816 L 960.027 105.779 Z " fill="rgb(119,118,118)"/></g><g><rect x="956.498" y="183.954" width="1.385" height="5.673" transform="matrix(0,-1,1,0,770.4,1143.981)" fill="rgb(130,129,129)"/><rect x="956.498" y="180.492" width="1.385" height="5.673" transform="matrix(0,-1,1,0,773.862,1140.519)" fill="rgb(130,129,129)"/><rect x="956.498" y="177.03" width="1.385" height="5.673" transform="matrix(0,-1,1,0,777.324,1137.057)" fill="rgb(130,129,129)"/><rect x="956.498" y="173.568" width="1.385" height="5.673" transform="matrix(0,-1,1,0,780.786,1133.594)" fill="rgb(130,129,129)"/><rect x="956.498" y="170.106" width="1.385" height="5.673" transform="matrix(0,-1,1,0,784.248,1130.132)" fill="rgb(130,129,129)"/><rect x="956.498" y="166.644" width="1.385" height="5.673" transform="matrix(0,-1,1,0,787.71,1126.67)" fill="rgb(130,129,129)"/><rect x="956.498" y="163.182" width="1.385" height="5.673" transform="matrix(0,-1,1,0,791.172,1123.208)" fill="rgb(130,129,129)"/><rect x="956.498" y="159.72" width="1.385" height="5.673" transform="matrix(0,-1,1,0,794.634,1119.746)" fill="rgb(130,129,129)"/><rect x="956.498" y="156.258" width="1.385" height="5.673" transform="matrix(0,-1,1,0,798.096,1116.284)" fill="rgb(130,129,129)"/><rect x="956.498" y="152.796" width="1.385" height="5.673" transform="matrix(0,-1,1,0,801.558,1112.822)" fill="rgb(130,129,129)"/><rect x="956.498" y="149.334" width="1.385" height="5.673" transform="matrix(0,-1,1,0,805.02,1109.36)" fill="rgb(130,129,129)"/><rect x="956.498" y="145.872" width="1.385" height="5.673" transform="matrix(0,-1,1,0,808.482,1105.898)" fill="rgb(130,129,129)"/><rect x="956.498" y="142.41" width="1.385" height="5.673" transform="matrix(0,-1,1,0,811.944,1102.436)" fill="rgb(130,129,129)"/><rect x="956.498" y="138.948" width="1.385" height="5.673" transform="matrix(0,-1,1,0,815.406,1098.974)" fill="rgb(130,129,129)"/><rect x="956.498" y="135.486" width="1.385" height="5.673" transform="matrix(0,-1,1,0,818.868,1095.512)" fill="rgb(130,129,129)"/><rect x="956.498" y="132.023" width="1.385" height="5.673" transform="matrix(0,-1,1,0,822.33,1092.05)" fill="rgb(130,129,129)"/><rect x="956.498" y="128.561" width="1.385" height="5.673" transform="matrix(0,-1,1,0,825.792,1088.588)" fill="rgb(130,129,129)"/><rect x="956.498" y="124.98" width="1.385" height="5.673" transform="matrix(0,-1,1,0,829.374,1085.006)" fill="rgb(130,129,129)"/><rect x="956.498" y="183.954" width="1.385" height="5.673" transform="matrix(0,-1,1,0,770.4,1143.981)" fill="rgb(130,129,129)"/><rect x="954.827" y="127.816" width="0.945" height="60.359" transform="matrix(1,0,0,1,0,0)" fill="rgb(130,129,129)"/></g><g><g><path d=" M 905.605 96.777 L 904.964 94.7 L 906.245 94.7 L 906.245 96.777 L 905.605 96.777 Z " fill="rgb(119,118,118)"/><path d=" M 906.885 96.777 L 907.525 94.7 L 906.245 94.7 L 906.245 96.777 L 906.885 96.777 Z " fill="rgb(77,76,76)"/></g><g><path d=" M 905.605 104.394 L 904.964 106.471 L 906.245 106.471 L 906.245 104.394 L 905.605 104.394 Z " fill="rgb(119,118,118)"/><path d=" M 906.885 104.394 L 907.525 106.471 L 906.245 106.471 L 906.245 104.394 L 906.885 104.394 Z " fill="rgb(77,76,76)"/></g><g><path d=" M 904.324 100.932 L 902.403 101.624 L 902.403 100.239 L 904.324 100.239 L 904.324 100.932 Z " fill="rgb(119,118,118)"/><path d=" M 904.324 99.547 L 902.403 98.855 L 902.403 100.239 L 904.324 100.239 L 904.324 99.547 Z " fill="rgb(77,76,76)"/></g><rect x="904.324" y="96.777" width="3.842" height="7.616" transform="matrix(1,0,0,1,0,0)" fill="rgb(255,255,255)"/><path d=" M 913.928 98.162 L 907.525 98.162 L 907.525 101.624 L 913.928 107.164 L 913.928 98.162 Z " fill="rgb(255,255,255)"/></g></g><path d="M 944.685 71.851 L 949.064 71.851 C 949.799 71.851 950.396 72.447 950.396 73.182 L 950.396 73.289 C 950.396 74.024 949.799 74.62 949.064 74.62 L 944.685 74.62 C 943.95 74.62 943.353 74.024 943.353 73.289 L 943.353 73.182 C 943.353 72.447 943.95 71.851 944.685 71.851 Z" style="stroke:none;fill:#EBEBEB;stroke-miterlimit:10;"/><path d="M 940.792 71.851 L 940.792 71.851 C 941.499 71.851 942.073 72.447 942.073 73.182 L 942.073 73.289 C 942.073 74.024 941.499 74.62 940.792 74.62 L 940.792 74.62 C 940.085 74.62 939.512 74.024 939.512 73.289 L 939.512 73.182 C 939.512 72.447 940.085 71.851 940.792 71.851 Z" style="stroke:none;fill:#EBEBEB;stroke-miterlimit:10;"/></g></g></svg>