<?xml version="1.0" standalone="no"?><!-- Generator: Gravit.io --><svg xmlns="http://www.w3.org/2000/svg" xmlns:xlink="http://www.w3.org/1999/xlink" style="isolation:isolate" viewBox="0 0 1920 300" width="1920" height="300"><defs><clipPath id="_clipPath_HhWhgKkN11IFkAfzbSR2Mj64B7JdWuOO"><rect width="1920" height="300"/></clipPath></defs><g clip-path="url(#_clipPath_HhWhgKkN11IFkAfzbSR2Mj64B7JdWuOO)"><g><g><rect x="999.008" y="-282.951" width="118.327" height="55.783" transform="matrix(1,0,0,1,0,0)" fill="rgb(71,82,104)"/><path d=" M 1017.602 -282.951 L 1017.602 -298.164 L 1032.815 -318.449 L 1080.991 -318.449 L 1098.74 -298.164 L 1098.74 -282.951 L 1017.602 -282.951 Z " fill="rgb(219,211,211)"/><path d=" M 1222.138 26.389 L 1161.284 -227.168 L 955.058 -247.453 L 955.058 80.481 L 1222.138 26.389 Z " fill="none" vector-effect="non-scaling-stroke" stroke-width="3" stroke="rgb(255,255,255)" stroke-linejoin="miter" stroke-linecap="square" stroke-miterlimit="3"/><rect x="1201.008" y="-181.528" width="8.452" height="118.327" transform="matrix(-1,0,0,-1,2410.468,-244.729)" fill="rgb(219,211,211)"/><rect x="1198.472" y="-200.46" width="13.523" height="37.864" transform="matrix(1,0,0,1,0,0)" fill="rgb(219,211,211)"/><rect x="1198.472" y="-144.339" width="13.523" height="81.138" transform="matrix(-1,0,0,-1,2410.468,-207.541)" fill="rgb(109,124,128)"/><path d="M 1212.283 -83.486 L 1194.804 -83.486 C 1189.365 -83.486 1184.949 -79.07 1184.949 -73.631 L 1184.949 -52.772 C 1184.949 -47.333 1189.365 -42.917 1194.804 -42.917 L 1212.283 -42.917 C 1217.722 -42.917 1222.138 -47.333 1222.138 -52.772 L 1222.138 -73.631 C 1222.138 -79.07 1217.722 -83.486 1212.283 -83.486 Z" style="stroke:none;fill:#DBD3D3;stroke-miterlimit:10;"/><rect x="955.058" y="24.698" width="175.799" height="108.184" transform="matrix(1,0,0,1,0,0)" fill="none" vector-effect="non-scaling-stroke" stroke-width="3" stroke="rgb(255,255,255)" stroke-linejoin="miter" stroke-linecap="square" stroke-miterlimit="2"/><path d=" M 1130.181 162.566 L 1174.807 184.879 L 1174.807 205.806 L 1114.9 177.847 L 1130.181 162.566 Z  M 1131.533 170.815 L 1168.046 189.071 L 1168.046 195.19 L 1126.53 175.818 L 1131.533 170.815 Z " fill-rule="evenodd" fill="rgb(56,62,70)"/><path d=" M 955.058 95.694 L 955.058 82.171 L 1029.435 82.171 L 1029.435 95.694 L 955.058 95.694 Z " fill="rgb(56,62,70)"/><g><mask id="_mask_eU1A4e4ZQzmk7zuqpazIkQtRbsMVLHdI"><path d=" M 1151.142 -198.432 L 1056.481 -46.298 L 955.058 -198.432 L 1151.142 -198.432 Z " fill="white" stroke="none"/></mask><path d=" M 1151.142 -198.432 L 1056.481 -46.298 L 955.058 -198.432 L 1151.142 -198.432 Z " fill="rgb(158,229,255)" mask="url(#_mask_eU1A4e4ZQzmk7zuqpazIkQtRbsMVLHdI)" vector-effect="non-scaling-stroke" stroke-width="6" stroke="rgb(255,255,255)" stroke-linejoin="miter" stroke-linecap="butt" stroke-miterlimit="3"/><path d=" M 1056.481 -46.298 L 955.058 -46.298 L 955.058 -198.432 L 1056.481 -46.298 Z " fill="rgb(158,229,255)"/><mask id="_mask_BBeQno3wiOmtD60fcNwazLhKwtS9HCEx"><path d=" M 1151.142 -198.432 L 1205.234 24.698 L 1056.481 -46.298 L 1151.142 -198.432 Z " fill="white" stroke="none"/></mask><path d=" M 1151.142 -198.432 L 1205.234 24.698 L 1056.481 -46.298 L 1151.142 -198.432 Z " fill="none" mask="url(#_mask_BBeQno3wiOmtD60fcNwazLhKwtS9HCEx)" vector-effect="non-scaling-stroke" stroke-width="6" stroke="rgb(255,255,255)" stroke-linejoin="miter" stroke-linecap="butt" stroke-miterlimit="3"/></g><mask id="_mask_o96lWEtPS4o7qqndjqyaOEerR2DhsS96"><path d=" M 1056.481 -49.678 L 1205.234 24.698 L 955.058 24.698 L 955.058 -49.678 L 1056.481 -49.678 Z " fill="white" stroke="none"/></mask><path d=" M 1056.481 -49.678 L 1205.234 24.698 L 955.058 24.698 L 955.058 -49.678 L 1056.481 -49.678 Z " fill="none" mask="url(#_mask_o96lWEtPS4o7qqndjqyaOEerR2DhsS96)" vector-effect="non-scaling-stroke" stroke-width="6" stroke="rgb(255,255,255)" stroke-linejoin="bevel" stroke-linecap="square" stroke-miterlimit="3"/><path d=" M 1164.665 105.837 L 955.058 105.837 L 955.058 230.925 L 1066.623 230.925 L 1191.711 105.837 L 1164.665 105.837 Z " fill="none" vector-effect="non-scaling-stroke" stroke-width="3" stroke="rgb(255,255,255)" stroke-linejoin="miter" stroke-linecap="square" stroke-miterlimit="3"/><rect x="955.058" y="129.502" width="125.088" height="15.213" transform="matrix(1,0,0,1,0,0)" fill="rgb(51,58,72)"/><rect x="955.058" y="174.297" width="87.9" height="15.213" transform="matrix(1,0,0,1,0,0)" fill="rgb(51,58,72)"/><rect x="955.058" y="151.477" width="125.088" height="15.213" transform="matrix(1,0,0,1,0,0)" fill="rgb(51,58,72)"/><path d=" M 1242.746 146.406 L 1278.288 200.498 L 1278.288 241.067 L 1240.012 217.402 L 1242.746 146.406 Z " fill="none" vector-effect="non-scaling-stroke" stroke-width="3" stroke="rgb(255,255,255)" stroke-linejoin="miter" stroke-linecap="square" stroke-miterlimit="3"/><path d=" M 955.058 -24.323 L 955.058 -41.226 L 1055.061 -41.226 L 1222.476 40.757 L 1215.038 55.97 L 1051.139 -24.323 L 955.058 -24.323 Z " fill="none" vector-effect="non-scaling-stroke" stroke-width="3" stroke="rgb(255,255,255)" stroke-linejoin="miter" stroke-linecap="square" stroke-miterlimit="3"/><path d=" M 1205.741 45.761 L 1208.344 39.506 L 1220.853 44.712 L 1218.25 50.967 L 1199.588 95.694 L 1022.673 95.694 L 1022.673 57.593 L 1046.575 -27.839 L 1048.401 -34.363 L 1061.45 -30.712 L 1059.625 -24.187 L 1036.196 59.419 L 1036.196 82.171 L 1190.595 82.171 L 1205.741 45.761 Z " fill="none" vector-effect="non-scaling-stroke" stroke-width="3" stroke="rgb(255,255,255)" stroke-linejoin="miter" stroke-linecap="square" stroke-miterlimit="3"/><path d="M 1374.64 112.598 L 1304.966 112.598 C 1290.242 112.598 1278.288 124.552 1278.288 139.276 L 1278.288 285.385 C 1278.288 300.109 1290.242 312.063 1304.966 312.063 L 1374.64 312.063 C 1389.364 312.063 1401.318 300.109 1401.318 285.385 L 1401.318 139.276 C 1401.318 124.552 1389.364 112.598 1374.64 112.598 Z" style="fill:none;stroke:#FFFFFF;stroke-width:3;stroke-linecap:square;stroke-miterlimit:2;"/><path d=" M 1333.128 158.441 C 1332.621 159.185 1331.843 159.692 1330.964 159.861 C 1330.085 160.03 1329.173 159.861 1328.429 159.354 C 1327.685 158.847 1327.178 158.069 1327.009 157.19 C 1326.84 156.311 1327.009 155.399 1327.516 154.655 L 1344.386 129.502 L 1387.795 129.502 C 1388.708 129.502 1389.553 129.874 1390.195 130.482 C 1390.804 131.125 1391.176 131.97 1391.176 132.883 C 1391.176 133.795 1390.804 134.641 1390.195 135.283 C 1389.553 135.892 1388.708 136.263 1387.795 136.263 L 1347.97 136.263 L 1333.128 158.441 Z " fill="none" vector-effect="non-scaling-stroke" stroke-width="3" stroke="rgb(255,255,255)" stroke-linejoin="miter" stroke-linecap="square" stroke-miterlimit="3"/><path d=" M 1336.509 231.127 C 1336.002 231.871 1335.224 232.378 1334.345 232.547 C 1333.466 232.716 1332.553 232.547 1331.81 232.04 C 1331.066 231.533 1330.559 230.756 1330.39 229.877 C 1330.221 228.998 1330.39 228.085 1330.897 227.341 L 1347.767 202.188 L 1391.176 202.188 C 1392.088 202.188 1392.934 202.56 1393.576 203.169 C 1394.185 203.811 1394.556 204.656 1394.556 205.569 C 1394.556 206.482 1394.185 207.327 1393.576 207.969 C 1392.934 208.578 1392.088 208.95 1391.176 208.95 L 1351.35 208.95 L 1336.509 231.127 Z " fill="none" vector-effect="non-scaling-stroke" stroke-width="3" stroke="rgb(255,255,255)" stroke-linejoin="miter" stroke-linecap="square" stroke-miterlimit="3"/><path d=" M 1333.128 297.052 C 1332.621 297.796 1331.843 298.303 1330.964 298.472 C 1330.085 298.641 1329.173 298.472 1328.429 297.965 C 1327.685 297.458 1327.178 296.68 1327.009 295.801 C 1326.84 294.922 1327.009 294.01 1327.516 293.266 L 1344.386 268.113 L 1387.795 268.113 C 1388.708 268.113 1389.553 268.485 1390.195 269.093 C 1390.804 269.736 1391.176 270.581 1391.176 271.494 C 1391.176 272.407 1390.804 273.252 1390.195 273.894 C 1389.553 274.503 1388.708 274.874 1387.795 274.874 L 1347.97 274.874 L 1333.128 297.052 Z " fill="none" vector-effect="non-scaling-stroke" stroke-width="3" stroke="rgb(255,255,255)" stroke-linejoin="miter" stroke-linecap="square" stroke-miterlimit="3"/><path d=" M 1292.086 241.067 C 1291.173 241.067 1290.328 240.695 1289.685 240.086 C 1289.077 239.444 1288.705 238.599 1288.705 237.686 C 1288.705 236.773 1289.077 235.928 1289.685 235.286 C 1290.328 234.677 1291.173 234.305 1292.086 234.305 L 1335.495 234.305 L 1352.365 259.458 C 1352.872 260.202 1353.041 261.115 1352.872 261.994 C 1352.703 262.873 1352.196 263.65 1351.452 264.157 C 1350.708 264.665 1349.795 264.834 1348.916 264.665 C 1348.037 264.496 1347.26 263.988 1346.753 263.245 L 1331.911 241.067 L 1292.086 241.067 Z " fill="none" vector-effect="non-scaling-stroke" stroke-width="3" stroke="rgb(255,255,255)" stroke-linejoin="miter" stroke-linecap="square" stroke-miterlimit="3"/><path d=" M 1292.086 173.452 C 1291.173 173.452 1290.328 173.08 1289.685 172.471 C 1289.077 171.829 1288.705 170.984 1288.705 170.071 C 1288.705 169.158 1289.077 168.313 1289.685 167.671 C 1290.328 167.062 1291.173 166.69 1292.086 166.69 L 1335.495 166.69 L 1352.365 191.843 C 1352.872 192.587 1353.041 193.5 1352.872 194.379 C 1352.703 195.258 1352.196 196.035 1351.452 196.542 C 1350.708 197.049 1349.795 197.218 1348.916 197.049 C 1348.037 196.88 1347.26 196.373 1346.753 195.63 L 1331.911 173.452 L 1292.086 173.452 Z " fill="none" vector-effect="non-scaling-stroke" stroke-width="3" stroke="rgb(255,255,255)" stroke-linejoin="miter" stroke-linecap="square" stroke-miterlimit="3"/><path d=" M 1242.746 146.406 L 1207.204 146.406 L 1207.204 115.979 L 1086.907 115.979 L 1086.907 166.69 L 1171.662 166.69 L 1171.662 207.259 L 1242.746 217.402 L 1242.746 146.406 Z " fill="none" vector-effect="non-scaling-stroke" stroke-width="3" stroke="rgb(255,255,255)" stroke-linejoin="miter" stroke-linecap="square" stroke-miterlimit="3"/><rect x="1222.138" y="159.929" width="10.142" height="40.569" transform="matrix(1,0,0,1,0,0)" fill="none" vector-effect="non-scaling-stroke" stroke-width="3" stroke="rgb(255,255,255)" stroke-linejoin="miter" stroke-linecap="square" stroke-miterlimit="2"/><rect x="1207.204" y="159.929" width="10.142" height="40.569" transform="matrix(1,0,0,1,0,0)" fill="rgb(51,58,72)"/></g><g><path d=" M 691.359 26.389 L 752.212 -227.168 L 958.439 -247.453 L 958.439 80.481 L 691.359 26.389 Z " fill="none" vector-effect="non-scaling-stroke" stroke-width="3" stroke="rgb(255,255,255)" stroke-linejoin="miter" stroke-linecap="square" stroke-miterlimit="3"/><rect x="704.037" y="-303.235" width="8.452" height="240.034" transform="matrix(-1,0,0,-1,1416.525,-366.436)" fill="rgb(219,211,211)"/><rect x="701.501" y="-334" width="13.523" height="37.864" transform="matrix(1,0,0,1,0,0)" fill="rgb(219,211,211)"/><rect x="701.501" y="-144.339" width="13.523" height="81.138" transform="matrix(-1,0,0,-1,1416.525,-207.541)" fill="rgb(109,124,128)"/><path d="M 701.214 -83.486 L 718.692 -83.486 C 724.131 -83.486 728.547 -79.07 728.547 -73.631 L 728.547 -52.772 C 728.547 -47.333 724.131 -42.917 718.692 -42.917 L 701.214 -42.917 C 695.775 -42.917 691.359 -47.333 691.359 -52.772 L 691.359 -73.631 C 691.359 -79.07 695.775 -83.486 701.214 -83.486 Z" style="stroke:none;fill:#DBD3D3;stroke-linecap:square;stroke-miterlimit:2;"/><rect x="782.639" y="24.698" width="175.799" height="108.184" transform="matrix(1,0,0,1,0,0)" fill="none" vector-effect="non-scaling-stroke" stroke-width="3" stroke="rgb(255,255,255)" stroke-linejoin="miter" stroke-linecap="square" stroke-miterlimit="2"/><path d=" M 798.596 177.847 L 738.689 205.806 L 738.689 184.879 L 783.315 162.566 L 798.596 177.847 Z  M 786.967 175.818 L 745.451 195.19 L 745.451 189.071 L 781.963 170.815 L 786.967 175.818 Z " fill-rule="evenodd" fill="rgb(56,62,70)"/><path d=" M 958.439 82.171 L 958.439 95.694 L 884.062 95.694 L 884.062 82.171 L 958.439 82.171 Z " fill="rgb(56,62,70)"/><g><mask id="_mask_RCdYpx6HTN7foSo0c5jIvMLJKIxaBrpo"><path d=" M 762.355 -198.432 L 857.016 -46.298 L 958.439 -198.432 L 762.355 -198.432 Z " fill="white" stroke="none"/></mask><path d=" M 762.355 -198.432 L 857.016 -46.298 L 958.439 -198.432 L 762.355 -198.432 Z " fill="rgb(158,229,255)" mask="url(#_mask_RCdYpx6HTN7foSo0c5jIvMLJKIxaBrpo)" vector-effect="non-scaling-stroke" stroke-width="6" stroke="rgb(255,255,255)" stroke-linejoin="miter" stroke-linecap="butt" stroke-miterlimit="3"/><path d=" M 857.016 -46.298 L 958.439 -46.298 L 958.439 -198.432 L 857.016 -46.298 Z " fill="rgb(158,229,255)"/><mask id="_mask_wK5MuB62HXfkY0zw66G1gVRPZmNjbX3Y"><path d=" M 762.355 -198.432 L 708.263 24.698 L 857.016 -46.298 L 762.355 -198.432 Z " fill="white" stroke="none"/></mask><path d=" M 762.355 -198.432 L 708.263 24.698 L 857.016 -46.298 L 762.355 -198.432 Z " fill="none" mask="url(#_mask_wK5MuB62HXfkY0zw66G1gVRPZmNjbX3Y)" vector-effect="non-scaling-stroke" stroke-width="6" stroke="rgb(255,255,255)" stroke-linejoin="miter" stroke-linecap="butt" stroke-miterlimit="3"/></g><mask id="_mask_OQVmF7v97u2JmaG0svpxlxdAu8xFYDtD"><path d=" M 857.016 -49.678 L 708.263 24.698 L 958.439 24.698 L 958.439 -49.678 L 857.016 -49.678 Z " fill="white" stroke="none"/></mask><path d=" M 857.016 -49.678 L 708.263 24.698 L 958.439 24.698 L 958.439 -49.678 L 857.016 -49.678 Z " fill="none" mask="url(#_mask_OQVmF7v97u2JmaG0svpxlxdAu8xFYDtD)" vector-effect="non-scaling-stroke" stroke-width="6" stroke="rgb(255,255,255)" stroke-linejoin="bevel" stroke-linecap="square" stroke-miterlimit="3"/><path d=" M 748.832 105.837 L 958.439 105.837 L 958.439 230.925 L 846.874 230.925 L 721.786 105.837 L 748.832 105.837 Z " fill="none" vector-effect="non-scaling-stroke" stroke-width="3" stroke="rgb(255,255,255)" stroke-linejoin="miter" stroke-linecap="square" stroke-miterlimit="3"/><rect x="833.351" y="129.502" width="125.088" height="15.213" transform="matrix(1,0,0,1,0,0)" fill="rgb(51,58,72)"/><rect x="870.539" y="174.297" width="87.9" height="15.213" transform="matrix(1,0,0,1,0,0)" fill="rgb(51,58,72)"/><rect x="833.351" y="151.477" width="125.088" height="15.213" transform="matrix(1,0,0,1,0,0)" fill="rgb(51,58,72)"/><path d=" M 670.751 146.406 L 635.209 200.498 L 635.209 241.067 L 673.485 217.402 L 670.751 146.406 Z " fill="none" vector-effect="non-scaling-stroke" stroke-width="3" stroke="rgb(255,255,255)" stroke-linejoin="miter" stroke-linecap="square" stroke-miterlimit="3"/><path d=" M 698.458 55.97 L 691.021 40.757 L 858.436 -41.226 L 958.439 -41.226 L 958.439 -24.323 L 862.358 -24.323 L 698.458 55.97 Z " fill="none" vector-effect="non-scaling-stroke" stroke-width="3" stroke="rgb(255,255,255)" stroke-linejoin="miter" stroke-linecap="square" stroke-miterlimit="3"/><path d=" M 853.872 -24.187 L 852.046 -30.712 L 865.096 -34.363 L 866.922 -27.839 L 890.824 57.593 L 890.824 95.694 L 713.908 95.694 L 695.247 50.967 L 692.644 44.712 L 705.152 39.506 L 707.755 45.761 L 722.901 82.171 L 877.3 82.171 L 877.3 59.419 L 853.872 -24.187 Z " fill="none" vector-effect="non-scaling-stroke" stroke-width="3" stroke="rgb(255,255,255)" stroke-linejoin="miter" stroke-linecap="square" stroke-miterlimit="3"/><path d="M 538.857 112.598 L 608.531 112.598 C 623.255 112.598 635.209 124.552 635.209 139.276 L 635.209 285.385 C 635.209 300.109 623.255 312.063 608.531 312.063 L 538.857 312.063 C 524.133 312.063 512.179 300.109 512.179 285.385 L 512.179 139.276 C 512.179 124.552 524.133 112.598 538.857 112.598 Z" style="fill:none;stroke:#FFFFFF;stroke-width:3;stroke-linecap:square;stroke-miterlimit:2;"/><path d=" M 525.702 136.263 C 524.789 136.263 523.944 135.892 523.301 135.283 C 522.693 134.641 522.321 133.795 522.321 132.883 C 522.321 131.97 522.693 131.125 523.301 130.482 C 523.944 129.874 524.789 129.502 525.702 129.502 L 569.111 129.502 L 585.981 154.655 C 586.488 155.399 586.657 156.311 586.488 157.19 C 586.319 158.069 585.812 158.847 585.068 159.354 C 584.324 159.861 583.411 160.03 582.532 159.861 C 581.653 159.692 580.876 159.185 580.369 158.441 L 565.527 136.263 L 525.702 136.263 Z " fill="none" vector-effect="non-scaling-stroke" stroke-width="3" stroke="rgb(255,255,255)" stroke-linejoin="miter" stroke-linecap="square" stroke-miterlimit="3"/><path d=" M 522.321 208.95 C 521.408 208.95 520.563 208.578 519.921 207.969 C 519.312 207.327 518.94 206.482 518.94 205.569 C 518.94 204.656 519.312 203.811 519.921 203.169 C 520.563 202.56 521.408 202.188 522.321 202.188 L 565.73 202.188 L 582.6 227.341 C 583.107 228.085 583.276 228.998 583.107 229.877 C 582.938 230.756 582.431 231.533 581.687 232.04 C 580.943 232.547 580.03 232.716 579.151 232.547 C 578.272 232.378 577.495 231.871 576.988 231.127 L 562.146 208.95 L 522.321 208.95 Z " fill="none" vector-effect="non-scaling-stroke" stroke-width="3" stroke="rgb(255,255,255)" stroke-linejoin="miter" stroke-linecap="square" stroke-miterlimit="3"/><path d=" M 525.702 274.874 C 524.789 274.874 523.944 274.503 523.301 273.894 C 522.693 273.252 522.321 272.407 522.321 271.494 C 522.321 270.581 522.693 269.736 523.301 269.093 C 523.944 268.485 524.789 268.113 525.702 268.113 L 569.111 268.113 L 585.981 293.266 C 586.488 294.01 586.657 294.922 586.488 295.801 C 586.319 296.68 585.812 297.458 585.068 297.965 C 584.324 298.472 583.411 298.641 582.532 298.472 C 581.653 298.303 580.876 297.796 580.369 297.052 L 565.527 274.874 L 525.702 274.874 Z " fill="none" vector-effect="non-scaling-stroke" stroke-width="3" stroke="rgb(255,255,255)" stroke-linejoin="miter" stroke-linecap="square" stroke-miterlimit="3"/><path d=" M 566.744 263.245 C 566.237 263.988 565.459 264.496 564.58 264.665 C 563.701 264.834 562.789 264.665 562.045 264.157 C 561.301 263.65 560.794 262.873 560.625 261.994 C 560.456 261.115 560.625 260.202 561.132 259.458 L 578.002 234.305 L 621.411 234.305 C 622.324 234.305 623.169 234.677 623.811 235.286 C 624.42 235.928 624.792 236.773 624.792 237.686 C 624.792 238.599 624.42 239.444 623.811 240.086 C 623.169 240.695 622.324 241.067 621.411 241.067 L 581.586 241.067 L 566.744 263.245 Z " fill="none" vector-effect="non-scaling-stroke" stroke-width="3" stroke="rgb(255,255,255)" stroke-linejoin="miter" stroke-linecap="square" stroke-miterlimit="3"/><path d=" M 566.744 195.63 C 566.237 196.373 565.459 196.88 564.58 197.049 C 563.701 197.218 562.789 197.049 562.045 196.542 C 561.301 196.035 560.794 195.258 560.625 194.379 C 560.456 193.5 560.625 192.587 561.132 191.843 L 578.002 166.69 L 621.411 166.69 C 622.324 166.69 623.169 167.062 623.811 167.671 C 624.42 168.313 624.792 169.158 624.792 170.071 C 624.792 170.984 624.42 171.829 623.811 172.471 C 623.169 173.08 622.324 173.452 621.411 173.452 L 581.586 173.452 L 566.744 195.63 Z " fill="none" vector-effect="non-scaling-stroke" stroke-width="3" stroke="rgb(255,255,255)" stroke-linejoin="miter" stroke-linecap="square" stroke-miterlimit="3"/><path d=" M 670.751 146.406 L 706.293 146.406 L 706.293 115.979 L 826.589 115.979 L 826.589 166.69 L 741.835 166.69 L 741.835 207.259 L 670.751 217.402 L 670.751 146.406 Z " fill="none" vector-effect="non-scaling-stroke" stroke-width="3" stroke="rgb(255,255,255)" stroke-linejoin="miter" stroke-linecap="square" stroke-miterlimit="3"/><rect x="681.217" y="159.929" width="10.142" height="40.569" transform="matrix(1,0,0,1,0,0)" fill="none" vector-effect="non-scaling-stroke" stroke-width="3" stroke="rgb(255,255,255)" stroke-linejoin="miter" stroke-linecap="square" stroke-miterlimit="2"/><rect x="696.151" y="159.929" width="10.142" height="40.569" transform="matrix(1,0,0,1,0,0)" fill="rgb(51,58,72)"/></g><g><circle vector-effect="non-scaling-stroke" cx="1036.1961151384207" cy="-289.71207222858095" r="20.284547070878887" fill="rgb(51,58,72)"/><circle vector-effect="non-scaling-stroke" cx="1036.1961151384205" cy="-289.71207222858095" r="16.903789225731998" fill="rgb(219,211,211)"/><circle vector-effect="non-scaling-stroke" cx="1036.1961151384207" cy="-289.71207222858095" r="13.523031380585962" fill="rgb(255,255,255)"/><circle vector-effect="non-scaling-stroke" cx="1080.1459671253253" cy="-289.71207222858095" r="20.284547070878943" fill="rgb(51,58,72)"/><circle vector-effect="non-scaling-stroke" cx="1080.1459671253247" cy="-289.7120722285809" r="16.90378922573268" fill="rgb(219,211,211)"/><circle vector-effect="non-scaling-stroke" cx="1080.1459671253247" cy="-289.7120722285809" r="13.52303138058619" fill="rgb(255,255,255)"/></g></g><g><circle vector-effect="non-scaling-stroke" cx="956.7483057774784" cy="301.2516942225217" r="301.2516942225216" fill="rgb(26,8,57)" stroke-width="1" stroke="rgb(0,0,0)" stroke-linejoin="miter" stroke-linecap="square" stroke-miterlimit="3"/><circle vector-effect="non-scaling-stroke" cx="956.7483057774784" cy="301.7483057774785" r="235.25169422252134" fill="rgb(33,13,68)"/><circle vector-effect="non-scaling-stroke" cx="956.7483057774784" cy="301.25169422252117" r="176.25169422252105" fill="rgb(34,4,68)"/></g><g><g><rect x="972.5" y="98" width="35" height="16.5" transform="matrix(1,0,0,1,0,0)" fill="rgb(71,82,104)"/><path d=" M 978 98 L 978 93.5 L 982.5 87.5 L 996.75 87.5 L 1002 93.5 L 1002 98 L 978 98 Z " fill="rgb(219,211,211)"/><path d=" M 1038.5 189.5 L 1020.5 114.5 L 959.5 108.5 L 959.5 205.5 L 1038.5 189.5 Z " fill="rgb(219,211,211)"/><rect x="1032.25" y="128" width="2.5" height="35" transform="matrix(-1,0,0,-1,2067,291)" fill="rgb(219,211,211)"/><rect x="1031.5" y="122.4" width="4" height="11.2" transform="matrix(1,0,0,1,0,0)" fill="rgb(219,211,211)"/><rect x="1031.5" y="139" width="4" height="24" transform="matrix(-1,0,0,-1,2067,302)" fill="rgb(109,124,128)"/><path d="M 1035.585 157 L 1030.415 157 C 1028.806 157 1027.5 158.306 1027.5 159.915 L 1027.5 166.085 C 1027.5 167.694 1028.806 169 1030.415 169 L 1035.585 169 C 1037.194 169 1038.5 167.694 1038.5 166.085 L 1038.5 159.915 C 1038.5 158.306 1037.194 157 1035.585 157 Z" style="stroke:none;fill:#DBD3D3;stroke-linecap:square;stroke-miterlimit:2;"/><rect x="959.5" y="189" width="52" height="32" transform="matrix(1,0,0,1,0,0)" fill="rgb(255,255,255)"/><path d=" M 1011.3 229.78 L 1024.5 236.38 L 1024.5 242.57 L 1006.78 234.3 L 1011.3 229.78 Z  M 1011.7 232.22 L 1022.5 237.62 L 1022.5 239.43 L 1010.22 233.7 L 1011.7 232.22 Z " fill-rule="evenodd" fill="rgb(56,62,70)"/><path d=" M 959.5 210 L 959.5 206 L 981.5 206 L 981.5 210 L 959.5 210 Z " fill="rgb(56,62,70)"/><g><mask id="_mask_mx6mGhfqW1okm5UBeNzubiAwGG7zzTvU"><path d=" M 1017.5 123 L 989.5 168 L 959.5 123 L 1017.5 123 Z " fill="white" stroke="none"/></mask><path d=" M 1017.5 123 L 989.5 168 L 959.5 123 L 1017.5 123 Z " fill="rgb(158,229,255)" mask="url(#_mask_mx6mGhfqW1okm5UBeNzubiAwGG7zzTvU)" vector-effect="non-scaling-stroke" stroke-width="6" stroke="rgb(255,255,255)" stroke-linejoin="miter" stroke-linecap="butt" stroke-miterlimit="3"/><path d=" M 989.5 168 L 959.5 168 L 959.5 123 L 989.5 168 Z " fill="rgb(158,229,255)"/><mask id="_mask_MqJDXjAegnNBaMbE8BP7WZANM1imBX4t"><path d=" M 1017.5 123 L 1033.5 189 L 989.5 168 L 1017.5 123 Z " fill="white" stroke="none"/></mask><path d=" M 1017.5 123 L 1033.5 189 L 989.5 168 L 1017.5 123 Z " fill="rgb(158,229,255)" mask="url(#_mask_MqJDXjAegnNBaMbE8BP7WZANM1imBX4t)" vector-effect="non-scaling-stroke" stroke-width="6" stroke="rgb(255,255,255)" stroke-linejoin="miter" stroke-linecap="butt" stroke-miterlimit="3"/></g><mask id="_mask_M7p4vcj9d0mfAvXtQoprEmQKjNh1vIZI"><path d=" M 989.5 167 L 1033.5 189 L 959.5 189 L 959.5 167 L 989.5 167 Z " fill="white" stroke="none"/></mask><path d=" M 989.5 167 L 1033.5 189 L 959.5 189 L 959.5 167 L 989.5 167 Z " fill="rgb(158,229,255)" mask="url(#_mask_M7p4vcj9d0mfAvXtQoprEmQKjNh1vIZI)" vector-effect="non-scaling-stroke" stroke-width="6" stroke="rgb(255,255,255)" stroke-linejoin="bevel" stroke-linecap="square" stroke-miterlimit="3"/><path d=" M 1021.5 213 L 959.5 213 L 959.5 250 L 992.5 250 L 1029.5 213 L 1021.5 213 Z " fill="rgb(71,82,104)"/><rect x="959.5" y="220" width="37" height="4.5" transform="matrix(1,0,0,1,0,0)" fill="rgb(51,58,72)"/><rect x="959.5" y="233.25" width="26" height="4.5" transform="matrix(1,0,0,1,0,0)" fill="rgb(51,58,72)"/><rect x="959.5" y="226.5" width="37" height="4.5" transform="matrix(1,0,0,1,0,0)" fill="rgb(51,58,72)"/><path d=" M 1044.596 225 L 1055.109 241 L 1055.109 253 L 1043.787 246 L 1044.596 225 Z " fill="rgb(51,58,72)"/><path d=" M 959.5 174.5 L 959.5 169.5 L 989.08 169.5 L 1038.6 193.75 L 1036.4 198.25 L 987.92 174.5 L 959.5 174.5 Z " fill="rgb(56,62,70)"/><path d=" M 1033.65 195.23 L 1034.42 193.38 L 1038.12 194.92 L 1037.35 196.77 L 1031.83 210 L 979.5 210 L 979.5 198.73 L 986.57 173.46 L 987.11 171.53 L 990.97 172.61 L 990.43 174.54 L 983.5 199.27 L 983.5 206 L 1029.17 206 L 1033.65 195.23 Z " fill="rgb(56,62,70)"/><path d="M 1083.609 215 L 1063 215 C 1058.645 215 1055.109 218.536 1055.109 222.891 L 1055.109 266.109 C 1055.109 270.464 1058.645 274 1063 274 L 1083.609 274 C 1087.964 274 1091.5 270.464 1091.5 266.109 L 1091.5 222.891 C 1091.5 218.536 1087.964 215 1083.609 215 Z" style="stroke:none;fill:#475268;stroke-linecap:square;stroke-miterlimit:2;"/><path d=" M 1071.33 228.56 C 1071.18 228.78 1070.95 228.93 1070.69 228.98 C 1070.43 229.03 1070.16 228.98 1069.94 228.83 C 1069.72 228.68 1069.57 228.45 1069.52 228.19 C 1069.47 227.93 1069.52 227.66 1069.67 227.44 L 1074.66 220 L 1087.5 220 C 1087.77 220 1088.02 220.11 1088.21 220.29 C 1088.39 220.48 1088.5 220.73 1088.5 221 C 1088.5 221.27 1088.39 221.52 1088.21 221.71 C 1088.02 221.89 1087.77 222 1087.5 222 L 1075.72 222 L 1071.33 228.56 Z " fill="rgb(51,58,72)"/><path d=" M 1072.33 250.06 C 1072.18 250.28 1071.95 250.43 1071.69 250.48 C 1071.43 250.53 1071.16 250.48 1070.94 250.33 C 1070.72 250.18 1070.57 249.95 1070.52 249.69 C 1070.47 249.43 1070.52 249.16 1070.67 248.94 L 1075.66 241.5 L 1088.5 241.5 C 1088.77 241.5 1089.02 241.61 1089.21 241.79 C 1089.39 241.98 1089.5 242.23 1089.5 242.5 C 1089.5 242.77 1089.39 243.02 1089.21 243.21 C 1089.02 243.39 1088.77 243.5 1088.5 243.5 L 1076.72 243.5 L 1072.33 250.06 Z " fill="rgb(51,58,72)"/><path d=" M 1071.33 269.56 C 1071.18 269.78 1070.95 269.93 1070.69 269.98 C 1070.43 270.03 1070.16 269.98 1069.94 269.83 C 1069.72 269.68 1069.57 269.45 1069.52 269.19 C 1069.47 268.93 1069.52 268.66 1069.67 268.44 L 1074.66 261 L 1087.5 261 C 1087.77 261 1088.02 261.11 1088.21 261.29 C 1088.39 261.48 1088.5 261.73 1088.5 262 C 1088.5 262.27 1088.39 262.52 1088.21 262.71 C 1088.02 262.89 1087.77 263 1087.5 263 L 1075.72 263 L 1071.33 269.56 Z " fill="rgb(51,58,72)"/><path d=" M 1059.19 253 C 1058.92 253 1058.67 252.89 1058.48 252.71 C 1058.3 252.52 1058.19 252.27 1058.19 252 C 1058.19 251.73 1058.3 251.48 1058.48 251.29 C 1058.67 251.11 1058.92 251 1059.19 251 L 1072.03 251 L 1077.02 258.44 C 1077.17 258.66 1077.22 258.93 1077.17 259.19 C 1077.12 259.45 1076.97 259.68 1076.75 259.83 C 1076.53 259.98 1076.26 260.03 1076 259.98 C 1075.74 259.93 1075.51 259.78 1075.36 259.56 L 1070.97 253 L 1059.19 253 Z " fill="rgb(51,58,72)"/><path d=" M 1059.19 233 C 1058.92 233 1058.67 232.89 1058.48 232.71 C 1058.3 232.52 1058.19 232.27 1058.19 232 C 1058.19 231.73 1058.3 231.48 1058.48 231.29 C 1058.67 231.11 1058.92 231 1059.19 231 L 1072.03 231 L 1077.02 238.44 C 1077.17 238.66 1077.22 238.93 1077.17 239.19 C 1077.12 239.45 1076.97 239.68 1076.75 239.83 C 1076.53 239.98 1076.26 240.03 1076 239.98 C 1075.74 239.93 1075.51 239.78 1075.36 239.56 L 1070.97 233 L 1059.19 233 Z " fill="rgb(51,58,72)"/><path d=" M 1044.596 225 L 1034.083 225 L 1034.083 216 L 998.5 216 L 998.5 231 L 1023.57 231 L 1023.57 243 L 1044.596 246 L 1044.596 225 Z " fill="rgb(71,82,104)"/><rect x="1038.5" y="229" width="3" height="12" transform="matrix(1,0,0,1,0,0)" fill="rgb(51,58,72)"/><rect x="1034.083" y="229" width="3" height="12" transform="matrix(1,0,0,1,0,0)" fill="rgb(51,58,72)"/></g><g><path d=" M 881.5 189.5 L 899.5 114.5 L 960.5 108.5 L 960.5 205.5 L 881.5 189.5 Z " fill="rgb(219,211,211)"/><rect x="885.25" y="92" width="2.5" height="71" transform="matrix(-1,0,0,-1,1773,255)" fill="rgb(219,211,211)"/><rect x="884.5" y="82.9" width="4" height="11.2" transform="matrix(1,0,0,1,0,0)" fill="rgb(219,211,211)"/><rect x="884.5" y="139" width="4" height="24" transform="matrix(-1,0,0,-1,1773,302)" fill="rgb(109,124,128)"/><path d="M 884.415 157 L 889.585 157 C 891.194 157 892.5 158.306 892.5 159.915 L 892.5 166.085 C 892.5 167.694 891.194 169 889.585 169 L 884.415 169 C 882.806 169 881.5 167.694 881.5 166.085 L 881.5 159.915 C 881.5 158.306 882.806 157 884.415 157 Z" style="stroke:none;fill:#DBD3D3;stroke-linecap:square;stroke-miterlimit:2;"/><rect x="908.5" y="189" width="52" height="32" transform="matrix(1,0,0,1,0,0)" fill="rgb(255,255,255)"/><path d=" M 913.22 234.3 L 895.5 242.57 L 895.5 236.38 L 908.7 229.78 L 913.22 234.3 Z  M 909.78 233.7 L 897.5 239.43 L 897.5 237.62 L 908.3 232.22 L 909.78 233.7 Z " fill-rule="evenodd" fill="rgb(56,62,70)"/><path d=" M 960.5 206 L 960.5 210 L 938.5 210 L 938.5 206 L 960.5 206 Z " fill="rgb(56,62,70)"/><g><mask id="_mask_ZTVZWEnDFdKlhZLjJf0lJZUklTzXONwx"><path d=" M 902.5 123 L 930.5 168 L 960.5 123 L 902.5 123 Z " fill="white" stroke="none"/></mask><path d=" M 902.5 123 L 930.5 168 L 960.5 123 L 902.5 123 Z " fill="rgb(158,229,255)" mask="url(#_mask_ZTVZWEnDFdKlhZLjJf0lJZUklTzXONwx)" vector-effect="non-scaling-stroke" stroke-width="6" stroke="rgb(255,255,255)" stroke-linejoin="miter" stroke-linecap="butt" stroke-miterlimit="3"/><path d=" M 930.5 168 L 960.5 168 L 960.5 123 L 930.5 168 Z " fill="rgb(158,229,255)"/><mask id="_mask_9rsuiHnlSQpWUnmzVHZnQ1B077H1qZxW"><path d=" M 902.5 123 L 886.5 189 L 930.5 168 L 902.5 123 Z " fill="white" stroke="none"/></mask><path d=" M 902.5 123 L 886.5 189 L 930.5 168 L 902.5 123 Z " fill="rgb(158,229,255)" mask="url(#_mask_9rsuiHnlSQpWUnmzVHZnQ1B077H1qZxW)" vector-effect="non-scaling-stroke" stroke-width="6" stroke="rgb(255,255,255)" stroke-linejoin="miter" stroke-linecap="butt" stroke-miterlimit="3"/></g><mask id="_mask_et4e9kYoNzbARuZFsS3QFR4kUJpl0dkp"><path d=" M 930.5 167 L 886.5 189 L 960.5 189 L 960.5 167 L 930.5 167 Z " fill="white" stroke="none"/></mask><path d=" M 930.5 167 L 886.5 189 L 960.5 189 L 960.5 167 L 930.5 167 Z " fill="rgb(158,229,255)" mask="url(#_mask_et4e9kYoNzbARuZFsS3QFR4kUJpl0dkp)" vector-effect="non-scaling-stroke" stroke-width="6" stroke="rgb(255,255,255)" stroke-linejoin="bevel" stroke-linecap="square" stroke-miterlimit="3"/><path d=" M 898.5 213 L 960.5 213 L 960.5 250 L 927.5 250 L 890.5 213 L 898.5 213 Z " fill="rgb(71,82,104)"/><rect x="923.5" y="220" width="37" height="4.5" transform="matrix(1,0,0,1,0,0)" fill="rgb(51,58,72)"/><rect x="934.5" y="233.25" width="26" height="4.5" transform="matrix(1,0,0,1,0,0)" fill="rgb(51,58,72)"/><rect x="923.5" y="226.5" width="37" height="4.5" transform="matrix(1,0,0,1,0,0)" fill="rgb(51,58,72)"/><path d=" M 875.404 225 L 864.891 241 L 864.891 253 L 876.213 246 L 875.404 225 Z " fill="rgb(51,58,72)"/><path d=" M 883.6 198.25 L 881.4 193.75 L 930.92 169.5 L 960.5 169.5 L 960.5 174.5 L 932.08 174.5 L 883.6 198.25 Z " fill="rgb(56,62,70)"/><path d=" M 929.57 174.54 L 929.03 172.61 L 932.89 171.53 L 933.43 173.46 L 940.5 198.73 L 940.5 210 L 888.17 210 L 882.65 196.77 L 881.88 194.92 L 885.58 193.38 L 886.35 195.23 L 890.83 206 L 936.5 206 L 936.5 199.27 L 929.57 174.54 Z " fill="rgb(56,62,70)"/><path d="M 836.391 215 L 857 215 C 861.355 215 864.891 218.536 864.891 222.891 L 864.891 266.109 C 864.891 270.464 861.355 274 857 274 L 836.391 274 C 832.036 274 828.5 270.464 828.5 266.109 L 828.5 222.891 C 828.5 218.536 832.036 215 836.391 215 Z" style="stroke:none;fill:#475268;stroke-linecap:square;stroke-miterlimit:2;"/><path d=" M 832.5 222 C 832.23 222 831.98 221.89 831.79 221.71 C 831.61 221.52 831.5 221.27 831.5 221 C 831.5 220.73 831.61 220.48 831.79 220.29 C 831.98 220.11 832.23 220 832.5 220 L 845.34 220 L 850.33 227.44 C 850.48 227.66 850.53 227.93 850.48 228.19 C 850.43 228.45 850.28 228.68 850.06 228.83 C 849.84 228.98 849.57 229.03 849.31 228.98 C 849.05 228.93 848.82 228.78 848.67 228.56 L 844.28 222 L 832.5 222 Z " fill="rgb(51,58,72)"/><path d=" M 831.5 243.5 C 831.23 243.5 830.98 243.39 830.79 243.21 C 830.61 243.02 830.5 242.77 830.5 242.5 C 830.5 242.23 830.61 241.98 830.79 241.79 C 830.98 241.61 831.23 241.5 831.5 241.5 L 844.34 241.5 L 849.33 248.94 C 849.48 249.16 849.53 249.43 849.48 249.69 C 849.43 249.95 849.28 250.18 849.06 250.33 C 848.84 250.48 848.57 250.53 848.31 250.48 C 848.05 250.43 847.82 250.28 847.67 250.06 L 843.28 243.5 L 831.5 243.5 Z " fill="rgb(51,58,72)"/><path d=" M 832.5 263 C 832.23 263 831.98 262.89 831.79 262.71 C 831.61 262.52 831.5 262.27 831.5 262 C 831.5 261.73 831.61 261.48 831.79 261.29 C 831.98 261.11 832.23 261 832.5 261 L 845.34 261 L 850.33 268.44 C 850.48 268.66 850.53 268.93 850.48 269.19 C 850.43 269.45 850.28 269.68 850.06 269.83 C 849.84 269.98 849.57 270.03 849.31 269.98 C 849.05 269.93 848.82 269.78 848.67 269.56 L 844.28 263 L 832.5 263 Z " fill="rgb(51,58,72)"/><path d=" M 844.64 259.56 C 844.49 259.78 844.26 259.93 844 259.98 C 843.74 260.03 843.47 259.98 843.25 259.83 C 843.03 259.68 842.88 259.45 842.83 259.19 C 842.78 258.93 842.83 258.66 842.98 258.44 L 847.97 251 L 860.81 251 C 861.08 251 861.33 251.11 861.52 251.29 C 861.7 251.48 861.81 251.73 861.81 252 C 861.81 252.27 861.7 252.52 861.52 252.71 C 861.33 252.89 861.08 253 860.81 253 L 849.03 253 L 844.64 259.56 Z " fill="rgb(51,58,72)"/><path d=" M 844.64 239.56 C 844.49 239.78 844.26 239.93 844 239.98 C 843.74 240.03 843.47 239.98 843.25 239.83 C 843.03 239.68 842.88 239.45 842.83 239.19 C 842.78 238.93 842.83 238.66 842.98 238.44 L 847.97 231 L 860.81 231 C 861.08 231 861.33 231.11 861.52 231.29 C 861.7 231.48 861.81 231.73 861.81 232 C 861.81 232.27 861.7 232.52 861.52 232.71 C 861.33 232.89 861.08 233 860.81 233 L 849.03 233 L 844.64 239.56 Z " fill="rgb(51,58,72)"/><path d=" M 875.404 225 L 885.917 225 L 885.917 216 L 921.5 216 L 921.5 231 L 896.43 231 L 896.43 243 L 875.404 246 L 875.404 225 Z " fill="rgb(71,82,104)"/><rect x="878.5" y="229" width="3" height="12" transform="matrix(1,0,0,1,0,0)" fill="rgb(51,58,72)"/><rect x="882.917" y="229" width="3" height="12" transform="matrix(1,0,0,1,0,0)" fill="rgb(51,58,72)"/></g><g><circle vector-effect="non-scaling-stroke" cx="983.5" cy="96" r="6" fill="rgb(51,58,72)"/><circle vector-effect="non-scaling-stroke" cx="983.5" cy="96" r="4.999999999999886" fill="rgb(219,211,211)"/><circle vector-effect="non-scaling-stroke" cx="983.5" cy="96" r="4" fill="rgb(255,255,255)"/><circle vector-effect="non-scaling-stroke" cx="996.5" cy="96" r="6" fill="rgb(51,58,72)"/><circle vector-effect="non-scaling-stroke" cx="996.4999999999999" cy="95.99999999999999" r="5" fill="rgb(219,211,211)"/><circle vector-effect="non-scaling-stroke" cx="996.5" cy="96" r="4.000000000000114" fill="rgb(255,255,255)"/></g></g></g></svg>