<?xml version="1.0" standalone="no"?><!-- Generator: Gravit.io --><svg xmlns="http://www.w3.org/2000/svg" xmlns:xlink="http://www.w3.org/1999/xlink" style="isolation:isolate" viewBox="0 0 1920 300" width="1920" height="300"><defs><clipPath id="_clipPath_2ZZ32lqDg2IkAB23YuIJKc9tcu839D7B"><rect width="1920" height="300"/></clipPath></defs><g clip-path="url(#_clipPath_2ZZ32lqDg2IkAB23YuIJKc9tcu839D7B)"><g><g><path d=" M 335.501 268.016 C 371.809 224.29 393.667 199.632 458.949 193.871 L 531.565 91.209 L 647.751 -74.192 L 720.367 -74.192 L 829.291 -211.076 C 872.861 -227.236 882.615 -248.091 960 -251 L 960 268.016 L 960 484.748 L 335.501 484.748 L 335.501 268.016 Z " fill="none" vector-effect="non-scaling-stroke" stroke-width="3" stroke="rgb(255,255,255)" stroke-linejoin="miter" stroke-linecap="square" stroke-miterlimit="3"/><clipPath id="_clipPath_B5G1c1J3nyKDbDRC7DWfzHtE0w9ESUXK"><path d=" M 335.501 268.016 C 371.809 224.29 393.667 199.632 458.949 193.871 L 531.565 91.209 L 647.751 -74.192 L 720.367 -74.192 L 829.291 -211.076 C 872.861 -227.236 882.615 -248.091 960 -251 L 960 268.016 L 960 484.748 L 335.501 484.748 L 335.501 268.016 Z " fill="none" vector-effect="non-scaling-stroke" stroke-width="3" stroke="rgb(255,255,255)" stroke-linejoin="miter" stroke-linecap="square" stroke-miterlimit="3"/></clipPath><g clip-path="url(#_clipPath_B5G1c1J3nyKDbDRC7DWfzHtE0w9ESUXK)"><path d=" M 724.143 -74.934 L 731.114 -73.451 L 636.713 194.613 L 629.742 193.13 L 724.143 -74.934 Z " fill="none" vector-effect="non-scaling-stroke" stroke-width="3" stroke="rgb(255,255,255)" stroke-linejoin="miter" stroke-linecap="square" stroke-miterlimit="3"/><path d=" M 981.785 -77.044 L 985.416 -77.044 L 985.416 -71.341 L 981.785 -71.341 L 618.704 -71.341 L 615.073 -71.341 L 615.073 -77.044 L 618.704 -77.044 L 981.785 -77.044 Z " fill="rgb(71,82,104)"/><path d=" M 960 191.019 L 960 196.723 L 429.902 196.723 L 429.902 191.019 L 960 191.019 Z " fill="none" vector-effect="non-scaling-stroke" stroke-width="3" stroke="rgb(255,255,255)" stroke-linejoin="miter" stroke-linecap="square" stroke-miterlimit="3"/></g><path d=" M 335.501 268.016 C 371.809 224.29 393.667 199.632 458.949 193.871 L 531.565 91.209 L 647.751 -74.192 L 720.367 -74.192 L 829.291 -211.076 C 872.861 -227.236 882.615 -248.091 960 -251 L 960 268.016 L 960 484.748 L 335.501 484.748 L 335.501 268.016 Z " fill="transparent" vector-effect="non-scaling-stroke" stroke-width="3" stroke="rgb(255,255,255)" stroke-linejoin="miter" stroke-linecap="square" stroke-miterlimit="3"/><ellipse vector-effect="non-scaling-stroke" cx="705.8434733029052" cy="-62.785320818974526" rx="7.26161514742023" ry="5.703475621175702" fill="rgb(71,82,104)"/><ellipse vector-effect="non-scaling-stroke" cx="742.151549040002" cy="-62.78532081897451" rx="7.26161514742023" ry="5.703475621175709" fill="rgb(71,82,104)"/><ellipse vector-effect="non-scaling-stroke" cx="618.7040915338639" cy="176.76065527040518" rx="7.26161514742023" ry="5.7034756211756985" fill="none" stroke-width="3" stroke="rgb(255,255,255)" stroke-linejoin="miter" stroke-linecap="square" stroke-miterlimit="3"/><ellipse vector-effect="non-scaling-stroke" cx="662.2737824183776" cy="176.7606552704057" rx="7.26161514742023" ry="5.7034756211756985" fill="none" stroke-width="3" stroke="rgb(255,255,255)" stroke-linejoin="miter" stroke-linecap="square" stroke-miterlimit="3"/><rect x="335.501" y="268.016" width="624.499" height="216.732" transform="matrix(1,0,0,1,0,0)" fill="none" vector-effect="non-scaling-stroke" stroke-width="3" stroke="rgb(255,255,255)" stroke-linejoin="miter" stroke-linecap="square" stroke-miterlimit="2"/><clipPath id="_clipPath_A1q2itb8kuJqpAVVyG6OaT7F2KnVlYAs"><rect x="335.501" y="268.016" width="624.499" height="216.732" transform="matrix(1,0,0,1,0,0)" fill="none" vector-effect="non-scaling-stroke" stroke-width="3" stroke="rgb(255,255,255)" stroke-linejoin="miter" stroke-linecap="square" stroke-miterlimit="2"/></clipPath><g clip-path="url(#_clipPath_A1q2itb8kuJqpAVVyG6OaT7F2KnVlYAs)"><path d=" M 433.533 484.748 L 433.533 487.6 L 426.271 487.6 L 426.271 484.748 L 426.271 268.016 L 426.271 265.165 L 433.533 265.165 L 433.533 268.016 L 433.533 484.748 Z " fill="none" vector-effect="non-scaling-stroke" stroke-width="3" stroke="rgb(255,255,255)" stroke-linejoin="miter" stroke-linecap="square" stroke-miterlimit="3"/><path d=" M 738.521 484.748 L 738.521 487.6 L 731.259 487.6 L 731.259 484.748 L 731.259 268.016 L 731.259 265.165 L 738.521 265.165 L 738.521 268.016 L 738.521 484.748 Z " fill="rgb(51,58,72)"/><ellipse vector-effect="non-scaling-stroke" cx="408.11725225867065" cy="285.1266920727402" rx="7.261615147420173" ry="5.7034756211756985" fill="none" stroke-width="3" stroke="rgb(255,255,255)" stroke-linejoin="miter" stroke-linecap="square" stroke-miterlimit="3"/><ellipse vector-effect="non-scaling-stroke" cx="408.1172522586678" cy="467.6379119503639" rx="7.261615147420173" ry="5.7034756211756985" fill="rgb(51,58,72)"/><ellipse vector-effect="non-scaling-stroke" cx="451.6869431431926" cy="467.6379119503634" rx="7.261615147420173" ry="5.7034756211756985" fill="rgb(51,58,72)"/><ellipse vector-effect="non-scaling-stroke" cx="451.6869431431926" cy="285.1266920727402" rx="7.261615147420173" ry="5.7034756211756985" fill="none" stroke-width="3" stroke="rgb(255,255,255)" stroke-linejoin="miter" stroke-linecap="square" stroke-miterlimit="3"/><ellipse vector-effect="non-scaling-stroke" cx="713.105088450316" cy="285.1266920727402" rx="7.26161514742023" ry="5.7034756211756985" fill="rgb(51,58,72)"/><ellipse vector-effect="non-scaling-stroke" cx="713.105088450316" cy="467.63791195036447" rx="7.26161514742023" ry="5.7034756211756985" fill="rgb(51,58,72)"/><ellipse vector-effect="non-scaling-stroke" cx="756.6747793348407" cy="467.6379119503634" rx="7.26161514742023" ry="5.7034756211756985" fill="rgb(51,58,72)"/><ellipse vector-effect="non-scaling-stroke" cx="756.6747793348379" cy="285.1266920727396" rx="7.26161514742023" ry="5.7034756211756985" fill="rgb(51,58,72)"/></g><rect x="335.501" y="268.016" width="624.499" height="216.732" transform="matrix(1,0,0,1,0,0)" fill="transparent" vector-effect="non-scaling-stroke" stroke-width="3" stroke="rgb(255,255,255)" stroke-linejoin="miter" stroke-linecap="square" stroke-miterlimit="2"/><path d=" M 959.966 165.354 C 879.81 165.354 814.733 114.241 814.733 51.284 C 814.733 -11.672 879.81 -62.785 959.966 -62.785 L 959.966 51.284 L 959.966 165.354 Z " fill="none" vector-effect="non-scaling-stroke" stroke-width="3" stroke="rgb(255,255,255)" stroke-linejoin="miter" stroke-linecap="square" stroke-miterlimit="3"/><path d=" M 959.966 142.54 C 895.841 142.54 843.78 101.65 843.78 51.284 C 843.78 0.919 895.841 -39.971 959.966 -39.971 L 959.966 51.284 L 959.966 142.54 Z " fill="none" vector-effect="non-scaling-stroke" stroke-width="3" stroke="rgb(255,255,255)" stroke-linejoin="miter" stroke-linecap="square" stroke-miterlimit="3"/><path d=" M 720.367 153.947 L 713.105 182.464 L 771.198 182.464 L 771.198 153.947 L 720.367 153.947 Z " fill="rgb(71,82,104)"/></g><g><path d=" M 1584.347 268.016 C 1548.039 224.29 1526.182 199.632 1460.9 193.871 L 1388.284 91.209 L 1272.098 -74.192 L 1199.482 -74.192 L 1090.558 -211.076 C 1046.988 -227.236 1037.233 -248.091 959.848 -251 L 959.848 268.016 L 959.848 484.748 L 1584.347 484.748 L 1584.347 268.016 Z " fill="none" vector-effect="non-scaling-stroke" stroke-width="3" stroke="rgb(255,255,255)" stroke-linejoin="miter" stroke-linecap="square" stroke-miterlimit="3"/><clipPath id="_clipPath_jUHpUq81EJyddJAIt01XDXDyFwH00zGW"><path d=" M 1584.347 268.016 C 1548.039 224.29 1526.182 199.632 1460.9 193.871 L 1388.284 91.209 L 1272.098 -74.192 L 1199.482 -74.192 L 1090.558 -211.076 C 1046.988 -227.236 1037.233 -248.091 959.848 -251 L 959.848 268.016 L 959.848 484.748 L 1584.347 484.748 L 1584.347 268.016 Z " fill="none" vector-effect="non-scaling-stroke" stroke-width="3" stroke="rgb(255,255,255)" stroke-linejoin="miter" stroke-linecap="square" stroke-miterlimit="3"/></clipPath><g clip-path="url(#_clipPath_jUHpUq81EJyddJAIt01XDXDyFwH00zGW)"><path d=" M 1195.706 -74.934 L 1188.735 -73.451 L 1283.136 194.613 L 1290.107 193.13 L 1195.706 -74.934 Z " fill="none" vector-effect="non-scaling-stroke" stroke-width="3" stroke="rgb(255,255,255)" stroke-linejoin="miter" stroke-linecap="square" stroke-miterlimit="3"/><path d=" M 938.064 -77.044 L 934.433 -77.044 L 934.433 -71.341 L 938.064 -71.341 L 1301.144 -71.341 L 1304.775 -71.341 L 1304.775 -77.044 L 1301.144 -77.044 L 938.064 -77.044 Z " fill="rgb(71,82,104)"/><path d=" M 959.848 191.019 L 959.848 196.723 L 1489.946 196.723 L 1489.946 191.019 L 959.848 191.019 Z " fill="none" vector-effect="non-scaling-stroke" stroke-width="3" stroke="rgb(255,255,255)" stroke-linejoin="miter" stroke-linecap="square" stroke-miterlimit="3"/></g><path d=" M 1584.347 268.016 C 1548.039 224.29 1526.182 199.632 1460.9 193.871 L 1388.284 91.209 L 1272.098 -74.192 L 1199.482 -74.192 L 1090.558 -211.076 C 1046.988 -227.236 1037.233 -248.091 959.848 -251 L 959.848 268.016 L 959.848 484.748 L 1584.347 484.748 L 1584.347 268.016 Z " fill="transparent" vector-effect="non-scaling-stroke" stroke-width="3" stroke="rgb(255,255,255)" stroke-linejoin="miter" stroke-linecap="square" stroke-miterlimit="3"/><ellipse vector-effect="non-scaling-stroke" cx="1214.0049845823255" cy="-62.78532081897736" rx="7.261615147420116" ry="5.703475621175706" fill="rgb(71,82,104)"/><ellipse vector-effect="non-scaling-stroke" cx="1177.6969088452174" cy="-62.785320818977866" rx="7.261615147420116" ry="5.703475621175709" fill="rgb(71,82,104)"/><ellipse vector-effect="non-scaling-stroke" cx="1301.1443663513496" cy="176.76065527040393" rx="7.261615147420116" ry="5.7034756211756985" fill="none" stroke-width="3" stroke="rgb(255,255,255)" stroke-linejoin="miter" stroke-linecap="square" stroke-miterlimit="3"/><ellipse vector-effect="non-scaling-stroke" cx="1257.574675466828" cy="176.76065527040444" rx="7.261615147420116" ry="5.7034756211756985" fill="none" stroke-width="3" stroke="rgb(255,255,255)" stroke-linejoin="miter" stroke-linecap="square" stroke-miterlimit="3"/><rect x="959.848" y="268.016" width="624.499" height="216.732" transform="matrix(1,0,0,1,0,0)" fill="none" vector-effect="non-scaling-stroke" stroke-width="3" stroke="rgb(255,255,255)" stroke-linejoin="miter" stroke-linecap="square" stroke-miterlimit="2"/><clipPath id="_clipPath_gCI372AgBM0gv2OPWQFRFWpmmMExqeKV"><rect x="959.848" y="268.016" width="624.499" height="216.732" transform="matrix(1,0,0,1,0,0)" fill="none" vector-effect="non-scaling-stroke" stroke-width="3" stroke="rgb(255,255,255)" stroke-linejoin="miter" stroke-linecap="square" stroke-miterlimit="2"/></clipPath><g clip-path="url(#_clipPath_gCI372AgBM0gv2OPWQFRFWpmmMExqeKV)"><path d=" M 1493.577 484.748 L 1493.577 487.6 L 1486.316 487.6 L 1486.316 484.748 L 1486.316 268.016 L 1486.316 265.165 L 1493.577 265.165 L 1493.577 268.016 L 1493.577 484.748 Z " fill="none" vector-effect="non-scaling-stroke" stroke-width="3" stroke="rgb(255,255,255)" stroke-linejoin="miter" stroke-linecap="square" stroke-miterlimit="3"/><path d=" M 1188.589 484.748 L 1188.589 487.6 L 1181.328 487.6 L 1181.328 484.748 L 1181.328 268.016 L 1181.328 265.165 L 1188.589 265.165 L 1188.589 268.016 L 1188.589 484.748 Z " fill="rgb(51,58,72)"/><ellipse vector-effect="non-scaling-stroke" cx="1511.7312056265307" cy="285.12669207273933" rx="7.261615147420116" ry="5.7034756211756985" fill="none" stroke-width="3" stroke="rgb(255,255,255)" stroke-linejoin="miter" stroke-linecap="square" stroke-miterlimit="3"/><ellipse vector-effect="non-scaling-stroke" cx="1511.7312056265334" cy="467.63791195036305" rx="7.261615147420116" ry="5.7034756211756985" fill="rgb(51,58,72)"/><ellipse vector-effect="non-scaling-stroke" cx="1468.1615147420173" cy="467.63791195036083" rx="7.261615147420116" ry="5.7034756211756985" fill="rgb(51,58,72)"/><ellipse vector-effect="non-scaling-stroke" cx="1468.1615147420146" cy="285.12669207273876" rx="7.261615147420116" ry="5.7034756211756985" fill="none" stroke-width="3" stroke="rgb(255,255,255)" stroke-linejoin="miter" stroke-linecap="square" stroke-miterlimit="3"/><ellipse vector-effect="non-scaling-stroke" cx="1206.743369434888" cy="285.12669207273876" rx="7.261615147420116" ry="5.7034756211756985" fill="rgb(51,58,72)"/><ellipse vector-effect="non-scaling-stroke" cx="1206.7433694348913" cy="467.63791195036197" rx="7.261615147420116" ry="5.7034756211756985" fill="rgb(51,58,72)"/><ellipse vector-effect="non-scaling-stroke" cx="1163.1736785503665" cy="467.63791195036197" rx="7.261615147420116" ry="5.7034756211756985" fill="rgb(51,58,72)"/><ellipse vector-effect="non-scaling-stroke" cx="1163.1736785503665" cy="285.12669207273876" rx="7.261615147420116" ry="5.7034756211756985" fill="rgb(51,58,72)"/></g><rect x="959.848" y="268.016" width="624.499" height="216.732" transform="matrix(1,0,0,1,0,0)" fill="transparent" vector-effect="non-scaling-stroke" stroke-width="3" stroke="rgb(255,255,255)" stroke-linejoin="miter" stroke-linecap="square" stroke-miterlimit="2"/><path d=" M 959.848 165.354 C 1040.004 165.354 1105.081 114.241 1105.081 51.284 C 1105.081 -11.672 1040.004 -62.785 959.848 -62.785 L 959.848 51.284 L 959.848 165.354 Z " fill="none" vector-effect="non-scaling-stroke" stroke-width="3" stroke="rgb(255,255,255)" stroke-linejoin="miter" stroke-linecap="square" stroke-miterlimit="3"/><path d=" M 959.814 142.54 C 1023.939 142.54 1076 101.65 1076 51.284 C 1076 0.919 1023.939 -39.971 959.814 -39.971 L 959.814 51.284 L 959.814 142.54 Z " fill="none" vector-effect="non-scaling-stroke" stroke-width="3" stroke="rgb(255,255,255)" stroke-linejoin="miter" stroke-linecap="square" stroke-miterlimit="3"/><path d=" M 1199.482 153.947 L 1206.743 182.464 L 1148.65 182.464 L 1148.65 153.947 L 1199.482 153.947 Z " fill="rgb(71,82,104)"/></g></g><g><circle vector-effect="non-scaling-stroke" cx="956.5010938592682" cy="301.2516942225217" r="301.2516942225216" fill="rgb(26,8,57)"/><circle vector-effect="non-scaling-stroke" cx="956.5010938592682" cy="301.2516942225217" r="235.25169422252134" fill="rgb(33,13,68)"/><circle vector-effect="non-scaling-stroke" cx="956.5010938592682" cy="301.2516942225217" r="176.2516942225211" fill="rgb(34,4,68)"/></g><g><g><g><g><g><path d=" M 921.511 58.791 L 886.157 59.014 C 883.324 53.86 881.716 47.999 881.676 41.779 C 881.544 20.845 899.236 3.736 921.161 3.597 L 921.511 58.791 L 921.511 58.791 Z " fill="rgb(250,124,52)"/><path d=" M 888.625 37.695 C 891.09 35.285 893.751 34.31 896.566 32.803 C 896.982 25.759 899.787 16.541 904.934 7.028 C 902.678 7.945 900.745 9.104 900.404 9.538 C 890.914 21.64 890.137 22.534 888.625 37.695 Z " fill="rgb(255,255,255)"/><path d=" M 905.509 28.873 L 913.474 27.854 C 914.258 19.478 915.396 10.765 916.87 3.624 L 913.32 3.647 C 910.602 9.146 908.008 17.564 905.509 28.873 Z " fill="rgb(255,255,255)"/><path d=" M 921.596 72.347 C 900.17 72.483 882.711 62.375 882.631 49.79 C 882.551 37.205 899.882 26.877 921.308 26.742 L 921.596 72.347 L 921.596 72.347 Z " fill="rgb(206,93,27)"/><clipPath id="_clipPath_WAUEDZt9K5BcTCgHDbC3mmxBlOdoEyFU"><path d=" M 921.596 72.347 C 900.17 72.483 882.711 62.375 882.631 49.79 C 882.551 37.205 899.882 26.877 921.308 26.742 L 921.596 72.347 L 921.596 72.347 Z " fill="rgb(206,93,27)"/></clipPath><g clip-path="url(#_clipPath_WAUEDZt9K5BcTCgHDbC3mmxBlOdoEyFU)"><path d=" M 901.523 28.898 Q 892.172 39.358 893.797 67.681 L 901.259 70.539 C 897.817 51.122 901.914 36.258 906.499 27.898 L 901.523 28.898 Z " fill="rgb(232,162,122)"/><path d=" M 885.727 33.66 Q 877.247 43.146 882.324 67.056 L 889.57 69.645 C 884.258 52.26 886.241 40.646 892.58 32.828 L 885.727 33.66 Z " fill="rgb(232,162,122)"/><path d=" M 912.471 26.892 C 909.274 43.641 908.758 61.749 908.78 73.396 L 917.76 75.276 C 917.323 59.683 917.228 43.232 917.447 25.892 L 912.471 26.892 Z " fill="rgb(232,162,122)"/><path d=" M 921.586 68.958 L 922.084 68.974 L 922.06 69.942 L 921.562 69.926 C 918.981 69.865 916.389 69.669 913.826 69.346 C 911.492 69.051 909.188 68.61 906.912 68.024 C 904.837 67.495 902.799 66.801 900.831 65.971 C 898.993 65.189 897.243 64.251 895.582 63.167 C 892.411 61.105 889.703 58.45 887.611 55.355 C 886.545 53.764 885.648 52.094 884.909 50.336 C 884.13 48.482 883.52 46.568 883.069 44.615 L 882.967 44.141 L 883.932 43.932 L 884.045 44.396 C 884.475 46.301 885.075 48.166 885.834 49.972 C 886.542 51.662 887.419 53.293 888.445 54.817 C 890.467 57.806 893.084 60.375 896.135 62.37 C 897.746 63.415 899.446 64.324 901.224 65.078 C 903.152 65.898 905.14 66.564 907.166 67.083 C 909.401 67.66 911.666 68.091 913.959 68.386 C 916.492 68.7 919.034 68.896 921.586 68.958 Z " fill="rgb(26,8,57)"/></g></g><g><path d=" M 921.511 58.791 L 956.864 58.567 C 959.632 53.377 961.165 47.496 961.126 41.276 C 960.993 20.342 943.086 3.458 921.161 3.597 L 921.511 58.791 L 921.511 58.791 Z " fill="rgb(250,124,52)"/><path d=" M 954.126 37.28 C 951.631 34.902 948.958 33.96 946.124 32.489 C 945.619 25.451 942.697 16.27 937.43 6.823 C 939.698 7.71 941.645 8.845 941.991 9.275 C 951.634 21.256 952.423 22.14 954.126 37.28 Z " fill="rgb(255,255,255)"/><path d=" M 937.132 28.673 L 929.155 27.755 C 928.265 19.389 927.016 10.691 925.452 3.57 L 929.002 3.547 C 931.789 9.012 934.49 17.397 937.132 28.673 Z " fill="rgb(255,255,255)"/><path d=" M 921.596 72.347 C 943.022 72.211 960.353 61.884 960.273 49.298 C 960.193 36.713 942.734 26.606 921.308 26.742 L 921.596 72.347 L 921.596 72.347 Z " fill="rgb(206,93,27)"/><clipPath id="_clipPath_RFBuyy36Y5uGby38qBce1MG6yq7bOUD6"><path d=" M 921.596 72.347 C 943.022 72.211 960.353 61.884 960.273 49.298 C 960.193 36.713 942.734 26.606 921.308 26.742 L 921.596 72.347 L 921.596 72.347 Z " fill="rgb(206,93,27)"/></clipPath><g clip-path="url(#_clipPath_RFBuyy36Y5uGby38qBce1MG6yq7bOUD6)"><path d=" M 941.118 28.648 Q 950.6 38.988 949.334 67.33 L 941.909 70.282 C 945.105 50.823 940.82 36.012 936.13 27.711 L 941.118 28.648 Z " fill="rgb(232,162,122)"/><path d=" M 956.972 33.209 Q 965.573 42.587 960.799 66.559 L 953.586 69.239 C 958.678 51.789 956.547 40.2 950.11 32.464 L 956.972 33.209 Z " fill="rgb(232,162,122)"/><path d=" M 930.145 26.78 C 933.554 43.487 934.299 61.587 934.425 73.234 L 925.47 75.227 C 925.709 59.63 925.595 43.179 925.157 25.844 L 930.145 26.78 Z " fill="rgb(232,162,122)"/><path d=" M 921.564 68.958 L 921.066 68.98 L 921.102 69.949 L 921.6 69.926 C 924.18 69.832 926.77 69.603 929.328 69.248 C 931.658 68.923 933.956 68.453 936.224 67.839 C 938.293 67.283 940.322 66.564 942.279 65.709 C 944.107 64.903 945.845 63.943 947.492 62.838 C 950.637 60.737 953.311 58.047 955.364 54.926 C 956.41 53.321 957.286 51.64 958.002 49.873 C 958.757 48.009 959.343 46.088 959.769 44.13 L 959.866 43.655 L 958.898 43.457 L 958.791 43.923 C 958.385 45.833 957.809 47.706 957.073 49.521 C 956.386 51.22 955.53 52.862 954.523 54.398 C 952.539 57.413 949.955 60.015 946.929 62.048 C 945.332 63.114 943.644 64.044 941.875 64.82 C 939.957 65.665 937.979 66.356 935.959 66.901 C 933.731 67.506 931.472 67.966 929.183 68.29 C 926.654 68.635 924.114 68.864 921.564 68.958 Z " fill="rgb(26,8,57)"/></g></g></g><g><path d=" M 959.04 44.491 L 921.093 189.152 L 883.525 51.955" fill="none" vector-effect="non-scaling-stroke" stroke-width="0.5" stroke="rgb(255,255,255)" stroke-linejoin="miter" stroke-linecap="square" stroke-miterlimit="3"/><path d=" M 892.629 34.201 L 921.093 189.152 L 952.827 34.035" fill="none" vector-effect="non-scaling-stroke" stroke-width="0.5" stroke="rgb(255,255,255)" stroke-linejoin="miter" stroke-linecap="square" stroke-miterlimit="3"/><path d=" M 904.901 28.807 L 921.093 189.152 L 942.338 28.209" fill="none" vector-effect="non-scaling-stroke" stroke-width="0.5" stroke="rgb(255,255,255)" stroke-linejoin="miter" stroke-linecap="square" stroke-miterlimit="3"/><path d=" M 916.354 25.23 L 921.093 189.152 L 931.528 25.518" fill="none" vector-effect="non-scaling-stroke" stroke-width="0.5" stroke="rgb(255,255,255)" stroke-linejoin="miter" stroke-linecap="square" stroke-miterlimit="3"/><path d=" M 892.053 64.549 L 921.093 189.152 L 950.345 61.337" fill="none" vector-effect="non-scaling-stroke" stroke-width="0.3" stroke="rgb(255,255,255)" stroke-linejoin="miter" stroke-linecap="square" stroke-miterlimit="3"/><path d=" M 905.178 69.378 L 921.093 189.152 L 941.208 67.052" fill="none" vector-effect="non-scaling-stroke" stroke-width="0.3" stroke="rgb(255,255,255)" stroke-linejoin="miter" stroke-linecap="square" stroke-miterlimit="3"/><path d=" M 913.263 70.84 L 921.093 189.152 L 932.391 69.633" fill="none" vector-effect="non-scaling-stroke" stroke-width="0.3" stroke="rgb(255,255,255)" stroke-linejoin="miter" stroke-linecap="square" stroke-miterlimit="3"/><line x1="923.076" y1="70.895" x2="921.093" y2="189.152" vector-effect="non-scaling-stroke" stroke-width="0.3" stroke="rgb(255,255,255)" stroke-linejoin="miter" stroke-linecap="square" stroke-miterlimit="3"/></g><line x1="921.333" y1="188.437" x2="924.49" y2="237.857" vector-effect="non-scaling-stroke" stroke-width="1" stroke="rgb(255,255,255)" stroke-linejoin="miter" stroke-linecap="square" stroke-miterlimit="3"/></g><g><g><g><path d=" M 1043.243 84.694 L 1074.07 102.004 C 1079.044 98.865 1083.288 94.515 1086.333 89.092 C 1096.583 70.837 1089.384 47.302 1070.266 36.567 L 1043.243 84.694 L 1043.243 84.694 Z " fill="rgb(250,124,52)"/><path d=" M 1082.23 82.154 C 1081.24 78.852 1079.383 76.711 1077.65 74.03 C 1080.696 67.665 1082.703 58.241 1082.804 47.425 C 1084.335 49.319 1085.465 51.269 1085.553 51.814 C 1087.999 66.998 1088.246 68.156 1082.23 82.154 Z " fill="rgb(255,255,255)"/><path d=" M 1071.727 66.262 L 1065.251 61.515 C 1068.62 53.805 1071.841 45.63 1074.008 38.668 L 1077.103 40.406 C 1076.82 46.534 1075.014 55.156 1071.727 66.262 Z " fill="rgb(255,255,255)"/><path d=" M 1036.605 96.515 C 1055.288 107.005 1075.458 106.613 1081.62 95.639 C 1087.782 84.665 1077.617 67.239 1058.934 56.749 L 1036.605 96.515 L 1036.605 96.515 Z " fill="rgb(206,93,27)"/><clipPath id="_clipPath_fcJcctlkWGOq7VS9BmTUwAmrHt7N7wzR"><path d=" M 1036.605 96.515 C 1055.288 107.005 1075.458 106.613 1081.62 95.639 C 1087.782 84.665 1077.617 67.239 1058.934 56.749 L 1036.605 96.515 L 1036.605 96.515 Z " fill="rgb(206,93,27)"/></clipPath><g clip-path="url(#_clipPath_fcJcctlkWGOq7VS9BmTUwAmrHt7N7wzR)"><path d=" M 1075.202 68.213 Q 1078.321 81.892 1063.189 105.889 L 1055.276 104.778 C 1067.687 89.454 1071.297 74.464 1071.332 64.929 L 1075.202 68.213 Z " fill="rgb(232,162,122)"/><path d=" M 1086.719 80.026 Q 1089.548 92.432 1073.531 110.896 L 1065.937 109.653 C 1079.001 97.013 1082.888 85.89 1081.125 75.981 L 1086.719 80.026 Z " fill="rgb(232,162,122)"/><path d=" M 1066.594 61.158 C 1061.284 77.361 1052.969 93.456 1047.312 103.637 L 1038.545 100.935 C 1046.475 87.503 1054.521 73.153 1062.724 57.875 L 1066.594 61.158 Z " fill="rgb(232,162,122)"/><path d=" M 1038.255 93.554 L 1037.811 93.327 L 1037.363 94.186 L 1037.807 94.413 C 1040.095 95.609 1042.459 96.692 1044.857 97.65 C 1047.042 98.521 1049.272 99.252 1051.547 99.84 C 1053.619 100.382 1055.738 100.761 1057.862 100.988 C 1059.849 101.193 1061.834 101.219 1063.812 101.075 C 1067.585 100.806 1071.24 99.793 1074.569 98.097 C 1076.272 97.221 1077.865 96.195 1079.362 95.014 C 1080.942 93.769 1082.402 92.39 1083.742 90.899 L 1084.061 90.534 L 1083.318 89.883 L 1082.995 90.235 C 1081.696 91.693 1080.268 93.035 1078.73 94.248 C 1077.292 95.384 1075.735 96.387 1074.1 97.223 C 1070.884 98.86 1067.35 99.841 1063.714 100.109 C 1061.799 100.244 1059.871 100.217 1057.95 100.016 C 1055.866 99.8 1053.805 99.42 1051.781 98.895 C 1049.545 98.317 1047.355 97.598 1045.205 96.746 C 1042.837 95.794 1040.517 94.736 1038.255 93.554 Z " fill="rgb(26,8,57)"/></g></g><g><path d=" M 1043.243 84.694 L 1012.416 67.384 C 1012.506 61.504 1014.011 55.615 1017.056 50.192 C 1027.306 31.938 1051.149 25.833 1070.266 36.567 L 1043.243 84.694 L 1043.243 84.694 Z " fill="rgb(250,124,52)"/><path d=" M 1025.116 50.084 C 1028.451 49.211 1031.245 49.681 1034.437 49.765 C 1038.286 43.851 1045.287 37.231 1054.469 31.515 C 1052.055 31.194 1049.802 31.243 1049.291 31.452 C 1035.053 37.268 1033.936 37.66 1025.116 50.084 Z " fill="rgb(255,255,255)"/><path d=" M 1044.153 50.778 L 1051.577 53.837 C 1056.406 46.947 1061.709 39.941 1066.525 34.466 L 1063.43 32.728 C 1058.345 36.16 1051.924 42.19 1044.153 50.778 Z " fill="rgb(255,255,255)"/><path d=" M 1036.605 96.515 C 1017.923 86.024 1007.757 68.598 1013.919 57.624 C 1020.081 46.65 1040.252 46.258 1058.934 56.749 L 1036.605 96.515 L 1036.605 96.515 Z " fill="rgb(206,93,27)"/><clipPath id="_clipPath_lEgiKQ1NU6AYWloWxj9I8wgAbc2OHa1F"><path d=" M 1036.605 96.515 C 1017.923 86.024 1007.757 68.598 1013.919 57.624 C 1020.081 46.65 1040.252 46.258 1058.934 56.749 L 1036.605 96.515 L 1036.605 96.515 Z " fill="rgb(206,93,27)"/></clipPath><g clip-path="url(#_clipPath_lEgiKQ1NU6AYWloWxj9I8wgAbc2OHa1F)"><path d=" M 1040.677 48.827 Q 1027.375 53.284 1014.763 78.697 L 1019.831 84.874 C 1026.454 66.301 1037.373 55.415 1045.496 50.422 L 1040.677 48.827 Z " fill="rgb(232,162,122)"/><path d=" M 1024.596 45.143 Q 1012.531 49.186 1005.104 72.473 L 1010.118 78.31 C 1014.11 60.575 1021.584 51.467 1030.962 47.814 L 1024.596 45.143 Z " fill="rgb(232,162,122)"/><path d=" M 1051.182 52.504 C 1040.112 65.473 1030.699 80.951 1024.95 91.081 L 1031.821 97.16 C 1039.162 83.396 1047.226 69.056 1056.001 54.099 L 1051.182 52.504 Z " fill="rgb(232,162,122)"/><path d=" M 1038.274 93.565 L 1038.699 93.826 L 1038.199 94.655 L 1037.774 94.394 C 1035.562 93.063 1033.407 91.609 1031.34 90.06 C 1029.459 88.648 1027.675 87.124 1025.988 85.489 C 1024.446 84.001 1023.02 82.39 1021.721 80.694 C 1020.511 79.104 1019.455 77.423 1018.549 75.659 C 1016.814 72.297 1015.777 68.65 1015.491 64.925 C 1015.353 63.014 1015.4 61.12 1015.628 59.227 C 1015.87 57.23 1016.287 55.266 1016.863 53.345 L 1017.008 52.883 L 1017.95 53.179 L 1017.818 53.638 C 1017.249 55.506 1016.847 57.423 1016.612 59.368 C 1016.39 61.187 1016.345 63.038 1016.482 64.87 C 1016.759 68.468 1017.76 71.996 1019.424 75.24 C 1020.306 76.946 1021.333 78.577 1022.505 80.112 C 1023.774 81.78 1025.171 83.342 1026.674 84.797 C 1028.33 86.404 1030.085 87.9 1031.931 89.292 C 1033.977 90.819 1036.088 92.248 1038.274 93.565 Z " fill="rgb(26,8,57)"/></g></g></g><g><path d=" M 1017.326 54.014 L 980.503 198.966 L 1079.79 97.101" fill="none" vector-effect="non-scaling-stroke" stroke-width="0.5" stroke="rgb(255,255,255)" stroke-linejoin="miter" stroke-linecap="square" stroke-miterlimit="3"/><path d=" M 1080.418 77.158 L 980.503 198.966 L 1027.824 47.873" fill="none" vector-effect="non-scaling-stroke" stroke-width="0.5" stroke="rgb(255,255,255)" stroke-linejoin="miter" stroke-linecap="square" stroke-miterlimit="3"/><path d=" M 1072.291 66.498 L 980.503 198.966 L 1039.822 47.853" fill="none" vector-effect="non-scaling-stroke" stroke-width="0.5" stroke="rgb(255,255,255)" stroke-linejoin="miter" stroke-linecap="square" stroke-miterlimit="3"/><path d=" M 1064.001 57.824 L 980.503 198.966 L 1050.584 50.73" fill="none" vector-effect="non-scaling-stroke" stroke-width="0.5" stroke="rgb(255,255,255)" stroke-linejoin="miter" stroke-linecap="square" stroke-miterlimit="3"/><path d=" M 1066.231 103.992 L 980.503 198.966 L 1016.779 72.964" fill="none" vector-effect="non-scaling-stroke" stroke-width="0.3" stroke="rgb(255,255,255)" stroke-linejoin="miter" stroke-linecap="square" stroke-miterlimit="3"/><path d=" M 1052.409 101.864 L 980.503 198.966 L 1022.008 82.388" fill="none" vector-effect="non-scaling-stroke" stroke-width="0.3" stroke="rgb(255,255,255)" stroke-linejoin="miter" stroke-linecap="square" stroke-miterlimit="3"/><path d=" M 1044.626 99.23 L 980.503 198.966 L 1028.473 88.914" fill="none" vector-effect="non-scaling-stroke" stroke-width="0.3" stroke="rgb(255,255,255)" stroke-linejoin="miter" stroke-linecap="square" stroke-miterlimit="3"/><line x1="1036.013" y1="94.528" x2="980.503" y2="198.966" vector-effect="non-scaling-stroke" stroke-width="0.3" stroke="rgb(255,255,255)" stroke-linejoin="miter" stroke-linecap="square" stroke-miterlimit="3"/></g><line x1="980.639" y1="198.224" x2="953.953" y2="239.94" vector-effect="non-scaling-stroke" stroke-width="1" stroke="rgb(255,255,255)" stroke-linejoin="miter" stroke-linecap="square" stroke-miterlimit="3"/></g><g><g><g><path d=" M 981.431 68.841 L 938.895 57.87 C 937.13 50.778 937.062 43.226 938.992 35.743 C 945.489 10.555 972.18 -4.371 998.559 2.433 L 981.431 68.841 L 981.431 68.841 Z " fill="rgb(250,124,52)"/><path d=" M 948.638 33.047 C 952.365 30.936 955.871 30.61 959.731 29.695 C 962.47 21.366 968.77 11.186 977.977 1.396 C 974.975 1.779 972.286 2.557 971.738 2.971 C 956.491 14.49 955.273 15.317 948.638 33.047 Z " fill="rgb(255,255,255)"/><path d=" M 971.722 27.818 L 981.613 29.126 C 985.218 19.314 989.355 9.21 993.396 1.102 L 989.125 0 C 984.112 5.741 978.32 15.029 971.722 27.818 Z " fill="rgb(255,255,255)"/><path d=" M 977.225 85.152 C 951.445 78.503 933.687 60.811 937.592 45.669 C 941.497 30.527 965.598 23.631 991.377 30.28 L 977.225 85.152 L 977.225 85.152 Z " fill="rgb(206,93,27)"/><clipPath id="_clipPath_ro9dGgYb7lt9nQ4tk9SsiLIISnGVJkgr"><path d=" M 977.225 85.152 C 951.445 78.503 933.687 60.811 937.592 45.669 C 941.497 30.527 965.598 23.631 991.377 30.28 L 977.225 85.152 L 977.225 85.152 Z " fill="rgb(206,93,27)"/></clipPath><g clip-path="url(#_clipPath_ro9dGgYb7lt9nQ4tk9SsiLIISnGVJkgr)"><path d=" M 966.927 26.581 Q 952.37 36.171 945.317 70.709 L 953.37 76.514 C 955.409 52.097 965.057 35.546 973.221 26.962 L 966.927 26.581 Z " fill="rgb(232,162,122)"/><path d=" M 946.44 27.278 Q 933.237 35.977 931.734 66.31 L 939.615 71.724 C 938.761 49.153 944.836 35.833 954.935 28.458 L 946.44 27.278 Z " fill="rgb(232,162,122)"/><path d=" M 980.715 27.652 C 971.55 46.753 965.173 68.34 961.496 82.338 L 971.685 87.45 C 976.117 68.582 981.234 48.791 987.009 28.033 L 980.715 27.652 Z " fill="rgb(232,162,122)"/><path d=" M 978.289 81.077 L 978.883 81.255 L 978.546 82.411 L 977.953 82.233 C 974.872 81.339 971.821 80.279 968.845 79.076 C 966.136 77.98 963.508 76.718 960.961 75.291 C 958.636 73.995 956.41 72.514 954.309 70.891 C 952.35 69.367 950.546 67.684 948.896 65.855 C 945.742 62.37 943.334 58.319 941.805 53.936 C 941.03 51.686 940.483 49.395 940.155 47.049 C 939.809 44.574 939.685 42.082 939.764 39.593 L 939.791 38.991 L 941.017 39.046 L 941.005 39.639 C 940.917 42.064 941.044 44.495 941.381 46.906 C 941.694 49.161 942.23 51.399 942.978 53.555 C 944.456 57.788 946.782 61.706 949.814 65.072 C 951.416 66.84 953.169 68.472 955.065 69.943 C 957.121 71.542 959.296 72.973 961.564 74.241 C 964.066 75.644 966.649 76.882 969.31 77.966 C 972.253 79.148 975.244 80.193 978.289 81.077 Z " fill="rgb(26,8,57)"/></g></g><g><path d=" M 981.431 68.841 L 1023.968 79.812 C 1028.942 74.458 1032.654 67.881 1034.584 60.398 C 1041.081 35.21 1024.938 9.237 998.559 2.433 L 981.431 68.841 L 981.431 68.841 Z " fill="rgb(250,124,52)"/><path d=" M 1027.446 53.373 C 1025.205 49.723 1022.294 47.742 1019.358 45.074 C 1020.989 36.46 1020.398 24.502 1017.075 11.48 C 1019.517 13.268 1021.495 15.249 1021.775 15.876 C 1029.548 33.333 1030.214 34.645 1027.446 53.373 Z " fill="rgb(255,255,255)"/><path d=" M 1009.771 37.631 L 1000.481 33.993 C 1002.071 23.66 1003.337 12.816 1003.722 3.765 L 1007.993 4.866 C 1009.604 12.316 1010.182 23.246 1009.771 37.631 Z " fill="rgb(255,255,255)"/><path d=" M 977.225 85.152 C 1003.004 91.801 1027.104 84.905 1031.009 69.763 C 1034.915 54.621 1017.156 36.929 991.377 30.28 L 977.225 85.152 L 977.225 85.152 Z " fill="rgb(206,93,27)"/><clipPath id="_clipPath_Keu3lY9LFQKET1tc6CMmM82TYXsnjPRE"><path d=" M 977.225 85.152 C 1003.004 91.801 1027.104 84.905 1031.009 69.763 C 1034.915 54.621 1017.156 36.929 991.377 30.28 L 977.225 85.152 L 977.225 85.152 Z " fill="rgb(206,93,27)"/></clipPath><g clip-path="url(#_clipPath_Keu3lY9LFQKET1tc6CMmM82TYXsnjPRE)"><path d=" M 1014.566 38.868 Q 1022.669 54.303 1012.137 87.943 L 1002.281 89.129 C 1012.305 66.772 1011.867 47.619 1008.873 36.157 L 1014.566 38.868 Z " fill="rgb(232,162,122)"/><path d=" M 1032.16 49.387 Q 1039.509 63.386 1026.153 90.663 L 1016.637 91.589 C 1028.301 72.247 1029.426 57.65 1024.154 46.311 L 1032.16 49.387 Z " fill="rgb(232,162,122)"/><path d=" M 1001.98 33.137 C 1000.763 54.288 995.903 76.266 992.352 90.296 L 980.962 89.843 C 986.208 71.184 991.301 51.387 996.286 30.426 L 1001.98 33.137 Z " fill="rgb(232,162,122)"/><path d=" M 978.263 81.071 L 977.658 80.939 L 977.393 82.114 L 977.999 82.245 C 981.128 82.953 984.311 83.5 987.497 83.887 C 990.398 84.238 993.309 84.404 996.229 84.387 C 998.89 84.378 1001.555 84.158 1004.178 83.754 C 1006.631 83.367 1009.023 82.766 1011.353 81.963 C 1015.799 80.439 1019.865 78.058 1023.323 74.961 C 1025.09 73.367 1026.676 71.626 1028.098 69.732 C 1029.599 67.733 1030.913 65.611 1032.047 63.394 L 1032.314 62.854 L 1031.215 62.31 L 1030.939 62.835 C 1029.843 65 1028.556 67.066 1027.095 69.013 C 1025.73 70.835 1024.179 72.535 1022.481 74.061 C 1019.14 77.051 1015.209 79.354 1010.928 80.835 C 1008.67 81.607 1006.347 82.188 1003.975 82.558 C 1001.403 82.963 998.807 83.163 996.208 83.177 C 993.34 83.195 990.48 83.029 987.627 82.69 C 984.479 82.301 981.356 81.769 978.263 81.071 Z " fill="rgb(26,8,57)"/></g></g></g><g><path d=" M 1030.034 56.855 L 949.347 191.231 L 945.135 34.937" fill="none" vector-effect="non-scaling-stroke" stroke-width="0.5" stroke="rgb(255,255,255)" stroke-linejoin="miter" stroke-linecap="square" stroke-miterlimit="3"/><path d=" M 964.125 28.52 L 949.347 191.231 L 1023.095 47.86" fill="none" vector-effect="non-scaling-stroke" stroke-width="0.5" stroke="rgb(255,255,255)" stroke-linejoin="miter" stroke-linecap="square" stroke-miterlimit="3"/><path d=" M 977.673 27.852 L 949.347 191.231 L 1013.355 39.171" fill="none" vector-effect="non-scaling-stroke" stroke-width="0.5" stroke="rgb(255,255,255)" stroke-linejoin="miter" stroke-linecap="square" stroke-miterlimit="3"/><path d=" M 989.032 29.804 L 949.347 191.231 L 1003.456 34.508" fill="none" vector-effect="non-scaling-stroke" stroke-width="0.5" stroke="rgb(255,255,255)" stroke-linejoin="miter" stroke-linecap="square" stroke-miterlimit="3"/><path d=" M 954.25 68.822 L 949.347 191.231 L 1008.351 82.515" fill="none" vector-effect="non-scaling-stroke" stroke-width="0.3" stroke="rgb(255,255,255)" stroke-linejoin="miter" stroke-linecap="square" stroke-miterlimit="3"/><path d=" M 965.178 77.992 L 949.347 191.231 L 998.39 84.967" fill="none" vector-effect="non-scaling-stroke" stroke-width="0.3" stroke="rgb(255,255,255)" stroke-linejoin="miter" stroke-linecap="square" stroke-miterlimit="3"/><path d=" M 972.035 82.085 L 949.347 191.231 L 989.558 85.661" fill="none" vector-effect="non-scaling-stroke" stroke-width="0.3" stroke="rgb(255,255,255)" stroke-linejoin="miter" stroke-linecap="square" stroke-miterlimit="3"/><line x1="980.999" y1="84.364" x2="949.347" y2="191.231" vector-effect="non-scaling-stroke" stroke-width="0.3" stroke="rgb(255,255,255)" stroke-linejoin="miter" stroke-linecap="square" stroke-miterlimit="3"/></g></g><line x1="949.508" y1="189.397" x2="941.506" y2="224.377" vector-effect="non-scaling-stroke" stroke-width="1" stroke="rgb(255,255,255)" stroke-linejoin="miter" stroke-linecap="square" stroke-miterlimit="3"/></g><g><g><path d=" M 895.18 251.737 C 898.155 249.019 899.914 247.508 903.858 248.066 L 910.102 241.494 L 920.114 230.892 L 924.377 231.993 L 933.413 223.413 C 936.282 222.865 937.257 221.454 941.856 222.41 L 931.841 261.202 L 927.659 277.401 L 890.998 267.936 L 895.18 251.737 Z " fill="rgb(235,235,235)"/><clipPath id="_clipPath_hTdSjuI9oNt5QsicRaThMja5yn9LFdme"><path d=" M 895.18 251.737 C 898.155 249.019 899.914 247.508 903.858 248.066 L 910.102 241.494 L 920.114 230.892 L 924.377 231.993 L 933.413 223.413 C 936.282 222.865 937.257 221.454 941.856 222.41 L 931.841 261.202 L 927.659 277.401 L 890.998 267.936 L 895.18 251.737 Z " fill="rgb(235,235,235)"/></clipPath><g clip-path="url(#_clipPath_hTdSjuI9oNt5QsicRaThMja5yn9LFdme)"><path d=" M 924.613 231.995 L 924.994 232.211 L 914.279 250.816 L 913.899 250.599 L 924.613 231.995 Z " fill="rgb(71,82,104)"/><path d=" M 939.778 235.742 L 939.992 235.797 L 939.882 236.223 L 939.668 236.168 L 918.354 230.665 L 918.141 230.61 L 918.251 230.184 L 918.464 230.239 L 939.778 235.742 Z " fill="rgb(71,82,104)"/><path d=" M 933.327 255.447 L 933.217 255.873 L 902.098 247.839 L 902.208 247.413 L 933.327 255.447 Z " fill="rgb(71,82,104)"/></g><path d=" M 922.878 232.515 C 922.939 232.28 923.179 232.138 923.414 232.199 C 923.65 232.26 923.791 232.5 923.731 232.735 C 923.67 232.97 923.43 233.112 923.194 233.051 C 922.959 232.991 922.817 232.75 922.878 232.515 Z " fill="rgb(71,82,104)"/><path d=" M 925.009 233.065 C 925.07 232.83 925.311 232.688 925.546 232.749 C 925.781 232.81 925.923 233.05 925.862 233.286 C 925.801 233.521 925.561 233.662 925.326 233.602 C 925.09 233.541 924.949 233.301 925.009 233.065 Z " fill="rgb(71,82,104)"/><path d=" M 913.14 249.099 C 913.201 248.863 913.441 248.722 913.677 248.782 C 913.912 248.843 914.053 249.083 913.993 249.319 C 913.932 249.554 913.692 249.696 913.456 249.635 C 913.221 249.574 913.079 249.334 913.14 249.099 Z " fill="rgb(71,82,104)"/><path d=" M 915.698 249.759 C 915.759 249.524 915.999 249.382 916.234 249.443 C 916.47 249.504 916.611 249.744 916.55 249.979 C 916.49 250.214 916.249 250.356 916.014 250.295 C 915.779 250.235 915.637 249.994 915.698 249.759 Z " fill="rgb(71,82,104)"/><rect x="892.488" y="256.204" width="37.863" height="16.73" transform="matrix(0.968,0.25,-0.25,0.968,95.071,-219.432)" fill="rgb(71,82,104)"/><clipPath id="_clipPath_JJiJtRiOAsIgSr5HvkffJlSFlMjaDSsS"><rect x="892.488" y="256.204" width="37.863" height="16.73" transform="matrix(0.968,0.25,-0.25,0.968,95.071,-219.432)" fill="rgb(71,82,104)"/></clipPath><g clip-path="url(#_clipPath_JJiJtRiOAsIgSr5HvkffJlSFlMjaDSsS)"><path d=" M 896.753 269.422 L 896.698 269.635 L 896.272 269.525 L 896.327 269.312 L 900.509 253.113 L 900.564 252.9 L 900.99 253.01 L 900.935 253.223 L 896.753 269.422 Z " fill="rgb(51,58,72)"/><path d=" M 914.657 274.044 L 914.602 274.257 L 914.176 274.147 L 914.231 273.934 L 918.413 257.735 L 918.468 257.522 L 918.894 257.632 L 918.839 257.845 L 914.657 274.044 Z " fill="rgb(51,58,72)"/><path d=" M 898.687 254.007 C 898.747 253.771 898.988 253.63 899.223 253.69 C 899.458 253.751 899.6 253.991 899.539 254.227 C 899.478 254.462 899.238 254.604 899.003 254.543 C 898.768 254.482 898.626 254.242 898.687 254.007 Z " fill="rgb(51,58,72)"/><path d=" M 895.165 267.648 C 895.226 267.413 895.466 267.271 895.701 267.332 C 895.936 267.392 896.078 267.633 896.017 267.868 C 895.957 268.103 895.716 268.245 895.481 268.184 C 895.246 268.123 895.104 267.883 895.165 267.648 Z " fill="rgb(51,58,72)"/><path d=" M 897.723 268.308 C 897.783 268.073 898.024 267.931 898.259 267.992 C 898.494 268.053 898.636 268.293 898.575 268.528 C 898.514 268.764 898.274 268.905 898.039 268.845 C 897.804 268.784 897.662 268.543 897.723 268.308 Z " fill="rgb(51,58,72)"/><path d=" M 901.244 254.667 C 901.305 254.432 901.545 254.29 901.781 254.351 C 902.016 254.411 902.158 254.652 902.097 254.887 C 902.036 255.122 901.796 255.264 901.561 255.203 C 901.325 255.143 901.184 254.902 901.244 254.667 Z " fill="rgb(51,58,72)"/><path d=" M 916.591 258.629 C 916.652 258.394 916.892 258.252 917.127 258.313 C 917.363 258.373 917.504 258.614 917.443 258.849 C 917.383 259.084 917.142 259.226 916.907 259.165 C 916.672 259.105 916.53 258.864 916.591 258.629 Z " fill="rgb(51,58,72)"/><path d=" M 913.069 272.27 C 913.13 272.035 913.37 271.893 913.605 271.954 C 913.841 272.015 913.982 272.255 913.922 272.49 C 913.861 272.726 913.621 272.867 913.385 272.807 C 913.15 272.746 913.008 272.506 913.069 272.27 Z " fill="rgb(51,58,72)"/><path d=" M 915.627 272.931 C 915.688 272.695 915.928 272.554 916.163 272.614 C 916.398 272.675 916.54 272.915 916.479 273.151 C 916.419 273.386 916.178 273.528 915.943 273.467 C 915.708 273.406 915.566 273.166 915.627 272.931 Z " fill="rgb(51,58,72)"/><path d=" M 919.149 259.289 C 919.209 259.054 919.45 258.912 919.685 258.973 C 919.92 259.034 920.062 259.274 920.001 259.509 C 919.94 259.745 919.7 259.886 919.465 259.826 C 919.23 259.765 919.088 259.525 919.149 259.289 Z " fill="rgb(51,58,72)"/></g><path d=" M 933.822 253.529 C 929.117 252.314 926.283 247.507 927.498 242.802 C 928.712 238.096 933.519 235.262 938.224 236.477 L 936.023 245.003 L 933.822 253.529 Z " fill="rgb(71,82,104)"/><path d=" M 934.262 251.824 C 930.498 250.852 928.231 247.006 929.203 243.242 C 930.175 239.478 934.02 237.21 937.784 238.182 L 936.023 245.003 L 934.262 251.824 Z " fill="rgb(66,128,159)"/><path d=" M 919.975 249.044 L 918.998 251.066 L 922.409 251.946 L 922.959 249.815 L 919.975 249.044 Z " fill="rgb(71,82,104)"/></g><g><path d=" M 968.502 270.667 C 967.215 266.848 966.407 264.674 962.686 263.254 L 960.404 254.48 L 956.775 240.357 L 952.512 239.256 L 948.759 227.375 C 946.513 225.506 946.343 223.8 941.856 222.41 L 931.841 261.202 L 927.659 277.401 L 964.32 286.866 L 968.502 270.667 Z " fill="rgb(235,235,235)"/><clipPath id="_clipPath_04Awd2BFkdRG1FxY0GzZ1ihnvZperG7d"><path d=" M 968.502 270.667 C 967.215 266.848 966.407 264.674 962.686 263.254 L 960.404 254.48 L 956.775 240.357 L 952.512 239.256 L 948.759 227.375 C 946.513 225.506 946.343 223.8 941.856 222.41 L 931.841 261.202 L 927.659 277.401 L 964.32 286.866 L 968.502 270.667 Z " fill="rgb(235,235,235)"/></clipPath><g clip-path="url(#_clipPath_04Awd2BFkdRG1FxY0GzZ1ihnvZperG7d)"><path d=" M 952.305 239.144 L 951.867 239.149 L 952.236 260.615 L 952.674 260.61 L 952.305 239.144 Z " fill="rgb(71,82,104)"/><path d=" M 937.221 235.081 L 937.008 235.026 L 936.898 235.452 L 937.111 235.508 L 958.425 241.01 L 958.638 241.065 L 958.748 240.639 L 958.535 240.584 L 937.221 235.081 Z " fill="rgb(71,82,104)"/><path d=" M 933.327 255.447 L 933.217 255.873 L 964.336 263.907 L 964.446 263.481 L 933.327 255.447 Z " fill="rgb(71,82,104)"/></g><path d=" M 953.571 240.439 C 953.632 240.204 953.49 239.964 953.255 239.903 C 953.019 239.842 952.779 239.984 952.718 240.219 C 952.658 240.454 952.799 240.695 953.035 240.755 C 953.27 240.816 953.51 240.674 953.571 240.439 Z " fill="rgb(71,82,104)"/><path d=" M 951.439 239.889 C 951.5 239.654 951.359 239.413 951.123 239.353 C 950.888 239.292 950.648 239.433 950.587 239.669 C 950.526 239.904 950.668 240.144 950.903 240.205 C 951.138 240.266 951.379 240.124 951.439 239.889 Z " fill="rgb(71,82,104)"/><path d=" M 954.064 259.664 C 954.125 259.429 953.983 259.188 953.748 259.128 C 953.513 259.067 953.272 259.209 953.212 259.444 C 953.151 259.679 953.292 259.92 953.528 259.98 C 953.763 260.041 954.003 259.899 954.064 259.664 Z " fill="rgb(71,82,104)"/><path d=" M 951.506 259.004 C 951.567 258.768 951.425 258.528 951.19 258.467 C 950.955 258.407 950.715 258.548 950.654 258.784 C 950.593 259.019 950.735 259.259 950.97 259.32 C 951.205 259.381 951.446 259.239 951.506 259.004 Z " fill="rgb(71,82,104)"/><rect x="929.149" y="265.669" width="37.863" height="16.73" transform="matrix(0.968,0.25,-0.25,0.968,98.601,-228.296)" fill="rgb(71,82,104)"/><clipPath id="_clipPath_b5IERv8fTmQ6ZR3bJmLjdK3d0zcAVoQ9"><rect x="929.149" y="265.669" width="37.863" height="16.73" transform="matrix(0.968,0.25,-0.25,0.968,98.601,-228.296)" fill="rgb(71,82,104)"/></clipPath><g clip-path="url(#_clipPath_b5IERv8fTmQ6ZR3bJmLjdK3d0zcAVoQ9)"><path d=" M 958.991 285.49 L 958.936 285.703 L 958.51 285.593 L 958.565 285.38 L 962.747 269.181 L 962.802 268.968 L 963.229 269.078 L 963.174 269.291 L 958.991 285.49 Z " fill="rgb(51,58,72)"/><path d=" M 941.087 280.868 L 941.032 281.081 L 940.606 280.971 L 940.661 280.758 L 944.843 264.559 L 944.898 264.346 L 945.324 264.456 L 945.269 264.669 L 941.087 280.868 Z " fill="rgb(51,58,72)"/><path d=" M 964.335 270.955 C 964.396 270.72 964.255 270.48 964.019 270.419 C 963.784 270.358 963.544 270.5 963.483 270.735 C 963.422 270.97 963.564 271.211 963.799 271.271 C 964.034 271.332 964.275 271.19 964.335 270.955 Z " fill="rgb(51,58,72)"/><path d=" M 960.814 284.596 C 960.874 284.361 960.733 284.121 960.497 284.06 C 960.262 283.999 960.022 284.141 959.961 284.376 C 959.9 284.612 960.042 284.852 960.277 284.913 C 960.513 284.973 960.753 284.832 960.814 284.596 Z " fill="rgb(51,58,72)"/><path d=" M 958.256 283.936 C 958.317 283.701 958.175 283.461 957.94 283.4 C 957.704 283.339 957.464 283.481 957.403 283.716 C 957.343 283.951 957.484 284.192 957.72 284.252 C 957.955 284.313 958.195 284.171 958.256 283.936 Z " fill="rgb(51,58,72)"/><path d=" M 961.778 270.295 C 961.838 270.06 961.697 269.819 961.461 269.758 C 961.226 269.698 960.986 269.839 960.925 270.075 C 960.864 270.31 961.006 270.55 961.241 270.611 C 961.477 270.672 961.717 270.53 961.778 270.295 Z " fill="rgb(51,58,72)"/><path d=" M 946.431 266.333 C 946.492 266.098 946.35 265.857 946.115 265.796 C 945.88 265.736 945.639 265.877 945.579 266.113 C 945.518 266.348 945.66 266.588 945.895 266.649 C 946.13 266.71 946.371 266.568 946.431 266.333 Z " fill="rgb(51,58,72)"/><path d=" M 942.909 279.974 C 942.97 279.739 942.829 279.499 942.593 279.438 C 942.358 279.377 942.118 279.519 942.057 279.754 C 941.996 279.989 942.138 280.23 942.373 280.29 C 942.608 280.351 942.849 280.209 942.909 279.974 Z " fill="rgb(51,58,72)"/><path d=" M 940.352 279.314 C 940.412 279.079 940.271 278.838 940.035 278.777 C 939.8 278.717 939.56 278.858 939.499 279.094 C 939.438 279.329 939.58 279.569 939.815 279.63 C 940.051 279.691 940.291 279.549 940.352 279.314 Z " fill="rgb(51,58,72)"/><path d=" M 943.874 265.672 C 943.934 265.437 943.793 265.197 943.557 265.136 C 943.322 265.075 943.082 265.217 943.021 265.452 C 942.96 265.688 943.102 265.928 943.337 265.989 C 943.572 266.049 943.813 265.908 943.874 265.672 Z " fill="rgb(51,58,72)"/></g><path d=" M 933.822 253.529 C 938.528 254.744 943.334 251.91 944.549 247.204 C 945.764 242.499 942.93 237.692 938.224 236.477 L 936.023 245.003 L 933.822 253.529 Z " fill="rgb(71,82,104)"/><path d=" M 934.262 251.824 C 938.027 252.795 941.872 250.528 942.844 246.764 C 943.816 242.999 941.549 239.154 937.784 238.182 L 936.023 245.003 L 934.262 251.824 Z " fill="rgb(66,128,159)"/><path d=" M 948.11 256.308 L 947.986 258.55 L 944.576 257.669 L 945.126 255.538 L 948.11 256.308 Z " fill="rgb(71,82,104)"/></g></g></g></g></svg>