<?xml version="1.0" standalone="no"?><!-- Generator: Gravit.io --><svg xmlns="http://www.w3.org/2000/svg" xmlns:xlink="http://www.w3.org/1999/xlink" style="isolation:isolate" viewBox="0 0 500 500" width="500" height="500"><defs><clipPath id="_clipPath_bJxkewxIq4H3lBJRQg9o33lQ2kQADaBW"><rect width="500" height="500"/></clipPath></defs><g clip-path="url(#_clipPath_bJxkewxIq4H3lBJRQg9o33lQ2kQADaBW)"><g><g style="opacity:0.41;"><g opacity="0.41"><circle vector-effect="non-scaling-stroke" cx="250.00000000000006" cy="249.99999999999991" r="249.99999999999994" fill="rgb(68,41,115)"/></g></g><g style="opacity:0.19;"><g opacity="0.19"><circle vector-effect="non-scaling-stroke" cx="208.7272727272726" cy="200.72727272727263" r="167.72727272727263" fill="rgb(30,8,68)"/></g></g><g><path d=" M 115.851 306.582 C 84.713 234.963 117.578 151.535 189.197 120.397 C 260.816 89.259 344.244 122.124 375.382 193.743 C 406.521 265.362 373.656 348.788 302.036 379.928 C 230.417 411.067 146.991 378.202 115.851 306.582 Z " fill="rgb(217,31,31)"/><path d=" M 114.776 291.437 C 86.79 227.064 120.135 150.424 189.197 120.397 C 258.259 90.37 337.051 118.254 365.039 182.627 C 393.026 246.999 359.679 323.638 290.619 353.667 C 221.557 383.693 142.765 355.809 114.776 291.437 Z " fill="rgb(213,49,49)"/><linearGradient id="_lgradient_45" x1="0.283138004465572" y1="-0.060214337170366394" x2="0.6877646592305826" y2="0.9056203563909171" gradientTransform="matrix(240.067,0,0,228.826,114.239,109.659)" gradientUnits="userSpaceOnUse"><stop offset="1.7391304347826086%" stop-opacity="1" style="stop-color:rgb(255,151,151)"/><stop offset="98.26086956521739%" stop-opacity="1" style="stop-color:rgb(240,75,75)"/></linearGradient><path d=" M 123.046 272.432 C 98.167 215.212 127.809 147.088 189.197 120.397 C 250.586 93.706 320.622 118.492 345.501 175.712 C 370.379 232.932 340.737 301.057 279.349 327.747 C 217.962 354.438 147.924 329.652 123.046 272.432 Z " fill="url(#_lgradient_45)"/><g><path d=" M 222.631 342.815 C 221.066 339.215 222.717 335.021 226.317 333.456 C 229.917 331.891 234.111 333.543 235.676 337.143 C 237.241 340.743 235.589 344.936 231.989 346.501 C 228.389 348.067 224.196 346.415 222.631 342.815 Z " fill="rgb(253,142,142)"/><path d=" M 223.873 342.274 C 222.606 339.36 223.944 335.966 226.858 334.699 C 229.772 333.432 233.167 334.77 234.433 337.684 C 235.702 340.598 234.364 343.992 231.45 345.259 C 228.536 346.526 225.141 345.188 223.873 342.274 Z " fill="rgb(213,49,49)"/></g><g><path d=" M 269.293 321.516 C 264.64 310.816 269.551 298.352 280.251 293.699 C 290.952 289.047 303.416 293.957 308.069 304.657 C 312.721 315.357 307.811 327.823 297.111 332.475 C 286.409 337.126 273.946 332.218 269.293 321.516 Z " fill="rgb(253,142,142)"/><path d=" M 272.985 319.91 C 269.22 311.249 273.194 301.158 281.858 297.392 C 290.52 293.625 300.61 297.601 304.376 306.262 C 308.143 314.926 304.167 325.016 295.506 328.781 C 286.842 332.548 276.752 328.572 272.985 319.91 Z " fill="rgb(213,49,49)"/></g><g><path d=" M 355.421 265.701 C 354.142 262.76 355.492 259.333 358.433 258.055 C 361.374 256.776 364.8 258.125 366.08 261.067 C 367.359 264.008 366.008 267.434 363.067 268.713 C 360.126 269.991 356.699 268.642 355.421 265.701 Z " fill="rgb(253,142,142)"/><path d=" M 356.437 265.259 C 355.401 262.877 356.494 260.105 358.874 259.069 C 361.256 258.034 364.029 259.126 365.065 261.508 C 366.099 263.888 365.008 266.663 362.625 267.697 C 360.245 268.733 357.471 267.64 356.437 265.259 Z " fill="rgb(213,49,49)"/></g><g><path d=" M 243.146 161.232 C 237.309 147.806 243.469 132.168 256.893 126.332 C 270.319 120.496 285.956 126.655 291.793 140.081 C 297.63 153.505 291.47 169.142 278.044 174.979 C 264.62 180.816 248.982 174.656 243.146 161.232 Z " fill="rgb(213,49,49)"/></g><g><path d=" M 215.344 176.116 C 213.313 171.446 215.455 166.005 220.126 163.976 C 224.796 161.946 230.235 164.088 232.267 168.758 C 234.297 173.427 232.154 178.869 227.483 180.898 C 222.813 182.928 217.374 180.786 215.344 176.116 Z " fill="rgb(213,49,49)"/></g><g><path d=" M 242.627 183.907 C 241.321 180.903 242.699 177.405 245.703 176.099 C 248.706 174.792 252.205 176.172 253.512 179.175 C 254.818 182.179 253.44 185.677 250.435 186.983 C 247.431 188.288 243.932 186.91 242.627 183.907 Z " fill="rgb(213,49,49)"/></g><g><path d=" M 316.306 332.477 C 314.74 328.872 316.394 324.674 319.997 323.108 C 323.602 321.539 327.801 323.194 329.368 326.798 C 330.935 330.403 329.28 334.601 325.677 336.168 C 322.072 337.736 317.873 336.082 316.306 332.477 Z " fill="rgb(213,49,49)"/></g><g><path d=" M 340.7 297.983 C 337.445 290.499 340.88 281.781 348.363 278.527 C 355.847 275.272 364.566 278.707 367.819 286.191 C 371.073 293.676 367.639 302.393 360.154 305.648 C 352.67 308.9 343.953 305.467 340.7 297.983 Z " fill="rgb(213,49,49)"/></g><g><path d=" M 271.959 359.524 C 268.706 352.044 272.14 343.332 279.619 340.079 C 287.098 336.828 295.811 340.259 299.063 347.739 C 302.314 355.22 298.883 363.932 291.404 367.183 C 283.923 370.436 275.211 367.003 271.959 359.524 Z " fill="rgb(213,49,49)"/></g><g><path d=" M 325.982 291.358 C 322.441 283.216 326.177 273.731 334.32 270.19 C 342.463 266.651 351.947 270.387 355.488 278.53 C 359.029 286.671 355.293 296.157 347.15 299.698 C 339.007 303.237 329.521 299.501 325.982 291.358 Z " fill="rgb(253,142,142)"/><path d=" M 328.792 290.136 C 325.925 283.545 328.95 275.867 335.542 273.001 C 342.133 270.134 349.813 273.16 352.678 279.751 C 355.544 286.343 352.52 294.021 345.927 296.888 C 339.335 299.753 331.657 296.728 328.792 290.136 Z " fill="rgb(213,49,49)"/></g><g style="opacity:0.49;"><g opacity="0.49"><path d=" M 105.842 272.169 C 33.749 301.126 -9.038 325.685 1.618 334.406 L 1.618 334.406 C 17.199 347.154 141.143 321.255 278.229 276.603 C 415.314 231.951 513.962 185.349 498.381 172.6 C 488.968 164.897 439.992 171.303 372.43 187.448 C 373.476 189.5 374.453 191.604 375.382 193.743 C 375.861 194.845 376.326 195.948 376.767 197.056 C 406.822 191.366 427.315 189.981 432.356 194.105 C 443.794 203.466 371.37 237.68 270.725 270.461 C 170.079 303.244 79.083 322.26 67.645 312.899 L 67.645 312.899 C 61.837 308.147 77.653 296.986 107.909 282.836 C 107.076 279.288 106.376 275.73 105.842 272.169 Z " fill-rule="evenodd" fill="rgb(217,31,31)"/></g></g><g style="opacity:0.46;"><g opacity="0.46"><path d=" M 106.364 275.442 C 47.87 299.725 14.094 319.905 23.217 327.371 L 23.217 327.371 C 37.441 339.011 150.608 315.362 275.775 274.593 C 400.94 233.824 491.008 191.275 476.784 179.635 C 468.766 173.072 429.308 177.725 373.887 190.384 C 374.39 191.499 374.892 192.616 375.382 193.743 C 376.264 195.768 377.092 197.801 377.862 199.846 C 398.669 196.497 412.614 196.091 416.5 199.27 C 426.944 207.817 360.816 239.055 268.922 268.987 C 177.03 298.92 93.944 316.282 83.501 307.735 L 83.501 307.735 C 78.999 304.051 88.73 296.147 108.726 285.925 C 107.78 282.443 107.007 278.946 106.364 275.442 Z " fill-rule="evenodd" fill="rgb(243,92,92)"/></g></g></g></g></g></svg>