<?xml version="1.0" standalone="no"?><!-- Generator: Gravit.io --><svg xmlns="http://www.w3.org/2000/svg" xmlns:xlink="http://www.w3.org/1999/xlink" style="isolation:isolate" viewBox="0 0 1920 300" width="1920" height="300"><defs><clipPath id="_clipPath_VIn6vQtTEOyvVS04vrciQAwXZZRtzB7t"><rect width="1920" height="300"/></clipPath></defs><g clip-path="url(#_clipPath_VIn6vQtTEOyvVS04vrciQAwXZZRtzB7t)"><g><g><g><rect x="520.283" y="568.34" width="97.39" height="18.928" transform="matrix(0.896,-0.443,0.443,0.896,-197.167,312.067)" fill="rgb(156,152,168)"/><rect x="533.529" y="582.42" width="6.343" height="22.691" transform="matrix(0.896,-0.443,0.443,0.896,-207.585,299.414)" fill="rgb(131,129,134)"/><rect x="523.365" y="584.937" width="12.686" height="24.573" transform="matrix(0.896,-0.443,0.443,0.896,-209.843,296.672)" fill="rgb(189,189,200)"/></g><g><rect x="502.818" y="533.022" width="97.39" height="18.928" transform="matrix(0.896,-0.443,0.443,0.896,-183.321,300.667)" fill="rgb(156,152,168)"/><rect x="516.065" y="547.101" width="6.343" height="22.691" transform="matrix(0.896,-0.443,0.443,0.896,-193.74,288.013)" fill="rgb(131,129,134)"/><rect x="505.9" y="549.618" width="12.686" height="24.573" transform="matrix(0.896,-0.443,0.443,0.896,-195.997,285.272)" fill="rgb(189,189,200)"/></g><rect x="-112.947" y="603.152" width="662.313" height="251.077" transform="matrix(0.896,-0.443,0.443,0.896,-300.39,172.219)" fill="rgb(223,223,234)"/><g><rect x="287.913" y="529.955" width="193.802" height="103.486" transform="matrix(0.896,-0.443,0.443,0.896,-217.973,230.839)" fill="rgb(49,48,51)"/><rect x="95.216" y="625.242" width="193.802" height="103.486" transform="matrix(0.896,-0.443,0.443,0.896,-280.174,155.296)" fill="rgb(49,48,51)"/><rect x="-97.481" y="720.529" width="193.802" height="103.486" transform="matrix(0.896,-0.443,0.443,0.896,-342.375,79.754)" fill="rgb(49,48,51)"/><rect x="340.132" y="634.495" width="193.802" height="103.486" transform="matrix(0.896,-0.443,0.443,0.896,-258.901,264.816)" fill="rgb(49,48,51)"/><rect x="147.013" y="729.99" width="193.802" height="103.486" transform="matrix(0.896,-0.443,0.443,0.896,-321.238,189.108)" fill="rgb(49,48,51)"/><rect x="-45.263" y="825.068" width="193.802" height="103.486" transform="matrix(0.896,-0.443,0.443,0.896,-383.303,113.731)" fill="rgb(49,48,51)"/></g></g><g><g><rect x="884.975" y="388.004" width="97.39" height="18.928" transform="matrix(0.896,-0.443,0.443,0.896,-79.447,455.036)" fill="rgb(156,152,168)"/><rect x="962.776" y="370.162" width="6.343" height="22.691" transform="matrix(0.896,-0.443,0.443,0.896,-69.029,467.689)" fill="rgb(131,129,134)"/><rect x="966.598" y="365.763" width="12.686" height="24.573" transform="matrix(0.896,-0.443,0.443,0.896,-66.771,470.431)" fill="rgb(189,189,200)"/></g><g><rect x="867.511" y="352.686" width="97.39" height="18.928" transform="matrix(0.896,-0.443,0.443,0.896,-65.602,443.635)" fill="rgb(156,152,168)"/><rect x="945.312" y="334.844" width="6.343" height="22.691" transform="matrix(0.896,-0.443,0.443,0.896,-55.183,456.289)" fill="rgb(131,129,134)"/><rect x="949.133" y="330.445" width="12.686" height="24.573" transform="matrix(0.896,-0.443,0.443,0.896,-52.926,459.03)" fill="rgb(189,189,200)"/></g><rect x="935.789" y="85.137" width="662.313" height="251.077" transform="matrix(0.896,-0.443,0.443,0.896,37.879,583.41)" fill="none" vector-effect="non-scaling-stroke" stroke-width="3" stroke="rgb(255,255,255)" stroke-linejoin="miter" stroke-linecap="square" stroke-miterlimit="2"/><g><rect x="951.66" y="201.74" width="193.802" height="103.486" transform="matrix(0.896,-0.443,0.443,0.896,-3.722,491.044)" fill="rgb(49,48,51)"/><rect x="1144.357" y="106.454" width="193.802" height="103.486" transform="matrix(0.896,-0.443,0.443,0.896,58.479,566.586)" fill="none" vector-effect="non-scaling-stroke" stroke-width="3" stroke="rgb(255,255,255)" stroke-linejoin="miter" stroke-linecap="square" stroke-miterlimit="2"/><rect x="1337.493" y="11.523" width="193.802" height="103.486" transform="matrix(0.896,-0.443,0.443,0.896,120.568,642.36)" fill="none" vector-effect="non-scaling-stroke" stroke-width="3" stroke="rgb(255,255,255)" stroke-linejoin="miter" stroke-linecap="square" stroke-miterlimit="2"/><rect x="1003.035" y="306.697" width="193.802" height="103.486" transform="matrix(0.896,-0.443,0.443,0.896,-44.922,524.691)" fill="rgb(49,48,51)"/><rect x="1196.154" y="211.202" width="193.802" height="103.486" transform="matrix(0.896,-0.443,0.443,0.896,17.415,600.398)" fill="none" vector-effect="non-scaling-stroke" stroke-width="3" stroke="rgb(255,255,255)" stroke-linejoin="miter" stroke-linecap="square" stroke-miterlimit="2"/><rect x="1388.868" y="116.479" width="193.802" height="103.486" transform="matrix(0.896,-0.443,0.443,0.896,79.368,676.006)" fill="none" vector-effect="non-scaling-stroke" stroke-width="3" stroke="rgb(255,255,255)" stroke-linejoin="miter" stroke-linecap="square" stroke-miterlimit="2"/></g></g><g><path d=" M 840.863 796.64 C 827.284 769.179 838.555 735.86 866.015 722.281 C 893.476 708.702 926.796 719.972 940.375 747.433 C 953.954 774.894 942.683 808.213 915.223 821.792 C 887.762 835.371 854.443 824.101 840.863 796.64 Z " fill="rgb(189,189,200)"/><rect x="566.4" y="162.821" width="77.551" height="84.294" transform="matrix(0.896,-0.443,0.443,0.896,-28.154,289.484)" fill="none" vector-effect="non-scaling-stroke" stroke-width="3" stroke="rgb(255,255,255)" stroke-linejoin="miter" stroke-linecap="square" stroke-miterlimit="2"/><path d="M 799.366 768.19 L 942.957 697.185 C 946.627 695.371 951.079 696.877 952.893 700.546 L 965.776 726.598 C 967.59 730.267 966.084 734.72 962.415 736.534 L 818.823 807.539 C 815.154 809.353 810.702 807.847 808.887 804.178 L 796.005 778.126 C 794.19 774.456 795.696 770.004 799.366 768.19 Z" style="stroke:none;fill:#DFDFEA;stroke-miterlimit:10;"/><path d="M 753.487 748.605 L 955.244 648.838 C 959.899 646.537 965.546 648.447 967.848 653.101 L 981.973 681.667 C 984.274 686.321 982.364 691.968 977.71 694.27 L 775.953 794.037 C 771.298 796.338 765.651 794.428 763.349 789.774 L 749.224 761.208 C 746.923 756.554 748.833 750.907 753.487 748.605 Z" style="stroke:none;fill:#9C98A8;stroke-miterlimit:10;"/><path d="M 533.442 267.517 L 692.156 189.035 C 695.615 187.324 699.813 188.744 701.524 192.204 L 711.171 211.713 C 712.882 215.173 711.462 219.37 708.002 221.081 L 549.288 299.563 C 545.829 301.274 541.631 299.854 539.92 296.394 L 530.273 276.885 C 528.562 273.426 529.982 269.228 533.442 267.517 Z" style="fill:none;stroke:#FFFFFF;stroke-width:3;stroke-linecap:square;stroke-miterlimit:2;"/><path d="M 518.292 286.553 L 722.751 185.451 C 726.66 183.518 731.403 185.122 733.336 189.031 L 742.177 206.912 C 744.11 210.821 742.506 215.564 738.597 217.497 L 534.139 318.599 C 530.23 320.532 525.487 318.928 523.554 315.019 L 514.712 297.138 C 512.779 293.229 514.383 288.486 518.292 286.553 Z" style="fill:none;stroke:#FFFFFF;stroke-width:3;stroke-linecap:square;stroke-miterlimit:2;"/><path d="M 485.157 322.68 L 771.574 181.05 C 776.228 178.748 781.875 180.658 784.177 185.313 L 1009.024 640.02 C 1011.326 644.674 1009.416 650.322 1004.761 652.623 L 718.344 794.253 C 713.69 796.554 708.043 794.644 705.741 789.99 L 480.894 335.283 C 478.592 330.629 480.502 324.981 485.157 322.68 Z" style="fill:none;stroke:#FFFFFF;stroke-width:3;stroke-linecap:square;stroke-miterlimit:2;"/><path d=" M 727.559 231.351 L 770.472 210.131 L 806.835 283.668 L 763.922 304.888 L 727.559 231.351 Z " fill="rgb(154,104,242)"/><path d=" M 606.788 413.893 L 727.309 354.297 L 829.434 560.824 L 708.914 620.42 L 606.788 413.893 Z " fill="rgb(154,104,242)"/><path d=" M 606.788 413.893 L 727.309 354.297 L 756.071 412.463 L 612.199 424.833 L 606.788 413.893 Z " fill="rgb(49,48,51)"/><path d=" M 650.563 502.418 L 796.104 493.421 L 829.434 560.824 L 708.914 620.42 L 650.563 502.418 Z " fill="rgb(102,52,187)"/><path d=" M 770.428 318.044 L 813.341 296.824 L 849.704 370.361 L 806.791 391.581 L 770.428 318.044 Z " fill="rgb(102,52,187)"/></g><g><path d=" M 701.809 23.431 C 736.499 93.585 696.715 184.142 613.022 225.527 C 529.329 266.913 433.216 243.556 398.525 173.401 L 550.167 98.416 L 701.809 23.431 Z " fill="none" vector-effect="non-scaling-stroke" stroke-width="3" stroke="rgb(255,255,255)" stroke-linejoin="miter" stroke-linecap="square" stroke-miterlimit="3"/><path d=" M 398.525 173.401 C 394.13 164.512 458.51 123.695 542.203 82.31 C 625.896 40.925 697.413 14.542 701.809 23.431 C 706.204 32.32 641.824 73.136 558.131 114.522 C 474.438 155.907 402.921 182.29 398.525 173.401 Z " fill="none" vector-effect="non-scaling-stroke" stroke-width="3" stroke="rgb(255,255,255)" stroke-linejoin="miter" stroke-linecap="square" stroke-miterlimit="3"/><g><polygon points="545.496,120.769,525.499,56.188,564.681,111.283" fill="none" vector-effect="non-scaling-stroke" stroke-width="3" stroke="rgb(255,255,255)" stroke-linejoin="miter" stroke-linecap="square" stroke-miterlimit="7"/><path d=" M 518.377 65.927 C 515.759 60.633 517.932 54.209 523.226 51.591 C 528.52 48.973 534.944 51.146 537.562 56.441 C 540.18 61.735 538.007 68.158 532.713 70.776 C 527.419 73.394 520.995 71.222 518.377 65.927 Z " fill="none" vector-effect="non-scaling-stroke" stroke-width="3" stroke="rgb(255,255,255)" stroke-linejoin="miter" stroke-linecap="square" stroke-miterlimit="3"/></g></g></g><circle vector-effect="non-scaling-stroke" cx="960" cy="300.0000000000001" r="301.2516942225216" fill="rgb(26,8,57)"/><circle vector-effect="non-scaling-stroke" cx="960" cy="300" r="235.25169422252134" fill="rgb(33,13,68)"/><circle vector-effect="non-scaling-stroke" cx="960" cy="300" r="176.2516942225211" fill="rgb(34,4,68)"/><g><g><g><rect x="971.469" y="173.414" width="14.88" height="2.892" transform="matrix(-0.524,-0.852,0.852,-0.524,1342.561,1100.385)" fill="rgb(156,152,168)"/><rect x="981.305" y="177.814" width="0.969" height="3.467" transform="matrix(-0.524,-0.852,0.852,-0.524,1342.958,1109.981)" fill="rgb(131,129,134)"/><rect x="981.445" y="178.686" width="1.938" height="3.755" transform="matrix(-0.524,-0.852,0.852,-0.524,1343.044,1112.06)" fill="rgb(189,189,200)"/></g><g><rect x="966.34" y="176.567" width="14.88" height="2.892" transform="matrix(-0.524,-0.852,0.852,-0.524,1332.061,1100.819)" fill="rgb(156,152,168)"/><rect x="976.177" y="180.966" width="0.969" height="3.467" transform="matrix(-0.524,-0.852,0.852,-0.524,1332.458,1110.415)" fill="rgb(131,129,134)"/><rect x="976.316" y="181.838" width="1.938" height="3.755" transform="matrix(-0.524,-0.852,0.852,-0.524,1332.544,1112.494)" fill="rgb(189,189,200)"/></g><rect x="956.187" y="206.931" width="101.196" height="38.362" transform="matrix(-0.524,-0.852,0.852,-0.524,1341.372,1202.224)" fill="rgb(223,223,234)"/><g><rect x="967.279" y="194.92" width="29.611" height="15.812" transform="matrix(-0.524,-0.852,0.852,-0.524,1323.575,1145.7)" fill="rgb(49,48,51)"/><rect x="984.479" y="222.902" width="29.611" height="15.812" transform="matrix(-0.524,-0.852,0.852,-0.524,1325.944,1202.988)" fill="rgb(49,48,51)"/><rect x="1001.679" y="250.883" width="29.611" height="15.812" transform="matrix(-0.524,-0.852,0.852,-0.524,1328.312,1260.276)" fill="rgb(49,48,51)"/><rect x="982.452" y="185.509" width="29.611" height="15.812" transform="matrix(-0.524,-0.852,0.852,-0.524,1354.711,1144.287)" fill="rgb(49,48,51)"/><rect x="999.689" y="213.552" width="29.611" height="15.812" transform="matrix(-0.524,-0.852,0.852,-0.524,1357.085,1201.7)" fill="rgb(49,48,51)"/><rect x="1016.852" y="241.472" width="29.611" height="15.812" transform="matrix(-0.524,-0.852,0.852,-0.524,1359.448,1258.863)" fill="rgb(49,48,51)"/></g></g><g><g><rect x="938.917" y="120.457" width="14.88" height="2.892" transform="matrix(-0.524,-0.852,0.852,-0.524,1338.078,991.964)" fill="rgb(156,152,168)"/><rect x="942.991" y="115.482" width="0.969" height="3.467" transform="matrix(-0.524,-0.852,0.852,-0.524,1337.682,982.368)" fill="rgb(131,129,134)"/><rect x="941.882" y="114.323" width="1.938" height="3.755" transform="matrix(-0.524,-0.852,0.852,-0.524,1337.596,980.289)" fill="rgb(189,189,200)"/></g><g><rect x="933.788" y="123.609" width="14.88" height="2.892" transform="matrix(-0.524,-0.852,0.852,-0.524,1327.578,992.398)" fill="rgb(156,152,168)"/><rect x="937.863" y="118.635" width="0.969" height="3.467" transform="matrix(-0.524,-0.852,0.852,-0.524,1327.182,982.802)" fill="rgb(131,129,134)"/><rect x="936.754" y="117.476" width="1.938" height="3.755" transform="matrix(-0.524,-0.852,0.852,-0.524,1327.096,980.723)" fill="rgb(189,189,200)"/></g><rect x="862.617" y="54.706" width="101.196" height="38.362" transform="matrix(-0.524,-0.852,0.852,-0.524,1328.487,890.57)" fill="rgb(223,223,234)"/><g><rect x="908.033" y="98.536" width="29.611" height="15.812" transform="matrix(-0.524,-0.852,0.852,-0.524,1315.416,948.371)" fill="rgb(49,48,51)"/><rect x="890.833" y="70.554" width="29.611" height="15.812" transform="matrix(-0.524,-0.852,0.852,-0.524,1313.048,891.083)" fill="rgb(49,48,51)"/><rect x="873.633" y="42.572" width="29.611" height="15.812" transform="matrix(-0.524,-0.852,0.852,-0.524,1310.679,833.795)" fill="rgb(49,48,51)"/><rect x="923.281" y="89.248" width="29.611" height="15.812" transform="matrix(-0.524,-0.852,0.852,-0.524,1346.563,947.209)" fill="rgb(49,48,51)"/><rect x="906.044" y="61.204" width="29.611" height="15.812" transform="matrix(-0.524,-0.852,0.852,-0.524,1344.189,889.795)" fill="rgb(49,48,51)"/><rect x="888.881" y="33.284" width="29.611" height="15.812" transform="matrix(-0.524,-0.852,0.852,-0.524,1341.825,832.632)" fill="rgb(49,48,51)"/></g></g><g><path d=" M 1008.857 130.511 C 1004.87 132.962 999.642 131.715 997.191 127.727 C 994.74 123.74 995.987 118.512 999.975 116.061 C 1003.963 113.61 1009.19 114.857 1011.641 118.845 C 1014.092 122.833 1012.845 128.06 1008.857 130.511 Z " fill="rgb(189,189,200)"/><rect x="916.217" y="168.228" width="11.849" height="12.879" transform="matrix(-0.524,-0.852,0.852,-0.524,1256.231,1051.731)" fill="rgb(189,189,200)"/><path d="M 1005.111 137.224 L 992.294 116.373 C 991.966 115.84 992.133 115.141 992.666 114.814 L 996.449 112.489 C 996.982 112.161 997.68 112.328 998.008 112.861 L 1010.825 133.712 C 1011.152 134.245 1010.985 134.943 1010.453 135.271 L 1006.669 137.596 C 1006.137 137.923 1005.438 137.757 1005.111 137.224 Z" style="stroke:none;fill:#DFDFEA;stroke-linecap:square;stroke-miterlimit:2;"/><path d="M 1002.774 144.479 L 984.766 115.181 C 984.35 114.505 984.562 113.619 985.237 113.204 L 989.385 110.654 C 990.061 110.239 990.947 110.45 991.363 111.126 L 1009.371 140.424 C 1009.787 141.1 1009.575 141.986 1008.9 142.401 L 1004.752 144.951 C 1004.076 145.366 1003.19 145.155 1002.774 144.479 Z" style="stroke:none;fill:#9C98A8;stroke-linecap:square;stroke-miterlimit:2;"/><path d="M 932.665 184.705 L 918.498 161.658 C 918.189 161.156 918.346 160.497 918.849 160.188 L 921.682 158.447 C 922.184 158.138 922.842 158.295 923.151 158.798 L 937.318 181.845 C 937.627 182.347 937.47 183.006 936.967 183.314 L 934.134 185.056 C 933.632 185.365 932.973 185.207 932.665 184.705 Z" style="stroke:none;fill:#DFDFEA;stroke-linecap:square;stroke-miterlimit:2;"/><path d="M 935.773 186.743 L 917.523 157.053 C 917.175 156.486 917.352 155.742 917.92 155.393 L 920.516 153.797 C 921.084 153.448 921.828 153.625 922.177 154.193 L 940.427 183.883 C 940.776 184.45 940.598 185.194 940.03 185.543 L 937.434 187.139 C 936.866 187.488 936.122 187.311 935.773 186.743 Z" style="stroke:none;fill:#9C98A8;stroke-linecap:square;stroke-miterlimit:2;"/><path d="M 941.734 191.278 L 916.169 149.687 C 915.754 149.011 915.965 148.125 916.641 147.709 L 982.67 107.123 C 983.346 106.707 984.232 106.919 984.647 107.594 L 1010.212 149.185 C 1010.628 149.861 1010.416 150.747 1009.74 151.163 L 943.712 191.75 C 943.036 192.165 942.15 191.954 941.734 191.278 Z" style="stroke:none;fill:#DFDFEA;stroke-linecap:square;stroke-miterlimit:2;"/><path d=" M 924.44 155.678 L 920.609 149.446 L 931.288 142.883 L 935.118 149.114 L 924.44 155.678 Z " fill="rgb(154,104,242)"/><path d=" M 953.906 171.493 L 943.149 153.992 L 973.139 135.557 L 983.897 153.058 L 953.906 171.493 Z " fill="rgb(154,104,242)"/><path d=" M 953.906 171.493 L 943.149 153.992 L 951.595 148.8 L 955.495 170.516 L 953.906 171.493 Z " fill="rgb(49,48,51)"/><path d=" M 966.761 163.591 L 963.351 141.574 L 973.139 135.557 L 983.897 153.058 L 966.761 163.591 Z " fill="rgb(102,52,187)"/><path d=" M 937.028 147.94 L 933.198 141.708 L 943.876 135.144 L 947.707 141.376 L 937.028 147.94 Z " fill="rgb(102,52,187)"/></g><g><path d=" M 892.7 162.426 C 902.887 156.164 917.223 160.947 924.694 173.1 C 932.164 185.253 929.958 200.204 919.771 206.466 L 906.235 184.446 L 892.7 162.426 Z " fill="rgb(223,223,234)"/><path d=" M 919.771 206.466 C 918.48 207.259 911.367 198.036 903.897 185.883 C 896.426 173.73 891.409 163.219 892.7 162.426 C 893.991 161.632 901.104 170.855 908.574 183.008 C 916.045 195.161 921.062 205.672 919.771 206.466 Z " fill="rgb(156,152,168)"/><g><polygon points="909.702,184.843,900.157,188.791,907.99,182.057" fill="rgb(189,189,200)"/><path d=" M 901.738 189.738 C 900.97 190.211 899.962 189.97 899.489 189.201 C 899.017 188.432 899.257 187.425 900.026 186.952 C 900.795 186.48 901.802 186.72 902.275 187.489 C 902.748 188.258 902.507 189.265 901.738 189.738 Z " fill="rgb(189,189,200)"/></g></g></g></g></svg>