<?xml version="1.0" standalone="no"?><!-- Generator: Gravit.io --><svg xmlns="http://www.w3.org/2000/svg" xmlns:xlink="http://www.w3.org/1999/xlink" style="isolation:isolate" viewBox="0 0 812 500" width="812" height="500"><defs><clipPath id="_clipPath_HF849glBSemahcZo45AxVtbjKaRgo0uz"><rect width="812" height="500"/></clipPath></defs><g clip-path="url(#_clipPath_HF849glBSemahcZo45AxVtbjKaRgo0uz)"><path d=" M 0 0 L 812 0 L 812 503.019 L 0 503.019 L 0 0 Z " fill="rgb(234,234,234)"/><g><path d=" M 667.602 237.357 L 667.602 233.527 L 798.518 233.527 L 672.198 359.004 L 798.441 359.004 L 668.904 489.23 L 666.223 486.549 L 789.21 362.834 L 663.006 362.834 L 789.249 237.319 L 667.602 237.319 L 667.602 237.357 Z " fill="rgb(91,91,91)"/><path d=" M 692.881 494.401 L 690.2 491.682 L 789.172 394.088 L 663.006 394.088 L 789.249 268.535 L 667.487 268.535 L 506.083 244.328 L 506.083 233.527 L 665.457 233.527 L 665.457 237.357 L 509.951 237.357 L 509.951 241.034 L 667.755 264.743 L 798.556 264.743 L 672.198 390.22 L 798.479 390.22 L 692.881 494.401 Z " fill="rgb(91,91,91)"/><line x1="774.005" y1="382.713" x2="773.66" y2="383.096" vector-effect="non-scaling-stroke" stroke-width="5" stroke="rgb(91,91,91)" stroke-linejoin="round" stroke-linecap="butt" stroke-miterlimit="3"/><path d=" M 684.072 377.887 L 665.151 377.887 L 683.612 360.957 L 684.11 343.492 L 697.86 357.204 L 697.86 328.822 L 711.649 343.338 L 711.649 316.68 L 724.672 329.013 L 724.672 303.466 L 736.315 315.072 L 736.315 293.508 C 736.315 293.125 736.545 292.742 736.928 292.627 C 737.311 292.473 737.733 292.627 738.001 292.895 C 741.276 296.762 744.609 300.579 747.998 304.347 C 749.079 305.486 750.19 306.598 751.33 307.679 C 751.64 307.946 751.959 308.202 752.287 308.445 L 752.287 276.846 L 768.106 291.248 L 766.574 266.198 L 767.302 266.198 L 738.192 237.74 L 738.192 268.994 L 707.742 237.778 L 707.742 268.994 L 677.254 237.778 L 677.254 266.696 L 675.339 266.696 L 675.339 233.144 L 705.827 264.322 L 705.827 233.144 L 736.315 264.322 L 736.315 233.182 L 768.221 264.398 L 768.221 232.914 L 797.943 266.888 L 770.136 267.96 L 770.136 268.956 L 769.178 267.998 L 768.604 268.037 L 770.289 295.806 L 754.202 281.174 L 754.202 309.441 L 754.164 309.748 L 754.049 310.092 L 753.781 310.475 C 753.651 310.599 753.494 310.691 753.322 310.743 C 753.092 310.82 752.824 310.858 752.594 310.743 C 752.402 310.743 752.172 310.628 751.981 310.552 L 751.215 310.054 C 749.913 309.059 748.719 307.929 747.653 306.683 L 746.58 305.611 L 745.316 304.232 C 742.886 301.586 740.523 298.879 738.231 296.112 L 738.231 319.744 L 726.625 308.139 L 726.625 333.418 L 713.564 321.085 L 713.564 348.126 L 699.775 333.61 L 699.775 361.838 L 685.91 347.973 L 685.565 359.157 L 685.948 358.774 L 685.948 389.875 L 714.981 360.842 L 714.981 388.381 L 741.831 360.804 L 741.831 388.19 L 766.612 360.383 L 766.612 388.496 L 772.97 382.368 L 774.311 383.785 L 764.697 392.978 L 764.697 365.4 L 739.916 393.246 L 739.916 365.515 L 713.105 393.092 L 713.105 365.477 L 684.072 394.471 M 770.136 267.922 L 769.178 267.96 M 683.497 363.638 L 670.092 375.972 L 683.114 375.972 L 683.497 363.638 Z  M 770.136 266.007 L 793.883 265.088 L 770.136 237.97 L 770.136 266.007 Z " fill-rule="evenodd" fill="rgb(91,91,91)"/><path d=" M 779.06 376.546 L 779.137 376.508 L 797.713 358.736 L 797.713 377.887 L 783.695 378.27 L 794.802 388.764 L 771.592 388.764 L 785.38 401.825 L 757.726 401.825 L 771.515 415.614 L 743.133 415.614 L 757.765 431.011 L 729.842 429.441 L 743.248 442.464 L 716.36 442.464 L 731.604 457.708 L 702.572 457.708 L 718.543 473.68 L 687.327 473.68 L 700.925 487.277 L 699.584 488.617 L 682.731 471.765 L 713.909 471.765 L 697.937 455.793 L 726.97 455.793 L 711.726 440.548 L 738.537 440.548 L 724.863 427.219 L 753.053 428.828 L 738.652 413.699 L 766.88 413.699 L 753.092 399.91 L 780.592 399.91 L 766.804 386.888 L 790.015 386.888 L 780.439 377.887 L 774.694 383.402 L 773.353 382.023 M 779.099 376.546 L 779.022 376.508 L 779.137 376.508 M 782.01 376.393 L 795.798 376.01 L 795.798 363.217 L 782.01 376.431 L 782.01 376.393 Z " fill-rule="evenodd" fill="rgb(91,91,91)"/><path d=" M 517.612 244.864 L 515.697 244.864 L 515.697 233.144 L 525.157 242.566 L 525.157 233.22 L 538.18 245.554 L 538.18 233.22 L 551.279 245.554 L 551.279 233.144 L 567.251 249.077 L 567.251 233.144 L 586.823 252.716 L 586.823 233.144 L 609.306 255.627 L 609.306 233.067 L 634.701 259.189 L 634.701 233.029 L 666.108 265.968 L 664.729 267.309 L 636.616 237.817 L 636.616 263.9 L 611.222 237.778 L 611.222 260.223 L 588.738 237.74 L 588.738 257.351 L 569.166 237.74 L 569.166 253.712 L 553.194 237.74 L 553.194 249.997 L 540.133 237.663 L 540.133 249.997 L 527.072 237.663 L 527.072 247.162 L 517.612 237.702 L 517.612 244.864 Z " fill="rgb(91,91,91)"/><path d=" M 664.499 498.308 L 664.499 211.273 L 798.403 211.273 L 798.403 498.308 L 664.538 498.308 L 664.499 498.308 Z  M 672.16 490.647 L 672.16 218.934 L 790.742 218.934 L 790.742 490.647 L 672.198 490.647 L 672.16 490.647 Z " fill-rule="evenodd" fill="rgb(91,91,91)"/><path d=" M 679.667 216.291 L 733.634 162.362 L 788.406 216.291 L 679.667 216.291 Z  M 688.898 212.461 L 733.634 167.762 L 779.06 212.461 L 688.936 212.461 L 688.898 212.461 Z " fill-rule="evenodd" fill="rgb(91,91,91)"/><path d=" M 752.249 146.926 L 752.249 145.969 L 754.164 145.969 L 754.164 215.333 L 752.249 215.333 L 752.249 146.926 Z  M 744.282 162.132 L 744.282 161.175 L 746.197 161.175 L 746.197 211.733 L 744.282 211.733 L 744.282 162.132 Z " fill="rgb(91,91,91)"/><path d=" M 418.716 464.717 L 587.053 464.717 L 587.053 481.417 L 418.716 481.417 L 418.716 464.717 Z " fill="rgb(98,98,102)"/><path d=" M 391.867 473.067 L 634.969 473.067 L 634.969 489.766 L 391.867 489.766 L 391.867 473.067 Z " fill="rgb(66,66,70)"/><path d=" M 351.228 485.783 L 812 485.783 L 812 502.483 L 351.228 502.483 L 351.228 485.783 Z " fill="rgb(51,51,53)"/></g><g><path d=" M 506.925 184.232 C 520.523 193.233 537.261 215.64 539.865 234.791 L 506.925 234.791 L 506.925 184.232 Z " fill="rgb(80,34,162)"/><path d=" M 506.925 234.446 L 539.865 234.446 L 539.865 407.8 L 506.925 407.8 L 506.925 234.446 Z " fill="rgb(114,70,191)"/><path d=" M 550.398 237.663 C 553.156 240.842 558.518 248.465 560.969 254.899 L 550.398 254.899 L 550.398 237.663 Z " fill="rgb(223,223,234)"/><path d=" M 550.398 254.746 L 560.969 254.746 L 560.969 457.708 L 550.398 457.708 L 550.398 254.746 Z " fill="rgb(223,223,234)"/><path d=" M 550.398 237.663 C 546.058 242.859 542.509 248.667 539.865 254.899 L 550.398 254.899 L 550.398 237.663 Z " fill="rgb(189,189,200)"/><path d=" M 539.865 254.746 L 550.436 254.746 L 550.436 457.708 L 539.865 457.708 L 539.865 254.746 Z " fill="rgb(189,189,200)"/><path d=" M 562.578 468.279 L 565.106 474.024 L 550.398 474.024 L 550.398 468.279 L 562.578 468.279 Z " fill="rgb(91,91,94)"/><path d=" M 560.969 453.226 L 567.059 469.543 L 550.398 469.543 L 550.398 453.226 L 560.969 453.226 Z " fill="rgb(223,223,234)"/><path d=" M 538.256 468.279 L 535.69 474.024 L 550.398 474.024 L 550.398 468.279 L 538.256 468.279 Z " fill="rgb(61,61,64)"/><path d=" M 539.865 453.226 L 533.775 469.543 L 550.398 469.543 L 550.398 453.226 L 539.865 453.226 Z " fill="rgb(189,189,200)"/><path d=" M 539.865 441.736 L 560.969 441.736 L 560.969 443 L 539.865 443 L 539.865 441.736 Z  M 539.865 444.264 L 560.969 444.264 L 560.969 445.528 L 539.865 445.528 L 539.865 444.264 Z  M 539.865 446.83 L 560.969 446.83 L 560.969 448.094 L 539.865 448.094 L 539.865 446.83 Z  M 539.865 449.396 L 560.969 449.396 L 560.969 450.66 L 539.865 450.66 L 539.865 449.396 Z " fill="rgb(128,2,2)"/><path d=" M 539.865 254.938 L 560.969 254.938 L 560.969 257.159 L 539.865 257.159 L 539.865 254.938 Z " fill="rgb(61,61,64)"/><g><path d=" M 550.475 474.024 L 537.222 474.024 C 533.737 533.699 519.91 595.786 495.78 660.286 L 550.475 660.286 L 550.475 474.024 Z " fill="rgb(255,255,255)"/><path d=" M 550.36 474.024 L 563.612 474.024 C 567.059 533.699 580.886 595.786 605.017 660.286 L 550.398 660.286 L 550.398 474.024 L 550.36 474.024 Z " fill="rgb(255,255,255)"/></g><g><path d=" M 507.462 184.232 C 493.865 193.233 477.127 215.64 474.522 234.791 L 507.462 234.791 L 507.462 184.232 Z " fill="rgb(102,52,187)"/><path d=" M 474.522 234.446 L 507.462 234.446 L 507.462 407.8 L 474.522 407.8 L 474.522 234.446 Z " fill="rgb(154,104,242)"/><path d=" M 463.951 237.663 C 459.597 242.857 456.035 248.665 453.379 254.899 L 463.951 254.899 L 463.951 237.663 Z " fill="rgb(223,223,234)"/><path d=" M 453.379 254.746 L 463.951 254.746 L 463.951 457.708 L 453.379 457.708 L 453.379 254.746 Z " fill="rgb(223,223,234)"/><path d=" M 463.951 237.663 C 466.708 240.842 472.071 248.465 474.522 254.899 L 463.951 254.899 L 463.951 237.663 Z " fill="rgb(189,189,200)"/><path d=" M 463.951 254.746 L 474.522 254.746 L 474.522 457.708 L 463.951 457.708 L 463.951 254.746 Z " fill="rgb(189,189,200)"/><path d=" M 451.809 468.279 L 449.243 474.024 L 463.951 474.024 L 463.951 468.279 L 451.809 468.279 Z " fill="rgb(91,91,94)"/><path d=" M 453.379 453.226 L 447.328 469.543 L 463.951 469.543 L 463.951 453.226 L 453.379 453.226 L 453.379 453.226 Z " fill="rgb(223,223,234)"/><path d=" M 476.092 468.279 L 478.659 474.024 L 463.951 474.024 L 463.951 468.279 L 476.092 468.279 Z " fill="rgb(61,61,64)"/><path d=" M 474.522 453.226 L 480.574 469.543 L 463.951 469.543 L 463.951 453.226 L 474.522 453.226 L 474.522 453.226 Z " fill="rgb(189,189,200)"/><path d=" M 453.379 441.736 L 474.484 441.736 L 474.484 443 L 453.379 443 L 453.379 441.736 Z  M 453.379 444.264 L 474.484 444.264 L 474.484 445.528 L 453.379 445.528 L 453.379 444.264 Z  M 453.379 446.83 L 474.484 446.83 L 474.484 448.094 L 453.379 448.094 L 453.379 446.83 Z  M 453.379 449.396 L 474.484 449.396 L 474.484 450.66 L 453.379 450.66 L 453.379 449.396 Z " fill="rgb(128,2,2)"/><path d=" M 453.379 254.938 L 474.484 254.938 L 474.484 257.159 L 453.379 257.159 L 453.379 254.938 Z " fill="rgb(61,61,64)"/><g><path d=" M 464.027 474.024 L 450.775 474.024 C 447.251 533.699 433.462 595.786 409.332 660.286 L 464.027 660.286 L 464.027 474.024 Z " fill="rgb(255,255,255)"/><path d=" M 463.874 474.024 L 477.127 474.024 C 480.65 533.699 494.439 595.786 518.569 660.286 L 463.874 660.286 L 463.874 474.024 Z " fill="rgb(255,255,255)"/></g></g><g><path d=" M 506.925 255.895 C 519.757 265.854 526.268 283.855 526.421 309.939 L 526.421 420.287 L 506.887 420.287 L 506.887 255.895 L 506.925 255.895 Z " fill="rgb(240,240,244)"/><path d=" M 588.164 420.287 L 526.421 420.287 L 526.421 314.42 C 530.941 340.312 541.474 356.629 562.731 371.988 C 583.989 387.309 583.261 398.685 588.164 420.287 L 588.164 420.287 Z " fill="rgb(61,61,64)"/><path d=" M 529.332 343.836 C 527.685 340.159 526.421 335.869 526.421 335.831 L 526.421 420.287 L 581.423 420.287 L 580.044 412.818 C 579.296 409.218 578.492 405.63 577.631 402.055 C 576.809 399.132 575.732 396.287 574.413 393.552 C 572.972 390.71 571.127 388.091 568.936 385.777 C 567.586 384.317 566.154 382.936 564.646 381.64 C 562.846 380.07 560.969 378.576 559.016 377.197 C 553.777 373.388 548.823 369.202 544.193 364.672 C 539.953 360.374 536.167 355.651 532.894 350.577 C 532.894 350.577 530.902 347.513 529.294 343.836 L 529.332 343.836 Z " fill="rgb(223,223,234)"/><path d=" M 506.925 276.655 L 506.925 255.895 C 513.284 260.836 518.071 267.769 521.327 276.693 L 506.925 276.693 L 506.925 276.655 Z " fill="rgb(61,61,64)"/><path d=" M 507.538 281.787 C 513.054 281.825 518.569 283.626 520.331 287.226 C 520.801 288.672 521.021 290.187 520.982 291.707 C 518.952 291.707 517.688 291.324 516.501 290.443 C 516.463 287.954 510.717 285.005 507.538 285.005 L 507.538 281.787 Z " fill="rgb(38,38,38)"/><mask id="_mask_tRrXLRRILNOejl1kHmPJoYmgykQu1VKR"><path d=" M 588.164 420.287 L 589.428 427.641 L 558.71 430.858 L 558.71 420.287 L 588.164 420.287 Z " fill="white" stroke="none"/></mask><path d=" M 588.164 420.287 L 589.428 427.641 L 558.71 430.858 L 558.71 420.287 L 588.164 420.287 Z " fill="rgb(223,223,234)" mask="url(#_mask_tRrXLRRILNOejl1kHmPJoYmgykQu1VKR)" vector-effect="non-scaling-stroke" stroke-width="10" stroke="rgb(61,61,64)" stroke-linejoin="miter" stroke-linecap="square" stroke-miterlimit="3"/><mask id="_mask_1HslydYqhAVxeAtQWXKzf7Gc5Y51ZTbp"><path d=" M 557.139 420.287 L 557.139 430.858 L 526.421 437.561 L 526.421 420.287 L 557.139 420.287 Z " fill="white" stroke="none"/></mask><path d=" M 557.139 420.287 L 557.139 430.858 L 526.421 437.561 L 526.421 420.287 L 557.139 420.287 Z " fill="rgb(223,223,234)" mask="url(#_mask_1HslydYqhAVxeAtQWXKzf7Gc5Y51ZTbp)" vector-effect="non-scaling-stroke" stroke-width="10" stroke="rgb(61,61,64)" stroke-linejoin="miter" stroke-linecap="square" stroke-miterlimit="3"/><path d=" M 428.866 418.372 L 487.392 418.372 L 487.392 420.287 L 428.866 420.287 L 428.866 418.372 Z " fill="rgb(61,61,64)"/><path d=" M 510.564 472.262 L 510.564 472.952 L 510.641 472.952 C 512.709 488.426 515.62 503.823 519.488 519.221 C 523.893 502.751 526.996 487.315 528.758 472.952 L 528.834 472.952 L 528.834 472.262 L 528.834 472.186 C 528.643 462.457 524.621 454.644 519.68 454.644 C 514.777 454.644 510.756 462.457 510.564 472.186 L 510.564 472.262 Z " fill="rgb(255,95,95)"/><linearGradient id="_lgradient_22" x1="0.5036477987421364" y1="0.0999866548042716" x2="0.5036477987421362" y2="1.199839857651246" gradientTransform="matrix(12.18,0,0,43.051,513.59,460.351)" gradientUnits="userSpaceOnUse"><stop offset="0%" stop-opacity="1" style="stop-color:rgb(255,149,57)"/><stop offset="10%" stop-opacity="1" style="stop-color:rgb(255,167,52)"/><stop offset="42.2%" stop-opacity="1" style="stop-color:rgb(244,230,31)"/><stop offset="100%" stop-opacity="1" style="stop-color:rgb(251,246,182)"/></linearGradient><path d=" M 513.628 472.071 L 513.628 472.569 C 515.045 482.872 516.999 493.137 519.565 503.402 C 522.514 492.409 524.544 482.144 525.693 472.569 L 525.77 472.569 L 525.77 472.071 C 525.713 468.815 525.014 465.885 523.917 463.769 C 522.821 461.653 521.327 460.351 519.68 460.351 C 516.424 460.351 513.743 465.56 513.59 472.071 L 513.628 472.071 Z " fill="url(#_lgradient_22)"/><g><path d=" M 519.68 410.06 L 519.68 390.526 C 526.191 390.526 531.554 394.548 531.975 399.642 L 531.975 440.74 L 519.718 440.74 L 519.718 410.06 L 519.68 410.06 Z " fill="rgb(240,240,244)"/><path d=" M 519.68 410.06 L 519.68 390.526 C 513.169 390.526 507.806 394.548 507.423 399.642 L 507.385 399.642 L 507.385 440.74 L 519.68 440.74 L 519.68 410.06 L 519.68 410.06 Z " fill="rgb(248,248,249)"/><path d=" M 509.3 446.179 L 509.3 440.74 L 519.68 440.74 L 519.68 449.703 C 515.938 449.633 512.311 448.402 509.3 446.179 L 509.3 446.179 Z " fill="rgb(91,91,94)"/><path d=" M 530.098 446.179 L 530.098 440.74 L 519.68 440.74 L 519.68 449.703 C 523.435 449.641 527.077 448.409 530.098 446.179 L 530.098 446.179 Z " fill="rgb(61,61,64)"/></g></g><g><path d=" M 506.925 255.895 C 494.056 265.854 487.583 283.855 487.392 309.939 L 487.392 420.287 L 506.925 420.287 L 506.925 255.895 Z " fill="rgb(248,248,249)"/><path d=" M 506.925 276.655 L 506.925 255.895 C 500.216 261.299 495.204 268.518 492.486 276.693 L 506.925 276.693 L 506.925 276.655 Z " fill="rgb(91,91,94)"/><path d=" M 425.687 420.287 L 487.392 420.287 L 487.392 314.42 C 482.872 340.312 472.339 356.629 451.081 371.988 C 429.824 387.309 430.59 398.685 425.687 420.287 L 425.687 420.287 Z " fill="rgb(61,61,64)"/><path d=" M 484.519 343.836 C 486.128 340.159 487.392 335.869 487.392 335.831 L 487.392 420.287 L 432.428 420.287 L 433.845 412.818 C 434.593 409.218 435.397 405.63 436.258 402.055 C 437.069 399.134 438.132 396.289 439.438 393.552 C 440.879 390.71 442.724 388.091 444.915 385.777 C 446.255 384.321 447.711 382.942 449.205 381.64 C 451.005 380.07 452.92 378.576 454.873 377.197 C 460.099 373.387 465.04 369.201 469.658 364.672 C 473.898 360.374 477.684 355.651 480.957 350.577 C 480.957 350.577 482.948 347.513 484.557 343.836 L 484.519 343.836 Z " fill="rgb(223,223,234)"/><path d=" M 506.274 281.787 C 500.759 281.825 495.243 283.626 493.482 287.226 C 493.025 288.674 492.818 290.19 492.869 291.707 C 494.899 291.707 496.163 291.324 497.312 290.443 C 497.388 287.954 503.134 285.005 506.274 285.005 L 506.274 281.787 Z " fill="rgb(38,38,38)"/><mask id="_mask_SrgupLaEDcLwbM9D4sQXhGkS31YW8XxP"><path d=" M 425.687 420.287 L 424.385 427.641 L 455.103 430.858 L 455.103 420.287 L 425.687 420.287 Z " fill="white" stroke="none"/></mask><path d=" M 425.687 420.287 L 424.385 427.641 L 455.103 430.858 L 455.103 420.287 L 425.687 420.287 Z " fill="rgb(223,223,234)" mask="url(#_mask_SrgupLaEDcLwbM9D4sQXhGkS31YW8XxP)" vector-effect="non-scaling-stroke" stroke-width="10" stroke="rgb(61,61,64)" stroke-linejoin="miter" stroke-linecap="square" stroke-miterlimit="3"/><mask id="_mask_lzWYsT000OvIB6JeurxkumRhQYyhmktB"><path d=" M 456.712 420.287 L 456.712 430.858 L 487.392 437.561 L 487.392 420.287 L 456.712 420.287 Z " fill="white" stroke="none"/></mask><path d=" M 456.712 420.287 L 456.712 430.858 L 487.392 437.561 L 487.392 420.287 L 456.712 420.287 Z " fill="rgb(223,223,234)" mask="url(#_mask_lzWYsT000OvIB6JeurxkumRhQYyhmktB)" vector-effect="non-scaling-stroke" stroke-width="10" stroke="rgb(61,61,64)" stroke-linejoin="miter" stroke-linecap="square" stroke-miterlimit="3"/><path d=" M 428.866 418.372 L 487.392 418.372 L 487.392 420.287 L 428.866 420.287 L 428.866 418.372 Z " fill="rgb(61,61,64)"/><path d=" M 485.591 472.262 L 485.591 472.952 L 485.706 472.952 C 487.736 488.426 490.685 503.823 494.554 519.221 C 498.959 502.751 502.023 487.315 503.785 472.952 L 503.9 472.952 L 503.9 472.262 L 503.9 472.186 C 503.67 462.457 499.686 454.644 494.707 454.644 C 489.805 454.644 485.821 462.457 485.591 472.186 L 485.591 472.262 L 485.591 472.262 Z " fill="rgb(255,95,95)"/><linearGradient id="_lgradient_23" x1="0.5005031446540826" y1="0.09998665480427071" x2="0.5005031446540824" y2="1.199839857651245" gradientTransform="matrix(12.18,0,0,43.051,488.655,460.121)" gradientUnits="userSpaceOnUse"><stop offset="0%" stop-opacity="1" style="stop-color:rgb(255,149,57)"/><stop offset="10%" stop-opacity="1" style="stop-color:rgb(255,167,52)"/><stop offset="42.2%" stop-opacity="1" style="stop-color:rgb(244,230,31)"/><stop offset="100%" stop-opacity="1" style="stop-color:rgb(251,246,182)"/></linearGradient><path d=" M 488.655 471.841 L 488.655 472.339 L 488.694 472.339 C 490.073 482.642 492.064 492.907 494.631 503.172 C 497.542 492.179 499.61 481.915 500.759 472.339 L 500.835 472.339 L 500.835 471.841 C 500.721 465.33 498.039 460.121 494.707 460.121 C 491.452 460.121 488.77 465.33 488.655 471.841 Z " fill="url(#_lgradient_23)"/><g><path d=" M 494.745 410.06 L 494.745 390.526 C 501.257 390.526 506.619 394.548 507.002 399.642 L 507.04 399.642 L 507.04 440.74 L 494.745 440.74 L 494.745 410.06 L 494.745 410.06 Z " fill="rgb(240,240,244)"/><path d=" M 494.745 410.06 L 494.745 390.526 C 488.234 390.526 482.872 394.548 482.489 399.642 L 482.412 399.642 L 482.412 440.74 L 494.745 440.74 L 494.745 410.06 L 494.745 410.06 Z " fill="rgb(248,248,249)"/><path d=" M 484.366 446.179 L 484.366 440.74 L 494.707 440.74 L 494.707 449.703 C 490.979 449.625 487.366 448.394 484.366 446.179 L 484.366 446.179 Z " fill="rgb(91,91,94)"/><path d=" M 505.125 446.179 L 505.125 440.74 L 494.745 440.74 L 494.745 449.703 C 498.487 449.633 502.115 448.402 505.125 446.179 L 505.125 446.179 Z " fill="rgb(61,61,64)"/></g></g></g><path d=" M 230.82 170.109 L 230.82 200.109 L 225.156 200.109 L 225.156 170.109 L 230.82 170.109 L 230.82 170.109 Z  M 253.418 200.109 L 247.715 200.109 L 247.715 200.109 Q 247.324 199.348 247.148 198.215 L 247.148 198.215 L 247.148 198.215 Q 245.098 200.5 241.816 200.5 L 241.816 200.5 L 241.816 200.5 Q 238.711 200.5 236.67 198.703 L 236.67 198.703 L 236.67 198.703 Q 234.629 196.906 234.629 194.172 L 234.629 194.172 L 234.629 194.172 Q 234.629 190.813 237.119 189.016 L 237.119 189.016 L 237.119 189.016 Q 239.609 187.219 244.316 187.199 L 244.316 187.199 L 246.914 187.199 L 246.914 185.988 L 246.914 185.988 Q 246.914 184.523 246.162 183.645 L 246.162 183.645 L 246.162 183.645 Q 245.41 182.766 243.789 182.766 L 243.789 182.766 L 243.789 182.766 Q 242.363 182.766 241.553 183.449 L 241.553 183.449 L 241.553 183.449 Q 240.742 184.133 240.742 185.324 L 240.742 185.324 L 235.098 185.324 L 235.098 185.324 Q 235.098 183.488 236.23 181.926 L 236.23 181.926 L 236.23 181.926 Q 237.363 180.363 239.434 179.475 L 239.434 179.475 L 239.434 179.475 Q 241.504 178.586 244.082 178.586 L 244.082 178.586 L 244.082 178.586 Q 247.988 178.586 250.283 180.549 L 250.283 180.549 L 250.283 180.549 Q 252.578 182.512 252.578 186.066 L 252.578 186.066 L 252.578 195.227 L 252.578 195.227 Q 252.598 198.234 253.418 199.777 L 253.418 199.777 L 253.418 200.109 L 253.418 200.109 Z  M 243.047 196.184 L 243.047 196.184 L 243.047 196.184 Q 244.297 196.184 245.351 195.627 L 245.351 195.627 L 245.351 195.627 Q 246.406 195.07 246.914 194.133 L 246.914 194.133 L 246.914 190.5 L 244.805 190.5 L 244.805 190.5 Q 240.566 190.5 240.293 193.43 L 240.293 193.43 L 240.273 193.762 L 240.273 193.762 Q 240.273 194.816 241.016 195.5 L 241.016 195.5 L 241.016 195.5 Q 241.758 196.184 243.047 196.184 Z  M 269.726 200.109 L 269.57 197.961 L 269.57 197.961 Q 267.48 200.5 263.789 200.5 L 263.789 200.5 L 263.789 200.5 Q 260.391 200.5 258.603 198.547 L 258.603 198.547 L 258.603 198.547 Q 256.816 196.594 256.777 192.824 L 256.777 192.824 L 256.777 178.977 L 262.422 178.977 L 262.422 192.629 L 262.422 192.629 Q 262.422 195.93 265.43 195.93 L 265.43 195.93 L 265.43 195.93 Q 268.301 195.93 269.375 193.938 L 269.375 193.938 L 269.375 178.977 L 275.039 178.977 L 275.039 200.109 L 269.726 200.109 L 269.726 200.109 Z  M 279.18 178.977 L 284.492 178.977 L 284.668 181.418 L 284.668 181.418 Q 286.934 178.586 290.742 178.586 L 290.742 178.586 L 290.742 178.586 Q 294.101 178.586 295.742 180.559 L 295.742 180.559 L 295.742 180.559 Q 297.383 182.531 297.422 186.457 L 297.422 186.457 L 297.422 200.109 L 291.777 200.109 L 291.777 186.594 L 291.777 186.594 Q 291.777 184.797 290.996 183.986 L 290.996 183.986 L 290.996 183.986 Q 290.215 183.176 288.398 183.176 L 288.398 183.176 L 288.398 183.176 Q 286.016 183.176 284.824 185.207 L 284.824 185.207 L 284.824 200.109 L 279.18 200.109 L 279.18 178.977 L 279.18 178.977 Z  M 310.488 195.949 L 310.488 195.949 L 310.488 195.949 Q 312.051 195.949 313.027 195.09 L 313.027 195.09 L 313.027 195.09 Q 314.004 194.23 314.043 192.805 L 314.043 192.805 L 319.336 192.805 L 319.336 192.805 Q 319.316 194.953 318.164 196.74 L 318.164 196.74 L 318.164 196.74 Q 317.012 198.527 315.01 199.514 L 315.01 199.514 L 315.01 199.514 Q 313.008 200.5 310.586 200.5 L 310.586 200.5 L 310.586 200.5 Q 306.055 200.5 303.437 197.619 L 303.437 197.619 L 303.437 197.619 Q 300.82 194.738 300.82 189.66 L 300.82 189.66 L 300.82 189.289 L 300.82 189.289 Q 300.82 184.406 303.418 181.496 L 303.418 181.496 L 303.418 181.496 Q 306.016 178.586 310.547 178.586 L 310.547 178.586 L 310.547 178.586 Q 314.512 178.586 316.904 180.842 L 316.904 180.842 L 316.904 180.842 Q 319.297 183.098 319.336 186.848 L 319.336 186.848 L 314.043 186.848 L 314.043 186.848 Q 314.004 185.207 313.027 184.182 L 313.027 184.182 L 313.027 184.182 Q 312.051 183.156 310.449 183.156 L 310.449 183.156 L 310.449 183.156 Q 308.476 183.156 307.471 184.592 L 307.471 184.592 L 307.471 184.592 Q 306.465 186.027 306.465 189.25 L 306.465 189.25 L 306.465 189.836 L 306.465 189.836 Q 306.465 193.098 307.461 194.523 L 307.461 194.523 L 307.461 194.523 Q 308.457 195.949 310.488 195.949 Z  M 328.066 170.109 L 328.066 181.281 L 328.066 181.281 Q 330.312 178.586 333.711 178.586 L 333.711 178.586 L 333.711 178.586 Q 340.586 178.586 340.684 186.574 L 340.684 186.574 L 340.684 200.109 L 335.039 200.109 L 335.039 186.73 L 335.039 186.73 Q 335.039 184.914 334.258 184.045 L 334.258 184.045 L 334.258 184.045 Q 333.476 183.176 331.66 183.176 L 331.66 183.176 L 331.66 183.176 Q 329.18 183.176 328.066 185.09 L 328.066 185.09 L 328.066 200.109 L 322.422 200.109 L 322.422 170.109 L 328.066 170.109 L 328.066 170.109 Z  M 351.348 171.672 L 350.684 191.379 L 345.996 191.379 L 345.332 171.672 L 351.348 171.672 L 351.348 171.672 Z  M 348.34 194.465 L 348.34 194.465 L 348.34 194.465 Q 349.766 194.465 350.635 195.305 L 350.635 195.305 L 350.635 195.305 Q 351.504 196.145 351.504 197.453 L 351.504 197.453 L 351.504 197.453 Q 351.504 198.742 350.635 199.582 L 350.635 199.582 L 350.635 199.582 Q 349.766 200.422 348.34 200.422 L 348.34 200.422 L 348.34 200.422 Q 346.934 200.422 346.064 199.582 L 346.064 199.582 L 346.064 199.582 Q 345.195 198.742 345.195 197.453 L 345.195 197.453 L 345.195 197.453 Q 345.195 196.164 346.064 195.314 L 346.064 195.314 L 346.064 195.314 Q 346.934 194.465 348.34 194.465 Z  M 179.883 173.781 L 185.527 173.781 L 185.527 178.977 L 189.141 178.977 L 189.141 183.117 L 185.527 183.117 L 185.527 193.664 L 185.527 193.664 Q 185.527 194.836 185.976 195.344 L 185.976 195.344 L 185.976 195.344 Q 186.426 195.852 187.695 195.852 L 187.695 195.852 L 187.695 195.852 Q 188.633 195.852 189.355 195.715 L 189.355 195.715 L 189.355 199.992 L 189.355 199.992 Q 187.695 200.5 185.937 200.5 L 185.937 200.5 L 185.937 200.5 Q 180 200.5 179.883 194.504 L 179.883 194.504 L 179.883 183.117 L 176.797 183.117 L 176.797 178.977 L 179.883 178.977 L 179.883 173.781 L 179.883 173.781 Z  M 191.406 189.602 L 191.406 189.348 L 191.406 189.348 Q 191.406 186.203 192.617 183.742 L 192.617 183.742 L 192.617 183.742 Q 193.828 181.281 196.103 179.934 L 196.103 179.934 L 196.103 179.934 Q 198.379 178.586 201.387 178.586 L 201.387 178.586 L 201.387 178.586 Q 205.664 178.586 208.369 181.203 L 208.369 181.203 L 208.369 181.203 Q 211.074 183.82 211.387 188.313 L 211.387 188.313 L 211.426 189.758 L 211.426 189.758 Q 211.426 194.621 208.711 197.561 L 208.711 197.561 L 208.711 197.561 Q 205.996 200.5 201.426 200.5 L 201.426 200.5 L 201.426 200.5 Q 196.855 200.5 194.131 197.57 L 194.131 197.57 L 194.131 197.57 Q 191.406 194.641 191.406 189.602 L 191.406 189.602 L 191.406 189.602 Z  M 197.051 189.758 L 197.051 189.758 L 197.051 189.758 Q 197.051 192.766 198.184 194.357 L 198.184 194.357 L 198.184 194.357 Q 199.316 195.949 201.426 195.949 L 201.426 195.949 L 201.426 195.949 Q 203.476 195.949 204.629 194.377 L 204.629 194.377 L 204.629 194.377 Q 205.781 192.805 205.781 189.348 L 205.781 189.348 L 205.781 189.348 Q 205.781 186.398 204.629 184.777 L 204.629 184.777 L 204.629 184.777 Q 203.476 183.156 201.387 183.156 L 201.387 183.156 L 201.387 183.156 Q 199.316 183.156 198.184 184.768 L 198.184 184.768 L 198.184 184.768 Q 197.051 186.379 197.051 189.758 Z  M 80.488 178.84 L 80.41 184.27 L 80.41 184.27 Q 79.258 184.113 78.379 184.113 L 78.379 184.113 L 78.379 184.113 Q 75.176 184.113 74.18 186.281 L 74.18 186.281 L 74.18 200.109 L 68.535 200.109 L 68.535 178.977 L 73.867 178.977 L 74.023 181.496 L 74.023 181.496 Q 75.723 178.586 78.73 178.586 L 78.73 178.586 L 78.73 178.586 Q 79.668 178.586 80.488 178.84 L 80.488 178.84 L 80.488 178.84 Z  M 92.851 200.5 L 92.851 200.5 L 92.851 200.5 Q 88.203 200.5 85.283 197.648 L 85.283 197.648 L 85.283 197.648 Q 82.363 194.797 82.363 190.051 L 82.363 190.051 L 82.363 189.504 L 82.363 189.504 Q 82.363 186.32 83.594 183.811 L 83.594 183.811 L 83.594 183.811 Q 84.824 181.301 87.08 179.943 L 87.08 179.943 L 87.08 179.943 Q 89.336 178.586 92.226 178.586 L 92.226 178.586 L 92.226 178.586 Q 96.562 178.586 99.053 181.32 L 99.053 181.32 L 99.053 181.32 Q 101.543 184.055 101.543 189.074 L 101.543 189.074 L 101.543 191.379 L 88.086 191.379 L 88.086 191.379 Q 88.359 193.449 89.736 194.699 L 89.736 194.699 L 89.736 194.699 Q 91.113 195.949 93.223 195.949 L 93.223 195.949 L 93.223 195.949 Q 96.484 195.949 98.32 193.586 L 98.32 193.586 L 101.094 196.691 L 101.094 196.691 Q 99.824 198.488 97.656 199.494 L 97.656 199.494 L 97.656 199.494 Q 95.488 200.5 92.851 200.5 Z  M 92.207 183.156 L 92.207 183.156 L 92.207 183.156 Q 90.527 183.156 89.482 184.289 L 89.482 184.289 L 89.482 184.289 Q 88.437 185.422 88.144 187.531 L 88.144 187.531 L 95.996 187.531 L 95.996 187.082 L 95.996 187.082 Q 95.957 185.207 94.98 184.182 L 94.98 184.182 L 94.98 184.182 Q 94.004 183.156 92.207 183.156 Z  M 122.695 200.109 L 116.992 200.109 L 116.992 200.109 Q 116.601 199.348 116.426 198.215 L 116.426 198.215 L 116.426 198.215 Q 114.375 200.5 111.094 200.5 L 111.094 200.5 L 111.094 200.5 Q 107.988 200.5 105.947 198.703 L 105.947 198.703 L 105.947 198.703 Q 103.906 196.906 103.906 194.172 L 103.906 194.172 L 103.906 194.172 Q 103.906 190.813 106.396 189.016 L 106.396 189.016 L 106.396 189.016 Q 108.887 187.219 113.594 187.199 L 113.594 187.199 L 116.191 187.199 L 116.191 185.988 L 116.191 185.988 Q 116.191 184.523 115.439 183.645 L 115.439 183.645 L 115.439 183.645 Q 114.687 182.766 113.066 182.766 L 113.066 182.766 L 113.066 182.766 Q 111.641 182.766 110.83 183.449 L 110.83 183.449 L 110.83 183.449 Q 110.019 184.133 110.019 185.324 L 110.019 185.324 L 104.375 185.324 L 104.375 185.324 Q 104.375 183.488 105.508 181.926 L 105.508 181.926 L 105.508 181.926 Q 106.641 180.363 108.711 179.475 L 108.711 179.475 L 108.711 179.475 Q 110.781 178.586 113.359 178.586 L 113.359 178.586 L 113.359 178.586 Q 117.266 178.586 119.56 180.549 L 119.56 180.549 L 119.56 180.549 Q 121.855 182.512 121.855 186.066 L 121.855 186.066 L 121.855 195.227 L 121.855 195.227 Q 121.875 198.234 122.695 199.777 L 122.695 199.777 L 122.695 200.109 L 122.695 200.109 Z  M 112.324 196.184 L 112.324 196.184 L 112.324 196.184 Q 113.574 196.184 114.629 195.627 L 114.629 195.627 L 114.629 195.627 Q 115.684 195.07 116.191 194.133 L 116.191 194.133 L 116.191 190.5 L 114.082 190.5 L 114.082 190.5 Q 109.844 190.5 109.57 193.43 L 109.57 193.43 L 109.551 193.762 L 109.551 193.762 Q 109.551 194.816 110.293 195.5 L 110.293 195.5 L 110.293 195.5 Q 111.035 196.184 112.324 196.184 Z  M 125.312 189.387 L 125.312 189.387 L 125.312 189.387 Q 125.312 184.445 127.529 181.516 L 127.529 181.516 L 127.529 181.516 Q 129.746 178.586 133.594 178.586 L 133.594 178.586 L 133.594 178.586 Q 136.68 178.586 138.691 180.891 L 138.691 180.891 L 138.691 170.109 L 144.355 170.109 L 144.355 200.109 L 139.258 200.109 L 138.984 197.863 L 138.984 197.863 Q 136.875 200.5 133.555 200.5 L 133.555 200.5 L 133.555 200.5 Q 129.824 200.5 127.568 197.561 L 127.568 197.561 L 127.568 197.561 Q 125.312 194.621 125.312 189.387 Z  M 130.957 189.797 L 130.957 189.797 L 130.957 189.797 Q 130.957 192.766 131.992 194.348 L 131.992 194.348 L 131.992 194.348 Q 133.027 195.93 135 195.93 L 135 195.93 L 135 195.93 Q 137.617 195.93 138.691 193.723 L 138.691 193.723 L 138.691 185.383 L 138.691 185.383 Q 137.637 183.176 135.039 183.176 L 135.039 183.176 L 135.039 183.176 Q 130.957 183.176 130.957 189.797 Z  M 152.695 178.977 L 156.621 192.121 L 160.527 178.977 L 166.582 178.977 L 158.086 203.391 L 157.617 204.504 L 157.617 204.504 Q 155.723 208.645 151.367 208.645 L 151.367 208.645 L 151.367 208.645 Q 150.137 208.645 148.867 208.273 L 148.867 208.273 L 148.867 203.996 L 149.726 204.016 L 149.726 204.016 Q 151.328 204.016 152.119 203.527 L 152.119 203.527 L 152.119 203.527 Q 152.91 203.039 153.359 201.906 L 153.359 201.906 L 154.023 200.168 L 146.621 178.977 L 152.695 178.977 L 152.695 178.977 Z  M 262.656 153.234 L 253.848 153.234 L 253.848 124.797 L 262.598 124.797 L 262.598 124.797 Q 266.348 124.797 269.307 126.486 L 269.307 126.486 L 269.307 126.486 Q 272.266 128.176 273.926 131.291 L 273.926 131.291 L 273.926 131.291 Q 275.586 134.406 275.586 138.371 L 275.586 138.371 L 275.586 139.68 L 275.586 139.68 Q 275.586 143.645 273.955 146.73 L 273.955 146.73 L 273.955 146.73 Q 272.324 149.816 269.355 151.516 L 269.355 151.516 L 269.355 151.516 Q 266.387 153.215 262.656 153.234 L 262.656 153.234 L 262.656 153.234 Z  M 262.598 129.543 L 259.707 129.543 L 259.707 148.527 L 262.539 148.527 L 262.539 148.527 Q 265.976 148.527 267.793 146.281 L 267.793 146.281 L 267.793 146.281 Q 269.609 144.035 269.648 139.855 L 269.648 139.855 L 269.648 138.352 L 269.648 138.352 Q 269.648 134.016 267.851 131.779 L 267.851 131.779 L 267.851 131.779 Q 266.055 129.543 262.598 129.543 L 262.598 129.543 L 262.598 129.543 Z  M 289.199 153.625 L 289.199 153.625 L 289.199 153.625 Q 284.551 153.625 281.631 150.773 L 281.631 150.773 L 281.631 150.773 Q 278.711 147.922 278.711 143.176 L 278.711 143.176 L 278.711 142.629 L 278.711 142.629 Q 278.711 139.445 279.941 136.936 L 279.941 136.936 L 279.941 136.936 Q 281.172 134.426 283.428 133.068 L 283.428 133.068 L 283.428 133.068 Q 285.684 131.711 288.574 131.711 L 288.574 131.711 L 288.574 131.711 Q 292.91 131.711 295.4 134.445 L 295.4 134.445 L 295.4 134.445 Q 297.891 137.18 297.891 142.199 L 297.891 142.199 L 297.891 144.504 L 284.434 144.504 L 284.434 144.504 Q 284.707 146.574 286.084 147.824 L 286.084 147.824 L 286.084 147.824 Q 287.461 149.074 289.57 149.074 L 289.57 149.074 L 289.57 149.074 Q 292.832 149.074 294.668 146.711 L 294.668 146.711 L 297.441 149.816 L 297.441 149.816 Q 296.172 151.613 294.004 152.619 L 294.004 152.619 L 294.004 152.619 Q 291.836 153.625 289.199 153.625 Z  M 288.555 136.281 L 288.555 136.281 L 288.555 136.281 Q 286.875 136.281 285.83 137.414 L 285.83 137.414 L 285.83 137.414 Q 284.785 138.547 284.492 140.656 L 284.492 140.656 L 292.344 140.656 L 292.344 140.207 L 292.344 140.207 Q 292.305 138.332 291.328 137.307 L 291.328 137.307 L 291.328 137.307 Q 290.351 136.281 288.555 136.281 Z  M 301.094 132.102 L 306.387 132.102 L 306.562 134.465 L 306.562 134.465 Q 308.809 131.711 312.637 131.711 L 312.637 131.711 L 312.637 131.711 Q 316.719 131.711 318.242 134.934 L 318.242 134.934 L 318.242 134.934 Q 320.469 131.711 324.59 131.711 L 324.59 131.711 L 324.59 131.711 Q 328.027 131.711 329.707 133.713 L 329.707 133.713 L 329.707 133.713 Q 331.387 135.715 331.387 139.738 L 331.387 139.738 L 331.387 153.234 L 325.723 153.234 L 325.723 139.758 L 325.723 139.758 Q 325.723 137.961 325.019 137.131 L 325.019 137.131 L 325.019 137.131 Q 324.316 136.301 322.539 136.301 L 322.539 136.301 L 322.539 136.301 Q 320 136.301 319.023 138.723 L 319.023 138.723 L 319.043 153.234 L 313.398 153.234 L 313.398 139.777 L 313.398 139.777 Q 313.398 137.941 312.676 137.121 L 312.676 137.121 L 312.676 137.121 Q 311.953 136.301 310.215 136.301 L 310.215 136.301 L 310.215 136.301 Q 307.812 136.301 306.738 138.293 L 306.738 138.293 L 306.738 153.234 L 301.094 153.234 L 301.094 132.102 L 301.094 132.102 Z  M 334.844 142.727 L 334.844 142.473 L 334.844 142.473 Q 334.844 139.328 336.055 136.867 L 336.055 136.867 L 336.055 136.867 Q 337.266 134.406 339.541 133.059 L 339.541 133.059 L 339.541 133.059 Q 341.816 131.711 344.824 131.711 L 344.824 131.711 L 344.824 131.711 Q 349.101 131.711 351.807 134.328 L 351.807 134.328 L 351.807 134.328 Q 354.512 136.945 354.824 141.438 L 354.824 141.438 L 354.863 142.883 L 354.863 142.883 Q 354.863 147.746 352.148 150.686 L 352.148 150.686 L 352.148 150.686 Q 349.434 153.625 344.863 153.625 L 344.863 153.625 L 344.863 153.625 Q 340.293 153.625 337.568 150.695 L 337.568 150.695 L 337.568 150.695 Q 334.844 147.766 334.844 142.727 L 334.844 142.727 L 334.844 142.727 Z  M 340.488 142.883 L 340.488 142.883 L 340.488 142.883 Q 340.488 145.891 341.621 147.482 L 341.621 147.482 L 341.621 147.482 Q 342.754 149.074 344.863 149.074 L 344.863 149.074 L 344.863 149.074 Q 346.914 149.074 348.066 147.502 L 348.066 147.502 L 348.066 147.502 Q 349.219 145.93 349.219 142.473 L 349.219 142.473 L 349.219 142.473 Q 349.219 139.523 348.066 137.902 L 348.066 137.902 L 348.066 137.902 Q 346.914 136.281 344.824 136.281 L 344.824 136.281 L 344.824 136.281 Q 342.754 136.281 341.621 137.893 L 341.621 137.893 L 341.621 137.893 Q 340.488 139.504 340.488 142.883 Z  M 240.019 153.234 L 234.316 153.234 L 234.316 153.234 Q 233.926 152.473 233.75 151.34 L 233.75 151.34 L 233.75 151.34 Q 231.699 153.625 228.418 153.625 L 228.418 153.625 L 228.418 153.625 Q 225.312 153.625 223.271 151.828 L 223.271 151.828 L 223.271 151.828 Q 221.23 150.031 221.23 147.297 L 221.23 147.297 L 221.23 147.297 Q 221.23 143.938 223.721 142.141 L 223.721 142.141 L 223.721 142.141 Q 226.211 140.344 230.918 140.324 L 230.918 140.324 L 233.516 140.324 L 233.516 139.113 L 233.516 139.113 Q 233.516 137.648 232.764 136.77 L 232.764 136.77 L 232.764 136.77 Q 232.012 135.891 230.391 135.891 L 230.391 135.891 L 230.391 135.891 Q 228.965 135.891 228.154 136.574 L 228.154 136.574 L 228.154 136.574 Q 227.344 137.258 227.344 138.449 L 227.344 138.449 L 221.699 138.449 L 221.699 138.449 Q 221.699 136.613 222.832 135.051 L 222.832 135.051 L 222.832 135.051 Q 223.965 133.488 226.035 132.6 L 226.035 132.6 L 226.035 132.6 Q 228.105 131.711 230.684 131.711 L 230.684 131.711 L 230.684 131.711 Q 234.59 131.711 236.885 133.674 L 236.885 133.674 L 236.885 133.674 Q 239.18 135.637 239.18 139.191 L 239.18 139.191 L 239.18 148.352 L 239.18 148.352 Q 239.199 151.359 240.019 152.902 L 240.019 152.902 L 240.019 153.234 L 240.019 153.234 Z  M 229.648 149.309 L 229.648 149.309 L 229.648 149.309 Q 230.898 149.309 231.953 148.752 L 231.953 148.752 L 231.953 148.752 Q 233.008 148.195 233.516 147.258 L 233.516 147.258 L 233.516 143.625 L 231.406 143.625 L 231.406 143.625 Q 227.168 143.625 226.894 146.555 L 226.894 146.555 L 226.875 146.887 L 226.875 146.887 Q 226.875 147.941 227.617 148.625 L 227.617 148.625 L 227.617 148.625 Q 228.359 149.309 229.648 149.309 Z  M 186.894 132.102 L 186.894 153.234 L 181.23 153.234 L 181.23 132.102 L 186.894 132.102 L 186.894 132.102 Z  M 180.898 126.633 L 180.898 126.633 L 180.898 126.633 Q 180.898 125.363 181.748 124.543 L 181.748 124.543 L 181.748 124.543 Q 182.598 123.723 184.062 123.723 L 184.062 123.723 L 184.062 123.723 Q 185.508 123.723 186.367 124.543 L 186.367 124.543 L 186.367 124.543 Q 187.226 125.363 187.226 126.633 L 187.226 126.633 L 187.226 126.633 Q 187.226 127.922 186.357 128.742 L 186.357 128.742 L 186.357 128.742 Q 185.488 129.563 184.062 129.563 L 184.062 129.563 L 184.062 129.563 Q 182.637 129.563 181.767 128.742 L 181.767 128.742 L 181.767 128.742 Q 180.898 127.922 180.898 126.633 Z  M 202.988 147.395 L 202.988 147.395 L 202.988 147.395 Q 202.988 146.359 201.963 145.764 L 201.963 145.764 L 201.963 145.764 Q 200.937 145.168 198.672 144.699 L 198.672 144.699 L 198.672 144.699 Q 191.133 143.117 191.133 138.293 L 191.133 138.293 L 191.133 138.293 Q 191.133 135.48 193.467 133.596 L 193.467 133.596 L 193.467 133.596 Q 195.801 131.711 199.57 131.711 L 199.57 131.711 L 199.57 131.711 Q 203.594 131.711 206.006 133.605 L 206.006 133.605 L 206.006 133.605 Q 208.418 135.5 208.418 138.527 L 208.418 138.527 L 202.773 138.527 L 202.773 138.527 Q 202.773 137.316 201.992 136.525 L 201.992 136.525 L 201.992 136.525 Q 201.211 135.734 199.551 135.734 L 199.551 135.734 L 199.551 135.734 Q 198.125 135.734 197.344 136.379 L 197.344 136.379 L 197.344 136.379 Q 196.562 137.023 196.562 138.02 L 196.562 138.02 L 196.562 138.02 Q 196.562 138.957 197.451 139.533 L 197.451 139.533 L 197.451 139.533 Q 198.34 140.109 200.449 140.529 L 200.449 140.529 L 200.449 140.529 Q 202.559 140.949 204.004 141.477 L 204.004 141.477 L 204.004 141.477 Q 208.476 143.117 208.476 147.16 L 208.476 147.16 L 208.476 147.16 Q 208.476 150.051 205.996 151.838 L 205.996 151.838 L 205.996 151.838 Q 203.516 153.625 199.59 153.625 L 199.59 153.625 L 199.59 153.625 Q 196.934 153.625 194.873 152.678 L 194.873 152.678 L 194.873 152.678 Q 192.812 151.73 191.641 150.08 L 191.641 150.08 L 191.641 150.08 Q 190.469 148.43 190.469 146.516 L 190.469 146.516 L 195.82 146.516 L 195.82 146.516 Q 195.898 148.02 196.934 148.82 L 196.934 148.82 L 196.934 148.82 Q 197.969 149.621 199.707 149.621 L 199.707 149.621 L 199.707 149.621 Q 201.328 149.621 202.158 149.006 L 202.158 149.006 L 202.158 149.006 Q 202.988 148.391 202.988 147.395 Z  M 87.793 124.797 L 87.793 129.543 L 79.082 129.543 L 79.082 153.234 L 73.223 153.234 L 73.223 129.543 L 64.629 129.543 L 64.629 124.797 L 87.793 124.797 L 87.793 124.797 Z  M 96.269 123.234 L 96.269 134.406 L 96.269 134.406 Q 98.516 131.711 101.914 131.711 L 101.914 131.711 L 101.914 131.711 Q 108.789 131.711 108.887 139.699 L 108.887 139.699 L 108.887 153.234 L 103.242 153.234 L 103.242 139.855 L 103.242 139.855 Q 103.242 138.039 102.461 137.17 L 102.461 137.17 L 102.461 137.17 Q 101.68 136.301 99.863 136.301 L 99.863 136.301 L 99.863 136.301 Q 97.383 136.301 96.269 138.215 L 96.269 138.215 L 96.269 153.234 L 90.625 153.234 L 90.625 123.234 L 96.269 123.234 L 96.269 123.234 Z  M 122.871 153.625 L 122.871 153.625 L 122.871 153.625 Q 118.223 153.625 115.303 150.773 L 115.303 150.773 L 115.303 150.773 Q 112.383 147.922 112.383 143.176 L 112.383 143.176 L 112.383 142.629 L 112.383 142.629 Q 112.383 139.445 113.613 136.936 L 113.613 136.936 L 113.613 136.936 Q 114.844 134.426 117.1 133.068 L 117.1 133.068 L 117.1 133.068 Q 119.355 131.711 122.246 131.711 L 122.246 131.711 L 122.246 131.711 Q 126.582 131.711 129.072 134.445 L 129.072 134.445 L 129.072 134.445 Q 131.562 137.18 131.562 142.199 L 131.562 142.199 L 131.562 144.504 L 118.105 144.504 L 118.105 144.504 Q 118.379 146.574 119.756 147.824 L 119.756 147.824 L 119.756 147.824 Q 121.133 149.074 123.242 149.074 L 123.242 149.074 L 123.242 149.074 Q 126.504 149.074 128.34 146.711 L 128.34 146.711 L 131.113 149.816 L 131.113 149.816 Q 129.844 151.613 127.676 152.619 L 127.676 152.619 L 127.676 152.619 Q 125.508 153.625 122.871 153.625 Z  M 122.226 136.281 L 122.226 136.281 L 122.226 136.281 Q 120.547 136.281 119.502 137.414 L 119.502 137.414 L 119.502 137.414 Q 118.457 138.547 118.164 140.656 L 118.164 140.656 L 126.016 140.656 L 126.016 140.207 L 126.016 140.207 Q 125.976 138.332 125 137.307 L 125 137.307 L 125 137.307 Q 124.023 136.281 122.226 136.281 Z  M 146.719 131.965 L 146.641 137.395 L 146.641 137.395 Q 145.488 137.238 144.609 137.238 L 144.609 137.238 L 144.609 137.238 Q 141.406 137.238 140.41 139.406 L 140.41 139.406 L 140.41 153.234 L 134.766 153.234 L 134.766 132.102 L 140.098 132.102 L 140.254 134.621 L 140.254 134.621 Q 141.953 131.711 144.961 131.711 L 144.961 131.711 L 144.961 131.711 Q 145.898 131.711 146.719 131.965 L 146.719 131.965 L 146.719 131.965 Z  M 159.082 153.625 L 159.082 153.625 L 159.082 153.625 Q 154.434 153.625 151.514 150.773 L 151.514 150.773 L 151.514 150.773 Q 148.594 147.922 148.594 143.176 L 148.594 143.176 L 148.594 142.629 L 148.594 142.629 Q 148.594 139.445 149.824 136.936 L 149.824 136.936 L 149.824 136.936 Q 151.055 134.426 153.31 133.068 L 153.31 133.068 L 153.31 133.068 Q 155.566 131.711 158.457 131.711 L 158.457 131.711 L 158.457 131.711 Q 162.793 131.711 165.283 134.445 L 165.283 134.445 L 165.283 134.445 Q 167.773 137.18 167.773 142.199 L 167.773 142.199 L 167.773 144.504 L 154.316 144.504 L 154.316 144.504 Q 154.59 146.574 155.967 147.824 L 155.967 147.824 L 155.967 147.824 Q 157.344 149.074 159.453 149.074 L 159.453 149.074 L 159.453 149.074 Q 162.715 149.074 164.551 146.711 L 164.551 146.711 L 167.324 149.816 L 167.324 149.816 Q 166.055 151.613 163.887 152.619 L 163.887 152.619 L 163.887 152.619 Q 161.719 153.625 159.082 153.625 Z  M 158.437 136.281 L 158.437 136.281 L 158.437 136.281 Q 156.758 136.281 155.713 137.414 L 155.713 137.414 L 155.713 137.414 Q 154.668 138.547 154.375 140.656 L 154.375 140.656 L 162.226 140.656 L 162.226 140.207 L 162.226 140.207 Q 162.187 138.332 161.211 137.307 L 161.211 137.307 L 161.211 137.307 Q 160.234 136.281 158.437 136.281 Z " fill-rule="evenodd" fill="rgb(32,32,32)"/><defs><filter id="iaKRa2pborJFglkKntHH4xjWQ3kuAs3h" x="-200%" y="-200%" width="400%" height="400%" filterUnits="objectBoundingBox" color-interpolation-filters="sRGB"><feGaussianBlur xmlns="http://www.w3.org/2000/svg" in="SourceGraphic" stdDeviation="4.293609062839028"/><feOffset xmlns="http://www.w3.org/2000/svg" dx="0" dy="0" result="pf_100_offsetBlur"/><feFlood xmlns="http://www.w3.org/2000/svg" flood-color="#000000" flood-opacity="0.65"/><feComposite xmlns="http://www.w3.org/2000/svg" in2="pf_100_offsetBlur" operator="in" result="pf_100_dropShadow"/><feBlend xmlns="http://www.w3.org/2000/svg" in="SourceGraphic" in2="pf_100_dropShadow" mode="normal"/></filter></defs><g filter="url(#iaKRa2pborJFglkKntHH4xjWQ3kuAs3h)"><rect x="137.51" y="250" width="147" height="50" transform="matrix(1,0,0,1,0,0)" fill="rgb(80,34,162)"/></g><path d=" M 178.976 279.947 L 178.976 279.947 L 178.976 279.947 Q 178.976 278.826 178.184 278.227 L 178.184 278.227 L 178.184 278.227 Q 177.393 277.627 175.337 276.961 L 175.337 276.961 L 175.337 276.961 Q 173.28 276.295 172.08 275.649 L 172.08 275.649 L 172.08 275.649 Q 168.811 273.883 168.811 270.89 L 168.811 270.89 L 168.811 270.89 Q 168.811 269.334 169.688 268.115 L 169.688 268.115 L 169.688 268.115 Q 170.564 266.895 172.206 266.21 L 172.206 266.21 L 172.206 266.21 Q 173.847 265.524 175.891 265.524 L 175.891 265.524 L 175.891 265.524 Q 177.947 265.524 179.556 266.269 L 179.556 266.269 L 179.556 266.269 Q 181.164 267.014 182.054 268.372 L 182.054 268.372 L 182.054 268.372 Q 182.944 269.73 182.944 271.457 L 182.944 271.457 L 178.989 271.457 L 178.989 271.457 Q 178.989 270.139 178.158 269.407 L 178.158 269.407 L 178.158 269.407 Q 177.328 268.675 175.825 268.675 L 175.825 268.675 L 175.825 268.675 Q 174.374 268.675 173.57 269.288 L 173.57 269.288 L 173.57 269.288 Q 172.766 269.901 172.766 270.903 L 172.766 270.903 L 172.766 270.903 Q 172.766 271.839 173.709 272.472 L 173.709 272.472 L 173.709 272.472 Q 174.651 273.105 176.484 273.659 L 176.484 273.659 L 176.484 273.659 Q 179.859 274.674 181.401 276.177 L 181.401 276.177 L 181.401 276.177 Q 182.944 277.68 182.944 279.921 L 182.944 279.921 L 182.944 279.921 Q 182.944 282.412 181.059 283.83 L 181.059 283.83 L 181.059 283.83 Q 179.173 285.247 175.983 285.247 L 175.983 285.247 L 175.983 285.247 Q 173.768 285.247 171.949 284.436 L 171.949 284.436 L 171.949 284.436 Q 170.129 283.625 169.174 282.215 L 169.174 282.215 L 169.174 282.215 Q 168.218 280.804 168.218 278.945 L 168.218 278.945 L 172.186 278.945 L 172.186 278.945 Q 172.186 282.122 175.983 282.122 L 175.983 282.122 L 175.983 282.122 Q 177.393 282.122 178.184 281.549 L 178.184 281.549 L 178.184 281.549 Q 178.976 280.975 178.976 279.947 Z  M 200.069 265.788 L 200.069 268.992 L 194.189 268.992 L 194.189 284.983 L 190.234 284.983 L 190.234 268.992 L 184.434 268.992 L 184.434 265.788 L 200.069 265.788 L 200.069 265.788 Z  M 214.492 284.983 L 213.161 281.028 L 206.226 281.028 L 204.908 284.983 L 200.702 284.983 L 207.848 265.788 L 211.513 265.788 L 218.698 284.983 L 214.492 284.983 L 214.492 284.983 Z  M 209.68 270.639 L 207.294 277.825 L 212.093 277.825 L 209.68 270.639 L 209.68 270.639 Z  M 231.196 284.983 L 227.597 277.956 L 224.446 277.956 L 224.446 284.983 L 220.491 284.983 L 220.491 265.788 L 227.623 265.788 L 227.623 265.788 Q 231.024 265.788 232.87 267.304 L 232.87 267.304 L 232.87 267.304 Q 234.716 268.82 234.716 271.589 L 234.716 271.589 L 234.716 271.589 Q 234.716 273.553 233.865 274.865 L 233.865 274.865 L 233.865 274.865 Q 233.015 276.177 231.288 276.954 L 231.288 276.954 L 235.441 284.799 L 235.441 284.983 L 231.196 284.983 L 231.196 284.983 Z  M 224.446 268.992 L 224.446 274.753 L 227.636 274.753 L 227.636 274.753 Q 229.126 274.753 229.943 273.995 L 229.943 273.995 L 229.943 273.995 Q 230.761 273.237 230.761 271.905 L 230.761 271.905 L 230.761 271.905 Q 230.761 270.547 229.989 269.769 L 229.989 269.769 L 229.989 269.769 Q 229.218 268.992 227.623 268.992 L 227.623 268.992 L 224.446 268.992 L 224.446 268.992 Z  M 252.171 265.788 L 252.171 268.992 L 246.291 268.992 L 246.291 284.983 L 242.336 284.983 L 242.336 268.992 L 236.535 268.992 L 236.535 265.788 L 252.171 265.788 L 252.171 265.788 Z " fill-rule="evenodd" fill="rgb(255,255,255)"/></g></svg>