<?xml version="1.0" standalone="no"?><!-- Generator: Gravit.io --><svg xmlns="http://www.w3.org/2000/svg" xmlns:xlink="http://www.w3.org/1999/xlink" style="isolation:isolate" viewBox="0 0 1920 800" width="1920" height="800"><defs><clipPath id="_clipPath_3v8LAJArEfayaApZDz79NCnFW5ZJySpm"><rect width="1920" height="800"/></clipPath></defs><g clip-path="url(#_clipPath_3v8LAJArEfayaApZDz79NCnFW5ZJySpm)"><g><defs><filter id="5OMYekLLHM8eL558NT5xCDaKx6L9ucjv" x="-200%" y="-200%" width="400%" height="400%" filterUnits="objectBoundingBox" color-interpolation-filters="sRGB"><feOffset xmlns="http://www.w3.org/2000/svg" in="SourceGraphic" dx="0" dy="0"/><feGaussianBlur xmlns="http://www.w3.org/2000/svg" stdDeviation="8.587218125678056" result="pf_100_offsetBlur"/><feComposite xmlns="http://www.w3.org/2000/svg" in="SourceGraphic" in2="pf_100_offsetBlur" result="pf_100_inverse" operator="out"/><feFlood xmlns="http://www.w3.org/2000/svg" flood-color="#000000" flood-opacity="0.5" result="pf_100_color"/><feComposite xmlns="http://www.w3.org/2000/svg" in="pf_100_color" in2="pf_100_inverse" operator="in" result="pf_100_shadow"/><feComposite xmlns="http://www.w3.org/2000/svg" in="pf_100_shadow" in2="SourceGraphic" operator="over"/></filter></defs><g filter="url(#5OMYekLLHM8eL558NT5xCDaKx6L9ucjv)"><path d=" M 2120.423 266.469 C 1984.251 175.379 1915.391 -11.92 1670.086 68.518 C 1424.781 148.957 1463.52 355.62 1193.975 403.239 C 1027.148 432.712 952.174 575.558 917.523 658.56 C 879.04 766.086 926.685 808.262 897.433 931.07 C 835.214 1192.276 839.682 959.953 968.935 1135 L 1912.094 1094.559 Q 2256.595 357.559 2120.423 266.469 Z " fill="rgb(154,104,242)"/></g><defs><filter id="vDPChre0QkAnvKQ71nrALWnCHiVoZs41" x="-200%" y="-200%" width="400%" height="400%" filterUnits="objectBoundingBox" color-interpolation-filters="sRGB"><feOffset xmlns="http://www.w3.org/2000/svg" in="SourceGraphic" dx="0" dy="0"/><feGaussianBlur xmlns="http://www.w3.org/2000/svg" stdDeviation="8.587218125678056" result="pf_100_offsetBlur"/><feComposite xmlns="http://www.w3.org/2000/svg" in="SourceGraphic" in2="pf_100_offsetBlur" result="pf_100_inverse" operator="out"/><feFlood xmlns="http://www.w3.org/2000/svg" flood-color="#000000" flood-opacity="0.5" result="pf_100_color"/><feComposite xmlns="http://www.w3.org/2000/svg" in="pf_100_color" in2="pf_100_inverse" operator="in" result="pf_100_shadow"/><feComposite xmlns="http://www.w3.org/2000/svg" in="pf_100_shadow" in2="SourceGraphic" operator="over"/></filter></defs><g filter="url(#vDPChre0QkAnvKQ71nrALWnCHiVoZs41)"><path d=" M 1951.16 350.919 C 1853.845 285.822 1804.635 151.969 1629.328 209.455 C 1454.022 266.94 1481.707 414.63 1289.078 448.661 C 1169.856 469.724 1116.276 571.808 1091.513 631.125 C 1064.011 707.968 1098.06 738.109 1077.155 825.873 C 1032.691 1012.543 1035.884 846.515 1128.254 971.611 L 1802.278 942.71 Q 2048.475 416.017 1951.16 350.919 Z " fill="rgb(102,52,187)"/></g><defs><filter id="rr7vOYGDG6t0OP2S0yFBGbdeW9fREZg0" x="-200%" y="-200%" width="400%" height="400%" filterUnits="objectBoundingBox" color-interpolation-filters="sRGB"><feOffset xmlns="http://www.w3.org/2000/svg" in="SourceGraphic" dx="0" dy="0"/><feGaussianBlur xmlns="http://www.w3.org/2000/svg" stdDeviation="8.587218125678056" result="pf_100_offsetBlur"/><feComposite xmlns="http://www.w3.org/2000/svg" in="SourceGraphic" in2="pf_100_offsetBlur" result="pf_100_inverse" operator="out"/><feFlood xmlns="http://www.w3.org/2000/svg" flood-color="#000000" flood-opacity="0.5" result="pf_100_color"/><feComposite xmlns="http://www.w3.org/2000/svg" in="pf_100_color" in2="pf_100_inverse" operator="in" result="pf_100_shadow"/><feComposite xmlns="http://www.w3.org/2000/svg" in="pf_100_shadow" in2="SourceGraphic" operator="over"/></filter></defs><g filter="url(#rr7vOYGDG6t0OP2S0yFBGbdeW9fREZg0)"><path d=" M 2062.304 492.466 C 1964.99 427.368 1915.78 293.516 1740.473 351.001 C 1565.167 408.486 1592.852 556.177 1400.223 590.208 C 1281.001 611.27 1227.42 713.355 1202.658 772.672 C 1175.156 849.515 1209.205 879.655 1188.3 967.419 C 1143.836 1154.089 1147.029 988.061 1239.399 1113.157 L 1913.423 1084.256 Q 2159.619 557.563 2062.304 492.466 Z " fill="rgb(33,13,68)"/></g></g><g><g><g><rect x="1566.518" y="480.443" width="36.954" height="7.182" transform="matrix(-0.817,-0.576,0.576,-0.817,2601.569,1792.878)" fill="rgb(156,152,168)"/><rect x="1594.958" y="487.601" width="2.407" height="8.61" transform="matrix(-0.817,-0.576,0.576,-0.817,2617.328,1813.618)" fill="rgb(131,129,134)"/><rect x="1596.174" y="488.949" width="4.814" height="9.324" transform="matrix(-0.817,-0.576,0.576,-0.817,2620.742,1818.112)" fill="rgb(189,189,200)"/></g><g><rect x="1557.904" y="492.662" width="36.954" height="7.182" transform="matrix(-0.817,-0.576,0.576,-0.817,2578.875,1810.121)" fill="rgb(156,152,168)"/><rect x="1586.345" y="499.82" width="2.407" height="8.61" transform="matrix(-0.817,-0.576,0.576,-0.817,2594.633,1830.861)" fill="rgb(131,129,134)"/><rect x="1587.561" y="501.168" width="4.814" height="9.324" transform="matrix(-0.817,-0.576,0.576,-0.817,2598.047,1835.355)" fill="rgb(189,189,200)"/></g><rect x="1573.173" y="526.035" width="251.307" height="95.269" transform="matrix(-0.817,-0.576,0.576,-0.817,2756.794,2021.361)" fill="rgb(223,223,234)"/><g><rect x="1582.875" y="525.102" width="73.536" height="39.267" transform="matrix(-0.817,-0.576,0.576,-0.817,2629.562,1923.157)" fill="rgb(49,48,51)"/><rect x="1649.543" y="572.099" width="73.536" height="39.267" transform="matrix(-0.817,-0.576,0.576,-0.817,2723.641,2046.978)" fill="rgb(49,48,51)"/><rect x="1716.211" y="619.096" width="73.536" height="39.267" transform="matrix(-0.817,-0.576,0.576,-0.817,2817.72,2170.799)" fill="rgb(49,48,51)"/><rect x="1608.277" y="488.759" width="73.536" height="39.267" transform="matrix(-0.817,-0.576,0.576,-0.817,2696.664,1871.746)" fill="rgb(49,48,51)"/><rect x="1675.09" y="535.859" width="73.536" height="39.267" transform="matrix(-0.817,-0.576,0.576,-0.817,2790.949,1995.838)" fill="rgb(49,48,51)"/><rect x="1741.612" y="582.754" width="73.536" height="39.267" transform="matrix(-0.817,-0.576,0.576,-0.817,2884.822,2119.388)" fill="rgb(49,48,51)"/></g></g><g><g><rect x="1440.345" y="391.497" width="36.954" height="7.182" transform="matrix(-0.817,-0.576,0.576,-0.817,2423.519,1558.538)" fill="rgb(156,152,168)"/><rect x="1446.451" y="382.911" width="2.407" height="8.61" transform="matrix(-0.817,-0.576,0.576,-0.817,2407.761,1537.798)" fill="rgb(131,129,134)"/><rect x="1442.829" y="380.849" width="4.814" height="9.324" transform="matrix(-0.817,-0.576,0.576,-0.817,2404.347,1533.304)" fill="rgb(189,189,200)"/></g><g><rect x="1431.731" y="403.717" width="36.954" height="7.182" transform="matrix(-0.817,-0.576,0.576,-0.817,2400.825,1575.781)" fill="rgb(156,152,168)"/><rect x="1437.838" y="395.131" width="2.407" height="8.61" transform="matrix(-0.817,-0.576,0.576,-0.817,2385.066,1555.041)" fill="rgb(131,129,134)"/><rect x="1434.215" y="393.068" width="4.814" height="9.324" transform="matrix(-0.817,-0.576,0.576,-0.817,2381.652,1550.547)" fill="rgb(189,189,200)"/></g><rect x="1210.492" y="270.365" width="251.307" height="95.269" transform="matrix(-0.817,-0.576,0.576,-0.817,2244.994,1347.758)" fill="rgb(223,223,234)"/><g><rect x="1353.238" y="363.221" width="73.536" height="39.267" transform="matrix(-0.817,-0.576,0.576,-0.817,2305.508,1496.654)" fill="rgb(49,48,51)"/><rect x="1286.571" y="316.223" width="73.536" height="39.267" transform="matrix(-0.817,-0.576,0.576,-0.817,2211.429,1372.833)" fill="rgb(49,48,51)"/><rect x="1219.903" y="269.226" width="73.536" height="39.267" transform="matrix(-0.817,-0.576,0.576,-0.817,2117.351,1249.012)" fill="rgb(49,48,51)"/><rect x="1378.931" y="327.083" width="73.536" height="39.267" transform="matrix(-0.817,-0.576,0.576,-0.817,2373.022,1445.785)" fill="rgb(49,48,51)"/><rect x="1312.118" y="279.983" width="73.536" height="39.267" transform="matrix(-0.817,-0.576,0.576,-0.817,2278.737,1321.693)" fill="rgb(49,48,51)"/><rect x="1245.596" y="233.089" width="73.536" height="39.267" transform="matrix(-0.817,-0.576,0.576,-0.817,2184.865,1198.142)" fill="rgb(49,48,51)"/></g></g><g><path d=" M 1609.876 353.488 C 1603.178 362.988 1590.027 365.264 1580.527 358.567 C 1571.026 351.869 1568.75 338.719 1575.448 329.218 C 1582.145 319.717 1595.296 317.441 1604.797 324.139 C 1614.297 330.836 1616.573 343.987 1609.876 353.488 Z " fill="rgb(189,189,200)"/><rect x="1440.558" y="523.228" width="29.426" height="31.985" transform="matrix(-0.817,-0.576,0.576,-0.817,2334.021,1818.428)" fill="rgb(189,189,200)"/><path d="M 1607.904 372.477 L 1558.226 337.456 C 1556.956 336.561 1556.652 334.804 1557.547 333.534 L 1563.901 324.521 C 1564.796 323.252 1566.553 322.948 1567.822 323.843 L 1617.501 358.863 C 1618.77 359.758 1619.074 361.515 1618.18 362.785 L 1611.826 371.798 C 1610.931 373.068 1609.174 373.372 1607.904 372.477 Z" style="stroke:none;fill:#DFDFEA;stroke-miterlimit:10;"/><path d="M 1609.682 391.321 L 1539.88 342.114 C 1538.27 340.979 1537.884 338.75 1539.019 337.14 L 1545.986 327.257 C 1547.121 325.647 1549.35 325.261 1550.96 326.396 L 1620.762 375.603 C 1622.373 376.738 1622.758 378.967 1621.623 380.577 L 1614.656 390.46 C 1613.521 392.07 1611.292 392.456 1609.682 391.321 Z" style="stroke:none;fill:#9C98A8;stroke-miterlimit:10;"/><path d="M 1489.117 551.812 L 1434.207 513.104 C 1433.01 512.26 1432.723 510.603 1433.567 509.406 L 1438.325 502.657 C 1439.169 501.46 1440.826 501.173 1442.022 502.017 L 1496.933 540.725 C 1498.13 541.569 1498.416 543.226 1497.573 544.423 L 1492.815 551.173 C 1491.971 552.369 1490.314 552.656 1489.117 551.812 Z" style="stroke:none;fill:#DFDFEA;stroke-miterlimit:10;"/><path d="M 1498.208 553.417 L 1427.471 503.551 C 1426.119 502.598 1425.795 500.726 1426.748 499.373 L 1431.109 493.187 C 1432.063 491.835 1433.935 491.511 1435.287 492.464 L 1506.024 542.33 C 1507.376 543.283 1507.7 545.155 1506.747 546.507 L 1502.386 552.694 C 1501.432 554.046 1499.56 554.37 1498.208 553.417 Z" style="stroke:none;fill:#9C98A8;stroke-miterlimit:10;"/><path d="M 1516.254 557.923 L 1417.162 488.069 C 1415.552 486.934 1415.166 484.705 1416.301 483.094 L 1527.2 325.779 C 1528.335 324.169 1530.564 323.783 1532.175 324.918 L 1631.267 394.772 C 1632.877 395.908 1633.263 398.137 1632.127 399.747 L 1521.229 557.062 C 1520.093 558.673 1517.865 559.058 1516.254 557.923 Z" style="stroke:none;fill:#DFDFEA;stroke-miterlimit:10;"/><path d=" M 1441.905 493.636 L 1427.059 483.17 L 1444.994 457.728 L 1459.84 468.194 L 1441.905 493.636 Z " fill="rgb(154,104,242)"/><path d=" M 1524.642 500.849 L 1482.945 471.455 L 1533.316 400.003 L 1575.012 429.396 L 1524.642 500.849 Z " fill="rgb(154,104,242)"/><path d=" M 1524.642 500.849 L 1482.945 471.455 L 1497.132 451.331 L 1527.31 497.064 L 1524.642 500.849 Z " fill="rgb(49,48,51)"/><path d=" M 1546.232 470.222 L 1516.877 423.322 L 1533.316 400.003 L 1575.012 429.396 L 1546.232 470.222 Z " fill="rgb(102,52,187)"/><path d=" M 1463.049 463.643 L 1448.202 453.176 L 1466.137 427.735 L 1480.984 438.201 L 1463.049 463.643 Z " fill="rgb(102,52,187)"/></g><g><path d=" M 1376.091 540.134 C 1393.201 515.863 1430.601 512.729 1459.556 533.141 C 1488.512 553.553 1498.129 589.831 1481.019 614.102 L 1428.555 577.118 L 1376.091 540.134 Z " fill="rgb(223,223,234)"/><path d=" M 1481.019 614.102 C 1478.851 617.178 1453.582 603.102 1424.627 582.69 C 1395.672 562.278 1373.923 543.21 1376.091 540.134 C 1378.259 537.059 1403.528 551.134 1432.483 571.546 C 1461.438 591.958 1483.187 611.027 1481.019 614.102 Z " fill="rgb(156,152,168)"/><g><polygon points="1436.854,574.628,1418.942,592.99,1430.217,569.949" fill="rgb(189,189,200)"/><path d=" M 1423.479 593.602 C 1422.188 595.433 1419.652 595.872 1417.821 594.581 C 1415.989 593.29 1415.55 590.754 1416.841 588.922 C 1418.133 587.091 1420.668 586.652 1422.5 587.943 C 1424.331 589.235 1424.77 591.77 1423.479 593.602 Z " fill="rgb(189,189,200)"/></g></g></g><g><radialGradient id="_rgradient_0" fx="0.5" fy="0.5" cx="0.5" cy="0.5" r="0.5" gradientTransform="matrix(40.126,12.1,-12.1,40.126,1775.947,369.927)" gradientUnits="userSpaceOnUse"><stop offset="0%" stop-opacity="1" style="stop-color:rgb(235,235,235)"/><stop offset="98.26086956521739%" stop-opacity="0" style="stop-color:rgb(0,0,0)"/></radialGradient><path d=" M 1769.897 389.99 C 1773.236 378.917 1784.937 372.638 1796.01 375.978 C 1807.083 379.317 1813.362 391.018 1810.022 402.091 C 1806.683 413.164 1794.982 419.443 1783.909 416.103 C 1772.836 412.764 1766.557 401.063 1769.897 389.99 Z " fill="url(#_rgradient_0)"/><path d=" M 1797.545 380.481 L 1794.629 394.432 L 1805.519 403.626 L 1791.568 400.709 L 1782.374 411.6 L 1785.291 397.649 L 1774.4 388.455 L 1788.351 391.371 L 1797.545 380.481 Z " fill="rgb(235,235,235)"/></g><g><radialGradient id="_rgradient_1" fx="0.5" fy="0.5" cx="0.5" cy="0.5" r="0.5" gradientTransform="matrix(27.082,-19.484,19.484,27.082,1330.397,664.521)" gradientUnits="userSpaceOnUse"><stop offset="0%" stop-opacity="1" style="stop-color:rgb(235,235,235)"/><stop offset="98.26086956521739%" stop-opacity="0" style="stop-color:rgb(0,0,0)"/></radialGradient><path d=" M 1340.139 678.062 C 1334.762 670.589 1336.464 660.156 1343.938 654.779 C 1351.411 649.403 1361.844 651.105 1367.221 658.579 C 1372.597 666.052 1370.895 676.485 1363.421 681.861 C 1355.948 687.238 1345.515 685.536 1340.139 678.062 Z " fill="url(#_rgradient_1)"/><path d=" M 1347.526 655.991 L 1354.925 664.592 L 1366.009 662.167 L 1357.408 669.566 L 1359.833 680.65 L 1352.434 672.049 L 1341.35 674.474 L 1349.951 667.075 L 1347.526 655.991 Z " fill="rgb(235,235,235)"/></g><g><radialGradient id="_rgradient_2" fx="0.5" fy="0.5" cx="0.5" cy="0.5" r="0.5" gradientTransform="matrix(29.406,6.969,-6.969,29.406,1106.672,651.704)" gradientUnits="userSpaceOnUse"><stop offset="0%" stop-opacity="1" style="stop-color:rgb(235,235,235)"/><stop offset="98.26086956521739%" stop-opacity="0" style="stop-color:rgb(0,0,0)"/></radialGradient><path d=" M 1103.188 666.407 C 1105.111 658.292 1113.261 653.265 1121.375 655.188 C 1129.49 657.111 1134.517 665.261 1132.594 673.375 C 1130.671 681.49 1122.522 686.517 1114.407 684.594 C 1106.292 682.671 1101.265 674.522 1103.188 666.407 Z " fill="url(#_rgradient_2)"/><path d=" M 1122.676 658.363 L 1121.182 668.531 L 1129.419 674.676 L 1119.251 673.182 L 1113.106 681.419 L 1114.6 671.251 L 1106.363 665.106 L 1116.531 666.6 L 1122.676 658.363 Z " fill="rgb(235,235,235)"/></g><g><radialGradient id="_rgradient_3" fx="0.5" fy="0.5" cx="0.5" cy="0.5" r="0.5" gradientTransform="matrix(25.561,-16.122,16.122,25.561,1286.045,469.394)" gradientUnits="userSpaceOnUse"><stop offset="0%" stop-opacity="1" style="stop-color:rgb(235,235,235)"/><stop offset="98.26086956521739%" stop-opacity="0" style="stop-color:rgb(0,0,0)"/></radialGradient><path d=" M 1294.106 482.174 C 1289.657 475.12 1291.772 465.782 1298.826 461.333 C 1305.88 456.884 1315.218 458.998 1319.667 466.052 C 1324.116 473.106 1322.002 482.445 1314.948 486.894 C 1307.894 491.343 1298.555 489.228 1294.106 482.174 Z " fill="url(#_rgradient_3)"/><path d=" M 1302.003 462.626 L 1308.219 470.811 L 1318.374 469.23 L 1310.189 475.445 L 1311.77 485.6 L 1305.555 477.416 L 1295.4 478.997 L 1303.584 472.781 L 1302.003 462.626 Z " fill="rgb(235,235,235)"/></g><g><radialGradient id="_rgradient_4" fx="0.5" fy="0.5" cx="0.5" cy="0.5" r="0.5" gradientTransform="matrix(52.039,-37.439,37.439,52.039,1603.582,719.38)" gradientUnits="userSpaceOnUse"><stop offset="0%" stop-opacity="1" style="stop-color:rgb(235,235,235)"/><stop offset="98.26086956521739%" stop-opacity="0" style="stop-color:rgb(0,0,0)"/></radialGradient><path d=" M 1622.301 745.399 C 1611.97 731.038 1615.241 710.992 1629.601 700.66 C 1643.962 690.329 1664.008 693.6 1674.34 707.96 C 1684.671 722.321 1681.4 742.367 1667.04 752.699 C 1652.679 763.03 1632.633 759.759 1622.301 745.399 Z " fill="url(#_rgradient_4)"/><path d=" M 1636.496 702.989 L 1650.714 719.515 L 1672.011 714.855 L 1655.485 729.073 L 1660.145 750.37 L 1645.927 733.844 L 1624.63 738.504 L 1641.156 724.286 L 1636.496 702.989 Z " fill="rgb(235,235,235)"/></g><g><radialGradient id="_rgradient_5" fx="0.5" fy="0.5" cx="0.5" cy="0.5" r="0.5" gradientTransform="matrix(-21.485,15.457,14.393,20.006,1629.964,229.579)" gradientUnits="userSpaceOnUse"><stop offset="0%" stop-opacity="1" style="stop-color:rgb(235,235,235)"/><stop offset="98.26086956521739%" stop-opacity="0" style="stop-color:rgb(0,0,0)"/></radialGradient><path d=" M 1637.16 239.582 C 1633.188 234.061 1625.15 233.042 1619.221 237.308 C 1613.292 241.573 1611.704 249.518 1615.675 255.039 C 1619.647 260.56 1627.685 261.579 1633.614 257.314 C 1639.543 253.048 1641.132 245.103 1637.16 239.582 Z " fill="url(#_rgradient_5)"/><path d=" M 1619.13 240.176 L 1623.373 247.409 L 1618.61 254.935 L 1626.313 250.288 L 1633.706 254.445 L 1629.463 247.212 L 1634.226 239.687 L 1626.523 244.333 L 1619.13 240.176 Z " fill="rgb(235,235,235)"/></g><circle vector-effect="non-scaling-stroke" cx="1828.9724129430178" cy="459.0032345030312" r="26.000000000000227" fill="rgb(102,52,187)"/><circle vector-effect="non-scaling-stroke" cx="1879.0275870569812" cy="461.0855870240512" r="13.027587056981474" fill="rgb(102,52,187)"/><circle vector-effect="non-scaling-stroke" cx="1862.9448258860366" cy="489.2231136590341" r="7.972412943018526" fill="rgb(102,52,187)"/></g></svg>