<?xml version="1.0" standalone="no"?><!-- Generator: Gravit.io --><svg xmlns="http://www.w3.org/2000/svg" xmlns:xlink="http://www.w3.org/1999/xlink" style="isolation:isolate" viewBox="0 0 768 768" width="768" height="768"><defs><clipPath id="_clipPath_uAr4x4KEVqHPbnNGS8u1Pku1YFUGuctw"><rect width="768" height="768"/></clipPath></defs><g clip-path="url(#_clipPath_uAr4x4KEVqHPbnNGS8u1Pku1YFUGuctw)"><g><g><path d=" M 384 471.679 L 292.735 471.679 L 249.504 581.09 L 249.504 581.09 L 169.323 581.09 L 168.954 581.09 L 384 92.112 L 384 92.487 L 384 92.487 L 384 9.305 L 384 9.305 L 40 133.703 L 92.468 594.954 L 384 758.695 L 384 758.695 L 384 471.679 L 384 471.679 Z " fill="rgb(255,255,255)"/><path d=" M 321.186 404.234 L 384 404.234 L 384 404.234 L 384 250.983 L 321.186 404.234 Z " fill="rgb(255,255,255)"/></g><g style="opacity:0.9;"><g opacity="0.9"><path d=" M 384 471.679 L 475.265 471.679 L 518.496 581.09 L 518.496 581.09 L 598.677 581.09 L 599.046 581.09 L 384 92.112 L 384 92.487 L 384 92.487 L 384 9.305 L 384 9.305 L 728 133.703 L 675.532 594.954 L 384 758.695 L 384 758.695 L 384 471.679 L 384 471.679 Z " fill="rgb(255,255,255)"/></g><g opacity="0.9"><path d=" M 446.814 404.234 L 384 404.234 L 384 404.234 L 384 250.983 L 446.814 404.234 Z " fill="rgb(255,255,255)"/></g></g></g></g></svg>