<svg xmlns="http://www.w3.org/2000/svg" width="800" height="800" style="isolation:isolate"><defs><clipPath id="a"><path d="M0 0h800v800H0z"/></clipPath></defs><g clip-path="url(#a)"><defs><filter id="b" width="400%" height="400%" x="-200%" y="-200%" color-interpolation-filters="sRGB" filterUnits="objectBoundingBox"><feOffset xmlns="http://www.w3.org/2000/svg" in="SourceGraphic"/><feGaussianBlur xmlns="http://www.w3.org/2000/svg" result="pf_100_offsetBlur" stdDeviation="8.59"/><feComposite xmlns="http://www.w3.org/2000/svg" in="SourceGraphic" in2="pf_100_offsetBlur" operator="out" result="pf_100_inverse"/><feFlood xmlns="http://www.w3.org/2000/svg" flood-color="#000" flood-opacity=".5" result="pf_100_color"/><feComposite xmlns="http://www.w3.org/2000/svg" in="pf_100_color" in2="pf_100_inverse" operator="in" result="pf_100_shadow"/><feComposite xmlns="http://www.w3.org/2000/svg" in="pf_100_shadow" in2="SourceGraphic"/></filter></defs><circle cx="400" cy="400" r="400" fill="#9A68F2" filter="url(#b)" vector-effect="non-scaling-stroke"/><defs><filter id="c" width="400%" height="400%" x="-200%" y="-200%" color-interpolation-filters="sRGB" filterUnits="objectBoundingBox"><feOffset xmlns="http://www.w3.org/2000/svg" in="SourceGraphic"/><feGaussianBlur xmlns="http://www.w3.org/2000/svg" result="pf_100_offsetBlur" stdDeviation="8.59"/><feComposite xmlns="http://www.w3.org/2000/svg" in="SourceGraphic" in2="pf_100_offsetBlur" operator="out" result="pf_100_inverse"/><feFlood xmlns="http://www.w3.org/2000/svg" flood-color="#000" flood-opacity=".5" result="pf_100_color"/><feComposite xmlns="http://www.w3.org/2000/svg" in="pf_100_color" in2="pf_100_inverse" operator="in" result="pf_100_shadow"/><feComposite xmlns="http://www.w3.org/2000/svg" in="pf_100_shadow" in2="SourceGraphic"/></filter></defs><path fill="#210D44" fill-rule="evenodd" d="M130.95 415.06a89.48 89.48 0 0 0 9.18 36.93c.95 166.2 136.17 300.85 302.6 300.85 167.01 0 302.6-135.6 302.6-302.6 0-167.02-135.59-302.62-302.6-302.62a301.03 301.03 0 0 0-164.63 48.72 90.08 90.08 0 0 0-92.56 48.98 89.85 89.85 0 0 0-15.19-1.29c-49.7 0-90.06 40.36-90.06 90.06a90.06 90.06 0 0 0 50.66 80.98z" filter="url(#c)"/><circle cx="462" cy="195.54" r="13" fill="#E5DCF3" opacity=".17" vector-effect="non-scaling-stroke"/><circle cx="507" cy="190" r="23" fill="#E5DCF3" opacity=".17" vector-effect="non-scaling-stroke"/><circle cx="484" cy="222" r="9" fill="#E5DCF3" opacity=".17" vector-effect="non-scaling-stroke"/><linearGradient id="d" x1="-.01" x2="1.03" y1=".98" y2="-.03" gradientTransform="matrix(-73.103 -414.989 370.101 -65.196 440.22 684.25)" gradientUnits="userSpaceOnUse"><stop offset="0%" stop-color="#6634bb"/><stop offset="14.82%" stop-color="#6e3cc3" stop-opacity=".88"/><stop offset="98.7%" stop-color="#9a68f2" stop-opacity=".2"/></linearGradient><path fill="url(#d)" d="M685.76 609.4q-124.8-95.72-318.64-340.14c191.81 93.73 327.42 174.97 406.65 243.67q22.19 24.57 25.22 41.76a65.38 65.38 0 0 1-53.02 75.7c-23.16 4.08-42.55-7.74-60.21-20.98z"/><linearGradient id="e" x1=".04" x2="1.06" y1=".94" y2="-.06" gradientTransform="matrix(-49.257 -279.618 249.373 -43.929 533.96 644.85)" gradientUnits="userSpaceOnUse"><stop offset="0%" stop-color="#fff"/><stop offset="14.35%" stop-color="#ffc800"/><stop offset="82.17%" stop-color="#ff1b9c" stop-opacity=".8"/></linearGradient><path fill="url(#e)" d="M699.4 594.43q-84.1-64.5-214.7-229.2c129.24 63.16 220.62 117.9 274 164.2q14.95 16.54 17 28.13a44.05 44.05 0 0 1-35.73 51c-15.6 2.75-28.67-5.2-40.57-14.13z"/><linearGradient id="f" x1="-.01" x2="1.03" y1=".98" y2="-.03" gradientTransform="matrix(-16.326 -153.941 137.289 -14.56 307.83 762.78)" gradientUnits="userSpaceOnUse"><stop offset="0%" stop-color="#6634bb"/><stop offset="14.82%" stop-color="#6e3cc3" stop-opacity=".88"/><stop offset="98.7%" stop-color="#9a68f2" stop-opacity=".2"/></linearGradient><path fill="url(#f)" d="M399.71 741.54q-43.32-38.23-108.2-132.7c67.94 39.19 115.59 72.38 142.9 99.56q7.5 9.57 8.18 15.95c1.4 13.17-8.16 25-21.34 26.4-8.59.91-15.4-3.9-21.54-9.2z"/><linearGradient id="g" x1=".04" x2="1.06" y1=".94" y2="-.06" gradientTransform="matrix(-11 -103.725 92.505 -9.81 343.18 750.7)" gradientUnits="userSpaceOnUse"><stop offset="0%" stop-color="#fff"/><stop offset="14.35%" stop-color="#ffc800"/><stop offset="82.17%" stop-color="#ff1b9c" stop-opacity=".8"/></linearGradient><path fill="url(#g)" d="M405.1 736.4q-29.2-25.76-72.92-89.42c45.78 26.4 77.89 48.77 96.28 67.09q5.07 6.44 5.52 10.74a16.18 16.18 0 0 1-14.38 17.8c-5.79.6-10.37-2.64-14.5-6.21z"/><g><linearGradient id="h" x1="-.01" x2="1.03" y1=".98" y2="-.03" gradientTransform="matrix(-16.326 -153.941 137.289 -14.56 579.78 750.5)" gradientUnits="userSpaceOnUse"><stop offset="0%" stop-color="#6634bb"/><stop offset="14.82%" stop-color="#6e3cc3" stop-opacity=".88"/><stop offset="98.7%" stop-color="#9a68f2" stop-opacity=".2"/></linearGradient><path fill="url(#h)" d="M671.66 729.27q-43.33-38.23-108.2-132.7c67.93 39.19 115.58 72.38 142.89 99.56q7.5 9.57 8.18 15.94c1.4 13.18-8.16 25.01-21.34 26.4-8.59.92-15.4-3.9-21.53-9.2z"/><linearGradient id="i" x1=".04" x2="1.06" y1=".94" y2="-.06" gradientTransform="matrix(-11 -103.725 92.505 -9.81 615.13 738.43)" gradientUnits="userSpaceOnUse"><stop offset="0%" stop-color="#fff"/><stop offset="14.35%" stop-color="#ffc800"/><stop offset="82.17%" stop-color="#ff1b9c" stop-opacity=".8"/></linearGradient><path fill="url(#i)" d="M677.03 724.13q-29.19-25.77-72.9-89.42c45.77 26.4 77.88 48.77 96.28 67.09q5.06 6.44 5.51 10.74a16.18 16.18 0 0 1-14.38 17.79c-5.78.61-10.37-2.63-14.5-6.2z"/></g><g><linearGradient id="j" x1="-.01" x2="1.03" y1=".98" y2="-.03" gradientTransform="matrix(-37.338 -352.068 313.986 -33.299 264.42 727.73)" gradientUnits="userSpaceOnUse"><stop offset="0%" stop-color="#6634bb"/><stop offset="14.82%" stop-color="#6e3cc3" stop-opacity=".88"/><stop offset="98.7%" stop-color="#9a68f2" stop-opacity=".2"/></linearGradient><path fill="url(#j)" d="M474.55 679.16q-99.1-87.44-247.47-303.5c155.37 89.63 264.36 165.55 326.8 227.71q17.18 21.87 18.73 36.46a54.93 54.93 0 0 1-48.8 60.39c-19.65 2.08-35.22-8.94-49.26-21.06z"/><linearGradient id="k" x1=".04" x2="1.06" y1=".94" y2="-.06" gradientTransform="matrix(-25.158 -237.222 211.563 -22.437 345.26 700.12)" gradientUnits="userSpaceOnUse"><stop offset="0%" stop-color="#fff"/><stop offset="14.35%" stop-color="#ffc800"/><stop offset="82.17%" stop-color="#ff1b9c" stop-opacity=".8"/></linearGradient><path fill="url(#k)" d="M486.84 667.4q-66.76-58.93-166.74-204.5c104.7 60.39 178.13 111.54 220.2 153.42q11.58 14.74 12.62 24.57a37.01 37.01 0 0 1-32.89 40.69c-13.23 1.4-23.73-6.02-33.19-14.19z"/></g><g><g opacity=".39"><radialGradient id="l" cx=".5" cy=".5" r=".5" fx=".5" fy=".5" gradientTransform="scale(-26.704 26.704) rotate(-32.64 -.8 48.3)" gradientUnits="userSpaceOnUse"><stop offset="0%" stop-color="#ebebeb"/><stop offset="98.26%" stop-color="#fff" stop-opacity="0"/></radialGradient><path fill="url(#l)" d="M691.9 203.55a13.36 13.36 0 1 0-22.5-14.4 13.36 13.36 0 0 0 22.5 14.4z"/></g><path fill="#EBEBEB" d="M685.03 186.23l-5.54 7.2-8.96-1.47 7.2 5.55-1.47 8.96 5.54-7.2 8.97 1.47-7.2-5.55 1.46-8.96z"/></g><g><g opacity=".39"><radialGradient id="m" cx=".5" cy=".5" r=".5" fx=".5" fy=".5" gradientTransform="scale(-34.773 34.773) rotate(-32.65 6.32 44.25)" gradientUnits="userSpaceOnUse"><stop offset="0%" stop-color="#ebebeb"/><stop offset="98.26%" stop-color="#fff" stop-opacity="0"/></radialGradient><path fill="url(#m)" d="M786 376.3a17.4 17.4 0 1 0-29.31-18.75 17.4 17.4 0 0 0 29.3 18.75z"/></g><path fill="#EBEBEB" d="M777.06 353.75l-7.21 9.36-11.68-1.9 9.37 7.22-1.9 11.67 7.22-9.37 11.67 1.9-9.37-7.21 1.9-11.67z"/></g><g><g opacity=".39"><radialGradient id="n" cx=".5" cy=".5" r=".5" fx=".5" fy=".5" gradientTransform="scale(-34.469 34.469) rotate(-3.82 92.63 155.95)" gradientUnits="userSpaceOnUse"><stop offset="0%" stop-color="#ebebeb"/><stop offset="98.26%" stop-color="#fff" stop-opacity="0"/></radialGradient><path fill="url(#n)" d="M349.96 241.91a17.24 17.24 0 1 0-34.4-2.28 17.24 17.24 0 0 0 34.4 2.28z"/></g><path fill="#EBEBEB" d="M331.43 226.6l-1.8 11.58-11.04 3.92 11.59 1.8 3.92 11.04 1.8-11.59 11.04-3.92-11.58-1.8-3.93-11.04z"/></g><g><g opacity=".39"><radialGradient id="o" cx=".5" cy=".5" r=".5" fx=".5" fy=".5" gradientTransform="scale(-26.704 26.704) rotate(-32.64 -2.96 28.18)" gradientUnits="userSpaceOnUse"><stop offset="0%" stop-color="#ebebeb"/><stop offset="98.26%" stop-color="#fff" stop-opacity="0"/></radialGradient><path fill="url(#o)" d="M411.24 87.55a13.36 13.36 0 1 0-22.5-14.4 13.36 13.36 0 0 0 22.5 14.4z"/></g><path fill="#EBEBEB" d="M404.39 70.23l-5.55 7.2-8.96-1.47 7.2 5.55-1.47 8.96 5.55-7.2 8.96 1.47-7.2-5.55 1.47-8.96z"/></g><g><g opacity=".39"><radialGradient id="p" cx=".5" cy=".5" r=".5" fx=".5" fy=".5" gradientTransform="scale(-44.729 44.729) rotate(30.26 -9.36 -23.27)" gradientUnits="userSpaceOnUse"><stop offset="0%" stop-color="#ebebeb"/><stop offset="98.26%" stop-color="#fff" stop-opacity="0"/></radialGradient><path fill="url(#p)" d="M592.88 88.38a22.37 22.37 0 0 0-38.63 22.54 22.37 22.37 0 0 0 38.63-22.54z"/></g><path fill="#EBEBEB" d="M561.83 85.39l6.5 13.75-9.02 12.25 13.75-6.5 12.25 9.02-6.5-13.75 9.02-12.25-13.75 6.5-12.25-9.02z"/></g><g><g opacity=".39"><radialGradient id="q" cx=".5" cy=".5" r=".5" fx=".5" fy=".5" gradientTransform="scale(-51.019 51.019) rotate(-25.62 2.72 12.54)" gradientUnits="userSpaceOnUse"><stop offset="0%" stop-color="#ebebeb"/><stop offset="98.26%" stop-color="#fff" stop-opacity="0"/></radialGradient><path fill="url(#q)" d="M251.93 145.91a25.52 25.52 0 0 0-46-22.06 25.52 25.52 0 0 0 46 22.06z"/></g><path fill="#EBEBEB" d="M234.88 114.67l-8.83 14.93-17.34-.67 14.94 8.83-.68 17.34 8.84-14.94 17.33.68-14.93-8.84.67-17.33z"/></g><g><g opacity=".39"><radialGradient id="r" cx=".5" cy=".5" r=".5" fx=".5" fy=".5" gradientTransform="scale(-65.564 65.564) rotate(-29.51 3.45 19.64)" gradientUnits="userSpaceOnUse"><stop offset="0%" stop-color="#ebebeb"/><stop offset="98.26%" stop-color="#fff" stop-opacity="0"/></radialGradient><path fill="url(#r)" d="M588.75 306.93a32.8 32.8 0 0 0-12.39-44.68 32.8 32.8 0 0 0-44.67 12.39 32.8 32.8 0 0 0 12.38 44.67 32.8 32.8 0 0 0 44.68-12.38z"/></g><path fill="#EBEBEB" d="M569.61 265.38L557 283.76l-22.17-2.37L553.2 294l-2.38 22.17 12.63-18.38 22.16 2.38-18.37-12.63 2.37-22.17z"/></g><g><g opacity=".39"><radialGradient id="s" cx=".5" cy=".5" r=".5" fx=".5" fy=".5" gradientTransform="scale(-34.469 34.469) rotate(-32.19 22.27 18.65)" gradientUnits="userSpaceOnUse"><stop offset="0%" stop-color="#ebebeb"/><stop offset="98.26%" stop-color="#fff" stop-opacity="0"/></radialGradient><path fill="url(#s)" d="M215.35 522.42a17.24 17.24 0 1 0-29.19-18.36 17.24 17.24 0 0 0 29.19 18.36z"/></g><path fill="#EBEBEB" d="M206.32 500.13l-7.08 9.34-11.58-1.8 9.34 7.09-1.8 11.58 7.09-9.34 11.58 1.8-9.34-7.09 1.8-11.58z"/></g><g><g opacity=".39"><radialGradient id="t" cx=".5" cy=".5" r=".5" fx=".5" fy=".5" gradientTransform="scale(-86.714 86.714) rotate(-3.82 47.58 42.76)" gradientUnits="userSpaceOnUse"><stop offset="0%" stop-color="#ebebeb"/><stop offset="98.26%" stop-color="#fff" stop-opacity="0"/></radialGradient><path fill="url(#t)" d="M235.03 326.45a43.38 43.38 0 0 0-40.38-46.14 43.38 43.38 0 0 0-46.15 40.37 43.38 43.38 0 0 0 40.38 46.15 43.38 43.38 0 0 0 46.15-40.38z"/></g><path fill="#EBEBEB" d="M188.4 287.9l-4.5 29.15-27.8 9.88 29.15 4.5 9.88 27.8 4.5-29.15 27.8-9.88-29.15-4.5-9.88-27.8z"/></g><g><g opacity=".39"><radialGradient id="u" cx=".5" cy=".5" r=".5" fx=".5" fy=".5" gradientTransform="scale(-26.704 26.704) rotate(-32.64 26.66 13.42)" gradientUnits="userSpaceOnUse"><stop offset="0%" stop-color="#ebebeb"/><stop offset="98.26%" stop-color="#fff" stop-opacity="0"/></radialGradient><path fill="url(#u)" d="M73.6 451.85a13.36 13.36 0 1 0-22.5-14.4 13.36 13.36 0 0 0 22.5 14.4z"/></g><path fill="#EBEBEB" d="M66.74 434.53l-5.54 7.2-8.97-1.47 7.2 5.55-1.46 8.96 5.54-7.2 8.96 1.47-7.2-5.55 1.47-8.96z"/></g><g><g opacity=".39"><radialGradient id="v" cx=".5" cy=".5" r=".5" fx=".5" fy=".5" gradientTransform="scale(-56.998 56.998) rotate(-32.64 16.16 10.1)" gradientUnits="userSpaceOnUse"><stop offset="0%" stop-color="#ebebeb"/><stop offset="98.26%" stop-color="#fff" stop-opacity="0"/></radialGradient><path fill="url(#v)" d="M149.5 611.87a28.51 28.51 0 0 0-8.63-39.37 28.51 28.51 0 1 0 8.62 39.37z"/></g><path fill="#EBEBEB" d="M134.86 574.9l-11.83 15.35-19.13-3.12 15.35 11.84-3.11 19.13 11.83-15.36 19.13 3.12-15.36-11.83 3.12-19.13z"/></g></g></svg>