<?xml version="1.0" standalone="no"?><!-- Generator: Gravit.io --><svg xmlns="http://www.w3.org/2000/svg" xmlns:xlink="http://www.w3.org/1999/xlink" style="isolation:isolate" viewBox="0 0 1920 740" width="1920" height="740"><defs><clipPath id="_clipPath_OLKVwze4O7BufZwQwg9yz0D9EzLqnDez"><rect width="1920" height="740"/></clipPath></defs><g clip-path="url(#_clipPath_OLKVwze4O7BufZwQwg9yz0D9EzLqnDez)"><defs><filter id="IYm0jnzyqTJ8suZYUPIQtDhIpniI52zw" x="-200%" y="-200%" width="400%" height="400%" filterUnits="objectBoundingBox" color-interpolation-filters="sRGB"><feOffset xmlns="http://www.w3.org/2000/svg" in="SourceGraphic" dx="0" dy="0"/><feGaussianBlur xmlns="http://www.w3.org/2000/svg" stdDeviation="8.587218125678056" result="pf_100_offsetBlur"/><feComposite xmlns="http://www.w3.org/2000/svg" in="SourceGraphic" in2="pf_100_offsetBlur" result="pf_100_inverse" operator="out"/><feFlood xmlns="http://www.w3.org/2000/svg" flood-color="#000000" flood-opacity="0.5" result="pf_100_color"/><feComposite xmlns="http://www.w3.org/2000/svg" in="pf_100_color" in2="pf_100_inverse" operator="in" result="pf_100_shadow"/><feComposite xmlns="http://www.w3.org/2000/svg" in="pf_100_shadow" in2="SourceGraphic" operator="over"/></filter></defs><g filter="url(#IYm0jnzyqTJ8suZYUPIQtDhIpniI52zw)"><path d=" M 892.821 -125.534 C 884.787 38.099 759.621 193.522 954.821 362.466 C 1150.021 531.41 1307.289 391.85 1486.821 598.466 C 1597.937 726.345 1759 717.127 1848 704.127 C 1960 681.793 1971.646 619.238 2092 581.127 C 2347.986 500.066 2146.483 615.782 2230.066 414.88 L 1710.063 -373.017 Q 900.855 -289.167 892.821 -125.534 Z " fill="rgb(154,104,242)"/></g><defs><filter id="0kxtaa4yN5pLvCG1W55IhbSKqLaRIdSl" x="-200%" y="-200%" width="400%" height="400%" filterUnits="objectBoundingBox" color-interpolation-filters="sRGB"><feOffset xmlns="http://www.w3.org/2000/svg" in="SourceGraphic" dx="0" dy="0"/><feGaussianBlur xmlns="http://www.w3.org/2000/svg" stdDeviation="8.587218125678056" result="pf_100_offsetBlur"/><feComposite xmlns="http://www.w3.org/2000/svg" in="SourceGraphic" in2="pf_100_offsetBlur" result="pf_100_inverse" operator="out"/><feFlood xmlns="http://www.w3.org/2000/svg" flood-color="#000000" flood-opacity="0.5" result="pf_100_color"/><feComposite xmlns="http://www.w3.org/2000/svg" in="pf_100_color" in2="pf_100_inverse" operator="in" result="pf_100_shadow"/><feComposite xmlns="http://www.w3.org/2000/svg" in="pf_100_shadow" in2="SourceGraphic" operator="over"/></filter></defs><g filter="url(#0kxtaa4yN5pLvCG1W55IhbSKqLaRIdSl)"><path d=" M 1052.331 -23.855 C 1046.59 93.084 957.141 204.156 1096.639 324.891 C 1236.138 445.627 1348.528 345.89 1476.83 493.548 C 1556.239 584.936 1671.342 578.348 1734.945 569.058 C 1814.986 553.097 1823.308 508.392 1909.319 481.156 C 2092.258 423.226 1948.255 505.923 2007.987 362.349 L 1636.37 -200.719 Q 1058.073 -140.795 1052.331 -23.855 Z " fill="rgb(102,52,187)"/></g><defs><filter id="qv8Na91S6IXAkFIgQEjcLG5VMNw12UWk" x="-200%" y="-200%" width="400%" height="400%" filterUnits="objectBoundingBox" color-interpolation-filters="sRGB"><feOffset xmlns="http://www.w3.org/2000/svg" in="SourceGraphic" dx="0" dy="0"/><feGaussianBlur xmlns="http://www.w3.org/2000/svg" stdDeviation="8.587218125678056" result="pf_100_offsetBlur"/><feComposite xmlns="http://www.w3.org/2000/svg" in="SourceGraphic" in2="pf_100_offsetBlur" result="pf_100_inverse" operator="out"/><feFlood xmlns="http://www.w3.org/2000/svg" flood-color="#000000" flood-opacity="0.5" result="pf_100_color"/><feComposite xmlns="http://www.w3.org/2000/svg" in="pf_100_color" in2="pf_100_inverse" operator="in" result="pf_100_shadow"/><feComposite xmlns="http://www.w3.org/2000/svg" in="pf_100_shadow" in2="SourceGraphic" operator="over"/></filter></defs><g filter="url(#qv8Na91S6IXAkFIgQEjcLG5VMNw12UWk)"><path d=" M 1116.507 -191.992 C 1110.765 -75.053 1021.316 36.019 1160.815 156.755 C 1300.313 277.49 1412.704 177.753 1541.006 325.411 C 1620.415 416.799 1735.518 410.211 1799.121 400.921 C 1879.161 384.96 1887.484 340.256 1973.495 313.019 C 2156.434 255.089 2012.431 337.786 2072.163 194.212 L 1700.545 -368.855 Q 1122.248 -308.932 1116.507 -191.992 Z " fill="rgb(33,13,68)"/></g><g><radialGradient id="_rgradient_282" fx="0.5" fy="0.5" cx="0.5" cy="0.5" r="0.5" gradientTransform="matrix(26.585,14.242,-14.242,26.585,1360.829,123.587)" gradientUnits="userSpaceOnUse"><stop offset="0%" stop-opacity="1" style="stop-color:rgb(235,235,235)"/><stop offset="98.26086956521739%" stop-opacity="0" style="stop-color:rgb(0,0,0)"/></radialGradient><path d=" M 1353.708 136.879 C 1357.638 129.543 1366.785 126.777 1374.121 130.708 C 1381.457 134.638 1384.223 143.785 1380.292 151.121 C 1376.362 158.457 1367.215 161.223 1359.879 157.292 C 1352.543 153.362 1349.777 144.215 1353.708 136.879 Z " fill="url(#_rgradient_282)"/><path d=" M 1374.563 134.103 L 1370.522 143.529 L 1376.897 151.563 L 1367.471 147.522 L 1359.437 153.897 L 1363.478 144.471 L 1357.103 136.437 L 1366.529 140.478 L 1374.563 134.103 Z " fill="rgb(235,235,235)"/></g><g><radialGradient id="_rgradient_283" fx="0.5" fy="0.5" cx="0.5" cy="0.5" r="0.5" gradientTransform="matrix(-16,0,0,-16,1554,141)" gradientUnits="userSpaceOnUse"><stop offset="0%" stop-opacity="1" style="stop-color:rgb(235,235,235)"/><stop offset="98.26086956521739%" stop-opacity="0" style="stop-color:rgb(0,0,0)"/></radialGradient><path d=" M 1554 133 C 1554 137.415 1550.415 141 1546 141 C 1541.585 141 1538 137.415 1538 133 C 1538 128.585 1541.585 125 1546 125 C 1550.415 125 1554 128.585 1554 133 Z " fill="url(#_rgradient_283)"/><path d=" M 1544.942 139.523 L 1544.471 134.103 L 1539.477 131.942 L 1544.897 131.471 L 1547.058 126.477 L 1547.529 131.897 L 1552.523 134.058 L 1547.103 134.529 L 1544.942 139.523 Z " fill="rgb(235,235,235)"/></g><g><radialGradient id="_rgradient_284" fx="0.5" fy="0.5" cx="0.5" cy="0.5" r="0.5" gradientTransform="matrix(44,0,0,44,1680,18.572)" gradientUnits="userSpaceOnUse"><stop offset="0%" stop-opacity="1" style="stop-color:rgb(235,235,235)"/><stop offset="98.26086956521739%" stop-opacity="0" style="stop-color:rgb(0,0,0)"/></radialGradient><circle vector-effect="non-scaling-stroke" cx="1702" cy="40.572328568637715" r="22" fill="url(#_rgradient_284)"/><path d=" M 1704.908 22.634 L 1706.205 37.54 L 1719.939 43.481 L 1705.032 44.778 L 1699.092 58.511 L 1697.795 43.604 L 1684.061 37.664 L 1698.968 36.367 L 1704.908 22.634 Z " fill="rgb(235,235,235)"/></g><g><radialGradient id="_rgradient_285" fx="0.5" fy="0.5" cx="0.5" cy="0.5" r="0.5" gradientTransform="matrix(14.415,0,0,14.415,1616.793,289.585)" gradientUnits="userSpaceOnUse"><stop offset="0%" stop-opacity="1" style="stop-color:rgb(235,235,235)"/><stop offset="98.26086956521739%" stop-opacity="0" style="stop-color:rgb(0,0,0)"/></radialGradient><circle vector-effect="non-scaling-stroke" cx="1623.9999999999998" cy="296.7927325660879" r="7.207267433912193" fill="url(#_rgradient_285)"/><path d=" M 1624.953 290.916 L 1625.378 295.799 L 1629.877 297.745 L 1624.993 298.17 L 1623.047 302.669 L 1622.622 297.786 L 1618.123 295.84 L 1623.007 295.415 L 1624.953 290.916 Z " fill="rgb(235,235,235)"/></g><g><radialGradient id="_rgradient_286" fx="0.5" fy="0.5" cx="0.5" cy="0.5" r="0.5" gradientTransform="matrix(22,0,0,22,1855.994,231.998)" gradientUnits="userSpaceOnUse"><stop offset="0%" stop-opacity="1" style="stop-color:rgb(235,235,235)"/><stop offset="98.26086956521739%" stop-opacity="0" style="stop-color:rgb(0,0,0)"/></radialGradient><circle vector-effect="non-scaling-stroke" cx="1866.9939691367133" cy="242.9983862212219" r="11" fill="url(#_rgradient_286)"/><path d=" M 1868.448 234.029 L 1869.097 241.482 L 1875.963 244.452 L 1868.51 245.101 L 1865.54 251.968 L 1864.891 244.514 L 1858.025 241.544 L 1865.478 240.896 L 1868.448 234.029 Z " fill="rgb(235,235,235)"/></g><g><radialGradient id="_rgradient_287" fx="0.5" fy="0.5" cx="0.5" cy="0.5" r="0.5" gradientTransform="matrix(-15.305,40.295,-40.295,-15.305,987.8,17.932)" gradientUnits="userSpaceOnUse"><stop offset="0%" stop-opacity="1" style="stop-color:rgb(235,235,235)"/><stop offset="98.69565217391305%" stop-opacity="0" style="stop-color:rgb(0,0,0)"/></radialGradient><path d=" M 967.652 10.28 C 978.772 14.504 984.371 26.96 980.148 38.08 C 975.924 49.2 963.467 54.799 952.348 50.575 C 941.228 46.352 935.629 33.895 939.852 22.775 C 944.076 11.656 956.533 6.057 967.652 10.28 Z " fill="url(#_rgradient_287)"/><path d=" M 975.417 39.331 L 961.314 35.334 L 951.097 45.844 L 955.094 31.742 L 944.583 21.525 L 958.686 25.522 L 968.903 15.011 L 964.906 29.114 L 975.417 39.331 Z " fill="rgb(235,235,235)"/></g><g><radialGradient id="_rgradient_288" fx="0.5" fy="0.5" cx="0.5" cy="0.5" r="0.5" gradientTransform="matrix(18.393,-12.07,12.07,18.393,1056.768,104.839)" gradientUnits="userSpaceOnUse"><stop offset="0%" stop-opacity="1" style="stop-color:rgb(235,235,235)"/><stop offset="98.26086956521739%" stop-opacity="0" style="stop-color:rgb(0,0,0)"/></radialGradient><path d=" M 1062.803 114.035 C 1059.473 108.96 1060.889 102.134 1065.965 98.803 C 1071.04 95.473 1077.866 96.889 1081.197 101.965 C 1084.527 107.04 1083.111 113.866 1078.035 117.197 C 1072.96 120.527 1066.134 119.111 1062.803 114.035 Z " fill="url(#_rgradient_288)"/><path d=" M 1068.295 99.703 L 1072.926 105.579 L 1080.297 104.295 L 1074.421 108.926 L 1075.705 116.297 L 1071.074 110.421 L 1063.703 111.705 L 1069.579 107.074 L 1068.295 99.703 Z " fill="rgb(235,235,235)"/></g><g><radialGradient id="_rgradient_289" fx="0.5" fy="0.5" cx="0.5" cy="0.5" r="0.5" gradientTransform="matrix(4.006,-21.632,21.632,4.006,969.181,273.813)" gradientUnits="userSpaceOnUse"><stop offset="0%" stop-opacity="1" style="stop-color:rgb(235,235,235)"/><stop offset="98.26086956521739%" stop-opacity="0" style="stop-color:rgb(0,0,0)"/></radialGradient><path d=" M 979.997 275.816 C 974.027 274.711 970.078 268.967 971.184 262.997 C 972.289 257.027 978.033 253.078 984.003 254.184 C 989.973 255.289 993.922 261.033 992.816 267.003 C 991.711 272.973 985.967 276.922 979.997 275.816 Z " fill="url(#_rgradient_289)"/><path d=" M 973.445 261.937 L 980.892 262.656 L 985.063 256.445 L 984.344 263.892 L 990.555 268.063 L 983.108 267.344 L 978.937 273.555 L 979.656 266.108 L 973.445 261.937 Z " fill="rgb(235,235,235)"/></g><g><radialGradient id="_rgradient_290" fx="0.5" fy="0.5" cx="0.5" cy="0.5" r="0.5" gradientTransform="matrix(40.126,12.1,-12.1,40.126,1199.987,292.68)" gradientUnits="userSpaceOnUse"><stop offset="0%" stop-opacity="1" style="stop-color:rgb(235,235,235)"/><stop offset="98.26086956521739%" stop-opacity="0" style="stop-color:rgb(0,0,0)"/></radialGradient><path d=" M 1193.937 312.742 C 1197.276 301.669 1208.977 295.391 1220.05 298.73 C 1231.123 302.069 1237.402 313.77 1234.063 324.843 C 1230.724 335.916 1219.023 342.195 1207.95 338.856 C 1196.877 335.516 1190.598 323.816 1193.937 312.742 Z " fill="url(#_rgradient_290)"/><path d=" M 1221.585 303.233 L 1218.669 317.184 L 1229.559 326.378 L 1215.609 323.462 L 1206.415 334.352 L 1209.331 320.401 L 1198.441 311.207 L 1212.391 314.124 L 1221.585 303.233 Z " fill="rgb(235,235,235)"/></g><g><radialGradient id="_rgradient_291" fx="0.5" fy="0.5" cx="0.5" cy="0.5" r="0.5" gradientTransform="matrix(12.132,-18.353,18.353,12.132,1599.758,446.111)" gradientUnits="userSpaceOnUse"><stop offset="0%" stop-opacity="1" style="stop-color:rgb(235,235,235)"/><stop offset="98.26086956521739%" stop-opacity="0" style="stop-color:rgb(0,0,0)"/></radialGradient><path d=" M 1608.934 452.176 C 1603.87 448.829 1602.476 441.999 1605.824 436.934 C 1609.171 431.87 1616.001 430.476 1621.066 433.824 C 1626.13 437.171 1627.524 444.001 1624.176 449.066 C 1620.829 454.13 1613.999 455.524 1608.934 452.176 Z " fill="url(#_rgradient_291)"/><path d=" M 1608.319 436.841 L 1614.895 440.41 L 1621.159 436.319 L 1617.59 442.895 L 1621.681 449.159 L 1615.105 445.59 L 1608.841 449.681 L 1612.41 443.105 L 1608.319 436.841 Z " fill="rgb(235,235,235)"/></g><g><radialGradient id="_rgradient_292" fx="0.5" fy="0.5" cx="0.5" cy="0.5" r="0.5" gradientTransform="matrix(7.492,45.89,-45.89,7.492,1621.199,567.309)" gradientUnits="userSpaceOnUse"><stop offset="0%" stop-opacity="1" style="stop-color:rgb(235,235,235)"/><stop offset="98.26086956521739%" stop-opacity="0" style="stop-color:rgb(0,0,0)"/></radialGradient><path d=" M 1598.254 571.055 C 1610.918 568.987 1622.878 577.59 1624.945 590.254 C 1627.013 602.918 1618.41 614.878 1605.746 616.945 C 1593.082 619.013 1581.122 610.41 1579.055 597.746 C 1576.987 585.082 1585.59 573.122 1598.254 571.055 Z " fill="url(#_rgradient_292)"/><path d=" M 1621.205 593.979 L 1605.878 597.87 L 1602.021 613.205 L 1598.13 597.878 L 1582.795 594.021 L 1598.122 590.13 L 1601.979 574.795 L 1605.87 590.122 L 1621.205 593.979 Z " fill="rgb(235,235,235)"/></g><g><radialGradient id="_rgradient_293" fx="0.5" fy="0.5" cx="0.5" cy="0.5" r="0.5" gradientTransform="matrix(22,0,0,22,1772,471)" gradientUnits="userSpaceOnUse"><stop offset="0%" stop-opacity="1" style="stop-color:rgb(235,235,235)"/><stop offset="98.26086956521739%" stop-opacity="0" style="stop-color:rgb(0,0,0)"/></radialGradient><circle vector-effect="non-scaling-stroke" cx="1783" cy="482" r="11" fill="url(#_rgradient_293)"/><path d=" M 1784.454 473.031 L 1785.103 480.484 L 1791.969 483.454 L 1784.516 484.103 L 1781.546 490.969 L 1780.897 483.516 L 1774.031 480.546 L 1781.484 479.897 L 1784.454 473.031 Z " fill="rgb(235,235,235)"/></g><g><radialGradient id="_rgradient_294" fx="0.5" fy="0.5" cx="0.5" cy="0.5" r="0.5" gradientTransform="matrix(19.276,10.603,-10.603,19.276,1840.661,598.699)" gradientUnits="userSpaceOnUse"><stop offset="0%" stop-opacity="1" style="stop-color:rgb(235,235,235)"/><stop offset="98.26086956521739%" stop-opacity="0" style="stop-color:rgb(0,0,0)"/></radialGradient><path d=" M 1835.36 608.337 C 1838.286 603.018 1844.98 601.074 1850.299 604 C 1855.619 606.926 1857.562 613.62 1854.636 618.94 C 1851.71 624.259 1845.016 626.203 1839.696 623.277 C 1834.377 620.351 1832.434 613.656 1835.36 608.337 Z " fill="url(#_rgradient_294)"/><path d=" M 1850.595 606.48 L 1847.571 613.324 L 1852.156 619.235 L 1845.313 616.212 L 1839.401 620.797 L 1842.425 613.953 L 1837.84 608.042 L 1844.683 611.065 L 1850.595 606.48 Z " fill="rgb(235,235,235)"/></g><g><radialGradient id="_rgradient_295" fx="0.5" fy="0.5" cx="0.5" cy="0.5" r="0.5" gradientTransform="matrix(15.859,15.248,-15.248,15.859,1866.69,405.449)" gradientUnits="userSpaceOnUse"><stop offset="0%" stop-opacity="1" style="stop-color:rgb(235,235,235)"/><stop offset="98.26086956521739%" stop-opacity="0" style="stop-color:rgb(0,0,0)"/></radialGradient><path d=" M 1859.067 413.379 C 1863.274 409.003 1870.244 408.866 1874.62 413.073 C 1878.996 417.281 1879.133 424.25 1874.926 428.627 C 1870.718 433.003 1863.749 433.14 1859.372 428.932 C 1854.996 424.725 1854.859 417.755 1859.067 413.379 Z " fill="url(#_rgradient_295)"/><path d=" M 1874.261 415.545 L 1869.563 421.367 L 1872.454 428.267 L 1866.632 423.569 L 1859.731 426.461 L 1864.43 420.638 L 1861.538 413.738 L 1867.361 418.436 L 1874.261 415.545 Z " fill="rgb(235,235,235)"/></g><g><g><path d=" M 1682.164 451.372 C 1682.519 451.724 1682.877 452.076 1683.24 452.425 L 1683.386 452.273 C 1710.342 472.095 1738.565 490.47 1768.087 507.399 C 1749.15 476.086 1729.876 448.386 1710.299 424.3 L 1710.434 424.16 C 1710.073 423.812 1709.71 423.47 1709.346 423.13 C 1709.324 423.103 1709.302 423.077 1709.28 423.05 L 1709.269 423.061 C 1693.912 408.869 1675.891 403.491 1668.572 411.098 C 1661.253 418.705 1667.323 436.505 1682.097 451.303 L 1682.086 451.315 C 1682.112 451.334 1682.138 451.353 1682.164 451.372 Z " fill="rgb(255,95,95)"/><linearGradient id="_lgradient_44" x1="0.4965986394557818" y1="0.11560693641618491" x2="0.5102040816326533" y2="1.1791907514450866" gradientTransform="matrix(18.13,-18.844,66.531,64.011,1668.31,428.99)" gradientUnits="userSpaceOnUse"><stop offset="0%" stop-opacity="1" style="stop-color:rgb(255,149,57)"/><stop offset="10%" stop-opacity="1" style="stop-color:rgb(255,167,52)"/><stop offset="42.173913043478265%" stop-opacity="1" style="stop-color:rgb(244,230,31)"/><stop offset="100%" stop-opacity="1" style="stop-color:rgb(251,246,182)"/></linearGradient><path d=" M 1686.437 446.418 C 1686.674 446.653 1686.912 446.887 1687.154 447.12 L 1687.252 447.019 C 1705.223 460.234 1724.039 472.485 1743.722 483.771 C 1731.096 462.895 1718.247 444.428 1705.195 428.37 L 1705.285 428.276 C 1705.044 428.044 1704.802 427.816 1704.559 427.59 C 1704.545 427.572 1704.53 427.554 1704.515 427.536 L 1704.508 427.544 C 1694.269 418.082 1682.255 414.497 1677.375 419.568 C 1672.496 424.639 1676.543 436.507 1686.393 446.373 L 1686.385 446.38 C 1686.402 446.393 1686.42 446.406 1686.437 446.418 Z " fill="url(#_lgradient_44)"/></g><path d=" M 1520.778 386.245 C 1517.29 419.453 1514.339 437.276 1543.541 470.929 C 1581.977 504.661 1594.484 508.508 1618.93 522.243 C 1589.167 485.018 1574.736 444.59 1597.501 422.045 L 1520.778 386.245 Z " fill="rgb(200,197,197)"/><path d=" M 1637.964 264.445 C 1671.013 259.678 1688.709 256.041 1723.464 283.922 C 1758.654 321.028 1762.981 333.378 1777.65 357.275 C 1739.303 328.97 1697.394 317.103 1675.745 340.721 L 1637.964 264.445 Z " fill="rgb(223,222,222)"/><polygon points="1634.888,422.288,1572.368,406.975,1554.37,345.174,1598.891,298.687,1661.411,314,1679.41,375.801" fill="rgb(200,197,197)"/><g><path d=" M 1683.839 355.802 C 1673.869 307.717 1633.645 243.269 1573.058 184.977 L 1573.058 184.977 L 1573.058 184.977 L 1506.742 253.903 L 1440.426 322.83 C 1501.17 381.273 1567.306 419.024 1615.776 427 C 1622.138 415.397 1632.818 401.222 1646.295 387.215 C 1659.361 373.634 1672.688 362.673 1683.839 355.802 Z  M 1673.733 414.273 C 1673.685 414.325 1673.636 414.377 1673.586 414.428 C 1673.456 414.564 1673.325 414.699 1673.191 414.831 C 1673.372 414.649 1673.553 414.462 1673.733 414.273 Z  M 1440.426 322.83 C 1366.952 252.139 1337.016 163.862 1373.616 125.821 C 1410.217 87.779 1499.584 114.286 1573.058 184.977 L 1573.058 184.977 L 1506.742 253.903 L 1440.426 322.83 L 1440.426 322.83 Z " fill-rule="evenodd" fill="rgb(33,13,68)"/><clipPath id="_clipPath_CbSEwpjmPIE5ACeIgZyW3sXPsOrtWzPf"><path d=" M 1683.839 355.802 C 1673.869 307.717 1633.645 243.269 1573.058 184.977 L 1573.058 184.977 L 1573.058 184.977 L 1506.742 253.903 L 1440.426 322.83 C 1501.17 381.273 1567.306 419.024 1615.776 427 C 1622.138 415.397 1632.818 401.222 1646.295 387.215 C 1659.361 373.634 1672.688 362.673 1683.839 355.802 Z  M 1673.733 414.273 C 1673.685 414.325 1673.636 414.377 1673.586 414.428 C 1673.456 414.564 1673.325 414.699 1673.191 414.831 C 1673.372 414.649 1673.553 414.462 1673.733 414.273 Z  M 1440.426 322.83 C 1366.952 252.139 1337.016 163.862 1373.616 125.821 C 1410.217 87.779 1499.584 114.286 1573.058 184.977 L 1573.058 184.977 L 1506.742 253.903 L 1440.426 322.83 L 1440.426 322.83 Z " fill-rule="evenodd" fill="rgb(33,13,68)"/></clipPath><g clip-path="url(#_clipPath_CbSEwpjmPIE5ACeIgZyW3sXPsOrtWzPf)"><rect x="1460.22" y="-57.066" width="145.882" height="470.675" transform="matrix(0.693,-0.721,0.721,0.693,341.712,1159.502)" fill="rgb(102,52,187)"/></g><path d=" M 1330.35 85.757 C 1334.8 130.828 1348.933 180.072 1373.619 233.753 C 1372.244 227.615 1382.801 201.273 1415.103 167.299 L 1415.103 167.299 C 1447.805 133.71 1474.122 122.393 1480.309 123.53 C 1425.159 100.896 1374.985 88.464 1330.35 85.757 L 1330.35 85.757 Z " fill="rgb(200,197,197)"/><clipPath id="_clipPath_O59XhOppWjrvz5VYZgIoY5Ph2b2i969r"><path d=" M 1330.35 85.757 C 1334.8 130.828 1348.933 180.072 1373.619 233.753 C 1372.244 227.615 1382.801 201.273 1415.103 167.299 L 1415.103 167.299 C 1447.805 133.71 1474.122 122.393 1480.309 123.53 C 1425.159 100.896 1374.985 88.464 1330.35 85.757 L 1330.35 85.757 Z " fill="rgb(200,197,197)"/></clipPath><g clip-path="url(#_clipPath_O59XhOppWjrvz5VYZgIoY5Ph2b2i969r)"><path d=" M 1321.425 77.169 C 1365.429 80.686 1438.321 102.137 1494.121 123.962 C 1487.934 122.824 1447.805 133.709 1415.103 167.299 L 1321.425 77.169 Z " fill="rgb(223,222,222)"/></g></g><path d=" M 1543.062 289.456 C 1554.305 323.249 1591.222 370.845 1604.465 384.82 C 1627.963 402.917 1645.976 408.133 1698.767 439.263 L 1543.062 289.456 Z " fill="rgb(200,197,197)"/><path d=" M 1543.062 289.456 C 1577.264 299.386 1629.609 337.673 1644.085 350.367 C 1663.076 373.149 1665.622 387.713 1698.767 439.263 L 1543.062 289.456 Z " fill="rgb(223,222,222)"/></g></g></svg>