<?xml version="1.0" standalone="no"?><!-- Generator: Gravit.io --><svg xmlns="http://www.w3.org/2000/svg" xmlns:xlink="http://www.w3.org/1999/xlink" style="isolation:isolate" viewBox="0 0 1920 740" ><defs><clipPath id="_clipPath_mtbsEZWrZf6v0UUxzevC4kKT1MsjzJHF"><rect width="1920" height="740"/></clipPath></defs><g clip-path="url(#_clipPath_mtbsEZWrZf6v0UUxzevC4kKT1MsjzJHF)"><radialGradient id="_rgradient_1" fx="0.5" fy="0.5" cx="0.5" cy="0.5" r="0.5" gradientTransform="matrix(935.986,-556.916,663.649,1115.367,677.037,-53.564)" gradientUnits="userSpaceOnUse"><stop offset="1.3043478260869565%" stop-opacity="1" style="stop-color:rgb(42,11,87)"/><stop offset="100%" stop-opacity="1" style="stop-color:rgb(24,23,67)"/></radialGradient><path d=" M 882.821 -130.66 C 874.787 32.973 749.621 188.395 944.821 357.34 C 1140.021 526.284 1297.289 386.723 1476.821 593.34 C 1587.937 721.219 1749 712 1838 699 C 1950 676.667 1961.646 614.112 2082 576 C 2337.986 494.939 2136.483 610.656 2220.066 409.753 L 1700.063 -378.144 Q 890.855 -294.294 882.821 -130.66 Z " fill="url(#_rgradient_1)"/><g opacity="0.41"><circle vector-effect="non-scaling-stroke" cx="1660" cy="193" r="132" fill="rgb(68,41,115)"/></g><g opacity="0.19"><circle vector-effect="non-scaling-stroke" cx="1680" cy="193" r="108" fill="rgb(30,8,68)"/></g><g opacity="0.41"><circle vector-effect="non-scaling-stroke" cx="1379" cy="353.00606126187336" r="132" fill="rgb(68,41,115)"/></g><g opacity="0.19"><circle vector-effect="non-scaling-stroke" cx="1399" cy="353.00606126187336" r="108" fill="rgb(30,8,68)"/></g><g opacity="0.41"><circle vector-effect="non-scaling-stroke" cx="1106" cy="173" r="132" fill="rgb(68,41,115)"/></g><g opacity="0.19"><circle vector-effect="non-scaling-stroke" cx="1126.0000000000002" cy="173.00000000000006" r="108" fill="rgb(30,8,68)"/></g><g><path d=" M 1426.959 269.485 C 1473.056 274.426 1506.469 315.862 1501.528 361.959 C 1496.586 408.056 1455.15 441.469 1409.053 436.528 C 1362.956 431.586 1329.543 390.15 1334.485 344.053 C 1339.426 297.956 1380.862 264.543 1426.959 269.485 Z " fill="rgb(0,47,255)"/><path d=" M 1435.091 273.373 C 1476.523 277.815 1506.292 317.509 1501.528 361.959 C 1496.763 406.41 1459.256 438.892 1417.824 434.451 C 1376.392 430.009 1346.623 390.315 1351.388 345.865 C 1356.153 301.414 1393.659 268.932 1435.091 273.373 Z " fill="rgb(9,140,247)"/><linearGradient id="_lgradient_3" x1="0.5138888888888858" y1="-0.11175496688741693" x2="0.4999999999999999" y2="1.0000000000000007" gradientTransform="matrix(-15.348,143.18,-133.458,-14.306,1509.257,290.369)" gradientUnits="userSpaceOnUse"><stop offset="2.608695652173913%" stop-opacity="1" style="stop-color:rgb(168,233,244)"/><stop offset="97.82608695652173%" stop-opacity="1" style="stop-color:rgb(0,216,255)"/></linearGradient><path d=" M 1442.529 283.216 C 1479.357 287.164 1505.819 322.448 1501.583 361.959 C 1497.348 401.471 1464.009 430.344 1427.18 426.396 C 1390.352 422.448 1363.89 387.165 1368.126 347.653 C 1372.361 308.142 1405.7 279.268 1442.529 283.216 Z " fill="url(#_lgradient_3)"/><g><path d=" M 1384.83 281.258 C 1388.006 281.598 1390.307 284.453 1389.967 287.628 C 1389.626 290.803 1386.772 293.104 1383.597 292.764 C 1380.422 292.423 1378.121 289.569 1378.461 286.394 C 1378.801 283.219 1381.655 280.918 1384.83 281.258 Z " fill="rgb(9,140,247)"/><path d=" M 1365.403 297.461 C 1368.578 297.801 1370.879 300.655 1370.539 303.83 C 1370.199 307.006 1367.345 309.307 1364.17 308.967 C 1360.994 308.626 1358.693 305.772 1359.033 302.597 C 1359.374 299.422 1362.228 297.121 1365.403 297.461 Z " fill="rgb(9,140,247)"/><path d=" M 1350.453 337.755 C 1357.124 338.471 1361.96 344.467 1361.245 351.138 C 1360.529 357.809 1354.533 362.645 1347.862 361.93 C 1341.191 361.215 1336.355 355.218 1337.07 348.547 C 1337.785 341.876 1343.782 337.04 1350.453 337.755 Z " fill="rgb(9,140,247)"/></g><g><path d=" M 1448.098 299.814 C 1461.632 301.265 1471.443 313.431 1469.992 326.966 C 1468.541 340.501 1456.375 350.311 1442.84 348.86 C 1429.306 347.409 1419.495 335.243 1420.946 321.708 C 1422.397 308.174 1434.563 298.363 1448.098 299.814 Z " fill="rgb(9,140,247)"/><path d=" M 1405.868 324.852 C 1413.873 326.997 1418.63 335.237 1416.485 343.242 C 1414.341 351.246 1406.1 356.004 1398.096 353.859 C 1390.091 351.714 1385.333 343.474 1387.478 335.469 C 1389.623 327.464 1397.863 322.707 1405.868 324.852 Z " fill="rgb(9,140,247)"/><path d=" M 1378.224 370.121 C 1383.348 371.494 1386.394 376.769 1385.021 381.893 C 1383.647 387.018 1378.372 390.063 1373.248 388.69 C 1368.124 387.317 1365.078 382.042 1366.451 376.918 C 1367.824 371.793 1373.099 368.748 1378.224 370.121 Z " fill="rgb(18,217,253)"/><path d=" M 1371.103 338.714 C 1374.434 339.607 1376.414 343.036 1375.522 346.367 C 1374.629 349.699 1371.2 351.679 1367.868 350.786 C 1364.537 349.893 1362.557 346.464 1363.45 343.133 C 1364.342 339.801 1367.772 337.821 1371.103 338.714 Z " fill="rgb(18,217,253)"/><path d=" M 1383.396 311.379 C 1389.286 312.957 1392.787 319.02 1391.209 324.91 C 1389.631 330.801 1383.567 334.301 1377.677 332.723 C 1371.787 331.145 1368.286 325.081 1369.864 319.191 C 1371.443 313.301 1377.506 309.8 1383.396 311.379 Z " fill="rgb(18,217,253)"/><path d=" M 1401.867 294.714 C 1405.199 295.607 1407.179 299.036 1406.286 302.367 C 1405.393 305.699 1401.964 307.679 1398.633 306.786 C 1395.301 305.893 1393.321 302.464 1394.214 299.133 C 1395.107 295.801 1398.536 293.821 1401.867 294.714 Z " fill="rgb(18,217,253)"/><path d=" M 1430.084 349.359 C 1435.625 350.843 1438.917 356.546 1437.433 362.087 C 1435.948 367.627 1430.245 370.92 1424.705 369.435 C 1419.164 367.951 1415.872 362.248 1417.356 356.707 C 1418.841 351.167 1424.544 347.874 1430.084 349.359 Z " fill="rgb(9,140,247)"/><path d=" M 1404.672 363.567 C 1410.212 365.052 1413.505 370.755 1412.02 376.295 C 1410.536 381.836 1404.832 385.128 1399.292 383.644 C 1393.752 382.159 1390.459 376.456 1391.943 370.916 C 1393.428 365.375 1399.131 362.083 1404.672 363.567 Z " fill="rgb(9,140,247)"/></g></g><g><circle vector-effect="non-scaling-stroke" cx="1688" cy="180.9999999999999" r="84" fill="rgb(29,111,68)"/><ellipse vector-effect="non-scaling-stroke" cx="1688" cy="172.49999999999997" rx="81" ry="75.5" fill="rgb(70,195,93)"/><linearGradient id="_lgradient_4" x1="0.5138888888888858" y1="-0.11175496688741693" x2="0.4999999999999999" y2="1.0000000000000007" gradientTransform="matrix(144,0,0,134.222,1616,97)" gradientUnits="userSpaceOnUse"><stop offset="1.7391304347826086%" stop-opacity="1" style="stop-color:rgb(177,253,191)"/><stop offset="97.82608695652173%" stop-opacity="1" style="stop-color:rgb(93,217,115)"/></linearGradient><ellipse vector-effect="non-scaling-stroke" cx="1688" cy="164.11111111111111" rx="72" ry="67.11111111111114" fill="url(#_lgradient_4)"/><g><circle vector-effect="non-scaling-stroke" cx="1733.4999999999998" cy="215.5" r="10.5" fill="rgb(166,248,181)"/><circle vector-effect="non-scaling-stroke" cx="1733.4999999999995" cy="215.50000000000003" r="8.5" fill="rgb(70,195,93)"/></g><g><circle vector-effect="non-scaling-stroke" cx="1716.2222222222222" cy="222.22222222222226" r="5.222222222222399" fill="rgb(166,248,181)"/><circle vector-effect="non-scaling-stroke" cx="1716.2222222222224" cy="222.2222222222223" r="4.227513227513327" fill="rgb(70,195,93)"/></g><g><circle vector-effect="non-scaling-stroke" cx="1657.7777777777776" cy="226" r="4.222222222222399" fill="rgb(166,248,181)"/><circle vector-effect="non-scaling-stroke" cx="1657.777777777778" cy="226.00000000000003" r="3.417989417989702" fill="rgb(70,195,93)"/></g><g><circle vector-effect="non-scaling-stroke" cx="1675.7777777777774" cy="234.4444444444449" r="4.222222222222399" fill="rgb(166,248,181)"/><circle vector-effect="non-scaling-stroke" cx="1675.777777777778" cy="234.44444444444494" r="3.417989417989702" fill="rgb(70,195,93)"/></g><g><circle vector-effect="non-scaling-stroke" cx="1721.4444444444443" cy="122.77777777777769" r="5.222222222222399" fill="rgb(166,248,181)"/><circle vector-effect="non-scaling-stroke" cx="1721.4444444444443" cy="122.77777777777773" r="4.227513227513327" fill="rgb(70,195,93)"/></g><g><circle vector-effect="non-scaling-stroke" cx="1754.9999999999998" cy="155.11111111111106" r="9" fill="rgb(166,248,181)"/><circle vector-effect="non-scaling-stroke" cx="1755" cy="155.1111111111111" r="7.285714285714221" fill="rgb(70,195,93)"/></g><g><circle vector-effect="non-scaling-stroke" cx="1732.449735449735" cy="235.22751322751324" r="4.227513227513327" fill="rgb(70,195,93)"/></g><g><circle vector-effect="non-scaling-stroke" cx="1698.7724867724864" cy="245.77248677248656" r="8.772486772486445" fill="rgb(70,195,93)"/></g></g><g><path d=" M 1083.954 202.698 C 1065.469 160.182 1084.979 110.656 1127.495 92.171 C 1170.011 73.686 1219.537 93.196 1238.022 135.712 C 1256.507 178.228 1236.997 227.753 1194.481 246.239 C 1151.965 264.724 1102.44 245.214 1083.954 202.698 Z " fill="rgb(217,31,31)"/><path d=" M 1083.316 193.707 C 1066.702 155.493 1086.497 109.996 1127.495 92.171 C 1168.493 74.346 1215.267 90.899 1231.882 129.113 C 1248.496 167.327 1228.7 212.823 1187.703 230.649 C 1146.705 248.474 1099.931 231.921 1083.316 193.707 Z " fill="rgb(213,49,49)"/><linearGradient id="_lgradient_5" x1="0.5138888888888858" y1="-0.11175496688741693" x2="0.4999999999999999" y2="1.0000000000000007" gradientTransform="matrix(132.058,-57.417,53.518,123.091,1061.466,120.879)" gradientUnits="userSpaceOnUse"><stop offset="1.7391304347826086%" stop-opacity="1" style="stop-color:rgb(255,151,151)"/><stop offset="98.26086956521739%" stop-opacity="1" style="stop-color:rgb(240,75,75)"/></linearGradient><path d=" M 1088.225 182.425 C 1073.456 148.457 1091.053 108.016 1127.495 92.171 C 1163.938 76.326 1205.514 91.04 1220.283 125.008 C 1235.052 158.976 1217.455 199.418 1181.013 215.262 C 1144.571 231.107 1102.994 216.393 1088.225 182.425 Z " fill="url(#_lgradient_5)"/><g><path d=" M 1147.343 224.207 C 1146.414 222.07 1147.394 219.58 1149.531 218.651 C 1151.668 217.722 1154.158 218.703 1155.087 220.84 C 1156.016 222.977 1155.035 225.466 1152.898 226.395 C 1150.761 227.325 1148.272 226.344 1147.343 224.207 Z " fill="rgb(253,142,142)"/><path d=" M 1148.08 223.886 C 1147.328 222.156 1148.122 220.141 1149.852 219.389 C 1151.582 218.637 1153.597 219.431 1154.349 221.161 C 1155.102 222.891 1154.308 224.906 1152.578 225.658 C 1150.848 226.41 1148.833 225.616 1148.08 223.886 Z " fill="rgb(213,49,49)"/></g><g><path d=" M 1175.043 211.563 C 1172.281 205.211 1175.196 197.812 1181.548 195.05 C 1187.901 192.288 1195.3 195.203 1198.062 201.555 C 1200.824 207.907 1197.909 215.307 1191.557 218.069 C 1185.204 220.83 1177.805 217.916 1175.043 211.563 Z " fill="rgb(253,142,142)"/><path d=" M 1177.235 210.61 C 1175 205.468 1177.359 199.478 1182.502 197.242 C 1187.644 195.006 1193.634 197.366 1195.87 202.508 C 1198.106 207.651 1195.746 213.641 1190.604 215.876 C 1185.461 218.112 1179.471 215.752 1177.235 210.61 Z " fill="rgb(213,49,49)"/></g><g><path d=" M 1226.172 178.429 C 1225.413 176.683 1226.214 174.649 1227.96 173.89 C 1229.706 173.131 1231.74 173.932 1232.5 175.678 C 1233.259 177.424 1232.457 179.458 1230.711 180.217 C 1228.965 180.976 1226.931 180.175 1226.172 178.429 Z " fill="rgb(253,142,142)"/><path d=" M 1226.775 178.167 C 1226.16 176.753 1226.809 175.107 1228.222 174.492 C 1229.636 173.878 1231.282 174.526 1231.897 175.94 C 1232.511 177.353 1231.863 179 1230.449 179.614 C 1229.036 180.229 1227.389 179.58 1226.775 178.167 Z " fill="rgb(213,49,49)"/></g><g><path d=" M 1159.521 116.412 C 1156.056 108.442 1159.713 99.159 1167.682 95.694 C 1175.652 92.23 1184.935 95.886 1188.4 103.856 C 1191.865 111.825 1188.208 121.108 1180.238 124.573 C 1172.269 128.038 1162.986 124.381 1159.521 116.412 Z " fill="rgb(213,49,49)"/></g><g><path d=" M 1143.017 125.248 C 1141.811 122.476 1143.083 119.246 1145.856 118.041 C 1148.628 116.836 1151.857 118.108 1153.063 120.88 C 1154.268 123.652 1152.996 126.882 1150.223 128.087 C 1147.451 129.292 1144.222 128.02 1143.017 125.248 Z " fill="rgb(213,49,49)"/></g><g><path d=" M 1159.213 129.873 C 1158.438 128.09 1159.256 126.013 1161.039 125.238 C 1162.822 124.462 1164.899 125.281 1165.675 127.064 C 1166.45 128.847 1165.632 130.924 1163.848 131.699 C 1162.065 132.474 1159.988 131.656 1159.213 129.873 Z " fill="rgb(213,49,49)"/></g><g><path d=" M 1202.952 218.07 C 1202.022 215.93 1203.004 213.438 1205.143 212.508 C 1207.283 211.577 1209.776 212.559 1210.706 214.699 C 1211.636 216.839 1210.654 219.331 1208.515 220.261 C 1206.375 221.192 1203.882 220.21 1202.952 218.07 Z " fill="rgb(213,49,49)"/></g><g><path d=" M 1217.433 197.593 C 1215.501 193.15 1217.54 187.975 1221.982 186.043 C 1226.425 184.111 1231.601 186.15 1233.532 190.593 C 1235.464 195.036 1233.425 200.211 1228.982 202.143 C 1224.539 204.074 1219.364 202.036 1217.433 197.593 Z " fill="rgb(213,49,49)"/></g><g><path d=" M 1176.626 234.126 C 1174.695 229.686 1176.733 224.514 1181.173 222.583 C 1185.613 220.653 1190.785 222.69 1192.716 227.13 C 1194.646 231.571 1192.609 236.743 1188.169 238.673 C 1183.728 240.604 1178.556 238.566 1176.626 234.126 Z " fill="rgb(213,49,49)"/></g><g><path d=" M 1208.696 193.66 C 1206.594 188.827 1208.812 183.196 1213.646 181.094 C 1218.48 178.993 1224.11 181.211 1226.212 186.045 C 1228.314 190.878 1226.096 196.509 1221.262 198.611 C 1216.428 200.712 1210.797 198.494 1208.696 193.66 Z " fill="rgb(253,142,142)"/><path d=" M 1210.364 192.935 C 1208.662 189.022 1210.458 184.464 1214.371 182.763 C 1218.284 181.061 1222.843 182.857 1224.544 186.77 C 1226.245 190.683 1224.45 195.241 1220.536 196.943 C 1216.623 198.644 1212.065 196.848 1210.364 192.935 Z " fill="rgb(213,49,49)"/></g><g opacity="0.49"><path d=" M 1078.012 182.269 C 1035.215 199.459 1009.815 214.038 1016.141 219.215 L 1016.141 219.215 C 1025.39 226.783 1098.968 211.408 1180.348 184.901 C 1261.727 158.394 1320.288 130.729 1311.039 123.161 C 1305.451 118.588 1276.377 122.391 1236.269 131.975 C 1236.89 133.193 1237.47 134.442 1238.022 135.712 C 1238.306 136.366 1238.582 137.021 1238.844 137.679 C 1256.686 134.301 1268.851 133.479 1271.844 135.927 C 1278.634 141.484 1235.64 161.795 1175.893 181.255 C 1116.146 200.716 1062.127 212.005 1055.337 206.448 L 1055.337 206.448 C 1051.889 203.627 1061.278 197.001 1079.239 188.601 C 1078.745 186.495 1078.329 184.383 1078.012 182.269 Z " fill-rule="evenodd" fill="rgb(217,31,31)"/></g><g opacity="0.46"><path d=" M 1078.322 184.212 C 1043.598 198.627 1023.547 210.607 1028.963 215.039 L 1028.963 215.039 C 1037.407 221.949 1104.587 207.91 1178.891 183.708 C 1253.194 159.506 1306.662 134.247 1298.218 127.337 C 1293.458 123.441 1270.034 126.203 1237.134 133.718 C 1237.433 134.38 1237.731 135.043 1238.022 135.712 C 1238.545 136.914 1239.037 138.121 1239.494 139.335 C 1251.846 137.347 1260.124 137.106 1262.431 138.993 C 1268.631 144.067 1229.375 162.611 1174.823 180.38 C 1120.272 198.149 1070.949 208.456 1064.75 203.382 L 1064.75 203.382 C 1062.077 201.195 1067.854 196.503 1079.724 190.435 C 1079.163 188.368 1078.704 186.292 1078.322 184.212 Z " fill-rule="evenodd" fill="rgb(243,92,92)"/></g></g></g></svg>