<?xml version="1.0" standalone="no"?><!-- Generator: Gravit.io --><svg xmlns="http://www.w3.org/2000/svg" xmlns:xlink="http://www.w3.org/1999/xlink" style="isolation:isolate" viewBox="0 0 1920 740" width="1920" height="740"><defs><clipPath id="_clipPath_y651pKYx98HfUDDHPUyYbSWl9uEo03dm"><rect width="1920" height="740"/></clipPath></defs><g clip-path="url(#_clipPath_y651pKYx98HfUDDHPUyYbSWl9uEo03dm)"><defs><filter id="H6WFEP0yZkTFgRD3OTpy93veZcjL8ezz" x="-200%" y="-200%" width="400%" height="400%" filterUnits="objectBoundingBox" color-interpolation-filters="sRGB"><feOffset xmlns="http://www.w3.org/2000/svg" in="SourceGraphic" dx="0" dy="0"/><feGaussianBlur xmlns="http://www.w3.org/2000/svg" stdDeviation="8.587218125678056" result="pf_100_offsetBlur"/><feComposite xmlns="http://www.w3.org/2000/svg" in="SourceGraphic" in2="pf_100_offsetBlur" result="pf_100_inverse" operator="out"/><feFlood xmlns="http://www.w3.org/2000/svg" flood-color="#000000" flood-opacity="0.5" result="pf_100_color"/><feComposite xmlns="http://www.w3.org/2000/svg" in="pf_100_color" in2="pf_100_inverse" operator="in" result="pf_100_shadow"/><feComposite xmlns="http://www.w3.org/2000/svg" in="pf_100_shadow" in2="SourceGraphic" operator="over"/></filter></defs><g filter="url(#H6WFEP0yZkTFgRD3OTpy93veZcjL8ezz)"><path d=" M 892.821 -125.534 C 884.787 38.099 759.621 193.522 954.821 362.466 C 1150.021 531.41 1307.289 391.85 1486.821 598.466 C 1597.937 726.345 1759 717.127 1848 704.127 C 1960 681.793 1971.646 619.238 2092 581.127 C 2347.986 500.066 2146.483 615.782 2230.066 414.88 L 1710.063 -373.017 Q 900.855 -289.167 892.821 -125.534 Z " fill="rgb(154,104,242)"/></g><defs><filter id="2E8jGcYQgOGXeeHEgyu3lzUCrKqITzgX" x="-200%" y="-200%" width="400%" height="400%" filterUnits="objectBoundingBox" color-interpolation-filters="sRGB"><feOffset xmlns="http://www.w3.org/2000/svg" in="SourceGraphic" dx="0" dy="0"/><feGaussianBlur xmlns="http://www.w3.org/2000/svg" stdDeviation="8.587218125678056" result="pf_100_offsetBlur"/><feComposite xmlns="http://www.w3.org/2000/svg" in="SourceGraphic" in2="pf_100_offsetBlur" result="pf_100_inverse" operator="out"/><feFlood xmlns="http://www.w3.org/2000/svg" flood-color="#000000" flood-opacity="0.5" result="pf_100_color"/><feComposite xmlns="http://www.w3.org/2000/svg" in="pf_100_color" in2="pf_100_inverse" operator="in" result="pf_100_shadow"/><feComposite xmlns="http://www.w3.org/2000/svg" in="pf_100_shadow" in2="SourceGraphic" operator="over"/></filter></defs><g filter="url(#2E8jGcYQgOGXeeHEgyu3lzUCrKqITzgX)"><path d=" M 1052.331 -23.855 C 1046.59 93.084 957.141 204.156 1096.639 324.891 C 1236.138 445.627 1348.528 345.89 1476.83 493.548 C 1556.239 584.936 1671.342 578.348 1734.945 569.058 C 1814.986 553.097 1823.308 508.392 1909.319 481.156 C 2092.258 423.226 1948.255 505.923 2007.987 362.349 L 1636.37 -200.719 Q 1058.073 -140.795 1052.331 -23.855 Z " fill="rgb(102,52,187)"/></g><defs><filter id="vcOxwESVAF2YJNKieAc3lXq48l6tsJmd" x="-200%" y="-200%" width="400%" height="400%" filterUnits="objectBoundingBox" color-interpolation-filters="sRGB"><feOffset xmlns="http://www.w3.org/2000/svg" in="SourceGraphic" dx="0" dy="0"/><feGaussianBlur xmlns="http://www.w3.org/2000/svg" stdDeviation="8.587218125678056" result="pf_100_offsetBlur"/><feComposite xmlns="http://www.w3.org/2000/svg" in="SourceGraphic" in2="pf_100_offsetBlur" result="pf_100_inverse" operator="out"/><feFlood xmlns="http://www.w3.org/2000/svg" flood-color="#000000" flood-opacity="0.5" result="pf_100_color"/><feComposite xmlns="http://www.w3.org/2000/svg" in="pf_100_color" in2="pf_100_inverse" operator="in" result="pf_100_shadow"/><feComposite xmlns="http://www.w3.org/2000/svg" in="pf_100_shadow" in2="SourceGraphic" operator="over"/></filter></defs><g filter="url(#vcOxwESVAF2YJNKieAc3lXq48l6tsJmd)"><path d=" M 1116.507 -191.992 C 1110.765 -75.053 1021.316 36.019 1160.815 156.755 C 1300.313 277.49 1412.704 177.753 1541.006 325.411 C 1620.415 416.799 1735.518 410.211 1799.121 400.921 C 1879.161 384.96 1887.484 340.256 1973.495 313.019 C 2156.434 255.089 2012.431 337.786 2072.163 194.212 L 1700.545 -368.855 Q 1122.248 -308.932 1116.507 -191.992 Z " fill="rgb(33,13,68)"/></g><g><radialGradient id="_rgradient_264" fx="0.5" fy="0.5" cx="0.5" cy="0.5" r="0.5" gradientTransform="matrix(26.585,14.242,-14.242,26.585,1360.829,123.587)" gradientUnits="userSpaceOnUse"><stop offset="0%" stop-opacity="1" style="stop-color:rgb(235,235,235)"/><stop offset="98.26086956521739%" stop-opacity="0" style="stop-color:rgb(0,0,0)"/></radialGradient><path d=" M 1353.708 136.879 C 1357.638 129.543 1366.785 126.777 1374.121 130.708 C 1381.457 134.638 1384.223 143.785 1380.292 151.121 C 1376.362 158.457 1367.215 161.223 1359.879 157.292 C 1352.543 153.362 1349.777 144.215 1353.708 136.879 Z " fill="url(#_rgradient_264)"/><path d=" M 1374.563 134.103 L 1370.522 143.529 L 1376.897 151.563 L 1367.471 147.522 L 1359.437 153.897 L 1363.478 144.471 L 1357.103 136.437 L 1366.529 140.478 L 1374.563 134.103 Z " fill="rgb(235,235,235)"/></g><g><radialGradient id="_rgradient_265" fx="0.5" fy="0.5" cx="0.5" cy="0.5" r="0.5" gradientTransform="matrix(-16,0,0,-16,1554,141)" gradientUnits="userSpaceOnUse"><stop offset="0%" stop-opacity="1" style="stop-color:rgb(235,235,235)"/><stop offset="98.26086956521739%" stop-opacity="0" style="stop-color:rgb(0,0,0)"/></radialGradient><path d=" M 1554 133 C 1554 137.415 1550.415 141 1546 141 C 1541.585 141 1538 137.415 1538 133 C 1538 128.585 1541.585 125 1546 125 C 1550.415 125 1554 128.585 1554 133 Z " fill="url(#_rgradient_265)"/><path d=" M 1544.942 139.523 L 1544.471 134.103 L 1539.477 131.942 L 1544.897 131.471 L 1547.058 126.477 L 1547.529 131.897 L 1552.523 134.058 L 1547.103 134.529 L 1544.942 139.523 Z " fill="rgb(235,235,235)"/></g><g><radialGradient id="_rgradient_266" fx="0.5" fy="0.5" cx="0.5" cy="0.5" r="0.5" gradientTransform="matrix(44,0,0,44,1680,18.572)" gradientUnits="userSpaceOnUse"><stop offset="0%" stop-opacity="1" style="stop-color:rgb(235,235,235)"/><stop offset="98.26086956521739%" stop-opacity="0" style="stop-color:rgb(0,0,0)"/></radialGradient><circle vector-effect="non-scaling-stroke" cx="1702" cy="40.572328568637715" r="22" fill="url(#_rgradient_266)"/><path d=" M 1704.908 22.634 L 1706.205 37.54 L 1719.939 43.481 L 1705.032 44.778 L 1699.092 58.511 L 1697.795 43.604 L 1684.061 37.664 L 1698.968 36.367 L 1704.908 22.634 Z " fill="rgb(235,235,235)"/></g><g><radialGradient id="_rgradient_267" fx="0.5" fy="0.5" cx="0.5" cy="0.5" r="0.5" gradientTransform="matrix(14.415,0,0,14.415,1616.793,289.585)" gradientUnits="userSpaceOnUse"><stop offset="0%" stop-opacity="1" style="stop-color:rgb(235,235,235)"/><stop offset="98.26086956521739%" stop-opacity="0" style="stop-color:rgb(0,0,0)"/></radialGradient><circle vector-effect="non-scaling-stroke" cx="1623.9999999999998" cy="296.7927325660879" r="7.207267433912193" fill="url(#_rgradient_267)"/><path d=" M 1624.953 290.916 L 1625.378 295.799 L 1629.877 297.745 L 1624.993 298.17 L 1623.047 302.669 L 1622.622 297.786 L 1618.123 295.84 L 1623.007 295.415 L 1624.953 290.916 Z " fill="rgb(235,235,235)"/></g><g><radialGradient id="_rgradient_268" fx="0.5" fy="0.5" cx="0.5" cy="0.5" r="0.5" gradientTransform="matrix(22,0,0,22,1855.994,231.998)" gradientUnits="userSpaceOnUse"><stop offset="0%" stop-opacity="1" style="stop-color:rgb(235,235,235)"/><stop offset="98.26086956521739%" stop-opacity="0" style="stop-color:rgb(0,0,0)"/></radialGradient><circle vector-effect="non-scaling-stroke" cx="1866.9939691367133" cy="242.9983862212219" r="11" fill="url(#_rgradient_268)"/><path d=" M 1868.448 234.029 L 1869.097 241.482 L 1875.963 244.452 L 1868.51 245.101 L 1865.54 251.968 L 1864.891 244.514 L 1858.025 241.544 L 1865.478 240.896 L 1868.448 234.029 Z " fill="rgb(235,235,235)"/></g><g><radialGradient id="_rgradient_269" fx="0.5" fy="0.5" cx="0.5" cy="0.5" r="0.5" gradientTransform="matrix(-15.305,40.295,-40.295,-15.305,987.8,17.932)" gradientUnits="userSpaceOnUse"><stop offset="0%" stop-opacity="1" style="stop-color:rgb(235,235,235)"/><stop offset="98.69565217391305%" stop-opacity="0" style="stop-color:rgb(0,0,0)"/></radialGradient><path d=" M 967.652 10.28 C 978.772 14.504 984.371 26.96 980.148 38.08 C 975.924 49.2 963.467 54.799 952.348 50.575 C 941.228 46.352 935.629 33.895 939.852 22.775 C 944.076 11.656 956.533 6.057 967.652 10.28 Z " fill="url(#_rgradient_269)"/><path d=" M 975.417 39.331 L 961.314 35.334 L 951.097 45.844 L 955.094 31.742 L 944.583 21.525 L 958.686 25.522 L 968.903 15.011 L 964.906 29.114 L 975.417 39.331 Z " fill="rgb(235,235,235)"/></g><g><radialGradient id="_rgradient_270" fx="0.5" fy="0.5" cx="0.5" cy="0.5" r="0.5" gradientTransform="matrix(18.393,-12.07,12.07,18.393,1056.768,104.839)" gradientUnits="userSpaceOnUse"><stop offset="0%" stop-opacity="1" style="stop-color:rgb(235,235,235)"/><stop offset="98.26086956521739%" stop-opacity="0" style="stop-color:rgb(0,0,0)"/></radialGradient><path d=" M 1062.803 114.035 C 1059.473 108.96 1060.889 102.134 1065.965 98.803 C 1071.04 95.473 1077.866 96.889 1081.197 101.965 C 1084.527 107.04 1083.111 113.866 1078.035 117.197 C 1072.96 120.527 1066.134 119.111 1062.803 114.035 Z " fill="url(#_rgradient_270)"/><path d=" M 1068.295 99.703 L 1072.926 105.579 L 1080.297 104.295 L 1074.421 108.926 L 1075.705 116.297 L 1071.074 110.421 L 1063.703 111.705 L 1069.579 107.074 L 1068.295 99.703 Z " fill="rgb(235,235,235)"/></g><g><radialGradient id="_rgradient_271" fx="0.5" fy="0.5" cx="0.5" cy="0.5" r="0.5" gradientTransform="matrix(4.006,-21.632,21.632,4.006,969.181,273.813)" gradientUnits="userSpaceOnUse"><stop offset="0%" stop-opacity="1" style="stop-color:rgb(235,235,235)"/><stop offset="98.26086956521739%" stop-opacity="0" style="stop-color:rgb(0,0,0)"/></radialGradient><path d=" M 979.997 275.816 C 974.027 274.711 970.078 268.967 971.184 262.997 C 972.289 257.027 978.033 253.078 984.003 254.184 C 989.973 255.289 993.922 261.033 992.816 267.003 C 991.711 272.973 985.967 276.922 979.997 275.816 Z " fill="url(#_rgradient_271)"/><path d=" M 973.445 261.937 L 980.892 262.656 L 985.063 256.445 L 984.344 263.892 L 990.555 268.063 L 983.108 267.344 L 978.937 273.555 L 979.656 266.108 L 973.445 261.937 Z " fill="rgb(235,235,235)"/></g><g><radialGradient id="_rgradient_272" fx="0.5" fy="0.5" cx="0.5" cy="0.5" r="0.5" gradientTransform="matrix(40.126,12.1,-12.1,40.126,1199.987,292.68)" gradientUnits="userSpaceOnUse"><stop offset="0%" stop-opacity="1" style="stop-color:rgb(235,235,235)"/><stop offset="98.26086956521739%" stop-opacity="0" style="stop-color:rgb(0,0,0)"/></radialGradient><path d=" M 1193.937 312.742 C 1197.276 301.669 1208.977 295.391 1220.05 298.73 C 1231.123 302.069 1237.402 313.77 1234.063 324.843 C 1230.724 335.916 1219.023 342.195 1207.95 338.856 C 1196.877 335.516 1190.598 323.816 1193.937 312.742 Z " fill="url(#_rgradient_272)"/><path d=" M 1221.585 303.233 L 1218.669 317.184 L 1229.559 326.378 L 1215.609 323.462 L 1206.415 334.352 L 1209.331 320.401 L 1198.441 311.207 L 1212.391 314.124 L 1221.585 303.233 Z " fill="rgb(235,235,235)"/></g><g><radialGradient id="_rgradient_273" fx="0.5" fy="0.5" cx="0.5" cy="0.5" r="0.5" gradientTransform="matrix(12.132,-18.353,18.353,12.132,1599.758,446.111)" gradientUnits="userSpaceOnUse"><stop offset="0%" stop-opacity="1" style="stop-color:rgb(235,235,235)"/><stop offset="98.26086956521739%" stop-opacity="0" style="stop-color:rgb(0,0,0)"/></radialGradient><path d=" M 1608.934 452.176 C 1603.87 448.829 1602.476 441.999 1605.824 436.934 C 1609.171 431.87 1616.001 430.476 1621.066 433.824 C 1626.13 437.171 1627.524 444.001 1624.176 449.066 C 1620.829 454.13 1613.999 455.524 1608.934 452.176 Z " fill="url(#_rgradient_273)"/><path d=" M 1608.319 436.841 L 1614.895 440.41 L 1621.159 436.319 L 1617.59 442.895 L 1621.681 449.159 L 1615.105 445.59 L 1608.841 449.681 L 1612.41 443.105 L 1608.319 436.841 Z " fill="rgb(235,235,235)"/></g><g><radialGradient id="_rgradient_274" fx="0.5" fy="0.5" cx="0.5" cy="0.5" r="0.5" gradientTransform="matrix(7.492,45.89,-45.89,7.492,1621.199,567.309)" gradientUnits="userSpaceOnUse"><stop offset="0%" stop-opacity="1" style="stop-color:rgb(235,235,235)"/><stop offset="98.26086956521739%" stop-opacity="0" style="stop-color:rgb(0,0,0)"/></radialGradient><path d=" M 1598.254 571.055 C 1610.918 568.987 1622.878 577.59 1624.945 590.254 C 1627.013 602.918 1618.41 614.878 1605.746 616.945 C 1593.082 619.013 1581.122 610.41 1579.055 597.746 C 1576.987 585.082 1585.59 573.122 1598.254 571.055 Z " fill="url(#_rgradient_274)"/><path d=" M 1621.205 593.979 L 1605.878 597.87 L 1602.021 613.205 L 1598.13 597.878 L 1582.795 594.021 L 1598.122 590.13 L 1601.979 574.795 L 1605.87 590.122 L 1621.205 593.979 Z " fill="rgb(235,235,235)"/></g><g><radialGradient id="_rgradient_275" fx="0.5" fy="0.5" cx="0.5" cy="0.5" r="0.5" gradientTransform="matrix(22,0,0,22,1772,471)" gradientUnits="userSpaceOnUse"><stop offset="0%" stop-opacity="1" style="stop-color:rgb(235,235,235)"/><stop offset="98.26086956521739%" stop-opacity="0" style="stop-color:rgb(0,0,0)"/></radialGradient><circle vector-effect="non-scaling-stroke" cx="1783" cy="482" r="11" fill="url(#_rgradient_275)"/><path d=" M 1784.454 473.031 L 1785.103 480.484 L 1791.969 483.454 L 1784.516 484.103 L 1781.546 490.969 L 1780.897 483.516 L 1774.031 480.546 L 1781.484 479.897 L 1784.454 473.031 Z " fill="rgb(235,235,235)"/></g><g><radialGradient id="_rgradient_276" fx="0.5" fy="0.5" cx="0.5" cy="0.5" r="0.5" gradientTransform="matrix(19.276,10.603,-10.603,19.276,1840.661,598.699)" gradientUnits="userSpaceOnUse"><stop offset="0%" stop-opacity="1" style="stop-color:rgb(235,235,235)"/><stop offset="98.26086956521739%" stop-opacity="0" style="stop-color:rgb(0,0,0)"/></radialGradient><path d=" M 1835.36 608.337 C 1838.286 603.018 1844.98 601.074 1850.299 604 C 1855.619 606.926 1857.562 613.62 1854.636 618.94 C 1851.71 624.259 1845.016 626.203 1839.696 623.277 C 1834.377 620.351 1832.434 613.656 1835.36 608.337 Z " fill="url(#_rgradient_276)"/><path d=" M 1850.595 606.48 L 1847.571 613.324 L 1852.156 619.235 L 1845.313 616.212 L 1839.401 620.797 L 1842.425 613.953 L 1837.84 608.042 L 1844.683 611.065 L 1850.595 606.48 Z " fill="rgb(235,235,235)"/></g><g><radialGradient id="_rgradient_277" fx="0.5" fy="0.5" cx="0.5" cy="0.5" r="0.5" gradientTransform="matrix(15.859,15.248,-15.248,15.859,1866.69,405.449)" gradientUnits="userSpaceOnUse"><stop offset="0%" stop-opacity="1" style="stop-color:rgb(235,235,235)"/><stop offset="98.26086956521739%" stop-opacity="0" style="stop-color:rgb(0,0,0)"/></radialGradient><path d=" M 1859.067 413.379 C 1863.274 409.003 1870.244 408.866 1874.62 413.073 C 1878.996 417.281 1879.133 424.25 1874.926 428.627 C 1870.718 433.003 1863.749 433.14 1859.372 428.932 C 1854.996 424.725 1854.859 417.755 1859.067 413.379 Z " fill="url(#_rgradient_277)"/><path d=" M 1874.261 415.545 L 1869.563 421.367 L 1872.454 428.267 L 1866.632 423.569 L 1859.731 426.461 L 1864.43 420.638 L 1861.538 413.738 L 1867.361 418.436 L 1874.261 415.545 Z " fill="rgb(235,235,235)"/></g><g><path d=" M 1432.567 308.675 C 1516.481 317.67 1577.305 393.1 1568.31 477.014 C 1559.315 560.927 1483.885 621.752 1399.971 612.756 C 1316.057 603.761 1255.233 528.331 1264.228 444.417 C 1273.223 360.504 1348.654 299.68 1432.567 308.675 Z " fill="rgb(0,47,255)"/><path d=" M 1447.37 315.754 C 1522.793 323.839 1576.984 396.097 1568.31 477.014 C 1559.636 557.93 1491.36 617.061 1415.938 608.976 C 1340.516 600.891 1286.325 528.633 1294.998 447.716 C 1303.672 366.799 1371.948 307.669 1447.37 315.754 Z " fill="rgb(9,140,247)"/><linearGradient id="_lgradient_41" x1="0.5138888888888858" y1="-0.11175496688741693" x2="0.4999999999999999" y2="1.0000000000000007" gradientTransform="matrix(-27.94,260.641,-242.943,-26.042,1582.381,346.693)" gradientUnits="userSpaceOnUse"><stop offset="2.608695652173913%" stop-opacity="1" style="stop-color:rgb(168,233,244)"/><stop offset="97.82608695652173%" stop-opacity="1" style="stop-color:rgb(0,216,255)"/></linearGradient><path d=" M 1460.909 333.672 C 1527.951 340.858 1576.121 405.088 1568.411 477.014 C 1560.701 548.94 1500.012 601.5 1432.97 594.313 C 1365.928 587.127 1317.758 522.897 1325.468 450.971 C 1333.178 379.045 1393.867 326.485 1460.909 333.672 Z " fill="url(#_lgradient_41)"/><g><path d=" M 1355.877 330.107 C 1361.657 330.727 1365.846 335.922 1365.227 341.702 C 1364.607 347.482 1359.412 351.671 1353.632 351.052 C 1347.852 350.432 1343.662 345.237 1344.282 339.457 C 1344.902 333.677 1350.097 329.488 1355.877 330.107 Z " fill="rgb(9,140,247)"/><path d=" M 1320.511 359.602 C 1326.291 360.222 1330.481 365.418 1329.861 371.197 C 1329.242 376.977 1324.046 381.167 1318.266 380.547 C 1312.486 379.928 1308.297 374.732 1308.916 368.952 C 1309.536 363.172 1314.732 358.983 1320.511 359.602 Z " fill="rgb(9,140,247)"/><path d=" M 1293.297 432.954 C 1305.441 434.255 1314.243 445.172 1312.942 457.316 C 1311.64 469.46 1300.724 478.262 1288.58 476.96 C 1276.436 475.659 1267.633 464.742 1268.935 452.598 C 1270.237 440.454 1281.153 431.652 1293.297 432.954 Z " fill="rgb(9,140,247)"/></g><g><path d=" M 1471.047 363.886 C 1495.685 366.527 1513.544 388.675 1510.903 413.313 C 1508.262 437.951 1486.115 455.81 1461.477 453.169 C 1436.838 450.528 1418.98 428.38 1421.621 403.742 C 1424.262 379.104 1446.409 361.245 1471.047 363.886 Z " fill="rgb(9,140,247)"/><path d=" M 1394.173 409.464 C 1408.745 413.369 1417.406 428.369 1413.501 442.941 C 1409.597 457.512 1394.596 466.173 1380.024 462.268 C 1365.453 458.364 1356.792 443.364 1360.697 428.792 C 1364.601 414.22 1379.602 405.56 1394.173 409.464 Z " fill="rgb(9,140,247)"/><path d=" M 1343.85 491.871 C 1353.178 494.371 1358.722 503.973 1356.223 513.301 C 1353.723 522.63 1344.121 528.174 1334.793 525.674 C 1325.464 523.175 1319.92 513.572 1322.42 504.244 C 1324.919 494.916 1334.522 489.372 1343.85 491.871 Z " fill="rgb(18,217,253)"/><path d=" M 1330.888 434.698 C 1336.952 436.323 1340.556 442.566 1338.932 448.63 C 1337.307 454.695 1331.064 458.299 1325 456.674 C 1318.935 455.049 1315.331 448.806 1316.956 442.742 C 1318.581 436.678 1324.824 433.073 1330.888 434.698 Z " fill="rgb(18,217,253)"/><path d=" M 1353.266 384.938 C 1363.988 387.811 1370.361 398.849 1367.488 409.571 C 1364.615 420.293 1353.577 426.666 1342.855 423.793 C 1332.133 420.92 1325.76 409.882 1328.633 399.16 C 1331.506 388.437 1342.544 382.065 1353.266 384.938 Z " fill="rgb(18,217,253)"/><path d=" M 1386.891 354.602 C 1392.955 356.227 1396.559 362.469 1394.934 368.534 C 1393.309 374.598 1387.067 378.202 1381.002 376.577 C 1374.938 374.952 1371.334 368.71 1372.959 362.645 C 1374.584 356.581 1380.826 352.977 1386.891 354.602 Z " fill="rgb(18,217,253)"/><path d=" M 1438.256 454.076 C 1448.341 456.778 1454.336 467.16 1451.633 477.246 C 1448.931 487.331 1438.549 493.326 1428.463 490.623 C 1418.378 487.921 1412.384 477.539 1415.086 467.453 C 1417.788 457.368 1428.17 451.374 1438.256 454.076 Z " fill="rgb(9,140,247)"/><path d=" M 1391.995 479.941 C 1402.081 482.643 1408.075 493.025 1405.373 503.111 C 1402.67 513.196 1392.288 519.19 1382.203 516.488 C 1372.117 513.786 1366.123 503.404 1368.825 493.318 C 1371.528 483.233 1381.91 477.238 1391.995 479.941 Z " fill="rgb(9,140,247)"/></g></g><g><circle vector-effect="non-scaling-stroke" cx="1688" cy="180.9999999999999" r="84" fill="rgb(29,111,68)"/><ellipse vector-effect="non-scaling-stroke" cx="1688" cy="172.49999999999997" rx="81" ry="75.5" fill="rgb(70,195,93)"/><linearGradient id="_lgradient_42" x1="0.5138888888888858" y1="-0.11175496688741693" x2="0.4999999999999999" y2="1.0000000000000007" gradientTransform="matrix(144,0,0,134.222,1616,97)" gradientUnits="userSpaceOnUse"><stop offset="1.7391304347826086%" stop-opacity="1" style="stop-color:rgb(177,253,191)"/><stop offset="97.82608695652173%" stop-opacity="1" style="stop-color:rgb(93,217,115)"/></linearGradient><ellipse vector-effect="non-scaling-stroke" cx="1688" cy="164.11111111111111" rx="72" ry="67.11111111111114" fill="url(#_lgradient_42)"/><g><circle vector-effect="non-scaling-stroke" cx="1733.4999999999998" cy="215.5" r="10.5" fill="rgb(166,248,181)"/><circle vector-effect="non-scaling-stroke" cx="1733.4999999999995" cy="215.50000000000003" r="8.5" fill="rgb(70,195,93)"/></g><g><circle vector-effect="non-scaling-stroke" cx="1716.2222222222222" cy="222.22222222222226" r="5.222222222222399" fill="rgb(166,248,181)"/><circle vector-effect="non-scaling-stroke" cx="1716.2222222222224" cy="222.2222222222223" r="4.227513227513327" fill="rgb(70,195,93)"/></g><g><circle vector-effect="non-scaling-stroke" cx="1657.7777777777776" cy="226" r="4.222222222222399" fill="rgb(166,248,181)"/><circle vector-effect="non-scaling-stroke" cx="1657.777777777778" cy="226.00000000000003" r="3.417989417989702" fill="rgb(70,195,93)"/></g><g><circle vector-effect="non-scaling-stroke" cx="1675.7777777777774" cy="234.4444444444449" r="4.222222222222399" fill="rgb(166,248,181)"/><circle vector-effect="non-scaling-stroke" cx="1675.777777777778" cy="234.44444444444494" r="3.417989417989702" fill="rgb(70,195,93)"/></g><g><circle vector-effect="non-scaling-stroke" cx="1721.4444444444443" cy="122.77777777777769" r="5.222222222222399" fill="rgb(166,248,181)"/><circle vector-effect="non-scaling-stroke" cx="1721.4444444444443" cy="122.77777777777773" r="4.227513227513327" fill="rgb(70,195,93)"/></g><g><circle vector-effect="non-scaling-stroke" cx="1754.9999999999998" cy="155.11111111111106" r="9" fill="rgb(166,248,181)"/><circle vector-effect="non-scaling-stroke" cx="1755" cy="155.1111111111111" r="7.285714285714221" fill="rgb(70,195,93)"/></g><g><circle vector-effect="non-scaling-stroke" cx="1732.449735449735" cy="235.22751322751324" r="4.227513227513327" fill="rgb(70,195,93)"/></g><g><circle vector-effect="non-scaling-stroke" cx="1698.7724867724864" cy="245.77248677248656" r="8.772486772486445" fill="rgb(70,195,93)"/></g></g><g><path d=" M 1083.954 202.698 C 1065.469 160.182 1084.979 110.656 1127.495 92.171 C 1170.011 73.686 1219.537 93.196 1238.022 135.712 C 1256.507 178.228 1236.997 227.753 1194.481 246.239 C 1151.965 264.724 1102.44 245.214 1083.954 202.698 Z " fill="rgb(217,31,31)"/><path d=" M 1083.316 193.707 C 1066.702 155.493 1086.497 109.996 1127.495 92.171 C 1168.493 74.346 1215.267 90.899 1231.882 129.113 C 1248.496 167.327 1228.7 212.823 1187.703 230.649 C 1146.705 248.474 1099.931 231.921 1083.316 193.707 Z " fill="rgb(213,49,49)"/><linearGradient id="_lgradient_43" x1="0.5138888888888858" y1="-0.11175496688741693" x2="0.4999999999999999" y2="1.0000000000000007" gradientTransform="matrix(132.058,-57.417,53.518,123.091,1061.466,120.879)" gradientUnits="userSpaceOnUse"><stop offset="1.7391304347826086%" stop-opacity="1" style="stop-color:rgb(255,151,151)"/><stop offset="98.26086956521739%" stop-opacity="1" style="stop-color:rgb(240,75,75)"/></linearGradient><path d=" M 1088.225 182.425 C 1073.456 148.457 1091.053 108.016 1127.495 92.171 C 1163.938 76.326 1205.514 91.04 1220.283 125.008 C 1235.052 158.976 1217.455 199.418 1181.013 215.262 C 1144.571 231.107 1102.994 216.393 1088.225 182.425 Z " fill="url(#_lgradient_43)"/><g><path d=" M 1147.343 224.207 C 1146.414 222.07 1147.394 219.58 1149.531 218.651 C 1151.668 217.722 1154.158 218.703 1155.087 220.84 C 1156.016 222.977 1155.035 225.466 1152.898 226.395 C 1150.761 227.325 1148.272 226.344 1147.343 224.207 Z " fill="rgb(253,142,142)"/><path d=" M 1148.08 223.886 C 1147.328 222.156 1148.122 220.141 1149.852 219.389 C 1151.582 218.637 1153.597 219.431 1154.349 221.161 C 1155.102 222.891 1154.308 224.906 1152.578 225.658 C 1150.848 226.41 1148.833 225.616 1148.08 223.886 Z " fill="rgb(213,49,49)"/></g><g><path d=" M 1175.043 211.563 C 1172.281 205.211 1175.196 197.812 1181.548 195.05 C 1187.901 192.288 1195.3 195.203 1198.062 201.555 C 1200.824 207.907 1197.909 215.307 1191.557 218.069 C 1185.204 220.83 1177.805 217.916 1175.043 211.563 Z " fill="rgb(253,142,142)"/><path d=" M 1177.235 210.61 C 1175 205.468 1177.359 199.478 1182.502 197.242 C 1187.644 195.006 1193.634 197.366 1195.87 202.508 C 1198.106 207.651 1195.746 213.641 1190.604 215.876 C 1185.461 218.112 1179.471 215.752 1177.235 210.61 Z " fill="rgb(213,49,49)"/></g><g><path d=" M 1226.172 178.429 C 1225.413 176.683 1226.214 174.649 1227.96 173.89 C 1229.706 173.131 1231.74 173.932 1232.5 175.678 C 1233.259 177.424 1232.457 179.458 1230.711 180.217 C 1228.965 180.976 1226.931 180.175 1226.172 178.429 Z " fill="rgb(253,142,142)"/><path d=" M 1226.775 178.167 C 1226.16 176.753 1226.809 175.107 1228.222 174.492 C 1229.636 173.878 1231.282 174.526 1231.897 175.94 C 1232.511 177.353 1231.863 179 1230.449 179.614 C 1229.036 180.229 1227.389 179.58 1226.775 178.167 Z " fill="rgb(213,49,49)"/></g><g><path d=" M 1159.521 116.412 C 1156.056 108.442 1159.713 99.159 1167.682 95.694 C 1175.652 92.23 1184.935 95.886 1188.4 103.856 C 1191.865 111.825 1188.208 121.108 1180.238 124.573 C 1172.269 128.038 1162.986 124.381 1159.521 116.412 Z " fill="rgb(213,49,49)"/></g><g><path d=" M 1143.017 125.248 C 1141.811 122.476 1143.083 119.246 1145.856 118.041 C 1148.628 116.836 1151.857 118.108 1153.063 120.88 C 1154.268 123.652 1152.996 126.882 1150.223 128.087 C 1147.451 129.292 1144.222 128.02 1143.017 125.248 Z " fill="rgb(213,49,49)"/></g><g><path d=" M 1159.213 129.873 C 1158.438 128.09 1159.256 126.013 1161.039 125.238 C 1162.822 124.462 1164.899 125.281 1165.675 127.064 C 1166.45 128.847 1165.632 130.924 1163.848 131.699 C 1162.065 132.474 1159.988 131.656 1159.213 129.873 Z " fill="rgb(213,49,49)"/></g><g><path d=" M 1202.952 218.07 C 1202.022 215.93 1203.004 213.438 1205.143 212.508 C 1207.283 211.577 1209.776 212.559 1210.706 214.699 C 1211.636 216.839 1210.654 219.331 1208.515 220.261 C 1206.375 221.192 1203.882 220.21 1202.952 218.07 Z " fill="rgb(213,49,49)"/></g><g><path d=" M 1217.433 197.593 C 1215.501 193.15 1217.54 187.975 1221.982 186.043 C 1226.425 184.111 1231.601 186.15 1233.532 190.593 C 1235.464 195.036 1233.425 200.211 1228.982 202.143 C 1224.539 204.074 1219.364 202.036 1217.433 197.593 Z " fill="rgb(213,49,49)"/></g><g><path d=" M 1176.626 234.126 C 1174.695 229.686 1176.733 224.514 1181.173 222.583 C 1185.613 220.653 1190.785 222.69 1192.716 227.13 C 1194.646 231.571 1192.609 236.743 1188.169 238.673 C 1183.728 240.604 1178.556 238.566 1176.626 234.126 Z " fill="rgb(213,49,49)"/></g><g><path d=" M 1208.696 193.66 C 1206.594 188.827 1208.812 183.196 1213.646 181.094 C 1218.48 178.993 1224.11 181.211 1226.212 186.045 C 1228.314 190.878 1226.096 196.509 1221.262 198.611 C 1216.428 200.712 1210.797 198.494 1208.696 193.66 Z " fill="rgb(253,142,142)"/><path d=" M 1210.364 192.935 C 1208.662 189.022 1210.458 184.464 1214.371 182.763 C 1218.284 181.061 1222.843 182.857 1224.544 186.77 C 1226.245 190.683 1224.45 195.241 1220.536 196.943 C 1216.623 198.644 1212.065 196.848 1210.364 192.935 Z " fill="rgb(213,49,49)"/></g><g opacity="0.49"><path d=" M 1078.012 182.269 C 1035.215 199.459 1009.815 214.038 1016.141 219.215 L 1016.141 219.215 C 1025.39 226.783 1098.968 211.408 1180.348 184.901 C 1261.727 158.394 1320.288 130.729 1311.039 123.161 C 1305.451 118.588 1276.377 122.391 1236.269 131.975 C 1236.89 133.193 1237.47 134.442 1238.022 135.712 C 1238.306 136.366 1238.582 137.021 1238.844 137.679 C 1256.686 134.301 1268.851 133.479 1271.844 135.927 C 1278.634 141.484 1235.64 161.795 1175.893 181.255 C 1116.146 200.716 1062.127 212.005 1055.337 206.448 L 1055.337 206.448 C 1051.889 203.627 1061.278 197.001 1079.239 188.601 C 1078.745 186.495 1078.329 184.383 1078.012 182.269 Z " fill-rule="evenodd" fill="rgb(217,31,31)"/></g><g opacity="0.46"><path d=" M 1078.322 184.212 C 1043.598 198.627 1023.547 210.607 1028.963 215.039 L 1028.963 215.039 C 1037.407 221.949 1104.587 207.91 1178.891 183.708 C 1253.194 159.506 1306.662 134.247 1298.218 127.337 C 1293.458 123.441 1270.034 126.203 1237.134 133.718 C 1237.433 134.38 1237.731 135.043 1238.022 135.712 C 1238.545 136.914 1239.037 138.121 1239.494 139.335 C 1251.846 137.347 1260.124 137.106 1262.431 138.993 C 1268.631 144.067 1229.375 162.611 1174.823 180.38 C 1120.272 198.149 1070.949 208.456 1064.75 203.382 L 1064.75 203.382 C 1062.077 201.195 1067.854 196.503 1079.724 190.435 C 1079.163 188.368 1078.704 186.292 1078.322 184.212 Z " fill-rule="evenodd" fill="rgb(243,92,92)"/></g></g><g><radialGradient id="_rgradient_278" fx="0.5" fy="0.5" cx="0.5" cy="0.5" r="0.5" gradientTransform="matrix(14,0,0,14,1286,-106)" gradientUnits="userSpaceOnUse"><stop offset="0%" stop-opacity="1" style="stop-color:rgb(235,235,235)"/><stop offset="98.26086956521739%" stop-opacity="0" style="stop-color:rgb(0,0,0)"/></radialGradient><circle vector-effect="non-scaling-stroke" cx="1293" cy="-99" r="7" fill="url(#_rgradient_278)"/><path d=" M 1293.925 -104.708 L 1294.338 -99.965 L 1298.708 -98.075 L 1293.965 -97.662 L 1292.075 -93.292 L 1291.662 -98.035 L 1287.292 -99.925 L 1292.035 -100.338 L 1293.925 -104.708 Z " fill="rgb(235,235,235)"/></g><g><radialGradient id="_rgradient_279" fx="0.5" fy="0.5" cx="0.5" cy="0.5" r="0.5" gradientTransform="matrix(6.927,15.452,-15.452,6.927,1441.002,20.338)" gradientUnits="userSpaceOnUse"><stop offset="0%" stop-opacity="1" style="stop-color:rgb(235,235,235)"/><stop offset="98.26086956521739%" stop-opacity="0" style="stop-color:rgb(0,0,0)"/></radialGradient><path d=" M 1433.276 23.802 C 1437.54 21.89 1442.554 23.8 1444.465 28.064 C 1446.377 32.329 1444.467 37.342 1440.203 39.254 C 1435.939 41.165 1430.925 39.255 1429.013 34.991 C 1427.102 30.727 1429.012 25.713 1433.276 23.802 Z " fill="url(#_rgradient_279)"/><path d=" M 1443.497 29.725 L 1438.466 32.527 L 1438.542 38.285 L 1435.74 33.255 L 1429.982 33.331 L 1435.013 30.528 L 1434.937 24.77 L 1437.739 29.801 L 1443.497 29.725 Z " fill="rgb(235,235,235)"/></g><g><radialGradient id="_rgradient_280" fx="0.5" fy="0.5" cx="0.5" cy="0.5" r="0.5" gradientTransform="matrix(17.32,-13.566,13.566,17.32,1202.559,-27.875)" gradientUnits="userSpaceOnUse"><stop offset="0%" stop-opacity="1" style="stop-color:rgb(235,235,235)"/><stop offset="98.26086956521739%" stop-opacity="0" style="stop-color:rgb(0,0,0)"/></radialGradient><path d=" M 1209.342 -19.216 C 1205.598 -23.995 1206.439 -30.915 1211.219 -34.658 C 1215.998 -38.402 1222.918 -37.561 1226.661 -32.781 C 1230.405 -28.002 1229.564 -21.082 1224.784 -17.339 C 1220.005 -13.595 1213.085 -14.436 1209.342 -19.216 Z " fill="url(#_rgradient_280)"/><path d=" M 1213.616 -33.956 L 1218.722 -28.489 L 1225.959 -30.384 L 1220.492 -25.278 L 1222.387 -18.041 L 1217.281 -23.508 L 1210.044 -21.613 L 1215.511 -26.719 L 1213.616 -33.956 Z " fill="rgb(235,235,235)"/></g><g><radialGradient id="_rgradient_281" fx="0.5" fy="0.5" cx="0.5" cy="0.5" r="0.5" gradientTransform="matrix(6.549,-21.003,21.003,6.549,1499.63,-70.773)" gradientUnits="userSpaceOnUse"><stop offset="0%" stop-opacity="1" style="stop-color:rgb(235,235,235)"/><stop offset="98.26086956521739%" stop-opacity="0" style="stop-color:rgb(0,0,0)"/></radialGradient><path d=" M 1510.131 -67.499 C 1504.335 -69.306 1501.097 -75.478 1502.904 -81.274 C 1504.711 -87.07 1510.884 -90.309 1516.68 -88.501 C 1522.475 -86.694 1525.714 -80.522 1523.907 -74.726 C 1522.099 -68.93 1515.927 -65.691 1510.131 -67.499 Z " fill="url(#_rgradient_281)"/><path d=" M 1505.275 -82.058 L 1512.584 -80.459 L 1517.463 -86.13 L 1515.864 -78.821 L 1521.535 -73.942 L 1514.227 -75.541 L 1509.347 -69.87 L 1510.947 -77.179 L 1505.275 -82.058 Z " fill="rgb(235,235,235)"/></g></g></svg>