<?xml version="1.0" standalone="no"?><!-- Generator: Gravit.io --><svg xmlns="http://www.w3.org/2000/svg" xmlns:xlink="http://www.w3.org/1999/xlink" style="isolation:isolate" viewBox="0 0 500 150" width="500" height="150"><defs><clipPath id="_clipPath_hqJEEQDe6W2zIN67eno9LwCGHqdec39C"><rect width="500" height="150"/></clipPath></defs><g clip-path="url(#_clipPath_hqJEEQDe6W2zIN67eno9LwCGHqdec39C)"><clipPath id="_clipPath_ewUt5OmZjOng7Q2xlyxfVadXoB20KQV2"><path d=" M 2.962 0 L 497.038 0 L 497.038 150 L 2.962 150 L 2.962 0 Z " fill="rgb(255,255,255)"/></clipPath><g clip-path="url(#_clipPath_ewUt5OmZjOng7Q2xlyxfVadXoB20KQV2)"><g><path d=" M 22.611 42.711 L 31.398 42.711 L 31.654 48.682 Q 37.597 41.716 47.692 41.716 Q 59.066 41.716 63.133 50.417 Q 65.834 46.493 70.156 44.104 Q 74.479 41.716 80.393 41.716 Q 98.194 41.716 98.479 60.569 L 98.479 96.796 L 89.237 96.796 L 89.237 61.109 Q 89.237 55.308 86.592 52.436 Q 83.948 49.564 77.692 49.564 Q 72.545 49.564 69.161 52.635 Q 65.749 55.706 65.18 60.882 L 65.18 96.796 L 55.853 96.796 L 55.853 61.365 Q 55.853 49.564 44.308 49.564 Q 35.209 49.564 31.882 57.299 L 31.882 96.796 L 22.583 96.796 L 22.583 42.711 L 22.611 42.711 Z  M 155.493 96.796 L 145.796 96.796 Q 145 95.204 144.488 91.109 Q 138.033 97.791 129.076 97.791 Q 121.114 97.791 115.995 93.242 Q 110.848 88.749 110.848 81.81 Q 110.848 73.365 117.275 68.673 Q 123.701 64.009 135.332 64.009 L 144.346 64.009 L 144.346 59.716 Q 144.346 54.882 141.445 52.009 Q 138.545 49.137 132.915 49.137 Q 127.938 49.137 124.583 51.64 Q 121.256 54.142 121.256 57.668 L 111.957 57.668 Q 111.957 53.63 114.801 49.848 Q 117.701 46.066 122.621 43.877 Q 127.54 41.687 133.427 41.687 Q 142.81 41.687 148.071 46.351 Q 153.389 51.014 153.588 59.232 L 153.588 84.114 Q 153.588 91.564 155.493 95.972 L 155.493 96.768 L 155.493 96.796 Z  M 130.441 89.744 Q 134.791 89.744 138.687 87.469 Q 142.583 85.251 144.346 81.64 L 144.346 70.55 L 137.095 70.55 Q 120.09 70.55 120.09 80.502 Q 120.09 84.853 122.991 87.299 Q 125.891 89.744 130.441 89.744 Z  M 178.128 20.019 L 178.128 96.796 L 168.886 96.796 L 168.886 20.019 L 178.128 20.019 Z  M 214.611 90.256 Q 219.559 90.256 223.256 87.242 Q 226.953 84.256 227.351 79.763 L 236.137 79.763 Q 235.882 84.398 232.924 88.578 Q 229.995 92.787 225.076 95.289 Q 220.156 97.791 214.64 97.791 Q 203.607 97.791 197.066 90.398 Q 190.526 83.033 190.526 70.237 L 190.526 68.701 Q 190.526 60.796 193.455 54.654 Q 196.355 48.512 201.758 45.1 Q 207.19 41.687 214.583 41.687 Q 223.682 41.687 229.711 47.147 Q 235.739 52.607 236.137 61.308 L 227.379 61.308 Q 226.981 56.047 223.398 52.692 Q 219.844 49.28 214.583 49.28 Q 207.559 49.28 203.664 54.398 Q 199.796 59.46 199.796 69.043 L 199.796 70.806 Q 199.796 80.161 203.635 85.194 Q 207.502 90.256 214.64 90.256 L 214.611 90.256 Z  M 244.043 69.896 L 244.043 69.242 Q 244.043 61.28 247.171 54.967 Q 250.299 48.597 255.872 45.156 Q 261.446 41.716 268.611 41.716 Q 279.645 41.716 286.469 49.365 Q 293.294 57.014 293.294 69.697 L 293.294 70.351 Q 293.294 78.256 290.28 84.512 Q 287.237 90.768 281.607 94.294 Q 276.005 97.791 268.697 97.791 Q 257.692 97.791 250.867 90.142 Q 244.043 82.493 244.043 69.896 Z  M 253.37 70.351 Q 253.37 79.336 257.521 84.796 Q 261.701 90.256 268.697 90.256 Q 275.749 90.256 279.9 84.711 Q 284.052 79.194 284.052 69.242 Q 284.052 60.341 279.815 54.825 Q 275.607 49.308 268.611 49.308 Q 261.758 49.308 257.55 54.739 Q 253.37 60.199 253.37 70.351 Z  M 302.649 70.009 L 302.649 69.299 Q 302.649 56.844 308.536 49.28 Q 314.45 41.716 323.976 41.716 Q 333.474 41.716 339.047 48.199 L 339.047 20.019 L 348.289 20.019 L 348.289 96.796 L 339.758 96.796 L 339.36 90.995 Q 333.815 97.791 323.919 97.791 Q 314.536 97.791 308.592 90.114 Q 302.678 82.408 302.678 70.009 L 302.649 70.009 Z  M 311.891 70.351 Q 311.891 79.536 315.673 84.739 Q 319.483 89.943 326.194 89.943 Q 334.981 89.943 339.019 82.038 L 339.019 57.213 Q 334.867 49.536 326.28 49.536 Q 319.483 49.536 315.673 54.796 Q 311.891 60.057 311.891 70.351 Z " fill-rule="evenodd" fill="rgb(255,255,255)"/><path d=" M 299.948 131.773 L 296.962 131.773 Q 296.735 131.289 296.592 130.066 Q 294.602 132.085 291.872 132.085 Q 289.427 132.085 287.891 130.72 Q 286.299 129.327 286.299 127.194 Q 286.299 124.635 288.289 123.213 Q 290.223 121.791 293.777 121.791 L 296.536 121.791 L 296.536 120.483 Q 296.536 118.976 295.654 118.123 Q 294.773 117.242 293.038 117.242 Q 291.531 117.242 290.479 118.009 Q 289.483 118.749 289.483 119.858 L 286.64 119.858 Q 286.64 118.607 287.493 117.469 Q 288.403 116.303 289.91 115.621 Q 291.417 114.967 293.209 114.967 Q 296.052 114.967 297.673 116.389 Q 299.294 117.81 299.379 120.313 L 299.379 127.962 Q 299.379 130.237 299.948 131.573 L 299.948 131.829 L 299.948 131.773 Z  M 292.27 129.64 Q 293.607 129.64 294.829 128.957 Q 295.995 128.246 296.536 127.166 L 296.536 123.754 L 294.318 123.754 Q 289.114 123.754 289.114 126.796 Q 289.114 128.133 290.024 128.872 Q 290.877 129.64 292.299 129.64 L 292.27 129.64 Z  M 317.749 123.441 L 317.749 123.725 Q 317.749 127.479 316.043 129.782 Q 314.308 132.085 311.351 132.085 Q 308.336 132.085 306.602 130.18 L 306.602 138.142 L 303.787 138.142 L 303.787 115.251 L 306.346 115.251 L 306.517 117.1 Q 308.223 114.967 311.294 114.967 Q 314.28 114.967 316.014 117.213 Q 317.749 119.46 317.749 123.469 L 317.749 123.441 Z  M 314.905 123.384 Q 314.905 120.597 313.739 118.976 Q 312.545 117.355 310.469 117.355 Q 307.91 117.355 306.602 119.63 L 306.602 127.536 Q 307.882 129.81 310.498 129.81 Q 312.517 129.81 313.711 128.19 Q 314.934 126.569 314.934 123.384 L 314.905 123.384 Z  M 335.294 123.441 L 335.294 123.725 Q 335.294 127.479 333.588 129.782 Q 331.853 132.085 328.896 132.085 Q 325.882 132.085 324.175 130.18 L 324.175 138.142 L 321.332 138.142 L 321.332 115.251 L 323.919 115.251 L 324.062 117.1 Q 325.768 114.967 328.867 114.967 Q 331.825 114.967 333.559 117.213 Q 335.294 119.46 335.294 123.469 L 335.294 123.441 Z  M 332.45 123.384 Q 332.45 120.597 331.284 118.976 Q 330.09 117.355 328.014 117.355 Q 325.455 117.355 324.175 119.63 L 324.175 127.536 Q 325.427 129.81 328.043 129.81 Q 330.062 129.81 331.284 128.19 Q 332.479 126.569 332.479 123.384 L 332.45 123.384 Z  M 341.948 108.313 L 341.948 131.773 L 339.104 131.773 L 339.104 108.341 L 341.948 108.341 L 341.948 108.313 Z  M 349.54 115.251 L 349.54 131.773 L 346.697 131.773 L 346.697 115.28 L 349.54 115.28 L 349.54 115.251 Z  M 346.498 110.9 Q 346.498 110.218 346.924 109.763 Q 347.322 109.28 348.147 109.28 Q 349 109.28 349.398 109.735 Q 349.853 110.218 349.853 110.9 Q 349.853 111.583 349.398 112.038 Q 348.972 112.521 348.147 112.521 Q 347.322 112.521 346.924 112.066 Q 346.498 111.583 346.498 110.929 L 346.498 110.9 Z  M 360.716 129.81 Q 362.194 129.81 363.332 128.9 Q 364.469 127.991 364.583 126.626 L 367.256 126.626 Q 367.199 128.047 366.289 129.299 Q 365.379 130.607 363.872 131.346 Q 362.365 132.114 360.687 132.114 Q 357.332 132.114 355.341 129.867 Q 353.351 127.592 353.351 123.697 L 353.351 123.242 Q 353.351 120.825 354.204 118.948 Q 355.114 117.071 356.763 116.019 Q 358.412 114.995 360.687 114.995 Q 363.474 114.995 365.294 116.645 Q 367.142 118.322 367.284 120.967 L 364.583 120.967 Q 364.469 119.374 363.389 118.322 Q 362.28 117.299 360.687 117.299 Q 358.526 117.299 357.332 118.863 Q 356.166 120.398 356.166 123.327 L 356.166 123.896 Q 356.166 126.739 357.332 128.275 Q 358.498 129.81 360.687 129.81 L 360.716 129.81 Z  M 383.607 131.801 L 380.649 131.801 Q 380.393 131.318 380.251 130.095 Q 378.261 132.114 375.531 132.114 Q 373.085 132.114 371.55 130.749 Q 369.957 129.355 369.957 127.223 Q 369.957 124.664 371.948 123.242 Q 373.882 121.82 377.464 121.82 L 380.194 121.82 L 380.194 120.512 Q 380.194 119.005 379.341 118.152 Q 378.431 117.27 376.697 117.27 Q 375.19 117.27 374.166 118.038 Q 373.142 118.777 373.142 119.886 L 370.299 119.886 Q 370.299 118.635 371.18 117.498 Q 372.062 116.332 373.569 115.649 Q 375.076 114.995 376.867 114.995 Q 379.711 114.995 381.332 116.417 Q 382.953 117.839 383.038 120.341 L 383.038 127.962 Q 383.038 130.237 383.607 131.573 L 383.607 131.829 L 383.607 131.801 Z  M 375.929 129.668 Q 377.294 129.668 378.488 128.986 Q 379.654 128.275 380.194 127.194 L 380.194 123.782 L 377.976 123.782 Q 372.801 123.782 372.801 126.825 Q 372.801 128.161 373.654 128.9 Q 374.564 129.668 375.929 129.668 L 375.929 129.668 Z  M 388.441 111.299 L 391.284 111.299 L 391.284 115.28 L 394.384 115.28 L 394.384 117.469 L 391.284 117.469 L 391.284 127.706 Q 391.284 128.73 391.711 129.213 Q 392.109 129.697 393.133 129.697 Q 393.588 129.697 394.441 129.526 L 394.441 131.801 Q 393.332 132.114 392.28 132.114 Q 390.403 132.114 389.436 130.976 Q 388.469 129.839 388.469 127.735 L 388.469 117.498 L 385.455 117.498 L 385.455 115.28 L 388.469 115.28 L 388.469 111.299 L 388.441 111.299 Z  M 400.754 115.28 L 400.754 131.801 L 397.91 131.801 L 397.91 115.308 L 400.754 115.308 L 400.754 115.28 Z  M 397.654 110.9 Q 397.654 110.218 398.081 109.763 Q 398.507 109.28 399.332 109.28 Q 400.156 109.28 400.583 109.735 Q 401.009 110.218 401.009 110.9 Q 401.009 111.583 400.583 112.038 Q 400.156 112.521 399.332 112.521 Q 398.479 112.521 398.081 112.066 Q 397.654 111.583 397.654 110.929 L 397.654 110.9 Z  M 404.479 123.611 L 404.479 123.412 Q 404.479 120.967 405.445 119.033 Q 406.384 117.1 408.09 116.047 Q 409.796 114.995 411.986 114.995 Q 415.37 114.995 417.445 117.327 Q 419.521 119.659 419.521 123.526 L 419.521 123.725 Q 419.521 126.142 418.611 128.076 Q 417.673 129.981 415.967 131.062 Q 414.261 132.114 412.014 132.114 Q 408.659 132.114 406.583 129.782 Q 404.479 127.45 404.479 123.611 Z  M 407.322 123.725 Q 407.322 126.483 408.602 128.161 Q 409.882 129.81 412.014 129.81 Q 414.175 129.81 415.427 128.104 Q 416.706 126.427 416.706 123.412 Q 416.706 120.682 415.427 119.005 Q 414.118 117.299 411.986 117.299 Q 409.882 117.299 408.602 118.976 Q 407.322 120.626 407.322 123.725 L 407.322 123.725 Z  M 423.076 115.28 L 425.749 115.28 L 425.834 117.355 Q 427.739 114.995 430.782 114.995 Q 436.014 114.995 436.071 120.91 L 436.071 131.829 L 433.227 131.829 L 433.227 120.853 Q 433.227 119.062 432.431 118.209 Q 431.635 117.355 429.929 117.355 Q 428.564 117.355 427.512 118.095 Q 426.488 118.806 425.891 120 L 425.891 131.773 L 423.076 131.773 L 423.076 115.28 L 423.076 115.28 Z  M 449.948 127.422 Q 449.948 126.284 449.095 125.659 Q 448.242 125.005 446.081 124.55 Q 443.948 124.095 442.668 123.469 Q 441.417 122.815 440.82 121.934 Q 440.223 121.052 440.223 119.829 Q 440.223 117.782 441.929 116.417 Q 443.635 114.995 446.336 114.995 Q 449.123 114.995 450.886 116.417 Q 452.621 117.896 452.621 120.142 L 449.777 120.142 Q 449.777 119.005 448.81 118.152 Q 447.815 117.299 446.308 117.299 Q 444.772 117.299 443.919 117.981 Q 443.038 118.664 443.038 119.744 Q 443.038 120.768 443.834 121.28 Q 444.659 121.791 446.763 122.275 Q 448.896 122.73 450.175 123.412 Q 451.512 124.066 452.166 124.976 Q 452.791 125.915 452.791 127.251 Q 452.791 129.441 451 130.777 Q 449.237 132.114 446.422 132.114 Q 444.431 132.114 442.896 131.431 Q 441.36 130.72 440.507 129.441 Q 439.654 128.19 439.654 126.739 L 442.498 126.739 Q 442.554 128.161 443.635 128.986 Q 444.659 129.839 446.422 129.839 Q 448.014 129.839 448.981 129.156 Q 449.948 128.531 449.948 127.45 L 449.948 127.422 Z  M 232.071 115.28 L 236.024 127.934 L 239.18 115.28 L 242.024 115.28 L 237.19 131.801 L 234.915 131.801 L 230.905 119.289 L 226.981 131.801 L 224.706 131.801 L 219.872 115.308 L 222.716 115.308 L 225.957 127.649 L 229.796 115.28 L 232.071 115.28 Z  M 251.749 132.114 Q 248.365 132.114 246.261 129.924 Q 244.156 127.706 244.156 124.009 L 244.156 123.498 Q 244.156 121.024 245.095 119.09 Q 246.033 117.156 247.739 116.076 Q 249.417 114.995 251.379 114.995 Q 254.621 114.995 256.412 117.1 Q 258.175 119.232 258.175 123.185 L 258.175 124.351 L 247 124.351 Q 247.057 126.796 248.422 128.332 Q 249.787 129.81 251.891 129.81 Q 253.398 129.81 254.45 129.213 Q 255.474 128.588 256.242 127.592 L 257.948 128.929 Q 255.9 132.114 251.749 132.114 L 251.749 132.114 Z  M 251.379 117.327 Q 249.673 117.327 248.536 118.55 Q 247.341 119.801 247.085 122.047 L 255.36 122.047 L 255.36 121.82 Q 255.246 119.687 254.223 118.493 Q 253.171 117.299 251.379 117.299 L 251.379 117.327 Z  M 275.436 123.498 L 275.436 123.725 Q 275.436 127.536 273.701 129.81 Q 271.967 132.114 269.038 132.114 Q 265.91 132.114 264.204 129.896 L 264.062 131.801 L 261.446 131.801 L 261.446 108.341 L 264.289 108.341 L 264.289 117.1 Q 265.995 114.995 269.009 114.995 Q 271.995 114.995 273.73 117.27 Q 275.436 119.545 275.436 123.498 L 275.436 123.498 Z  M 272.592 123.412 Q 272.592 120.54 271.512 118.948 Q 270.374 117.384 268.299 117.384 Q 265.512 117.384 264.289 119.972 L 264.289 127.137 Q 265.569 129.697 268.327 129.697 Q 270.346 129.697 271.483 128.161 Q 272.621 126.569 272.621 123.412 L 272.592 123.412 Z  M 159.986 123.498 L 159.986 123.725 Q 159.986 127.536 158.28 129.81 Q 156.517 132.114 153.588 132.114 Q 150.46 132.114 148.754 129.896 L 148.611 131.801 L 146.024 131.801 L 146.024 108.341 L 148.867 108.341 L 148.867 117.1 Q 150.573 114.995 153.559 114.995 Q 156.573 114.995 158.28 117.27 Q 159.986 119.545 159.986 123.498 L 159.986 123.498 Z  M 157.171 123.412 Q 157.171 120.54 156.062 118.948 Q 154.953 117.384 152.848 117.384 Q 150.062 117.384 148.867 119.972 L 148.867 127.137 Q 150.147 129.697 152.877 129.697 Q 154.924 129.697 156.062 128.161 Q 157.199 126.569 157.199 123.412 L 157.171 123.412 Z  M 173.834 131.801 L 173.777 130.18 Q 172.128 132.114 168.943 132.114 Q 166.299 132.114 164.905 130.578 Q 163.512 129.043 163.483 126.028 L 163.483 115.28 L 166.327 115.28 L 166.327 125.972 Q 166.327 129.725 169.398 129.725 Q 172.611 129.725 173.692 127.308 L 173.692 115.28 L 176.536 115.28 L 176.536 131.801 L 173.834 131.801 L 173.834 131.801 Z  M 183.872 115.308 L 183.872 131.801 L 181.028 131.801 L 181.028 115.308 L 183.872 115.308 Z  M 180.829 110.9 Q 180.829 110.218 181.256 109.763 Q 181.654 109.28 182.479 109.28 Q 183.332 109.28 183.758 109.735 Q 184.156 110.218 184.156 110.9 Q 184.156 111.583 183.758 112.038 Q 183.303 112.521 182.479 112.521 Q 181.654 112.521 181.256 112.066 Q 180.829 111.583 180.829 110.929 L 180.829 110.9 Z  M 191.464 108.341 L 191.464 131.801 L 188.621 131.801 L 188.621 108.341 L 191.464 108.341 L 191.464 108.341 Z  M 195.303 123.64 L 195.303 123.412 Q 195.303 119.602 197.095 117.299 Q 198.915 114.995 201.815 114.995 Q 204.744 114.995 206.422 116.986 L 206.422 108.341 L 209.265 108.341 L 209.265 131.801 L 206.649 131.801 L 206.507 130.038 Q 204.801 132.114 201.787 132.114 Q 198.943 132.114 197.123 129.782 Q 195.303 127.422 195.303 123.64 Z  M 198.147 123.725 Q 198.147 126.569 199.284 128.133 Q 200.45 129.725 202.498 129.725 Q 205.199 129.725 206.422 127.308 L 206.422 119.716 Q 205.142 117.384 202.526 117.384 Q 200.45 117.384 199.284 118.976 Q 198.147 120.597 198.147 123.725 L 198.147 123.725 Z  M 111.218 111.299 L 114.062 111.299 L 114.062 115.28 L 117.133 115.28 L 117.133 117.469 L 114.062 117.469 L 114.062 127.706 Q 114.062 128.73 114.46 129.213 Q 114.886 129.697 115.882 129.697 Q 116.365 129.697 117.218 129.526 L 117.218 131.801 Q 116.081 132.114 115.028 132.114 Q 113.152 132.114 112.185 130.976 Q 111.218 129.839 111.218 127.735 L 111.218 117.498 L 108.232 117.498 L 108.232 115.28 L 111.218 115.28 L 111.218 111.299 Z  M 119.692 123.611 L 119.692 123.412 Q 119.692 120.967 120.63 119.033 Q 121.597 117.1 123.303 116.047 Q 125.009 114.995 127.199 114.995 Q 130.554 114.995 132.659 117.327 Q 134.735 119.659 134.735 123.526 L 134.735 123.725 Q 134.735 126.142 133.796 128.076 Q 132.886 129.981 131.152 131.062 Q 129.445 132.114 127.227 132.114 Q 123.844 132.114 121.768 129.782 Q 119.692 127.45 119.692 123.611 Z  M 122.536 123.725 Q 122.536 126.483 123.815 128.161 Q 125.066 129.81 127.227 129.81 Q 129.36 129.81 130.64 128.104 Q 131.919 126.427 131.919 123.412 Q 131.919 120.682 130.611 119.005 Q 129.332 117.299 127.199 117.299 Q 125.095 117.299 123.787 118.976 Q 122.536 120.626 122.536 123.725 Z  M 27.645 109.536 L 27.645 129.384 L 38.166 129.384 L 38.166 131.773 L 24.687 131.773 L 24.687 109.536 L 27.645 109.536 Z  M 47.919 132.085 Q 44.564 132.085 42.46 129.896 Q 40.355 127.678 40.355 123.981 L 40.355 123.469 Q 40.355 120.995 41.294 119.062 Q 42.232 117.128 43.91 116.047 Q 45.616 114.967 47.607 114.967 Q 50.791 114.967 52.583 117.071 Q 54.374 119.204 54.374 123.156 L 54.374 124.322 L 43.171 124.322 Q 43.227 126.768 44.592 128.303 Q 45.986 129.782 48.09 129.782 Q 49.569 129.782 50.621 129.185 Q 51.645 128.559 52.441 127.564 L 54.147 128.9 Q 52.071 132.085 47.919 132.085 Z  M 47.578 117.299 Q 45.872 117.299 44.735 118.521 Q 43.54 119.773 43.284 122.019 L 51.531 122.019 L 51.531 121.791 Q 51.417 119.659 50.393 118.464 Q 49.341 117.27 47.578 117.27 L 47.578 117.299 Z  M 70.81 131.801 L 67.853 131.801 Q 67.597 131.289 67.455 130.038 Q 65.464 132.085 62.735 132.085 Q 60.289 132.085 58.754 130.72 Q 57.161 129.327 57.161 127.194 Q 57.161 124.635 59.152 123.213 Q 61.085 121.791 64.668 121.791 L 67.398 121.791 L 67.398 120.483 Q 67.398 118.976 66.545 118.123 Q 65.635 117.242 63.9 117.242 Q 62.393 117.242 61.37 118.009 Q 60.346 118.749 60.346 119.858 L 57.502 119.858 Q 57.502 118.607 58.384 117.469 Q 59.265 116.303 60.773 115.621 Q 62.28 114.967 64.071 114.967 Q 66.915 114.967 68.564 116.389 Q 70.156 117.81 70.242 120.313 L 70.242 127.962 Q 70.242 130.237 70.81 131.573 L 70.81 131.829 L 70.81 131.801 Z  M 63.133 129.64 Q 64.498 129.64 65.692 128.957 Q 66.858 128.246 67.398 127.166 L 67.398 123.754 L 65.18 123.754 Q 60.005 123.754 60.005 126.796 Q 60.005 128.133 60.858 128.872 Q 61.768 129.64 63.133 129.64 Z  M 82.64 115.166 L 82.64 117.782 Q 82.014 117.697 81.246 117.697 Q 78.488 117.697 77.493 120.057 L 77.493 131.801 L 74.649 131.801 L 74.649 115.251 L 77.408 115.251 L 77.464 117.156 Q 78.829 114.967 81.389 114.967 Q 82.242 114.967 82.64 115.166 Z  M 85.256 115.251 L 87.929 115.251 L 88.014 117.327 Q 89.891 114.967 92.962 114.967 Q 98.194 114.967 98.251 120.882 L 98.251 131.801 L 95.408 131.801 L 95.408 120.853 Q 95.408 119.062 94.611 118.209 Q 93.787 117.355 92.109 117.355 Q 90.716 117.355 89.692 118.095 Q 88.64 118.806 88.071 120 L 88.071 131.773 L 85.227 131.773 L 85.227 115.28 L 85.256 115.251 Z " fill-rule="evenodd" fill="rgb(192,153,255)"/><path d=" M 420.403 70.009 L 420.403 69.299 Q 420.403 56.844 426.289 49.28 Q 432.175 41.716 441.73 41.716 Q 451.227 41.716 456.801 48.199 L 456.801 20.019 L 466.043 20.019 L 466.043 96.796 L 457.512 96.796 L 457.085 90.995 Q 451.54 97.791 441.645 97.791 Q 432.261 97.791 426.318 90.114 Q 420.403 82.408 420.403 70.009 L 420.403 70.009 Z  M 429.645 70.351 Q 429.645 79.536 433.427 84.739 Q 437.237 89.943 443.948 89.943 Q 452.735 89.943 456.773 82.038 L 456.773 57.213 Q 452.621 49.536 444.033 49.536 Q 437.237 49.536 433.427 54.796 Q 429.645 60.057 429.645 70.351 Z " fill-rule="evenodd" fill="rgb(255,255,255)"/><path d=" M 371.209 24.284 L 402.886 24.284 C 405.964 24.284 408.46 26.78 408.46 29.858 C 408.46 32.936 405.964 35.431 402.886 35.431 L 371.209 35.431 C 368.13 35.431 365.635 32.936 365.635 29.858 C 365.635 26.78 368.13 24.284 371.209 24.284 Z  M 371.209 86.332 L 402.886 86.332 C 405.957 86.332 408.46 88.806 408.46 91.877 C 408.46 94.948 405.957 97.45 402.886 97.45 L 371.209 97.45 C 368.13 97.45 365.635 94.955 365.635 91.877 C 365.635 88.799 368.13 86.303 371.209 86.303 L 371.209 86.332 Z  M 371.209 55.052 L 402.886 55.052 C 405.957 55.052 408.46 57.526 408.46 60.597 C 408.46 63.668 405.957 66.171 402.886 66.171 L 371.209 66.171 C 368.13 66.171 365.635 63.675 365.635 60.597 C 365.635 57.519 368.13 55.024 371.209 55.024 L 371.209 55.052 Z  M 369.957 70.948 L 386.848 70.948 C 389.209 70.948 391.142 72.882 391.142 75.242 L 391.142 77.801 C 391.142 80.161 389.209 82.066 386.848 82.066 L 369.929 82.066 C 367.54 82.066 365.607 80.161 365.607 77.801 L 365.607 75.242 C 365.607 72.882 367.54 70.948 369.929 70.948 L 369.957 70.948 Z  M 369.957 39.668 L 386.848 39.668 C 389.209 39.668 391.142 41.602 391.142 43.962 L 391.142 46.521 C 391.142 48.882 389.209 50.787 386.848 50.787 L 369.929 50.787 C 367.54 50.787 365.607 48.882 365.607 46.521 L 365.607 43.962 C 365.607 41.602 367.54 39.668 369.929 39.668 L 369.957 39.668 Z " fill="rgb(192,153,255)"/></g></g></g></svg>