<svg xmlns="http://www.w3.org/2000/svg" width="1000" height="1000" style="isolation:isolate"><defs><clipPath id="a"><path d="M0 0h1000v1000H0z"/></clipPath></defs><g clip-path="url(#a)"><defs><filter id="b" width="400%" height="400%" x="-200%" y="-200%" color-interpolation-filters="sRGB" filterUnits="objectBoundingBox"><feOffset xmlns="http://www.w3.org/2000/svg" in="SourceGraphic"/><feGaussianBlur xmlns="http://www.w3.org/2000/svg" result="pf_100_offsetBlur" stdDeviation="8.59"/><feComposite xmlns="http://www.w3.org/2000/svg" in="SourceGraphic" in2="pf_100_offsetBlur" operator="out" result="pf_100_inverse"/><feFlood xmlns="http://www.w3.org/2000/svg" flood-color="#000" flood-opacity=".5" result="pf_100_color"/><feComposite xmlns="http://www.w3.org/2000/svg" in="pf_100_color" in2="pf_100_inverse" operator="in" result="pf_100_shadow"/><feComposite xmlns="http://www.w3.org/2000/svg" in="pf_100_shadow" in2="SourceGraphic"/></filter></defs><g filter="url(#b)"><circle cx="500" cy="500" r="500" fill="#9A68F2" vector-effect="non-scaling-stroke"/><clipPath id="c"><circle cx="500" cy="500" r="500" fill="#9A68F2" vector-effect="non-scaling-stroke"/></clipPath><g clip-path="url(#c)"><path fill="#6634BB" d="M-95.19 806.6c20.21-179.12 315.8-293.03 659.66-254.24 343.87 38.8 606.65 215.7 586.44 394.82-20.2 179.11-315.8 293.03-659.66 254.24C147.38 1162.62-115.4 985.7-95.2 806.6z"/></g></g><defs><filter id="d" width="400%" height="400%" x="-200%" y="-200%" color-interpolation-filters="sRGB" filterUnits="objectBoundingBox"><feOffset xmlns="http://www.w3.org/2000/svg" in="SourceGraphic"/><feGaussianBlur xmlns="http://www.w3.org/2000/svg" result="pf_100_offsetBlur" stdDeviation="8.59"/><feComposite xmlns="http://www.w3.org/2000/svg" in="SourceGraphic" in2="pf_100_offsetBlur" operator="out" result="pf_100_inverse"/><feFlood xmlns="http://www.w3.org/2000/svg" flood-color="#000" flood-opacity=".75" result="pf_100_color"/><feComposite xmlns="http://www.w3.org/2000/svg" in="pf_100_color" in2="pf_100_inverse" operator="in" result="pf_100_shadow"/><feComposite xmlns="http://www.w3.org/2000/svg" in="pf_100_shadow" in2="SourceGraphic"/></filter></defs><g filter="url(#d)"><path fill="#210D44" d="M489.13 916.56c-1.9 2.98-13.74 9.98-27.19 9.98-15 0-27.97-8.7-32.4-17.71a7.33 7.33 0 0 0-5.77-3.72C210.9 898.25 37 720.01 37 501.46c0-222.97 181.03-404 404-404s404 181.03 404 404c0 89.03-28.86 171.37-73.01 231.7A9.48 9.48 0 0 0 773 745.2c14.45 14.04 27 41.49 27 71.84 0 59.62-48.42 108.03-108.04 108.03-27.12 0-51.9-10-59.57-16.68-6.24-5.44-13.38-3.46-15.95 4.4-4.37 13.44-30.41 33.47-61.1 33.47-26.66 0-49.83-15.13-57.2-29.3-2.29-4.4-6.33-4.58-9-.4z"/><clipPath id="e"><path fill="#210D44" d="M489.13 916.56c-1.9 2.98-13.74 9.98-27.19 9.98-15 0-27.97-8.7-32.4-17.71a7.33 7.33 0 0 0-5.77-3.72C210.9 898.25 37 720.01 37 501.46c0-222.97 181.03-404 404-404s404 181.03 404 404c0 89.03-28.86 171.37-73.01 231.7A9.48 9.48 0 0 0 773 745.2c14.45 14.04 27 41.49 27 71.84 0 59.62-48.42 108.03-108.04 108.03-27.12 0-51.9-10-59.57-16.68-6.24-5.44-13.38-3.46-15.95 4.4-4.37 13.44-30.41 33.47-61.1 33.47-26.66 0-49.83-15.13-57.2-29.3-2.29-4.4-6.33-4.58-9-.4z"/></clipPath><g clip-path="url(#e)"><path fill="#6634BB" d="M-95.19 808.06c20.21-179.11 315.8-293.03 659.66-254.24 343.87 38.8 606.65 215.71 586.44 394.82-20.2 179.12-315.8 293.04-659.66 254.24-343.87-38.8-606.64-215.7-586.44-394.82z"/><ellipse cx="441" cy="446.68" fill="#210D44" rx="238.44" ry="212.05" vector-effect="non-scaling-stroke"/><path fill="#6C63FF" d="M440.08 775.02a311.54 311.54 0 0 0 172.07-51.5c-11.53-63.04-55.43-66.63-55.43-66.63H314.64s-41.43 3.4-54.37 61.39a311.6 311.6 0 0 0 179.81 56.74z"/><circle cx="436.76" cy="454.14" r="151.1" fill="#333" vector-effect="non-scaling-stroke"/><path d="M388 580h96.8v77.45a48.4 48.4 0 1 1-96.8 0l.01-77.46H388z" opacity=".1"/><path fill="#FDB797" d="M391.06 576.4h90.72a3.07 3.07 0 0 1 3.07 3.07v74.39a48.4 48.4 0 0 1-48.43 48.41 48.4 48.4 0 0 1-48.4-48.4v-74.4a3.07 3.07 0 0 1 3.04-3.07z"/><path d="M388.17 616.55a139.34 139.34 0 0 0 96.81.27V604.9h-96.81v11.64z" opacity=".1"/><circle cx="436.76" cy="484.26" r="138.77" fill="#FDB797" vector-effect="non-scaling-stroke"/><path d="M337.91 358.03s58.49 118.72 223.46 49.78l-38.4-60.23-68.1-24.44-116.96 34.9z" opacity=".1"/><path fill="#333" d="M337.91 356.3S396.4 475 561.37 406.04l-38.4-60.23-68.1-24.44-116.96 34.91z"/><path fill="#333" d="M337.4 348.25a80.17 80.17 0 0 1 19.87-32.32c27.3-26.99 72.05-32.68 95-63.44 5.5 8.53 1.25 21.67-8.25 25.33 22-.15 47.48-2.07 59.91-20.16A41.13 41.13 0 0 1 497 301.1c19.49.92 40.31 14.12 41.54 33.59.84 12.97-7.33 25.25-17.95 32.69-10.62 7.44-23.56 10.86-36.25 13.65-37.05 8.19-171.12 42.43-146.94-32.77z"/><ellipse cx="297.93" cy="484.13" fill="#FDB797" rx="12.91" ry="24.21" vector-effect="non-scaling-stroke"/><ellipse cx="575.51" cy="484.13" fill="#FDB797" rx="12.91" ry="24.21" vector-effect="non-scaling-stroke"/><linearGradient id="f" x1=".15" x2=".89" y1=".02" y2=".93" gradientTransform="matrix(476.881 0 0 424.1 202.56 234.63)" gradientUnits="userSpaceOnUse"><stop offset="1.74%" stop-opacity=".5"/><stop offset="99.13%" stop-color="#6634bb" stop-opacity=".5"/></linearGradient><ellipse cx="441" cy="446.68" fill="url(#f)" rx="238.44" ry="212.05" vector-effect="non-scaling-stroke"/><linearGradient id="g" x2="1" y1=".5" y2=".5" gradientTransform="matrix(711.776 0 0 739.394 102 225.46)" gradientUnits="userSpaceOnUse"><stop offset="0%" stop-color="#fff"/><stop offset="100%" stop-color="#edfbff"/></linearGradient><path fill="url(#g)" fill-rule="evenodd" d="M676.79 545l-.9 130.36h18.38c6.87 0 12.45 5.58 12.45 12.45 0 2.14-.54 4.15-1.5 5.9h14.38a13.7 13.7 0 0 1 13.7 13.7h.47a80.05 80.05 0 0 1 80 80v97.44a80.05 80.05 0 0 1-80 80H182a80.05 80.05 0 0 1-80.01-80v-97.43a80.04 80.04 0 0 1 48.37-73.49 13.7 13.7 0 0 1 12.02-20.21h14.38a12.45 12.45 0 0 1 10.96-18.35h13.2V545.64h-57.72a9.17 9.17 0 0 1-9.16-9.17v-98.3c0-5.06 4.1-9.17 9.16-9.17h48.56c.2 0 .39 0 .58.02a197.4 197.4 0 0 1 4.3-27.12 203.42 203.42 0 0 1 14.56-41.69 214.67 214.67 0 0 1 22.98-37.62 229.72 229.72 0 0 1 30.33-32.68A245.57 245.57 0 0 1 301.18 263a258.02 258.02 0 0 1 41.99-20.27 267.04 267.04 0 0 1 46.34-12.8c16.38-2.98 33-4.47 49.66-4.47 16.66 0 33.28 1.49 49.66 4.47 15.8 2.86 31.31 7.14 46.34 12.8a258.02 258.02 0 0 1 42 20.27 245.57 245.57 0 0 1 36.65 26.92 229.65 229.65 0 0 1 30.33 32.68 214.61 214.61 0 0 1 22.98 37.62 203.53 203.53 0 0 1 14.56 41.68c2.06 8.94 3.5 18 4.3 27.11h45c5.07 0 9.17 4.11 9.17 9.17v98.3c0 5.06-4.1 9.17-9.16 9.17l-54-.65h-.21zm-8.34-98.33v.01c0 13.68-1.55 27.32-4.62 40.65a184.93 184.93 0 0 1-13.24 37.9 196.3 196.3 0 0 1-21.02 34.42 211.68 211.68 0 0 1-27.92 30.08 227.28 227.28 0 0 1-33.92 24.9 240.05 240.05 0 0 1-39.01 18.85c-14 5.26-28.44 9.25-43.16 11.92a258.17 258.17 0 0 1-46.38 4.17h-.02c-15.55 0-31.08-1.39-46.38-4.17a248.87 248.87 0 0 1-43.16-11.92 240.05 240.05 0 0 1-39.01-18.84 227.28 227.28 0 0 1-33.93-24.9 211.63 211.63 0 0 1-27.92-30.09 196.3 196.3 0 0 1-21.01-34.41 184.81 184.81 0 0 1-13.25-37.91 180.62 180.62 0 0 1-4.6-40.66c-.01-13.68 1.53-27.32 4.6-40.65a184.92 184.92 0 0 1 13.25-37.9 196 196 0 0 1 21.01-34.42 211.7 211.7 0 0 1 27.92-30.09 227.22 227.22 0 0 1 33.93-24.9 238.58 238.58 0 0 1 39.01-18.83 249.7 249.7 0 0 1 43.16-11.93 259.08 259.08 0 0 1 46.39-4.16 259.1 259.1 0 0 1 46.4 4.16 249.7 249.7 0 0 1 43.15 11.93 238.58 238.58 0 0 1 39.01 18.84 227.22 227.22 0 0 1 33.92 24.9 211.75 211.75 0 0 1 27.92 30.08 196 196 0 0 1 21.02 34.42 184.92 184.92 0 0 1 13.24 37.9 181.12 181.12 0 0 1 4.62 40.65zM151.67 464.3a12.26 12.26 0 1 1 24.53.01 12.26 12.26 0 0 1-24.52-.01zm0 44.12a12.26 12.26 0 1 1 24.53.02 12.26 12.26 0 0 1-24.52-.02zm539.24-44.12a12.26 12.26 0 1 1 24.52.01 12.26 12.26 0 0 1-24.52-.01zm0 44.12a12.26 12.26 0 1 1 24.52.02 12.26 12.26 0 0 1-24.52-.02z"/><path fill="#FFF" d="M256.07 393.09a10 10 0 1 1-18.65-7.22A157.5 157.5 0 0 1 248.49 363a204.34 204.34 0 0 1 13.93-20.68 273.84 273.84 0 0 1 15.57-18.61 399.95 399.95 0 0 1 16.08-16.61 9.99 9.99 0 1 1 13.97 14.31 386.27 386.27 0 0 0-15.29 15.8 256.44 256.44 0 0 0-14.45 17.27 182.87 182.87 0 0 0-12.57 18.66 137.89 137.89 0 0 0-9.66 19.95zM325.92 304.78a10.02 10.02 0 0 1-14.9-10.93 9.96 9.96 0 0 1 4.53-6.17c1.59-.97 3.17-1.96 4.74-2.98 2.79-1.82 5.62-3.58 8.5-5.26a79 79 0 0 1 10.36-5.1 10 10 0 1 1 7.51 18.53 60.87 60.87 0 0 0-7.77 3.83 178.1 178.1 0 0 0-7.68 4.75 180.69 180.69 0 0 1-5.29 3.33z"/></g></g><g opacity=".39"><radialGradient id="h" cx=".5" cy=".5" r=".5" fx=".5" fy=".5" gradientTransform="matrix(36.205 24.74 -22.32 32.664 699.84 84.8)" gradientUnits="userSpaceOnUse"><stop offset="0%" stop-color="#ebebeb"/><stop offset="98.26%" stop-color="#fff" stop-opacity="0"/></radialGradient><path fill="url(#h)" d="M688.68 101.14c6.16-9.02 19.27-10.8 29.27-3.97 9.99 6.83 13.1 19.7 6.94 28.7-6.16 9.02-19.27 10.8-29.27 3.97-9.99-6.83-13.1-19.7-6.94-28.7z"/></g><path fill="#EBEBEB" d="M718.28 101.82l-6.5 11.8 8.29 12.13-12.92-7.42-11.86 6.86 6.5-11.8-8.3-12.13 12.93 7.42 11.86-6.86z"/><g opacity=".39"><radialGradient id="i" cx=".5" cy=".5" r=".5" fx=".5" fy=".5" gradientTransform="matrix(21.507 8.344 -7.528 19.404 793 186.9)" gradientUnits="userSpaceOnUse"><stop offset="0%" stop-color="#ebebeb"/><stop offset="98.26%" stop-color="#fff" stop-opacity="0"/></radialGradient><path fill="url(#i)" d="M789.24 196.6c2.08-5.36 8.58-7.84 14.51-5.54 5.94 2.3 9.07 8.52 7 13.88-2.08 5.35-8.59 7.83-14.52 5.53-5.94-2.3-9.07-8.52-7-13.88z"/></g><path fill="#EBEBEB" d="M804.48 193.4l-1.91 6.82 5.7 5.23-7.52-2.25-5.25 4.92 1.92-6.81-5.7-5.23 7.5 2.26 5.26-4.93z"/><g opacity=".39"><radialGradient id="j" cx=".5" cy=".5" r=".5" fx=".5" fy=".5" gradientTransform="matrix(21.507 8.344 -7.528 19.404 330.4 66.12)" gradientUnits="userSpaceOnUse"><stop offset="0%" stop-color="#ebebeb"/><stop offset="98.26%" stop-color="#fff" stop-opacity="0"/></radialGradient><path fill="url(#j)" d="M326.64 75.82c2.08-5.35 8.58-7.83 14.52-5.53 5.93 2.3 9.07 8.52 6.99 13.88-2.08 5.35-8.58 7.83-14.52 5.52-5.93-2.3-9.07-8.51-6.99-13.87z"/></g><path fill="#EBEBEB" d="M341.89 72.63l-1.92 6.82 5.7 5.23-7.51-2.26-5.26 4.93 1.92-6.82-5.7-5.22 7.51 2.25 5.26-4.93z"/><g opacity=".39"><radialGradient id="k" cx=".5" cy=".5" r=".5" fx=".5" fy=".5" gradientTransform="matrix(15.938 16.678 -15.047 14.379 89.6 240.89)" gradientUnits="userSpaceOnUse"><stop offset="0%" stop-color="#ebebeb"/><stop offset="98.26%" stop-color="#fff" stop-opacity="0"/></radialGradient><path fill="url(#k)" d="M82.07 248.08c4.16-3.97 11.1-3.45 15.5 1.15s4.6 11.56.44 15.53c-4.15 3.97-11.1 3.45-15.5-1.15-4.39-4.6-4.59-11.56-.44-15.53z"/></g><path fill="#EBEBEB" d="M97.23 251.66l-4.63 5.36 2.95 7.15-5.85-5.23-6.84 2.24 4.62-5.37-2.94-7.14 5.84 5.22 6.85-2.23z"/><g opacity=".39"><radialGradient id="l" cx=".5" cy=".5" r=".5" fx=".5" fy=".5" gradientTransform="matrix(10.361 10.842 -9.782 9.347 43.67 329.44)" gradientUnits="userSpaceOnUse"><stop offset="0%" stop-color="#ebebeb"/><stop offset="98.26%" stop-color="#fff" stop-opacity="0"/></radialGradient><path fill="url(#l)" d="M38.78 334.12c2.7-2.58 7.2-2.25 10.07.74 2.86 3 2.99 7.52.29 10.1s-7.22 2.24-10.07-.75c-2.86-3-3-7.51-.3-10.1z"/></g><path fill="#EBEBEB" d="M48.63 336.44l-3 3.49 1.9 4.64-3.8-3.4-4.45 1.46 3.01-3.49-1.91-4.64 3.8 3.4 4.45-1.46z"/><g opacity=".39"><radialGradient id="m" cx=".5" cy=".5" r=".5" fx=".5" fy=".5" gradientTransform="matrix(14.832 2.215 -1.998 13.381 14.1 434.63)" gradientUnits="userSpaceOnUse"><stop offset="0%" stop-color="#ebebeb"/><stop offset="98.26%" stop-color="#fff" stop-opacity="0"/></radialGradient><path fill="url(#m)" d="M13.1 441.32c.55-3.7 4.32-6.2 8.42-5.58 4.09.61 6.96 4.1 6.41 7.8-.55 3.69-4.32 6.2-8.41 5.58-4.1-.61-6.97-4.1-6.42-7.8z"/></g><path fill="#EBEBEB" d="M22.31 437.12l-.24 4.6 4.36 2.5-5.08-.36-2.63 3.88.24-4.6-4.36-2.5 5.08.36 2.63-3.88z"/><g opacity=".39"><radialGradient id="n" cx=".5" cy=".5" r=".5" fx=".5" fy=".5" gradientTransform="matrix(22.969 -6.774 5.887 19.963 149.96 156.86)" gradientUnits="userSpaceOnUse"><stop offset="0%" stop-color="#ebebeb"/><stop offset="98.26%" stop-color="#fff" stop-opacity="0"/></radialGradient><path fill="url(#n)" d="M152.9 166.84c-1.62-5.51 2.2-11.5 8.55-13.37 6.34-1.87 12.8 1.09 14.42 6.6 1.63 5.5-2.2 11.5-8.54 13.36-6.34 1.87-12.8-1.08-14.42-6.6z"/></g><path fill="#EBEBEB" d="M163.5 154.87l2.68 6.56 7.96.58-7.6 2.88-1.27 7.15-2.67-6.57-7.96-.58 7.6-2.88 1.27-7.14z"/><g opacity=".39"><radialGradient id="o" cx=".5" cy=".5" r=".5" fx=".5" fy=".5" gradientTransform="matrix(16.884 15.72 -14.182 15.233 225.63 98.03)" gradientUnits="userSpaceOnUse"><stop offset="0%" stop-color="#ebebeb"/><stop offset="98.26%" stop-color="#fff" stop-opacity="0"/></radialGradient><path fill="url(#o)" d="M218.53 105.64c3.92-4.2 10.88-4.09 15.54.25 4.66 4.34 5.26 11.27 1.35 15.47-3.91 4.2-10.88 4.1-15.53-.24-4.66-4.34-5.27-11.27-1.35-15.48z"/></g><path fill="#EBEBEB" d="M233.88 108.33l-4.31 5.63 3.35 6.96-6.13-4.88-6.71 2.64 4.3-5.63-3.35-6.96 6.14 4.88 6.7-2.64z"/><g opacity=".39"><radialGradient id="p" cx=".5" cy=".5" r=".5" fx=".5" fy=".5" gradientTransform="matrix(16.884 15.72 -14.182 15.233 225.63 98.03)" gradientUnits="userSpaceOnUse"><stop offset="0%" stop-color="#ebebeb"/><stop offset="98.26%" stop-color="#fff" stop-opacity="0"/></radialGradient><path fill="url(#p)" d="M218.53 105.64c3.92-4.2 10.88-4.09 15.54.25 4.66 4.34 5.26 11.27 1.35 15.47-3.91 4.2-10.88 4.1-15.53-.24-4.66-4.34-5.27-11.27-1.35-15.48z"/></g><path fill="#EBEBEB" d="M233.88 108.33l-4.31 5.63 3.35 6.96-6.13-4.88-6.71 2.64 4.3-5.63-3.35-6.96 6.14 4.88 6.7-2.64z"/><g><g opacity=".39"><radialGradient id="q" cx=".5" cy=".5" r=".5" fx=".5" fy=".5" gradientTransform="matrix(19.168 -12.836 11.581 17.293 884.16 253.95)" gradientUnits="userSpaceOnUse"><stop offset="0%" stop-color="#ebebeb"/><stop offset="98.26%" stop-color="#fff" stop-opacity="0"/></radialGradient><path fill="url(#q)" d="M889.95 262.6c-3.2-4.78-1.5-11.53 3.79-15.07 5.29-3.54 12.18-2.54 15.37 2.23 3.2 4.77 1.5 11.52-3.79 15.06-5.29 3.55-12.18 2.55-15.37-2.23z"/></g><path fill="#EBEBEB" d="M896.08 248.28l4.48 5.48 7.55-1.67-6.15 4.85 1.02 7.13-4.48-5.47-7.55 1.67 6.15-4.86-1.02-7.13z"/></g><g><g opacity=".39"><radialGradient id="r" cx=".5" cy=".5" r=".5" fx=".5" fy=".5" gradientTransform="matrix(50.941 29.415 -26.538 45.959 844.33 296.42)" gradientUnits="userSpaceOnUse"><stop offset="0%" stop-color="#ebebeb"/><stop offset="98.26%" stop-color="#fff" stop-opacity="0"/></radialGradient><path fill="url(#r)" d="M831.06 319.4c7.32-12.68 24.68-16.39 38.74-8.27 14.06 8.12 19.52 25 12.2 37.69-7.32 12.68-24.68 16.39-38.74 8.27-14.06-8.12-19.52-25-12.2-37.69z"/></g><path fill="#EBEBEB" d="M870.72 317.32l-7.5 16.43 12.32 15.39-18.04-8.61-15.16 10.37 7.5-16.44-12.33-15.38 18.05 8.61 15.16-10.37z"/></g><g><g opacity=".39"><radialGradient id="s" cx=".5" cy=".5" r=".5" fx=".5" fy=".5" gradientTransform="matrix(16.487 16.136 -14.558 14.874 898.57 379.5)" gradientUnits="userSpaceOnUse"><stop offset="0%" stop-color="#ebebeb"/><stop offset="98.26%" stop-color="#fff" stop-opacity="0"/></radialGradient><path fill="url(#s)" d="M891.29 386.93c4.01-4.1 10.97-3.82 15.52.63 4.55 4.46 4.98 11.4.96 15.51-4.01 4.1-10.97 3.82-15.52-.63-4.55-4.45-4.98-11.4-.96-15.5z"/></g><path fill="#EBEBEB" d="M906.55 390l-4.44 5.52 3.18 7.04-6.01-5.02-6.77 2.46 4.44-5.51-3.18-7.05 6.01 5.03 6.77-2.47z"/></g><g><g opacity=".39"><radialGradient id="t" cx=".5" cy=".5" r=".5" fx=".5" fy=".5" gradientTransform="matrix(18.845 -13.305 12.004 17.002 943.1 485.56)" gradientUnits="userSpaceOnUse"><stop offset="0%" stop-color="#ebebeb"/><stop offset="98.26%" stop-color="#fff" stop-opacity="0"/></radialGradient><path fill="url(#t)" d="M949.1 494.06c-3.3-4.69-1.77-11.48 3.43-15.15s12.11-2.84 15.42 1.85c3.31 4.7 1.78 11.48-3.42 15.15s-12.11 2.85-15.42-1.85z"/></g><path fill="#EBEBEB" d="M954.88 479.6l4.62 5.37 7.5-1.86-6.02 5.01 1.2 7.1-4.62-5.37-7.5 1.86 6.02-5-1.2-7.1z"/></g><g><g opacity=".39"><radialGradient id="u" cx=".5" cy=".5" r=".5" fx=".5" fy=".5" gradientTransform="matrix(23.017 1.537 -1.387 20.766 865.65 511.26)" gradientUnits="userSpaceOnUse"><stop offset="0%" stop-color="#ebebeb"/><stop offset="98.26%" stop-color="#fff" stop-opacity="0"/></radialGradient><path fill="url(#u)" d="M864.96 521.64c.38-5.73 5.85-10.03 12.2-9.61 6.36.42 11.2 5.42 10.82 11.15-.38 5.73-5.85 10.04-12.2 9.62-6.36-.43-11.2-5.43-10.82-11.16z"/></g><path fill="#EBEBEB" d="M878.56 514.05l.2 7.08 7 3.28-7.84.1-3.54 6.27-.2-7.08-7-3.29 7.84-.09 3.54-6.27z"/></g><g><g opacity=".39"><radialGradient id="v" cx=".5" cy=".5" r=".5" fx=".5" fy=".5" gradientTransform="matrix(23.017 1.537 -1.387 20.766 936.18 574.85)" gradientUnits="userSpaceOnUse"><stop offset="0%" stop-color="#ebebeb"/><stop offset="98.26%" stop-color="#fff" stop-opacity="0"/></radialGradient><path fill="url(#v)" d="M935.5 585.23c.37-5.73 5.84-10.04 12.2-9.61 6.34.42 11.2 5.42 10.8 11.15-.37 5.73-5.84 10.04-12.2 9.61-6.34-.42-11.2-5.42-10.8-11.15z"/></g><path fill="#EBEBEB" d="M949.09 577.63l.2 7.09 7 3.28-7.84.1-3.54 6.26-.2-7.08-7-3.28 7.84-.1 3.54-6.26z"/></g><g><g opacity=".39"><radialGradient id="w" cx=".5" cy=".5" r=".5" fx=".5" fy=".5" gradientTransform="matrix(38.12 2.546 -2.297 34.392 392.18 182.29)" gradientUnits="userSpaceOnUse"><stop offset="0%" stop-color="#ebebeb"/><stop offset="98.26%" stop-color="#fff" stop-opacity="0"/></radialGradient><path fill="url(#w)" d="M391.04 199.48c.63-9.49 9.68-16.62 20.2-15.92 10.52.7 18.55 8.98 17.92 18.47-.64 9.49-9.7 16.63-20.21 15.92-10.52-.7-18.55-8.98-17.91-18.47z"/></g><path fill="#EBEBEB" d="M413.55 186.9l.35 11.73 11.59 5.44-12.99.15-5.86 10.39-.35-11.73-11.58-5.44 12.98-.15 5.86-10.39z"/></g><g><g opacity=".39"><radialGradient id="x" cx=".5" cy=".5" r=".5" fx=".5" fy=".5" gradientTransform="matrix(23.017 1.537 -1.387 20.766 75.05 455.44)" gradientUnits="userSpaceOnUse"><stop offset="0%" stop-color="#ebebeb"/><stop offset="98.26%" stop-color="#fff" stop-opacity="0"/></radialGradient><path fill="url(#x)" d="M74.36 465.82c.38-5.73 5.85-10.04 12.2-9.62 6.35.43 11.2 5.43 10.81 11.16-.38 5.73-5.84 10.03-12.2 9.61-6.35-.42-11.2-5.42-10.81-11.15z"/></g><path fill="#EBEBEB" d="M87.95 458.22l.21 7.08 7 3.29-7.84.09-3.54 6.27-.2-7.08-7-3.28 7.83-.1 3.54-6.27z"/><g opacity=".39"><radialGradient id="y" cx=".5" cy=".5" r=".5" fx=".5" fy=".5" gradientTransform="matrix(-21.88 -8.327 -8.327 21.88 738.2 303.12)" gradientUnits="userSpaceOnUse"><stop offset="0%" stop-color="#ebebeb"/><stop offset="98.26%" stop-color="#fff" stop-opacity="0"/></radialGradient><path fill="url(#y)" d="M734.04 314.06a11.71 11.71 0 1 0-21.89-8.32 11.71 11.71 0 0 0 21.9 8.32z"/></g><path fill="#EBEBEB" d="M725.94 296.1l-5.05 10.44-11.59.52 10.45 5.05.51 11.59 5.06-10.45 11.59-.51-10.45-5.06-.52-11.59z"/><g opacity=".39"><radialGradient id="z" cx=".5" cy=".5" r=".5" fx=".5" fy=".5" gradientTransform="scale(-34.47 34.47) rotate(30.42 -12.34 -13.94)" gradientUnits="userSpaceOnUse"><stop offset="0%" stop-color="#ebebeb"/><stop offset="98.26%" stop-color="#fff" stop-opacity="0"/></radialGradient><path fill="url(#z)" d="M310.63 164.04a17.24 17.24 0 1 0-29.73 17.47 17.24 17.24 0 0 0 29.73-17.47z"/></g><path fill="#EBEBEB" d="M286.68 161.8l5.04 10.58-6.92 9.47 10.58-5.04 9.47 6.92-5.04-10.58 6.92-9.47-10.59 5.04-9.46-6.92z"/><g opacity=".39"><radialGradient id="A" cx=".5" cy=".5" r=".5" fx=".5" fy=".5" gradientTransform="scale(-61.224 61.224) rotate(30.42 -10.14 -18.45)" gradientUnits="userSpaceOnUse"><stop offset="0%" stop-color="#ebebeb"/><stop offset="98.26%" stop-color="#fff" stop-opacity="0"/></radialGradient><path fill="url(#A)" d="M673.16 185.26a30.63 30.63 0 0 0-41.9-10.9 30.63 30.63 0 0 0-10.9 41.9 30.63 30.63 0 0 0 41.9 10.9 30.63 30.63 0 0 0 10.9-41.9z"/></g><path fill="#EBEBEB" d="M630.64 181.29l8.94 18.8-12.29 16.8 18.8-8.94 16.8 12.29-8.94-18.8 12.29-16.8-18.8 8.94-16.8-12.29z"/><g opacity=".39"><radialGradient id="B" cx=".5" cy=".5" r=".5" fx=".5" fy=".5" gradientTransform="matrix(38.12 2.546 -2.297 34.392 392.18 182.29)" gradientUnits="userSpaceOnUse"><stop offset="0%" stop-color="#ebebeb"/><stop offset="98.26%" stop-color="#fff" stop-opacity="0"/></radialGradient><path fill="url(#B)" d="M391.04 199.48c.63-9.49 9.68-16.62 20.2-15.92 10.52.7 18.55 8.98 17.92 18.47-.64 9.49-9.7 16.63-20.21 15.92-10.52-.7-18.55-8.98-17.91-18.47z"/></g><path fill="#EBEBEB" d="M413.55 186.9l.35 11.73 11.59 5.44-12.99.15-5.86 10.39-.35-11.73-11.58-5.44 12.98-.15 5.86-10.39z"/><g opacity=".39"><radialGradient id="C" cx=".5" cy=".5" r=".5" fx=".5" fy=".5" gradientTransform="matrix(23.017 1.537 -1.387 20.766 507.28 141.76)" gradientUnits="userSpaceOnUse"><stop offset="0%" stop-color="#ebebeb"/><stop offset="98.26%" stop-color="#fff" stop-opacity="0"/></radialGradient><path fill="url(#C)" d="M506.59 152.14c.38-5.73 5.85-10.04 12.2-9.61 6.35.42 11.2 5.42 10.81 11.15-.38 5.73-5.85 10.04-12.2 9.61-6.35-.42-11.2-5.42-10.81-11.15z"/></g><path fill="#EBEBEB" d="M520.18 144.54l.21 7.09 7 3.28-7.84.09-3.54 6.27-.21-7.08-7-3.28 7.84-.1 3.54-6.27z"/><g opacity=".39"><radialGradient id="D" cx=".5" cy=".5" r=".5" fx=".5" fy=".5" gradientTransform="matrix(23.017 1.537 -1.387 20.766 399.28 33.44)" gradientUnits="userSpaceOnUse"><stop offset="0%" stop-color="#ebebeb"/><stop offset="98.26%" stop-color="#fff" stop-opacity="0"/></radialGradient><path fill="url(#D)" d="M398.59 43.82c.38-5.73 5.85-10.04 12.2-9.62 6.35.43 11.2 5.43 10.81 11.16-.38 5.73-5.85 10.04-12.2 9.61-6.35-.42-11.2-5.42-10.81-11.15z"/></g><path fill="#EBEBEB" d="M412.18 36.22l.21 7.08 7 3.29-7.84.09-3.54 6.27-.21-7.08-7-3.28 7.84-.1 3.54-6.27z"/><g opacity=".39"><radialGradient id="E" cx=".5" cy=".5" r=".5" fx=".5" fy=".5" gradientTransform="matrix(51.234 32.289 -29.131 46.223 548.04 23.1)" gradientUnits="userSpaceOnUse"><stop offset="0%" stop-color="#ebebeb"/><stop offset="98.26%" stop-color="#fff" stop-opacity="0"/></radialGradient><path fill="url(#E)" d="M533.48 46.22c8.04-12.75 26.04-15.88 40.18-6.97s19.1 26.5 11.05 39.26c-8.04 12.76-26.04 15.88-40.18 6.97s-19.1-26.5-11.05-39.26z"/></g><path fill="#EBEBEB" d="M574.36 45.66L566 62.26l12.06 16.32-18.22-9.57-16 10.07 8.35-16.61-12.06-16.32 18.22 9.57 16-10.06z"/><g><g opacity=".39"><radialGradient id="F" cx=".5" cy=".5" r=".5" fx=".5" fy=".5" gradientTransform="matrix(23.017 1.537 -1.387 20.766 399.28 120.93)" gradientUnits="userSpaceOnUse"><stop offset="0%" stop-color="#ebebeb"/><stop offset="98.26%" stop-color="#fff" stop-opacity="0"/></radialGradient><path fill="url(#F)" d="M398.59 131.32c.38-5.73 5.85-10.04 12.2-9.62 6.35.43 11.2 5.42 10.81 11.15-.38 5.73-5.85 10.04-12.2 9.62-6.35-.43-11.2-5.42-10.81-11.15z"/></g><path fill="#EBEBEB" d="M412.18 123.72l.21 7.08 7 3.28-7.84.1-3.54 6.27-.21-7.08-7-3.28 7.84-.1 3.54-6.27z"/></g><g><g opacity=".39"><radialGradient id="G" cx=".5" cy=".5" r=".5" fx=".5" fy=".5" gradientTransform="matrix(23.017 1.537 -1.387 20.766 175.66 255.44)" gradientUnits="userSpaceOnUse"><stop offset="0%" stop-color="#ebebeb"/><stop offset="98.26%" stop-color="#fff" stop-opacity="0"/></radialGradient><path fill="url(#G)" d="M174.96 265.82c.38-5.73 5.85-10.04 12.2-9.62 6.35.43 11.2 5.43 10.82 11.16-.38 5.73-5.85 10.03-12.2 9.61-6.35-.42-11.2-5.42-10.82-11.15z"/></g><path fill="#EBEBEB" d="M188.56 258.22l.2 7.08 7 3.29-7.84.09-3.54 6.27-.2-7.08-7-3.28 7.84-.1 3.54-6.27z"/></g><g><g opacity=".39"><radialGradient id="H" cx=".5" cy=".5" r=".5" fx=".5" fy=".5" gradientTransform="matrix(20.854 9.863 -8.898 18.815 80.08 541.07)" gradientUnits="userSpaceOnUse"><stop offset="0%" stop-color="#ebebeb"/><stop offset="98.26%" stop-color="#fff" stop-opacity="0"/></radialGradient><path fill="url(#H)" d="M75.63 550.48c2.46-5.2 9.12-7.2 14.88-4.48 5.75 2.73 8.43 9.15 5.97 14.34-2.45 5.2-9.12 7.2-14.87 4.48-5.76-2.72-8.44-9.15-5.98-14.34z"/></g><path fill="#EBEBEB" d="M91.06 548.4l-2.4 6.66 5.31 5.62-7.33-2.79-5.59 4.54 2.4-6.66-5.3-5.62 7.32 2.78 5.6-4.54z"/></g><g><g opacity=".39"><radialGradient id="I" cx=".5" cy=".5" r=".5" fx=".5" fy=".5" gradientTransform="matrix(23.017 1.537 -1.387 20.766 141.72 585.26)" gradientUnits="userSpaceOnUse"><stop offset="0%" stop-color="#ebebeb"/><stop offset="98.26%" stop-color="#fff" stop-opacity="0"/></radialGradient><path fill="url(#I)" d="M141.02 595.64c.39-5.73 5.85-10.03 12.2-9.61 6.36.42 11.2 5.42 10.82 11.15-.38 5.73-5.85 10.04-12.2 9.62-6.35-.43-11.2-5.43-10.82-11.16z"/></g><path fill="#EBEBEB" d="M154.62 588.05l.2 7.08 7 3.28-7.83.1-3.55 6.27-.2-7.08-7-3.29 7.84-.09 3.54-6.27z"/></g><g><g opacity=".39"><radialGradient id="J" cx=".5" cy=".5" r=".5" fx=".5" fy=".5" gradientTransform="matrix(12.126 -19.625 17.705 10.94 750.61 428.75)" gradientUnits="userSpaceOnUse"><stop offset="0%" stop-color="#ebebeb"/><stop offset="98.26%" stop-color="#fff" stop-opacity="0"/></radialGradient><path fill="url(#J)" d="M759.47 434.22c-4.89-3.02-6.14-9.86-2.8-15.28 3.35-5.41 10.04-7.36 14.92-4.34 4.89 3.02 6.14 9.87 2.8 15.28-3.35 5.42-10.04 7.36-14.92 4.34z"/></g><path fill="#EBEBEB" d="M759.11 418.65l6.36 3.13 6.17-4.65-3.58 6.98 3.89 6.06-6.36-3.13-6.17 4.65 3.58-6.97-3.89-6.07z"/></g><g><g opacity=".39"><radialGradient id="K" cx=".5" cy=".5" r=".5" fx=".5" fy=".5" gradientTransform="matrix(20.884 9.799 -8.841 18.842 703.28 602.92)" gradientUnits="userSpaceOnUse"><stop offset="0%" stop-color="#ebebeb"/><stop offset="98.26%" stop-color="#fff" stop-opacity="0"/></radialGradient><path fill="url(#K)" d="M698.86 612.34c2.44-5.2 9.1-7.23 14.86-4.52 5.77 2.7 8.46 9.12 6.02 14.32-2.44 5.2-9.1 7.22-14.86 4.52s-8.46-9.12-6.02-14.32z"/></g><path fill="#EBEBEB" d="M714.29 610.2l-2.38 6.67 5.32 5.6-7.33-2.76-5.58 4.56 2.38-6.67-5.33-5.6 7.34 2.76 5.58-4.56z"/></g><g><g opacity=".39"><radialGradient id="L" cx=".5" cy=".5" r=".5" fx=".5" fy=".5" gradientTransform="matrix(21.576 8.163 -7.364 19.466 781.48 552.01)" gradientUnits="userSpaceOnUse"><stop offset="0%" stop-color="#ebebeb"/><stop offset="98.26%" stop-color="#fff" stop-opacity="0"/></radialGradient><path fill="url(#L)" d="M777.8 561.74c2.03-5.37 8.52-7.9 14.47-5.65 5.96 2.25 9.14 8.44 7.1 13.81-2.02 5.38-8.5 7.91-14.46 5.66-5.96-2.25-9.14-8.44-7.1-13.82z"/></g><path fill="#EBEBEB" d="M793.02 558.43l-1.86 6.83 5.74 5.18-7.53-2.2-5.2 4.98 1.85-6.84-5.74-5.17 7.53 2.2 5.2-4.98z"/></g><g><g opacity=".39"><radialGradient id="M" cx=".5" cy=".5" r=".5" fx=".5" fy=".5" gradientTransform="scale(-66.47 66.47) rotate(-27.8 9.43 7.26)" gradientUnits="userSpaceOnUse"><stop offset="0%" stop-color="#ebebeb"/><stop offset="98.26%" stop-color="#fff" stop-opacity="0"/></radialGradient><path fill="url(#M)" d="M137.16 377.26a33.25 33.25 0 0 0-13.9-44.9 33.25 33.25 0 0 0-44.9 13.9 33.25 33.25 0 0 0 13.9 44.9 33.25 33.25 0 0 0 44.9-13.9z"/></g><path fill="#EBEBEB" d="M116.52 335.74l-12.24 19.01-22.54-1.74 19.01 12.24-1.74 22.54 12.24-19.01 22.54 1.74-19.01-12.24 1.74-22.54z"/></g></g></g></svg>