<svg xmlns="http://www.w3.org/2000/svg" width="500" height="500" style="isolation:isolate"><defs><clipPath id="a"><path d="M0 0h500v500H0z"/></clipPath></defs><g clip-path="url(#a)" opacity=".25"><linearGradient id="b" x1="-.01" x2="1.03" y1=".98" y2="-.03" gradientTransform="matrix(374 0 0 333.545 95 62)" gradientUnits="userSpaceOnUse"><stop offset="0%" stop-color="#6634bb"/><stop offset="14.82%" stop-color="#6e3cc3" stop-opacity=".88"/><stop offset="98.7%" stop-color="#9a68f2" stop-opacity=".2"/></linearGradient><path fill="url(#b)" d="M122.6 288.15Q225.5 193.8 469 62C357.54 215.23 265.64 321.26 193.39 379.93q-24.9 15.62-40.39 15.62c-32.01 0-58-26-58-58 0-20.88 13.31-36 27.6-49.4z"/><linearGradient id="c" x1=".04" x2="1.06" y1=".94" y2="-.06" gradientTransform="matrix(252 0 0 224.742 115 150)" gradientUnits="userSpaceOnUse"><stop offset="0%" stop-color="#fff"/><stop offset="14.35%" stop-color="#ffc800"/><stop offset="82.17%" stop-color="#ff1b9c" stop-opacity=".8"/></linearGradient><path fill="url(#c)" d="M133.6 302.38Q202.93 238.8 367 150c-75.1 103.25-137.02 174.69-185.7 214.22q-16.78 10.52-27.22 10.52A39.1 39.1 0 0 1 115 335.66c0-14.06 8.97-24.26 18.6-33.28z"/><circle cx="183" cy="135" r="10" fill="#9A68F2" vector-effect="non-scaling-stroke"/><circle cx="214" cy="119" r="6" fill="#9A68F2" vector-effect="non-scaling-stroke"/><circle cx="206" cy="141" r="6" fill="#9A68F2" vector-effect="non-scaling-stroke"/><circle cx="183" cy="135" r="10" fill="#9A68F2" vector-effect="non-scaling-stroke"/><g opacity=".39"><radialGradient id="d" cx=".5" cy=".5" r=".5" fx=".5" fy=".5" gradientTransform="scale(-34.469 34.469) rotate(38.07 -17.67 -8.38)" gradientUnits="userSpaceOnUse"><stop offset="0%" stop-color="#ebebeb"/><stop offset="98.26%" stop-color="#fff" stop-opacity="0"/></radialGradient><path fill="url(#d)" d="M318.34 327.6a17.24 17.24 0 1 0-27.14 21.28 17.24 17.24 0 0 0 27.14-21.27z"/></g><path fill="#EBEBEB" d="M294.3 328.57l6.41 9.82-5.6 10.3 9.82-6.4 10.3 5.6-6.4-9.82 5.6-10.3-9.82 6.4-10.3-5.6z"/><g><g opacity=".39"><radialGradient id="e" cx=".5" cy=".5" r=".5" fx=".5" fy=".5" gradientTransform="scale(-34.469 34.469) rotate(-3.82 66.06 195.55)" gradientUnits="userSpaceOnUse"><stop offset="0%" stop-color="#ebebeb"/><stop offset="98.26%" stop-color="#fff" stop-opacity="0"/></radialGradient><path fill="url(#e)" d="M442.96 183.92a17.24 17.24 0 1 0-34.4-2.29 17.24 17.24 0 0 0 34.4 2.29z"/></g><path fill="#EBEBEB" d="M424.43 168.6l-1.8 11.58-11.03 3.92 11.58 1.8 3.93 11.04 1.79-11.58 11.04-3.93-11.58-1.8-3.93-11.03z"/></g><g><g opacity=".39"><radialGradient id="f" cx=".5" cy=".5" r=".5" fx=".5" fy=".5" gradientTransform="scale(-34.468 34.468) rotate(-25.46 2.14 20.28)" gradientUnits="userSpaceOnUse"><stop offset="0%" stop-color="#ebebeb"/><stop offset="98.26%" stop-color="#fff" stop-opacity="0"/></radialGradient><path fill="url(#f)" d="M285.86 115.17a17.24 17.24 0 1 0-31.14-14.8 17.24 17.24 0 0 0 31.14 14.8z"/></g><path fill="#EBEBEB" d="M274.28 94.1l-5.93 10.1-11.72-.42 10.1 5.94-.41 11.71 5.93-10.1 11.72.42-10.1-5.94.41-11.71z"/></g><g><g opacity=".39"><radialGradient id="g" cx=".5" cy=".5" r=".5" fx=".5" fy=".5" gradientTransform="matrix(-9.629 7.542 7.542 9.629 368.16 271.3)" gradientUnits="userSpaceOnUse"><stop offset="0%" stop-color="#ebebeb"/><stop offset="98.26%" stop-color="#fff" stop-opacity="0"/></radialGradient><path fill="url(#g)" d="M371.93 276.11a6.12 6.12 0 1 0-9.63 7.55 6.12 6.12 0 0 0 9.63-7.55z"/></g><path fill="#EBEBEB" d="M363.4 276.46l2.28 3.48-2 3.66 3.5-2.28 3.65 2-2.27-3.5 1.98-3.65-3.48 2.27-3.66-1.98z"/></g></g></svg>