<?xml version="1.0" standalone="no"?><!-- Generator: Gravit.io --><svg xmlns="http://www.w3.org/2000/svg" xmlns:xlink="http://www.w3.org/1999/xlink" style="isolation:isolate" viewBox="0 0 500 500" width="500" height="500"><defs><clipPath id="_clipPath_J5Rh2YbqS8tB04p3kKkS7ZSMkFS3EAOx"><rect width="500" height="500"/></clipPath></defs><g clip-path="url(#_clipPath_J5Rh2YbqS8tB04p3kKkS7ZSMkFS3EAOx)"><g><g style="opacity:0.41;"><g opacity="0.41"><circle vector-effect="non-scaling-stroke" cx="249.99999999999991" cy="250.00000000000009" r="250" fill="rgb(68,41,115)"/></g></g><g style="opacity:0.19;"><g opacity="0.19"><circle vector-effect="non-scaling-stroke" cx="287.5454545454544" cy="250.00000000000003" r="204.54545454545456" fill="rgb(30,8,68)"/></g></g></g><g><linearGradient id="_lgradient_49" x1="-0.009803921568627472" y1="0.9773780280965836" x2="1.025846702317291" y2="-0.02798219303343985" gradientTransform="matrix(374,0,0,333.545,95,62)" gradientUnits="userSpaceOnUse"><stop offset="0%" stop-opacity="1" style="stop-color:rgb(102,52,187)"/><stop offset="14.821718847892711%" stop-opacity="0.8798591952417508" style="stop-color:rgb(110,60,195)"/><stop offset="98.69565217391305%" stop-opacity="0.2" style="stop-color:rgb(154,104,242)"/></linearGradient><path d=" M 122.608 288.147 Q 225.503 193.797 469 62 C 357.535 215.233 265.643 321.262 193.387 379.933 L 193.387 379.933 Q 168.497 395.545 153 395.545 C 120.989 395.545 95 369.557 95 337.545 C 95 316.675 108.313 301.545 122.608 288.147 Z " fill="url(#_lgradient_49)"/><linearGradient id="_lgradient_50" x1="0.04216269841269838" y1="0.9410796986131623" x2="1.061507936507937" y2="-0.06006891693275451" gradientTransform="matrix(252,0,0,224.742,115,150)" gradientUnits="userSpaceOnUse"><stop offset="0%" stop-opacity="1" style="stop-color:rgb(255,255,255)"/><stop offset="14.347826086956522%" stop-opacity="1" style="stop-color:rgb(255,200,0)"/><stop offset="82.17391304347827%" stop-opacity="0.8" style="stop-color:rgb(255,27,156)"/></linearGradient><path d=" M 133.602 302.377 Q 202.932 238.804 367 150 C 291.895 253.248 229.978 324.69 181.293 364.222 L 181.293 364.222 Q 164.522 374.742 154.08 374.742 C 132.511 374.742 115 357.231 115 335.662 C 115 321.599 123.97 311.405 133.602 302.377 Z " fill="url(#_lgradient_50)"/></g><circle vector-effect="non-scaling-stroke" cx="183" cy="135" r="10" fill="rgb(154,104,242)"/><circle vector-effect="non-scaling-stroke" cx="214" cy="119" r="6" fill="rgb(154,104,242)"/><circle vector-effect="non-scaling-stroke" cx="205.99999999999994" cy="141.00000000000003" r="6.000000000000028" fill="rgb(154,104,242)"/><circle vector-effect="non-scaling-stroke" cx="183" cy="135" r="10" fill="rgb(154,104,242)"/><g><g opacity="0.39"><radialGradient id="_rgradient_296" fx="0.5" fy="0.5" cx="0.5" cy="0.5" r="0.5" gradientTransform="matrix(-27.136,21.254,21.254,27.136,307.709,314.037)" gradientUnits="userSpaceOnUse"><stop offset="0%" stop-opacity="1" style="stop-color:rgb(235,235,235)"/><stop offset="98.26086956521739%" stop-opacity="0" style="stop-color:rgb(255,255,255)"/></radialGradient><path d=" M 318.336 327.605 C 312.471 320.116 301.629 318.799 294.141 324.664 C 286.653 330.529 285.335 341.371 291.2 348.859 C 297.065 356.347 307.907 357.665 315.395 351.8 C 322.884 345.935 324.201 335.093 318.336 327.605 Z " fill="url(#_rgradient_296)"/></g><path d=" M 294.309 328.574 L 300.71 338.393 L 295.11 348.691 L 304.93 342.29 L 315.227 347.89 L 308.826 338.07 L 314.426 327.773 L 304.607 334.174 L 294.309 328.574 Z " fill="rgb(235,235,235)"/></g><g><g opacity="0.39"><radialGradient id="_rgradient_297" fx="0.5" fy="0.5" cx="0.5" cy="0.5" r="0.5" gradientTransform="matrix(-34.392,-2.297,-2.297,34.392,444.113,166.721)" gradientUnits="userSpaceOnUse"><stop offset="0%" stop-opacity="1" style="stop-color:rgb(235,235,235)"/><stop offset="98.26086956521739%" stop-opacity="0" style="stop-color:rgb(255,255,255)"/></radialGradient><path d=" M 442.964 183.917 C 443.598 174.426 436.407 166.206 426.917 165.572 C 417.426 164.938 409.206 172.129 408.572 181.619 C 407.938 191.11 415.129 199.33 424.619 199.964 C 434.11 200.598 442.33 193.407 442.964 183.917 Z " fill="url(#_rgradient_297)"/></g><path d=" M 424.431 168.595 L 422.639 180.179 L 411.595 184.105 L 423.179 185.897 L 427.105 196.941 L 428.897 185.358 L 439.941 181.431 L 428.358 179.639 L 424.431 168.595 Z " fill="rgb(235,235,235)"/></g><g><g opacity="0.39"><radialGradient id="_rgradient_298" fx="0.5" fy="0.5" cx="0.5" cy="0.5" r="0.5" gradientTransform="matrix(-31.122,-14.815,-14.815,31.122,293.269,99.61)" gradientUnits="userSpaceOnUse"><stop offset="0%" stop-opacity="1" style="stop-color:rgb(235,235,235)"/><stop offset="98.26086956521739%" stop-opacity="0" style="stop-color:rgb(255,255,255)"/></radialGradient><path d=" M 285.861 115.171 C 289.949 106.583 286.296 96.291 277.708 92.203 C 269.119 88.114 258.827 91.768 254.739 100.356 C 250.65 108.944 254.304 119.236 262.892 123.325 C 271.481 127.413 281.773 123.76 285.861 115.171 Z " fill="url(#_rgradient_298)"/></g><path d=" M 274.283 94.096 L 268.346 104.203 L 256.632 103.781 L 266.739 109.717 L 266.317 121.431 L 272.254 111.324 L 283.968 111.747 L 273.861 105.81 L 274.283 94.096 Z " fill="rgb(235,235,235)"/></g><g><g opacity="0.39"><radialGradient id="_rgradient_299" fx="0.5" fy="0.5" cx="0.5" cy="0.5" r="0.5" gradientTransform="matrix(-9.629,7.542,7.542,9.629,368.158,271.3)" gradientUnits="userSpaceOnUse"><stop offset="0%" stop-opacity="1" style="stop-color:rgb(235,235,235)"/><stop offset="98.26086956521739%" stop-opacity="0" style="stop-color:rgb(255,255,255)"/></radialGradient><path d=" M 371.929 276.114 C 369.848 273.457 366.001 272.99 363.344 275.071 C 360.686 277.152 360.219 280.999 362.3 283.656 C 364.381 286.314 368.228 286.781 370.886 284.7 C 373.543 282.619 374.01 278.772 371.929 276.114 Z " fill="url(#_rgradient_299)"/></g><path d=" M 363.403 276.458 L 365.675 279.943 L 363.687 283.597 L 367.172 281.325 L 370.826 283.313 L 368.555 279.828 L 370.542 276.174 L 367.057 278.445 L 363.403 276.458 Z " fill="rgb(235,235,235)"/></g></g></svg>