<?xml version="1.0" standalone="no"?><!-- Generator: Gravit.io --><svg xmlns="http://www.w3.org/2000/svg" xmlns:xlink="http://www.w3.org/1999/xlink" style="isolation:isolate" viewBox="0 0 1028 300" width="1028" height="300"><defs><clipPath id="_clipPath_IO2pz7sQ8XjPMfU5SRIy6Fds33HCZUp3"><rect width="1028" height="300"/></clipPath></defs><g clip-path="url(#_clipPath_IO2pz7sQ8XjPMfU5SRIy6Fds33HCZUp3)"><g><linearGradient id="_lgradient_0" x1="0.4999794276520094" y1="1.000067888930456" x2="0.4999794276520095" y2="0.000034398170846383636" gradientTransform="matrix(272,0,0,270.94,378,14.53)" gradientUnits="userSpaceOnUse"><stop offset="0%" stop-opacity="0.25" style="stop-color:rgb(128,128,128)"/><stop offset="54%" stop-opacity="0.12" style="stop-color:rgb(128,128,128)"/><stop offset="100%" stop-opacity="0.1" style="stop-color:rgb(128,128,128)"/></linearGradient><path d=" M 650 125.822 C 650.022 115.695 647.924 113.036 643.362 109.186 L 520.293 16.564 C 516.733 13.87 511.822 13.851 508.241 16.516 L 387.349 106.539 C 382.761 110.367 378.465 114.829 378.443 124.955 L 378.31 124.955 L 378 263.616 L 378 263.616 L 378 269.789 C 377.99 273.801 379.575 277.651 382.405 280.494 C 385.235 283.337 389.079 284.938 393.09 284.946 L 399.05 284.946 L 399.05 284.946 L 513.685 285.201 L 634.275 285.47 C 638.286 285.48 642.137 283.895 644.98 281.065 C 647.823 278.235 649.424 274.391 649.432 270.379 L 649.753 125.8 L 650 125.822 Z " fill="url(#_lgradient_0)"/><path d=" M 380.577 125.6 L 647.203 126.205 L 646.91 255.277 C 646.875 269.892 635.001 281.713 620.386 281.684 L 406.211 281.198 C 399.319 281.183 392.715 278.43 387.853 273.545 C 382.99 268.66 380.267 262.044 380.283 255.152 L 380.577 125.6 L 380.577 125.6 Z " fill="rgb(154,104,242)"/><path d=" M 381.02 125.593 L 380.722 260.426 C 380.697 271.859 389.941 281.148 401.373 281.181 L 626.608 281.668" fill="rgb(245,245,245)"/><path d=" M 647.223 126.187 L 646.924 261.016 C 646.892 272.448 637.602 281.692 626.169 281.668 L 400.945 281.166" fill="rgb(255,255,255)"/><path d=" M 508.216 20.171 L 389.469 107.689 C 384.963 111.41 380.744 115.751 380.722 125.597 L 647.492 126.442 C 647.514 116.595 645.453 114.01 640.965 110.267 L 520.053 20.204 C 516.543 17.594 511.74 17.58 508.216 20.171 Z " fill="rgb(108,99,255)"/><g opacity="0.3"><path d=" M 508.216 19.916 L 389.469 107.435 C 384.963 111.156 380.744 115.496 380.722 125.343 L 647.492 126.187 C 647.514 116.341 645.453 113.756 640.965 110.012 L 520.053 19.949 C 516.543 17.339 511.74 17.326 508.216 19.916 Z " fill="rgb(71,36,131)"/></g></g><g><g style="opacity:0.41;"><g opacity="0.41"><circle vector-effect="non-scaling-stroke" cx="820.9999999999999" cy="81.99999999999991" r="55.999999999999886" fill="rgb(68,41,115)"/></g></g><g style="opacity:0.19;"><g opacity="0.19"><circle vector-effect="non-scaling-stroke" cx="811.754909090909" cy="70.96290909090905" r="37.570909090909026" fill="rgb(30,8,68)"/></g></g><g><path d=" M 790.951 94.674 C 783.976 78.632 791.337 59.944 807.38 52.969 C 823.423 45.994 842.111 53.356 849.086 69.398 C 856.061 85.441 848.699 104.129 832.656 111.104 C 816.613 118.079 797.926 110.717 790.951 94.674 Z " fill="rgb(217,31,31)"/><path d=" M 790.71 91.282 C 784.441 76.862 791.91 59.695 807.38 52.969 C 822.85 46.243 840.499 52.489 846.769 66.908 C 853.038 81.328 845.568 98.495 830.099 105.221 C 814.629 111.947 796.979 105.701 790.71 91.282 Z " fill="rgb(213,49,49)"/><linearGradient id="_lgradient_1" x1="0.283138004465572" y1="-0.060214337170366394" x2="0.6877646592305826" y2="0.9056203563909171" gradientTransform="matrix(53.775,0,0,51.257,790.59,50.564)" gradientUnits="userSpaceOnUse"><stop offset="1.7391304347826086%" stop-opacity="1" style="stop-color:rgb(255,151,151)"/><stop offset="98.26086956521739%" stop-opacity="1" style="stop-color:rgb(240,75,75)"/></linearGradient><path d=" M 792.562 87.025 C 786.989 74.208 793.629 58.948 807.38 52.969 C 821.131 46.99 836.819 52.542 842.392 65.359 C 847.965 78.177 841.325 93.437 827.574 99.415 C 813.823 105.394 798.135 99.842 792.562 87.025 Z " fill="url(#_lgradient_1)"/><g><path d=" M 814.869 102.791 C 814.519 101.984 814.889 101.045 815.695 100.694 C 816.501 100.344 817.441 100.714 817.792 101.52 C 818.142 102.326 817.772 103.266 816.966 103.616 C 816.159 103.967 815.22 103.597 814.869 102.791 Z " fill="rgb(253,142,142)"/><path d=" M 815.148 102.669 C 814.864 102.017 815.163 101.256 815.816 100.973 C 816.469 100.689 817.229 100.988 817.513 101.641 C 817.797 102.294 817.498 103.054 816.845 103.338 C 816.192 103.622 815.432 103.322 815.148 102.669 Z " fill="rgb(213,49,49)"/></g><g><path d=" M 825.322 98.02 C 824.279 95.623 825.379 92.831 827.776 91.789 C 830.173 90.746 832.965 91.846 834.007 94.243 C 835.05 96.64 833.95 99.432 831.553 100.474 C 829.156 101.516 826.364 100.417 825.322 98.02 Z " fill="rgb(253,142,142)"/><path d=" M 826.149 97.66 C 825.305 95.72 826.195 93.459 828.136 92.616 C 830.076 91.772 832.337 92.663 833.18 94.603 C 834.024 96.543 833.134 98.804 831.193 99.647 C 829.253 100.491 826.992 99.6 826.149 97.66 Z " fill="rgb(213,49,49)"/></g><g><path d=" M 844.614 85.517 C 844.328 84.858 844.63 84.091 845.289 83.804 C 845.948 83.518 846.715 83.82 847.002 84.479 C 847.288 85.138 846.986 85.905 846.327 86.192 C 845.668 86.478 844.901 86.176 844.614 85.517 Z " fill="rgb(253,142,142)"/><path d=" M 844.842 85.418 C 844.61 84.885 844.855 84.263 845.388 84.031 C 845.921 83.8 846.542 84.044 846.774 84.578 C 847.006 85.111 846.762 85.732 846.228 85.964 C 845.695 86.196 845.073 85.951 844.842 85.418 Z " fill="rgb(213,49,49)"/></g><g><path d=" M 819.465 62.116 C 818.157 59.109 819.537 55.606 822.544 54.298 C 825.551 52.991 829.054 54.371 830.362 57.378 C 831.669 60.385 830.289 63.888 827.282 65.195 C 824.275 66.503 820.772 65.123 819.465 62.116 Z " fill="rgb(213,49,49)"/></g><g><path d=" M 813.237 65.45 C 812.782 64.404 813.262 63.185 814.308 62.731 C 815.354 62.276 816.573 62.756 817.028 63.802 C 817.482 64.848 817.002 66.067 815.956 66.521 C 814.91 66.976 813.692 66.496 813.237 65.45 Z " fill="rgb(213,49,49)"/></g><g><path d=" M 819.348 67.195 C 819.056 66.522 819.365 65.739 820.037 65.446 C 820.71 65.153 821.494 65.462 821.787 66.135 C 822.079 66.808 821.77 67.592 821.097 67.884 C 820.425 68.177 819.641 67.868 819.348 67.195 Z " fill="rgb(213,49,49)"/></g><g><path d=" M 835.853 100.475 C 835.502 99.667 835.872 98.727 836.679 98.376 C 837.487 98.025 838.428 98.395 838.778 99.203 C 839.129 100.01 838.759 100.951 837.952 101.302 C 837.144 101.653 836.203 101.282 835.853 100.475 Z " fill="rgb(213,49,49)"/></g><g><path d=" M 841.317 92.748 C 840.588 91.072 841.357 89.119 843.033 88.39 C 844.71 87.661 846.663 88.43 847.391 90.107 C 848.12 91.783 847.351 93.736 845.675 94.465 C 843.998 95.194 842.045 94.425 841.317 92.748 Z " fill="rgb(213,49,49)"/></g><g><path d=" M 825.919 106.533 C 825.19 104.858 825.959 102.906 827.635 102.178 C 829.31 101.449 831.262 102.218 831.99 103.893 C 832.718 105.569 831.95 107.521 830.274 108.249 C 828.599 108.978 826.647 108.209 825.919 106.533 Z " fill="rgb(213,49,49)"/></g><g><path d=" M 838.02 91.264 C 837.227 89.44 838.064 87.316 839.888 86.523 C 841.712 85.73 843.836 86.567 844.629 88.391 C 845.422 90.214 844.586 92.339 842.762 93.132 C 840.938 93.925 838.813 93.088 838.02 91.264 Z " fill="rgb(253,142,142)"/><path d=" M 838.649 90.991 C 838.007 89.514 838.685 87.794 840.161 87.152 C 841.638 86.51 843.358 87.188 844 88.664 C 844.642 90.141 843.964 91.861 842.488 92.503 C 841.011 93.145 839.291 92.467 838.649 90.991 Z " fill="rgb(213,49,49)"/></g><g style="opacity:0.49;"><g opacity="0.49"><path d=" M 788.709 86.966 C 772.56 93.452 762.976 98.953 765.363 100.907 L 765.363 100.907 C 768.852 103.763 796.616 97.961 827.323 87.959 C 858.03 77.957 880.127 67.518 876.637 64.662 C 874.529 62.937 863.558 64.372 848.424 67.988 C 848.659 68.448 848.877 68.919 849.086 69.398 C 849.193 69.645 849.297 69.892 849.396 70.141 C 856.128 68.866 860.718 68.556 861.848 69.48 C 864.41 71.576 848.187 79.24 825.642 86.583 C 803.098 93.927 782.715 98.186 780.152 96.089 L 780.152 96.089 C 778.851 95.025 782.394 92.525 789.172 89.355 C 788.985 88.561 788.828 87.764 788.709 86.966 Z " fill-rule="evenodd" fill="rgb(217,31,31)"/></g></g><g style="opacity:0.46;"><g opacity="0.46"><path d=" M 788.826 87.699 C 775.723 93.138 768.157 97.659 770.201 99.331 L 770.201 99.331 C 773.387 101.939 798.736 96.641 826.774 87.509 C 854.811 78.377 874.986 68.846 871.8 66.238 C 870.004 64.768 861.165 65.81 848.751 68.646 C 848.863 68.896 848.976 69.146 849.086 69.398 C 849.283 69.852 849.469 70.307 849.641 70.765 C 854.302 70.015 857.426 69.924 858.296 70.636 C 860.635 72.551 845.823 79.548 825.239 86.253 C 804.655 92.958 786.043 96.847 783.704 94.933 L 783.704 94.933 C 782.696 94.107 784.876 92.337 789.355 90.047 C 789.143 89.267 788.97 88.484 788.826 87.699 Z " fill-rule="evenodd" fill="rgb(243,92,92)"/></g></g></g></g><g><g style="opacity:0.41;"><g opacity="0.41"><circle vector-effect="non-scaling-stroke" cx="160.99999999999977" cy="100.53015512159106" r="85.99999999999977" fill="rgb(68,41,115)"/></g></g><g style="opacity:0.19;"><g opacity="0.19"><circle vector-effect="non-scaling-stroke" cx="174.03030303030278" cy="100.53015512159105" r="70.3636363636362" fill="rgb(30,8,68)"/></g></g><g><circle vector-effect="non-scaling-stroke" cx="179.2424242424238" cy="92.71197330340931" r="54.72727272727258" fill="rgb(29,111,68)"/><ellipse vector-effect="non-scaling-stroke" cx="179.24242424242397" cy="87.1740945155305" rx="52.77272727272714" ry="49.18939393939385" fill="rgb(70,195,93)"/><linearGradient id="_lgradient_2" x1="0.5138888888888857" y1="-0.1117547818626371" x2="0.5" y2="0.9245089345648362" gradientTransform="matrix(93.818,0,0,87.448,132.333,37.985)" gradientUnits="userSpaceOnUse"><stop offset="1.7391304347826086%" stop-opacity="1" style="stop-color:rgb(177,253,191)"/><stop offset="97.82608695652173%" stop-opacity="1" style="stop-color:rgb(93,217,115)"/></linearGradient><ellipse vector-effect="non-scaling-stroke" cx="179.2424242424239" cy="81.7086063000423" rx="46.90909090909079" ry="43.723905723905645" fill="url(#_lgradient_2)"/><g><circle vector-effect="non-scaling-stroke" cx="208.8863636363629" cy="115.18924603068194" r="6.840909090909065" fill="rgb(166,248,181)"/><circle vector-effect="non-scaling-stroke" cx="208.88636363636294" cy="115.18924603068194" r="5.537878787878782" fill="rgb(70,195,93)"/></g><g><circle vector-effect="non-scaling-stroke" cx="197.62962962962928" cy="119.56887566031162" r="3.4023569023570133" fill="rgb(166,248,181)"/><circle vector-effect="non-scaling-stroke" cx="197.62962962962933" cy="119.56887566031162" r="2.754288920955645" fill="rgb(70,195,93)"/></g><g><circle vector-effect="non-scaling-stroke" cx="159.55218855218826" cy="122.03015512159106" r="2.7508417508418574" fill="rgb(166,248,181)"/><circle vector-effect="non-scaling-stroke" cx="159.55218855218837" cy="122.03015512159101" r="2.2268718935387426" fill="rgb(70,195,93)"/></g><g><circle vector-effect="non-scaling-stroke" cx="171.27946127946075" cy="127.53183862327484" r="2.7508417508418574" fill="rgb(166,248,181)"/><circle vector-effect="non-scaling-stroke" cx="171.2794612794612" cy="127.53183862327478" r="2.2268718935387426" fill="rgb(70,195,93)"/></g><g><circle vector-effect="non-scaling-stroke" cx="201.03198653198615" cy="54.77931337074935" r="3.4023569023570133" fill="rgb(166,248,181)"/><circle vector-effect="non-scaling-stroke" cx="201.03198653198604" cy="54.77931337074938" r="2.754288920955645" fill="rgb(70,195,93)"/></g><g><circle vector-effect="non-scaling-stroke" cx="222.89393939393892" cy="75.84496993640593" r="5.8636363636363455" fill="rgb(166,248,181)"/><circle vector-effect="non-scaling-stroke" cx="222.89393939393904" cy="75.84496993640596" r="4.746753246753201" fill="rgb(70,195,93)"/></g><g><circle vector-effect="non-scaling-stroke" cx="208.20210036876625" cy="128.04201980012232" r="2.754288920955645" fill="rgb(70,195,93)"/></g><g><circle vector-effect="non-scaling-stroke" cx="186.2608625941952" cy="134.9122298369989" r="5.715408048741153" fill="rgb(70,195,93)"/></g></g></g><g><g style="opacity:0.41;"><g opacity="0.41"><circle vector-effect="non-scaling-stroke" cx="960.9999999999999" cy="233.9999999999999" r="37.999999999999886" fill="rgb(68,41,115)"/></g></g><g style="opacity:0.19;"><g opacity="0.19"><circle vector-effect="non-scaling-stroke" cx="966.7575757575753" cy="233.99999999999983" r="31.09090909090901" fill="rgb(30,8,68)"/></g></g><g><path d=" M 974.806 209.956 C 988.077 211.378 997.696 223.307 996.273 236.577 C 994.851 249.848 982.922 259.467 969.652 258.044 C 956.381 256.621 946.762 244.693 948.185 231.423 C 949.607 218.152 961.536 208.533 974.806 209.956 Z " fill="rgb(0,47,255)"/><path d=" M 977.147 211.075 C 989.075 212.354 997.645 223.781 996.273 236.577 C 994.901 249.374 984.104 258.725 972.177 257.446 C 960.249 256.168 951.679 244.74 953.051 231.944 C 954.423 219.148 965.22 209.797 977.147 211.075 Z " fill="rgb(9,140,247)"/><linearGradient id="_lgradient_3" x1="1.1061136593972911" y1="0.5746365586560886" x2="0.004325343602475273" y2="0.4415723672675484" gradientTransform="matrix(38.676,0,0,41.426,957.741,213.805)" gradientUnits="userSpaceOnUse"><stop offset="2.608695652173913%" stop-opacity="1" style="stop-color:rgb(168,233,244)"/><stop offset="97.82608695652173%" stop-opacity="1" style="stop-color:rgb(0,216,255)"/></linearGradient><path d=" M 979.289 213.909 C 989.891 215.045 997.508 225.203 996.289 236.577 C 995.07 247.952 985.472 256.264 974.87 255.127 C 964.268 253.991 956.65 243.834 957.87 232.459 C 959.089 221.085 968.686 212.772 979.289 213.909 Z " fill="url(#_lgradient_3)"/><g><path d=" M 962.678 213.345 C 963.593 213.443 964.255 214.265 964.157 215.179 C 964.059 216.093 963.237 216.755 962.323 216.658 C 961.409 216.559 960.747 215.738 960.845 214.824 C 960.943 213.91 961.764 213.247 962.678 213.345 Z " fill="rgb(9,140,247)"/><path d=" M 957.086 218.01 C 958 218.108 958.662 218.929 958.564 219.843 C 958.466 220.758 957.645 221.42 956.731 221.322 C 955.816 221.224 955.154 220.402 955.252 219.488 C 955.35 218.574 956.172 217.912 957.086 218.01 Z " fill="rgb(9,140,247)"/><path d=" M 952.782 229.61 C 954.702 229.816 956.095 231.542 955.889 233.462 C 955.683 235.383 953.956 236.775 952.036 236.569 C 950.116 236.363 948.723 234.637 948.929 232.716 C 949.135 230.796 950.861 229.404 952.782 229.61 Z " fill="rgb(9,140,247)"/></g><g><path d=" M 980.892 218.687 C 984.788 219.105 987.612 222.607 987.195 226.504 C 986.777 230.4 983.275 233.224 979.378 232.806 C 975.482 232.389 972.658 228.886 973.075 224.99 C 973.493 221.094 976.995 218.269 980.892 218.687 Z " fill="rgb(9,140,247)"/><path d=" M 968.735 225.895 C 971.039 226.513 972.409 228.885 971.791 231.189 C 971.174 233.493 968.802 234.863 966.497 234.246 C 964.193 233.628 962.823 231.256 963.441 228.951 C 964.058 226.647 966.43 225.278 968.735 225.895 Z " fill="rgb(9,140,247)"/><path d=" M 960.777 238.927 C 962.252 239.322 963.129 240.841 962.733 242.316 C 962.338 243.791 960.819 244.668 959.344 244.273 C 957.869 243.877 956.992 242.359 957.387 240.884 C 957.783 239.408 959.301 238.532 960.777 238.927 Z " fill="rgb(18,217,253)"/><path d=" M 958.727 229.886 C 959.686 230.143 960.256 231.13 959.999 232.089 C 959.742 233.048 958.755 233.618 957.795 233.361 C 956.836 233.104 956.266 232.117 956.523 231.158 C 956.78 230.199 957.768 229.629 958.727 229.886 Z " fill="rgb(18,217,253)"/><path d=" M 962.266 222.016 C 963.961 222.471 964.969 224.216 964.515 225.912 C 964.06 227.608 962.315 228.615 960.619 228.161 C 958.924 227.707 957.916 225.961 958.37 224.265 C 958.824 222.57 960.57 221.562 962.266 222.016 Z " fill="rgb(18,217,253)"/><path d=" M 967.583 217.219 C 968.542 217.476 969.112 218.463 968.855 219.422 C 968.598 220.381 967.611 220.951 966.652 220.694 C 965.693 220.437 965.123 219.45 965.38 218.491 C 965.637 217.532 966.624 216.962 967.583 217.219 Z " fill="rgb(18,217,253)"/><path d=" M 975.706 232.95 C 977.301 233.377 978.249 235.019 977.822 236.614 C 977.394 238.209 975.752 239.157 974.157 238.73 C 972.562 238.302 971.615 236.661 972.042 235.065 C 972.469 233.471 974.111 232.523 975.706 232.95 Z " fill="rgb(9,140,247)"/><path d=" M 968.39 237.04 C 969.985 237.468 970.933 239.11 970.506 240.704 C 970.079 242.3 968.436 243.247 966.842 242.82 C 965.247 242.393 964.299 240.751 964.726 239.156 C 965.154 237.561 966.795 236.613 968.39 237.04 Z " fill="rgb(9,140,247)"/></g></g></g></g></svg>