<?xml version="1.0" standalone="no"?><!-- Generator: Gravit.io --><svg xmlns="http://www.w3.org/2000/svg" xmlns:xlink="http://www.w3.org/1999/xlink" style="isolation:isolate" viewBox="0 0 500 500" width="500" height="500"><defs><clipPath id="_clipPath_uYksBzwjTR4wR7pZcHQPbTLWA1vFRsae"><rect width="500" height="500"/></clipPath></defs><g clip-path="url(#_clipPath_uYksBzwjTR4wR7pZcHQPbTLWA1vFRsae)"><g><g style="opacity:0.41;"><g opacity="0.41"><circle vector-effect="non-scaling-stroke" cx="250.00000000000006" cy="249.99999999999994" r="250" fill="rgb(68,41,115)"/></g></g><g style="opacity:0.19;"><g opacity="0.19"><circle vector-effect="non-scaling-stroke" cx="287.87878787878833" cy="249.99999999999997" r="204.54545454545456" fill="rgb(30,8,68)"/></g></g><g><path d=" M 340.831 91.816 C 428.136 101.174 491.419 179.651 482.061 266.956 C 472.701 354.261 394.224 417.543 306.919 408.186 C 219.614 398.826 156.331 320.348 165.691 233.043 C 175.049 145.739 253.527 82.456 340.831 91.816 Z " fill="rgb(0,47,255)"/><path d=" M 356.233 99.18 C 434.703 107.593 491.083 182.771 482.061 266.956 C 473.036 351.144 402 412.663 323.53 404.252 C 245.061 395.839 188.68 320.661 197.704 236.475 C 206.729 152.288 277.763 90.769 356.233 99.18 Z " fill="rgb(9,140,247)"/><linearGradient id="_lgradient_46" x1="1.1061136593972911" y1="0.5746365586560886" x2="0.004325343602475273" y2="0.4415723672675484" gradientTransform="matrix(254.446,0,0,272.542,228.562,117.138)" gradientUnits="userSpaceOnUse"><stop offset="2.608695652173913%" stop-opacity="1" style="stop-color:rgb(168,233,244)"/><stop offset="97.82608695652173%" stop-opacity="1" style="stop-color:rgb(0,216,255)"/></linearGradient><path d=" M 370.32 117.822 C 440.07 125.299 490.187 192.125 482.165 266.956 C 474.144 341.79 411.002 396.473 341.25 388.996 C 271.5 381.519 221.383 314.695 229.405 239.862 C 237.426 165.03 300.568 110.345 370.32 117.822 Z " fill="url(#_lgradient_46)"/><g><path d=" M 261.042 114.114 C 267.057 114.757 271.415 120.165 270.771 126.178 C 270.125 132.191 264.72 136.549 258.707 135.905 C 252.693 135.259 248.335 129.854 248.979 123.841 C 249.623 117.828 255.028 113.47 261.042 114.114 Z " fill="rgb(9,140,247)"/><path d=" M 224.248 144.801 C 230.261 145.445 234.619 150.85 233.975 156.863 C 233.331 162.879 227.926 167.237 221.913 166.593 C 215.898 165.947 211.54 160.542 212.184 154.528 C 212.83 148.515 218.235 144.157 224.248 144.801 Z " fill="rgb(9,140,247)"/><path d=" M 195.934 221.115 C 208.568 222.471 217.727 233.828 216.373 246.462 C 215.017 259.096 203.661 268.256 191.027 266.901 C 178.392 265.547 169.233 254.189 170.587 241.555 C 171.941 228.92 183.299 219.761 195.934 221.115 Z " fill="rgb(9,140,247)"/></g><g><path d=" M 380.867 149.257 C 406.5 152.006 425.081 175.047 422.333 200.682 C 419.585 226.316 396.544 244.896 370.909 242.148 C 345.277 239.399 326.695 216.358 329.443 190.723 C 332.191 165.091 355.233 146.509 380.867 149.257 Z " fill="rgb(9,140,247)"/><path d=" M 300.886 196.678 C 316.047 200.74 325.057 216.346 320.994 231.507 C 316.934 246.667 301.326 255.678 286.167 251.615 C 271.006 247.553 261.994 231.947 266.057 216.786 C 270.119 201.625 285.725 192.615 300.886 196.678 Z " fill="rgb(9,140,247)"/><path d=" M 248.53 282.415 C 258.235 285.015 264.004 295.006 261.403 304.71 C 258.801 314.417 248.811 320.184 239.106 317.583 C 229.402 314.983 223.633 304.992 226.233 295.288 C 228.833 285.581 238.824 279.814 248.53 282.415 Z " fill="rgb(18,217,253)"/><path d=" M 235.044 222.932 C 241.352 224.623 245.102 231.117 243.413 237.426 C 241.722 243.737 235.227 247.487 228.917 245.795 C 222.608 244.104 218.858 237.61 220.549 231.301 C 222.239 224.99 228.735 221.24 235.044 222.932 Z " fill="rgb(18,217,253)"/><path d=" M 258.326 171.161 C 269.481 174.15 276.112 185.632 273.123 196.788 C 270.134 207.945 258.65 214.574 247.494 211.585 C 236.339 208.596 229.708 197.112 232.697 185.956 C 235.687 174.801 247.17 168.17 258.326 171.161 Z " fill="rgb(18,217,253)"/><path d=" M 293.309 139.598 C 299.619 141.29 303.369 147.784 301.678 154.093 C 299.987 160.403 293.492 164.153 287.184 162.462 C 280.873 160.771 277.123 154.276 278.814 147.968 C 280.506 141.657 287 137.907 293.309 139.598 Z " fill="rgb(18,217,253)"/><path d=" M 346.75 243.093 C 357.244 245.903 363.479 256.704 360.669 267.199 C 357.856 277.691 347.055 283.928 336.562 281.115 C 326.068 278.305 319.833 267.504 322.644 257.009 C 325.456 246.517 336.257 240.28 346.75 243.093 Z " fill="rgb(9,140,247)"/><path d=" M 298.621 270.002 C 309.114 272.814 315.35 283.615 312.538 294.108 C 309.727 304.602 298.924 310.837 288.432 308.026 C 277.939 305.214 271.703 294.413 274.513 283.92 C 277.326 273.426 288.127 267.191 298.621 270.002 Z " fill="rgb(9,140,247)"/></g></g></g></g></svg>