<svg xmlns="http://www.w3.org/2000/svg" width="256" height="230" style="isolation:isolate"><defs><clipPath id="a"><path d="M0 0h256v230H0z"/></clipPath></defs><g fill="#53C1DE" clip-path="url(#a)"><path fill-rule="evenodd" d="M201.03 79.67c-2.35-.8-4.78-1.57-7.28-2.29.41-1.68.79-3.33 1.13-4.96 5.5-26.73 1.9-48.26-10.4-55.35-11.78-6.8-31.06.3-50.53 17.24a151.33 151.33 0 0 0-5.62 5.16c-1.26-1.2-2.5-2.35-3.75-3.46-20.4-18.12-40.86-25.75-53.14-18.64-11.77 6.81-15.26 27.06-10.3 52.39.47 2.44 1.03 4.94 1.67 7.48-2.9.82-5.7 1.7-8.37 2.63-23.92 8.34-39.2 21.41-39.2 34.97 0 14 16.4 28.05 41.32 36.57 1.97.67 4 1.3 6.11 1.9a147.9 147.9 0 0 0-1.77 8.07c-4.73 24.9-1.04 44.66 10.7 51.43 12.14 7 32.5-.2 52.32-17.52 1.57-1.37 3.14-2.82 4.72-4.35 2.04 1.97 4.08 3.83 6.1 5.57 19.21 16.53 38.18 23.2 49.91 16.41 12.12-7.02 16.06-28.25 10.94-54.08-.38-1.97-.84-3.99-1.35-6.04 1.43-.42 2.83-.86 4.2-1.31 25.9-8.58 42.76-22.46 42.76-36.65 0-13.6-15.77-26.77-40.17-35.17zm-72.7-26.41c4.45 4.82 8.91 10.2 13.3 16.05a283.94 283.94 0 0 0-26.71 0 212.87 212.87 0 0 1 13.4-16.05zm67.08 89.07c-1.24.4-2.5.8-3.8 1.18a226.4 226.4 0 0 0-11.44-28.62c4.5-9.71 8.22-19.21 11-28.2 2.3.66 4.55 1.37 6.71 2.11 20.91 7.2 33.67 17.84 33.67 26.04 0 8.74-13.78 20.08-36.14 27.49zM92.28 203.85c-6.96 2.46-12.5 2.53-15.85.6-7.13-4.11-10.1-19.98-6.05-41.26.46-2.44 1.01-4.95 1.65-7.5 9.25 2.04 19.5 3.51 30.45 4.4 6.25 8.8 12.8 16.88 19.4 23.97-1.44 1.39-2.88 2.71-4.3 3.96-8.78 7.66-17.56 13.1-25.3 15.83zm-32.6-61.58c-11.02-3.76-20.11-8.66-26.35-14-5.6-4.8-8.43-9.56-8.43-13.43 0-8.23 12.26-18.72 32.72-25.85 2.48-.87 5.08-1.68 7.78-2.45a231.5 231.5 0 0 0 11.01 28.54 235.19 235.19 0 0 0-11.15 28.94c-1.92-.55-3.79-1.13-5.58-1.75zM70.61 67.9c-4.25-21.7-1.43-38.07 5.67-42.18 7.56-4.37 24.27 1.87 41.9 17.5 1.12 1 2.25 2.06 3.38 3.14a231.31 231.31 0 0 0-19.25 23.82c-10.62.98-20.8 2.57-30.15 4.68-.59-2.36-1.1-4.69-1.55-6.96zm97.47 24.07a307.47 307.47 0 0 0-6.88-11.3c7.21.91 14.12 2.12 20.6 3.6a205.9 205.9 0 0 1-7.22 19.46c-2.05-3.9-4.22-7.82-6.5-11.76zm18.05 68.75c2.26 11.42 2.58 21.75 1.08 29.82-1.34 7.25-4.05 12.09-7.4 14.03-7.12 4.12-22.34-1.24-38.77-15.37a138.36 138.36 0 0 1-5.68-5.18 226.75 226.75 0 0 0 18.94-24.05 225.34 225.34 0 0 0 30.6-4.72c.46 1.86.87 3.68 1.23 5.47zm-97.8-68.68a284.97 284.97 0 0 0-6.38 11.68 213.03 213.03 0 0 1-7.18-19.55 217.79 217.79 0 0 1 20.48-3.52 284.3 284.3 0 0 0-6.92 11.39zm7.13 57.68c-7.4-.83-14.38-1.94-20.82-3.35 2-6.44 4.45-13.14 7.32-19.95a285.45 285.45 0 0 0 13.5 23.3zm33.14 27.39a216.96 216.96 0 0 1-13.6-16.27 336.86 336.86 0 0 0 26.86-.05 205.45 205.45 0 0 1-13.26 16.32zm46.07-51.03a204.74 204.74 0 0 1 7.59 19.87c-6.56 1.5-13.63 2.7-21.08 3.6 2.34-3.72 4.66-7.56 6.94-11.5 2.3-4 4.48-7.99 6.55-11.97zm-14.92 7.15a316.49 316.49 0 0 1-10.84 17.49c-6.7.48-13.63.72-20.69.72-7.03 0-13.87-.22-20.46-.64a270.94 270.94 0 0 1-20.68-35.72 270.94 270.94 0 0 1 20.57-35.66 271.71 271.71 0 0 1 41.19 0 290.5 290.5 0 0 1 10.88 17.39c3.54 6.12 6.8 12.18 9.74 18.13a290.1 290.1 0 0 1-9.7 18.29zm19.92-107.8c7.56 4.37 10.5 21.97 5.75 45.04-.3 1.47-.64 2.97-1.01 4.5a231.24 231.24 0 0 0-30.22-4.78 226.74 226.74 0 0 0-19.1-23.84c1.74-1.67 3.47-3.26 5.2-4.76 16.68-14.52 32.27-20.25 39.38-16.16z"/><path d="M128.22 94.67a20.18 20.18 0 1 1 0 40.35 20.18 20.18 0 0 1 0-40.36z"/></g></svg>