<?xml version="1.0" standalone="no"?><!-- Generator: Gravit.io --><svg xmlns="http://www.w3.org/2000/svg" xmlns:xlink="http://www.w3.org/1999/xlink" style="isolation:isolate" viewBox="0 0 511 1242.8" width="511" height="1242.8"><defs><clipPath id="_clipPath_7xIClhfhww1I1MCp0fnxFQ3cjqorY1v2"><rect width="511" height="1242.8"/></clipPath></defs><g clip-path="url(#_clipPath_7xIClhfhww1I1MCp0fnxFQ3cjqorY1v2)"><g><g><g><path d=" M 254.798 -0.021 C 290.305 23.484 333.99 81.956 340.81 131.919 C 304.345 131.919 298.221 131.919 254.798 131.919 L 254.798 -0.021 Z " fill="rgb(80,34,162)"/><rect x="254.798" y="131.084" width="86.012" height="452.606" transform="matrix(1,0,0,1,0,0)" fill="rgb(114,70,191)"/><g/><g><g><path d=" M 368.367 139.435 C 375.565 147.703 389.553 167.625 395.924 184.37 C 384.241 184.37 382.279 184.37 368.367 184.37 L 368.367 139.435 Z " fill="rgb(223,223,234)"/><rect x="368.367" y="184.085" width="27.557" height="529.875" transform="matrix(1,0,0,1,0,0)" fill="rgb(223,223,234)"/><path d=" M 368.367 139.435 C 361.169 147.703 347.181 167.625 340.81 184.37 C 352.493 184.37 354.455 184.37 368.367 184.37 L 368.367 139.435 Z " fill="rgb(189,189,200)"/><rect x="340.81" y="184.085" width="27.557" height="529.875" transform="matrix(1,0,0,1,0,0)" fill="rgb(189,189,200)"/></g><g><path d=" M 400.1 741.518 L 406.78 756.549 L 368.367 756.549 L 368.367 741.518 L 400.1 741.518 Z " fill="rgb(91,91,94)"/><path d=" M 395.924 702.27 L 411.791 744.858 L 368.367 744.858 L 368.367 702.27 L 395.924 702.27 Z " fill="rgb(223,223,234)"/></g><g><path d=" M 336.635 741.518 L 329.954 756.549 L 368.367 756.549 L 368.367 741.518 L 336.635 741.518 Z " fill="rgb(61,61,64)"/><path d=" M 340.81 702.27 L 324.944 744.858 L 368.367 744.858 L 368.367 702.27 L 340.81 702.27 Z " fill="rgb(189,189,200)"/></g><rect x="340.81" y="672.208" width="55.114" height="3.34" transform="matrix(1,0,0,1,0,0)" fill="rgb(128,2,2)"/><rect x="340.81" y="678.888" width="55.114" height="3.34" transform="matrix(1,0,0,1,0,0)" fill="rgb(128,2,2)"/><rect x="340.81" y="685.569" width="55.114" height="3.34" transform="matrix(1,0,0,1,0,0)" fill="rgb(128,2,2)"/><rect x="340.81" y="692.249" width="55.114" height="3.34" transform="matrix(1,0,0,1,0,0)" fill="rgb(128,2,2)"/><rect x="340.81" y="184.529" width="55.114" height="5.845" transform="matrix(1,0,0,1,0,0)" fill="rgb(61,61,64)"/></g><g><path d=" M 368.533 756.549 L 333.921 756.549 C 324.814 912.349 288.771 1074.452 225.759 1242.821 L 368.533 1242.821 L 368.533 756.549 Z " fill="rgb(255,255,255)"/><path d=" M 368.201 756.549 L 402.813 756.549 C 411.92 912.349 447.963 1074.452 510.975 1242.821 L 368.201 1242.821 L 368.201 756.549 Z " fill="rgb(255,255,255)"/></g></g><g><path d=" M 256.202 -0.021 C 220.695 23.484 177.01 81.956 170.19 131.919 C 206.655 131.919 212.779 131.919 256.202 131.919 L 256.202 -0.021 Z " fill="rgb(102,52,187)"/><rect x="170.19" y="131.084" width="86.012" height="452.606" transform="matrix(1,0,0,1,0,0)" fill="rgb(154,104,242)"/><g/><g><g><path d=" M 142.633 139.435 C 135.435 147.703 121.447 167.625 115.076 184.37 C 126.759 184.37 128.721 184.37 142.633 184.37 L 142.633 139.435 Z " fill="rgb(223,223,234)"/><rect x="115.076" y="184.085" width="27.557" height="529.875" transform="matrix(1,0,0,1,0,0)" fill="rgb(223,223,234)"/><path d=" M 142.633 139.435 C 149.831 147.703 163.819 167.625 170.19 184.37 C 158.507 184.37 156.545 184.37 142.633 184.37 L 142.633 139.435 Z " fill="rgb(189,189,200)"/><rect x="142.633" y="184.085" width="27.557" height="529.875" transform="matrix(1,0,0,1,0,0)" fill="rgb(189,189,200)"/></g><g><path d=" M 110.9 741.518 L 104.22 756.549 L 142.633 756.549 L 142.633 741.518 L 110.9 741.518 Z " fill="rgb(91,91,94)"/><path d=" M 115.076 702.27 L 99.209 744.858 L 142.633 744.858 L 142.633 702.27 L 115.076 702.27 Z " fill="rgb(223,223,234)"/></g><g><path d=" M 174.365 741.518 L 181.046 756.549 L 142.633 756.549 L 142.633 741.518 L 174.365 741.518 Z " fill="rgb(61,61,64)"/><path d=" M 170.19 702.27 L 186.056 744.858 L 142.633 744.858 L 142.633 702.27 L 170.19 702.27 Z " fill="rgb(189,189,200)"/></g><rect x="115.076" y="672.208" width="55.114" height="3.34" transform="matrix(1,0,0,1,0,0)" fill="rgb(128,2,2)"/><rect x="115.076" y="678.888" width="55.114" height="3.34" transform="matrix(1,0,0,1,0,0)" fill="rgb(128,2,2)"/><rect x="115.076" y="685.569" width="55.114" height="3.34" transform="matrix(1,0,0,1,0,0)" fill="rgb(128,2,2)"/><rect x="115.076" y="692.249" width="55.114" height="3.34" transform="matrix(1,0,0,1,0,0)" fill="rgb(128,2,2)"/><rect x="115.076" y="184.529" width="55.114" height="5.845" transform="matrix(1,0,0,1,0,0)" fill="rgb(61,61,64)"/></g><g><path d=" M 142.799 756.549 L 108.187 756.549 C 99.08 912.349 63.037 1074.452 0.025 1242.821 L 142.799 1242.821 L 142.799 756.549 Z " fill="rgb(255,255,255)"/><path d=" M 142.467 756.549 L 177.079 756.549 C 186.186 912.349 222.229 1074.452 285.241 1242.821 L 142.467 1242.821 L 142.467 756.549 Z " fill="rgb(255,255,255)"/></g></g></g><g><path d=" M 254.798 187.034 C 288.315 213.048 305.287 260.098 305.737 328.16 L 305.737 616.258 L 254.798 616.258 L 254.798 187.034 Z " fill="rgb(240,240,244)"/><path d=" M 466.905 616.258 L 305.737 616.258 L 305.737 339.851 C 317.552 407.478 345.069 450.063 400.559 490.155 C 456.049 530.246 454.106 559.824 466.905 616.258 Z " fill="rgb(61,61,64)"/><path d=" M 313.253 416.677 C 309.04 407.09 305.775 395.863 305.737 395.8 L 305.737 616.258 L 449.369 616.258 C 449.177 615.323 445.895 597.678 445.703 596.743 C 444.709 591.757 443.673 586.772 442.596 581.803 C 441.644 577.386 440.575 572.993 439.398 568.634 C 438.337 564.701 437.101 560.81 435.69 556.985 C 434.354 553.378 432.809 549.854 431.056 546.43 C 429.26 542.939 427.223 539.574 424.968 536.359 C 422.446 532.776 419.69 529.361 416.726 526.146 C 413.219 522.338 409.494 518.739 405.569 515.349 C 400.826 511.257 395.908 507.374 390.814 503.716 C 383.774 498.647 376.927 493.32 370.288 487.741 C 363.991 482.447 357.929 476.869 352.133 471.023 C 346.547 465.387 341.253 459.466 336.275 453.278 C 331.39 447.199 326.848 440.861 322.664 434.272 C 322.626 434.214 317.466 426.265 313.253 416.677 Z " fill="rgb(223,223,234)"/><path d=" M 254.798 241.313 L 254.798 187.034 C 271.424 199.938 283.979 218.019 292.434 241.313 L 254.798 241.313 L 254.798 241.313 Z " fill="rgb(61,61,64)"/><path d=" M 256.468 254.674 C 270.843 254.751 285.271 259.5 289.841 268.87 C 291.132 273.171 291.681 277.076 291.511 280.561 C 286.214 280.616 282.896 279.511 279.85 277.221 C 279.688 270.767 264.695 263.025 256.468 263.025 L 256.468 254.674 Z " fill="rgb(38,38,38)"/><mask id="_mask_e733U61NbXnrXH8aeStlBvxdmaohuOHw"><path d=" M 466.905 616.258 L 470.245 635.465 L 390.079 643.815 L 390.079 616.258 L 466.905 616.258 Z " fill="white" stroke="none"/></mask><path d=" M 466.905 616.258 L 470.245 635.465 L 390.079 643.815 L 390.079 616.258 L 466.905 616.258 Z " fill="rgb(223,223,234)" mask="url(#_mask_e733U61NbXnrXH8aeStlBvxdmaohuOHw)" vector-effect="non-scaling-stroke" stroke-width="10" stroke="rgb(61,61,64)" stroke-linejoin="miter" stroke-linecap="square" stroke-miterlimit="3"/><mask id="_mask_XrhNgVDkWbSBXNiOzgDsXJ7vBLeeZbVr"><path d=" M 385.903 616.258 L 385.903 643.815 L 305.737 661.352 L 305.737 616.258 L 385.903 616.258 Z " fill="white" stroke="none"/></mask><path d=" M 385.903 616.258 L 385.903 643.815 L 305.737 661.352 L 305.737 616.258 L 385.903 616.258 Z " fill="rgb(223,223,234)" mask="url(#_mask_XrhNgVDkWbSBXNiOzgDsXJ7vBLeeZbVr)" vector-effect="non-scaling-stroke" stroke-width="10" stroke="rgb(61,61,64)" stroke-linejoin="miter" stroke-linecap="square" stroke-miterlimit="3"/><rect x="51.042" y="611.248" width="152.817" height="5.01" transform="matrix(1,0,0,1,0,0)" fill="rgb(61,61,64)"/><g><path d=" M 264.303 751.914 C 264.293 752.523 264.288 753.133 264.288 753.746 L 264.545 753.746 C 269.907 794.121 277.607 834.387 287.673 874.571 C 299.158 831.532 307.19 791.247 311.796 753.746 L 312.033 753.746 C 312.033 753.136 312.027 752.528 312.017 751.923 C 312.023 751.881 312.028 751.839 312.033 751.797 L 312.013 751.797 C 311.501 726.348 301.009 706.001 288.16 706.001 C 275.311 706.001 264.819 726.348 264.307 751.797 L 264.288 751.797 C 264.293 751.836 264.298 751.875 264.303 751.914 Z " fill="rgb(255,95,95)"/><linearGradient id="_lgradient_16" x1="0.4965986394557818" y1="0.11560693641618491" x2="0.5102040816326533" y2="1.1791907514450866" gradientTransform="matrix(31.832,0,0,112.385,272.244,720.872)" gradientUnits="userSpaceOnUse"><stop offset="0%" stop-opacity="1" style="stop-color:rgb(255,149,57)"/><stop offset="10%" stop-opacity="1" style="stop-color:rgb(255,167,52)"/><stop offset="42.173913043478265%" stop-opacity="1" style="stop-color:rgb(244,230,31)"/><stop offset="100%" stop-opacity="1" style="stop-color:rgb(251,246,182)"/></linearGradient><path d=" M 272.255 751.482 C 272.248 751.887 272.244 752.294 272.244 752.703 L 272.416 752.703 C 275.991 779.621 281.124 806.466 287.835 833.257 C 295.493 804.562 300.847 777.705 303.918 752.703 L 304.076 752.703 C 304.076 752.296 304.072 751.891 304.066 751.488 C 304.069 751.46 304.073 751.432 304.076 751.404 L 304.063 751.404 C 303.722 734.437 296.727 720.872 288.16 720.872 C 279.594 720.872 272.599 734.437 272.257 751.404 L 272.244 751.404 C 272.248 751.43 272.251 751.456 272.255 751.482 Z " fill="url(#_lgradient_16)"/></g><g><path d=" M 288.16 589.536 L 288.16 589.536 L 288.16 564.066 L 288.16 562.366 L 288.16 538.597 C 305.183 538.597 319.134 549.101 320.24 562.366 L 320.31 562.366 L 320.31 564.066 L 320.31 669.702 L 288.16 669.702 L 288.16 589.536 Z " fill="rgb(240,240,244)"/><path d=" M 288.16 589.536 L 288.16 589.536 L 288.16 564.066 L 288.16 562.366 L 288.16 538.597 C 271.137 538.597 257.186 549.101 256.081 562.366 L 256.01 562.366 L 256.01 564.066 L 256.01 669.702 L 288.16 669.702 L 288.16 589.536 Z " fill="rgb(248,248,249)"/><path d=" M 261.021 683.898 L 261.021 669.702 L 288.16 669.702 L 288.16 683.898 L 288.16 693.084 C 277.626 692.654 268.588 689.601 261.021 683.898 Z " fill="rgb(91,91,94)"/><path d=" M 315.3 683.898 L 315.3 669.702 L 288.16 669.702 L 288.16 683.898 L 288.16 693.084 C 298.694 692.654 307.732 689.601 315.3 683.898 Z " fill="rgb(61,61,64)"/></g></g><g><path d=" M 254.798 187.034 C 221.281 213.048 204.309 260.098 203.859 328.16 L 203.859 616.258 L 254.798 616.258 L 254.798 187.034 Z " fill="rgb(248,248,249)"/><path d=" M 254.798 241.313 L 254.798 187.034 C 238.172 199.938 225.617 218.019 217.162 241.313 L 254.798 241.313 L 254.798 241.313 Z " fill="rgb(91,91,94)"/><path d=" M 42.691 616.258 L 203.859 616.258 L 203.859 339.851 C 192.044 407.478 164.527 450.063 109.037 490.155 C 53.547 530.246 55.49 559.824 42.691 616.258 Z " fill="rgb(61,61,64)"/><path d=" M 196.343 416.677 C 200.556 407.09 203.821 395.863 203.859 395.8 L 203.859 616.258 L 60.227 616.258 C 60.42 615.323 63.701 597.678 63.893 596.743 C 64.887 591.757 65.923 586.772 67 581.803 C 67.952 577.386 69.021 572.993 70.198 568.634 C 71.259 564.701 72.495 560.81 73.906 556.985 C 75.242 553.378 76.787 549.854 78.54 546.43 C 80.336 542.939 82.373 539.574 84.628 536.359 C 87.15 532.776 89.906 529.361 92.87 526.146 C 96.378 522.338 100.102 518.739 104.027 515.349 C 108.77 511.257 113.688 507.374 118.782 503.716 C 125.822 498.647 132.67 493.32 139.308 487.741 C 145.605 482.447 151.667 476.869 157.463 471.023 C 163.049 465.387 168.344 459.466 173.321 453.278 C 178.206 447.199 182.748 440.861 186.932 434.272 C 186.97 434.214 192.13 426.265 196.343 416.677 Z " fill="rgb(223,223,234)"/><path d=" M 253.128 254.674 C 238.753 254.751 224.325 259.5 219.755 268.87 C 218.464 273.171 217.915 277.076 218.085 280.561 C 223.382 280.616 226.7 279.511 229.746 277.221 C 229.908 270.767 244.901 263.025 253.128 263.025 L 253.128 254.674 Z " fill="rgb(38,38,38)"/><mask id="_mask_BypzKhlwCLinf0pBJ6UxTZEwg60Z9R1W"><path d=" M 42.691 616.258 L 39.351 635.465 L 119.517 643.815 L 119.517 616.258 L 42.691 616.258 Z " fill="white" stroke="none"/></mask><path d=" M 42.691 616.258 L 39.351 635.465 L 119.517 643.815 L 119.517 616.258 L 42.691 616.258 Z " fill="rgb(223,223,234)" mask="url(#_mask_BypzKhlwCLinf0pBJ6UxTZEwg60Z9R1W)" vector-effect="non-scaling-stroke" stroke-width="10" stroke="rgb(61,61,64)" stroke-linejoin="miter" stroke-linecap="square" stroke-miterlimit="3"/><mask id="_mask_vrh5E9Ytmhy06DHgvkkDcsj8obLbXmvf"><path d=" M 123.693 616.258 L 123.693 643.815 L 203.859 661.352 L 203.859 616.258 L 123.693 616.258 Z " fill="white" stroke="none"/></mask><path d=" M 123.693 616.258 L 123.693 643.815 L 203.859 661.352 L 203.859 616.258 L 123.693 616.258 Z " fill="rgb(223,223,234)" mask="url(#_mask_vrh5E9Ytmhy06DHgvkkDcsj8obLbXmvf)" vector-effect="non-scaling-stroke" stroke-width="10" stroke="rgb(61,61,64)" stroke-linejoin="miter" stroke-linecap="square" stroke-miterlimit="3"/><rect x="51.042" y="611.248" width="152.817" height="5.01" transform="matrix(1,0,0,1,0,0)" fill="rgb(61,61,64)"/><g><path d=" M 199.168 751.914 C 199.158 752.523 199.152 753.133 199.152 753.746 L 199.409 753.746 C 204.771 794.121 212.472 834.387 222.538 874.571 C 234.023 831.532 242.055 791.247 246.661 753.746 L 246.898 753.746 C 246.898 753.136 246.892 752.528 246.882 751.923 C 246.888 751.881 246.893 751.839 246.898 751.797 L 246.878 751.797 C 246.366 726.348 235.874 706.001 223.025 706.001 C 210.176 706.001 199.684 726.348 199.172 751.797 L 199.152 751.797 C 199.157 751.836 199.163 751.875 199.168 751.914 Z " fill="rgb(255,95,95)"/><linearGradient id="_lgradient_17" x1="0.4965986394557818" y1="0.11560693641618491" x2="0.5102040816326533" y2="1.1791907514450866" gradientTransform="matrix(31.832,0,0,112.385,207.109,720.286)" gradientUnits="userSpaceOnUse"><stop offset="0%" stop-opacity="1" style="stop-color:rgb(255,149,57)"/><stop offset="10%" stop-opacity="1" style="stop-color:rgb(255,167,52)"/><stop offset="42.173913043478265%" stop-opacity="1" style="stop-color:rgb(244,230,31)"/><stop offset="100%" stop-opacity="1" style="stop-color:rgb(251,246,182)"/></linearGradient><path d=" M 207.12 750.896 C 207.113 751.302 207.109 751.709 207.109 752.118 L 207.281 752.118 C 210.855 779.036 215.989 805.881 222.7 832.671 C 230.357 803.977 235.712 777.12 238.783 752.118 L 238.941 752.118 C 238.941 751.711 238.937 751.306 238.93 750.902 C 238.934 750.874 238.937 750.846 238.941 750.819 L 238.928 750.819 C 238.586 733.852 231.592 720.286 223.025 720.286 C 214.458 720.286 207.464 733.852 207.122 750.819 L 207.109 750.819 C 207.113 750.845 207.116 750.871 207.12 750.896 Z " fill="url(#_lgradient_17)"/></g><g><path d=" M 223.025 589.536 L 223.025 589.536 L 223.025 564.066 L 223.025 562.366 L 223.025 538.597 C 240.048 538.597 253.999 549.101 255.104 562.366 L 255.175 562.366 L 255.175 564.066 L 255.175 669.702 L 223.025 669.702 L 223.025 589.536 Z " fill="rgb(240,240,244)"/><path d=" M 223.025 589.536 L 223.025 589.536 L 223.025 564.066 L 223.025 562.366 L 223.025 538.597 C 206.002 538.597 192.051 549.101 190.946 562.366 L 190.875 562.366 L 190.875 564.066 L 190.875 669.702 L 223.025 669.702 L 223.025 589.536 Z " fill="rgb(248,248,249)"/><path d=" M 195.885 683.898 L 195.885 669.702 L 223.025 669.702 L 223.025 683.898 L 223.025 693.084 C 212.491 692.654 203.453 689.601 195.885 683.898 Z " fill="rgb(91,91,94)"/><path d=" M 250.165 683.898 L 250.165 669.702 L 223.025 669.702 L 223.025 683.898 L 223.025 693.084 C 233.559 692.654 242.597 689.601 250.165 683.898 Z " fill="rgb(61,61,64)"/></g></g></g></g></svg>